<?xml version="1.0" encoding="UTF-8" standalone="no"?><!DOCTYPE svg PUBLIC "-//W3C//DTD SVG 1.1//EN" "http://www.w3.org/Graphics/SVG/1.1/DTD/svg11.dtd"><svg width="100%" height="100%" viewBox="0 0 224 212" version="1.1" xmlns="http://www.w3.org/2000/svg" xmlns:xlink="http://www.w3.org/1999/xlink" xml:space="preserve" xmlns:serif="http://www.serif.com/" style="fill-rule:evenodd;clip-rule:evenodd;stroke-linejoin:round;stroke-miterlimit:2;"><rect id="Alcohol" x="0" y="0.384" width="223.502" height="211.507" style="fill:none;"/><path id="Hex" d="M39.228,156.934l-11.017,-5.206c-3.776,-1.784 -6.234,-5.168 -6.234,-8.965l0,-73.242c0,-3.797 2.458,-7.184 6.234,-8.968l77.499,-36.621c1.878,-0.888 3.961,-1.327 6.038,-1.327c2.074,0 4.166,0.439 6.044,1.327l4.634,2.19c-0.373,-0.009 -0.763,-0.003 -1.17,0.019l-0,-0.004l-10.003,0c-3.866,0 -7,3.134 -7,7l0,1.678l-71.069,33.584c-0.627,0.296 -0.882,0.765 -0.882,1.122l0,73.242c0,0.357 0.255,0.826 0.882,1.122l6.045,2.857l0,10.192Zm88.347,-128.379l14.191,6.706l0,1.165c-2.878,0.856 -4.981,3.513 -5.002,6.665l-8.567,-4.048c0.038,-0.296 0.058,-0.599 0.058,-0.905l0,-5c0.187,-1.948 -0.044,-3.465 -0.68,-4.582Zm43.15,20.391l24.563,11.607c3.776,1.784 6.237,5.171 6.237,8.968l0,73.242c0,3.797 -2.464,7.181 -6.237,8.965l-17.014,8.04l0,-6.631c0,-0.881 -0.163,-1.723 -0.46,-2.5c0.121,-0.317 0.22,-0.645 0.295,-0.982l12.21,-5.77c0.627,-0.296 0.882,-0.765 0.882,-1.122l0,-73.242c0,-0.357 -0.255,-0.826 -0.882,-1.122l-24.55,-11.601l0,-1.95c2.643,-0.786 4.632,-3.091 4.956,-5.902Zm-35.17,131.009l-17.763,8.394c-3.721,1.761 -8.361,1.761 -12.082,0l-27.96,-13.212l12.785,0l1.496,2.217l3.011,2.031l1.793,0.558l1.912,0.194l11.151,0l0.781,0.369c0.665,0.313 1.477,0.313 2.145,0l0.781,-0.369l20.156,0l1.795,-0.182Zm18.256,-18.818l2.543,-1.202c0.786,0.133 1.592,0.202 2.415,0.202l5.505,-0l-0,1l-10.462,0Z" style="fill:#189caa;stroke:#189caa;stroke-width:0.5px;"/><g id="Alcohol1" serif:id="Alcohol"><path d="M101.249,138.137c0,-8.271 6.73,-14.999 15.005,-14.999c8.275,0 15.006,6.728 15.006,14.999l0,25.001c0,2.754 -2.247,5 -5.002,5l-20.008,0c-2.755,0 -5.002,-2.246 -5.002,-5l0,-25.001Zm-5.002,-16.328l0,48.829c0,1.377 1.123,2.5 2.501,2.5l35.013,0c1.378,0 2.501,-1.123 2.501,-2.5l0,-48.829c0,-5.449 -1.026,-10.752 -3.048,-15.79l-10.385,-28.457c-0.547,-1.425 -0.977,-2.9 -1.221,-4.424l-10.707,0c-0.273,1.524 -0.674,3.047 -1.25,4.502l-10.327,28.301c-2.051,5.117 -3.077,10.42 -3.077,15.868" style="fill:#189caa;fill-rule:nonzero;"/><path d="M168.773,168.137c1.378,0 2.501,-1.123 2.501,-2.5l0,-12.5l-12.505,0c-4.133,0 -7.503,-3.369 -7.503,-7.5l0,-29.999c0,-4.131 3.37,-7.5 7.503,-7.5l12.505,0l0,-7.803c0,-3.798 -1.7,-7.373 -4.699,-9.746l-3.126,-2.5c-2.979,-2.373 -4.679,-5.928 -4.679,-9.746l0,-25.205l-10.003,0l0,25.205c0,3.818 -1.7,7.373 -4.699,9.746l-3.106,2.5c-2.853,2.275 -4.524,5.625 -4.67,9.248l1.602,4.405c2.218,5.546 3.37,11.494 3.37,17.568l0,46.328l27.51,0" style="fill:#189caa;fill-rule:nonzero;"/><path d="M126.258,138.137c0,-5.517 -4.485,-10 -10.004,-10c-5.52,0 -10.003,4.482 -10.003,10l0,25.001l20.008,0l0,-25.001" style="fill:#189caa;fill-rule:nonzero;"/><path d="M158.77,33.138l-10.003,0l0,5l10.003,0l0,-5" style="fill:#189caa;fill-rule:nonzero;"/><path d="M121.255,33.138l-10.003,0l0,5l10.003,0l0,-5" style="fill:#189caa;fill-rule:nonzero;"/><path d="M143.764,48.138l20.007,0l0,-5l-20.007,0l0,5" style="fill:#189caa;fill-rule:nonzero;"/><path d="M111.252,68.138l10.003,0l0,-25.001l-10.003,0l0,25.001" style="fill:#189caa;fill-rule:nonzero;"/><path d="M74.715,143.137l-28.487,0l0,15l20.955,0l7.532,-15" style="fill:#189caa;fill-rule:nonzero;"/><path d="M66.236,93.138l10.003,0l0,-5l-10.003,0l0,5" style="fill:#189caa;fill-rule:nonzero;"/><path d="M64.78,103.138l12.915,0l-1.006,-5l-10.902,0l-1.006,5" style="fill:#189caa;fill-rule:nonzero;"/><path d="M156.268,115.638l0,29.999c0,1.378 1.124,2.501 2.501,2.501l12.505,0l0,-35l-12.505,0c-1.378,0 -2.501,1.123 -2.501,2.501" style="fill:#189caa;fill-rule:nonzero;"/><path d="M66.236,123.138c-5.52,0 -10.004,4.482 -10.004,10l-5.002,0c0,-8.272 6.731,-15 15.006,-15l0,5Zm-20.008,42.5c0,1.377 1.124,2.5 2.501,2.5l42.515,0l0,-46.328c0,-0.595 0.049,-1.2 0.078,-1.797c-1.104,-1.172 -2.334,-2.197 -3.702,-3.027l-5.226,-3.076c-1.778,-1.016 -3.107,-2.822 -3.556,-4.941l-0.147,-0.83l-14.908,0l-0.146,0.771c-0.449,2.178 -1.778,3.984 -3.576,5.03l-5.208,3.046c-5.324,3.154 -8.626,8.926 -8.626,15.108l0,6.044l28.458,0c1.758,0 3.35,0.869 4.259,2.354c0.918,1.494 1.016,3.301 0.244,4.873l-7.532,15.019c-0.84,1.709 -2.54,2.754 -4.474,2.754l-20.955,0l0,2.5" style="fill:#189caa;fill-rule:nonzero;"/></g></svg>