<?xml version="1.0" encoding="UTF-8" standalone="no"?><!DOCTYPE svg PUBLIC "-//W3C//DTD SVG 1.1//EN" "http://www.w3.org/Graphics/SVG/1.1/DTD/svg11.dtd"><svg width="100%" height="100%" viewBox="0 0 224 212" version="1.1" xmlns="http://www.w3.org/2000/svg" xmlns:xlink="http://www.w3.org/1999/xlink" xml:space="preserve" xmlns:serif="http://www.serif.com/" style="fill-rule:evenodd;clip-rule:evenodd;stroke-linejoin:round;stroke-miterlimit:2;"><rect id="Apple" x="0" y="0.384" width="223.502" height="211.507" style="fill:none;"/><g id="Apple1" serif:id="Apple"><path id="Hex" d="M73.211,172.992l-45,-21.264c-3.776,-1.784 -6.234,-5.168 -6.234,-8.965l0,-73.242c0,-3.797 2.458,-7.184 6.234,-8.968l41.464,-19.593c-0.026,0.057 -0.051,0.114 -0.076,0.171l-0.062,0.146l-0.516,1.738l-0.197,1.889l0,0.261l0,0.027c0.001,0.337 0.011,3.668 0,0c0.004,1.343 0.102,2.681 0.296,4.012l0.003,0.02c0.101,0.677 0.225,1.348 0.374,2.014l-36.315,17.161c-0.627,0.296 -0.882,0.765 -0.882,1.122l0,73.242c0,0.357 0.255,0.826 0.882,1.122l26.462,12.505c1.011,1.713 2.067,3.372 3.165,4.963c3.14,4.546 6.641,8.498 10.401,11.639Zm8.392,-137.668l24.107,-11.392c1.878,-0.888 3.961,-1.327 6.038,-1.327c2.074,0 4.166,0.439 6.044,1.327l77.496,36.621c3.776,1.784 6.237,5.171 6.237,8.968l0,73.242c0,3.797 -2.464,7.181 -6.237,8.965l-45.124,21.323c4.836,-4.022 9.475,-9.575 13.673,-16.652l26.482,-12.514c0.627,-0.296 0.882,-0.765 0.882,-1.122l0,-73.242c0,-0.357 -0.255,-0.826 -0.882,-1.122l-41.222,-19.48c-0.014,-0.239 -0.034,-0.478 -0.061,-0.716c-0.051,-0.476 -0.132,-0.973 -0.242,-1.47c-0.104,-0.479 -0.235,-0.957 -0.388,-1.425l-0.024,-0.073c-0.158,-0.464 -0.34,-0.921 -0.543,-1.363c-0.2,-0.436 -0.424,-0.863 -0.662,-1.272l-0.071,-0.12c-0.249,-0.409 -0.515,-0.806 -0.802,-1.187c-0.307,-0.412 -0.633,-0.801 -0.985,-1.174c-0.329,-0.354 -0.675,-0.689 -1.039,-1.008l-0.086,-0.074c-0.371,-0.314 -0.755,-0.614 -1.153,-0.889l-0.038,-0.026c-0.391,-0.266 -0.788,-0.513 -1.2,-0.741l-0.096,-0.052c-0.429,-0.228 -0.864,-0.437 -1.309,-0.621c-0.463,-0.191 -0.932,-0.358 -1.417,-0.498c-0.46,-0.137 -0.932,-0.249 -1.399,-0.338l-0.029,-0.006c-0.49,-0.091 -0.979,-0.152 -1.475,-0.192c-0.518,-0.042 -1.043,-0.051 -1.567,-0.033l-0.003,0c-0.491,0.017 -0.988,0.058 -1.479,0.127c-2.716,0.374 -5.369,0.985 -7.925,1.813l-12.281,-5.804c-0.328,-0.155 -0.697,-0.237 -1.075,-0.237c-0.375,0 -0.741,0.082 -1.069,0.237l-9.222,4.358c-0.385,-0.095 -0.772,-0.182 -1.162,-0.26c-1.84,-0.372 -3.695,-0.556 -5.57,-0.552l-13.121,-0Zm52.288,145.418l-16.098,7.607c-3.721,1.761 -8.361,1.761 -12.082,0l-16.087,-7.602c1.044,0.135 2.096,0.204 3.153,0.204c3.864,0.003 7.677,-0.456 11.431,-1.375c0.958,-0.234 1.905,-0.496 2.842,-0.786l3.63,1.715c0.665,0.313 1.477,0.313 2.145,0l3.63,-1.715c0.937,0.29 1.884,0.552 2.843,0.786c3.754,0.918 7.566,1.378 11.43,1.375c1.05,-0 2.106,-0.07 3.165,-0.21Z" style="fill:#189caa;stroke:#189caa;stroke-width:0.5px;"/><g><path id="path8-78" d="M130.724,69.292c-3.302,0 -6.56,0.39 -9.768,1.175c-3.208,0.782 -6.275,1.937 -9.205,3.46c-2.927,-1.523 -5.997,-2.678 -9.205,-3.46c-3.208,-0.785 -6.466,-1.175 -9.768,-1.175c-22.351,0 -40.535,17.897 -40.535,39.894c0,21.601 17.525,64.767 40.535,64.767c3.302,0.003 6.56,-0.39 9.768,-1.175c3.208,-0.782 6.278,-1.937 9.205,-3.46c2.93,1.523 5.997,2.678 9.205,3.46c3.208,0.785 6.466,1.178 9.768,1.175c10.333,0 20.672,-8.789 29.121,-24.741c6.829,-12.896 11.414,-28.98 11.414,-40.025c0,-21.996 -18.182,-39.894 -40.535,-39.894Zm27.108,42.475c-0.173,0 -0.34,-0.015 -0.507,-0.05c-0.164,-0.032 -0.328,-0.082 -0.486,-0.146c-0.155,-0.067 -0.305,-0.146 -0.448,-0.24c-0.138,-0.094 -0.27,-0.202 -0.39,-0.319c-0.12,-0.12 -0.226,-0.249 -0.322,-0.393c-0.094,-0.141 -0.173,-0.287 -0.24,-0.445c-0.064,-0.155 -0.111,-0.319 -0.144,-0.483c-0.035,-0.167 -0.053,-0.334 -0.053,-0.504c0,-13.374 -10.998,-24.258 -24.519,-24.258c-0.17,0 -0.337,-0.018 -0.504,-0.05c-0.167,-0.032 -0.328,-0.079 -0.483,-0.146c-0.158,-0.064 -0.308,-0.144 -0.448,-0.237c-0.144,-0.097 -0.27,-0.202 -0.39,-0.322c-0.12,-0.12 -0.229,-0.249 -0.322,-0.39c-0.097,-0.141 -0.176,-0.29 -0.24,-0.445c-0.064,-0.158 -0.114,-0.319 -0.149,-0.486c-0.032,-0.167 -0.05,-0.334 -0.05,-0.501c0,-0.17 0.018,-0.34 0.05,-0.504c0.035,-0.167 0.085,-0.328 0.149,-0.486c0.064,-0.155 0.144,-0.305 0.24,-0.445c0.094,-0.141 0.202,-0.272 0.322,-0.393c0.12,-0.12 0.246,-0.226 0.39,-0.319c0.141,-0.094 0.29,-0.176 0.448,-0.237c0.155,-0.064 0.316,-0.114 0.483,-0.149c0.167,-0.032 0.334,-0.05 0.504,-0.05c16.374,0 29.695,13.198 29.695,29.42c0,0.17 -0.018,0.337 -0.05,0.504c-0.035,0.164 -0.085,0.328 -0.149,0.483c-0.064,0.158 -0.144,0.305 -0.237,0.445c-0.094,0.144 -0.202,0.272 -0.322,0.393c-0.12,0.117 -0.249,0.226 -0.393,0.319c-0.141,0.094 -0.29,0.173 -0.448,0.24c-0.155,0.064 -0.316,0.114 -0.483,0.146c-0.167,0.035 -0.334,0.05 -0.504,0.05l-0,-0Z" style="fill:#189caa;fill-rule:nonzero;"/><path id="path9-40" d="M88.425,64.338c1.433,-0.135 2.886,-0.208 4.354,-0.208c2.429,0 4.846,0.19 7.245,0.574c0.823,-2.897 2.001,-5.64 3.533,-8.235c1.529,-2.593 3.363,-4.951 5.502,-7.075c0.24,-0.243 0.486,-0.48 0.735,-0.715c-0.979,-1.008 -2.045,-1.907 -3.202,-2.701c-1.16,-0.791 -2.388,-1.459 -3.68,-2.007c-1.295,-0.545 -2.628,-0.955 -4.005,-1.233c-1.377,-0.278 -2.766,-0.416 -4.169,-0.413l-16.324,0c-0.173,0 -0.34,0.018 -0.507,0.05c-0.164,0.035 -0.328,0.082 -0.483,0.146c-0.158,0.064 -0.308,0.144 -0.451,0.237c-0.138,0.097 -0.27,0.202 -0.39,0.322c-0.12,0.12 -0.226,0.252 -0.322,0.393c-0.094,0.141 -0.173,0.29 -0.24,0.445c-0.064,0.158 -0.111,0.316 -0.144,0.483c-0.035,0.167 -0.053,0.337 -0.053,0.504l0,0.267c0.003,1.011 0.076,2.019 0.223,3.021c0.149,1.002 0.366,1.986 0.659,2.959c0.293,0.967 0.65,1.913 1.078,2.83c0.431,0.917 0.92,1.799 1.479,2.646c0.554,0.847 1.169,1.646 1.843,2.405c0.671,0.759 1.397,1.465 2.174,2.115c0.773,0.653 1.594,1.248 2.455,1.781c0.861,0.533 1.761,1.005 2.689,1.409l-0,-0Z" style="fill:#189caa;fill-rule:nonzero;"/><path id="path10-0" d="M111.751,68.19c3.393,-1.521 6.917,-2.616 10.576,-3.287c2.886,-4.066 7.778,-7.052 13.673,-7.937c0.422,-0.056 0.835,-0.152 1.239,-0.287c0.404,-0.135 0.794,-0.302 1.166,-0.504c0.375,-0.205 0.727,-0.439 1.061,-0.703c0.328,-0.267 0.636,-0.56 0.914,-0.882c0.278,-0.319 0.527,-0.662 0.744,-1.028c0.217,-0.363 0.398,-0.744 0.548,-1.143c0.149,-0.398 0.261,-0.806 0.337,-1.225c0.076,-0.416 0.114,-0.838 0.111,-1.263l0,-0.193c0,-0.255 -0.012,-0.507 -0.041,-0.759c-0.026,-0.252 -0.067,-0.501 -0.123,-0.75c-0.053,-0.246 -0.12,-0.492 -0.199,-0.732c-0.082,-0.24 -0.176,-0.478 -0.281,-0.706c-0.105,-0.231 -0.226,-0.457 -0.352,-0.674c-0.132,-0.217 -0.272,-0.428 -0.425,-0.63c-0.152,-0.205 -0.313,-0.398 -0.489,-0.583c-0.173,-0.187 -0.354,-0.363 -0.545,-0.53c-0.193,-0.164 -0.393,-0.322 -0.601,-0.466c-0.211,-0.144 -0.425,-0.278 -0.647,-0.401c-0.226,-0.12 -0.454,-0.231 -0.688,-0.328c-0.234,-0.097 -0.472,-0.182 -0.718,-0.252c-0.243,-0.073 -0.492,-0.132 -0.738,-0.179c-0.252,-0.047 -0.504,-0.076 -0.759,-0.097c-0.252,-0.021 -0.507,-0.023 -0.762,-0.015c-0.252,0.009 -0.507,0.029 -0.759,0.064c-8.215,1.131 -15.765,4.799 -21.261,10.327c-1.79,1.775 -3.331,3.744 -4.626,5.906c-1.295,2.162 -2.3,4.45 -3.018,6.864c2.282,0.627 4.503,1.424 6.662,2.391l0,-0Z" style="fill:#189caa;fill-rule:nonzero;"/></g></g></svg>