<?xml version="1.0" encoding="UTF-8" standalone="no"?><!DOCTYPE svg PUBLIC "-//W3C//DTD SVG 1.1//EN" "http://www.w3.org/Graphics/SVG/1.1/DTD/svg11.dtd"><svg width="100%" height="100%" viewBox="0 0 224 212" version="1.1" xmlns="http://www.w3.org/2000/svg" xmlns:xlink="http://www.w3.org/1999/xlink" xml:space="preserve" xmlns:serif="http://www.serif.com/" style="fill-rule:evenodd;clip-rule:evenodd;stroke-linejoin:round;stroke-miterlimit:2;"><rect id="Blood-Pressure" serif:id="Blood Pressure" x="0" y="0.384" width="223.502" height="211.507" style="fill:none;"/><path id="Hex" d="M69.321,171.154l-41.11,-19.426c-3.776,-1.784 -6.234,-5.168 -6.234,-8.965l0,-73.242c0,-3.797 2.458,-7.184 6.234,-8.968l59.432,-28.084c-1.748,4.482 -3.75,8.818 -5.968,13.014l-48.492,22.915c-0.627,0.296 -0.882,0.765 -0.882,1.122l0,73.242c0,0.357 0.255,0.826 0.882,1.122l36.887,17.431c-0.869,1.882 -1.311,3.878 -1.311,5.916c0,1.332 0.189,2.646 0.562,3.922Zm32.698,-145.477l3.692,-1.744c1.878,-0.888 3.961,-1.327 6.038,-1.327c2.074,0 4.166,0.439 6.044,1.327l39.843,18.828c-0.168,-0.026 -0.336,-0.051 -0.505,-0.074c-0.594,-0.083 -1.19,-0.153 -1.787,-0.208c-0.596,-0.055 -1.194,-0.097 -1.793,-0.125c-0.598,-0.028 -1.197,-0.042 -1.796,-0.042c-0.599,0 -1.198,0.014 -1.796,0.042c-0.6,0.028 -1.2,0.07 -1.798,0.126c-0.596,0.055 -1.19,0.125 -1.782,0.208c-0.594,0.083 -1.187,0.181 -1.776,0.292c-0.587,0.11 -1.171,0.235 -1.753,0.372l-0.013,0.003c-0.582,0.138 -1.161,0.289 -1.737,0.454c-0.57,0.163 -1.136,0.34 -1.697,0.53l-26.578,-12.56c-0.328,-0.155 -0.697,-0.237 -1.075,-0.237c-0.375,0 -0.741,0.082 -1.069,0.237l-5.277,2.494c-0.936,-2.292 -1.806,-4.622 -2.605,-6.993c-0.194,-0.575 -0.457,-1.112 -0.778,-1.602Zm75.545,26.501l17.725,8.376c3.776,1.784 6.237,5.171 6.237,8.968l0,73.242c0,3.797 -2.464,7.181 -6.237,8.965l-77.496,36.621c-3.721,1.761 -8.361,1.761 -12.082,0l-7.478,-3.533c4.76,-0.656 8.973,-2.268 12.225,-4.414l0.222,0.105c0.665,0.313 1.477,0.313 2.145,0l2.124,-1.004l3.32,0c2.46,0 4.623,-1.269 5.872,-3.188c0.4,-0.008 0.799,-0.022 1.199,-0.043c0.606,-0.032 1.211,-0.078 1.816,-0.138l0.011,-0.001c0.605,-0.061 1.207,-0.137 1.808,-0.227c0.606,-0.091 1.209,-0.197 1.809,-0.318l0.002,-0c0.596,-0.12 1.191,-0.255 1.782,-0.403l0.003,-0.001c0.59,-0.149 1.178,-0.313 1.762,-0.49l0.003,-0.001c0.584,-0.178 1.163,-0.371 1.738,-0.578c0.574,-0.206 1.144,-0.427 1.707,-0.662c0.563,-0.234 1.119,-0.481 1.67,-0.743c0.553,-0.262 1.099,-0.537 1.638,-0.827c0.538,-0.288 1.068,-0.589 1.591,-0.903c0.525,-0.315 1.042,-0.643 1.551,-0.984c0.506,-0.339 1.003,-0.689 1.492,-1.052c0.491,-0.364 0.971,-0.74 1.443,-1.127l0.007,-0.005c0.47,-0.387 0.931,-0.784 1.382,-1.193l0.006,-0.005c0.451,-0.41 0.891,-0.829 1.321,-1.259c0.433,-0.432 0.854,-0.874 1.264,-1.327c0.41,-0.452 0.808,-0.915 1.195,-1.386c0.346,-0.421 0.683,-0.85 1.01,-1.286l36.972,-17.471c0.627,-0.296 0.882,-0.765 0.882,-1.122l0,-73.242c0,-0.357 -0.255,-0.826 -0.882,-1.122l-2.392,-1.13c-0.208,-0.548 -0.429,-1.092 -0.662,-1.631l-0.004,-0.009c-0.238,-0.549 -0.488,-1.091 -0.751,-1.628c-0.264,-0.539 -0.54,-1.071 -0.828,-1.596c-0.288,-0.525 -0.589,-1.044 -0.901,-1.556l-0.003,-0.005c-0.312,-0.51 -0.635,-1.013 -0.97,-1.509c-0.336,-0.498 -0.684,-0.987 -1.043,-1.468c-0.358,-0.48 -0.727,-0.951 -1.106,-1.413c-0.382,-0.465 -0.774,-0.922 -1.178,-1.369c-0.399,-0.442 -0.809,-0.876 -1.228,-1.3l-0.006,-0.006c-0.422,-0.426 -0.854,-0.842 -1.294,-1.247c-0.129,-0.119 -0.259,-0.237 -0.39,-0.354Z" style="fill:#189caa;stroke:#189caa;stroke-width:0.5px;"/><path id="Blood-Pressure1" serif:id="Blood Pressure" d="M124.88,135.804c0.758,-0.752 1.483,-1.533 2.175,-2.346c0.693,-0.812 1.351,-1.651 1.973,-2.518c0.622,-0.868 1.208,-1.759 1.756,-2.675c0.548,-0.916 1.057,-1.853 1.528,-2.812c0.47,-0.958 0.9,-1.934 1.288,-2.928c0.389,-0.994 0.736,-2.003 1.041,-3.026c0.305,-1.023 0.566,-2.057 0.785,-3.101c0.218,-1.045 0.393,-2.098 0.525,-3.157c-0.484,-0.238 -0.961,-0.486 -1.434,-0.745c-0.472,-0.259 -0.938,-0.528 -1.398,-0.809c-0.46,-0.28 -0.914,-0.571 -1.361,-0.871c-0.447,-0.301 -0.886,-0.611 -1.319,-0.932c-0.433,-0.32 -0.859,-0.65 -1.277,-0.99c-0.418,-0.339 -0.828,-0.688 -1.231,-1.046c-0.402,-0.358 -0.796,-0.725 -1.182,-1.101c-0.386,-0.376 -0.763,-0.76 -1.132,-1.153c-0.369,-0.393 -0.728,-0.794 -1.079,-1.203c-0.351,-0.409 -0.691,-0.825 -1.023,-1.25c-0.332,-0.424 -0.655,-0.856 -0.967,-1.294c-0.312,-0.439 -0.615,-0.885 -0.907,-1.337c-0.292,-0.453 -0.575,-0.911 -0.846,-1.376c-0.272,-0.465 -0.533,-0.936 -0.784,-1.413c-0.251,-0.477 -0.49,-0.959 -0.72,-1.447c-0.229,-0.487 -0.446,-0.98 -0.653,-1.477c-0.207,-0.497 -0.402,-0.999 -0.587,-1.506c-0.184,-0.506 -0.357,-1.016 -0.518,-1.53c-0.161,-0.514 -0.311,-1.032 -0.449,-1.553c-0.138,-0.521 -0.265,-1.044 -0.379,-1.571c-0.114,-0.526 -0.217,-1.055 -0.308,-1.586c-0.091,-0.531 -0.169,-1.064 -0.236,-1.598c-0.067,-0.535 -0.121,-1.071 -0.164,-1.607c-0.043,-0.537 -0.074,-1.075 -0.092,-1.614c-0.018,-0.539 -0.024,-1.077 -0.019,-1.615c0.005,-0.539 0.023,-1.077 0.053,-1.615c0.031,-0.538 0.072,-1.075 0.126,-1.611c0.054,-0.536 0.121,-1.07 0.199,-1.603c0.078,-0.533 0.168,-1.064 0.27,-1.593c0.102,-0.529 0.215,-1.055 0.341,-1.579c0.125,-0.525 0.263,-1.045 0.412,-1.563c0.15,-0.518 0.31,-1.032 0.482,-1.542c-9.091,-12.013 -16.65,-25.286 -21.606,-39.998c-6.206,18.409 -16.473,34.559 -28.725,48.822c-14.561,16.946 -15.796,41.665 0,57.468c0.471,0.469 0.953,0.925 1.446,1.37c0.494,0.446 0.997,0.878 1.512,1.298c0.515,0.42 1.039,0.828 1.574,1.222c0.535,0.395 1.078,0.776 1.632,1.144c0.553,0.368 1.114,0.722 1.685,1.062c0.571,0.341 1.149,0.667 1.735,0.979c0.586,0.312 1.18,0.61 1.781,0.893c0.601,0.283 1.208,0.551 1.822,0.805c0.615,0.253 1.234,0.492 1.86,0.715c0.626,0.223 1.257,0.431 1.892,0.622c0.636,0.193 1.276,0.369 1.921,0.53c0.644,0.161 1.293,0.305 1.944,0.435c0.651,0.129 1.306,0.243 1.963,0.34c0.657,0.097 1.316,0.178 1.977,0.243c0.662,0.065 1.323,0.114 1.987,0.146c0.663,0.032 1.327,0.049 1.991,0.049c0.665,0 1.328,-0.016 1.992,-0.049c0.663,-0.033 1.326,-0.081 1.986,-0.146c0.662,-0.065 1.32,-0.146 1.978,-0.243c0.657,-0.097 1.311,-0.211 1.963,-0.34c0.651,-0.129 1.299,-0.274 1.944,-0.435c0.644,-0.161 1.284,-0.337 1.92,-0.53c0.636,-0.192 1.267,-0.4 1.892,-0.622c0.626,-0.223 1.246,-0.462 1.86,-0.715c0.614,-0.254 1.221,-0.522 1.823,-0.805c0.601,-0.283 1.195,-0.581 1.78,-0.893c0.586,-0.312 1.165,-0.638 1.736,-0.979c0.57,-0.341 1.132,-0.694 1.685,-1.062c0.553,-0.368 1.097,-0.749 1.632,-1.144c0.534,-0.395 1.059,-0.803 1.573,-1.222c0.514,-0.42 1.019,-0.853 1.512,-1.298c0.493,-0.445 0.976,-0.901 1.447,-1.37l-0.001,0Zm-31.339,-15.236c-0.128,0.047 -0.261,0.081 -0.395,0.101c-0.135,0.021 -0.271,0.028 -0.408,0.022c-0.136,-0.005 -0.271,-0.025 -0.404,-0.057c-0.133,-0.033 -0.262,-0.078 -0.385,-0.135c-0.124,-0.058 -0.241,-0.127 -0.352,-0.207c-0.11,-0.081 -0.212,-0.171 -0.305,-0.272c-0.092,-0.1 -0.175,-0.209 -0.246,-0.326c-0.071,-0.117 -0.131,-0.24 -0.178,-0.368l-4.904,-13.595l-1.412,3.85c-0.03,0.109 -0.069,0.215 -0.116,0.317c-0.048,0.103 -0.103,0.201 -0.166,0.294c-0.063,0.094 -0.134,0.182 -0.211,0.265c-0.078,0.082 -0.161,0.157 -0.251,0.226c-0.09,0.068 -0.185,0.129 -0.284,0.182c-0.1,0.053 -0.204,0.099 -0.31,0.135c-0.107,0.037 -0.217,0.064 -0.328,0.083c-0.111,0.019 -0.224,0.028 -0.337,0.028l-14.25,0c-0.137,0 -0.273,-0.013 -0.408,-0.04c-0.135,-0.027 -0.265,-0.067 -0.391,-0.119c-0.127,-0.052 -0.247,-0.117 -0.362,-0.193c-0.114,-0.076 -0.219,-0.163 -0.316,-0.26c-0.097,-0.097 -0.183,-0.202 -0.26,-0.316c-0.076,-0.114 -0.14,-0.235 -0.193,-0.362c-0.052,-0.127 -0.092,-0.257 -0.119,-0.391c-0.027,-0.135 -0.04,-0.271 -0.04,-0.408c0,-0.137 0.013,-0.273 0.04,-0.408c0.027,-0.135 0.067,-0.265 0.119,-0.392c0.052,-0.127 0.117,-0.247 0.193,-0.361c0.077,-0.114 0.163,-0.22 0.26,-0.317c0.097,-0.097 0.203,-0.183 0.316,-0.26c0.114,-0.076 0.235,-0.14 0.362,-0.193c0.127,-0.052 0.257,-0.092 0.391,-0.119c0.135,-0.027 0.271,-0.041 0.408,-0.041l12.796,0l2.926,-8.003c0.072,-0.201 0.174,-0.388 0.304,-0.557c0.13,-0.171 0.282,-0.317 0.457,-0.44c0.175,-0.124 0.365,-0.217 0.569,-0.282c0.204,-0.064 0.413,-0.097 0.627,-0.097c0.214,0 0.423,0.033 0.627,0.097c0.204,0.065 0.394,0.158 0.569,0.282c0.175,0.123 0.327,0.269 0.457,0.44c0.13,0.17 0.231,0.356 0.304,0.557l4.769,13.214l4.995,-15.709c0.034,-0.106 0.075,-0.208 0.125,-0.308c0.05,-0.099 0.107,-0.193 0.173,-0.283c0.065,-0.09 0.137,-0.174 0.215,-0.253c0.078,-0.078 0.163,-0.15 0.253,-0.215c0.09,-0.065 0.185,-0.122 0.284,-0.172c0.099,-0.05 0.201,-0.092 0.308,-0.124c0.106,-0.034 0.214,-0.058 0.323,-0.074c0.11,-0.016 0.22,-0.023 0.331,-0.022c0.111,0.002 0.222,0.013 0.33,0.031c0.11,0.02 0.217,0.048 0.322,0.084c0.105,0.037 0.206,0.081 0.304,0.134c0.098,0.052 0.19,0.113 0.279,0.18c0.088,0.067 0.17,0.142 0.247,0.222c0.076,0.081 0.146,0.167 0.208,0.258c0.062,0.092 0.117,0.189 0.164,0.289c0.047,0.101 0.085,0.204 0.116,0.311l0.009,0c1.032,3.605 2.08,7.107 3.188,10.618c0.515,1.65 1.048,3.282 1.598,4.932l1.327,-3.722c0.073,-0.204 0.175,-0.391 0.305,-0.563c0.13,-0.171 0.283,-0.319 0.46,-0.444c0.176,-0.124 0.367,-0.218 0.573,-0.283c0.205,-0.065 0.417,-0.097 0.632,-0.097l14.249,0c0.137,0 0.272,0.013 0.407,0.04c0.135,0.027 0.265,0.067 0.392,0.119c0.126,0.052 0.247,0.117 0.361,0.193c0.114,0.076 0.219,0.163 0.316,0.26c0.097,0.097 0.184,0.203 0.26,0.316c0.076,0.114 0.141,0.235 0.193,0.362c0.052,0.127 0.092,0.258 0.118,0.392c0.027,0.135 0.041,0.27 0.041,0.407c0,0.138 -0.013,0.273 -0.041,0.408c-0.027,0.135 -0.066,0.265 -0.118,0.392c-0.052,0.127 -0.117,0.247 -0.193,0.361c-0.076,0.114 -0.163,0.22 -0.26,0.317c-0.097,0.097 -0.202,0.184 -0.316,0.26c-0.114,0.076 -0.235,0.141 -0.361,0.193c-0.127,0.052 -0.258,0.092 -0.392,0.119c-0.135,0.027 -0.27,0.04 -0.407,0.04l-12.776,0l-2.833,7.927c-0.107,0.295 -0.272,0.554 -0.493,0.776c-0.222,0.222 -0.481,0.386 -0.775,0.493c-0.129,0.045 -0.262,0.078 -0.397,0.099c-0.136,0.02 -0.272,0.026 -0.409,0.019c-0.137,-0.007 -0.272,-0.027 -0.405,-0.061c-0.132,-0.034 -0.261,-0.08 -0.384,-0.139c-0.124,-0.059 -0.24,-0.129 -0.35,-0.211c-0.11,-0.082 -0.211,-0.174 -0.302,-0.276c-0.092,-0.102 -0.173,-0.211 -0.243,-0.33c-0.07,-0.117 -0.128,-0.241 -0.174,-0.37c-1.294,-3.604 -2.469,-7.123 -3.586,-10.668c-0.44,-1.387 -0.871,-2.783 -1.293,-4.188l-4.761,14.958c-0.041,0.164 -0.103,0.319 -0.182,0.467c-0.08,0.149 -0.177,0.285 -0.29,0.41c-0.114,0.124 -0.24,0.233 -0.381,0.327c-0.14,0.093 -0.29,0.168 -0.449,0.225Zm58.212,-71.257c-0.491,0 -0.982,0.012 -1.473,0.034c-0.49,0.023 -0.98,0.057 -1.469,0.103c-0.489,0.045 -0.977,0.103 -1.463,0.171c-0.486,0.068 -0.971,0.148 -1.453,0.239c-0.483,0.091 -0.963,0.193 -1.441,0.306c-0.478,0.114 -0.953,0.237 -1.425,0.373c-0.472,0.135 -0.941,0.282 -1.406,0.439c-0.465,0.157 -0.927,0.325 -1.384,0.503c-0.458,0.179 -0.911,0.367 -1.36,0.567c-0.449,0.2 -0.893,0.409 -1.331,0.63c-0.439,0.22 -0.873,0.45 -1.301,0.691c-0.428,0.24 -0.851,0.49 -1.268,0.75c-0.417,0.261 -0.827,0.53 -1.232,0.81c-0.404,0.279 -0.801,0.568 -1.192,0.865c-0.391,0.298 -0.774,0.604 -1.15,0.92c-0.377,0.316 -0.746,0.639 -1.107,0.972c-0.362,0.333 -0.715,0.674 -1.061,1.023c-0.345,0.348 -0.683,0.705 -1.012,1.07c-0.33,0.365 -0.65,0.738 -0.961,1.117c-0.312,0.38 -0.615,0.766 -0.908,1.16c-0.294,0.394 -0.579,0.795 -0.853,1.202c-0.275,0.406 -0.541,0.82 -0.797,1.239c-0.256,0.419 -0.502,0.844 -0.738,1.275c-0.236,0.431 -0.462,0.868 -0.678,1.308c-0.216,0.442 -0.421,0.888 -0.617,1.339c-0.195,0.45 -0.38,0.906 -0.554,1.365c-0.175,0.459 -0.337,0.922 -0.49,1.39c-0.153,0.467 -0.294,0.937 -0.425,1.411c-0.131,0.474 -0.25,0.95 -0.359,1.429c-0.109,0.479 -0.206,0.961 -0.292,1.445c-0.086,0.484 -0.161,0.969 -0.225,1.456c-0.064,0.488 -0.116,0.976 -0.157,1.466c-0.041,0.489 -0.07,0.979 -0.088,1.471c-0.018,0.491 -0.025,0.982 -0.02,1.474c0.005,0.491 0.02,0.982 0.049,1.473c0.027,0.49 0.066,0.98 0.116,1.469c0.05,0.489 0.112,0.976 0.185,1.462c0.073,0.486 0.157,0.97 0.252,1.452c0.096,0.482 0.202,0.961 0.319,1.438c0.118,0.478 0.247,0.951 0.386,1.423c0.14,0.471 0.29,0.939 0.452,1.402c0.161,0.464 0.334,0.925 0.516,1.38c0.183,0.456 0.376,0.907 0.58,1.355c0.204,0.447 0.417,0.889 0.642,1.326c0.224,0.437 0.458,0.868 0.702,1.295c0.244,0.426 0.499,0.846 0.763,1.261c0.264,0.415 0.537,0.823 0.82,1.225c0.283,0.402 0.575,0.796 0.876,1.185c0.301,0.388 0.611,0.769 0.93,1.143c0.319,0.373 0.646,0.74 0.982,1.098c0.336,0.358 0.68,0.709 1.032,1.052c0.352,0.342 0.712,0.676 1.08,1.002c0.367,0.326 0.742,0.643 1.125,0.951c0.382,0.308 0.771,0.608 1.168,0.897c0.396,0.29 0.799,0.572 1.208,0.842c0.409,0.272 0.825,0.534 1.246,0.786c0.421,0.252 0.849,0.494 1.282,0.727c0.432,0.232 0.871,0.454 1.314,0.666c0.443,0.212 0.891,0.413 1.344,0.604c0.452,0.191 0.909,0.372 1.369,0.542c0.461,0.17 0.925,0.329 1.394,0.477c0.468,0.149 0.94,0.286 1.415,0.412c0.474,0.127 0.952,0.242 1.432,0.346c0.48,0.104 0.961,0.197 1.446,0.279l0,8.308l3.18,0l0,18.349c-0.002,0.428 -0.013,0.857 -0.035,1.284c-0.022,0.427 -0.055,0.855 -0.098,1.281c-0.043,0.426 -0.096,0.851 -0.161,1.275c-0.064,0.424 -0.138,0.845 -0.222,1.264c-0.085,0.42 -0.179,0.838 -0.284,1.253c-0.105,0.416 -0.22,0.828 -0.345,1.238c-0.125,0.409 -0.26,0.816 -0.406,1.219c-0.145,0.402 -0.299,0.802 -0.464,1.197c-0.164,0.395 -0.338,0.787 -0.522,1.174c-0.183,0.387 -0.377,0.77 -0.579,1.147c-0.202,0.377 -0.413,0.749 -0.634,1.116c-0.22,0.367 -0.449,0.729 -0.687,1.085c-0.238,0.355 -0.485,0.705 -0.74,1.049c-0.255,0.345 -0.519,0.682 -0.791,1.012c-0.272,0.331 -0.551,0.655 -0.839,0.972c-0.288,0.318 -0.583,0.628 -0.886,0.93c-0.303,0.303 -0.613,0.598 -0.93,0.886c-0.317,0.287 -0.641,0.567 -0.972,0.839c-0.331,0.272 -0.669,0.536 -1.012,0.791c-0.344,0.255 -0.693,0.502 -1.049,0.74c-0.355,0.238 -0.717,0.467 -1.084,0.688c-0.367,0.221 -0.739,0.432 -1.116,0.634c-0.377,0.203 -0.759,0.395 -1.146,0.579c-0.387,0.183 -0.778,0.357 -1.174,0.521c-0.395,0.165 -0.794,0.319 -1.197,0.464c-0.402,0.145 -0.809,0.28 -1.218,0.406c-0.409,0.124 -0.821,0.24 -1.236,0.345c-0.416,0.105 -0.833,0.2 -1.253,0.284c-0.42,0.085 -0.841,0.159 -1.264,0.222c-0.423,0.064 -0.848,0.117 -1.274,0.161c-0.426,0.043 -0.853,0.076 -1.28,0.099c-0.427,0.022 -0.855,0.034 -1.283,0.035l-5.218,0l0,-3.174l-9.217,0c-3.028,-3.367 -8.854,-5.643 -15.542,-5.643c-9.801,0 -17.75,4.882 -17.75,10.905c0,6.024 7.949,10.905 17.75,10.905c6.689,0 12.515,-2.276 15.542,-5.634l9.217,0l0,-3.181l5.218,0c0.496,-0.001 0.993,-0.014 1.488,-0.04c0.496,-0.026 0.99,-0.063 1.484,-0.113c0.494,-0.05 0.987,-0.112 1.477,-0.186c0.492,-0.074 0.98,-0.16 1.467,-0.258c0.486,-0.098 0.971,-0.207 1.452,-0.329c0.481,-0.121 0.959,-0.254 1.434,-0.399c0.474,-0.145 0.946,-0.301 1.413,-0.47c0.467,-0.168 0.93,-0.347 1.388,-0.538c0.459,-0.19 0.912,-0.392 1.361,-0.605c0.449,-0.212 0.892,-0.436 1.329,-0.671c0.438,-0.234 0.869,-0.479 1.295,-0.735c0.426,-0.255 0.845,-0.521 1.257,-0.798c0.413,-0.276 0.818,-0.562 1.217,-0.858c0.399,-0.296 0.79,-0.602 1.174,-0.917c0.384,-0.316 0.759,-0.64 1.127,-0.973c0.368,-0.334 0.727,-0.676 1.078,-1.028c0.352,-0.351 0.694,-0.71 1.027,-1.078c0.334,-0.368 0.658,-0.745 0.972,-1.128c0.316,-0.384 0.621,-0.775 0.917,-1.174c0.296,-0.399 0.582,-0.805 0.858,-1.217c0.276,-0.413 0.542,-0.832 0.798,-1.258c0.255,-0.426 0.5,-0.858 0.734,-1.296c0.235,-0.438 0.458,-0.881 0.671,-1.33c0.213,-0.449 0.414,-0.902 0.605,-1.361c0.19,-0.459 0.37,-0.922 0.538,-1.389c0.168,-0.467 0.324,-0.939 0.469,-1.414c0.145,-0.475 0.278,-0.954 0.399,-1.435c0.121,-0.482 0.231,-0.966 0.329,-1.453c0.098,-0.487 0.183,-0.976 0.257,-1.467c0.074,-0.491 0.136,-0.984 0.186,-1.478c0.05,-0.494 0.088,-0.989 0.113,-1.485c0.026,-0.496 0.039,-0.993 0.04,-1.489l0,-18.35l3.18,0l0,-8.307c0.485,-0.081 0.967,-0.175 1.447,-0.279c0.48,-0.104 0.958,-0.219 1.432,-0.345c0.474,-0.127 0.946,-0.264 1.414,-0.412c0.469,-0.149 0.933,-0.308 1.394,-0.478c0.46,-0.169 0.918,-0.35 1.37,-0.541c0.453,-0.191 0.9,-0.392 1.344,-0.604c0.443,-0.212 0.881,-0.434 1.314,-0.666c0.433,-0.233 0.86,-0.474 1.282,-0.727c0.422,-0.252 0.837,-0.514 1.246,-0.785c0.409,-0.272 0.813,-0.552 1.209,-0.842c0.396,-0.29 0.786,-0.59 1.168,-0.898c0.383,-0.308 0.758,-0.625 1.125,-0.951c0.368,-0.326 0.728,-0.66 1.08,-1.003c0.352,-0.342 0.696,-0.693 1.032,-1.052c0.336,-0.359 0.663,-0.724 0.983,-1.098c0.319,-0.373 0.629,-0.754 0.93,-1.142c0.301,-0.388 0.593,-0.783 0.876,-1.185c0.283,-0.402 0.556,-0.81 0.82,-1.225c0.264,-0.414 0.518,-0.835 0.763,-1.261c0.244,-0.426 0.479,-0.858 0.703,-1.295c0.225,-0.437 0.438,-0.879 0.642,-1.326c0.204,-0.447 0.397,-0.899 0.58,-1.355c0.182,-0.456 0.355,-0.916 0.516,-1.38c0.161,-0.464 0.312,-0.932 0.452,-1.402c0.139,-0.471 0.269,-0.946 0.386,-1.423c0.117,-0.477 0.224,-0.957 0.319,-1.438c0.096,-0.482 0.179,-0.966 0.252,-1.452c0.073,-0.486 0.135,-0.973 0.185,-1.463c0.05,-0.489 0.089,-0.978 0.117,-1.469c0.027,-0.491 0.044,-0.982 0.049,-1.473c0.005,-0.492 -0.002,-0.983 -0.02,-1.474c-0.018,-0.491 -0.048,-0.981 -0.089,-1.471c-0.041,-0.489 -0.093,-0.978 -0.157,-1.465c-0.063,-0.488 -0.139,-0.973 -0.225,-1.456c-0.086,-0.484 -0.184,-0.965 -0.292,-1.445c-0.109,-0.48 -0.229,-0.956 -0.359,-1.43c-0.131,-0.474 -0.272,-0.944 -0.425,-1.411c-0.153,-0.467 -0.316,-0.931 -0.49,-1.391c-0.174,-0.459 -0.359,-0.914 -0.554,-1.365c-0.196,-0.451 -0.401,-0.896 -0.617,-1.338c-0.216,-0.442 -0.442,-0.878 -0.679,-1.308c-0.236,-0.431 -0.482,-0.856 -0.738,-1.275c-0.256,-0.419 -0.521,-0.832 -0.797,-1.239c-0.275,-0.407 -0.559,-0.807 -0.853,-1.201c-0.294,-0.394 -0.597,-0.781 -0.908,-1.16c-0.312,-0.38 -0.632,-0.752 -0.961,-1.117c-0.329,-0.364 -0.666,-0.721 -1.012,-1.07c-0.346,-0.349 -0.7,-0.691 -1.061,-1.023c-0.362,-0.333 -0.73,-0.657 -1.107,-0.972c-0.377,-0.316 -0.76,-0.622 -1.152,-0.92c-0.391,-0.298 -0.788,-0.586 -1.192,-0.865c-0.404,-0.28 -0.814,-0.549 -1.232,-0.809c-0.417,-0.26 -0.839,-0.51 -1.268,-0.751c-0.428,-0.24 -0.862,-0.471 -1.301,-0.691c-0.438,-0.22 -0.882,-0.43 -1.332,-0.629c-0.449,-0.2 -0.902,-0.388 -1.359,-0.567c-0.458,-0.179 -0.919,-0.347 -1.385,-0.503c-0.465,-0.157 -0.934,-0.304 -1.406,-0.438c-0.472,-0.135 -0.947,-0.26 -1.426,-0.373c-0.478,-0.114 -0.958,-0.215 -1.441,-0.306c-0.483,-0.091 -0.968,-0.171 -1.454,-0.239c-0.486,-0.068 -0.974,-0.125 -1.463,-0.171c-0.489,-0.045 -0.979,-0.08 -1.47,-0.103c-0.49,-0.023 -0.981,-0.034 -1.473,-0.034Zm0,56.013c-0.397,0 -0.795,-0.009 -1.192,-0.029c-0.397,-0.02 -0.793,-0.049 -1.189,-0.088c-0.395,-0.038 -0.79,-0.088 -1.183,-0.146c-0.394,-0.059 -0.785,-0.127 -1.175,-0.204c-0.389,-0.078 -0.777,-0.164 -1.163,-0.262c-0.386,-0.096 -0.769,-0.203 -1.149,-0.318c-0.38,-0.116 -0.757,-0.24 -1.131,-0.374c-0.374,-0.135 -0.745,-0.277 -1.113,-0.43c-0.367,-0.152 -0.73,-0.313 -1.09,-0.483c-0.359,-0.171 -0.714,-0.349 -1.065,-0.537c-0.35,-0.187 -0.696,-0.383 -1.037,-0.588c-0.341,-0.204 -0.677,-0.417 -1.008,-0.638c-0.33,-0.221 -0.655,-0.449 -0.974,-0.687c-0.319,-0.237 -0.633,-0.482 -0.94,-0.734c-0.307,-0.253 -0.608,-0.512 -0.902,-0.779c-0.295,-0.268 -0.583,-0.542 -0.864,-0.823c-0.281,-0.281 -0.555,-0.569 -0.822,-0.864c-0.267,-0.295 -0.526,-0.596 -0.778,-0.904c-0.252,-0.308 -0.496,-0.621 -0.734,-0.94c-0.236,-0.319 -0.465,-0.644 -0.686,-0.975c-0.221,-0.331 -0.434,-0.667 -0.638,-1.008c-0.204,-0.341 -0.4,-0.687 -0.587,-1.038c-0.188,-0.351 -0.366,-0.705 -0.536,-1.066c-0.17,-0.359 -0.33,-0.723 -0.483,-1.09c-0.152,-0.368 -0.294,-0.738 -0.428,-1.113c-0.134,-0.374 -0.259,-0.752 -0.374,-1.132c-0.115,-0.381 -0.222,-0.763 -0.318,-1.149c-0.096,-0.386 -0.183,-0.774 -0.261,-1.163c-0.078,-0.391 -0.146,-0.782 -0.204,-1.175c-0.058,-0.394 -0.106,-0.788 -0.146,-1.184c-0.039,-0.396 -0.068,-0.792 -0.088,-1.189c-0.02,-0.398 -0.029,-0.795 -0.029,-1.192c0,-0.398 0.009,-0.795 0.029,-1.192c0.02,-0.397 0.049,-0.794 0.088,-1.189c0.039,-0.396 0.088,-0.791 0.146,-1.184c0.058,-0.393 0.126,-0.785 0.204,-1.175c0.078,-0.39 0.165,-0.777 0.262,-1.163c0.096,-0.386 0.203,-0.769 0.318,-1.149c0.116,-0.381 0.24,-0.758 0.374,-1.133c0.134,-0.374 0.277,-0.745 0.429,-1.113c0.152,-0.367 0.313,-0.73 0.483,-1.09c0.17,-0.36 0.348,-0.715 0.536,-1.066c0.187,-0.351 0.383,-0.697 0.587,-1.037c0.204,-0.341 0.417,-0.677 0.638,-1.008c0.221,-0.331 0.449,-0.656 0.687,-0.976c0.236,-0.319 0.481,-0.633 0.733,-0.94c0.252,-0.307 0.512,-0.608 0.779,-0.903c0.267,-0.294 0.541,-0.583 0.822,-0.864c0.281,-0.282 0.568,-0.556 0.864,-0.823c0.294,-0.267 0.595,-0.526 0.902,-0.779c0.308,-0.252 0.621,-0.496 0.94,-0.734c0.319,-0.236 0.644,-0.466 0.975,-0.687c0.33,-0.221 0.666,-0.434 1.007,-0.638c0.341,-0.204 0.687,-0.4 1.037,-0.588c0.351,-0.187 0.705,-0.366 1.065,-0.536c0.359,-0.17 0.723,-0.331 1.09,-0.483c0.367,-0.152 0.738,-0.295 1.113,-0.429c0.374,-0.134 0.751,-0.259 1.131,-0.374c0.381,-0.116 0.763,-0.222 1.149,-0.319c0.385,-0.096 0.773,-0.183 1.163,-0.261c0.39,-0.078 0.781,-0.146 1.175,-0.204c0.393,-0.058 0.787,-0.107 1.183,-0.146c0.395,-0.039 0.792,-0.069 1.189,-0.088c0.397,-0.02 0.795,-0.03 1.192,-0.03c0.398,0 0.795,0.009 1.192,0.029c0.397,0.02 0.793,0.049 1.189,0.088c0.395,0.039 0.79,0.088 1.183,0.146c0.393,0.058 0.785,0.126 1.174,0.204c0.39,0.078 0.778,0.164 1.163,0.262c0.386,0.096 0.769,0.202 1.149,0.318c0.38,0.115 0.757,0.24 1.131,0.374c0.374,0.134 0.745,0.276 1.113,0.429c0.367,0.152 0.73,0.313 1.09,0.483c0.359,0.17 0.714,0.348 1.065,0.536c0.351,0.187 0.697,0.383 1.037,0.587c0.341,0.204 0.676,0.417 1.008,0.638c0.33,0.221 0.655,0.45 0.974,0.687c0.319,0.237 0.633,0.482 0.94,0.734c0.307,0.252 0.608,0.512 0.903,0.779c0.294,0.267 0.583,0.541 0.864,0.822c0.281,0.281 0.555,0.569 0.822,0.864c0.267,0.294 0.526,0.595 0.779,0.903c0.252,0.307 0.496,0.621 0.733,0.94c0.237,0.319 0.466,0.644 0.687,0.975c0.221,0.33 0.434,0.666 0.638,1.008c0.204,0.341 0.4,0.687 0.588,1.037c0.187,0.351 0.366,0.706 0.536,1.066c0.17,0.359 0.33,0.723 0.483,1.09c0.152,0.367 0.295,0.738 0.429,1.113c0.134,0.375 0.258,0.752 0.374,1.133c0.115,0.381 0.222,0.763 0.318,1.149c0.097,0.385 0.184,0.774 0.262,1.163c0.078,0.39 0.146,0.781 0.204,1.175c0.059,0.393 0.107,0.788 0.146,1.184c0.039,0.395 0.068,0.792 0.088,1.189c0.02,0.397 0.03,0.795 0.03,1.192c-0.001,0.397 -0.011,0.795 -0.031,1.192c-0.02,0.397 -0.05,0.793 -0.09,1.189c-0.039,0.396 -0.088,0.79 -0.147,1.184c-0.06,0.393 -0.128,0.785 -0.206,1.174c-0.078,0.39 -0.165,0.777 -0.262,1.163c-0.097,0.386 -0.204,0.769 -0.319,1.149c-0.116,0.381 -0.241,0.758 -0.375,1.132c-0.135,0.374 -0.278,0.745 -0.43,1.112c-0.153,0.367 -0.314,0.73 -0.484,1.09c-0.171,0.359 -0.349,0.714 -0.537,1.065c-0.187,0.35 -0.384,0.696 -0.588,1.037c-0.204,0.341 -0.417,0.676 -0.638,1.007c-0.221,0.33 -0.45,0.655 -0.687,0.975c-0.237,0.319 -0.482,0.633 -0.734,0.94c-0.252,0.308 -0.512,0.608 -0.779,0.903c-0.266,0.294 -0.54,0.583 -0.821,0.864c-0.281,0.281 -0.569,0.555 -0.864,0.822c-0.294,0.267 -0.595,0.527 -0.902,0.779c-0.307,0.252 -0.62,0.497 -0.94,0.734c-0.319,0.237 -0.644,0.466 -0.974,0.687c-0.33,0.221 -0.666,0.434 -1.007,0.638c-0.341,0.204 -0.686,0.401 -1.037,0.589c-0.35,0.187 -0.705,0.366 -1.064,0.536c-0.359,0.171 -0.722,0.332 -1.089,0.485c-0.367,0.152 -0.738,0.295 -1.112,0.43c-0.374,0.134 -0.751,0.259 -1.131,0.375c-0.38,0.116 -0.763,0.222 -1.148,0.319c-0.386,0.097 -0.773,0.185 -1.163,0.263c-0.39,0.078 -0.781,0.146 -1.174,0.205c-0.393,0.059 -0.787,0.108 -1.182,0.148c-0.395,0.039 -0.792,0.07 -1.189,0.089c-0.397,0.02 -0.794,0.031 -1.192,0.031l0,0.001Zm13.936,-38.238c0.097,0.097 0.183,0.202 0.259,0.316c0.075,0.114 0.139,0.234 0.192,0.361c0.052,0.127 0.092,0.258 0.118,0.391c0.027,0.135 0.04,0.27 0.04,0.407c0,0.137 -0.013,0.272 -0.04,0.407c-0.027,0.134 -0.066,0.265 -0.118,0.391c-0.052,0.127 -0.117,0.247 -0.192,0.361c-0.076,0.114 -0.162,0.219 -0.259,0.316l-9.809,9.806c-0.077,0.082 -0.161,0.156 -0.254,0.22c0.071,0.315 0.108,0.633 0.11,0.956c0.001,0.137 -0.006,0.275 -0.02,0.412c-0.013,0.137 -0.034,0.272 -0.063,0.407c-0.027,0.135 -0.063,0.268 -0.104,0.399c-0.041,0.132 -0.09,0.26 -0.145,0.386c-0.055,0.126 -0.116,0.25 -0.184,0.37c-0.067,0.12 -0.141,0.236 -0.221,0.348c-0.08,0.113 -0.165,0.221 -0.256,0.324c-0.091,0.103 -0.186,0.202 -0.287,0.295c-0.101,0.093 -0.207,0.182 -0.317,0.264c-0.11,0.083 -0.224,0.16 -0.342,0.23c-0.117,0.071 -0.239,0.135 -0.364,0.193c-0.124,0.059 -0.252,0.11 -0.382,0.155c-0.13,0.045 -0.262,0.084 -0.396,0.115c-0.134,0.031 -0.269,0.056 -0.406,0.073c-0.136,0.018 -0.273,0.028 -0.411,0.031c-0.138,0.003 -0.275,-0.001 -0.412,-0.012c-0.137,-0.011 -0.273,-0.029 -0.409,-0.054c-0.135,-0.025 -0.269,-0.057 -0.401,-0.096c-0.132,-0.039 -0.262,-0.085 -0.389,-0.137c-0.128,-0.052 -0.251,-0.111 -0.373,-0.176c-0.121,-0.065 -0.239,-0.136 -0.353,-0.214c-0.114,-0.078 -0.223,-0.161 -0.329,-0.249c-0.105,-0.088 -0.205,-0.182 -0.301,-0.282c-0.096,-0.099 -0.186,-0.203 -0.271,-0.311c-0.085,-0.109 -0.164,-0.221 -0.237,-0.337c-0.073,-0.117 -0.14,-0.236 -0.201,-0.36c-0.06,-0.124 -0.115,-0.25 -0.163,-0.379c-0.048,-0.129 -0.088,-0.26 -0.123,-0.394c-0.034,-0.133 -0.062,-0.268 -0.081,-0.404c-0.02,-0.136 -0.034,-0.273 -0.04,-0.41c-0.006,-0.138 -0.005,-0.276 0.003,-0.413c0.008,-0.138 0.023,-0.274 0.045,-0.41c0.022,-0.135 0.051,-0.27 0.087,-0.403c0.036,-0.132 0.079,-0.263 0.128,-0.391c0.05,-0.128 0.106,-0.254 0.168,-0.377c0.063,-0.123 0.132,-0.242 0.206,-0.357c0.075,-0.116 0.156,-0.227 0.242,-0.334c0.087,-0.107 0.179,-0.21 0.276,-0.308c0.096,-0.097 0.198,-0.189 0.305,-0.277c0.106,-0.087 0.218,-0.168 0.333,-0.244c0.114,-0.076 0.233,-0.145 0.355,-0.208c0.122,-0.064 0.247,-0.121 0.375,-0.171c0.128,-0.05 0.258,-0.094 0.391,-0.132c0.132,-0.037 0.267,-0.067 0.402,-0.09c0.135,-0.023 0.272,-0.039 0.409,-0.049c0.137,-0.009 0.275,-0.011 0.412,-0.005c0.138,0.005 0.275,0.017 0.411,0.037c0.136,0.019 0.271,0.045 0.405,0.079c0.067,-0.093 0.139,-0.18 0.22,-0.262l9.8,-9.805c0.097,-0.098 0.203,-0.185 0.317,-0.262c0.114,-0.077 0.234,-0.142 0.362,-0.195c0.127,-0.052 0.258,-0.092 0.392,-0.12c0.135,-0.027 0.271,-0.04 0.409,-0.041c0.137,0 0.273,0.013 0.409,0.041c0.135,0.027 0.265,0.067 0.392,0.119c0.128,0.053 0.248,0.117 0.363,0.194c0.114,0.077 0.219,0.164 0.316,0.261l0,0.002Z" style="fill:#189caa;fill-rule:nonzero;"/></svg>