<?xml version="1.0" encoding="UTF-8" standalone="no"?><!DOCTYPE svg PUBLIC "-//W3C//DTD SVG 1.1//EN" "http://www.w3.org/Graphics/SVG/1.1/DTD/svg11.dtd"><svg width="100%" height="100%" viewBox="0 0 224 212" version="1.1" xmlns="http://www.w3.org/2000/svg" xmlns:xlink="http://www.w3.org/1999/xlink" xml:space="preserve" xmlns:serif="http://www.serif.com/" style="fill-rule:evenodd;clip-rule:evenodd;stroke-linejoin:round;stroke-miterlimit:2;"><rect id="Blood-Hormones" serif:id="Blood Hormones" x="0" y="0.384" width="223.502" height="211.507" style="fill:none;"/><g id="Blood-Hormones1" serif:id="Blood Hormones"><path id="Hex" d="M62.181,167.691l-33.97,-16.052c-3.776,-1.784 -6.234,-5.168 -6.234,-8.965l0,-73.242c0,-3.797 2.458,-7.184 6.234,-8.968l77.499,-36.621c0.746,-0.352 1.524,-0.634 2.321,-0.846c-0.541,0.34 -1.038,0.755 -1.475,1.238c-2.479,2.745 -7.515,8.422 -13.66,15.857l-59.714,28.218c-0.627,0.296 -0.882,0.765 -0.882,1.122l0,73.242c0,0.357 0.255,0.826 0.882,1.122l19.301,9.121c2.566,5.366 5.839,10.331 9.697,14.774Zm53.293,-144.692c0.797,0.212 1.574,0.493 2.318,0.845l77.496,36.621c3.776,1.784 6.237,5.171 6.237,8.968l0,73.242c0,3.797 -2.464,7.181 -6.237,8.965l-33.964,16.05c3.858,-4.443 7.13,-9.407 9.695,-14.772l19.3,-9.12c0.627,-0.296 0.882,-0.765 0.882,-1.122l0,-73.242c0,-0.357 -0.255,-0.826 -0.882,-1.122l-59.714,-28.218c-6.145,-7.435 -11.181,-13.112 -13.66,-15.857c-0.436,-0.483 -0.932,-0.897 -1.473,-1.237Z" style="fill:#189caa;stroke:#189caa;stroke-width:0.5px;"/><g><path id="path2-15-9-0" d="M113.971,122.161l0,17.587l15.233,8.796l15.233,-8.796l0,-17.593l-15.224,-8.794l-15.239,8.803l-0.003,-0.003Zm17.249,-1.961l7.189,4.15c0.687,0.397 1.11,1.128 1.11,1.922l0,8.302c0,1.226 -0.995,2.221 -2.22,2.221c-1.226,0 -2.221,-0.995 -2.221,-2.221l0,-7.019l-6.078,-3.51c-1.06,-0.613 -1.424,-1.972 -0.811,-3.033c0.61,-1.06 1.969,-1.43 3.031,-0.811Z" style="fill:#189caa;fill-rule:nonzero;"/><path id="path3-55-1-1" d="M79.068,122.152l0,17.593l15.232,8.796l15.233,-8.796l0,-17.587l-15.239,-8.802l-15.224,8.794l-0.002,0.002Zm17.249,-1.952l7.189,4.15c0.687,0.397 1.11,1.128 1.11,1.922l0,8.302c0,1.226 -0.994,2.221 -2.22,2.221c-1.226,0 -2.221,-0.995 -2.221,-2.221l0,-7.019l-6.078,-3.51c-1.06,-0.613 -1.424,-1.972 -0.811,-3.033c0.61,-1.06 1.969,-1.43 3.032,-0.811Z" style="fill:#189caa;fill-rule:nonzero;"/><path id="path4-82-0-0" d="M126.983,91.921l-15.232,-8.796l-15.233,8.796l0,17.587l15.233,8.796l15.232,-8.796l0,-17.587Zm-4.917,12.425c0,1.226 -0.995,2.221 -2.221,2.221c-1.225,0 -2.22,-0.995 -2.22,-2.221l0,-7.019l-6.078,-3.513c-1.06,-0.614 -1.424,-1.973 -0.811,-3.033c0.61,-1.061 1.969,-1.431 3.031,-0.812l7.189,4.153c0.687,0.397 1.11,1.128 1.11,1.922l0,8.302Z" style="fill:#189caa;fill-rule:nonzero;"/><path id="path5-82-9-0" d="M111.751,28.927c-9.628,10.662 -58.655,66.4 -58.655,95.746c0,32.351 26.311,58.676 58.655,58.676c32.342,0 58.655,-26.321 58.655,-58.676c0,-29.346 -49.026,-85.084 -58.655,-95.746Zm43.483,122.903c-0.568,0 -1.136,-0.216 -1.569,-0.652l-7.372,-7.375l-15.976,9.229c-0.343,0.198 -0.725,0.299 -1.11,0.299c-0.385,0 -0.767,-0.101 -1.11,-0.299l-16.344,-9.439l-16.343,9.439c-0.343,0.198 -0.725,0.299 -1.11,0.299c-0.385,0 -0.767,-0.101 -1.11,-0.299l-17.453,-10.079c-0.687,-0.397 -1.11,-1.128 -1.11,-1.922l0,-19.24l-8.405,-8.409c-0.867,-0.868 -0.867,-2.275 0,-3.143c0.868,-0.867 2.275,-0.867 3.142,0l7.852,7.855l14.866,-8.587l0,-18.869c0,-0.794 0.423,-1.528 1.11,-1.923l16.343,-9.439l0,-15.944c0,-1.227 0.995,-2.222 2.22,-2.222c1.226,0 2.221,0.995 2.221,2.222l0,15.944l16.343,9.439c0.687,0.397 1.11,1.128 1.11,1.923l0,18.869l16.343,9.439c0.687,0.397 1.11,1.128 1.11,1.923l0,19.239l7.929,7.929c0.867,0.865 0.867,2.275 0,3.143c-0.432,0.432 -1.001,0.651 -1.569,0.651l-0.007,-0.002Z" style="fill:#189caa;fill-rule:nonzero;"/></g></g></svg>