<?xml version="1.0" encoding="UTF-8" standalone="no"?><!DOCTYPE svg PUBLIC "-//W3C//DTD SVG 1.1//EN" "http://www.w3.org/Graphics/SVG/1.1/DTD/svg11.dtd"><svg width="100%" height="100%" viewBox="0 0 224 212" version="1.1" xmlns="http://www.w3.org/2000/svg" xmlns:xlink="http://www.w3.org/1999/xlink" xml:space="preserve" xmlns:serif="http://www.serif.com/" style="fill-rule:evenodd;clip-rule:evenodd;stroke-linejoin:round;stroke-miterlimit:2;"><rect id="Blood-Sugars" serif:id="Blood Sugars" x="0" y="0.384" width="223.502" height="211.507" style="fill:none;"/><g id="Blood-Sugars1" serif:id="Blood Sugars"><path id="Hex" d="M131.587,182.143l-13.795,6.519c-3.721,1.761 -8.361,1.761 -12.082,0l-77.499,-36.621c-3.776,-1.784 -6.234,-5.168 -6.234,-8.965l0,-73.242c0,-3.797 2.458,-7.184 6.234,-8.968l77.499,-36.621c1.878,-0.888 3.961,-1.327 6.038,-1.327c1.834,0 3.683,0.344 5.385,1.037c-0.982,0.648 -1.885,1.46 -2.667,2.437c-1.333,1.643 -2.952,3.72 -4.779,6.168l-76.503,36.152c-0.627,0.296 -0.882,0.765 -0.882,1.122l0,73.242c0,0.357 0.255,0.826 0.882,1.122l57.899,27.36c8.559,6.683 19.151,10.81 30.795,11.159l0.007,0c3.307,0.096 6.55,-0.104 9.704,-0.575Zm6.892,-148.122l56.809,26.845c3.776,1.784 6.237,5.171 6.237,8.968l0,73.242c0,3.797 -2.464,7.181 -6.237,8.965l-35.468,16.76c4.972,-4.486 9.107,-9.881 12.141,-15.928l18.358,-8.675c0.627,-0.296 0.882,-0.765 0.882,-1.122l0,-73.242c0,-0.357 -0.255,-0.826 -0.882,-1.122l-41.466,-19.595c-3.716,-5.803 -7.293,-10.912 -10.374,-15.096Z" style="fill:#189caa;stroke:#189caa;stroke-width:0.5px;"/><g><path id="path3-630-0-9" d="M127.176,30.771c-1.851,-2.316 -5.398,-2.316 -7.249,0c-4.011,4.939 -10.643,13.892 -17.738,25.007l11.723,6.793c3.393,2.007 5.398,5.557 5.398,9.417l0,30.41c0,3.859 -2.159,7.564 -5.398,9.416l-26.376,15.282c-1.696,0.927 -3.547,1.389 -5.398,1.389c-1.851,0 -3.856,-0.463 -5.398,-1.389l-0.155,0c0,25.78 19.743,47.854 45.503,48.626c26.684,0.772 48.587,-20.531 48.587,-47.082c0,-39.981 -32.391,-83.976 -43.497,-97.868Zm20.36,115.929c-8.483,11.268 -25.914,14.819 -37.328,6.328c-2.931,-2.16 -0.309,-6.637 2.931,-5.094c9.254,4.477 21.132,1.544 27.147,-6.638c6.941,-8.953 4.319,-20.53 3.085,-31.027c-0.463,-3.396 4.473,-4.785 5.707,-1.544c4.782,11.886 7.249,27.169 -1.542,37.975Z" style="fill:#189caa;fill-rule:nonzero;"/><path id="path4-404-3-9" d="M111.597,104.557l-25.296,14.665l0,-29.329l25.296,-14.665l0,29.329Zm-29.307,-50.94l25.296,14.664l-25.296,14.665l-25.296,-14.665l25.296,-14.664Zm-4.165,65.605l-25.296,-14.665l0,-29.175l25.296,14.664l0,29.175Z" style="fill:#189caa;fill-rule:nonzero;"/></g></g></svg>