<?xml version="1.0" encoding="UTF-8" standalone="no"?><!DOCTYPE svg PUBLIC "-//W3C//DTD SVG 1.1//EN" "http://www.w3.org/Graphics/SVG/1.1/DTD/svg11.dtd"><svg width="100%" height="100%" viewBox="0 0 224 212" version="1.1" xmlns="http://www.w3.org/2000/svg" xmlns:xlink="http://www.w3.org/1999/xlink" xml:space="preserve" xmlns:serif="http://www.serif.com/" style="fill-rule:evenodd;clip-rule:evenodd;stroke-linejoin:round;stroke-miterlimit:2;"><rect id="Bone-Health" serif:id="Bone Health" x="0" y="0.384" width="223.502" height="211.507" style="fill:none;"/><g id="Bone-Health1" serif:id="Bone Health"><path id="Hex" d="M71.407,173.643l-43.196,-20.412c-3.776,-1.784 -6.234,-5.168 -6.234,-8.965l0,-73.242c0,-3.797 2.458,-7.184 6.234,-8.968l4.74,-2.24c-0.023,0.555 -0.034,1.109 -0.035,1.665l-0,0.009c0,0.788 0.023,1.576 0.069,2.364c0.046,0.785 0.115,1.569 0.205,2.349l0.001,0.008c0.092,0.783 0.206,1.561 0.342,2.337c0.064,0.364 0.134,0.728 0.208,1.09l-0.558,0.264c-0.627,0.296 -0.882,0.765 -0.882,1.122l0,73.242c0,0.357 0.255,0.826 0.882,1.122l17.481,8.261c0.167,0.268 0.338,0.533 0.515,0.795l0.007,0.011c0.285,0.419 0.581,0.828 0.891,1.229c0.31,0.401 0.632,0.792 0.967,1.172c0.334,0.38 0.68,0.75 1.038,1.109c0.358,0.359 0.728,0.708 1.11,1.045c0.378,0.335 0.767,0.657 1.165,0.967l0.01,0.008c0.398,0.309 0.806,0.606 1.222,0.89c0.421,0.288 0.851,0.561 1.29,0.821c0.434,0.257 0.875,0.501 1.325,0.73c0.449,0.23 0.905,0.446 1.367,0.647l0.019,0.008c0.459,0.198 0.923,0.383 1.393,0.554l0.009,0.003c0.472,0.171 0.951,0.327 1.434,0.469l0.015,0.004c0.484,0.141 0.973,0.268 1.466,0.379l0.015,0.003c0.49,0.11 0.984,0.205 1.48,0.285l0.003,0c0.475,0.076 0.95,0.137 1.427,0.185c0.049,0.479 0.111,0.955 0.188,1.43c0.08,0.498 0.176,0.994 0.288,1.487l0.001,0.003c0.112,0.492 0.239,0.983 0.382,1.468c0.142,0.487 0.3,0.968 0.474,1.445c0.173,0.477 0.362,0.95 0.565,1.416c0.203,0.465 0.42,0.925 0.652,1.376c0.009,0.018 0.018,0.036 0.028,0.054Zm26.642,-144.588l7.661,-3.62c1.878,-0.888 3.961,-1.327 6.038,-1.327c2.074,0 4.166,0.439 6.044,1.327l31.404,14.84c-0.102,-0.006 -0.204,-0.012 -0.306,-0.017c-0.394,-0.02 -0.79,-0.029 -1.184,-0.029l-0.021,0c-0.391,0.001 -0.782,0.011 -1.172,0.03c-0.392,0.02 -0.783,0.049 -1.172,0.087l-0.018,0.002c-0.391,0.039 -0.779,0.088 -1.167,0.145l-0.003,0c-0.395,0.059 -0.789,0.127 -1.18,0.206c-0.387,0.078 -0.771,0.164 -1.153,0.26c-0.383,0.096 -0.762,0.202 -1.14,0.317l-0.006,0.002c-0.37,0.113 -0.739,0.235 -1.105,0.365l-0.025,0.009c-0.368,0.132 -0.732,0.273 -1.093,0.423c-0.369,0.152 -0.734,0.314 -1.094,0.485c-0.358,0.169 -0.711,0.347 -1.06,0.534c-0.349,0.186 -0.693,0.381 -1.032,0.585c-0.064,0.039 -0.129,0.078 -0.193,0.117l-22.249,-10.514c-0.328,-0.155 -0.697,-0.237 -1.075,-0.237c-0.375,0 -0.741,0.082 -1.069,0.237l-5.542,2.619c-0.137,-0.169 -0.275,-0.337 -0.415,-0.504l-0.004,-0.005c-0.507,-0.605 -1.031,-1.194 -1.572,-1.768c-0.54,-0.573 -1.096,-1.13 -1.669,-1.671c-0.572,-0.541 -1.16,-1.065 -1.764,-1.572l-0.005,-0.004c-0.541,-0.454 -1.094,-0.894 -1.658,-1.32Zm67.413,18.907l29.825,14.094c3.776,1.784 6.237,5.171 6.237,8.968l0,73.242c0,3.797 -2.464,7.181 -6.237,8.965l-77.496,36.621c-3.721,1.761 -8.361,1.761 -12.082,0l-7.702,-3.639c0.083,-0.018 0.165,-0.036 0.247,-0.054c0.491,-0.111 0.977,-0.237 1.461,-0.378l0.004,-0.001c0.489,-0.143 0.974,-0.301 1.453,-0.475c0.473,-0.171 0.941,-0.357 1.402,-0.557l0.008,-0.003c0.463,-0.201 0.919,-0.417 1.368,-0.646l0.019,-0.01c0.445,-0.229 0.884,-0.471 1.314,-0.726c0.438,-0.259 0.866,-0.532 1.286,-0.819c0.418,-0.285 0.827,-0.582 1.227,-0.894c0.265,-0.205 0.525,-0.416 0.78,-0.633l2.1,0.993c0.665,0.313 1.477,0.313 2.145,0l77.496,-36.621c0.627,-0.296 0.882,-0.765 0.882,-1.122l-0,-47.7c0.131,-0.272 0.256,-0.546 0.377,-0.823l0.003,-0.008c0.199,-0.46 0.385,-0.926 0.556,-1.398l0.005,-0.014c0.171,-0.473 0.326,-0.949 0.468,-1.433l0.003,-0.01c0.142,-0.485 0.268,-0.973 0.379,-1.467c0.112,-0.495 0.207,-0.992 0.288,-1.492l0,-0.003c0.08,-0.5 0.144,-1.001 0.193,-1.503l0,-0.002c0.049,-0.503 0.081,-1.008 0.099,-1.512l0.001,-0.017c0.016,-0.505 0.017,-1.01 0.002,-1.515c-0.015,-0.508 -0.046,-1.016 -0.093,-1.522c-0.046,-0.5 -0.109,-1 -0.186,-1.497c-0.078,-0.503 -0.173,-1.002 -0.282,-1.498c-0.109,-0.493 -0.234,-0.983 -0.375,-1.47c-0.141,-0.49 -0.297,-0.975 -0.469,-1.455c-0.171,-0.477 -0.355,-0.947 -0.555,-1.411l-0.006,-0.014c-0.13,-0.301 -0.266,-0.6 -0.408,-0.896l0,-4.583c0,-0.357 -0.255,-0.826 -0.882,-1.122l-5.901,-2.789c-0.054,-0.043 -0.109,-0.086 -0.163,-0.128c-0.4,-0.312 -0.809,-0.61 -1.228,-0.896c-0.416,-0.285 -0.841,-0.556 -1.274,-0.814l-0.007,-0.004c-0.438,-0.261 -0.883,-0.507 -1.337,-0.738c-0.447,-0.229 -0.899,-0.443 -1.359,-0.644l-0.008,-0.003c-0.462,-0.202 -0.932,-0.389 -1.406,-0.561l-0.019,-0.007c-0.472,-0.17 -0.948,-0.326 -1.428,-0.468l-0.015,-0.004c-0.484,-0.141 -0.973,-0.269 -1.466,-0.38c-0.079,-0.018 -0.158,-0.035 -0.237,-0.052l-2.788,-1.318c-0.11,-0.795 -0.259,-1.583 -0.447,-2.364c-0.207,-0.861 -0.462,-1.708 -0.763,-2.541c-0.301,-0.834 -0.647,-1.649 -1.038,-2.445c-0.39,-0.793 -0.821,-1.564 -1.294,-2.309l-0.002,-0.002c-0.474,-0.747 -0.989,-1.465 -1.541,-2.155l-0.005,-0.006c-0.362,-0.451 -0.738,-0.888 -1.131,-1.311Z" style="fill:#189caa;stroke:#189caa;stroke-width:0.5px;"/><g><path id="path1-37-1-0" d="M159.877,52.252c-0.199,-0.199 -0.403,-0.392 -0.612,-0.581c-0.209,-0.189 -0.422,-0.372 -0.64,-0.55c-0.218,-0.179 -0.439,-0.352 -0.666,-0.519c-0.227,-0.167 -0.457,-0.329 -0.691,-0.485c-0.234,-0.156 -0.472,-0.306 -0.714,-0.45c-0.242,-0.145 -0.487,-0.283 -0.736,-0.415c-0.248,-0.132 -0.5,-0.258 -0.755,-0.378c-0.255,-0.12 -0.512,-0.234 -0.772,-0.341c-0.261,-0.108 -0.523,-0.209 -0.789,-0.303c-0.265,-0.094 -0.532,-0.183 -0.802,-0.264c-0.27,-0.081 -0.541,-0.156 -0.814,-0.224c-0.273,-0.068 -0.548,-0.129 -0.824,-0.184c-0.276,-0.055 -0.554,-0.103 -0.832,-0.144c-0.279,-0.041 -0.558,-0.074 -0.838,-0.102c-0.281,-0.027 -0.561,-0.048 -0.842,-0.061c-0.281,-0.014 -0.563,-0.021 -0.844,-0.021c-0.281,0.001 -0.563,0.007 -0.844,0.022c-0.281,0.014 -0.562,0.036 -0.842,0.063c-0.281,0.028 -0.559,0.063 -0.838,0.104c-0.278,0.041 -0.556,0.089 -0.832,0.145c-0.276,0.055 -0.551,0.117 -0.824,0.185c-0.273,0.069 -0.544,0.144 -0.813,0.226c-0.269,0.082 -0.536,0.17 -0.802,0.265c-0.265,0.095 -0.527,0.197 -0.787,0.305c-0.261,0.108 -0.518,0.222 -0.772,0.343c-0.255,0.12 -0.506,0.247 -0.754,0.38c-0.248,0.132 -0.493,0.271 -0.735,0.416c-0.242,0.145 -0.479,0.295 -0.713,0.452c-0.234,0.156 -0.464,0.319 -0.69,0.486c-0.226,0.168 -0.448,0.341 -0.665,0.52c-0.218,0.179 -0.431,0.362 -0.64,0.552c-0.209,0.189 -0.412,0.383 -0.611,0.582c-0.199,0.199 -0.393,0.403 -0.583,0.611c-0.189,0.209 -0.372,0.421 -0.551,0.639c-0.179,0.218 -0.352,0.439 -0.52,0.666c-0.168,0.226 -0.33,0.456 -0.487,0.689c-0.156,0.234 -0.307,0.472 -0.452,0.713c-0.145,0.242 -0.284,0.487 -0.416,0.735c-0.133,0.248 -0.26,0.499 -0.38,0.754c-0.121,0.254 -0.235,0.511 -0.343,0.771c-0.108,0.26 -0.209,0.523 -0.305,0.788c-0.095,0.265 -0.183,0.532 -0.265,0.801c-0.082,0.27 -0.157,0.541 -0.226,0.813c-0.069,0.273 -0.131,0.548 -0.185,0.824c-0.055,0.276 -0.103,0.553 -0.146,0.832c-0.041,0.278 -0.076,0.558 -0.103,0.837c-0.028,0.281 -0.049,0.561 -0.063,0.842c-0.014,0.281 -0.022,0.563 -0.022,0.844c0,0.281 0.007,0.563 0.02,0.844c0.013,0.281 0.034,0.562 0.061,0.842c0.027,0.28 0.061,0.559 0.103,0.837c0.041,0.279 0.089,0.556 0.143,0.832c0.055,0.276 0.116,0.55 0.185,0.823c0.068,0.273 0.142,0.544 0.224,0.814c0.081,0.269 0.169,0.536 0.264,0.802c0.094,0.265 0.195,0.528 0.303,0.788c0.107,0.261 0.221,0.518 0.341,0.772c0.12,0.255 0.246,0.506 0.378,0.755c0.132,0.248 0.271,0.494 0.415,0.736c0.144,0.242 0.295,0.479 0.45,0.713c0.156,0.235 0.318,0.465 0.486,0.691c0.167,0.227 0.34,0.448 0.518,0.667c0.179,0.218 0.362,0.431 0.55,0.64c0.189,0.209 0.382,0.413 0.582,0.612c0.271,0.271 0.572,0.524 0.866,0.776c0.3,0.254 0.539,0.557 0.717,0.907c0.178,0.351 0.281,0.722 0.309,1.114c0.029,0.383 -0.019,0.755 -0.144,1.119c-0.124,0.362 -0.315,0.686 -0.573,0.971l-48.39,48.38c-0.271,0.261 -0.581,0.46 -0.931,0.597c-0.35,0.138 -0.712,0.204 -1.088,0.198c-0.377,-0.014 -0.736,-0.103 -1.077,-0.268c-0.341,-0.164 -0.634,-0.39 -0.88,-0.676c-0.41,-0.477 -0.651,-0.762 -0.92,-1.031c-0.255,-0.255 -0.518,-0.501 -0.789,-0.74c-0.271,-0.238 -0.548,-0.468 -0.833,-0.689c-0.285,-0.221 -0.577,-0.433 -0.875,-0.635c-0.299,-0.203 -0.603,-0.396 -0.914,-0.579c-0.31,-0.184 -0.626,-0.357 -0.947,-0.521c-0.321,-0.163 -0.647,-0.317 -0.978,-0.46c-0.331,-0.143 -0.666,-0.276 -1.005,-0.398c-0.339,-0.122 -0.683,-0.233 -1.029,-0.334c-0.347,-0.1 -0.696,-0.19 -1.048,-0.269c-0.352,-0.079 -0.706,-0.146 -1.062,-0.203c-0.356,-0.056 -0.713,-0.101 -1.072,-0.136c-0.359,-0.034 -0.719,-0.056 -1.079,-0.068c-0.361,-0.012 -0.721,-0.012 -1.081,0c-0.361,0.012 -0.72,0.034 -1.079,0.068c-0.359,0.034 -0.717,0.079 -1.073,0.135c-0.356,0.056 -0.71,0.124 -1.062,0.203c-0.352,0.078 -0.702,0.168 -1.048,0.268c-0.347,0.1 -0.689,0.212 -1.029,0.333c-0.339,0.122 -0.674,0.255 -1.005,0.398c-0.332,0.143 -0.658,0.296 -0.979,0.46c-0.322,0.163 -0.637,0.337 -0.948,0.52c-0.31,0.184 -0.615,0.376 -0.913,0.579c-0.299,0.203 -0.59,0.414 -0.875,0.635c-0.285,0.221 -0.563,0.451 -0.833,0.689c-0.271,0.238 -0.534,0.484 -0.789,0.739c-0.256,0.255 -0.502,0.518 -0.741,0.788c-0.238,0.271 -0.468,0.548 -0.689,0.832c-0.222,0.285 -0.434,0.577 -0.636,0.875c-0.203,0.298 -0.396,0.602 -0.58,0.912c-0.184,0.31 -0.358,0.626 -0.522,0.947c-0.164,0.321 -0.318,0.647 -0.461,0.978c-0.143,0.33 -0.276,0.665 -0.399,1.005c-0.122,0.339 -0.234,0.682 -0.335,1.028c-0.101,0.346 -0.191,0.695 -0.27,1.047c-0.079,0.352 -0.147,0.706 -0.204,1.062c-0.057,0.357 -0.103,0.714 -0.137,1.072c-0.035,0.359 -0.058,0.719 -0.07,1.079c-0.012,0.361 -0.012,0.721 -0.001,1.081c0.011,0.36 0.033,0.72 0.067,1.079c0.033,0.359 0.078,0.717 0.134,1.072c0.056,0.357 0.123,0.711 0.201,1.062c0.079,0.352 0.168,0.701 0.268,1.048c0.1,0.346 0.211,0.689 0.333,1.029c0.122,0.339 0.254,0.674 0.397,1.005c0.142,0.331 0.295,0.658 0.459,0.979c0.163,0.322 0.336,0.637 0.52,0.948c0.183,0.31 0.376,0.615 0.578,0.914c0.203,0.299 0.414,0.59 0.635,0.875c0.221,0.285 0.45,0.564 0.688,0.834c0.237,0.271 0.484,0.534 0.739,0.789c0.254,0.255 0.516,0.502 0.787,0.741c0.27,0.239 0.548,0.469 0.832,0.691c0.285,0.221 0.576,0.434 0.874,0.636c0.298,0.204 0.602,0.397 0.912,0.581c0.31,0.184 0.626,0.358 0.947,0.522c0.321,0.165 0.647,0.319 0.977,0.463c0.331,0.143 0.666,0.276 1.005,0.4c0.338,0.122 0.682,0.234 1.028,0.336c0.346,0.101 0.695,0.191 1.047,0.271c0.352,0.079 0.706,0.147 1.062,0.204c0.357,0.057 0.714,0.103 1.072,0.137c0.359,0.035 0.719,0.058 1.079,0.07c0.361,0.012 0.722,0.013 1.081,0.002c0.361,-0.011 0.721,-0.033 1.08,-0.066c0.081,-0.004 0.162,-0.004 0.244,0c0.094,0 0.188,0.004 0.281,0.014c0.094,0.009 0.187,0.023 0.28,0.042c0.092,0.019 0.183,0.043 0.273,0.072c0.089,0.028 0.177,0.061 0.264,0.099c0.086,0.037 0.17,0.079 0.252,0.127c0.082,0.046 0.161,0.097 0.237,0.151c0.077,0.055 0.151,0.113 0.221,0.175c0.07,0.063 0.137,0.129 0.201,0.198c0.064,0.07 0.124,0.142 0.18,0.218c0.055,0.076 0.108,0.154 0.156,0.235c0.048,0.081 0.092,0.165 0.131,0.251c0.04,0.085 0.074,0.173 0.104,0.261c0.031,0.089 0.056,0.18 0.077,0.272c0.021,0.092 0.036,0.185 0.047,0.278c0.012,0.094 0.017,0.187 0.019,0.281c0.001,0.094 -0.002,0.188 -0.011,0.282c-0.033,0.359 -0.055,0.718 -0.065,1.079c-0.011,0.36 -0.009,0.72 0.003,1.081c0.012,0.36 0.036,0.719 0.07,1.078c0.036,0.359 0.081,0.716 0.139,1.072c0.057,0.356 0.126,0.71 0.205,1.062c0.079,0.351 0.17,0.7 0.272,1.046c0.101,0.346 0.213,0.688 0.337,1.027c0.122,0.338 0.257,0.674 0.4,1.004c0.144,0.33 0.298,0.656 0.463,0.976c0.165,0.321 0.339,0.636 0.524,0.946c0.184,0.31 0.378,0.614 0.581,0.911c0.204,0.298 0.416,0.588 0.638,0.873c0.222,0.284 0.452,0.561 0.691,0.831c0.239,0.27 0.487,0.532 0.742,0.786c0.255,0.254 0.519,0.501 0.789,0.738c0.271,0.237 0.549,0.467 0.835,0.687c0.285,0.22 0.577,0.431 0.875,0.634c0.299,0.202 0.603,0.394 0.914,0.577c0.31,0.183 0.626,0.356 0.948,0.519c0.322,0.162 0.648,0.315 0.979,0.458c0.331,0.142 0.667,0.275 1.006,0.396c0.339,0.122 0.683,0.233 1.029,0.332c0.347,0.1 0.696,0.189 1.048,0.267c0.352,0.078 0.706,0.145 1.062,0.2c0.356,0.055 0.713,0.1 1.072,0.133c0.359,0.033 0.719,0.055 1.079,0.066c0.361,0.01 0.721,0.01 1.081,-0.002c0.36,-0.012 0.72,-0.035 1.078,-0.07c0.359,-0.035 0.717,-0.08 1.072,-0.137c0.356,-0.057 0.71,-0.125 1.062,-0.204c0.352,-0.079 0.7,-0.17 1.047,-0.271c0.346,-0.101 0.688,-0.213 1.027,-0.336c0.339,-0.122 0.674,-0.256 1.005,-0.399c0.331,-0.144 0.657,-0.298 0.978,-0.462c0.32,-0.165 0.636,-0.338 0.946,-0.522c0.31,-0.184 0.614,-0.377 0.912,-0.581c0.298,-0.203 0.589,-0.415 0.874,-0.636c0.285,-0.221 0.562,-0.451 0.832,-0.69c0.27,-0.238 0.532,-0.486 0.787,-0.741c0.254,-0.255 0.501,-0.518 0.739,-0.789c0.238,-0.271 0.468,-0.549 0.688,-0.834c0.221,-0.285 0.432,-0.577 0.635,-0.875c0.202,-0.299 0.395,-0.603 0.578,-0.914c0.183,-0.31 0.356,-0.626 0.52,-0.947c0.163,-0.321 0.316,-0.648 0.459,-0.979c0.142,-0.33 0.275,-0.665 0.396,-1.005c0.122,-0.339 0.233,-0.683 0.333,-1.029c0.1,-0.346 0.189,-0.695 0.268,-1.047c0.078,-0.352 0.145,-0.706 0.201,-1.062c0.056,-0.356 0.101,-0.713 0.135,-1.072c0.034,-0.359 0.056,-0.719 0.067,-1.079c0.011,-0.36 0.011,-0.721 -0.001,-1.081c-0.012,-0.361 -0.035,-0.72 -0.069,-1.079c-0.034,-0.358 -0.079,-0.716 -0.137,-1.072c-0.056,-0.357 -0.124,-0.71 -0.203,-1.062c-0.079,-0.352 -0.169,-0.701 -0.27,-1.047c-0.101,-0.346 -0.212,-0.688 -0.334,-1.028c-0.122,-0.339 -0.255,-0.674 -0.399,-1.005c-0.143,-0.331 -0.296,-0.657 -0.46,-0.978c-0.164,-0.321 -0.338,-0.636 -0.521,-0.947c-0.184,-0.31 -0.377,-0.614 -0.58,-0.913c-0.203,-0.298 -0.415,-0.589 -0.635,-0.874c-0.221,-0.285 -0.451,-0.562 -0.689,-0.832c-0.238,-0.271 -0.485,-0.533 -0.74,-0.788c-0.271,-0.271 -0.568,-0.52 -0.858,-0.768c-0.3,-0.255 -0.54,-0.558 -0.719,-0.909c-0.18,-0.351 -0.284,-0.722 -0.314,-1.115c-0.03,-0.383 0.017,-0.757 0.142,-1.12c0.124,-0.364 0.316,-0.688 0.574,-0.974l48.368,-48.393c0.266,-0.271 0.574,-0.476 0.928,-0.614c0.352,-0.138 0.718,-0.198 1.097,-0.179c0.378,0.015 0.737,0.105 1.077,0.271c0.34,0.165 0.633,0.391 0.879,0.679c0.377,0.442 0.626,0.738 0.904,1.017c0.255,0.255 0.517,0.502 0.788,0.741c0.271,0.238 0.548,0.468 0.832,0.69c0.285,0.221 0.577,0.433 0.875,0.635c0.298,0.203 0.602,0.396 0.913,0.58c0.31,0.184 0.626,0.357 0.947,0.521c0.321,0.164 0.647,0.318 0.978,0.461c0.33,0.144 0.665,0.276 1.005,0.399c0.339,0.122 0.682,0.234 1.029,0.335c0.346,0.101 0.695,0.191 1.047,0.27c0.352,0.079 0.706,0.146 1.062,0.204c0.356,0.056 0.713,0.102 1.072,0.137c0.359,0.034 0.718,0.057 1.079,0.069c0.361,0.012 0.721,0.012 1.081,0.001c0.36,-0.011 0.72,-0.033 1.079,-0.066c0.359,-0.034 0.717,-0.079 1.073,-0.135c0.356,-0.055 0.71,-0.122 1.062,-0.201c0.352,-0.079 0.701,-0.167 1.048,-0.267c0.346,-0.101 0.689,-0.212 1.029,-0.333c0.339,-0.122 0.674,-0.254 1.005,-0.396c0.332,-0.143 0.658,-0.296 0.98,-0.459c0.321,-0.163 0.637,-0.337 0.947,-0.52c0.311,-0.183 0.616,-0.376 0.914,-0.578c0.299,-0.202 0.59,-0.413 0.875,-0.634c0.285,-0.221 0.563,-0.45 0.834,-0.688c0.271,-0.238 0.534,-0.485 0.789,-0.739c0.255,-0.255 0.502,-0.517 0.741,-0.788c0.238,-0.27 0.469,-0.547 0.69,-0.832c0.222,-0.285 0.434,-0.576 0.637,-0.874c0.203,-0.298 0.396,-0.602 0.581,-0.912c0.184,-0.309 0.358,-0.626 0.522,-0.947c0.165,-0.321 0.319,-0.646 0.463,-0.977c0.143,-0.33 0.276,-0.665 0.4,-1.005c0.122,-0.339 0.234,-0.681 0.336,-1.028c0.101,-0.346 0.191,-0.694 0.271,-1.047c0.079,-0.352 0.147,-0.705 0.204,-1.061c0.057,-0.357 0.103,-0.714 0.137,-1.072c0.035,-0.359 0.058,-0.719 0.07,-1.079c0.012,-0.361 0.012,-0.721 0.002,-1.081c-0.011,-0.36 -0.032,-0.72 -0.066,-1.079c-0.033,-0.358 -0.078,-0.717 -0.133,-1.072c-0.055,-0.357 -0.122,-0.711 -0.2,-1.062c-0.078,-0.352 -0.167,-0.701 -0.267,-1.048c-0.099,-0.347 -0.21,-0.689 -0.332,-1.029c-0.122,-0.34 -0.253,-0.675 -0.396,-1.006c-0.143,-0.331 -0.295,-0.658 -0.458,-0.98c-0.163,-0.321 -0.336,-0.637 -0.519,-0.948c-0.183,-0.31 -0.376,-0.615 -0.578,-0.914c-0.202,-0.299 -0.413,-0.591 -0.634,-0.876c-0.22,-0.285 -0.449,-0.563 -0.687,-0.835c-0.238,-0.271 -0.484,-0.534 -0.739,-0.789c-0.254,-0.256 -0.516,-0.503 -0.786,-0.742c-0.271,-0.239 -0.547,-0.469 -0.832,-0.691c-0.285,-0.222 -0.576,-0.434 -0.874,-0.637c-0.297,-0.204 -0.602,-0.397 -0.911,-0.582c-0.31,-0.185 -0.626,-0.359 -0.947,-0.523c-0.321,-0.165 -0.646,-0.319 -0.977,-0.463c-0.33,-0.144 -0.665,-0.277 -1.004,-0.4c-0.339,-0.122 -0.682,-0.235 -1.028,-0.337c-0.346,-0.101 -0.695,-0.192 -1.047,-0.271c-0.352,-0.079 -0.706,-0.148 -1.062,-0.205c-0.356,-0.057 -0.713,-0.103 -1.072,-0.138c-0.359,-0.035 -0.718,-0.059 -1.079,-0.071c-0.361,-0.012 -0.721,-0.013 -1.081,-0.002c-0.36,0.01 -0.72,0.031 -1.079,0.065c-0.402,0.034 -0.792,-0.018 -1.171,-0.155c-0.379,-0.137 -0.712,-0.347 -1,-0.63c-0.141,-0.141 -0.265,-0.295 -0.372,-0.463c-0.108,-0.168 -0.194,-0.346 -0.262,-0.534c-0.068,-0.188 -0.114,-0.381 -0.14,-0.578c-0.025,-0.198 -0.029,-0.396 -0.01,-0.594c0.058,-0.626 0.081,-1.254 0.07,-1.883c-0.011,-0.629 -0.056,-1.255 -0.137,-1.879c-0.079,-0.624 -0.194,-1.242 -0.341,-1.854c-0.147,-0.611 -0.329,-1.213 -0.542,-1.805c-0.213,-0.592 -0.459,-1.17 -0.736,-1.734c-0.277,-0.564 -0.584,-1.113 -0.921,-1.643c-0.338,-0.531 -0.703,-1.043 -1.096,-1.533c-0.394,-0.491 -0.813,-0.959 -1.258,-1.403l-0,-0Zm-12.403,7.533c-0.501,0.159 -0.984,0.361 -1.45,0.605c-0.465,0.244 -0.905,0.527 -1.321,0.85c-0.415,0.322 -0.799,0.678 -1.151,1.068c-0.352,0.39 -0.668,0.808 -0.947,1.254c-0.186,0.334 -0.34,0.683 -0.46,1.046c-0.12,0.364 -0.204,0.736 -0.253,1.115c-0.049,0.38 -0.061,0.76 -0.037,1.143c0.025,0.381 0.084,0.758 0.181,1.129c0.046,0.172 0.073,0.347 0.084,0.525c0.012,0.178 0.005,0.355 -0.02,0.531c-0.024,0.176 -0.065,0.348 -0.122,0.517c-0.058,0.168 -0.132,0.329 -0.222,0.482c-0.089,0.154 -0.194,0.298 -0.311,0.431c-0.118,0.133 -0.248,0.254 -0.39,0.362c-0.141,0.108 -0.292,0.2 -0.453,0.279c-0.16,0.078 -0.326,0.14 -0.498,0.185c-0.227,0.06 -0.458,0.09 -0.692,0.089c-0.149,0 -0.296,-0.012 -0.444,-0.037c-0.146,-0.024 -0.29,-0.06 -0.431,-0.108c-0.141,-0.048 -0.276,-0.108 -0.408,-0.178c-0.131,-0.07 -0.255,-0.151 -0.372,-0.242c-0.118,-0.091 -0.228,-0.19 -0.329,-0.3c-0.102,-0.109 -0.194,-0.225 -0.276,-0.349c-0.082,-0.124 -0.154,-0.254 -0.214,-0.39c-0.061,-0.136 -0.11,-0.276 -0.148,-0.42c-0.185,-0.705 -0.301,-1.421 -0.349,-2.148c-0.048,-0.727 -0.026,-1.451 0.065,-2.175c0.091,-0.723 0.251,-1.431 0.477,-2.123c0.228,-0.693 0.518,-1.357 0.873,-1.993c0.442,-0.743 0.947,-1.441 1.515,-2.092c0.568,-0.651 1.192,-1.246 1.868,-1.784c0.677,-0.539 1.396,-1.012 2.159,-1.419c0.762,-0.408 1.556,-0.743 2.379,-1.007c0.169,-0.055 0.343,-0.094 0.519,-0.116c0.177,-0.022 0.354,-0.026 0.532,-0.012c0.178,0.013 0.352,0.043 0.525,0.091c0.171,0.048 0.337,0.112 0.496,0.192c0.16,0.08 0.309,0.175 0.449,0.285c0.141,0.109 0.269,0.232 0.385,0.367c0.117,0.135 0.218,0.28 0.306,0.435c0.088,0.155 0.16,0.317 0.215,0.487c0.055,0.169 0.094,0.342 0.116,0.519c0.022,0.177 0.026,0.354 0.012,0.532c-0.013,0.178 -0.044,0.352 -0.092,0.524c-0.048,0.172 -0.112,0.337 -0.192,0.496c-0.08,0.159 -0.175,0.309 -0.285,0.448c-0.11,0.141 -0.233,0.269 -0.367,0.385c-0.135,0.117 -0.281,0.218 -0.435,0.305c-0.156,0.088 -0.318,0.16 -0.487,0.215l-0,0Z" style="fill:#189caa;fill-rule:nonzero;"/><path id="path2-9-8-5" d="M73.586,95.125c3.328,-0.002 6.584,-0.488 9.768,-1.457c0.521,-0.156 1.042,-0.156 1.563,0c2.135,0.64 4.312,1.063 6.531,1.273c1.85,0.175 3.703,0.199 5.557,0.073c-0.516,-0.652 -0.984,-1.337 -1.403,-2.056c-0.487,-0.841 -0.899,-1.717 -1.237,-2.629c-0.05,-0.131 -0.089,-0.265 -0.118,-0.401c-0.029,-0.137 -0.047,-0.276 -0.055,-0.415c-0.007,-0.141 -0.004,-0.28 0.01,-0.42c0.014,-0.139 0.039,-0.276 0.074,-0.412c0.035,-0.136 0.081,-0.268 0.137,-0.396c0.056,-0.128 0.122,-0.252 0.196,-0.37c0.075,-0.118 0.159,-0.231 0.252,-0.336c0.092,-0.105 0.192,-0.203 0.3,-0.293c0.501,-0.419 0.988,-0.852 1.464,-1.299c0.475,-0.448 0.938,-0.909 1.386,-1.383c0.448,-0.474 0.883,-0.962 1.303,-1.461c0.42,-0.499 0.825,-1.01 1.216,-1.533c0.391,-0.524 0.765,-1.057 1.125,-1.603c0.359,-0.544 0.703,-1.1 1.029,-1.665c0.327,-0.564 0.637,-1.139 0.931,-1.721c0.294,-0.583 0.57,-1.174 0.829,-1.773c0.26,-0.599 0.501,-1.206 0.725,-1.819c0.224,-0.613 0.429,-1.232 0.617,-1.857c0.188,-0.626 0.357,-1.255 0.509,-1.89c0.151,-0.635 0.284,-1.274 0.398,-1.917c0.113,-0.642 0.209,-1.288 0.285,-1.936c0.076,-0.648 0.134,-1.297 0.172,-1.949c0.039,-0.651 0.058,-1.303 0.059,-1.956c0.001,-0.653 -0.017,-1.305 -0.055,-1.957c-0.037,-0.651 -0.094,-1.302 -0.169,-1.949c-0.075,-0.649 -0.169,-1.294 -0.282,-1.937c-0.113,-0.643 -0.244,-1.282 -0.394,-1.917c-0.15,-0.635 -0.319,-1.265 -0.506,-1.891c-0.186,-0.626 -0.391,-1.245 -0.614,-1.858c-0.223,-0.614 -0.463,-1.221 -0.722,-1.82c-0.258,-0.6 -0.533,-1.192 -0.826,-1.775c-0.292,-0.583 -0.602,-1.158 -0.928,-1.724c-0.326,-0.565 -0.669,-1.121 -1.027,-1.667c-0.358,-0.545 -0.732,-1.08 -1.121,-1.604c-0.39,-0.524 -0.794,-1.035 -1.213,-1.536c-0.42,-0.501 -0.853,-0.988 -1.301,-1.463c-0.448,-0.475 -0.909,-0.937 -1.384,-1.385c-0.474,-0.448 -0.962,-0.882 -1.461,-1.302c-0.5,-0.42 -1.012,-0.824 -1.535,-1.215c-0.524,-0.39 -1.057,-0.765 -1.603,-1.124c-0.545,-0.359 -1.101,-0.702 -1.666,-1.029c-0.565,-0.327 -1.139,-0.636 -1.723,-0.93c-0.583,-0.293 -1.174,-0.569 -1.774,-0.828c-0.599,-0.259 -1.206,-0.5 -1.819,-0.723c-0.613,-0.224 -1.233,-0.429 -1.858,-0.617c-0.626,-0.187 -1.256,-0.357 -1.891,-0.507c-0.635,-0.151 -1.274,-0.283 -1.917,-0.397c-0.643,-0.113 -1.288,-0.209 -1.937,-0.285c-0.648,-0.076 -1.298,-0.133 -1.95,-0.171c-0.651,-0.038 -1.304,-0.058 -1.957,-0.058c-0.653,0 -1.305,0.018 -1.957,0.056c-0.651,0.037 -1.302,0.094 -1.95,0.17c-0.648,0.075 -1.294,0.17 -1.937,0.283c-0.643,0.113 -1.282,0.245 -1.917,0.395c-0.635,0.151 -1.265,0.319 -1.891,0.506c-0.626,0.187 -1.245,0.392 -1.859,0.616c-0.613,0.223 -1.22,0.463 -1.82,0.722c-0.599,0.258 -1.191,0.534 -1.774,0.827c-0.583,0.293 -1.158,0.602 -1.724,0.928c-0.565,0.326 -1.121,0.669 -1.667,1.027c-0.545,0.358 -1.081,0.732 -1.604,1.122c-0.524,0.39 -1.035,0.794 -1.536,1.214c-0.5,0.42 -0.988,0.853 -1.463,1.301c-0.475,0.448 -0.937,0.909 -1.384,1.384c-0.448,0.475 -0.882,0.962 -1.302,1.462c-0.42,0.5 -0.825,1.011 -1.215,1.535c-0.39,0.523 -0.765,1.057 -1.124,1.603c-0.358,0.545 -0.701,1.101 -1.028,1.666c-0.327,0.565 -0.636,1.139 -0.929,1.723c-0.294,0.583 -0.569,1.174 -0.828,1.774c-0.258,0.599 -0.499,1.206 -0.722,1.819c-0.223,0.613 -0.429,1.232 -0.616,1.858c-0.187,0.626 -0.356,1.255 -0.506,1.891c-0.151,0.635 -0.283,1.273 -0.396,1.916c-0.113,0.643 -0.209,1.288 -0.284,1.937c-0.076,0.648 -0.133,1.298 -0.171,1.949c-0.037,0.652 -0.056,1.304 -0.057,1.957c0,0.652 0.019,1.304 0.057,1.956c0.038,0.651 0.095,1.302 0.17,1.949c0.076,0.649 0.17,1.294 0.284,1.937c0.113,0.643 0.246,1.282 0.396,1.916c0.151,0.635 0.319,1.265 0.506,1.891c0.187,0.626 0.393,1.245 0.616,1.858c0.223,0.614 0.465,1.22 0.723,1.82c0.259,0.599 0.535,1.191 0.827,1.773c0.293,0.583 0.603,1.158 0.929,1.723c0.327,0.565 0.669,1.12 1.028,1.666c0.359,0.545 0.733,1.08 1.124,1.604c0.39,0.524 0.794,1.035 1.214,1.535c0.42,0.5 0.854,0.987 1.302,1.462c0.448,0.475 0.909,0.936 1.384,1.384c0.475,0.448 0.962,0.882 1.462,1.301c0.501,0.42 1.013,0.824 1.537,1.214c0.524,0.39 1.058,0.764 1.604,1.123c0.545,0.358 1.101,0.701 1.667,1.027c0.565,0.326 1.14,0.635 1.724,0.928c0.583,0.293 1.175,0.568 1.774,0.827c0.6,0.258 1.206,0.499 1.82,0.722c0.614,0.223 1.233,0.428 1.858,0.615c0.626,0.187 1.256,0.356 1.892,0.506c0.635,0.15 1.274,0.281 1.917,0.395c0.643,0.113 1.288,0.208 1.937,0.283c0.649,0.075 1.298,0.132 1.95,0.17c0.652,0.038 1.304,0.057 1.957,0.056l0.011,-0.005Zm-15.958,-43.484l6.113,0l0,-6.115c0.006,-0.319 0.026,-0.636 0.062,-0.952c0.036,-0.317 0.088,-0.631 0.155,-0.942c0.067,-0.312 0.148,-0.619 0.245,-0.923c0.097,-0.304 0.208,-0.602 0.333,-0.895c0.126,-0.293 0.265,-0.578 0.419,-0.858c0.153,-0.279 0.32,-0.55 0.5,-0.813c0.18,-0.263 0.372,-0.517 0.577,-0.761c0.204,-0.245 0.42,-0.478 0.647,-0.702c0.228,-0.223 0.465,-0.436 0.712,-0.636c0.248,-0.2 0.506,-0.388 0.771,-0.564c0.266,-0.175 0.54,-0.338 0.822,-0.486c0.281,-0.149 0.57,-0.284 0.865,-0.405c0.295,-0.121 0.595,-0.227 0.9,-0.319c0.305,-0.091 0.615,-0.168 0.928,-0.229c0.313,-0.062 0.627,-0.108 0.945,-0.139c0.317,-0.031 0.635,-0.046 0.954,-0.046c0.319,0 0.636,0.016 0.953,0.046c0.318,0.031 0.632,0.077 0.945,0.139c0.313,0.061 0.622,0.138 0.928,0.229c0.305,0.092 0.605,0.198 0.9,0.319c0.295,0.121 0.583,0.256 0.866,0.405c0.281,0.148 0.555,0.31 0.822,0.486c0.266,0.175 0.523,0.363 0.771,0.564c0.247,0.2 0.485,0.413 0.712,0.636c0.228,0.223 0.443,0.457 0.648,0.702c0.204,0.244 0.396,0.498 0.576,0.761c0.18,0.263 0.347,0.535 0.5,0.813c0.154,0.28 0.293,0.565 0.419,0.858c0.126,0.293 0.237,0.592 0.333,0.895c0.097,0.304 0.179,0.611 0.245,0.923c0.067,0.312 0.118,0.626 0.155,0.942c0.036,0.316 0.057,0.634 0.062,0.952l0,6.115l6.116,0c0.319,0.005 0.636,0.026 0.953,0.062c0.317,0.036 0.631,0.088 0.942,0.155c0.312,0.066 0.62,0.148 0.923,0.245c0.304,0.097 0.602,0.208 0.894,0.333c0.293,0.125 0.579,0.265 0.859,0.418c0.279,0.154 0.55,0.32 0.813,0.5c0.263,0.18 0.517,0.372 0.761,0.577c0.245,0.204 0.479,0.42 0.703,0.647c0.223,0.228 0.435,0.465 0.635,0.712c0.2,0.248 0.388,0.505 0.564,0.771c0.175,0.266 0.338,0.54 0.487,0.822c0.149,0.282 0.284,0.57 0.405,0.866c0.121,0.295 0.227,0.595 0.319,0.899c0.091,0.305 0.168,0.615 0.229,0.928c0.062,0.312 0.108,0.627 0.139,0.944c0.031,0.318 0.046,0.635 0.046,0.954c0,0.319 -0.016,0.636 -0.046,0.954c-0.031,0.317 -0.077,0.631 -0.139,0.944c-0.061,0.313 -0.138,0.622 -0.229,0.927c-0.092,0.305 -0.198,0.606 -0.319,0.9c-0.121,0.295 -0.256,0.583 -0.405,0.866c-0.149,0.281 -0.311,0.555 -0.487,0.822c-0.175,0.266 -0.363,0.523 -0.564,0.77c-0.2,0.248 -0.412,0.486 -0.635,0.712c-0.223,0.228 -0.458,0.444 -0.703,0.648c-0.244,0.204 -0.498,0.396 -0.761,0.576c-0.263,0.18 -0.535,0.347 -0.813,0.5c-0.28,0.154 -0.566,0.293 -0.859,0.419c-0.293,0.126 -0.591,0.237 -0.894,0.333c-0.304,0.097 -0.611,0.179 -0.923,0.245c-0.312,0.067 -0.626,0.118 -0.942,0.155c-0.317,0.036 -0.635,0.056 -0.953,0.062l-6.107,0l0,6.112c0.005,0.326 -0.006,0.65 -0.032,0.975c-0.027,0.324 -0.07,0.647 -0.129,0.966c-0.059,0.32 -0.133,0.637 -0.223,0.95c-0.09,0.313 -0.196,0.62 -0.317,0.922c-0.121,0.303 -0.256,0.598 -0.406,0.887c-0.15,0.289 -0.314,0.569 -0.492,0.842c-0.178,0.273 -0.369,0.535 -0.573,0.789c-0.204,0.253 -0.42,0.496 -0.649,0.728c-0.228,0.233 -0.468,0.453 -0.717,0.66c-0.25,0.209 -0.51,0.404 -0.779,0.587c-0.27,0.182 -0.548,0.351 -0.834,0.506c-0.286,0.155 -0.579,0.295 -0.88,0.42c-0.3,0.126 -0.606,0.237 -0.918,0.332c-0.311,0.096 -0.626,0.175 -0.945,0.24c-0.319,0.064 -0.641,0.113 -0.965,0.145c-0.324,0.032 -0.649,0.048 -0.975,0.048c-0.325,0 -0.65,-0.016 -0.974,-0.048c-0.324,-0.032 -0.645,-0.081 -0.965,-0.145c-0.319,-0.065 -0.634,-0.144 -0.946,-0.24c-0.311,-0.095 -0.616,-0.206 -0.917,-0.332c-0.3,-0.126 -0.593,-0.266 -0.88,-0.421c-0.286,-0.155 -0.564,-0.324 -0.834,-0.506c-0.27,-0.183 -0.53,-0.378 -0.779,-0.587c-0.25,-0.208 -0.49,-0.428 -0.717,-0.66c-0.228,-0.232 -0.445,-0.475 -0.649,-0.728c-0.204,-0.254 -0.396,-0.516 -0.573,-0.789c-0.178,-0.272 -0.343,-0.553 -0.492,-0.842c-0.151,-0.289 -0.286,-0.584 -0.407,-0.887c-0.121,-0.302 -0.226,-0.609 -0.316,-0.922c-0.09,-0.313 -0.165,-0.63 -0.224,-0.95c-0.059,-0.319 -0.102,-0.642 -0.128,-0.966c-0.027,-0.324 -0.038,-0.649 -0.032,-0.975l0,-6.112l-6.122,0c-0.325,0.005 -0.65,-0.006 -0.975,-0.032c-0.324,-0.027 -0.647,-0.07 -0.967,-0.128c-0.32,-0.06 -0.636,-0.134 -0.949,-0.224c-0.313,-0.09 -0.621,-0.195 -0.923,-0.316c-0.302,-0.121 -0.598,-0.257 -0.887,-0.407c-0.289,-0.15 -0.569,-0.314 -0.842,-0.492c-0.273,-0.179 -0.536,-0.37 -0.789,-0.573c-0.253,-0.204 -0.496,-0.42 -0.728,-0.649c-0.233,-0.228 -0.453,-0.468 -0.661,-0.717c-0.209,-0.25 -0.404,-0.51 -0.587,-0.779c-0.182,-0.27 -0.351,-0.548 -0.506,-0.833c-0.156,-0.286 -0.295,-0.58 -0.421,-0.88c-0.126,-0.3 -0.237,-0.606 -0.333,-0.917c-0.095,-0.311 -0.175,-0.626 -0.239,-0.945c-0.064,-0.319 -0.113,-0.64 -0.145,-0.965c-0.032,-0.324 -0.048,-0.649 -0.048,-0.974c0,-0.325 0.016,-0.65 0.048,-0.974c0.032,-0.324 0.081,-0.645 0.145,-0.965c0.065,-0.319 0.144,-0.634 0.239,-0.945c0.096,-0.311 0.207,-0.617 0.333,-0.918c0.126,-0.3 0.266,-0.593 0.421,-0.88c0.155,-0.286 0.324,-0.564 0.506,-0.833c0.183,-0.27 0.378,-0.53 0.587,-0.779c0.209,-0.25 0.429,-0.489 0.661,-0.717c0.232,-0.228 0.475,-0.444 0.728,-0.649c0.253,-0.204 0.516,-0.396 0.789,-0.573c0.272,-0.178 0.553,-0.342 0.842,-0.492c0.289,-0.15 0.585,-0.285 0.887,-0.406c0.302,-0.121 0.61,-0.226 0.923,-0.316c0.313,-0.09 0.629,-0.165 0.949,-0.224c0.32,-0.059 0.643,-0.102 0.967,-0.128c0.324,-0.026 0.65,-0.037 0.975,-0.032Z" style="fill:#189caa;fill-rule:nonzero;"/><path id="path3-02-5-6" d="M57.628,65.881l8.827,0c0.179,0 0.355,0.017 0.53,0.052c0.175,0.035 0.344,0.086 0.509,0.154c0.165,0.069 0.321,0.152 0.469,0.251c0.148,0.099 0.285,0.212 0.411,0.338c0.126,0.126 0.238,0.263 0.338,0.411c0.099,0.148 0.183,0.305 0.251,0.469c0.068,0.165 0.12,0.334 0.155,0.509c0.035,0.175 0.052,0.351 0.052,0.529l0,8.825c-0.004,0.146 0,0.293 0.011,0.439c0.011,0.146 0.029,0.292 0.055,0.436c0.026,0.145 0.058,0.287 0.098,0.429c0.04,0.141 0.087,0.28 0.14,0.416c0.054,0.137 0.114,0.271 0.181,0.4c0.067,0.131 0.14,0.257 0.22,0.381c0.079,0.123 0.165,0.242 0.257,0.357c0.091,0.115 0.188,0.225 0.29,0.329c0.103,0.105 0.21,0.205 0.323,0.3c0.112,0.094 0.229,0.182 0.35,0.265c0.122,0.083 0.247,0.159 0.375,0.229c0.129,0.07 0.261,0.134 0.396,0.191c0.135,0.056 0.273,0.107 0.413,0.15c0.14,0.043 0.282,0.079 0.426,0.108c0.144,0.029 0.289,0.051 0.434,0.065c0.146,0.015 0.292,0.022 0.439,0.022c0.146,0 0.293,-0.007 0.439,-0.022c0.146,-0.014 0.291,-0.036 0.434,-0.065c0.144,-0.029 0.286,-0.065 0.426,-0.108c0.141,-0.043 0.278,-0.094 0.413,-0.15c0.136,-0.057 0.267,-0.121 0.396,-0.191c0.129,-0.07 0.254,-0.146 0.375,-0.229c0.122,-0.083 0.238,-0.17 0.351,-0.265c0.112,-0.094 0.219,-0.194 0.322,-0.3c0.103,-0.104 0.199,-0.214 0.29,-0.329c0.092,-0.114 0.177,-0.233 0.257,-0.357c0.079,-0.123 0.152,-0.25 0.219,-0.381c0.067,-0.13 0.127,-0.264 0.181,-0.4c0.053,-0.137 0.1,-0.276 0.14,-0.416c0.04,-0.141 0.072,-0.284 0.098,-0.429c0.026,-0.145 0.044,-0.29 0.055,-0.436c0.012,-0.146 0.015,-0.293 0.012,-0.439l0,-8.825c0,-0.178 0.017,-0.354 0.052,-0.529c0.035,-0.175 0.086,-0.344 0.154,-0.509c0.069,-0.165 0.152,-0.321 0.251,-0.469c0.099,-0.148 0.212,-0.285 0.338,-0.411c0.126,-0.126 0.263,-0.238 0.411,-0.338c0.148,-0.098 0.305,-0.182 0.469,-0.251c0.165,-0.068 0.334,-0.119 0.509,-0.154c0.175,-0.035 0.351,-0.052 0.53,-0.052l8.829,0c0.142,-0.003 0.284,-0.014 0.425,-0.031c0.141,-0.017 0.281,-0.041 0.42,-0.072c0.138,-0.031 0.276,-0.068 0.41,-0.112c0.136,-0.044 0.268,-0.094 0.398,-0.151c0.131,-0.056 0.258,-0.12 0.382,-0.189c0.124,-0.07 0.245,-0.144 0.362,-0.225c0.117,-0.08 0.229,-0.167 0.338,-0.258c0.108,-0.092 0.213,-0.189 0.311,-0.29c0.099,-0.102 0.194,-0.208 0.283,-0.319c0.089,-0.111 0.172,-0.226 0.25,-0.345c0.078,-0.118 0.15,-0.241 0.216,-0.367c0.066,-0.126 0.126,-0.255 0.18,-0.386c0.053,-0.132 0.1,-0.266 0.141,-0.401c0.041,-0.137 0.075,-0.274 0.103,-0.414c0.027,-0.139 0.047,-0.28 0.061,-0.421c0.013,-0.141 0.021,-0.283 0.021,-0.425c0,-0.142 -0.007,-0.284 -0.021,-0.425c-0.014,-0.141 -0.034,-0.282 -0.061,-0.421c-0.027,-0.14 -0.061,-0.277 -0.103,-0.414c-0.041,-0.136 -0.088,-0.27 -0.141,-0.401c-0.054,-0.132 -0.113,-0.261 -0.18,-0.386c-0.066,-0.126 -0.138,-0.248 -0.216,-0.367c-0.078,-0.118 -0.161,-0.233 -0.25,-0.344c-0.089,-0.111 -0.184,-0.217 -0.283,-0.319c-0.098,-0.102 -0.203,-0.199 -0.311,-0.29c-0.109,-0.092 -0.222,-0.178 -0.338,-0.258c-0.117,-0.081 -0.237,-0.156 -0.362,-0.225c-0.124,-0.07 -0.252,-0.132 -0.382,-0.189c-0.13,-0.057 -0.262,-0.108 -0.398,-0.151c-0.135,-0.044 -0.272,-0.081 -0.41,-0.112c-0.139,-0.031 -0.279,-0.055 -0.42,-0.072c-0.141,-0.017 -0.283,-0.028 -0.425,-0.031l-8.821,0c-0.179,0 -0.355,-0.017 -0.53,-0.052c-0.175,-0.035 -0.344,-0.086 -0.509,-0.155c-0.165,-0.068 -0.321,-0.151 -0.469,-0.25c-0.148,-0.099 -0.285,-0.212 -0.411,-0.338c-0.126,-0.126 -0.238,-0.263 -0.338,-0.411c-0.099,-0.148 -0.183,-0.305 -0.251,-0.469c-0.068,-0.165 -0.12,-0.334 -0.155,-0.509c-0.035,-0.175 -0.052,-0.351 -0.052,-0.529l0,-8.828c-0.003,-0.141 -0.013,-0.283 -0.031,-0.424c-0.017,-0.141 -0.041,-0.281 -0.072,-0.42c-0.031,-0.139 -0.068,-0.276 -0.113,-0.41c-0.044,-0.136 -0.094,-0.268 -0.151,-0.398c-0.057,-0.131 -0.12,-0.258 -0.189,-0.382c-0.069,-0.124 -0.144,-0.244 -0.224,-0.362c-0.081,-0.117 -0.167,-0.229 -0.259,-0.338c-0.092,-0.109 -0.189,-0.213 -0.29,-0.312c-0.102,-0.099 -0.208,-0.194 -0.319,-0.282c-0.111,-0.089 -0.226,-0.173 -0.344,-0.251c-0.119,-0.078 -0.242,-0.15 -0.367,-0.215c-0.126,-0.066 -0.255,-0.126 -0.386,-0.18c-0.132,-0.054 -0.266,-0.101 -0.401,-0.141c-0.137,-0.041 -0.275,-0.074 -0.414,-0.102c-0.14,-0.027 -0.281,-0.048 -0.421,-0.061c-0.141,-0.014 -0.284,-0.021 -0.426,-0.021c-0.141,0 -0.284,0.007 -0.425,0.021c-0.141,0.013 -0.281,0.034 -0.421,0.061c-0.14,0.027 -0.277,0.061 -0.414,0.102c-0.136,0.041 -0.27,0.088 -0.401,0.141c-0.132,0.054 -0.261,0.113 -0.386,0.18c-0.126,0.065 -0.248,0.137 -0.367,0.215c-0.118,0.078 -0.233,0.161 -0.344,0.251c-0.111,0.089 -0.218,0.183 -0.319,0.282c-0.101,0.099 -0.198,0.203 -0.29,0.312c-0.092,0.108 -0.178,0.221 -0.259,0.338c-0.08,0.117 -0.156,0.237 -0.225,0.362c-0.069,0.124 -0.132,0.252 -0.189,0.382c-0.057,0.13 -0.107,0.262 -0.151,0.398c-0.044,0.135 -0.081,0.271 -0.112,0.41c-0.031,0.139 -0.055,0.279 -0.072,0.42c-0.017,0.141 -0.027,0.283 -0.031,0.424l0,8.828c0,0.178 -0.017,0.354 -0.052,0.529c-0.035,0.175 -0.086,0.344 -0.154,0.509c-0.069,0.165 -0.152,0.321 -0.251,0.469c-0.099,0.148 -0.212,0.285 -0.338,0.411c-0.126,0.126 -0.263,0.238 -0.411,0.338c-0.148,0.098 -0.305,0.182 -0.469,0.25c-0.165,0.069 -0.334,0.12 -0.509,0.155c-0.175,0.035 -0.351,0.052 -0.53,0.052l-8.835,0c-0.146,-0.003 -0.293,0 -0.439,0.011c-0.146,0.012 -0.291,0.03 -0.436,0.055c-0.144,0.026 -0.287,0.059 -0.429,0.098c-0.141,0.04 -0.28,0.086 -0.416,0.14c-0.137,0.054 -0.271,0.113 -0.4,0.18c-0.131,0.067 -0.257,0.141 -0.381,0.22c-0.123,0.079 -0.242,0.165 -0.357,0.257c-0.114,0.091 -0.224,0.189 -0.329,0.29c-0.105,0.103 -0.204,0.21 -0.299,0.323c-0.094,0.112 -0.183,0.229 -0.266,0.35c-0.083,0.122 -0.159,0.247 -0.229,0.375c-0.07,0.129 -0.133,0.261 -0.19,0.396c-0.057,0.135 -0.108,0.272 -0.151,0.413c-0.043,0.14 -0.079,0.282 -0.108,0.425c-0.029,0.144 -0.05,0.289 -0.065,0.435c-0.015,0.146 -0.022,0.292 -0.022,0.439c0,0.146 0.007,0.293 0.022,0.439c0.015,0.146 0.036,0.291 0.065,0.434c0.029,0.144 0.065,0.286 0.108,0.426c0.043,0.141 0.094,0.278 0.151,0.413c0.057,0.136 0.12,0.267 0.19,0.396c0.07,0.128 0.146,0.253 0.229,0.375c0.083,0.121 0.171,0.237 0.266,0.35c0.094,0.113 0.194,0.22 0.299,0.323c0.105,0.102 0.215,0.199 0.329,0.29c0.115,0.091 0.234,0.177 0.357,0.257c0.123,0.079 0.25,0.153 0.381,0.22c0.13,0.066 0.264,0.127 0.4,0.18c0.137,0.054 0.276,0.1 0.416,0.14c0.141,0.04 0.285,0.073 0.429,0.098c0.145,0.026 0.29,0.044 0.436,0.055c0.146,0.011 0.293,0.014 0.439,0.011l-0,-0Z" style="fill:#189caa;fill-rule:nonzero;"/></g></g></svg>