<?xml version="1.0" encoding="UTF-8" standalone="no"?><!DOCTYPE svg PUBLIC "-//W3C//DTD SVG 1.1//EN" "http://www.w3.org/Graphics/SVG/1.1/DTD/svg11.dtd"><svg width="100%" height="100%" viewBox="0 0 224 212" version="1.1" xmlns="http://www.w3.org/2000/svg" xmlns:xlink="http://www.w3.org/1999/xlink" xml:space="preserve" xmlns:serif="http://www.serif.com/" style="fill-rule:evenodd;clip-rule:evenodd;stroke-linejoin:round;stroke-miterlimit:2;"><rect id="Brain" x="0" y="0.384" width="223.502" height="211.507" style="fill:none;"/><g id="Brain1" serif:id="Brain"><path id="Hex" d="M139.206,178.23l-21.413,10.119c-3.721,1.761 -8.361,1.761 -12.082,0l-77.499,-36.621c-3.776,-1.784 -6.234,-5.168 -6.234,-8.965l0,-73.242c0,-3.797 2.458,-7.184 6.234,-8.968l26.879,-12.701c-3.187,3.232 -4.891,6.4 -5.497,9.186l-0.237,-0.002c-1.026,0 -2.031,0.114 -2.992,0.335c-2.435,0.558 -6.548,3.046 -9.008,6.682c-0.93,1.218 -1.756,2.393 -2.49,3.551l-1.683,0.795c-0.627,0.296 -0.882,0.765 -0.882,1.122l0,2.923c-1.739,4.087 -2.525,8.435 -2.829,14.203c-0.3,5.645 1.15,11.125 2.829,14.435l-0,41.682c0,0.357 0.255,0.826 0.882,1.122l77.496,36.621c0.665,0.313 1.477,0.313 2.145,0l19.719,-9.318c0.941,3.29 3.448,5.926 6.663,7.042Zm-43.449,-149.595l9.953,-4.703c1.878,-0.888 3.961,-1.327 6.038,-1.327c2.074,0 4.166,0.439 6.044,1.327l19.483,9.207c-1.511,0.382 -2.778,0.878 -3.76,1.338c-2.05,-2.2 -4.512,-3.829 -7.415,-4.947c-3.651,-1.514 -9.4,-1.984 -11.744,-2.062c-0.089,-0.003 -0.179,-0.004 -0.268,-0.004c-6.849,0.037 -12.652,0.305 -18.331,1.171Zm76.258,20.92l23.273,10.998c3.776,1.784 6.237,5.171 6.237,8.968l0,73.242c0,3.797 -2.464,7.181 -6.237,8.965l-42.774,20.213c0.424,-1.145 0.653,-2.384 0.649,-3.677c-0.002,-0.082 -0.042,-3.149 -0.926,-6.383l38.082,-17.996c0.627,-0.296 0.882,-0.765 0.882,-1.122l0,-31.93c2.353,-5.327 2.619,-9.993 2.795,-13.754c0.024,-0.444 0.041,-0.877 0.067,-1.338c0.017,-0.313 0.013,-0.627 -0.012,-0.939c-0.264,-3.313 -1.474,-5.797 -2.85,-7.595l0,-17.686c0,-0.357 -0.255,-0.826 -0.882,-1.122l-4.939,-2.334c-0.479,-0.766 -1.004,-1.472 -1.57,-2.117c-3.28,-4.093 -6.701,-5.627 -9.485,-6.154c-0.122,-2.829 -0.938,-5.776 -2.311,-8.239Zm-39.061,121.438l0.002,-0.001c0.004,0.008 0.008,0.015 0.011,0.019c-0.004,-0.006 -0.009,-0.012 -0.013,-0.018Z" style="fill:#189caa;stroke:#189caa;stroke-width:0.5px;"/><path id="path2-47-4-5" d="M183.695,89.686c-0.028,-0.065 -0.075,-0.12 -0.14,-0.156c-3.369,-1.904 -6.942,-2.868 -10.62,-2.868c-4.835,0 -9.7,1.703 -14.455,5.059c-0.387,0.271 -0.838,0.415 -1.307,0.415c-0.739,0 -1.432,-0.358 -1.856,-0.961c-0.721,-1.021 -0.477,-2.439 0.548,-3.161c5.698,-4.022 10.957,-5.976 16.076,-5.976c2.502,0 5.044,0.466 7.78,1.43c0.129,0.046 0.275,0 0.359,-0.105c0.089,-0.109 2.135,-2.775 1.032,-9.261c-0.488,-2.33 -1.383,-4.233 -2.649,-5.638c-2.553,-3.239 -5.143,-3.919 -6.866,-3.919c-1.07,0 -1.747,0.267 -1.777,0.278c-0.063,0.024 -0.115,0.069 -0.151,0.128c-2.477,3.895 -5.352,6.51 -10.603,9.653c-0.354,0.211 -0.755,0.321 -1.164,0.321c-0.796,0 -1.539,-0.422 -1.948,-1.104c-0.642,-1.073 -0.292,-2.469 0.781,-3.112c6.339,-3.792 8.859,-6.286 10.384,-10.292c0.771,-2.826 -0.179,-6.637 -2.202,-8.852l-0.405,-0.497c-2.301,-2.831 -6.576,-8.1 -17.385,-10.869c-1.5,-0.477 -3.032,-0.719 -4.554,-0.719c-4.404,0 -7.277,1.982 -7.398,2.066c-0.118,0.083 -0.167,0.235 -0.121,0.37c0.429,1.26 1.736,5.093 0.405,9.385c-0.295,0.956 -1.168,1.597 -2.167,1.597c-0.227,0 -0.454,-0.032 -0.674,-0.101c-1.193,-0.371 -1.864,-1.644 -1.493,-2.839c0.882,-2.843 0.693,-5.353 -0.575,-7.673c-1.658,-3.035 -3.957,-5.078 -7.014,-6.243c-2.918,-1.242 -7.542,-1.517 -9.408,-1.578c-12.018,0.064 -20.585,0.839 -31.428,4.718c-1.389,0.452 -2.471,1.361 -3.049,2.558c-0.683,1.416 -0.668,3.181 0.048,5.104c0.01,0.023 0.034,0.101 0.078,0.226c0.84,2.455 1.66,4.657 2.44,6.549c0.231,0.56 0.231,1.175 0,1.736c-0.232,0.559 -0.67,0.995 -1.229,1.226c-0.278,0.114 -0.568,0.172 -0.864,0.172c-0.915,0 -1.739,-0.552 -2.1,-1.405c-0.65,-1.552 -2.676,-6.628 -2.695,-6.675c-0.038,-0.1 -0.976,-2.455 -4.001,-2.455c-2.271,0 -5.089,1.353 -8.369,4.016c-4.363,3.38 -6.59,6.441 -6.621,9.097c-0.022,1.873 1.097,2.801 1.175,2.862c0.9,0.574 5.79,4.302 7.833,6.577c0.855,0.95 0.827,2.363 -0.064,3.214c-0.425,0.405 -0.982,0.628 -1.567,0.628c-0.626,0 -1.207,-0.249 -1.639,-0.7c-5.072,-5.298 -9.231,-7.876 -12.715,-7.876c-0.49,0 -0.97,0.052 -1.428,0.158c-1.353,0.31 -3.545,1.868 -4.865,3.92c-4.653,6.045 -6.172,10.788 -6.601,18.904c-0.259,4.858 1.053,9.6 2.525,11.659c2.07,2.895 4.163,4.534 4.957,5.108c0,0 0.638,0.405 0.882,0.215c2.071,-1.627 4.444,-2.481 7.356,-2.481c1.742,0 3.712,0.293 5.855,0.873c0.568,0.154 1.042,0.526 1.333,1.046c0.3,0.534 0.373,1.178 0.2,1.765c-0.281,0.961 -1.175,1.632 -2.178,1.632c-0.215,0 -0.429,-0.032 -0.636,-0.093c-1.497,-0.437 -2.895,-0.622 -4.152,-0.659c-1.239,-0.032 -3.497,0.084 -4.52,1.239c-0.046,0.052 -0.089,0.106 -0.105,0.173c-0.013,0.064 -0.255,5.585 7.604,8.401c6.601,2.365 10.032,2.443 24.377,2.443c2.115,0 4.442,-0.023 7.32,-0.07c0.725,-0.021 1.753,-0.377 2.408,-1.137c0.5,-0.577 0.713,-1.301 0.618,-2.057c-0.007,-1.219 0.181,-2.33 0.599,-3.5c1.719,-4.815 5.179,-7.96 11.224,-10.201c0.255,-0.095 0.52,-0.144 0.789,-0.144c0.943,0 1.796,0.596 2.126,1.482c0.21,0.568 0.188,1.184 -0.066,1.734c-0.253,0.551 -0.704,0.97 -1.271,1.182c-4.622,1.714 -7.468,4.163 -8.463,7.277c-1.677,5.256 2.204,11.027 2.25,11.073c11.55,11.318 33.99,11.64 35.118,8.5c0.95,-2.332 1.603,-6.032 -0.688,-10.429c-3.589,-6.884 -15.764,-7.312 -15.888,-7.317c-1.249,-0.034 -2.239,-1.081 -2.203,-2.327c0.033,-1.216 1.053,-2.207 2.322,-2.207c0.61,0.017 14.96,0.488 19.79,9.755c2.624,5.03 2.255,9.506 1.48,12.383c-0.185,0.772 -0.046,1.551 0.374,2.087c0.268,0.337 0.769,0.739 1.658,0.739c0,0 7.949,0.051 14.443,-1.299c0.878,-0.181 1.716,0.468 1.853,1.349c0.137,0.884 -0.47,1.714 -1.353,1.851c-9.531,1.491 -17.888,2.236 -25.143,2.236c-8.766,0 -15.924,-1.09 -21.607,-3.272c0.097,4.007 1.459,7.5 3.934,10.359c0.017,0.024 0.03,0.041 0.044,0.063c0.825,0.869 2.062,2.098 3.191,3.128c0.864,0.787 4.952,3.392 6.016,4.034c2.053,1.198 11.386,6.94 12.283,7.517c4.108,2.647 5.325,5.519 5.453,5.691c0.438,0.58 0.664,2.302 0.664,2.302c0.371,1.543 1.765,2.692 3.424,2.687c1.939,-0.008 3.51,-1.582 3.503,-3.522c0,0 0.054,-3.944 -1.484,-6.647c-0.247,-0.5 -3.483,-5.803 -7.219,-8.684c-1.134,-0.875 -3.808,-2.831 -3.808,-2.831l-0.017,-0.008c-0.304,-0.208 -0.399,-0.616 -0.204,-0.933c0.198,-0.321 0.621,-0.424 0.947,-0.226c0,0 7.882,5.535 12.823,4.158c7.262,-2.023 16.767,-6.799 16.767,-17.544c0,-1.597 -0.16,-3.099 -0.462,-4.514c1.008,-0.536 2.009,-1.143 3.009,-1.84c1.173,-0.939 1.523,-2.102 1.608,-2.913c0.122,-1.16 -0.214,-2.389 -0.876,-3.2l-4.785,-6.162l-0.057,-0.061c-0.997,-1.266 -2.301,-1.531 -3.221,-1.531c-0.785,0 -1.399,0.189 -1.728,0.314c-1.682,0.848 -3.453,1.544 -5.258,2.067c-1.188,0.342 -2.472,-0.381 -2.808,-1.551c-0.168,-0.582 -0.101,-1.195 0.192,-1.725c0.293,-0.531 0.773,-0.914 1.357,-1.081c4.118,-1.19 11.547,-4.474 15.069,-13.103c0.348,-0.858 1.173,-1.411 2.102,-1.411c0.294,0 0.581,0.057 0.854,0.168c1.159,0.471 1.718,1.798 1.244,2.957c-1.129,2.768 -2.677,5.274 -4.626,7.492c-0.889,1.435 -0.773,2.921 0.365,4.557l3.125,4.061c0.043,0.058 0.1,0.098 0.167,0.116c0.052,0.016 1.273,0.36 3.017,0.36c2.349,0 5.673,-0.638 8.161,-3.685c6.08,-7.269 6.376,-13.559 6.589,-18.152c0.025,-0.457 0.043,-0.901 0.069,-1.376c-0.268,-3.364 -2.417,-5.072 -3.378,-5.673l-0.001,0.001Zm-93.13,-3.013c-2.925,2.89 -6.151,5.017 -9.588,6.325c-0.039,0.013 -0.072,0.037 -0.1,0.063c-1.582,0.86 -2.134,2.045 -1.839,3.957l1.302,7.412c0.117,0.595 -0.007,1.2 -0.343,1.701c-0.339,0.502 -0.851,0.845 -1.446,0.961c-1.224,0.242 -2.427,-0.583 -2.664,-1.788l-1.42,-8.001c-0.433,-1.681 -2.048,-2.57 -3.094,-2.689c-0.043,-0.023 -0.093,-0.037 -0.145,-0.039c-11.276,-0.407 -20.3,-7.69 -20.39,-7.763c-0.468,-0.385 -0.76,-0.927 -0.82,-1.53c-0.059,-0.602 0.12,-1.193 0.502,-1.661c0.432,-0.528 1.073,-0.832 1.757,-0.832c0.52,0 1.029,0.181 1.433,0.511c0.342,0.278 8.477,6.802 18.241,6.802c5.761,0 10.953,-2.241 15.427,-6.658c0.861,-0.851 2.355,-0.844 3.207,0.021c0.426,0.43 0.658,1.002 0.654,1.607c0,0.604 -0.242,1.171 -0.674,1.598l0,0Zm2.99,-15.75c-7.088,0 -12.159,4.385 -12.373,4.571c-0.415,0.363 -0.945,0.564 -1.496,0.564c-0.654,0 -1.276,-0.281 -1.705,-0.77c-0.4,-0.456 -0.599,-1.039 -0.559,-1.644c0.038,-0.603 0.31,-1.157 0.765,-1.556c3.106,-2.729 8.79,-5.644 15.425,-5.644c4.78,0 9.352,1.516 13.588,4.507c0.494,0.35 0.823,0.871 0.926,1.468c0.103,0.596 -0.033,1.198 -0.381,1.692c-0.424,0.602 -1.119,0.961 -1.855,0.961c-0.469,0 -0.92,-0.144 -1.306,-0.417c-3.508,-2.476 -7.22,-3.732 -11.031,-3.732Zm52.49,32.149c-0.389,0.464 -0.937,0.749 -1.54,0.802c-9.768,0.855 -17.047,-1.296 -21.472,-6.364c-0.691,-0.789 -1.324,-1.673 -1.879,-2.628c-0.012,-0.023 -0.031,-0.044 -0.048,-0.066c-0.588,-0.591 -1.393,-0.907 -2.394,-0.943c-0.354,-0.011 -0.729,0.01 -1.144,0.069c-0.046,-0.01 -2.871,0.611 -5.643,0.52c-6.252,-0.206 -10.271,-3.136 -10.438,-3.259c-1.008,-0.743 -1.222,-2.165 -0.479,-3.172c0.443,-0.604 1.157,-0.948 1.906,-0.92c0.454,0.016 0.887,0.165 1.257,0.435c0.126,0.09 3.146,2.094 7.875,2.375c2.287,0.136 4.53,-0.586 4.803,-0.701c1.749,-0.735 1.682,-2.673 1.597,-3.424c-0.371,-4.384 0.405,-7.88 0.437,-8.029c0.27,-1.199 1.5,-1.987 2.713,-1.712c1.215,0.276 1.986,1.49 1.713,2.708c-0.023,0.098 -2.087,9.807 3.16,15.786c3.427,3.904 9.399,5.534 17.646,4.808c1.273,-0.106 2.35,0.83 2.456,2.062c0.051,0.602 -0.133,1.19 -0.523,1.654l-0,0Zm-1.781,-35.104c-4.061,3.894 -6.062,10.088 -5.092,15.784c0.191,1.109 -0.559,2.167 -1.667,2.355c-0.116,0.021 -0.232,0.03 -0.348,0.03c-0.997,0 -1.889,-0.706 -2.009,-1.698c-0.745,-6.085 1.224,-11.703 1.247,-11.761c0.131,-0.319 0.148,-0.597 0.048,-0.824c-0.119,-0.281 -0.39,-0.436 -0.601,-0.518c-6.089,-0.674 -17.055,-2.991 -22.148,-10.939c-0.785,-1.156 -2.837,-0.563 -6.161,-0.567c-14.933,-0.025 -17.05,-9.615 -17.133,-10.024c-0.107,-0.533 0,-1.079 0.3,-1.533c0.301,-0.456 0.76,-0.766 1.294,-0.873c0.134,-0.029 0.271,-0.043 0.407,-0.043c0.956,0 1.796,0.68 1.997,1.615c0.064,0.275 1.702,6.769 13.169,6.769c0.567,0 1.159,-0.016 1.756,-0.049c1.318,-0.16 2.056,-0.855 2.248,-2.118c0.188,-4.418 3.517,-7.703 5.454,-8.945c0.33,-0.212 0.71,-0.325 1.1,-0.325c0.701,0 1.343,0.351 1.722,0.939c0.295,0.458 0.393,1.004 0.276,1.536c-0.117,0.533 -0.433,0.989 -0.891,1.283c-0.211,0.139 -5.155,3.444 -3.061,8.322c3.772,8.786 16.599,10.651 21.938,11.044c0.674,-0.052 1.441,-0.455 2.1,-1.104c0.451,-0.519 0.842,-0.938 1.231,-1.309c5.189,-4.973 5.499,-9.843 5.511,-10.047c0.058,-1.123 1.017,-1.996 2.132,-1.938c1.116,0.05 1.989,0.997 1.947,2.11c-0.01,0.271 -0.325,6.653 -6.767,12.826l0,-0Z" style="fill:#189caa;fill-rule:nonzero;"/></g></svg>