<?xml version="1.0" encoding="UTF-8" standalone="no"?><!DOCTYPE svg PUBLIC "-//W3C//DTD SVG 1.1//EN" "http://www.w3.org/Graphics/SVG/1.1/DTD/svg11.dtd"><svg width="100%" height="100%" viewBox="0 0 224 212" version="1.1" xmlns="http://www.w3.org/2000/svg" xmlns:xlink="http://www.w3.org/1999/xlink" xml:space="preserve" xmlns:serif="http://www.serif.com/" style="fill-rule:evenodd;clip-rule:evenodd;stroke-linejoin:round;stroke-miterlimit:2;"><rect id="Brocolli" x="0" y="0.384" width="223.502" height="211.507" style="fill:none;"/><g id="Brocolli1" serif:id="Brocolli"><path id="Hex" d="M32.223,153.624l-4.012,-1.896c-3.776,-1.784 -6.234,-5.168 -6.234,-8.965l0,-73.242c0,-3.797 2.458,-7.184 6.234,-8.968l77.499,-36.621c1.878,-0.888 3.961,-1.327 6.038,-1.327c2.074,0 4.166,0.439 6.044,1.327l33.474,15.818c-1.268,-0.223 -2.554,-0.368 -3.85,-0.429c-0.111,-0.005 -0.222,-0.008 -0.333,-0.008c-2.625,0 -7.25,0.163 -10.574,1.449c-0.82,0.318 -1.583,0.696 -2.282,1.13l-1.625,-0.768c-3.578,-2.733 -7.596,-4.585 -11.764,-5.559l-8.014,-3.787c-0.328,-0.155 -0.697,-0.237 -1.075,-0.237c-0.375,0 -0.741,0.082 -1.069,0.237l-77.496,36.621c-0.627,0.296 -0.882,0.765 -0.882,1.122l0,73.242c0,0.357 0.255,0.826 0.882,1.122l1.787,0.844l-1.036,1.01l-1.726,3.195c-0.238,0.713 -0.359,1.46 -0.359,2.212c0,0.812 0.135,1.645 0.374,2.478Zm133.914,-106.846l29.151,13.775c3.776,1.784 6.237,5.171 6.237,8.968l0,73.242c0,3.797 -2.464,7.181 -6.237,8.965l-77.496,36.621c-3.721,1.761 -8.361,1.761 -12.082,0l-35.271,-16.667l0.434,-0.254l0.169,-0.103c3.023,-1.889 5.689,-3.776 8.223,-5.664l31.414,14.845c0.665,0.313 1.477,0.313 2.145,0l42.281,-19.98c5.66,-0.98 10.95,-3.47 15.266,-7.214l19.949,-9.427c0.627,-0.296 0.882,-0.765 0.882,-1.122l0,-39.614c0.579,-3.461 0.579,-7.005 -0,-10.451l-0,-23.177c0,-0.357 -0.255,-0.826 -0.882,-1.122l-14.615,-6.906c-1.397,-4.946 -4.034,-9.504 -7.824,-13.107c-0.562,-0.559 -1.144,-1.095 -1.744,-1.608Z" style="fill:#189caa;stroke:#189caa;stroke-width:0.5px;"/><g><path id="path5-5-1-4" d="M149.646,153.995c-6.551,0 -12.532,-2.564 -17.374,-7.122c-6.266,-6.267 -8.83,-15.668 -6.266,-24.499c-1.139,0.285 -2.563,0.285 -3.987,0.285c-6.266,0 -12.532,-2.278 -17.374,-7.122c-4.557,-4.843 -7.121,-10.825 -7.121,-17.662l0,-0.285c-3.702,1.139 -7.406,1.71 -11.108,1.139c-5.127,-0.57 -9.684,-2.849 -13.101,-6.552c-4.558,-4.558 -7.121,-10.54 -6.836,-17.092c0,-6.268 2.563,-11.965 6.836,-16.238c4.272,-4.558 10.538,-7.122 17.089,-6.837c0.285,1.994 3.134,21.365 15.381,23.929c2.563,0.57 3.418,-3.418 0.854,-3.988c-9.114,-1.71 -11.962,-18.233 -12.247,-19.941c0.854,-1.139 1.709,-2.279 2.848,-3.418c9.114,-9.116 23.925,-9.116 33.325,0c0.285,0.285 0.854,0.854 1.139,1.139c-2.848,6.267 -8.545,21.365 -0.854,27.632c1.994,1.71 4.558,-1.139 2.563,-2.849c-7.12,-5.982 3.134,-25.353 3.134,-25.353c1.709,-2.849 7.69,-2.849 10.538,-2.849c5.982,0.285 11.678,2.849 15.95,7.122c5.411,5.128 7.69,12.82 6.55,20.226c-4.842,2.279 -18.513,8.261 -23.355,2.564c-1.709,-2.279 -4.842,0.285 -3.134,2.564c5.697,6.837 20.793,1.994 28.768,-1.71c2.278,0.854 4.272,2.279 5.981,4.274c9.114,8.831 9.114,24.214 0,33.33c-1.709,1.709 -3.702,2.849 -5.411,3.988c-5.697,-1.139 -19.083,-4.273 -20.793,-11.68c-0.57,-2.849 -4.272,-1.709 -3.987,0.57c2.278,10.825 20.222,14.529 25.634,15.383c0.854,2.849 1.139,6.267 0.854,9.401c-0.854,5.412 -3.133,10.54 -7.121,14.528c-4.557,4.558 -10.823,7.122 -17.374,7.122Z" style="fill:#189caa;"/><path id="path6-91-3-5" d="M57.933,170.517c-0.57,0 -0.854,-0.285 -1.424,-0.57l-17.089,-17.093c-0.285,-0.57 -0.57,-1.139 -0.57,-1.709c0.285,-0.855 0.57,-1.14 1.139,-1.425l7.121,-3.134c16.234,-7.691 23.64,-15.668 30.476,-33.045c1.139,-3.703 2.563,-7.976 3.702,-12.249c1.425,0.57 2.849,0.855 4.558,1.14c2.848,0.57 5.412,0.285 8.26,0c0.285,3.134 1.424,6.552 3.133,9.401c-1.709,2.849 -3.418,5.698 -4.842,8.831c-3.134,5.127 -5.697,9.401 -6.551,11.965c-0.285,0.854 -0.285,1.709 0.285,2.278c0.285,0.285 0.854,0.57 1.424,0.57c0.285,0 0.57,0 0.57,-0.286c4.273,-1.139 7.406,-2.563 10.538,-3.988c3.988,-1.994 7.975,-3.703 14.811,-5.982c2.563,0.854 5.127,1.14 7.975,1.425c-0.57,5.698 0.57,11.394 3.418,16.522l-0.285,0c-4.272,-0.285 -8.83,0 -14.241,0.57c-9.114,1.14 -17.089,2.564 -23.925,7.692c-2.563,1.709 -4.842,3.418 -7.121,5.413c-3.702,2.849 -7.406,5.698 -11.962,8.546l-8.26,4.843c-0.285,0.285 -0.57,0.285 -1.139,0.285Zm41.584,-54.98c0.855,0.854 1.71,1.71 2.564,2.564c1.709,1.994 3.702,3.418 5.981,4.842c-4.557,1.71 -7.974,3.134 -11.108,4.558c-1.709,0.854 -3.418,1.424 -5.411,2.279c1.139,-1.994 2.848,-4.558 4.272,-7.407c1.139,-2.279 2.563,-4.558 3.702,-6.837Z" style="fill:#189caa;"/></g></g></svg>