<?xml version="1.0" encoding="UTF-8" standalone="no"?><!DOCTYPE svg PUBLIC "-//W3C//DTD SVG 1.1//EN" "http://www.w3.org/Graphics/SVG/1.1/DTD/svg11.dtd"><svg width="100%" height="100%" viewBox="0 0 224 212" version="1.1" xmlns="http://www.w3.org/2000/svg" xmlns:xlink="http://www.w3.org/1999/xlink" xml:space="preserve" xmlns:serif="http://www.serif.com/" style="fill-rule:evenodd;clip-rule:evenodd;stroke-linejoin:round;stroke-miterlimit:2;"><rect id="Calendar" x="0" y="0.384" width="223.502" height="211.507" style="fill:none;"/><path id="path4-40-0" d="M48.232,160.939l-19.776,-9.345c-3.765,-1.779 -6.216,-5.153 -6.216,-8.939l0,-73.028c0,-3.786 2.451,-7.163 6.216,-8.942l15.283,-7.222c-0.486,1.707 -0.746,3.51 -0.746,5.372l0,5.145l-9.58,4.527c-0.625,0.295 -0.879,0.762 -0.879,1.119l0,73.028c0,0.356 0.254,0.824 0.879,1.119l9.593,4.533c0.173,4.871 2.124,9.292 5.226,12.632Zm41.82,-129.359l15.676,-7.408c1.872,-0.885 3.949,-1.323 6.02,-1.323c2.068,0 4.154,0.438 6.026,1.323l15.681,7.41c-2.766,1.63 -4.851,4.293 -5.725,7.459l-14.911,-7.046c-0.327,-0.155 -0.695,-0.237 -1.072,-0.237c-0.374,0 -0.739,0.082 -1.066,0.237l-14.91,7.046c-0.874,-3.168 -2.958,-5.829 -5.721,-7.461Zm89.712,21.886l15.28,7.22c3.765,1.779 6.219,5.156 6.219,8.942l0,73.028c0,3.786 -2.457,7.16 -6.219,8.939l-19.752,9.334c3.09,-3.337 5.033,-7.752 5.205,-12.621l9.592,-4.533c0.625,-0.295 0.879,-0.762 0.879,-1.119l0,-73.028c0,-0.356 -0.254,-0.824 -0.879,-1.119l-9.58,-4.527l0,-5.145c0,-1.862 -0.26,-3.664 -0.745,-5.371Zm-17.695,113.71l-44.294,20.932c-3.71,1.756 -8.337,1.756 -12.047,0l-44.301,-20.934c0.392,0.023 0.787,0.035 1.185,0.035l20.393,0l27.677,13.079c0.663,0.313 1.472,0.313 2.138,0l27.677,-13.079l20.394,0c0.396,0.001 0.788,-0.01 1.178,-0.033Z" style="fill:#189caa;stroke:#189caa;stroke-width:0.5px;"/><g><path d="M60.238,80.144l103.026,0l0,64.059c0,3.204 -2.6,5.804 -5.804,5.804l-91.418,0c-3.204,0.011 -5.804,-2.588 -5.804,-5.804l0,-64.059Zm2.374,-32.914c-6.419,0 -11.619,5.199 -11.619,11.607l0,88.764c0,6.408 5.2,11.608 11.619,11.608l98.279,0c6.419,0.01 11.618,-5.19 11.618,-11.608l0,-88.764c0,-6.408 -5.199,-11.607 -11.618,-11.607l-11.198,0l0,9.364c-0.043,5.459 -4.498,9.838 -9.946,9.795c-5.394,-0.043 -9.752,-4.401 -9.795,-9.795l0,-9.364l-36.399,0l0,9.364c-0.043,5.459 -4.499,9.838 -9.958,9.795c-5.383,-0.043 -9.742,-4.401 -9.785,-9.795l0,-9.364l-11.197,0" style="fill:#189caa;fill-rule:nonzero;"/><path d="M151.613,127.751l0,10.389l-14.024,0l0,-10.389l14.024,0" style="fill:#189caa;fill-rule:nonzero;"/><path d="M129.713,127.751l0,10.389l-14.024,0l0,-10.389l14.024,0" style="fill:#189caa;fill-rule:nonzero;"/><path d="M107.814,127.751l0,10.389l-14.024,0l0,-10.389l14.024,0" style="fill:#189caa;fill-rule:nonzero;"/><path d="M85.914,127.751l0,10.389l-14.024,0l0,-10.389l14.024,0" style="fill:#189caa;fill-rule:nonzero;"/><path d="M151.613,109.887l0,10.389l-14.024,0l0,-10.389l14.024,0" style="fill:#189caa;fill-rule:nonzero;"/><path d="M129.713,109.887l0,10.389l-14.024,0l0,-10.389l14.024,0" style="fill:#189caa;fill-rule:nonzero;"/><path d="M107.814,109.887l0,10.389l-14.024,0l0,-10.389l14.024,0" style="fill:#189caa;fill-rule:nonzero;"/><path d="M85.914,109.887l0,10.389l-14.024,0l0,-10.389l14.024,0" style="fill:#189caa;fill-rule:nonzero;"/><path d="M151.613,92.022l0,10.389l-14.024,0l0,-10.389l14.024,0" style="fill:#189caa;fill-rule:nonzero;"/><path d="M129.713,92.022l0,10.389l-14.024,0l0,-10.389l14.024,0" style="fill:#189caa;fill-rule:nonzero;"/><path d="M107.814,92.022l0,10.389l-14.024,0l0,-10.389l14.024,0" style="fill:#189caa;fill-rule:nonzero;"/><path d="M85.914,92.022l0,10.389l-14.024,0l0,-10.389l14.024,0" style="fill:#189caa;fill-rule:nonzero;"/><path d="M144.363,56.476l0,-14.089c0,-2.514 -2.039,-4.542 -4.553,-4.531c-2.503,0 -4.531,2.028 -4.531,4.531l0,14.089c0,2.503 2.05,4.541 4.553,4.531c2.503,0 4.531,-2.028 4.531,-4.531" style="fill:#189caa;fill-rule:nonzero;"/><path d="M88.222,42.386c0,-2.514 -2.039,-4.542 -4.541,-4.542c-2.513,0.011 -4.541,2.039 -4.541,4.542l0,14.089c0,2.503 2.028,4.541 4.541,4.541c2.513,-0.01 4.541,-2.039 4.541,-4.541l0,-14.089" style="fill:#189caa;fill-rule:nonzero;"/></g></svg>