<?xml version="1.0" encoding="UTF-8" standalone="no"?>
<!DOCTYPE svg PUBLIC "-//W3C//DTD SVG 1.1//EN" "http://www.w3.org/Graphics/SVG/1.1/DTD/svg11.dtd">
<svg width="100%" height="100%" viewBox="0 0 224 212" version="1.1" xmlns="http://www.w3.org/2000/svg" xmlns:xlink="http://www.w3.org/1999/xlink" xml:space="preserve" xmlns:serif="http://www.serif.com/" style="fill-rule:evenodd;clip-rule:evenodd;stroke-linejoin:round;stroke-miterlimit:2;">
    <rect id="Camera" x="0" y="0.384" width="223.502" height="211.507" style="fill:none;"/>
    <path id="path4-40-0" d="M34.725,154.557L28.456,151.595C24.691,149.816 22.24,146.442 22.24,142.656L22.24,69.628C22.24,65.842 24.691,62.465 28.456,60.686L105.728,24.172C107.6,23.287 109.677,22.849 111.748,22.849C113.816,22.849 115.902,23.287 117.774,24.172L195.043,60.686C198.808,62.465 201.262,65.842 201.262,69.628L201.262,142.656C201.262,146.442 198.805,149.816 195.043,151.595L188.942,154.478C190.014,153.001 190.909,151.294 191.488,149.346C192.246,146.796 192.462,146.757 192.462,90.007C192.462,80.944 192.646,74.482 191.481,70.003C190.161,64.932 187.566,61.457 182.992,59.086C176.261,55.597 173.505,56.157 171.287,56.09C171.214,56.088 171.14,56.087 171.067,56.086C168.322,56.079 165.889,56.071 163.753,56.063L140.906,45.267C136.411,41.288 133.318,39.587 128.03,39.182L112.821,31.995C112.494,31.84 112.126,31.758 111.749,31.758C111.375,31.758 111.01,31.84 110.683,31.995L94.783,39.509C91.381,39.832 90.613,40.291 89.442,40.812C87.681,41.595 85.559,43.056 83.35,44.912L59.897,55.995C58.063,56.005 55.993,56.031 53.646,56.086C44.182,56.308 38.971,59.177 35.831,62.704C33.637,65.169 32.292,68.148 31.614,71.605C30.945,75.016 31.003,79.049 31.003,83.383C31.002,145.431 31.106,145.45 31.919,148.896C32.332,150.647 33.328,152.656 34.725,154.557ZM172.124,162.425L117.775,188.108C114.065,189.864 109.438,189.864 105.728,188.108L51.081,162.285C55.263,162.468 61.98,162.575 73.319,162.632L110.682,180.288C111.345,180.601 112.154,180.601 112.82,180.288L150.145,162.65C162.006,162.615 168.4,162.548 172.123,162.425L172.124,162.425Z" style="fill:rgb(24,156,170);stroke:rgb(24,156,170);stroke-width:0.5px;"/>
    <rect id="Camera1" serif:id="Camera" x="0" y="0.384" width="223.502" height="211.507" style="fill:none;"/>
    <rect id="Camera2" serif:id="Camera" x="0" y="0.384" width="223.502" height="211.507" style="fill:none;"/>
    <g id="Camera3" serif:id="Camera">
        <g>
            <path d="M171.048,64.087C172.614,64.134 174.561,63.727 179.311,66.189C185.364,69.327 184.463,76.43 184.463,90.008C184.463,144.573 184.55,144.615 183.821,147.067C182.561,151.304 178.637,153.535 176.684,153.976C173.11,154.783 173.084,154.689 104.857,154.689C49.141,154.689 49.024,154.85 45.581,153.538C42.715,152.446 40.249,149.362 39.706,147.059C38.916,143.71 39.003,143.689 39.004,83.384C39.004,72.922 38.077,64.454 53.833,64.085C72.799,63.641 73.456,65.091 77.089,61.993C81.183,58.502 88.245,50.1 92.692,48.123C95.079,47.062 95.644,46.811 125.553,47.086C132.413,47.149 134.23,49.814 141.148,56.474C148.054,63.122 148.038,63.151 148.98,63.53C150.768,64.25 150.845,64.036 171.048,64.087ZM144.215,105.916C141.727,75.067 105.602,66.406 87.28,86.331C81.132,93.016 79.202,102.477 79.29,105.913C79.935,131.091 104.405,142.598 123.039,135.684C144.917,127.566 144.21,106.348 144.215,105.916ZM166.1,76.831C166.162,77.228 166.022,77.639 166.084,78.036C166.809,82.648 172.679,83.621 174.892,79.291C176.929,75.307 170.927,70.697 167.25,74.423C166.831,74.847 166.66,75.205 166.624,75.281C166.261,76.043 166.457,76.083 166.1,76.831Z" style="fill:rgb(24,156,170);"/>
            <path d="M111.753,130.322C98.767,129.567 93.234,122.628 90.484,118.134C86.939,112.341 84.012,98.308 96.333,88.385C99.259,86.028 107.493,81.601 115.867,83.478C125.095,85.546 131.121,89.533 134.999,99.348C135.067,99.519 138.958,111.287 131.33,120.668C127.399,125.502 121.86,129.705 111.754,130.322L111.753,130.322Z" style="fill:rgb(24,156,170);"/>
        </g>
    </g>
</svg>
