<?xml version="1.0" encoding="UTF-8" standalone="no"?><!DOCTYPE svg PUBLIC "-//W3C//DTD SVG 1.1//EN" "http://www.w3.org/Graphics/SVG/1.1/DTD/svg11.dtd"><svg width="100%" height="100%" viewBox="0 0 224 212" version="1.1" xmlns="http://www.w3.org/2000/svg" xmlns:xlink="http://www.w3.org/1999/xlink" xml:space="preserve" xmlns:serif="http://www.serif.com/" style="fill-rule:evenodd;clip-rule:evenodd;stroke-linejoin:round;stroke-miterlimit:2;"><rect id="Certification" x="0" y="0.384" width="223.502" height="211.507" style="fill:none;"/><g id="Certification1" serif:id="Certification"><path id="Hex" d="M79.706,176.062l-51.495,-24.333c-3.776,-1.784 -6.234,-5.168 -6.234,-8.965l0,-73.242c0,-3.797 2.458,-7.184 6.234,-8.968l49.119,-23.211l-2.861,5.392c-2.04,3.845 -5.734,6.53 -10.02,7.282l-8.808,1.549c-6.105,1.068 -10.644,5.886 -11.612,11.708l-10.846,5.125c-0.627,0.296 -0.882,0.765 -0.882,1.122l0,29.513c-1.506,3.552 -1.506,7.587 -0,11.139l-0,32.59c0,0.357 0.255,0.826 0.882,1.122l11.95,5.647c1.893,4.124 5.715,7.27 10.502,8.116l0.007,0.001l8.806,1.547c1.029,0.181 2.024,0.473 2.97,0.866l1.219,0.576c2.453,1.306 4.498,3.325 5.832,5.841l4.191,7.9c0.314,0.592 0.664,1.153 1.046,1.681Zm16.834,-147.796l9.169,-4.333c1.878,-0.888 3.961,-1.327 6.038,-1.327c2.074,0 4.166,0.439 6.044,1.327l9.172,4.334c-0.333,0.133 -0.663,0.28 -0.99,0.44l-8.025,3.921c-0.583,0.285 -1.18,0.527 -1.788,0.727l-3.337,-1.577c-0.328,-0.155 -0.697,-0.237 -1.075,-0.237c-0.375,0 -0.741,0.082 -1.069,0.237l-3.333,1.575c-0.606,-0.199 -1.201,-0.441 -1.782,-0.725l-8.041,-3.926c-0.324,-0.159 -0.652,-0.305 -0.982,-0.437Zm49.647,9.086l49.1,23.203c3.776,1.784 6.237,5.171 6.237,8.968l0,73.242c0,3.797 -2.464,7.181 -6.237,8.965l-51.477,24.326c0.378,-0.524 0.725,-1.079 1.037,-1.665l0.005,-0.009l4.19,-7.897c1.353,-2.547 3.433,-4.589 5.931,-5.895l1.025,-0.484c0.975,-0.414 2.002,-0.72 3.067,-0.906l8.807,-1.548c4.792,-0.839 8.619,-3.992 10.512,-8.124l11.936,-5.64c0.627,-0.296 0.882,-0.765 0.882,-1.122l0,-32.587c1.501,-3.553 1.502,-7.591 -0,-11.145l-0,-29.511c0,-0.357 -0.255,-0.826 -0.882,-1.122l-10.84,-5.123c-0.964,-5.821 -5.499,-10.644 -11.608,-11.724l-0.006,-0.001l-8.807,-1.548c-4.282,-0.752 -7.981,-3.436 -10.021,-7.282l-2.85,-5.371Zm-14.829,144.588l-13.566,6.411c-3.721,1.761 -8.361,1.761 -12.082,0l-13.568,-6.411c1.823,-0.111 3.653,-0.576 5.393,-1.427l6.467,-3.16l6.678,3.155c0.665,0.313 1.477,0.313 2.145,0l6.683,-3.158l6.475,3.164c1.735,0.849 3.559,1.313 5.377,1.426Z" style="fill:#189caa;stroke:#189caa;stroke-width:0.5px;"/><path id="Certification2" serif:id="Certification" d="M183.287,99.543l-6.217,-6.43c-4.523,-4.678 -6.639,-11.186 -5.725,-17.629l1.252,-8.857c0.548,-3.883 -2.082,-7.499 -5.944,-8.181l-8.805,-1.548c-6.408,-1.125 -11.942,-5.142 -14.994,-10.896l-4.192,-7.9c-1.835,-3.447 -6.091,-4.833 -9.607,-3.109l-8.032,3.925c-5.844,2.857 -12.687,2.857 -18.532,0l-8.039,-3.925c-3.517,-1.724 -7.772,-0.338 -9.607,3.123l-4.191,7.9c-3.053,5.754 -8.58,9.771 -14.994,10.896l-8.806,1.548c-3.861,0.675 -6.491,4.291 -5.943,8.174l1.252,8.856c0.915,6.444 -1.203,12.951 -5.724,17.63l-6.218,6.43c-2.729,2.82 -2.729,7.288 0,10.109l6.218,6.43c4.522,4.678 6.639,11.185 5.724,17.629l-1.252,8.856c-0.549,3.883 2.082,7.5 5.943,8.182l8.806,1.547c6.407,1.125 11.942,5.143 14.994,10.896l4.191,7.9c1.836,3.461 6.091,4.847 9.615,3.123l8.032,-3.925c5.845,-2.857 12.688,-2.857 18.532,0l8.032,3.925c3.523,1.724 7.772,0.338 9.614,-3.123l4.191,-7.9c3.053,-5.747 8.58,-9.771 14.995,-10.896l8.805,-1.547c3.862,-0.676 6.491,-4.299 5.944,-8.182l-1.252,-8.856c-0.914,-6.444 1.203,-12.951 5.725,-17.629l6.217,-6.43c2.715,-2.821 2.715,-7.296 -0.007,-10.116l0,0Zm-83.539,31.135l-16.127,-16.13c-2.743,-2.744 -2.743,-7.203 0,-9.947c2.743,-2.744 7.201,-2.744 9.944,0l11.155,11.156l32.253,-32.261c2.743,-2.744 7.202,-2.744 9.945,0c2.743,2.744 2.743,7.204 0,9.947l-37.226,37.234c-2.744,2.744 -7.202,2.744 -9.945,0Z" style="fill:#189caa;fill-rule:nonzero;"/></g></svg>