<?xml version="1.0" encoding="UTF-8" standalone="no"?><!DOCTYPE svg PUBLIC "-//W3C//DTD SVG 1.1//EN" "http://www.w3.org/Graphics/SVG/1.1/DTD/svg11.dtd"><svg width="100%" height="100%" viewBox="0 0 224 212" version="1.1" xmlns="http://www.w3.org/2000/svg" xmlns:xlink="http://www.w3.org/1999/xlink" xml:space="preserve" xmlns:serif="http://www.serif.com/" style="fill-rule:evenodd;clip-rule:evenodd;stroke-linejoin:round;stroke-miterlimit:2;"><rect id="Cheese" x="0" y="-0" width="223.502" height="211.507" style="fill:none;"/><path id="Hex" d="M44.073,158.59l-15.617,-7.38c-3.765,-1.779 -6.216,-5.153 -6.216,-8.939l0,-73.028c0,-3.786 2.451,-7.163 6.216,-8.942l77.272,-36.514c1.872,-0.885 3.949,-1.323 6.02,-1.323c2.068,0 4.154,0.438 6.026,1.323l14.46,6.833c-9.067,-1.509 -16.367,-0.819 -19.704,-0.383c-1.421,0.186 -2.751,0.803 -3.81,1.769l-1.207,1.101l-74.1,35.016c-0.625,0.295 -0.879,0.762 -0.879,1.119l0,73.028c0,0.356 0.254,0.824 0.879,1.119l10.66,5.037l0,10.162Zm120.353,-112.756l30.617,14.468c3.765,1.779 6.219,5.156 6.219,8.942l0,73.028c0,3.786 -2.457,7.16 -6.219,8.939l-77.269,36.514c-3.71,1.756 -8.337,1.756 -12.047,0l-40.739,-19.251l15.159,-2.998l30.535,14.429c0.663,0.313 1.472,0.313 2.138,0l77.269,-36.514c0.625,-0.295 0.879,-0.762 0.879,-1.119l0,-73.028c0,-0.356 -0.254,-0.824 -0.879,-1.119l-12.116,-5.726c-1.293,-2.262 -2.72,-4.442 -4.282,-6.537c-1.805,-2.423 -3.773,-4.711 -5.903,-6.863l-0.002,-0.002c-1.084,-1.094 -2.204,-2.149 -3.36,-3.163Z" style="fill:#189caa;stroke:#189caa;stroke-width:0.5px;"/><g id="Cheese1" serif:id="Cheese"><path d="M51.073,102.825l0,5.06l0.16,0c0.326,-0.007 0.65,0.002 0.975,0.026c0.324,0.024 0.647,0.064 0.967,0.121c0.321,0.056 0.637,0.127 0.95,0.215c0.313,0.087 0.621,0.19 0.924,0.307c0.303,0.117 0.598,0.249 0.888,0.395c0.289,0.147 0.571,0.307 0.843,0.481c0.273,0.174 0.537,0.361 0.791,0.561c0.254,0.2 0.497,0.411 0.73,0.635c0.232,0.224 0.453,0.458 0.662,0.704c0.209,0.245 0.405,0.5 0.588,0.765c0.183,0.265 0.353,0.538 0.507,0.818c0.156,0.281 0.296,0.57 0.423,0.865c0.126,0.294 0.237,0.595 0.333,0.901c0.096,0.306 0.176,0.616 0.24,0.929c0.064,0.314 0.113,0.63 0.145,0.948c0.032,0.319 0.048,0.638 0.048,0.958c0,0.32 -0.016,0.639 -0.048,0.957c-0.032,0.319 -0.081,0.635 -0.145,0.948c-0.064,0.314 -0.145,0.624 -0.24,0.929c-0.096,0.306 -0.206,0.606 -0.333,0.901c-0.126,0.295 -0.267,0.583 -0.423,0.864c-0.155,0.281 -0.324,0.554 -0.507,0.819c-0.183,0.264 -0.379,0.519 -0.588,0.765c-0.209,0.246 -0.429,0.479 -0.662,0.703c-0.233,0.224 -0.477,0.436 -0.73,0.636c-0.255,0.2 -0.518,0.387 -0.791,0.561c-0.273,0.174 -0.554,0.334 -0.843,0.48c-0.289,0.147 -0.585,0.279 -0.888,0.396c-0.303,0.117 -0.611,0.22 -0.924,0.307c-0.313,0.087 -0.629,0.159 -0.95,0.215c-0.32,0.056 -0.643,0.096 -0.967,0.121c-0.324,0.025 -0.649,0.033 -0.975,0.026l-0.16,0l0,36.947l121.356,-24.004l0,-63.132l-121.356,25.871Zm27.771,43.889c-0.174,0 -0.347,-0.009 -0.52,-0.026c-0.173,-0.016 -0.345,-0.042 -0.515,-0.075c-0.17,-0.033 -0.338,-0.075 -0.505,-0.124c-0.166,-0.05 -0.33,-0.107 -0.49,-0.172c-0.16,-0.065 -0.317,-0.138 -0.47,-0.219c-0.153,-0.081 -0.302,-0.169 -0.447,-0.263c-0.145,-0.096 -0.284,-0.197 -0.418,-0.305c-0.134,-0.109 -0.262,-0.224 -0.386,-0.344c-0.123,-0.121 -0.239,-0.248 -0.349,-0.38c-0.11,-0.132 -0.213,-0.27 -0.309,-0.412c-0.096,-0.142 -0.186,-0.288 -0.267,-0.439c-0.082,-0.151 -0.156,-0.305 -0.222,-0.463c-0.066,-0.158 -0.125,-0.319 -0.175,-0.482c-0.05,-0.163 -0.092,-0.329 -0.126,-0.496c-0.033,-0.168 -0.058,-0.337 -0.076,-0.507c-0.017,-0.17 -0.025,-0.341 -0.025,-0.512c0.001,-0.171 0.009,-0.341 0.027,-0.511c0.017,-0.17 0.043,-0.339 0.077,-0.507c0.035,-0.167 0.077,-0.333 0.128,-0.496c0.051,-0.163 0.109,-0.324 0.176,-0.482c0.066,-0.158 0.141,-0.312 0.223,-0.462c0.083,-0.151 0.172,-0.297 0.269,-0.438c0.097,-0.142 0.201,-0.279 0.311,-0.411c0.111,-0.131 0.228,-0.258 0.35,-0.378c0.123,-0.12 0.252,-0.235 0.387,-0.343c0.134,-0.109 0.273,-0.21 0.419,-0.305c0.145,-0.094 0.293,-0.182 0.447,-0.262c0.154,-0.08 0.311,-0.153 0.472,-0.218c0.16,-0.065 0.324,-0.122 0.491,-0.171c0.166,-0.05 0.334,-0.09 0.505,-0.124c0.171,-0.033 0.342,-0.057 0.515,-0.073c0.173,-0.016 0.346,-0.024 0.52,-0.024c0.174,0.001 0.347,0.009 0.52,0.027c0.172,0.017 0.344,0.043 0.515,0.077c0.17,0.033 0.338,0.075 0.504,0.126c0.166,0.05 0.33,0.108 0.49,0.174c0.16,0.066 0.317,0.139 0.469,0.221c0.153,0.081 0.302,0.169 0.446,0.265c0.144,0.096 0.283,0.197 0.417,0.306c0.134,0.109 0.262,0.225 0.384,0.346c0.123,0.121 0.239,0.248 0.348,0.381c0.11,0.132 0.213,0.27 0.309,0.413c0.096,0.142 0.184,0.289 0.266,0.44c0.081,0.152 0.155,0.306 0.221,0.464c0.066,0.159 0.123,0.319 0.173,0.483c0.05,0.163 0.092,0.329 0.124,0.497c0.033,0.168 0.058,0.336 0.074,0.507c0.017,0.17 0.024,0.34 0.023,0.511c0,0.171 -0.008,0.341 -0.025,0.511c-0.017,0.169 -0.043,0.338 -0.077,0.506c-0.033,0.167 -0.076,0.333 -0.126,0.496c-0.051,0.163 -0.109,0.324 -0.175,0.482c-0.066,0.158 -0.141,0.312 -0.223,0.462c-0.081,0.15 -0.171,0.296 -0.267,0.438c-0.096,0.142 -0.2,0.279 -0.31,0.41c-0.11,0.132 -0.227,0.259 -0.349,0.379c-0.123,0.12 -0.251,0.235 -0.386,0.343c-0.134,0.108 -0.273,0.209 -0.417,0.304c-0.145,0.095 -0.293,0.183 -0.447,0.263c-0.153,0.081 -0.31,0.153 -0.47,0.218c-0.16,0.065 -0.323,0.123 -0.489,0.172c-0.166,0.049 -0.334,0.09 -0.504,0.124c-0.171,0.033 -0.342,0.058 -0.515,0.075c-0.173,0.016 -0.346,0.025 -0.519,0.025l0,-0.019Zm21.508,-19.596c-0.373,0 -0.745,-0.019 -1.117,-0.054c-0.371,-0.037 -0.741,-0.09 -1.107,-0.162c-0.366,-0.072 -0.727,-0.162 -1.084,-0.268c-0.357,-0.106 -0.708,-0.23 -1.053,-0.371c-0.345,-0.141 -0.682,-0.298 -1.011,-0.471c-0.329,-0.173 -0.649,-0.362 -0.959,-0.566c-0.311,-0.204 -0.61,-0.423 -0.899,-0.656c-0.288,-0.233 -0.564,-0.479 -0.828,-0.739c-0.263,-0.26 -0.514,-0.531 -0.75,-0.815c-0.237,-0.284 -0.459,-0.579 -0.666,-0.884c-0.207,-0.305 -0.398,-0.619 -0.575,-0.943c-0.175,-0.324 -0.335,-0.655 -0.477,-0.995c-0.143,-0.339 -0.269,-0.685 -0.377,-1.036c-0.108,-0.351 -0.198,-0.707 -0.271,-1.067c-0.073,-0.36 -0.127,-0.723 -0.164,-1.088c-0.036,-0.366 -0.055,-0.732 -0.055,-1.099c0,-0.368 0.018,-0.733 0.055,-1.099c0.036,-0.365 0.091,-0.728 0.164,-1.088c0.073,-0.361 0.164,-0.716 0.272,-1.067c0.108,-0.352 0.234,-0.697 0.377,-1.036c0.143,-0.34 0.302,-0.671 0.478,-0.995c0.176,-0.323 0.368,-0.638 0.575,-0.943c0.207,-0.305 0.429,-0.599 0.666,-0.883c0.237,-0.284 0.487,-0.555 0.751,-0.814c0.264,-0.26 0.541,-0.506 0.829,-0.739c0.288,-0.232 0.588,-0.451 0.899,-0.655c0.31,-0.204 0.63,-0.392 0.959,-0.565c0.33,-0.173 0.666,-0.329 1.012,-0.47c0.345,-0.141 0.696,-0.264 1.053,-0.371c0.357,-0.106 0.718,-0.195 1.085,-0.267c0.366,-0.071 0.734,-0.125 1.106,-0.161c0.371,-0.036 0.744,-0.054 1.117,-0.054c0.374,0 0.746,0.018 1.118,0.054c0.371,0.037 0.74,0.09 1.106,0.162c0.366,0.072 0.728,0.161 1.085,0.267c0.357,0.107 0.708,0.231 1.053,0.371c0.345,0.141 0.682,0.298 1.011,0.471c0.329,0.173 0.649,0.361 0.96,0.566c0.31,0.204 0.609,0.422 0.898,0.655c0.288,0.233 0.564,0.479 0.828,0.739c0.264,0.26 0.515,0.531 0.752,0.815c0.236,0.284 0.458,0.578 0.665,0.883c0.208,0.305 0.399,0.619 0.575,0.943c0.175,0.324 0.335,0.655 0.478,0.995c0.142,0.339 0.268,0.684 0.376,1.036c0.108,0.351 0.199,0.706 0.272,1.067c0.073,0.36 0.127,0.723 0.164,1.088c0.036,0.365 0.055,0.731 0.055,1.099c0.002,0.368 -0.016,0.735 -0.051,1.102c-0.036,0.366 -0.089,0.73 -0.161,1.091c-0.072,0.361 -0.161,0.718 -0.269,1.071c-0.107,0.353 -0.233,0.698 -0.375,1.039c-0.142,0.341 -0.301,0.674 -0.477,0.998c-0.175,0.325 -0.368,0.64 -0.575,0.947c-0.207,0.306 -0.429,0.602 -0.666,0.887c-0.236,0.285 -0.487,0.558 -0.752,0.819c-0.264,0.26 -0.541,0.507 -0.83,0.741c-0.288,0.234 -0.589,0.453 -0.899,0.658c-0.311,0.204 -0.632,0.394 -0.961,0.568c-0.33,0.173 -0.668,0.331 -1.013,0.472c-0.345,0.141 -0.698,0.265 -1.056,0.372c-0.358,0.107 -0.72,0.197 -1.088,0.268c-0.367,0.072 -0.737,0.126 -1.109,0.162c-0.372,0.037 -0.745,0.054 -1.12,0.054l0,-0.039Zm50.887,-6.628c-0.21,0 -0.42,-0.011 -0.63,-0.031c-0.209,-0.021 -0.417,-0.051 -0.624,-0.092c-0.206,-0.04 -0.41,-0.091 -0.611,-0.152c-0.202,-0.061 -0.399,-0.131 -0.594,-0.211c-0.194,-0.079 -0.384,-0.168 -0.57,-0.266c-0.186,-0.098 -0.366,-0.205 -0.541,-0.32c-0.175,-0.116 -0.343,-0.239 -0.506,-0.371c-0.162,-0.132 -0.318,-0.271 -0.466,-0.418c-0.148,-0.147 -0.289,-0.3 -0.422,-0.461c-0.134,-0.16 -0.258,-0.326 -0.375,-0.499c-0.116,-0.172 -0.224,-0.35 -0.322,-0.533c-0.099,-0.183 -0.188,-0.37 -0.269,-0.561c-0.08,-0.192 -0.15,-0.387 -0.21,-0.585c-0.061,-0.198 -0.111,-0.399 -0.152,-0.602c-0.04,-0.203 -0.07,-0.408 -0.091,-0.614c-0.02,-0.206 -0.029,-0.413 -0.028,-0.619c0,-0.207 0.011,-0.414 0.032,-0.62c0.021,-0.206 0.053,-0.41 0.095,-0.613c0.042,-0.203 0.093,-0.403 0.155,-0.601c0.062,-0.198 0.134,-0.392 0.215,-0.584c0.081,-0.19 0.172,-0.378 0.272,-0.559c0.1,-0.183 0.209,-0.359 0.326,-0.531c0.118,-0.172 0.243,-0.338 0.378,-0.497c0.134,-0.159 0.276,-0.312 0.425,-0.458c0.149,-0.146 0.306,-0.284 0.469,-0.415c0.163,-0.131 0.332,-0.253 0.508,-0.368c0.175,-0.114 0.356,-0.22 0.542,-0.317c0.186,-0.096 0.376,-0.184 0.571,-0.263c0.195,-0.078 0.394,-0.148 0.595,-0.207c0.202,-0.059 0.405,-0.108 0.613,-0.148c0.206,-0.04 0.415,-0.069 0.624,-0.089c0.209,-0.019 0.42,-0.029 0.63,-0.027c0.21,0.001 0.42,0.012 0.63,0.033c0.209,0.021 0.417,0.052 0.624,0.093c0.206,0.042 0.409,0.093 0.611,0.154c0.201,0.061 0.398,0.132 0.593,0.212c0.194,0.08 0.383,0.169 0.568,0.268c0.186,0.099 0.365,0.206 0.54,0.322c0.174,0.116 0.342,0.24 0.504,0.372c0.162,0.132 0.317,0.272 0.466,0.419c0.148,0.148 0.288,0.301 0.42,0.462c0.133,0.161 0.257,0.327 0.373,0.5c0.116,0.172 0.223,0.35 0.321,0.534c0.099,0.183 0.187,0.371 0.266,0.562c0.08,0.192 0.149,0.387 0.209,0.586c0.06,0.198 0.11,0.399 0.149,0.602c0.04,0.204 0.07,0.408 0.089,0.615c0.02,0.206 0.028,0.413 0.028,0.619c0,0.207 -0.01,0.414 -0.032,0.62c-0.021,0.206 -0.051,0.41 -0.092,0.613c-0.041,0.204 -0.092,0.404 -0.153,0.602c-0.061,0.198 -0.132,0.392 -0.213,0.584c-0.081,0.192 -0.171,0.378 -0.27,0.561c-0.1,0.183 -0.208,0.36 -0.325,0.532c-0.117,0.172 -0.243,0.338 -0.376,0.497c-0.134,0.16 -0.275,0.313 -0.424,0.46c-0.149,0.146 -0.305,0.284 -0.468,0.416c-0.163,0.131 -0.332,0.254 -0.507,0.369c-0.175,0.115 -0.356,0.221 -0.541,0.319c-0.186,0.097 -0.376,0.186 -0.571,0.265c-0.194,0.078 -0.393,0.148 -0.594,0.208c-0.202,0.06 -0.405,0.11 -0.612,0.15c-0.206,0.04 -0.414,0.07 -0.624,0.09c-0.209,0.019 -0.419,0.03 -0.63,0.03l0,-0.04Z" style="fill:#189caa;fill-rule:nonzero;"/><path d="M149.954,44.117c-15.985,-8.941 -31.421,-7.603 -36.517,-6.937l-4.264,3.889c0.172,0.17 0.338,0.345 0.5,0.523c0.162,0.179 0.319,0.361 0.472,0.547c0.153,0.186 0.301,0.375 0.444,0.569c0.143,0.193 0.281,0.39 0.415,0.59c0.133,0.2 0.261,0.404 0.383,0.61c0.123,0.207 0.24,0.416 0.353,0.629c0.112,0.212 0.219,0.427 0.32,0.645c0.101,0.218 0.197,0.437 0.287,0.66c0.09,0.222 0.174,0.447 0.253,0.673c0.078,0.226 0.151,0.455 0.217,0.685c0.067,0.23 0.128,0.462 0.183,0.695c0.055,0.233 0.104,0.467 0.147,0.702c0.043,0.235 0.081,0.472 0.111,0.709c0.032,0.237 0.057,0.475 0.076,0.713c0.019,0.239 0.032,0.478 0.039,0.716c0.006,0.239 0.007,0.479 0.002,0.718c-0.005,0.239 -0.017,0.478 -0.034,0.716c-0.017,0.239 -0.041,0.477 -0.071,0.714c-0.029,0.238 -0.065,0.474 -0.107,0.71c-0.042,0.235 -0.089,0.47 -0.143,0.703c-0.054,0.233 -0.113,0.465 -0.179,0.695c-0.066,0.231 -0.137,0.459 -0.214,0.686c-0.077,0.227 -0.16,0.451 -0.249,0.674c-0.089,0.223 -0.183,0.444 -0.282,0.662c-0.1,0.218 -0.205,0.434 -0.316,0.646c-0.111,0.213 -0.227,0.423 -0.349,0.63c-0.122,0.207 -0.248,0.411 -0.38,0.612c-0.132,0.201 -0.269,0.399 -0.411,0.593c-0.141,0.194 -0.288,0.385 -0.44,0.572c-0.152,0.187 -0.308,0.37 -0.469,0.549c-0.16,0.179 -0.326,0.354 -0.496,0.526c-0.17,0.171 -0.344,0.338 -0.522,0.5c-0.179,0.162 -0.361,0.321 -0.548,0.474c-0.187,0.154 -0.377,0.302 -0.571,0.447c-0.194,0.144 -0.392,0.284 -0.593,0.418c-0.202,0.134 -0.406,0.263 -0.614,0.388c-0.208,0.124 -0.418,0.244 -0.632,0.357c-0.213,0.114 -0.431,0.223 -0.65,0.326c-0.22,0.103 -0.442,0.201 -0.665,0.293c-0.224,0.092 -0.451,0.179 -0.681,0.26c-0.228,0.082 -0.459,0.157 -0.692,0.227c-0.233,0.07 -0.467,0.134 -0.703,0.192c-0.236,0.058 -0.473,0.11 -0.711,0.157c-0.239,0.047 -0.478,0.087 -0.719,0.122c-0.24,0.035 -0.482,0.064 -0.724,0.086c-0.242,0.023 -0.484,0.04 -0.728,0.051c-0.243,0.011 -0.486,0.016 -0.729,0.015c-0.243,-0.001 -0.487,-0.008 -0.73,-0.021c-0.243,-0.013 -0.485,-0.032 -0.727,-0.057c-0.242,-0.025 -0.483,-0.056 -0.723,-0.092c-0.24,-0.037 -0.48,-0.08 -0.718,-0.128c-0.239,-0.049 -0.475,-0.103 -0.711,-0.164c-0.236,-0.061 -0.469,-0.127 -0.701,-0.198c-0.232,-0.072 -0.462,-0.15 -0.69,-0.233c-0.228,-0.083 -0.454,-0.172 -0.677,-0.266c-0.224,-0.094 -0.444,-0.194 -0.663,-0.299c-0.218,-0.106 -0.434,-0.216 -0.647,-0.332c-0.213,-0.116 -0.423,-0.237 -0.629,-0.363c-0.207,-0.127 -0.41,-0.258 -0.61,-0.394c-0.2,-0.136 -0.396,-0.277 -0.589,-0.423c-0.193,-0.146 -0.382,-0.296 -0.567,-0.451c-0.185,-0.155 -0.366,-0.315 -0.543,-0.479c-0.177,-0.164 -0.35,-0.333 -0.518,-0.505c-0.168,-0.172 -0.332,-0.35 -0.492,-0.53l-36.746,33.489l121.356,-27.179c-1.29,-2.36 -2.74,-4.621 -4.351,-6.783c-1.611,-2.162 -3.366,-4.203 -5.266,-6.123c-1.901,-1.92 -3.927,-3.701 -6.081,-5.344c-2.153,-1.642 -4.412,-3.129 -6.777,-4.461Z" style="fill:#189caa;fill-rule:nonzero;"/></g></svg>