<?xml version="1.0" encoding="UTF-8" standalone="no"?><!DOCTYPE svg PUBLIC "-//W3C//DTD SVG 1.1//EN" "http://www.w3.org/Graphics/SVG/1.1/DTD/svg11.dtd"><svg width="100%" height="100%" viewBox="0 0 224 212" version="1.1" xmlns="http://www.w3.org/2000/svg" xmlns:xlink="http://www.w3.org/1999/xlink" xml:space="preserve" xmlns:serif="http://www.serif.com/" style="fill-rule:evenodd;clip-rule:evenodd;stroke-linejoin:round;stroke-miterlimit:2;"><rect id="Coffee" x="0" y="0.384" width="223.502" height="211.507" style="fill:none;"/><path id="Hex" d="M201.526,116.523l0,26.24c0,3.797 -2.464,7.181 -6.237,8.965l-77.496,36.621c-3.721,1.761 -8.361,1.761 -12.082,0l-77.499,-36.621c-3.776,-1.784 -6.234,-5.168 -6.234,-8.965l0,-73.242c0,-3.797 2.458,-7.184 6.234,-8.968l6.044,-2.856c-1.829,2.352 -2.707,4.807 -2.783,7.098c-0.843,11.568 -0.744,23.773 0.829,35.376l0,42.591c0,0.357 0.255,0.826 0.882,1.122l28.407,13.424c0.953,1.822 2.533,3.629 4.963,5.236c3.396,2.245 9.347,4.397 18.113,5.669l26.012,12.292c0.665,0.313 1.477,0.313 2.145,0l77.496,-36.621c0.627,-0.296 0.882,-0.765 0.882,-1.122l0,-13.229c3.746,-3.448 6.863,-7.313 9.271,-11.219c0.368,-0.597 0.719,-1.195 1.053,-1.792Zm-142.469,-70.546l46.653,-22.045c1.878,-0.888 3.961,-1.327 6.038,-1.327c2.074,0 4.166,0.439 6.044,1.327l77.496,36.621c3.776,1.784 6.237,5.171 6.237,8.968l0,10.81c-2.404,-3.454 -5.771,-6.193 -10.324,-7.912l0,-2.898c0,-0.357 -0.255,-0.826 -0.882,-1.122l-17.775,-8.4c-1.604,-3.128 -4.75,-6.223 -9.768,-8.693c-5.251,-2.585 -12.98,-4.836 -22.388,-6.502l-27.565,-13.026c-0.328,-0.155 -0.697,-0.237 -1.075,-0.237c-0.375,0 -0.741,0.082 -1.069,0.237l-21.921,10.359c-11.161,0.626 -21.305,1.984 -29.701,3.841Z" style="fill:#189caa;stroke:#189caa;stroke-width:0.5px;"/><g id="Coffee1" serif:id="Coffee"><path d="M166.319,92.82c0.994,-9.493 0.491,-23.079 0.529,-27.7c0,-9.066 -28.725,-16.368 -64.197,-16.368c-35.472,0 -64.185,7.34 -64.185,16.368c-1.75,23.709 0.353,50.364 12.248,67.677c11.895,17.312 16.665,14.907 16.665,19.667c0,4.76 11.015,9.922 35.246,9.922c24.23,0 35.245,-5.162 35.245,-9.922c0,-4.495 4.254,-2.619 14.79,-16.986c0.604,-0.831 1.259,-1.712 1.875,-2.643c2.091,-3.06 3.849,-6.3 5.275,-9.721c3.99,-9.531 5.45,-20.775 6.507,-30.294Zm-63.681,-35.531c27.567,0 45.932,4.432 53.12,7.869c-7.188,3.437 -25.553,7.869 -53.12,7.869c-27.567,0 -45.945,-4.432 -53.132,-7.907c7.187,-3.4 25.553,-7.831 53.132,-7.831Z" style="fill:#189caa;fill-rule:nonzero;"/><path d="M185.729,78.089c-1.967,-0.413 -3.956,-0.61 -5.967,-0.592c-2.849,-0.009 -5.685,0.175 -8.509,0.554c0,4.608 -0.151,9.62 -0.516,14.795c0.45,-0.451 0.937,-0.857 1.461,-1.219c0.525,-0.362 1.077,-0.675 1.657,-0.937c0.58,-0.263 1.18,-0.47 1.798,-0.624c0.618,-0.154 1.246,-0.252 1.881,-0.292c1.625,-0.035 3.207,0.209 4.746,0.731c3.613,1.259 5.5,4.293 5.5,8.977c0,4.684 -4.141,11.86 -12.99,17.98c-3.298,2.259 -6.798,4.143 -10.498,5.653c-1.43,3.419 -3.188,6.659 -5.275,9.721c-0.642,0.931 -1.259,1.812 -1.876,2.643c1.662,0 3.437,-0.151 5.35,-0.302c2.644,-0.199 5.238,-0.677 7.779,-1.435c18.24,-5.389 29.304,-23.62 29.304,-33.995c0,-10.186 -3.047,-19.29 -13.847,-21.657Z" style="fill:#189caa;fill-rule:nonzero;"/></g></svg>