<?xml version="1.0" encoding="UTF-8" standalone="no"?><!DOCTYPE svg PUBLIC "-//W3C//DTD SVG 1.1//EN" "http://www.w3.org/Graphics/SVG/1.1/DTD/svg11.dtd"><svg width="100%" height="100%" viewBox="0 0 224 212" version="1.1" xmlns="http://www.w3.org/2000/svg" xmlns:xlink="http://www.w3.org/1999/xlink" xml:space="preserve" xmlns:serif="http://www.serif.com/" style="fill-rule:evenodd;clip-rule:evenodd;stroke-linejoin:round;stroke-miterlimit:2;"><rect id="Communication" x="0" y="0.384" width="223.502" height="211.507" style="fill:none;"/><path id="Hex" d="M68.277,36.692l37.433,-17.689c1.878,-0.888 3.961,-1.327 6.038,-1.327c2.074,0 4.166,0.439 6.044,1.327l77.496,36.621c3.776,1.784 6.237,5.171 6.237,8.968l0,35.875c-1.047,-6.432 -4.903,-11.996 -10.324,-15.4l0,-20.475c0,-0.357 -0.255,-0.826 -0.882,-1.122l-31.912,-15.08c-4.842,-7.034 -13.067,-11.698 -22.442,-11.698l-2.314,0l-20.829,-9.843c-0.328,-0.155 -0.697,-0.237 -1.075,-0.237c-0.375,0 -0.741,0.082 -1.069,0.237l-20.829,9.843l-21.573,0Zm92.795,126.276l-43.28,20.452c-3.721,1.761 -8.361,1.761 -12.082,0l-64.85,-30.644c0.774,-0.235 1.537,-0.549 2.278,-0.946l8.11,-4.337l59.431,28.084c0.665,0.313 1.477,0.313 2.145,0l29.757,-14.062l15.776,0l2.716,1.452Zm-135.442,-17.8c-2.276,-1.882 -3.653,-4.492 -3.653,-7.334l0,-25.385c0.892,5.92 3.834,11.346 8.234,15.396l-3.956,7.953c-1.523,3.061 -1.699,6.389 -0.625,9.37Z" style="fill:#189caa;stroke:#189caa;stroke-width:0.5px;"/><path id="Communication1" serif:id="Communication" d="M154.987,108.646l0,-45.595c0,-10.124 -8.532,-18.36 -19.02,-18.36l-87.254,0c-10.487,0 -19.02,8.236 -19.02,18.36l0,45.595c0,7.072 4.262,13.516 10.774,16.547l-7.048,14.168c-0.824,1.657 -0.462,3.543 0.923,4.805c0.83,0.755 1.867,1.144 2.925,1.144c0.71,0 1.429,-0.176 2.099,-0.534l33.226,-17.771l63.376,0c10.488,0 19.02,-8.236 19.02,-18.36Zm38.824,30.389l0,-35.035c0,-7.985 -6.729,-14.48 -15.002,-14.48l-20.486,0l0,19.126c0,11.898 -10.03,21.58 -22.356,21.58l-39.206,0l0,8.81c0,7.985 6.729,14.48 15.002,14.48l48.597,0l25.444,13.607c0.574,0.307 1.193,0.46 1.801,0.46c0.908,0 1.799,-0.335 2.511,-0.984c1.189,-1.081 1.501,-2.7 0.791,-4.123l-5.25,-10.555c4.941,-2.456 8.152,-7.434 8.152,-12.886Z" style="fill:#189caa;fill-rule:nonzero;"/></svg>