<?xml version="1.0" encoding="UTF-8" standalone="no"?><!DOCTYPE svg PUBLIC "-//W3C//DTD SVG 1.1//EN" "http://www.w3.org/Graphics/SVG/1.1/DTD/svg11.dtd"><svg width="100%" height="100%" viewBox="0 0 224 212" version="1.1" xmlns="http://www.w3.org/2000/svg" xmlns:xlink="http://www.w3.org/1999/xlink" xml:space="preserve" xmlns:serif="http://www.serif.com/" style="fill-rule:evenodd;clip-rule:evenodd;stroke-linejoin:round;stroke-miterlimit:2;"><rect id="Confidant" x="0" y="0.384" width="223.502" height="211.507" style="fill:none;"/><path id="path4-40-0" d="M80.623,176.246l-52.167,-24.651c-3.765,-1.779 -6.216,-5.153 -6.216,-8.939l0,-73.028c0,-3.786 2.451,-7.163 6.216,-8.942l73.175,-34.578c-0.148,0.214 -0.29,0.433 -0.424,0.658c-1.399,2.327 -2.79,4.693 -4.188,7.062l-0.002,0.003c-1.255,2.129 -2.518,4.274 -3.798,6.416l-59.805,28.261c-0.625,0.295 -0.879,0.762 -0.879,1.119l0,73.028c0,0.356 0.254,0.824 0.879,1.119l48.611,22.971c-0.446,0.913 -0.855,1.879 -1.192,2.902l-0.006,0.017c-0.704,2.156 -0.759,4.439 -0.204,6.58Zm39.221,-151.095l75.2,35.536c3.765,1.779 6.219,5.156 6.219,8.942l0,73.028c0,3.786 -2.457,7.16 -6.219,8.939l-51.471,24.323c0.691,-2.794 0.337,-5.791 -1.062,-8.381l-0.009,-0.016c-0.181,-0.334 -0.364,-0.667 -0.547,-1l48.134,-22.746c0.625,-0.295 0.879,-0.762 0.879,-1.119l0,-73.028c0,-0.356 -0.254,-0.824 -0.879,-1.119l-60.89,-28.774c-2.866,-4.424 -5.598,-8.664 -8.201,-12.989l-0.001,-0.002c-0.343,-0.569 -0.729,-1.101 -1.153,-1.593Zm4.46,159.872l-6.529,3.085c-3.71,1.756 -8.337,1.756 -12.047,0l-6.503,-3.073c4.619,0.054 9.182,0.102 13.7,0.102c4.137,0 7.881,-0.037 11.379,-0.114Z" style="fill:#189caa;stroke:#189caa;stroke-width:0.5px;"/><path d="M162.564,102.272c3.587,6.578 7.651,14.022 6.745,25.759c-1.062,14.36 -9.879,23.682 -24.19,25.552c-6.018,0.811 -10.963,0.349 -14.496,-1.434c-2.374,-1.186 -4.432,-2.794 -6.275,-4.584c1.961,7.455 5.405,13.567 8.771,19.541c0.799,1.423 1.587,2.82 2.353,4.231c0.595,1.102 0.595,2.438 -0.007,3.536c-0.603,1.102 -1.711,1.805 -2.945,1.863c-5.815,0.277 -12.036,0.4 -19.595,0.4c-5.687,0 -11.445,-0.076 -17.295,-0.146l-3.858,-0.047c-1.141,-0.018 -2.203,-0.582 -2.866,-1.532c-0.66,-0.953 -0.834,-2.161 -0.474,-3.264c0.624,-1.896 1.626,-3.507 2.506,-4.926c0.289,-0.466 0.578,-0.928 0.849,-1.397l0.499,-0.924c0.82,-1.492 1.64,-2.991 2.392,-4.624l0.77,-1.725c1.526,-3.376 3.102,-6.869 3.993,-10.54c0.036,-0.153 0.071,-0.302 0.107,-0.455c-3.334,3.413 -7.608,6.313 -13.47,6.618c-8.407,0.364 -14.832,-2.198 -17.16,-3.26c-8.949,-4.195 -13.912,-12.338 -14.778,-24.206c-0.349,-4.901 0.517,-10.566 2.374,-15.565c2.514,-6.862 7.034,-14.037 11.024,-20.382c2.029,-3.162 4.236,-6.174 6.364,-9.089c1.102,-1.484 10.186,-13.731 11.587,-15.496c6.77,-8.536 12.692,-18.57 18.418,-28.284c1.387,-2.35 2.767,-4.697 4.164,-7.022c0.642,-1.073 1.793,-1.735 3.03,-1.735l0.004,0c1.241,0 2.389,0.659 3.038,1.735c2.988,4.963 6.139,9.816 9.469,14.954l3.704,5.727c4.478,7.018 9.651,13.826 14.646,20.404c7.07,9.314 14.382,18.934 20.283,29.751l0.317,0.564Z" style="fill:#189caa;fill-rule:nonzero;"/></svg>