<?xml version="1.0" encoding="UTF-8" standalone="no"?><!DOCTYPE svg PUBLIC "-//W3C//DTD SVG 1.1//EN" "http://www.w3.org/Graphics/SVG/1.1/DTD/svg11.dtd"><svg width="100%" height="100%" viewBox="0 0 224 212" version="1.1" xmlns="http://www.w3.org/2000/svg" xmlns:xlink="http://www.w3.org/1999/xlink" xml:space="preserve" xmlns:serif="http://www.serif.com/" style="fill-rule:evenodd;clip-rule:evenodd;stroke-linejoin:round;stroke-miterlimit:2;"><rect id="Cookie" x="0" y="-0" width="223.502" height="211.507" style="fill:none;"/><path id="Hex" d="M62.919,167.496l-34.463,-16.285c-3.765,-1.779 -6.216,-5.153 -6.216,-8.939l0,-73.028c0,-3.786 2.451,-7.163 6.216,-8.942l77.272,-36.514c1.872,-0.885 3.949,-1.323 6.02,-1.323c2.068,0 4.154,0.438 6.026,1.323l40.209,19.001c-2.279,2.084 -3.861,4.916 -4.354,8.106l-1.315,-0.621c-2.5,-6.511 -8.809,-11.123 -16.197,-11.123c-1.913,0 -3.754,0.31 -5.475,0.882l-17.822,-8.422c-0.327,-0.155 -0.695,-0.237 -1.072,-0.237c-0.374,0 -0.739,0.082 -1.066,0.237l-2.199,1.039c-1.171,-0.192 -2.399,-0.241 -3.667,-0.128l-0.008,0.001c-20.099,1.813 -37.963,11.407 -50.543,25.748l-20.852,9.854c-0.625,0.295 -0.879,0.762 -0.879,1.119l0,73.028c0,0.356 0.254,0.824 0.879,1.119l14.002,6.617c4.249,6.584 9.492,12.489 15.504,17.488Zm118.289,-113.731l13.836,6.538c3.765,1.779 6.219,5.156 6.219,8.942l0,73.028c0,3.786 -2.457,7.16 -6.219,8.939l-34.689,16.393c6.058,-5.001 11.332,-10.918 15.612,-17.538l14.123,-6.674c0.625,-0.295 0.879,-0.762 0.879,-1.119l0,-73.028c0,-0.356 -0.254,-0.824 -0.879,-1.119l-12.388,-5.854c2.04,-2.285 3.335,-5.248 3.507,-8.507Zm-54.809,129.884l-8.624,4.075c-3.71,1.756 -8.337,1.756 -12.047,0l-8.536,-4.034c0.237,0.044 0.475,0.087 0.713,0.129c9.864,1.739 19.463,1.58 28.494,-0.171Z" style="fill:#189caa;stroke:#189caa;stroke-width:0.5px;"/><path id="Cookie1" serif:id="Cookie" d="M105.437,39.495c-39.247,3.54 -69.083,39.754 -62.08,81.236c4.783,28.321 27.475,51.211 55.762,56.195c41.35,7.288 77.602,-22.074 81.669,-61.008c0.458,-4.346 -3.003,-7.964 -7.348,-7.457c-0.875,0.104 -1.775,0.163 -2.685,0.163c-10.954,0 -20.123,-7.277 -23.129,-17.245c-0.055,-0.173 -0.497,-1.967 -1.871,-2.792c-1.257,-0.75 -3.489,-0.8 -3.851,-0.813c-16.743,-0.569 -30.151,-14.321 -30.151,-31.21c0,-2.812 0.37,-5.525 1.07,-8.107c1.313,-4.832 -2.398,-9.406 -7.388,-8.961Zm30.68,6.656c-5.713,0 -10.358,4.632 -10.358,10.345c0,5.712 4.645,10.357 10.358,10.357c5.712,0 10.344,-4.638 10.344,-10.357c0,-5.72 -4.632,-10.345 -10.344,-10.345Zm31.236,0c-3.797,0 -6.887,3.077 -6.887,6.874c0,3.797 3.09,6.887 6.887,6.887c3.797,0 6.874,-3.09 6.874,-6.887c0,-3.797 -3.077,-6.874 -6.874,-6.874Zm-86.767,27.766c5.719,0 10.344,4.632 10.344,10.344c0,5.713 -4.632,10.358 -10.344,10.358c-5.713,0 -10.358,-4.645 -10.358,-10.358c0,-5.712 4.638,-10.344 10.358,-10.344Zm93.708,0c-3.796,0 -6.887,3.077 -6.887,6.874c0,3.796 3.091,6.887 6.887,6.887c3.797,0 6.874,-3.091 6.874,-6.887c0,-3.797 -3.077,-6.874 -6.874,-6.874Zm-69.414,27.766c3.797,0 6.874,3.077 6.874,6.874c0,3.796 -3.077,6.887 -6.874,6.887c-3.797,0 -6.887,-3.091 -6.887,-6.887c0,-3.797 3.09,-6.874 6.887,-6.874Zm-34.707,13.882c3.797,0 6.874,3.077 6.874,6.874c0,3.797 -3.077,6.887 -6.874,6.887c-3.797,0 -6.887,-3.09 -6.887,-6.887c0,-3.796 3.09,-6.874 6.887,-6.874Zm76.355,13.883c3.797,0 6.874,3.077 6.874,6.874c0,3.796 -3.077,6.887 -6.874,6.887c-3.796,0 -6.887,-3.091 -6.887,-6.887c0,-3.797 3.091,-6.874 6.887,-6.874Zm-38.177,6.941c5.719,0 10.344,4.632 10.344,10.344c0,5.713 -4.632,10.358 -10.344,10.358c-5.713,0 -10.358,-4.645 -10.358,-10.358c0,-5.712 4.638,-10.344 10.358,-10.344Z" style="fill:#189caa;fill-rule:nonzero;"/></svg>