<?xml version="1.0" encoding="UTF-8" standalone="no"?><!DOCTYPE svg PUBLIC "-//W3C//DTD SVG 1.1//EN" "http://www.w3.org/Graphics/SVG/1.1/DTD/svg11.dtd"><svg width="100%" height="100%" viewBox="0 0 224 212" version="1.1" xmlns="http://www.w3.org/2000/svg" xmlns:xlink="http://www.w3.org/1999/xlink" xml:space="preserve" xmlns:serif="http://www.serif.com/" style="fill-rule:evenodd;clip-rule:evenodd;stroke-linejoin:round;stroke-miterlimit:2;"><rect id="Cooldown" x="0" y="0" width="223.502" height="211.507" style="fill:none;"/><path id="Hex" d="M35.105,154.602l-6.894,-3.258c-3.776,-1.784 -6.234,-5.168 -6.234,-8.965l0,-73.242c0,-3.797 2.458,-7.184 6.234,-8.968l6.878,-3.25c-1.01,0.834 -1.89,1.86 -2.583,3.061c-2.009,3.483 -1.951,7.595 -0.206,10.91l0,6.697c-1.887,3.157 -2.196,7.174 -0.468,10.73c0.145,0.298 0.301,0.587 0.468,0.866l-0,33.139c-0.166,0.279 -0.322,0.567 -0.467,0.864c-1.728,3.556 -1.42,7.574 0.467,10.732l0,6.696c-1.745,3.314 -1.803,7.427 0.206,10.911l0.001,0.002c0.697,1.207 1.582,2.237 2.597,3.073Zm5.01,-100.057l7.536,-3.561c-0.695,1.244 -1.159,2.628 -1.341,4.092c-2.019,-0.774 -4.165,-0.929 -6.195,-0.531Zm19.408,-9.171l25.443,-12.023c-0.21,3.163 0.918,6.346 3.213,8.676l-20.453,9.665c-1.542,-3.278 -4.606,-5.662 -8.203,-6.318Zm79.014,-12.022l25.44,12.022c-3.603,0.655 -6.662,3.039 -8.201,6.318l-20.451,-9.664c2.296,-2.329 3.423,-5.512 3.212,-8.676Zm37.317,17.634l7.528,3.557c-2.028,-0.397 -4.171,-0.241 -6.189,0.532c-0.182,-1.463 -0.646,-2.846 -1.34,-4.089Zm12.559,5.935l6.875,3.249c3.776,1.784 6.237,5.171 6.237,8.968l0,73.242c0,3.797 -2.464,7.181 -6.237,8.965l-6.891,3.256c1.014,-0.836 1.898,-1.864 2.595,-3.07c2.011,-3.483 1.953,-7.594 0.209,-10.909l0,-6.701c1.886,-3.157 2.194,-7.174 0.47,-10.728l-0.47,0.228l0,-0.006l0.468,-0.227c-0.145,-0.298 -0.301,-0.586 -0.468,-0.866l0,-33.137c0.166,-0.278 0.322,-0.566 0.466,-0.863l0.004,-0.008c1.725,-3.555 1.417,-7.571 -0.47,-10.728l0,-6.701c1.744,-3.316 1.802,-7.428 -0.21,-10.911c-0.692,-1.199 -1.571,-2.222 -2.579,-3.055Zm-5.007,100.038l-7.558,3.572c0.697,-1.246 1.163,-2.632 1.345,-4.099c1.311,0.502 2.674,0.742 4.024,0.742c0.737,0 1.47,-0.072 2.189,-0.214Zm-19.422,9.178l-25.448,12.026c0.212,-3.162 -0.912,-6.343 -3.207,-8.675l20.447,-9.662c1.539,3.279 4.598,5.66 8.208,6.312Zm-79.019,12.026l-25.45,-12.026c3.608,-0.652 6.669,-3.034 8.209,-6.312l20.447,9.662c-2.294,2.332 -3.419,5.514 -3.207,8.676Zm-37.309,-17.63l-7.564,-3.574c0.72,0.142 1.455,0.215 2.194,0.215c1.351,0 2.714,-0.241 4.024,-0.742c0.182,1.467 0.649,2.855 1.346,4.101Z" style="fill:#189caa;"/><path d="M185.373,126.248c-1.035,-2.129 -3.599,-3.015 -5.726,-1.982l-14.813,7.206l-13.064,-7.549l9.6,-4.668c2.127,-1.035 3.015,-3.601 1.98,-5.73c-1.035,-2.129 -3.597,-3.015 -5.726,-1.98l-14.813,7.204l-6.23,-3.599l0,-18.792l6.23,-3.599l14.813,7.206c0.602,0.292 1.241,0.431 1.87,0.431c1.588,0 3.115,-0.888 3.856,-2.413c1.035,-2.129 0.147,-4.695 -1.98,-5.73l-9.6,-4.668l13.064,-7.547l14.813,7.204c0.602,0.294 1.241,0.433 1.868,0.433c1.59,0 3.115,-0.888 3.858,-2.415c1.033,-2.129 0.147,-4.693 -1.982,-5.728l-9.6,-4.67l9.571,-5.528c2.047,-1.184 2.752,-3.807 1.568,-5.856c-1.184,-2.049 -3.803,-2.752 -5.852,-1.57l-9.569,5.53l0.759,-10.653c0.167,-2.362 -1.609,-4.413 -3.97,-4.581c-2.354,-0.167 -4.407,1.611 -4.576,3.972l-1.172,16.438l-13.064,7.547l0.759,-10.655c0.167,-2.36 -1.609,-4.411 -3.968,-4.579c-2.362,-0.171 -4.409,1.609 -4.579,3.97l-1.17,16.438l-6.232,3.601l-16.263,-9.396l0,-7.199l13.642,-9.235c1.962,-1.327 2.474,-3.991 1.149,-5.952c-1.327,-1.96 -3.989,-2.474 -5.948,-1.149l-8.843,5.987l0,-15.095l13.642,-9.235c1.962,-1.325 2.474,-3.991 1.149,-5.952c-1.327,-1.962 -3.989,-2.472 -5.948,-1.149l-8.843,5.985l0,-11.057c0,-2.366 -1.917,-4.287 -4.283,-4.287c-2.366,0 -4.285,1.921 -4.285,4.287l0,11.057l-8.841,-5.985c-1.96,-1.323 -4.623,-0.81 -5.95,1.149c-1.325,1.962 -0.81,4.628 1.149,5.952l13.642,9.235l0,15.095l-8.841,-5.987c-1.96,-1.325 -4.623,-0.81 -5.95,1.149c-1.325,1.962 -0.81,4.625 1.149,5.952l13.642,9.235l0,7.199l-16.263,9.396l-6.23,-3.601l-1.172,-16.438c-0.167,-2.362 -2.219,-4.142 -4.579,-3.97c-2.36,0.167 -4.136,2.219 -3.968,4.579l0.759,10.655l-13.064,-7.547l-1.17,-16.438c-0.169,-2.362 -2.231,-4.142 -4.579,-3.972c-2.36,0.167 -4.136,2.219 -3.968,4.581l0.759,10.653l-9.571,-5.53c-2.049,-1.182 -4.67,-0.48 -5.852,1.57c-1.182,2.049 -0.482,4.672 1.568,5.856l9.571,5.528l-9.6,4.67c-2.127,1.035 -3.015,3.599 -1.98,5.728c0.741,1.527 2.268,2.415 3.856,2.415c0.629,0 1.268,-0.139 1.87,-0.433l14.813,-7.204l13.064,7.547l-9.602,4.668c-2.127,1.035 -3.013,3.601 -1.98,5.73c0.741,1.525 2.268,2.413 3.856,2.413c0.629,0 1.268,-0.139 1.87,-0.431l14.813,-7.206l6.23,3.599l0,18.792l-6.23,3.599l-14.813,-7.204c-2.127,-1.033 -4.691,-0.149 -5.726,1.98c-1.033,2.129 -0.147,4.695 1.98,5.73l9.602,4.668l-13.064,7.549l-14.813,-7.206c-2.127,-1.033 -4.691,-0.147 -5.726,1.982c-1.035,2.129 -0.147,4.695 1.98,5.73l9.6,4.668l-9.571,5.53c-2.049,1.182 -2.75,3.805 -1.568,5.854c0.794,1.376 2.233,2.143 3.715,2.143c0.727,0 1.464,-0.184 2.137,-0.574l9.571,-5.53l-0.759,10.655c-0.167,2.36 1.609,4.411 3.968,4.579c0.104,0.008 0.206,0.012 0.31,0.012c2.225,0 4.107,-1.725 4.268,-3.982l1.17,-16.438l13.064,-7.547l-0.759,10.653c-0.167,2.362 1.609,4.411 3.968,4.581c0.106,0.006 0.208,0.01 0.31,0.01c2.227,0 4.107,-1.723 4.268,-3.98l1.172,-16.44l6.23,-3.599l16.263,9.396l0,7.197l-13.642,9.235c-1.96,1.327 -2.474,3.991 -1.149,5.952c1.327,1.96 3.991,2.474 5.948,1.149l8.843,-5.985l0,15.093l-13.642,9.235c-1.96,1.327 -2.474,3.991 -1.149,5.952c1.327,1.962 3.991,2.476 5.948,1.149l8.843,-5.985l0,11.059c0,2.366 1.919,4.285 4.285,4.285c2.366,0 4.283,-1.919 4.283,-4.285l0,-11.059l8.843,5.985c0.735,0.496 1.57,0.737 2.394,0.737c1.376,0 2.725,-0.661 3.554,-1.886c1.325,-1.962 0.812,-4.625 -1.149,-5.952l-13.642,-9.235l0,-15.093l8.843,5.985c0.735,0.498 1.57,0.735 2.394,0.735c1.376,0 2.725,-0.659 3.554,-1.884c1.325,-1.962 0.812,-4.625 -1.149,-5.952l-13.642,-9.233l0,-7.199l16.263,-9.396l6.232,3.599l1.17,16.44c0.161,2.258 2.041,3.98 4.27,3.98c0.102,0 0.204,-0.004 0.308,-0.01c2.36,-0.169 4.136,-2.219 3.968,-4.581l-0.759,-10.653l13.064,7.547l1.172,16.438c0.161,2.26 2.041,3.982 4.268,3.982c0.102,0 0.206,-0.004 0.308,-0.012c2.362,-0.167 4.138,-2.219 3.97,-4.579l-0.759,-10.655l9.569,5.53c0.676,0.39 1.413,0.574 2.139,0.574c1.48,0 2.919,-0.768 3.713,-2.143c1.184,-2.049 0.48,-4.672 -1.568,-5.854l-9.571,-5.53l9.6,-4.668c2.129,-1.035 3.015,-3.601 1.982,-5.73" style="fill:#189caa;fill-rule:nonzero;"/></svg>