<?xml version="1.0" encoding="UTF-8" standalone="no"?><!DOCTYPE svg PUBLIC "-//W3C//DTD SVG 1.1//EN" "http://www.w3.org/Graphics/SVG/1.1/DTD/svg11.dtd"><svg width="100%" height="100%" viewBox="0 0 224 212" version="1.1" xmlns="http://www.w3.org/2000/svg" xmlns:xlink="http://www.w3.org/1999/xlink" xml:space="preserve" xmlns:serif="http://www.serif.com/" style="fill-rule:evenodd;clip-rule:evenodd;stroke-linejoin:round;stroke-miterlimit:2;"><rect id="Dinner-Plate" serif:id="Dinner Plate" x="0" y="0.384" width="223.502" height="211.507" style="fill:none;"/><g id="Dinner-Plate1" serif:id="Dinner Plate"><path id="Hex" d="M35.606,155.223l-7.395,-3.494c-3.776,-1.784 -6.234,-5.168 -6.234,-8.965l0,-73.242c0,-3.797 2.458,-7.184 6.234,-8.968l2.677,-1.265l0,19.64c0,0.752 0.121,1.499 0.359,2.213l1.054,3.162l0,58.46c0,0.357 0.255,0.826 0.882,1.122l1.593,0.753l-0,6.003c0,1.604 0.294,3.15 0.83,4.581Zm16.216,-105.826l53.888,-25.464c1.878,-0.888 3.961,-1.327 6.038,-1.327c2.074,0 4.166,0.439 6.044,1.327l57.5,27.172c-3.047,1.572 -5.69,3.817 -7.732,6.54l-54.737,-25.866c-0.328,-0.155 -0.697,-0.237 -1.075,-0.237c-0.375,0 -0.741,0.082 -1.069,0.237l-47.091,22.253l-0.05,-0.151l-0.918,-1.582l-1.205,-1.349l-1.458,-1.082l-1.675,-0.776l-1.842,-0.42l-1.92,-0.021l-1.754,0.35l-0.944,0.396Zm140.792,9.893l2.674,1.264c3.776,1.784 6.237,5.171 6.237,8.968l0,73.242c0,3.797 -2.464,7.181 -6.237,8.965l-2.871,1.357c0.129,-0.731 0.197,-1.483 0.197,-2.251l0,-33.038c0,-0.674 -0.095,-1.326 -0.273,-1.943c0.178,-0.617 0.273,-1.269 0.273,-1.943l0,-54.62Zm-19.114,102.735l-55.708,26.325c-3.721,1.761 -8.361,1.761 -12.082,0l-53.801,-25.423c3.259,-1.16 5.912,-3.601 7.352,-6.718l51.417,24.297c0.665,0.313 1.477,0.313 2.145,0l54.707,-25.852c0.981,3.151 3.144,5.78 5.97,7.37Z" style="fill:#189caa;stroke:#189caa;stroke-width:0.5px;"/><g><path id="path4-11-8-6-6" d="M57.326,57.552c0,-1.137 -0.976,-2.046 -2.136,-1.934c-1.009,0.097 -1.752,1.002 -1.752,2.017l0,19.35c0,1.074 -0.869,1.943 -1.944,1.943c-1.074,0 -1.944,-0.869 -1.944,-1.943l0,-19.35c0,-1.016 -0.741,-1.921 -1.752,-2.017c-1.16,-0.112 -2.136,0.797 -2.136,1.934l0,19.433c0,1.074 -0.869,1.943 -1.943,1.943c-1.072,0 -1.944,-0.869 -1.944,-1.943l0,-19.35c0,-1.016 -0.742,-1.921 -1.752,-2.017c-1.16,-0.112 -2.135,0.797 -2.135,1.934l0,21.377l2.668,8.007c0.256,0.768 0.682,1.448 1.219,2.008l0,61.697c0,3.21 2.511,5.963 5.723,6.024c3.269,0.058 5.94,-2.574 5.94,-5.831l0,-61.89c0.537,-0.56 0.96,-1.24 1.218,-2.008l2.669,-8.007l0,-21.377" style="fill:#189caa;fill-rule:nonzero;"/><path id="path5-95-5-4-4" d="M173.952,150.834c0,3.221 2.61,5.831 5.831,5.831c3.221,0 5.831,-2.61 5.831,-5.831l0,-33.038l-11.662,0l0,33.038" style="fill:#189caa;fill-rule:nonzero;"/><path id="path6-93-9-9-6" d="M170.064,71.156l0,42.754l15.55,0l0,-58.302c-8.587,0 -15.55,6.961 -15.55,15.548" style="fill:#189caa;fill-rule:nonzero;"/><path id="path7-40-8-7-1" d="M111.751,78.929c-15.006,0 -27.213,12.206 -27.213,27.207c0,15.002 12.207,27.208 27.213,27.208c15.006,0 27.213,-12.206 27.213,-27.208c0,-15.002 -12.207,-27.207 -27.213,-27.207" style="fill:#189caa;fill-rule:nonzero;"/><path id="path8-57-5-9-0" d="M111.751,137.231c-17.177,0 -31.1,-13.921 -31.1,-31.095c0,-17.173 13.923,-31.094 31.1,-31.094c17.177,0 31.1,13.921 31.1,31.094c0,17.174 -13.923,31.095 -31.1,31.095Zm-0,-85.509c-30.058,-0 -54.425,24.363 -54.425,54.415c0,30.052 24.368,54.415 54.425,54.415c30.058,0 54.425,-24.363 54.425,-54.415c0,-30.052 -24.368,-54.415 -54.425,-54.415" style="fill:#189caa;fill-rule:nonzero;"/></g></g></svg>