<?xml version="1.0" encoding="UTF-8" standalone="no"?><!DOCTYPE svg PUBLIC "-//W3C//DTD SVG 1.1//EN" "http://www.w3.org/Graphics/SVG/1.1/DTD/svg11.dtd"><svg width="100%" height="100%" viewBox="0 0 224 212" version="1.1" xmlns="http://www.w3.org/2000/svg" xmlns:xlink="http://www.w3.org/1999/xlink" xml:space="preserve" xmlns:serif="http://www.serif.com/" style="fill-rule:evenodd;clip-rule:evenodd;stroke-linejoin:round;stroke-miterlimit:2;"><rect id="Dumbbell" x="0" y="0.384" width="223.502" height="211.507" style="fill:none;"/><g id="Dumbbell1" serif:id="Dumbbell"><path id="Hex" d="M139.003,177.129l-21.296,10.064c-3.668,1.736 -8.244,1.736 -11.912,0l-76.409,-36.106c-3.723,-1.759 -6.147,-5.095 -6.147,-8.839l0,-72.212c0,-3.743 2.423,-7.083 6.147,-8.842l13.076,-6.179c-0.222,2.036 0.447,4.151 2.008,5.712l2.302,2.303l-12.484,5.899c-0.618,0.292 -0.869,0.754 -0.869,1.106l0,72.212c0,0.352 0.251,0.815 0.869,1.106l76.406,36.106c0.656,0.309 1.456,0.309 2.114,0l14.792,-6.99c3.154,3.133 7.283,4.686 11.403,4.659Zm-54.494,-141.982l21.286,-10.058c1.852,-0.875 3.905,-1.308 5.953,-1.308c2.045,0 4.107,0.433 5.959,1.308l76.406,36.106c3.723,1.759 6.15,5.098 6.15,8.842l0,72.212c0,3.743 -2.429,7.08 -6.15,8.839l-13.073,6.178c0.224,-2.037 -0.446,-4.154 -2.007,-5.717l-2.296,-2.297l12.478,-5.897c0.618,-0.292 0.869,-0.754 0.869,-1.106l0,-72.212c0,-0.352 -0.251,-0.815 -0.869,-1.106l-76.406,-36.106c-0.324,-0.153 -0.687,-0.234 -1.06,-0.234c-0.37,0 -0.731,0.081 -1.054,0.234l-14.788,6.988c-3.15,-3.134 -7.277,-4.689 -11.397,-4.665Z" style="fill:#189caa;stroke:#189caa;stroke-width:0.5px;"/><g><g><path id="path8-81-2" d="M71.844,114.808c-4.232,4.235 -11.095,4.232 -15.326,0c-4.229,-4.232 -4.229,-11.095 0,-15.326l48.573,-48.587c4.234,-4.232 11.098,-4.232 15.329,0c4.229,4.234 4.232,11.098 0,15.329l-48.575,48.584Z" style="fill:#189caa;fill-rule:nonzero;"/><path id="path9-8-5" d="M90.986,44.791c-3.524,-3.524 -9.237,-3.527 -12.758,-0.003l-7.917,7.917l-8.908,-8.911l-11.981,11.984l8.908,8.911l-7.912,7.917c-3.527,3.524 -3.521,9.237 0,12.761c3.521,3.524 9.232,3.524 12.758,-0.003l27.807,-27.816c3.527,-3.527 3.524,-9.237 0.003,-12.758l-0,0Z" style="fill:#189caa;fill-rule:nonzero;"/><path id="path10-5-6" d="M103.08,146.052c-4.232,4.232 -4.232,11.098 0,15.332c4.232,4.229 11.098,4.229 15.329,0l48.573,-48.587c4.232,-4.234 4.229,-11.098 -0.003,-15.329c-4.229,-4.232 -11.092,-4.235 -15.323,0l-48.575,48.584Z" style="fill:#189caa;fill-rule:nonzero;"/><path id="path11-3-3" d="M173.082,126.905c3.527,3.527 3.527,9.24 0.003,12.764l-7.912,7.917l8.908,8.911l-11.984,11.984l-8.908,-8.911l-7.914,7.914c-3.524,3.527 -9.234,3.524 -12.761,0c-3.521,-3.524 -3.521,-9.234 0.003,-12.761l27.81,-27.816c3.524,-3.524 9.234,-3.524 12.755,-0.003l-0,0Z" style="fill:#189caa;fill-rule:nonzero;"/><path id="path12-19-4" d="M119.463,102.555l-4.133,-4.131l-9.486,-9.489l-11.638,11.638l9.486,9.492l4.133,4.131l9.486,9.492l11.638,-11.641l-9.486,-9.492Z" style="fill:#189caa;fill-rule:nonzero;"/></g></g></g></svg>