<?xml version="1.0" encoding="UTF-8" standalone="no"?><!DOCTYPE svg PUBLIC "-//W3C//DTD SVG 1.1//EN" "http://www.w3.org/Graphics/SVG/1.1/DTD/svg11.dtd"><svg width="100%" height="100%" viewBox="0 0 224 213" version="1.1" xmlns="http://www.w3.org/2000/svg" xmlns:xlink="http://www.w3.org/1999/xlink" xml:space="preserve" xmlns:serif="http://www.serif.com/" style="fill-rule:evenodd;clip-rule:evenodd;stroke-linejoin:round;stroke-miterlimit:2;"><rect id="Flexed-Bicep" serif:id="Flexed Bicep" x="0" y="0.52" width="223.502" height="211.507" style="fill:none;"/><g id="Flexed-Bicep1" serif:id="Flexed Bicep"><path id="path4-40-0" d="M152.228,171.963l-34.454,16.281c-3.71,1.756 -8.337,1.756 -12.047,0l-77.272,-36.514c-3.765,-1.779 -6.216,-5.153 -6.216,-8.939l0,-73.028c0,-3.786 2.451,-7.163 6.216,-8.942l77.272,-36.514c1.872,-0.885 3.949,-1.323 6.02,-1.323c2.068,0 4.154,0.438 6.026,1.323l77.269,36.514c3.765,1.779 6.219,5.156 6.219,8.942l0,73.028c0,3.786 -2.457,7.16 -6.219,8.939l-20.285,9.586c-0.002,-3.386 -0.002,-6.773 -0.002,-10.16l15.332,-7.245c0.625,-0.295 0.879,-0.762 0.879,-1.119l0,-73.028c0,-0.356 -0.254,-0.824 -0.879,-1.119l-61.823,-29.215c-0.78,-1.125 -1.704,-2.134 -2.774,-3.02c-0.178,-0.148 -0.364,-0.287 -0.556,-0.416c-1.195,-0.805 -2.483,-1.402 -3.873,-1.792l-0.027,-0.008c-1.374,-0.38 -2.772,-0.54 -4.194,-0.48c-0.191,0.008 -0.381,0.024 -0.571,0.048l-3.45,-1.63c-0.327,-0.155 -0.695,-0.237 -1.072,-0.237c-0.374,0 -0.739,0.082 -1.066,0.237l-20.96,9.905c-0.813,0.272 -1.625,0.547 -2.435,0.827l-0.058,0.02c-1.89,0.671 -3.839,1.176 -5.711,1.886l-0.163,0.064c-2.465,1.006 -4.632,2.416 -6.501,4.228l-41.442,19.583c-0.625,0.295 -0.879,0.762 -0.879,1.119l0,73.028c0,0.356 0.254,0.824 0.879,1.119l16.792,7.935c0.049,0.163 0.101,0.326 0.157,0.489l0.038,0.107c0.461,1.27 1.057,2.475 1.781,3.613l0.011,0.017c0.73,1.139 1.578,2.189 2.538,3.141c0.959,0.953 2.011,1.79 3.153,2.51c1.14,0.721 2.344,1.309 3.618,1.765c10.352,3.759 20.927,6.655 31.725,8.687l17.456,8.249c0.663,0.313 1.472,0.313 2.138,0l18.665,-8.82c3.447,-0.883 6.834,-2.009 10.16,-3.379c1.834,-0.702 3.601,-1.543 5.298,-2.525c1.169,1.696 2.467,3.301 3.893,4.816c0.451,0.496 0.915,0.978 1.392,1.446Z" style="fill:#189caa;stroke:#189caa;stroke-width:0.5px;"/><g><path id="path7-45-8" d="M109.771,42.849c2.387,-0.958 4.84,-1.671 7.367,-2.141c0.689,-0.029 1.367,0.05 2.033,0.234c0.666,0.187 1.282,0.473 1.855,0.859c0.716,0.593 1.309,1.288 1.788,2.083c2.705,4.128 5.334,8.305 8.016,12.45c0.757,1.046 1.461,2.132 2.112,3.251c0.216,0.444 0.368,0.906 0.453,1.39c0.085,0.485 0.102,0.97 0.044,1.458c-0.053,0.491 -0.175,0.961 -0.365,1.414c-0.19,0.453 -0.438,0.873 -0.748,1.256c-1.279,1.312 -2.813,2.179 -4.598,2.611c0.435,-0.736 0.71,-1.528 0.827,-2.372c0.114,-0.847 0.061,-1.683 -0.161,-2.506c-0.26,-0.716 -0.581,-1.399 -0.964,-2.059c-1.805,-3.251 -3.73,-6.435 -5.576,-9.663c-0.462,-0.955 -1.157,-1.694 -2.089,-2.208c-0.158,-0.058 -0.318,-0.102 -0.485,-0.131c-0.167,-0.029 -0.333,-0.038 -0.502,-0.035c-0.167,0.003 -0.333,0.023 -0.497,0.061c-0.167,0.035 -0.324,0.085 -0.479,0.152c-0.155,0.067 -0.301,0.149 -0.441,0.242c-0.137,0.093 -0.266,0.202 -0.386,0.321c-0.117,0.117 -0.225,0.245 -0.315,0.389c-0.096,0.137 -0.175,0.286 -0.24,0.438c-0.199,0.505 -0.266,1.025 -0.207,1.566c0.058,0.537 0.24,1.031 0.543,1.481c1.548,2.734 3.123,5.457 4.738,8.159c0.546,0.838 1.002,1.726 1.361,2.664c0.073,0.254 0.111,0.511 0.108,0.777c-0.003,0.266 -0.044,0.523 -0.12,0.774c-0.079,0.254 -0.193,0.491 -0.342,0.71c-0.149,0.222 -0.327,0.412 -0.532,0.578c-0.946,0.64 -1.966,1.139 -3.047,1.504c-0.894,0.327 -1.735,0.792 -2.658,1.028c0.275,-0.359 0.505,-0.751 0.689,-1.166c0.187,-0.415 0.321,-0.847 0.406,-1.294c0.088,-0.447 0.12,-0.897 0.102,-1.35c-0.02,-0.456 -0.093,-0.9 -0.213,-1.338c-0.999,-2.457 -2.427,-4.703 -3.61,-7.066c-0.508,-1.16 -1.198,-2.203 -2.068,-3.12c-0.24,-0.196 -0.505,-0.342 -0.795,-0.447c-0.289,-0.105 -0.59,-0.158 -0.897,-0.161c-0.31,-0.003 -0.608,0.041 -0.9,0.14c-0.295,0.096 -0.561,0.24 -0.806,0.424c-0.251,0.207 -0.462,0.447 -0.631,0.724c-0.169,0.275 -0.289,0.57 -0.359,0.885c-0.07,0.315 -0.088,0.634 -0.047,0.955c0.038,0.321 0.126,0.628 0.266,0.92c1.139,2.398 2.717,4.563 3.9,6.938c0.064,0.14 0.111,0.283 0.143,0.429c0.035,0.149 0.053,0.298 0.055,0.45c0.003,0.152 -0.015,0.304 -0.044,0.453c-0.029,0.149 -0.076,0.295 -0.134,0.432c-0.061,0.14 -0.137,0.272 -0.225,0.394c-0.088,0.126 -0.187,0.24 -0.301,0.342c-0.111,0.102 -0.234,0.193 -0.365,0.269c-0.131,0.076 -0.269,0.14 -0.415,0.187c-3.613,1.241 -7.168,2.644 -10.77,3.926c-1.139,0.353 -2.299,0.435 -3.479,0.248c-1.189,-0.488 -2.416,-0.593 -3.672,-0.318c-0.4,0.184 -0.777,0.409 -1.128,0.678c-0.351,0.269 -0.663,0.573 -0.941,0.914c-0.28,0.342 -0.517,0.71 -0.71,1.104c-0.193,0.397 -0.342,0.812 -0.438,1.239c-1.139,3.351 -0.359,6.911 -0.216,10.344c0.199,3.666 0.441,7.338 0.917,10.98c0.432,3.71 0.821,7.423 1.291,11.124c0.616,3.859 0.792,7.738 0.526,11.635c-0.093,1.875 -0.429,3.704 -1.011,5.495c-0.578,1.785 -1.382,3.467 -2.404,5.042c-1.005,1.569 -2.243,2.924 -3.721,4.06c-1.475,1.136 -3.102,1.992 -4.881,2.562c-0.497,0.064 -0.961,0.228 -1.393,0.485c-0.429,0.26 -0.792,0.593 -1.084,1.005c-0.108,0.199 -0.196,0.406 -0.26,0.628c-0.064,0.216 -0.105,0.438 -0.12,0.669c-0.015,0.225 -0.006,0.453 0.029,0.678c0.032,0.225 0.091,0.444 0.172,0.657c0.082,0.213 0.187,0.415 0.31,0.605c0.126,0.19 0.272,0.365 0.435,0.523c0.164,0.161 0.345,0.298 0.537,0.418c0.196,0.12 0.397,0.219 0.613,0.295c0.748,0.175 1.466,0.105 2.167,-0.207c2.1,-0.897 4.116,-1.951 6.047,-3.166c1.642,-1.154 3.099,-2.503 4.373,-4.052c1.277,-1.548 2.322,-3.237 3.137,-5.068c0.894,-1.887 1.542,-3.853 1.943,-5.901c0.447,-2.059 0.71,-4.142 0.789,-6.248c1.77,-1.834 3.672,-3.52 5.708,-5.059c3.155,-2.004 6.57,-3.353 10.247,-4.046c2.471,-0.394 4.945,-0.432 7.428,-0.111c2.48,0.321 4.864,0.987 7.151,2.001c3.424,1.607 6.464,3.757 9.123,6.444c2.804,2.816 5.042,6.029 6.716,9.634c0.161,0.552 0.429,1.049 0.809,1.481c0.377,0.435 0.83,0.774 1.355,1.008c0.184,0.055 0.377,0.093 0.567,0.111c0.193,0.015 0.386,0.009 0.575,-0.015c0.193,-0.026 0.38,-0.067 0.564,-0.131c0.181,-0.064 0.353,-0.149 0.52,-0.248c0.164,-0.099 0.318,-0.216 0.459,-0.348c0.14,-0.131 0.263,-0.28 0.374,-0.438c0.108,-0.158 0.199,-0.327 0.275,-0.505c0.073,-0.178 0.129,-0.362 0.164,-0.552c0.05,-1.393 -0.31,-2.673 -1.081,-3.838c-1.966,-3.906 -4.49,-7.414 -7.572,-10.522c-1.683,-1.604 -3.494,-3.05 -5.43,-4.341c1.382,-1.58 2.866,-3.053 4.455,-4.42c1.595,-1.367 3.277,-2.611 5.051,-3.736c1.773,-1.122 3.616,-2.115 5.533,-2.971c1.916,-0.856 3.885,-1.572 5.906,-2.144c2.407,-0.651 4.849,-1.107 7.326,-1.376c0.587,-0.111 1.171,-0.12 1.764,-0.029c0.587,0.088 1.145,0.275 1.668,0.555c0.362,0.272 0.631,0.616 0.815,1.028c0.178,0.415 0.245,0.847 0.199,1.294c0.061,23.962 -0.009,47.927 0.023,71.885c0.082,0.789 -0.105,1.51 -0.564,2.156c-0.362,0.389 -0.792,0.684 -1.288,0.873c-0.494,0.193 -1.008,0.272 -1.539,0.231c-1.133,-0.263 -2.156,-0.754 -3.07,-1.466c-1.978,-1.309 -3.757,-2.839 -5.346,-4.595c-2.246,-2.381 -4.11,-5.033 -5.588,-7.951c-1.589,-3.216 -2.705,-6.587 -3.345,-10.119c-0.263,-1.329 0.02,-2.848 -0.885,-3.981c-0.126,-0.169 -0.266,-0.324 -0.424,-0.464c-0.161,-0.134 -0.333,-0.254 -0.52,-0.351c-0.187,-0.096 -0.383,-0.172 -0.587,-0.222c-0.204,-0.05 -0.412,-0.079 -0.622,-0.079c-0.21,-0.003 -0.418,0.017 -0.625,0.064c-0.204,0.047 -0.4,0.117 -0.593,0.21c-0.187,0.093 -0.362,0.207 -0.526,0.339c-0.161,0.134 -0.304,0.286 -0.432,0.453c-0.345,0.651 -0.555,1.344 -0.625,2.074c-0.07,0.733 0.003,1.449 0.219,2.153c0.406,3.87 1.501,7.539 3.28,11.007c-1.776,1.145 -3.651,2.092 -5.629,2.842c-6.47,2.673 -13.195,4.332 -20.164,4.98c-6.044,0.57 -12.07,0.462 -18.087,-0.327c-12.619,-1.954 -24.929,-5.112 -36.929,-9.47c-0.795,-0.283 -1.545,-0.648 -2.255,-1.098c-0.71,-0.447 -1.364,-0.967 -1.96,-1.56c-0.596,-0.59 -1.122,-1.241 -1.574,-1.948c-0.45,-0.707 -0.821,-1.455 -1.107,-2.243c-0.797,-2.314 0.041,-4.744 -0.19,-7.113c-0.19,-1.656 -0.488,-3.298 -0.651,-4.96c-0.646,-5.591 -0.581,-11.176 0.187,-16.753c0.313,-2.763 0.789,-5.5 1.431,-8.205c0.967,-4.408 2.185,-8.749 3.66,-13.014c1.531,-4.89 3.321,-9.689 5.024,-14.521c1.233,-3.684 2.722,-7.276 4.028,-10.931c1.706,-4.516 3.412,-9.032 5.156,-13.531c0.698,-2.144 1.738,-4.107 3.126,-5.889c1.431,-1.706 3.181,-2.98 5.249,-3.824c1.826,-0.692 3.727,-1.18 5.571,-1.834c4.536,-1.566 9.123,-2.988 13.665,-4.536c2.191,-0.654 4.332,-1.472 6.535,-2.094m15.458,84.75c-1.449,1.425 -3.003,2.725 -4.665,3.9c-1.247,0.759 -2.556,1.382 -3.935,1.864c-1.376,0.485 -2.79,0.821 -4.236,1.011c-1.449,0.187 -2.901,0.228 -4.358,0.111c-1.452,-0.114 -2.88,-0.377 -4.279,-0.792c-0.821,-0.342 -1.662,-0.412 -2.53,-0.213c-0.181,0.073 -0.356,0.164 -0.52,0.269c-0.167,0.108 -0.318,0.231 -0.462,0.368c-0.14,0.137 -0.266,0.286 -0.374,0.45c-0.114,0.161 -0.207,0.336 -0.283,0.517c-0.076,0.181 -0.131,0.368 -0.172,0.558c-0.041,0.193 -0.058,0.391 -0.058,0.587c0,0.196 0.017,0.391 0.058,0.584c0.041,0.19 0.096,0.38 0.175,0.558c0.216,0.412 0.508,0.762 0.873,1.049c0.365,0.289 0.774,0.494 1.224,0.608c1.948,0.605 3.941,0.984 5.974,1.142c2.036,0.158 4.06,0.088 6.079,-0.213c2.448,-0.327 4.796,-1.005 7.046,-2.024c2.249,-1.019 4.303,-2.343 6.158,-3.967c0.876,-0.716 1.639,-1.537 2.284,-2.465c0.131,-0.21 0.234,-0.435 0.301,-0.675c0.07,-0.237 0.105,-0.479 0.105,-0.73c-0.003,-0.248 -0.035,-0.491 -0.108,-0.73c-0.067,-0.24 -0.169,-0.464 -0.301,-0.672c-0.099,-0.164 -0.213,-0.318 -0.342,-0.459c-0.129,-0.14 -0.266,-0.269 -0.418,-0.386c-0.152,-0.114 -0.315,-0.213 -0.488,-0.298c-0.169,-0.085 -0.348,-0.152 -0.532,-0.202c-0.184,-0.053 -0.371,-0.085 -0.561,-0.099c-0.193,-0.015 -0.383,-0.012 -0.573,0.012c-0.19,0.02 -0.377,0.058 -0.558,0.117c-0.181,0.058 -0.356,0.129 -0.526,0.222l0,0Z" style="fill:#189caa;fill-rule:nonzero;"/><path id="path8-2-5" d="M122.986,73.015c0.821,-0.286 1.528,-0.83 2.366,-1.057c0.351,0.757 0.54,1.551 0.567,2.387c0.026,0.835 -0.111,1.639 -0.415,2.419c-0.14,0.318 -0.307,0.622 -0.497,0.914c-0.193,0.292 -0.406,0.567 -0.643,0.824c-0.234,0.257 -0.491,0.494 -0.765,0.71c-0.275,0.216 -0.564,0.406 -0.87,0.575c-0.307,0.169 -0.622,0.31 -0.952,0.426c-0.327,0.12 -0.666,0.207 -1.008,0.272c-0.345,0.061 -0.692,0.096 -1.043,0.099c-0.348,0.006 -0.695,-0.017 -1.04,-0.067c-1.583,-0.254 -3.038,-0.967 -4.583,-1.367c-2.822,-0.85 -5.679,-1.566 -8.573,-2.15c-1.022,-0.207 -2.074,-0.26 -3.091,-0.508c3.336,-1.224 6.602,-2.641 9.976,-3.759c0.266,0.371 0.57,0.707 0.914,1.008c0.345,0.304 0.722,0.558 1.128,0.768c0.406,0.213 0.83,0.374 1.277,0.485c0.441,0.111 0.894,0.172 1.352,0.175c2.056,-0.476 4.022,-1.195 5.901,-2.153l0,-0Z" style="fill:#189caa;fill-rule:nonzero;"/></g></g></svg>