<?xml version="1.0" encoding="UTF-8" standalone="no"?><!DOCTYPE svg PUBLIC "-//W3C//DTD SVG 1.1//EN" "http://www.w3.org/Graphics/SVG/1.1/DTD/svg11.dtd"><svg width="100%" height="100%" viewBox="0 0 224 212" version="1.1" xmlns="http://www.w3.org/2000/svg" xmlns:xlink="http://www.w3.org/1999/xlink" xml:space="preserve" xmlns:serif="http://www.serif.com/" style="fill-rule:evenodd;clip-rule:evenodd;stroke-linejoin:round;stroke-miterlimit:2;"><rect id="Fried-Egg" serif:id="Fried Egg" x="0" y="0.384" width="223.502" height="211.507" style="fill:none;"/><g id="Fried-Egg1" serif:id="Fried Egg"><path id="Hex" d="M136.802,179.366l-19.01,8.983c-3.721,1.761 -8.361,1.761 -12.082,0l-77.499,-36.621c-3.776,-1.784 -6.234,-5.168 -6.234,-8.965l0,-73.242c0,-3.797 2.458,-7.184 6.234,-8.968l77.499,-36.621c1.878,-0.888 3.961,-1.327 6.038,-1.327c2.074,0 4.166,0.439 6.044,1.327l77.496,36.621c3.776,1.784 6.237,5.171 6.237,8.968l0,73.242c0,3.797 -2.464,7.181 -6.237,8.965l-12.912,6.102c2.388,-3.899 4.21,-8.178 5.35,-12.719l2.593,-1.226c0.627,-0.296 0.882,-0.765 0.882,-1.122l0,-73.242c0,-0.357 -0.255,-0.826 -0.882,-1.122l-36.908,-17.441c-4.078,-5.492 -9.381,-10.033 -15.629,-13.286c-7.323,-3.814 -15.354,-5.552 -23.39,-5.152l-1.569,-0.741c-0.328,-0.155 -0.697,-0.237 -1.075,-0.237c-0.375,0 -0.741,0.082 -1.069,0.237l-3.6,1.701c-1.423,0.304 -2.84,0.678 -4.246,1.12c-5.452,1.716 -10.478,4.409 -14.861,7.909l-54.789,25.891c-0.627,0.296 -0.882,0.765 -0.882,1.122l0,73.242c0,0.357 0.255,0.826 0.882,1.122l77.496,36.621c0.665,0.313 1.477,0.313 2.145,0l10.784,-5.096c4.17,1.982 8.607,3.312 13.195,3.955Z" style="fill:#189caa;stroke:#189caa;stroke-width:0.5px;"/><g><path id="path5-88-0-8" d="M179.453,119.91c-1.685,-4.329 -4.15,-8.353 -7.313,-11.868c-9.183,-10.202 -15.109,-22.521 -17.14,-35.625c-0.302,-1.939 -0.754,-3.88 -1.349,-5.767c-3.116,-9.891 -9.898,-17.978 -19.101,-22.77c-9.2,-4.792 -19.717,-5.717 -29.615,-2.604c-9.095,2.862 -16.794,8.936 -21.678,17.108c-5.513,9.226 -13.518,17.192 -23.149,23.042c-11.868,7.208 -19.028,20.304 -18.689,34.172c0.513,20.871 17.932,37.845 38.836,37.845c0.176,0 0.361,-0.003 0.542,-0.006c0.317,-0.003 0.636,-0.006 0.953,-0.006c14.095,0 27.649,4.276 39.258,12.393c6.547,4.578 14.227,6.989 22.241,6.989c0.182,0 0.363,0 0.545,-0.003c21.329,-0.29 38.512,-17.878 38.3,-39.207c-0.047,-4.73 -0.952,-9.364 -2.641,-13.693l0,-0Zm-53.163,26.1c-15.989,0 -28.997,-12.999 -28.997,-28.976c0,-15.978 13.008,-28.976 28.997,-28.976c15.989,0 28.997,12.999 28.997,28.976c0,15.978 -13.009,28.976 -28.997,28.976Z" style="fill:#189caa;fill-rule:nonzero;"/><path id="path6-3-4-9" d="M126.289,92.745c-13.404,0 -24.307,10.896 -24.307,24.29c0,13.394 10.903,24.29 24.307,24.29c13.404,0 24.307,-10.896 24.307,-24.29c0,-13.394 -10.903,-24.29 -24.307,-24.29Zm16.962,26.633c-1.295,0 -2.345,-1.049 -2.345,-2.343c0,-8.055 -6.556,-14.607 -14.617,-14.607c-1.295,0 -2.345,-1.049 -2.345,-2.343c0,-1.294 1.05,-2.343 2.345,-2.343c10.646,0 19.307,8.655 19.307,19.293c0,1.294 -1.052,2.343 -2.345,2.343Z" style="fill:#189caa;fill-rule:nonzero;"/></g></g></svg>