<?xml version="1.0" encoding="UTF-8" standalone="no"?><!DOCTYPE svg PUBLIC "-//W3C//DTD SVG 1.1//EN" "http://www.w3.org/Graphics/SVG/1.1/DTD/svg11.dtd"><svg width="100%" height="100%" viewBox="0 0 224 212" version="1.1" xmlns="http://www.w3.org/2000/svg" xmlns:xlink="http://www.w3.org/1999/xlink" xml:space="preserve" xmlns:serif="http://www.serif.com/" style="fill-rule:evenodd;clip-rule:evenodd;stroke-linejoin:round;stroke-miterlimit:2;"><rect id="Fries" x="0" y="-0" width="223.502" height="211.507" style="fill:none;"/><path id="Hex" d="M66.164,169.029l-37.708,-17.818c-3.765,-1.779 -6.216,-5.153 -6.216,-8.939l0,-73.028c0,-3.786 2.451,-7.163 6.216,-8.942l25.652,-12.122l-0.805,1.264l-0.692,2.684l0.165,2.813l0.783,3.663l-20.146,9.52c-0.625,0.295 -0.879,0.762 -0.879,1.119l0,73.028c0,0.356 0.254,0.824 0.879,1.119l30.663,14.49l1.101,7.568l0.005,0.035c0.187,1.242 0.521,2.429 0.982,3.545Zm33.541,-142.393l6.024,-2.846c1.872,-0.885 3.949,-1.323 6.02,-1.323c2.068,0 4.154,0.438 6.026,1.323l8.784,4.151l-1.074,1.227l-1.086,2.417l-0.024,0.083c-3.74,-0.815 -7.331,-0.719 -10.998,0.207l-0.557,-0.263c-0.327,-0.155 -0.695,-0.237 -1.072,-0.237c-0.374,0 -0.739,0.082 -1.066,0.237l-1.861,0.879l-0.688,-1.422l-1.861,-1.991l-2.464,-1.372l-0.064,-0.023c-1.31,-0.463 -2.659,-0.815 -4.04,-1.047Zm69.984,21.686l25.355,11.982c3.765,1.779 6.219,5.156 6.219,8.942l0,73.028c0,3.786 -2.457,7.16 -6.219,8.939l-37.711,17.821c0.464,-1.127 0.796,-2.327 0.979,-3.583l1.102,-7.562l30.676,-14.496c0.625,-0.295 0.879,-0.762 0.879,-1.119l0,-73.028c0,-0.356 -0.254,-0.824 -0.879,-1.119l-21.844,-10.323l1.352,-7.232l-0.041,0.205l0.132,-2.454Zm-32.089,130.035l-19.824,9.368c-3.71,1.756 -8.337,1.756 -12.047,0l-19.825,-9.368l21.503,0l3.277,1.548c0.663,0.313 1.472,0.313 2.138,0l3.277,-1.548l21.502,0Z" style="fill:#189caa;stroke:#189caa;stroke-width:0.5px;"/><g id="Fries1" serif:id="Fries"><path d="M163.895,78.608l-12.512,85.833c-0.578,3.978 -3.975,6.915 -8.01,6.915l-63.239,0c-4.027,0 -7.431,-2.931 -8.031,-6.915l-12.49,-85.833c-0.337,-2.433 1.544,-4.637 4.004,-4.637l12.797,0c0.835,0 1.596,0.52 1.882,1.311c1.735,4.63 4.386,9.582 7.614,13.75c6.619,8.556 15.28,13.64 25.829,13.64c10.668,0 15.258,-4.513 17.872,-5.809c2.606,-2.615 9.81,-6.622 15.594,-21.573c0.103,-0.264 0.264,-0.498 0.447,-0.682c0.366,-0.395 0.893,-0.629 1.442,-0.629l12.775,0c2.482,-0.008 4.363,2.19 4.026,4.63Z" style="fill:#189caa;fill-rule:nonzero;"/><path d="M116.345,50.697l0,46.349c-4.854,0.695 -9.298,0.542 -14.181,-1.495l0,-44.802c0,-0.549 0.212,-1.048 0.549,-1.385c0.212,-0.264 0.498,-0.447 0.812,-0.549c4.078,-1.362 7.607,-1.282 11.517,-0.029c0.783,0.285 1.303,1.048 1.303,1.912Z" style="fill:#189caa;fill-rule:nonzero;"/><path d="M102.713,36.186l0,7.384c-6.186,1.905 -5.784,6.541 -5.784,9.164c-3.214,-0.842 -6.325,-0.842 -8.397,-0.396l0,-16.094c0,-0.894 0.549,-1.649 1.362,-1.934c4.085,-1.362 7.995,-1.275 11.517,-0.029c0.783,0.285 1.303,1.048 1.303,1.904Z" style="fill:#189caa;fill-rule:nonzero;"/><path d="M126.346,41.007l0,20.321c-1.581,-0.235 -3.2,-0.301 -4.766,-0.103l0,-10.527c0,-5.222 -4.262,-7.281 -9.423,-7.904l0,-1.729c0,-0.894 0.549,-1.649 1.362,-1.942c3.843,-1.281 7.511,-1.355 11.486,-0.029c0.813,0.293 1.34,1.048 1.34,1.912Z" style="fill:#189caa;fill-rule:nonzero;"/><path d="M77.382,68.814c-0.688,-0.117 -13.939,-0.117 -14.496,-0.051l-3.272,-15.318c-0.183,-0.835 0.183,-1.729 0.944,-2.146c3.295,-1.934 6.948,-3.004 11.224,-2.432c0.835,0.102 1.515,0.761 1.698,1.597c3.72,17.486 3.024,14.211 3.903,18.35Z" style="fill:#189caa;fill-rule:nonzero;"/><path d="M145.659,74.601c0.366,-0.396 0.893,-0.63 1.442,-0.63c-0.527,0.235 -1.003,0.447 -1.442,0.63Z" style="fill:#189caa;fill-rule:nonzero;"/><path d="M162.717,49.284l-3.638,19.456l-11.985,0c-0.916,0 -1.779,0.154 -2.592,0.498l4.29,-22.541c0.154,-0.835 0.835,-1.516 1.677,-1.626c3.968,-0.513 7.416,-0.117 11.304,2.095c0.74,0.41 1.128,1.275 0.944,2.117Z" style="fill:#189caa;fill-rule:nonzero;"/><path d="M145.161,34.67l-0.234,8.167c-0.63,0.836 -1.076,1.831 -1.26,2.879l-6.618,34.694c-0.417,0.784 -0.915,1.626 -1.464,2.461l0.396,-12.724c0.124,-3.531 -1.728,-6.468 -5.813,-7.831l0.835,-28.02c0.029,-1.048 0.578,-1.933 1.412,-2.226c3.829,-1.429 7.68,-1.392 11.487,0.315c0.783,0.351 1.281,1.289 1.259,2.286Z" style="fill:#189caa;fill-rule:nonzero;"/><path d="M82.829,54.258c-1.099,0.549 -2.013,1.363 -2.694,2.359c-1.691,-7.934 -1.267,-14.519 -13.632,-12.907l-1.238,-6.864c-0.183,-1.018 0.184,-2.014 0.945,-2.491c3.587,-2.263 7.35,-2.923 11.304,-2.065c0.841,0.183 1.515,0.967 1.705,1.993l3.61,19.976Z" style="fill:#189caa;fill-rule:nonzero;"/><path d="M129.486,67.686c-2.731,-1.224 -5.71,-1.568 -7.899,-1.201l0,28.957c3.002,-1.333 6.084,-3.341 8.559,-5.809c0,-0.124 0.6,-19.545 0.6,-19.661c0.029,-0.931 -0.417,-1.92 -1.26,-2.286Z" style="fill:#189caa;fill-rule:nonzero;"/><path d="M96.929,58.206l0,34.408c-5.783,-4.139 -9.554,-10.131 -11.772,-14.636l-0.029,-0.029c-0.879,-12.746 -0.623,-9.076 -1.149,-16.68c0,-0.982 0.351,-1.948 1.2,-2.358c3.741,-1.758 7.278,-2.205 11.465,-0.836c0.103,0.029 0.213,0.081 0.285,0.132Z" style="fill:#189caa;fill-rule:nonzero;"/></g></svg>