<?xml version="1.0" encoding="UTF-8" standalone="no"?><!DOCTYPE svg PUBLIC "-//W3C//DTD SVG 1.1//EN" "http://www.w3.org/Graphics/SVG/1.1/DTD/svg11.dtd"><svg width="100%" height="100%" viewBox="0 0 224 212" version="1.1" xmlns="http://www.w3.org/2000/svg" xmlns:xlink="http://www.w3.org/1999/xlink" xml:space="preserve" xmlns:serif="http://www.serif.com/" style="fill-rule:evenodd;clip-rule:evenodd;stroke-linejoin:round;stroke-miterlimit:2;"><rect id="Government" x="0" y="0.384" width="223.502" height="211.507" style="fill:none;"/><path id="path4-40-0" d="M40.778,157.417l-12.322,-5.823c-3.765,-1.779 -6.216,-5.153 -6.216,-8.939l0,-73.028c0,-3.786 2.451,-7.163 6.216,-8.942l77.272,-36.514c1.872,-0.885 3.949,-1.323 6.02,-1.323c2.068,0 4.154,0.438 6.026,1.323l77.269,36.514c3.765,1.779 6.219,5.156 6.219,8.942l0,73.028c0,3.786 -2.457,7.16 -6.219,8.939l-12.319,5.821c0.176,-0.776 0.269,-1.583 0.269,-2.412l0,-2.572c-0,-1.716 -0.398,-3.339 -1.106,-4.781l8.202,-3.876c0.625,-0.295 0.879,-0.762 0.879,-1.119l0,-73.028c0,-0.356 -0.254,-0.824 -0.879,-1.119l-14.517,-6.86c-0.142,-2.961 -1.569,-5.146 -4.784,-6.253l-27.907,-12.286l-27.906,-12.285c-2.054,-0.904 -4.393,-0.904 -6.446,-0l-27.908,12.285l-27.906,12.286c-2.595,1.142 -4.324,3.53 -4.7,6.214l-14.601,6.9c-0.625,0.295 -0.879,0.762 -0.879,1.119l0,73.028c0,0.356 0.254,0.824 0.879,1.119l8.203,3.876c-0.709,1.443 -1.107,3.065 -1.107,4.781l0,2.572c0,0.83 0.093,1.637 0.269,2.414Zm124.077,8.443l-47.08,22.248c-3.71,1.756 -8.337,1.756 -12.047,0l-47.082,-22.248l21.504,0l30.532,14.428c0.663,0.313 1.472,0.313 2.138,0l30.532,-14.428l21.502,0Z" style="fill:#189caa;stroke:#189caa;stroke-width:0.5px;"/><g><path d="M167.57,62.718l-0.005,0l-27.907,-12.286l-27.906,-12.285l-27.907,12.285l-27.906,12.286l-0.006,0l0,14.286l111.638,0l0,-14.286Z" style="fill:#189caa;fill-rule:nonzero;"/><path d="M66.924,129.29c-1.656,0 -2.998,1.343 -2.998,3c0,1.657 1.342,2.999 2.998,2.999l17.703,0c1.655,0 2.998,-1.342 2.998,-2.999c0,-1.657 -1.342,-3 -2.998,-3l-1,0l0,-42.857l1,0c1.655,0 2.998,-1.342 2.998,-2.999c0,-1.657 -1.342,-3 -2.998,-3l-17.703,0c-1.656,0 -2.998,1.343 -2.998,3c0,1.657 1.342,2.999 2.998,2.999l1,0l0,42.857l-1,0Z" style="fill:#189caa;fill-rule:nonzero;"/><path d="M102.9,129.29c-1.656,0 -2.998,1.343 -2.998,3c0,1.657 1.342,2.999 2.998,2.999l17.703,0c1.655,0 2.998,-1.342 2.998,-2.999c0,-1.657 -1.342,-3 -2.998,-3l-1,0l0,-42.857l1,0c1.655,0 2.998,-1.342 2.998,-2.999c0,-1.657 -1.342,-3 -2.998,-3l-17.703,0c-1.656,0 -2.998,1.343 -2.998,3c0,1.657 1.342,2.999 2.998,2.999l0.999,0l0,42.857l-0.999,0Z" style="fill:#189caa;fill-rule:nonzero;"/><path d="M139.447,129.29c-1.656,0 -2.999,1.343 -2.999,3c0,1.657 1.342,2.999 2.999,2.999l17.702,0c1.656,0 2.999,-1.342 2.999,-2.999c0,-1.657 -1.342,-3 -2.999,-3l-0.999,0l0,-42.857l0.999,0c1.656,0 2.999,-1.342 2.999,-2.999c0,-1.657 -1.342,-3 -2.999,-3l-17.702,0c-1.656,0 -2.999,1.343 -2.999,3c0,1.657 1.342,2.999 2.999,2.999l0.999,0l0,42.857l-0.999,0Z" style="fill:#189caa;fill-rule:nonzero;"/><path d="M55.935,141.575l0,1.714c0,1.578 1.278,2.858 2.855,2.858l105.922,0c1.577,0 2.855,-1.28 2.855,-2.858l0,-1.714c0,-1.578 -1.278,-2.857 -2.855,-2.857l-105.922,0c-1.577,0 -2.855,1.279 -2.855,2.857Z" style="fill:#189caa;fill-rule:nonzero;"/><path d="M172.138,149.575l-120.775,0c-1.577,0 -2.855,1.28 -2.855,2.858l0,2.572c0,1.578 1.278,2.857 2.855,2.857l120.775,0c1.577,0 2.855,-1.279 2.855,-2.857l0,-2.572c0,-1.578 -1.278,-2.858 -2.855,-2.858Z" style="fill:#189caa;fill-rule:nonzero;"/></g></svg>