<?xml version="1.0" encoding="UTF-8" standalone="no"?><!DOCTYPE svg PUBLIC "-//W3C//DTD SVG 1.1//EN" "http://www.w3.org/Graphics/SVG/1.1/DTD/svg11.dtd"><svg width="100%" height="100%" viewBox="0 0 224 212" version="1.1" xmlns="http://www.w3.org/2000/svg" xmlns:xlink="http://www.w3.org/1999/xlink" xml:space="preserve" xmlns:serif="http://www.serif.com/" style="fill-rule:evenodd;clip-rule:evenodd;stroke-linejoin:round;stroke-miterlimit:2;"><rect id="Graph--Ascending-" serif:id="Graph (Ascending)" x="0" y="0.384" width="223.502" height="211.507" style="fill:none;"/><path id="Hex" d="M44.774,159.555l-16.563,-7.827c-3.776,-1.784 -6.234,-5.168 -6.234,-8.965l0,-73.242c0,-3.797 2.458,-7.184 6.234,-8.968l77.499,-36.621c1.878,-0.888 3.961,-1.327 6.038,-1.327c2.074,0 4.166,0.439 6.044,1.327l30.692,14.504l-0.707,0.371l-1.586,1.505l-1.087,1.796l-0.576,1.954l-0.069,2.037l0.161,0.705l-31.797,-15.026c-0.328,-0.155 -0.697,-0.237 -1.075,-0.237c-0.375,0 -0.741,0.082 -1.069,0.237l-77.496,36.621c-0.627,0.296 -0.882,0.765 -0.882,1.122l0,73.242c0,0.357 0.255,0.826 0.882,1.122l14.28,6.748l0,8.898l-2.572,-0l-0.117,0.024Zm131.456,-108.007l19.058,9.006c3.776,1.784 6.237,5.171 6.237,8.968l0,73.242c0,3.797 -2.464,7.181 -6.237,8.965l-16.562,7.826l-0.115,-0.023l-2.649,0l-0,-8.861l14.358,-6.785c0.627,-0.296 0.882,-0.765 0.882,-1.122l0,-73.242c0,-0.357 -0.255,-0.826 -0.882,-1.122l-14.767,-6.978l-0.566,-1.144l0.094,-0.167l0.527,-2.179l0.001,-0.009l0.621,-6.374Zm-42.872,129.446l-15.566,7.356c-3.721,1.761 -8.361,1.761 -12.082,0l-15.567,-7.356l43.215,0Z" style="fill:#189caa;stroke:#189caa;stroke-width:0.5px;"/><g id="Graph--Ascending-1" serif:id="Graph (Ascending)"><path d="M53.807,119.323c24.166,-4.907 52.653,-18.435 76.199,-36.193c14.155,-10.678 25.311,-21.491 32.273,-28.804l4.669,3.644c0.652,0.51 1.613,0.099 1.694,-0.726l1.734,-17.807c0.074,-0.766 -0.673,-1.351 -1.4,-1.092l-16.853,6.013c-0.78,0.28 -0.946,1.308 -0.294,1.819l4.534,3.538c-6.788,7.087 -17.42,17.329 -30.852,27.457c-22.698,17.12 -50.062,30.145 -73.189,34.839l-2.68,0.543c-0.538,0.109 -0.889,0.638 -0.78,1.177l1.089,5.361c0.109,0.538 0.638,0.889 1.177,0.78l2.68,-0.543l0,-0.004Z" style="fill:#189caa;fill-rule:nonzero;"/><path d="M75.279,166.535l10.408,0l0,-46.29c0,-0.408 0.252,-0.773 0.631,-0.925c7.725,-3.095 14.769,-6.3 19.909,-8.824c0.132,-0.064 0.28,0.036 0.28,0.181l0,55.855l10.408,0l0,-61.183c0,-0.355 0.188,-0.681 0.496,-0.858c6.806,-3.917 13.524,-8.207 20.012,-12.774c0.131,-0.092 0.312,0 0.312,0.164l0,74.647l10.408,0l0,-82.308c0,-0.302 0.135,-0.578 0.369,-0.766c7.225,-5.736 14.085,-13.167 20.107,-19.846c0.124,-0.135 0.344,-0.046 0.344,0.138l0,102.786l9.649,0c0.549,0 0.996,0.446 0.996,0.996l0,5.471c0,0.549 -0.447,0.996 -0.996,0.996l-133.72,0c-0.549,0 -0.996,-0.447 -0.996,-0.996l0,-5.471c0,-0.55 0.447,-0.996 0.996,-0.996l9.572,0l0,-36.463c0,-0.475 0.327,-0.876 0.794,-0.968c6.186,-1.202 13.007,-3.201 19.76,-5.548c0.127,-0.046 0.262,0.049 0.262,0.188l0,42.794Z" style="fill:#189caa;fill-rule:nonzero;"/></g></svg>