<?xml version="1.0" encoding="UTF-8" standalone="no"?><!DOCTYPE svg PUBLIC "-//W3C//DTD SVG 1.1//EN" "http://www.w3.org/Graphics/SVG/1.1/DTD/svg11.dtd"><svg width="100%" height="100%" viewBox="0 0 224 212" version="1.1" xmlns="http://www.w3.org/2000/svg" xmlns:xlink="http://www.w3.org/1999/xlink" xml:space="preserve" xmlns:serif="http://www.serif.com/" style="fill-rule:evenodd;clip-rule:evenodd;stroke-linejoin:round;stroke-miterlimit:2;"><rect id="Home" x="0" y="0" width="223.502" height="211.507" style="fill:none;"/><path id="Hex" d="M49.13,161.229l-20.919,-9.885c-3.776,-1.784 -6.234,-5.168 -6.234,-8.965l0,-73.242c0,-3.797 2.458,-7.184 6.234,-8.968l77.499,-36.621c1.878,-0.888 3.961,-1.327 6.038,-1.327c2.074,0 4.166,0.439 6.044,1.327l26.171,12.367c-2.113,0.342 -3.889,1.299 -5.365,2.774c-1.089,1.087 -1.895,2.335 -2.382,3.758l-23.392,-11.054c-0.328,-0.155 -0.697,-0.237 -1.075,-0.237c-0.375,0 -0.741,0.082 -1.069,0.237l-77.496,36.621c-0.627,0.296 -0.882,0.765 -0.882,1.122l0,26.746l-1.812,1.508c-2.14,1.733 -3.383,4.035 -3.604,6.959c-0.209,2.752 0.56,5.137 2.192,7.175l0.101,0.123l3.123,3.722l0,27.01c0,0.357 0.255,0.826 0.882,1.122l15.906,7.516l0,9.112c0,0.371 0.014,0.738 0.041,1.099Zm125.283,-110.925l20.875,9.865c3.776,1.784 6.237,5.171 6.237,8.968l0,73.242c0,3.797 -2.464,7.181 -6.237,8.965l-20.915,9.883c0.028,-0.361 0.041,-0.727 0.041,-1.097l0,-9.113l15.905,-7.516c0.627,-0.296 0.882,-0.765 0.882,-1.122l0,-27.008l3.125,-3.724l0.115,-0.14c1.623,-2.039 2.388,-4.415 2.176,-7.166c-0.221,-2.897 -1.452,-5.188 -3.572,-6.922l-1.843,-1.53l0,-26.751c0,-0.357 -0.255,-0.826 -0.882,-1.122l-15.907,-7.517l0,-10.194Zm-25.605,123.004l-31.016,14.657c-3.721,1.761 -8.361,1.761 -12.082,0l-31.017,-14.657l21.566,0l14.419,6.814c0.665,0.313 1.477,0.313 2.145,0l14.419,-6.814l21.565,0Zm11.605,-119.426l-8.693,-4.108l8.693,0l0,4.108Zm-97.324,103.751l3.545,1.675l-3.545,0l0,-1.675Zm93.78,1.675l3.546,-1.676l-0,1.676l-3.546,0Z" style="fill:#189caa;"/><g><path d="M111.144,67.981l-54.686,45.026c-0.158,0.13 -0.269,0.308 -0.318,0.508l0,0.002c-0.034,0.13 -0.051,0.222 -0.051,0.288l0,46.327c0,1.672 0.615,3.121 1.837,4.343c1.224,1.22 2.674,1.835 4.349,1.835l36.151,0c0.526,0 0.955,-0.429 0.955,-0.955l0,-35.151c0,-0.528 0.429,-0.955 0.955,-0.955l22.83,0c0.528,0 0.957,0.427 0.957,0.955l0,35.153c0,0.526 0.427,0.953 0.955,0.953l36.149,0c1.675,0 3.127,-0.613 4.349,-1.835c1.224,-1.22 1.839,-2.672 1.839,-4.343l0,-46.327c0,-0.034 -0.002,-0.066 -0.002,-0.1c-0.011,-0.265 -0.141,-0.513 -0.348,-0.683l-54.705,-45.041c-0.353,-0.291 -0.863,-0.291 -1.217,0" style="fill:#189caa;fill-rule:nonzero;"/><path d="M188.573,102.804l-21.16,-17.565l0,-39.377c0,-0.899 -0.29,-1.64 -0.872,-2.219c-0.577,-0.579 -1.318,-0.869 -2.221,-0.869l-18.554,0c-0.903,0 -1.643,0.29 -2.222,0.869c-0.581,0.579 -0.871,1.32 -0.871,2.219l0,18.819l-23.578,-19.688c-2.059,-1.673 -4.507,-2.51 -7.342,-2.51c-2.833,0 -5.282,0.837 -7.344,2.51l-69.482,57.811c-0.643,0.513 -0.997,1.205 -1.062,2.074c-0.066,0.869 0.16,1.626 0.675,2.269l5.992,7.141c0.515,0.579 1.192,0.933 2.029,1.062c0.773,0.066 1.547,-0.16 2.32,-0.675l66.87,-55.688l66.872,55.688c0.515,0.447 1.19,0.673 2.029,0.673l0.291,0c0.835,-0.128 1.51,-0.483 2.029,-1.06l5.992,-7.141c0.513,-0.645 0.741,-1.401 0.673,-2.271c-0.066,-0.867 -0.421,-1.559 -1.064,-2.072" style="fill:#189caa;fill-rule:nonzero;"/></g></svg>