<?xml version="1.0" encoding="UTF-8" standalone="no"?><!DOCTYPE svg PUBLIC "-//W3C//DTD SVG 1.1//EN" "http://www.w3.org/Graphics/SVG/1.1/DTD/svg11.dtd"><svg width="100%" height="100%" viewBox="0 0 224 212" version="1.1" xmlns="http://www.w3.org/2000/svg" xmlns:xlink="http://www.w3.org/1999/xlink" xml:space="preserve" xmlns:serif="http://www.serif.com/" style="fill-rule:evenodd;clip-rule:evenodd;stroke-linejoin:round;stroke-miterlimit:2;"><rect id="HS-PT-App" serif:id="HS PT App" x="0" y="0.384" width="223.502" height="211.507" style="fill:none;"/><path id="Hex" d="M62.392,167.88l-34.181,-16.152c-3.776,-1.784 -6.234,-5.168 -6.234,-8.965l0,-73.242c0,-3.797 2.458,-7.184 6.234,-8.968l34.157,-16.141l0,10.194l-29.186,13.792c-0.627,0.296 -0.882,0.765 -0.882,1.122l0,73.242c0,0.357 0.255,0.826 0.882,1.122l29.186,13.792l0,9.337c0,0.29 0.008,0.579 0.023,0.866Zm35.868,-140.427l7.451,-3.521c1.878,-0.888 3.961,-1.327 6.038,-1.327c2.074,0 4.166,0.439 6.044,1.327l7.45,3.521l-26.983,0Zm62.039,16.566l34.989,16.534c3.776,1.784 6.237,5.171 6.237,8.968l0,73.242c0,3.797 -2.464,7.181 -6.237,8.965l-35.04,16.558c0.034,-0.42 0.051,-0.844 0.051,-1.272l-0,-8.942l30.021,-14.186c0.627,-0.296 0.882,-0.765 0.882,-1.122l0,-73.242c0,-0.357 -0.255,-0.826 -0.882,-1.122l-30.021,-14.186l0,-10.194Zm-30.874,138.833l-11.632,5.497c-3.721,1.761 -8.361,1.761 -12.082,0l-11.633,-5.497l35.347,0Z" style="fill:#189caa;stroke:#189caa;stroke-width:0.5px;"/><g id="HS-PT-App1" serif:id="HS PT App"><path d="M122.377,96.315l13.252,0c4.879,0 8.835,-3.957 8.835,-8.837l0,-13.256c0,-4.881 -3.956,-8.837 -8.835,-8.837l-13.252,0c-4.879,0 -8.834,3.957 -8.834,8.837l0,13.256c0,4.881 3.956,8.837 8.834,8.837Z" style="fill:#189caa;fill-rule:nonzero;"/><path d="M109.125,74.221c0,-4.881 -3.955,-8.837 -8.834,-8.837l-13.252,0c-4.879,0 -8.835,3.957 -8.835,8.837l0,13.256c0,4.881 3.956,8.837 8.835,8.837l13.252,0c4.879,0 8.834,-3.957 8.834,-8.837l0,-13.256Z" style="fill:#189caa;fill-rule:nonzero;"/><path d="M100.29,100.734l-13.252,0c-4.879,0 -8.835,3.957 -8.835,8.837l0,13.256c0,4.881 3.956,8.837 8.835,8.837l13.252,0c4.879,0 8.834,-3.957 8.834,-8.837l0,-13.256c0,-4.88 -3.955,-8.837 -8.834,-8.837Z" style="fill:#189caa;fill-rule:nonzero;"/><path d="M122.377,100.734l30.922,0c4.879,0 8.835,3.957 8.835,8.837l0,30.931c0,4.881 -3.956,8.837 -8.835,8.837l-30.922,0c-4.879,0 -8.834,-3.957 -8.834,-8.837l0,-30.931c0,-4.88 3.956,-8.837 8.834,-8.837Zm15.843,7.404c-0.389,0 -0.777,0.081 -1.124,0.243l-15.782,7.349c-0.695,0.324 -1.125,0.924 -1.125,1.571l0,14.698c0,0.647 0.43,1.247 1.125,1.571l15.782,7.349c0.695,0.323 1.554,0.323 2.249,0l15.782,-7.349c0.695,-0.324 1.125,-0.924 1.125,-1.571l0,-14.698c0,-0.647 -0.43,-1.247 -1.125,-1.571l-15.782,-7.349c-0.347,-0.162 -0.736,-0.243 -1.125,-0.243Zm0,1.289c0.112,0 0.224,0.024 0.325,0.071l15.782,7.349c0.202,0.094 0.325,0.265 0.325,0.454l0,14.698c0,0.188 -0.123,0.359 -0.325,0.454l-15.782,7.349c-0.202,0.094 -0.447,0.094 -0.649,0l-15.782,-7.349c-0.202,-0.094 -0.325,-0.265 -0.325,-0.454l0,-14.698c0,-0.188 0.123,-0.36 0.325,-0.454l15.782,-7.349c0.101,-0.047 0.213,-0.071 0.324,-0.071Zm13.656,12.163c-0.033,-0.012 -0.067,-0.017 -0.102,-0.017c-0.168,0 -0.305,0.138 -0.305,0.305l0,5.543c0,0.168 0.138,0.305 0.305,0.305c0.035,0 0.069,-0.006 0.102,-0.017l0.777,-0.274c0.243,-0.086 0.407,-0.317 0.407,-0.575l-0,-4.42c0,-0.258 -0.164,-0.49 -0.407,-0.576l-0.777,-0.274Zm-27.196,-0.017c-0.039,-0.002 -0.078,0.004 -0.115,0.017l-0.777,0.274c-0.243,0.086 -0.407,0.317 -0.407,0.576l0,4.42c0,0.258 0.164,0.489 0.407,0.575l0.777,0.274c0.033,0.012 0.067,0.017 0.102,0.017c0.168,0 0.305,-0.138 0.305,-0.305l0,-5.543c0,-0.163 -0.13,-0.298 -0.292,-0.305Zm13.543,-9.886c-0.136,-0 -0.271,0.029 -0.395,0.083l-7.141,3.138c-0.24,0.105 -0.395,0.344 -0.395,0.605l0,6.974c0,0.237 0.195,0.432 0.432,0.432l2.511,0c0.237,-0 0.432,-0.195 0.432,-0.432l0,-4.728c-0,-0.262 0.155,-0.501 0.395,-0.607l3.768,-1.671c0.251,-0.112 0.538,-0.112 0.789,0l3.769,1.681c0.239,0.107 0.394,0.345 0.394,0.607l0,0.018c0,0.258 0.164,0.49 0.407,0.576l2.56,0.905c0.033,0.012 0.067,0.017 0.102,0.017c0.167,0 0.305,-0.138 0.305,-0.305l0,-3.465c-0,-0.262 -0.155,-0.5 -0.395,-0.606l-7.141,-3.142c-0.125,-0.055 -0.259,-0.083 -0.395,-0.083Zm-9.884,4.28c-0.037,0.001 -0.074,0.009 -0.109,0.024l-2.585,1.136c-0.24,0.105 -0.395,0.344 -0.395,0.606l0,13.835c0,0.262 0.156,0.5 0.395,0.605l2.585,1.136c0.036,0.016 0.074,0.024 0.113,0.024c0.155,0 0.282,-0.127 0.282,-0.282l-0,-6.488c0,-0.237 0.195,-0.431 0.431,-0.431l18.325,0.016c0.237,0 0.432,0.195 0.432,0.432l-0,6.475c0,0.154 0.127,0.282 0.282,0.282c0.039,0 0.078,-0.008 0.113,-0.024l2.585,-1.138c0.24,-0.105 0.395,-0.344 0.395,-0.606l0,-13.836c-0,-0.262 -0.155,-0.5 -0.395,-0.606l-2.585,-1.138c-0.036,-0.016 -0.074,-0.024 -0.113,-0.024c-0.154,0 -0.282,0.127 -0.282,0.282l0,6.475c-0,0.237 -0.195,0.432 -0.432,0.432l-18.325,0.016c-0.237,0 -0.431,-0.195 -0.431,-0.431l0,-6.488c-0,-0.155 -0.127,-0.282 -0.282,-0.282l-0.005,0Zm14.867,10.413c-0.237,0 -0.432,0.195 -0.432,0.432l0,4.728c0,0.262 -0.155,0.501 -0.395,0.607l-3.768,1.671c-0.251,0.111 -0.538,0.11 -0.789,-0.002l-3.769,-1.681c-0.239,-0.107 -0.394,-0.345 -0.394,-0.608l0,-0.018c0,-0.258 -0.164,-0.49 -0.407,-0.576l-2.561,-0.905c-0.033,-0.012 -0.067,-0.017 -0.102,-0.017c-0.167,0 -0.305,0.138 -0.305,0.305l0,3.465c-0,0.262 0.155,0.5 0.395,0.606l7.142,3.142c0.252,0.111 0.539,0.111 0.79,0l7.142,-3.138c0.24,-0.105 0.395,-0.344 0.395,-0.605l0,-6.974c-0,-0.237 -0.195,-0.432 -0.432,-0.432l-2.511,0.001Z" style="fill:#189caa;"/><path d="M78.321,175.852l66.026,0c4.944,0 8.952,-3.957 8.952,-8.838l0,-13.256l-79.513,0l0,-97.211l75.096,0l0,39.768l4.417,0l0,-53.024c0,-4.882 -4.009,-8.837 -8.952,-8.837l-66.026,0c-4.944,0 -8.952,3.956 -8.952,8.837l0,123.724c0,4.881 4.009,8.838 8.952,8.838Zm21.969,-13.257l22.087,0c1.22,0 2.209,0.989 2.209,2.209c0,1.221 -0.989,2.209 -2.209,2.209l-22.087,0c-1.22,0 -2.209,-0.989 -2.209,-2.209c0,-1.22 0.989,-2.209 2.209,-2.209Zm22.087,-119.305l4.418,0c1.219,0 2.209,0.989 2.209,2.209c0,1.22 -0.989,2.209 -2.209,2.209l-4.418,0c-1.219,0 -2.209,-0.989 -2.209,-2.209c0,-1.22 0.989,-2.209 2.209,-2.209Zm-26.504,0l17.67,0c1.219,0 2.209,0.989 2.209,2.209c0,1.22 -0.989,2.209 -2.209,2.209l-17.67,0c-1.22,0 -2.209,-0.989 -2.209,-2.209c0,-1.22 0.989,-2.209 2.209,-2.209Z" style="fill:#189caa;fill-rule:nonzero;"/></g></svg>