<?xml version="1.0" encoding="UTF-8" standalone="no"?><!DOCTYPE svg PUBLIC "-//W3C//DTD SVG 1.1//EN" "http://www.w3.org/Graphics/SVG/1.1/DTD/svg11.dtd"><svg width="100%" height="100%" viewBox="0 0 224 212" version="1.1" xmlns="http://www.w3.org/2000/svg" xmlns:xlink="http://www.w3.org/1999/xlink" xml:space="preserve" xmlns:serif="http://www.serif.com/" style="fill-rule:evenodd;clip-rule:evenodd;stroke-linejoin:round;stroke-miterlimit:2;"><rect id="Hub" x="0" y="0.384" width="223.502" height="211.507" style="fill:none;"/><path id="path4-40-0" d="M56.811,164.993l-28.355,-13.399c-3.765,-1.779 -6.216,-5.153 -6.216,-8.939l0,-73.028c0,-3.786 2.451,-7.163 6.216,-8.942l27.943,-13.204c-0.063,0.121 -0.125,0.244 -0.186,0.367c-0.164,0.332 -0.318,0.67 -0.461,1.013l-0.005,0.013c-0.14,0.337 -0.271,0.68 -0.39,1.026l-0.003,0.008c-0.12,0.349 -0.23,0.701 -0.328,1.055l-0.002,0.007c-0.099,0.359 -0.187,0.72 -0.263,1.082c-0.078,0.369 -0.144,0.739 -0.197,1.111c-0.053,0.366 -0.095,0.733 -0.125,1.102c-0.031,0.379 -0.05,0.759 -0.056,1.14c-0.006,0.367 -0.002,0.732 0.015,1.098c0.017,0.373 0.045,0.745 0.085,1.116c0.032,0.294 0.071,0.587 0.117,0.879l-21.186,10.012c-0.625,0.295 -0.879,0.762 -0.879,1.119l0,73.028c0,0.356 0.254,0.824 0.879,1.119l21.171,10.005c-0.037,0.284 -0.068,0.569 -0.091,0.855c-0.044,0.523 -0.064,1.048 -0.061,1.574c0.003,0.528 0.03,1.054 0.08,1.58c0.049,0.522 0.122,1.041 0.217,1.556l0.003,0.018c0.097,0.518 0.216,1.031 0.358,1.538c0.142,0.509 0.306,1.009 0.493,1.501c0.184,0.486 0.389,0.962 0.613,1.43l0.011,0.022c0.188,0.388 0.389,0.768 0.604,1.14Zm18.984,-126.675l29.934,-14.145c1.872,-0.885 3.949,-1.323 6.02,-1.323c2.068,0 4.154,0.438 6.026,1.323l29.978,14.166c-0.156,0.033 -0.311,0.068 -0.466,0.105c-0.518,0.123 -1.03,0.27 -1.535,0.441c-0.502,0.17 -0.996,0.361 -1.481,0.575c-0.483,0.213 -0.956,0.448 -1.417,0.704c-0.464,0.256 -0.914,0.533 -1.353,0.83l-0.009,0.006c-0.436,0.296 -0.859,0.612 -1.268,0.947c-0.41,0.335 -0.804,0.689 -1.182,1.06l-0.009,0.009c-0.309,0.305 -0.606,0.619 -0.892,0.945l-25.321,-11.965c-0.327,-0.155 -0.695,-0.237 -1.072,-0.237c-0.374,0 -0.739,0.082 -1.066,0.237l-25.242,11.928c-0.032,-0.037 -0.065,-0.073 -0.097,-0.109c-0.252,-0.28 -0.512,-0.552 -0.782,-0.815c-0.264,-0.258 -0.536,-0.508 -0.816,-0.749c-0.283,-0.244 -0.572,-0.478 -0.87,-0.704l-0.004,-0.003c-0.293,-0.222 -0.594,-0.435 -0.9,-0.639c-0.308,-0.205 -0.623,-0.399 -0.943,-0.585l-0.02,-0.011c-0.316,-0.182 -0.64,-0.355 -0.967,-0.518l-0.021,-0.01c-0.331,-0.163 -0.667,-0.317 -1.008,-0.46c-0.337,-0.141 -0.678,-0.272 -1.024,-0.393l-0.031,-0.011c-0.35,-0.121 -0.702,-0.23 -1.059,-0.329c-0.355,-0.099 -0.712,-0.186 -1.074,-0.263c-0.01,-0.002 -0.021,-0.004 -0.031,-0.007Zm91.347,9.183l27.903,13.186c3.765,1.779 6.219,5.156 6.219,8.942l0,73.028c0,3.786 -2.457,7.16 -6.219,8.939l-28.196,13.324c0.14,-0.245 0.274,-0.493 0.402,-0.744c0.221,-0.433 0.423,-0.875 0.608,-1.325l0.01,-0.024c0.183,-0.45 0.349,-0.906 0.495,-1.37c0.149,-0.471 0.279,-0.949 0.387,-1.432c0.107,-0.473 0.194,-0.95 0.263,-1.432c0.069,-0.484 0.117,-0.971 0.146,-1.461l0.001,-0.019c0.028,-0.487 0.035,-0.976 0.022,-1.465c-0.012,-0.492 -0.046,-0.983 -0.099,-1.472c-0.016,-0.15 -0.034,-0.3 -0.055,-0.449l21.062,-9.953c0.625,-0.295 0.879,-0.762 0.879,-1.119l0,-73.028c0,-0.356 -0.254,-0.824 -0.879,-1.119l-21.144,-9.991c0.003,-0.017 0.005,-0.034 0.008,-0.05l0.002,-0.015c0.08,-0.52 0.138,-1.044 0.171,-1.569c0.034,-0.527 0.045,-1.055 0.032,-1.583c-0.013,-0.525 -0.049,-1.047 -0.108,-1.57c-0.059,-0.522 -0.142,-1.04 -0.246,-1.554l-0.004,-0.018c-0.105,-0.511 -0.233,-1.016 -0.382,-1.516l-0.005,-0.017c-0.15,-0.499 -0.322,-0.991 -0.514,-1.475l-0.009,-0.022c-0.194,-0.482 -0.408,-0.956 -0.643,-1.42c-0.035,-0.069 -0.071,-0.139 -0.107,-0.208Zm-18.74,126.134l-30.626,14.473c-3.71,1.756 -8.337,1.756 -12.047,0l-30.608,-14.463c0.355,-0.06 0.708,-0.131 1.06,-0.212c0.525,-0.122 1.041,-0.267 1.552,-0.436l0.005,-0.002c0.509,-0.169 1.01,-0.36 1.502,-0.574l0.015,-0.007c0.49,-0.215 0.968,-0.45 1.436,-0.707c0.475,-0.261 0.936,-0.542 1.384,-0.845l0.004,-0.003c0.444,-0.301 0.873,-0.62 1.289,-0.959l0.009,-0.007c0.415,-0.34 0.814,-0.698 1.197,-1.075c0.197,-0.194 0.39,-0.392 0.577,-0.594l25.532,12.065c0.663,0.313 1.472,0.313 2.138,0l25.586,-12.091c0.172,0.187 0.348,0.37 0.528,0.549c0.366,0.365 0.748,0.713 1.144,1.045c0.401,0.336 0.816,0.652 1.246,0.95c0.428,0.297 0.867,0.574 1.318,0.831c0.452,0.259 0.914,0.495 1.387,0.712c0.475,0.218 0.958,0.414 1.451,0.588c0.492,0.174 0.99,0.328 1.496,0.457c0.47,0.121 0.946,0.223 1.425,0.305Z" style="fill:#189caa;stroke:#189caa;stroke-width:0.5px;"/><g><path d="M98.286,152.583c0,-6.288 0.014,-12.496 -0.034,-18.703c-0.05,-0.234 -0.143,-0.45 -0.278,-0.647c-0.136,-0.198 -0.304,-0.362 -0.503,-0.493c-2.089,-1.543 -4.204,-3.052 -6.347,-4.526c-0.45,-0.331 -0.953,-0.518 -1.51,-0.559c-6.491,-0.038 -12.981,-0.01 -19.472,-0.044c-0.16,-0.013 -0.318,0.003 -0.473,0.044c-0.156,0.041 -0.299,0.107 -0.433,0.197c-0.133,0.09 -0.247,0.2 -0.343,0.329c-0.096,0.129 -0.168,0.27 -0.215,0.424c-0.134,0.284 -0.279,0.563 -0.438,0.834c-0.158,0.272 -0.327,0.535 -0.508,0.792c-0.182,0.257 -0.374,0.504 -0.577,0.744c-0.203,0.239 -0.416,0.469 -0.639,0.689c-0.224,0.221 -0.456,0.431 -0.698,0.632c-0.242,0.2 -0.492,0.389 -0.751,0.567c-0.258,0.178 -0.524,0.344 -0.798,0.499c-0.273,0.154 -0.553,0.296 -0.839,0.426c-0.285,0.13 -0.576,0.247 -0.872,0.351c-0.296,0.104 -0.596,0.195 -0.9,0.273c-0.304,0.078 -0.611,0.143 -0.921,0.193c-0.309,0.05 -0.621,0.087 -0.933,0.111c-0.313,0.023 -0.627,0.033 -0.94,0.029c-0.314,-0.005 -0.627,-0.023 -0.939,-0.055c-0.312,-0.032 -0.621,-0.078 -0.93,-0.137c-0.308,-0.06 -0.613,-0.133 -0.914,-0.219c-0.302,-0.086 -0.6,-0.185 -0.893,-0.297c-0.293,-0.112 -0.58,-0.237 -0.863,-0.374c-0.283,-0.137 -0.559,-0.286 -0.828,-0.447c-0.269,-0.161 -0.531,-0.334 -0.786,-0.517c-0.254,-0.184 -0.5,-0.378 -0.737,-0.584c-0.237,-0.205 -0.465,-0.421 -0.684,-0.646c-0.219,-0.226 -0.427,-0.46 -0.626,-0.704c-0.198,-0.243 -0.385,-0.495 -0.562,-0.754c-0.176,-0.26 -0.341,-0.527 -0.494,-0.801c-0.153,-0.274 -0.294,-0.554 -0.423,-0.841c-0.129,-0.286 -0.245,-0.578 -0.349,-0.875c-0.103,-0.296 -0.193,-0.596 -0.271,-0.901c-0.077,-0.304 -0.141,-0.612 -0.191,-0.922c-0.05,-0.31 -0.087,-0.621 -0.111,-0.935c-0.023,-0.313 -0.034,-0.627 -0.029,-0.941c0.004,-0.314 0.022,-0.627 0.053,-0.939c0.41,-4.733 4.144,-8.601 9.173,-9.493c0.283,-0.044 0.569,-0.077 0.855,-0.098c0.286,-0.022 0.573,-0.031 0.86,-0.029c0.287,0.003 0.573,0.017 0.859,0.043c0.286,0.025 0.57,0.063 0.853,0.112c0.283,0.049 0.563,0.109 0.84,0.181c0.278,0.072 0.552,0.156 0.823,0.25c0.271,0.095 0.538,0.2 0.8,0.317c0.263,0.117 0.519,0.243 0.772,0.381c0.252,0.138 0.497,0.285 0.737,0.443c0.24,0.158 0.473,0.325 0.699,0.502c0.226,0.176 0.445,0.362 0.655,0.557c0.211,0.195 0.414,0.398 0.608,0.609c0.195,0.211 0.38,0.43 0.556,0.657c0.177,0.226 0.344,0.46 0.502,0.699c0.157,0.24 0.304,0.486 0.441,0.739c0.138,0.252 0.264,0.509 0.381,0.772c0.517,1.198 1.143,1.436 2.315,1.42c4.687,-0.065 9.376,-0.026 14.26,-0.026c-5.148,-9.982 -5.165,-19.879 -0.037,-29.856l-14.919,0c-1.275,1.76 -2.246,3.531 -3.619,4.911c-3.228,3.248 -8.366,3.882 -12.506,1.796c-3.975,-2.003 -6.536,-6.556 -6.041,-10.742c0.601,-5.084 3.768,-8.842 8.386,-9.948c0.309,-0.079 0.621,-0.144 0.937,-0.196c0.315,-0.051 0.632,-0.09 0.951,-0.113c0.319,-0.024 0.637,-0.034 0.957,-0.031c0.32,0.004 0.638,0.022 0.956,0.053c0.319,0.032 0.634,0.077 0.949,0.137c0.314,0.06 0.625,0.132 0.932,0.218c0.308,0.086 0.611,0.186 0.91,0.299c0.299,0.112 0.593,0.238 0.881,0.377c0.288,0.139 0.569,0.289 0.845,0.453c0.274,0.163 0.542,0.338 0.801,0.524c0.26,0.186 0.511,0.384 0.753,0.592c0.242,0.209 0.476,0.427 0.699,0.656c0.223,0.229 0.436,0.467 0.638,0.715c0.203,0.247 0.394,0.502 0.575,0.767c0.18,0.264 0.349,0.536 0.505,0.814c0.157,0.278 0.301,0.564 0.433,0.855c0.029,0.086 0.064,0.169 0.107,0.249c0.043,0.081 0.092,0.156 0.148,0.228c0.056,0.071 0.118,0.138 0.185,0.198c0.068,0.061 0.14,0.116 0.217,0.164c0.076,0.049 0.157,0.09 0.242,0.124c0.084,0.034 0.17,0.061 0.259,0.08c0.089,0.019 0.179,0.031 0.269,0.034c0.091,0.004 0.181,0 0.271,-0.013c6.159,-0.036 12.319,0 18.477,-0.047c0.647,-0.047 1.235,-0.26 1.76,-0.641c2.111,-1.433 4.185,-2.92 6.242,-4.431c0.361,-0.265 0.806,-0.741 0.809,-1.124c0.04,-6.164 0.015,-12.327 0,-18.491c0,-0.082 -0.071,-0.165 -0.153,-0.341c-0.367,-0.025 -0.779,-0.077 -1.192,-0.078c-4.406,-0.006 -8.812,0.017 -13.218,-0.021c-0.09,-0.014 -0.179,-0.02 -0.271,-0.018c-0.091,0.002 -0.18,0.012 -0.269,0.029c-0.09,0.018 -0.176,0.044 -0.261,0.077c-0.085,0.034 -0.165,0.074 -0.242,0.122c-0.077,0.048 -0.15,0.102 -0.218,0.163c-0.067,0.061 -0.129,0.127 -0.185,0.199c-0.056,0.072 -0.105,0.148 -0.148,0.228c-0.042,0.081 -0.077,0.164 -0.105,0.251c-0.127,0.294 -0.267,0.581 -0.419,0.862c-0.153,0.281 -0.319,0.554 -0.496,0.821c-0.178,0.266 -0.367,0.523 -0.568,0.772c-0.201,0.249 -0.413,0.488 -0.635,0.718c-0.223,0.23 -0.455,0.45 -0.697,0.658c-0.242,0.209 -0.494,0.406 -0.754,0.592c-0.26,0.186 -0.528,0.361 -0.803,0.523c-0.276,0.162 -0.559,0.311 -0.848,0.447c-0.289,0.137 -0.584,0.26 -0.884,0.37c-0.3,0.109 -0.606,0.205 -0.914,0.288c-0.309,0.082 -0.621,0.15 -0.936,0.204c-0.315,0.055 -0.632,0.094 -0.951,0.119c-0.319,0.026 -0.638,0.037 -0.958,0.033c-0.32,-0.003 -0.638,-0.021 -0.957,-0.054c-0.318,-0.032 -0.634,-0.079 -0.948,-0.14c-0.314,-0.06 -0.624,-0.136 -0.932,-0.225c-0.217,-0.06 -0.433,-0.127 -0.646,-0.2c-0.214,-0.073 -0.424,-0.153 -0.633,-0.24c-0.208,-0.087 -0.413,-0.18 -0.616,-0.28c-0.202,-0.1 -0.401,-0.206 -0.597,-0.319c-0.195,-0.112 -0.387,-0.231 -0.576,-0.355c-0.189,-0.124 -0.372,-0.254 -0.553,-0.391c-0.18,-0.136 -0.356,-0.278 -0.528,-0.424c-0.171,-0.147 -0.338,-0.299 -0.5,-0.457c-0.161,-0.158 -0.318,-0.32 -0.47,-0.487c-0.152,-0.167 -0.298,-0.34 -0.439,-0.516c-0.14,-0.177 -0.275,-0.357 -0.405,-0.543c-0.129,-0.185 -0.252,-0.374 -0.37,-0.567c-0.117,-0.193 -0.229,-0.389 -0.334,-0.59c-0.106,-0.2 -0.204,-0.403 -0.296,-0.609c-0.093,-0.205 -0.179,-0.414 -0.257,-0.627c-0.08,-0.211 -0.152,-0.425 -0.218,-0.641c-0.065,-0.216 -0.125,-0.434 -0.177,-0.654c-0.052,-0.22 -0.097,-0.441 -0.135,-0.663c-0.039,-0.222 -0.07,-0.446 -0.094,-0.671c-0.024,-0.225 -0.041,-0.45 -0.051,-0.675c-0.01,-0.226 -0.013,-0.451 -0.008,-0.678c0.003,-0.226 0.015,-0.451 0.034,-0.676c0.018,-0.226 0.044,-0.45 0.076,-0.673c0.032,-0.223 0.071,-0.445 0.118,-0.667c0.046,-0.221 0.099,-0.44 0.159,-0.658c0.06,-0.217 0.127,-0.433 0.201,-0.647c0.074,-0.213 0.154,-0.424 0.241,-0.632c0.087,-0.209 0.181,-0.414 0.281,-0.616c0.1,-0.203 0.205,-0.402 0.318,-0.598c0.112,-0.195 0.231,-0.387 0.356,-0.576c0.125,-0.189 0.255,-0.372 0.391,-0.553c0.137,-0.18 0.278,-0.356 0.425,-0.528c0.147,-0.171 0.299,-0.338 0.457,-0.499c0.158,-0.162 0.32,-0.319 0.487,-0.471c0.168,-0.151 0.34,-0.297 0.517,-0.438c0.176,-0.141 0.357,-0.276 0.543,-0.405c0.185,-0.129 0.374,-0.252 0.567,-0.37c0.192,-0.117 0.389,-0.228 0.589,-0.333c0.2,-0.106 0.403,-0.204 0.609,-0.296c0.205,-0.092 0.414,-0.178 0.626,-0.257c0.211,-0.08 0.425,-0.152 0.642,-0.217c0.216,-0.066 0.434,-0.125 0.653,-0.176c0.22,-0.052 0.44,-0.097 0.663,-0.135c0.222,-0.039 0.445,-0.07 0.67,-0.093c0.224,-0.024 0.45,-0.041 0.675,-0.05c0.225,-0.01 0.45,-0.013 0.676,-0.008c0.226,0.004 0.451,0.016 0.676,0.034c0.226,0.018 0.45,0.044 0.673,0.077c0.223,0.033 0.445,0.072 0.666,0.119c0.221,0.047 0.44,0.101 0.658,0.161c0.218,0.06 0.433,0.127 0.647,0.201c0.213,0.075 0.424,0.155 0.632,0.242c0.208,0.087 0.413,0.181 0.616,0.281c0.202,0.101 0.402,0.207 0.597,0.32c0.195,0.113 0.387,0.231 0.575,0.356c0.188,0.125 0.372,0.256 0.552,0.392c0.18,0.137 0.356,0.278 0.527,0.426c0.171,0.148 0.337,0.3 0.498,0.458c0.162,0.158 0.318,0.321 0.469,0.489c0.151,0.168 0.297,0.34 0.437,0.517c0.141,0.177 0.275,0.358 0.404,0.543c0.129,0.185 0.252,0.375 0.369,0.568c0.117,0.193 0.228,0.39 0.333,0.59c0.104,0.2 0.203,0.403 0.294,0.61c0.027,0.087 0.061,0.171 0.102,0.252c0.042,0.081 0.09,0.159 0.145,0.231c0.055,0.073 0.116,0.14 0.183,0.202c0.067,0.061 0.138,0.117 0.216,0.166c0.076,0.049 0.157,0.091 0.242,0.126c0.084,0.035 0.17,0.063 0.259,0.082c0.089,0.019 0.179,0.031 0.27,0.035c0.091,0.003 0.182,-0.001 0.272,-0.013c5.734,-0.036 11.465,-0.023 17.198,-0.016c2.883,0.004 4.053,1.166 4.058,4.048c0.011,6.023 0.013,12.045 0.004,18.066l0,1.76c2.265,-0.486 4.557,-0.728 6.874,-0.727c2.317,0.001 4.609,0.244 6.875,0.731l0,-19.361c0,-3.543 0.991,-4.516 4.589,-4.516c5.449,0 10.897,-0.026 16.345,0.022c1.064,0.008 1.655,-0.226 2.142,-1.291c0.134,-0.29 0.281,-0.574 0.441,-0.85c0.16,-0.277 0.332,-0.546 0.516,-0.808c0.185,-0.261 0.38,-0.514 0.586,-0.757c0.207,-0.244 0.424,-0.477 0.653,-0.702c0.228,-0.224 0.465,-0.437 0.713,-0.639c0.247,-0.203 0.503,-0.394 0.767,-0.574c0.265,-0.179 0.537,-0.346 0.817,-0.501c0.279,-0.155 0.565,-0.297 0.858,-0.426c0.292,-0.129 0.59,-0.244 0.892,-0.346c0.303,-0.102 0.61,-0.19 0.92,-0.264c0.311,-0.075 0.625,-0.135 0.941,-0.18c0.316,-0.046 0.634,-0.078 0.953,-0.095c0.319,-0.018 0.638,-0.02 0.958,-0.008c0.319,0.012 0.637,0.038 0.954,0.078c0.317,0.04 0.632,0.095 0.944,0.164c0.312,0.069 0.62,0.152 0.924,0.248c0.305,0.095 0.606,0.202 0.902,0.323c0.295,0.122 0.585,0.255 0.869,0.402c0.283,0.148 0.559,0.306 0.829,0.478c0.269,0.171 0.531,0.355 0.783,0.549c0.253,0.195 0.497,0.401 0.732,0.617c0.235,0.216 0.46,0.444 0.674,0.68c0.215,0.237 0.418,0.482 0.611,0.737c0.193,0.255 0.374,0.517 0.543,0.789c0.169,0.271 0.326,0.549 0.471,0.834c0.144,0.285 0.276,0.576 0.395,0.872c0.118,0.297 0.223,0.599 0.315,0.905c0.091,0.306 0.169,0.616 0.234,0.928c0.064,0.313 0.114,0.628 0.15,0.946c0.036,0.318 0.058,0.636 0.065,0.955c0.008,0.32 0.002,0.639 -0.019,0.958c-0.02,0.319 -0.055,0.637 -0.104,0.952c-0.049,0.316 -0.112,0.629 -0.19,0.939c-0.076,0.31 -0.167,0.616 -0.271,0.918c-0.104,0.303 -0.221,0.6 -0.352,0.891c-0.131,0.292 -0.274,0.577 -0.43,0.856c-0.156,0.278 -0.324,0.55 -0.504,0.814c-0.18,0.264 -0.372,0.52 -0.575,0.767c-0.203,0.247 -0.416,0.484 -0.641,0.711c-0.224,0.228 -0.457,0.445 -0.701,0.653c-0.243,0.206 -0.496,0.403 -0.756,0.587c-0.261,0.184 -0.53,0.356 -0.806,0.517c-0.276,0.161 -0.559,0.309 -0.848,0.444c-0.29,0.135 -0.585,0.257 -0.885,0.367c-0.3,0.109 -0.605,0.204 -0.913,0.286c-0.309,0.081 -0.621,0.149 -0.935,0.203c-0.315,0.055 -0.632,0.094 -0.949,0.12c-0.319,0.025 -0.637,0.037 -0.957,0.034c-4.407,-0.097 -7.674,-2.202 -9.602,-6.18c-0.034,-0.101 -0.076,-0.2 -0.127,-0.294c-0.051,-0.095 -0.111,-0.184 -0.177,-0.268c-0.067,-0.084 -0.14,-0.162 -0.221,-0.233c-0.08,-0.071 -0.166,-0.136 -0.257,-0.192c-0.091,-0.057 -0.187,-0.106 -0.287,-0.146c-0.099,-0.039 -0.201,-0.071 -0.307,-0.093c-0.105,-0.023 -0.211,-0.036 -0.318,-0.04c-0.107,-0.004 -0.215,0.002 -0.321,0.016c-4.729,0.06 -9.458,0.026 -14.306,0.026c-0.037,0.511 -0.091,0.92 -0.092,1.328c-0.006,5.691 0.014,11.381 -0.024,17.07c-0.015,0.182 -0.003,0.362 0.036,0.541c0.039,0.178 0.103,0.347 0.193,0.506c0.09,0.159 0.2,0.302 0.333,0.428c0.132,0.125 0.279,0.229 0.443,0.31c2.024,1.305 3.931,2.789 5.931,4.131c0.591,0.445 1.256,0.705 1.991,0.778c6.3,0.06 12.602,0.011 18.903,0.06c0.096,0.011 0.191,0.013 0.288,0.007c0.096,-0.007 0.191,-0.021 0.285,-0.044c0.093,-0.023 0.185,-0.055 0.273,-0.093c0.088,-0.039 0.173,-0.086 0.252,-0.139c0.08,-0.054 0.155,-0.114 0.225,-0.18c0.069,-0.067 0.133,-0.139 0.189,-0.217c0.057,-0.078 0.107,-0.161 0.149,-0.247c0.042,-0.086 0.076,-0.176 0.103,-0.269c0.085,-0.184 0.174,-0.365 0.269,-0.543c0.095,-0.179 0.195,-0.355 0.299,-0.528c0.105,-0.173 0.215,-0.343 0.329,-0.51c0.115,-0.167 0.233,-0.33 0.357,-0.491c0.123,-0.16 0.252,-0.317 0.384,-0.471c0.133,-0.153 0.269,-0.302 0.409,-0.447c0.141,-0.145 0.286,-0.287 0.434,-0.424c0.149,-0.138 0.302,-0.27 0.458,-0.398c0.156,-0.129 0.316,-0.253 0.48,-0.372c0.163,-0.119 0.33,-0.234 0.499,-0.345c0.17,-0.11 0.343,-0.215 0.518,-0.315c0.175,-0.101 0.354,-0.195 0.535,-0.286c0.181,-0.091 0.365,-0.175 0.55,-0.255c0.186,-0.081 0.374,-0.155 0.564,-0.224c0.19,-0.07 0.382,-0.133 0.576,-0.192c0.193,-0.059 0.388,-0.112 0.585,-0.159c0.196,-0.048 0.394,-0.09 0.593,-0.126c0.199,-0.037 0.399,-0.067 0.6,-0.092c0.2,-0.025 0.402,-0.044 0.604,-0.058c0.202,-0.014 0.403,-0.022 0.606,-0.024c0.202,-0.002 0.404,0.002 0.606,0.011c0.202,0.008 0.403,0.023 0.605,0.044c0.201,0.02 0.402,0.046 0.601,0.078c0.2,0.032 0.398,0.07 0.596,0.112c0.198,0.044 0.394,0.092 0.589,0.146c0.195,0.055 0.388,0.114 0.58,0.179c0.192,0.065 0.382,0.136 0.569,0.211c0.188,0.075 0.373,0.157 0.556,0.243c0.183,0.086 0.363,0.177 0.541,0.273c0.179,0.096 0.353,0.198 0.526,0.304c0.172,0.107 0.341,0.217 0.507,0.333c0.166,0.116 0.329,0.237 0.487,0.361c0.159,0.125 0.315,0.254 0.467,0.388c0.152,0.133 0.299,0.272 0.444,0.413c0.143,0.142 0.283,0.289 0.419,0.438c0.136,0.15 0.268,0.304 0.395,0.461c0.127,0.158 0.249,0.319 0.367,0.483c0.118,0.164 0.231,0.332 0.341,0.502c0.108,0.171 0.212,0.345 0.311,0.521c0.099,0.177 0.192,0.356 0.281,0.538c0.089,0.182 0.173,0.366 0.251,0.553c0.079,0.186 0.152,0.375 0.219,0.566c0.068,0.19 0.131,0.383 0.187,0.577c0.057,0.195 0.108,0.39 0.154,0.587c0.046,0.198 0.086,0.396 0.121,0.595c0.034,0.2 0.064,0.399 0.087,0.601c0.023,0.201 0.041,0.403 0.053,0.605c0.013,0.202 0.018,0.404 0.019,0.607c0.001,0.202 -0.004,0.404 -0.015,0.606c-0.011,0.202 -0.028,0.404 -0.049,0.606c-0.022,0.201 -0.049,0.402 -0.083,0.601c-0.034,0.2 -0.073,0.398 -0.117,0.595c-0.044,0.197 -0.095,0.393 -0.15,0.588c-0.056,0.195 -0.117,0.387 -0.184,0.579c-0.066,0.191 -0.138,0.381 -0.216,0.568c-0.077,0.187 -0.159,0.372 -0.247,0.554c-0.087,0.182 -0.18,0.362 -0.278,0.539c-0.098,0.177 -0.2,0.351 -0.308,0.523c-0.108,0.172 -0.221,0.341 -0.337,0.505c-0.117,0.165 -0.239,0.327 -0.365,0.486c-0.127,0.158 -0.257,0.313 -0.392,0.463c-0.135,0.151 -0.274,0.299 -0.417,0.441c-0.143,0.143 -0.29,0.282 -0.441,0.417c-0.151,0.134 -0.306,0.265 -0.465,0.391c-0.158,0.126 -0.32,0.247 -0.485,0.364c-0.165,0.117 -0.334,0.229 -0.505,0.336c-0.172,0.107 -0.346,0.21 -0.523,0.308c-0.177,0.097 -0.357,0.19 -0.539,0.277c-0.183,0.088 -0.367,0.169 -0.554,0.247c-0.187,0.077 -0.377,0.148 -0.568,0.215c-0.191,0.066 -0.384,0.127 -0.579,0.183c-0.195,0.055 -0.39,0.105 -0.588,0.149c-0.197,0.044 -0.396,0.083 -0.595,0.116c-0.199,0.034 -0.399,0.061 -0.601,0.083c-0.201,0.022 -0.403,0.038 -0.605,0.048c-0.202,0.011 -0.404,0.015 -0.606,0.014c-0.202,-0.001 -0.404,-0.008 -0.606,-0.02c-0.202,-0.013 -0.403,-0.03 -0.604,-0.055c-0.201,-0.023 -0.401,-0.053 -0.601,-0.088c-0.199,-0.035 -0.397,-0.075 -0.594,-0.122c-0.197,-0.046 -0.393,-0.098 -0.586,-0.155c-0.195,-0.058 -0.387,-0.12 -0.577,-0.189c-0.19,-0.068 -0.379,-0.142 -0.565,-0.22c-0.186,-0.079 -0.371,-0.163 -0.552,-0.252c-0.182,-0.089 -0.361,-0.183 -0.537,-0.283c-0.176,-0.099 -0.35,-0.203 -0.52,-0.312c-0.17,-0.109 -0.338,-0.223 -0.502,-0.341c-0.164,-0.118 -0.325,-0.242 -0.482,-0.369c-0.157,-0.127 -0.31,-0.259 -0.46,-0.396c-0.15,-0.136 -0.295,-0.277 -0.437,-0.421c-0.142,-0.144 -0.279,-0.293 -0.413,-0.445c-0.134,-0.153 -0.263,-0.308 -0.387,-0.468c-0.124,-0.159 -0.245,-0.322 -0.36,-0.488c-0.116,-0.166 -0.226,-0.335 -0.332,-0.508c-0.106,-0.173 -0.207,-0.348 -0.303,-0.526c-0.096,-0.179 -0.187,-0.359 -0.273,-0.543c-0.03,-0.096 -0.069,-0.19 -0.116,-0.28c-0.047,-0.091 -0.101,-0.175 -0.163,-0.256c-0.062,-0.081 -0.13,-0.155 -0.205,-0.224c-0.075,-0.069 -0.155,-0.13 -0.242,-0.185c-0.086,-0.054 -0.175,-0.101 -0.269,-0.138c-0.094,-0.039 -0.19,-0.069 -0.289,-0.09c-0.1,-0.022 -0.2,-0.034 -0.301,-0.038c-0.101,-0.004 -0.202,0.002 -0.303,0.015c-4.83,0.046 -9.66,0.021 -14.7,0.021c5.132,9.977 5.17,19.873 -0.015,29.936l5.215,0c3.174,0 6.35,-0.029 9.523,0.018c0.09,0.015 0.18,0.021 0.271,0.019c0.091,-0.002 0.18,-0.012 0.269,-0.03c0.089,-0.018 0.175,-0.044 0.259,-0.079c0.085,-0.034 0.164,-0.076 0.241,-0.125c0.077,-0.049 0.148,-0.105 0.215,-0.167c0.066,-0.062 0.126,-0.13 0.179,-0.203c0.055,-0.073 0.101,-0.15 0.141,-0.232c0.039,-0.081 0.071,-0.166 0.096,-0.254c0.121,-0.296 0.254,-0.586 0.401,-0.871c0.147,-0.283 0.306,-0.561 0.478,-0.831c0.172,-0.269 0.356,-0.531 0.551,-0.784c0.195,-0.253 0.401,-0.498 0.618,-0.733c0.217,-0.234 0.445,-0.459 0.682,-0.673c0.237,-0.215 0.484,-0.418 0.739,-0.61c0.256,-0.192 0.52,-0.372 0.792,-0.541c0.272,-0.169 0.55,-0.325 0.836,-0.468c0.285,-0.143 0.577,-0.274 0.875,-0.391c0.297,-0.117 0.6,-0.221 0.907,-0.311c0.306,-0.09 0.616,-0.166 0.93,-0.228c0.314,-0.062 0.629,-0.111 0.948,-0.144c0.318,-0.034 0.637,-0.053 0.956,-0.058c0.32,-0.005 0.639,0.004 0.958,0.028c0.319,0.023 0.636,0.061 0.951,0.114c0.315,0.052 0.628,0.118 0.938,0.198c0.29,0.075 0.576,0.161 0.86,0.26c0.283,0.098 0.561,0.208 0.835,0.33c0.274,0.122 0.542,0.255 0.804,0.399c0.263,0.144 0.519,0.299 0.769,0.465c0.249,0.166 0.491,0.341 0.726,0.528c0.236,0.186 0.462,0.382 0.681,0.586c0.219,0.205 0.429,0.419 0.629,0.641c0.2,0.222 0.392,0.453 0.574,0.691c0.181,0.239 0.353,0.485 0.513,0.737c0.161,0.252 0.312,0.512 0.451,0.777c0.139,0.265 0.268,0.536 0.384,0.812c0.117,0.276 0.221,0.557 0.315,0.841c0.094,0.285 0.175,0.574 0.244,0.865c0.07,0.292 0.127,0.586 0.171,0.882c0.044,0.297 0.076,0.595 0.096,0.893c0.02,0.299 0.027,0.599 0.022,0.898c-0.005,0.3 -0.023,0.599 -0.053,0.897c-0.03,0.299 -0.073,0.595 -0.128,0.889c-0.055,0.295 -0.122,0.587 -0.201,0.876c-0.08,0.289 -0.171,0.575 -0.274,0.856c-0.103,0.281 -0.218,0.558 -0.345,0.829c-0.126,0.272 -0.263,0.538 -0.412,0.798c-0.148,0.26 -0.308,0.514 -0.478,0.761c-0.169,0.247 -0.349,0.486 -0.539,0.719c-0.19,0.231 -0.388,0.455 -0.597,0.67c-0.208,0.216 -0.425,0.422 -0.651,0.619c-0.226,0.197 -0.46,0.384 -0.701,0.562c-0.241,0.178 -0.49,0.345 -0.745,0.502c-0.255,0.157 -0.517,0.303 -0.784,0.437c-0.268,0.135 -0.54,0.259 -0.818,0.371c-0.278,0.112 -0.56,0.212 -0.846,0.301c-0.286,0.088 -0.575,0.164 -0.868,0.229c-0.286,0.065 -0.574,0.117 -0.864,0.158c-0.29,0.041 -0.582,0.07 -0.875,0.086c-0.292,0.017 -0.585,0.021 -0.878,0.013c-0.293,-0.008 -0.585,-0.028 -0.876,-0.06c-0.291,-0.032 -0.58,-0.075 -0.868,-0.132c-0.288,-0.055 -0.573,-0.123 -0.855,-0.203c-0.282,-0.079 -0.56,-0.17 -0.835,-0.273c-0.275,-0.102 -0.544,-0.216 -0.81,-0.341c-0.265,-0.124 -0.524,-0.26 -0.778,-0.407c-0.254,-0.146 -0.502,-0.303 -0.742,-0.47c-0.241,-0.167 -0.475,-0.343 -0.701,-0.529c-0.226,-0.186 -0.445,-0.382 -0.655,-0.585c-0.21,-0.205 -0.412,-0.418 -0.604,-0.638c-0.193,-0.221 -0.376,-0.45 -0.549,-0.686c-0.174,-0.236 -0.338,-0.479 -0.491,-0.728c-0.153,-0.25 -0.297,-0.506 -0.429,-0.767c-0.04,-0.106 -0.089,-0.208 -0.146,-0.305c-0.058,-0.098 -0.122,-0.19 -0.195,-0.277c-0.073,-0.086 -0.153,-0.167 -0.239,-0.24c-0.086,-0.074 -0.178,-0.139 -0.275,-0.197c-0.097,-0.058 -0.199,-0.107 -0.304,-0.148c-0.106,-0.041 -0.214,-0.073 -0.325,-0.096c-0.111,-0.023 -0.223,-0.035 -0.336,-0.039c-0.113,-0.003 -0.226,0.002 -0.338,0.017c-6.207,0.048 -12.414,-0.003 -18.621,0.06c-0.782,0.073 -1.489,0.341 -2.122,0.807c-2.046,1.36 -4.043,2.792 -6.029,4.242c-0.363,0.265 -0.819,0.737 -0.82,1.117c-0.034,6.211 0,12.42 0.018,18.63c0,0.038 0.053,0.075 0.162,0.218c0.321,0.023 0.731,0.08 1.142,0.08c4.406,0.007 8.812,-0.024 13.218,0.028c0.096,0.013 0.192,0.016 0.289,0.012c0.096,-0.005 0.191,-0.018 0.285,-0.039c0.095,-0.021 0.186,-0.051 0.275,-0.089c0.089,-0.037 0.174,-0.082 0.255,-0.135c0.081,-0.053 0.156,-0.112 0.226,-0.178c0.07,-0.066 0.135,-0.138 0.193,-0.216c0.058,-0.077 0.108,-0.159 0.152,-0.246c0.043,-0.086 0.079,-0.176 0.106,-0.268c0.126,-0.278 0.263,-0.551 0.411,-0.817c0.148,-0.267 0.308,-0.527 0.478,-0.779c0.171,-0.253 0.352,-0.498 0.543,-0.736c0.192,-0.237 0.393,-0.465 0.605,-0.685c0.211,-0.221 0.431,-0.431 0.66,-0.632c0.23,-0.201 0.467,-0.393 0.713,-0.573c0.246,-0.181 0.498,-0.351 0.758,-0.51c0.261,-0.159 0.527,-0.306 0.8,-0.443c0.273,-0.136 0.551,-0.26 0.835,-0.372c0.283,-0.112 0.571,-0.212 0.863,-0.299c0.292,-0.087 0.587,-0.163 0.886,-0.225c0.299,-0.062 0.599,-0.112 0.902,-0.148c0.303,-0.037 0.606,-0.06 0.911,-0.07c0.304,-0.01 0.609,-0.008 0.913,0.008c0.304,0.016 0.608,0.044 0.91,0.086c0.302,0.042 0.601,0.096 0.899,0.164c0.29,0.065 0.578,0.14 0.862,0.228c0.284,0.088 0.564,0.188 0.84,0.299c0.276,0.112 0.547,0.234 0.813,0.368c0.266,0.133 0.526,0.278 0.78,0.434c0.253,0.155 0.501,0.32 0.741,0.497c0.24,0.176 0.472,0.361 0.697,0.557c0.225,0.195 0.441,0.399 0.649,0.612c0.208,0.213 0.406,0.434 0.595,0.664c0.19,0.23 0.369,0.467 0.538,0.711c0.17,0.245 0.33,0.496 0.478,0.754c0.149,0.257 0.287,0.522 0.414,0.791c0.127,0.269 0.242,0.543 0.346,0.822c0.104,0.279 0.197,0.562 0.278,0.848c0.081,0.287 0.149,0.576 0.206,0.869c0.057,0.292 0.101,0.586 0.133,0.882c0.033,0.296 0.053,0.593 0.06,0.891c0.008,0.298 0.003,0.595 -0.013,0.892c-0.018,0.298 -0.046,0.594 -0.088,0.888c-0.042,0.295 -0.096,0.588 -0.161,0.878c-0.065,0.29 -0.143,0.578 -0.233,0.861c-0.09,0.284 -0.191,0.564 -0.304,0.84c-0.113,0.275 -0.237,0.546 -0.372,0.811c-0.135,0.265 -0.282,0.524 -0.439,0.777c-0.157,0.253 -0.324,0.499 -0.501,0.738c-0.177,0.24 -0.364,0.471 -0.56,0.694c-0.197,0.224 -0.402,0.439 -0.616,0.646c-0.214,0.206 -0.437,0.403 -0.668,0.592c-0.231,0.188 -0.469,0.367 -0.714,0.534c-0.246,0.169 -0.497,0.326 -0.757,0.474c-0.258,0.148 -0.523,0.283 -0.793,0.409c-0.27,0.125 -0.544,0.239 -0.824,0.341c-0.279,0.103 -0.563,0.194 -0.85,0.273c-0.301,0.086 -0.606,0.159 -0.914,0.219c-0.308,0.06 -0.617,0.105 -0.929,0.138c-0.312,0.032 -0.625,0.049 -0.939,0.054c-0.314,0.004 -0.627,-0.005 -0.939,-0.029c-0.313,-0.023 -0.624,-0.06 -0.933,-0.112c-0.309,-0.051 -0.616,-0.117 -0.92,-0.195c-0.304,-0.078 -0.603,-0.17 -0.898,-0.275c-0.296,-0.105 -0.586,-0.222 -0.871,-0.353c-0.285,-0.131 -0.564,-0.273 -0.836,-0.429c-0.273,-0.155 -0.538,-0.322 -0.796,-0.502c-0.257,-0.179 -0.507,-0.368 -0.747,-0.569c-0.241,-0.201 -0.472,-0.413 -0.694,-0.634c-0.222,-0.221 -0.434,-0.452 -0.636,-0.693c-0.202,-0.241 -0.393,-0.489 -0.572,-0.746c-0.18,-0.257 -0.348,-0.522 -0.504,-0.794c-0.157,-0.272 -0.3,-0.55 -0.432,-0.835c-0.033,-0.103 -0.073,-0.202 -0.123,-0.298c-0.049,-0.096 -0.107,-0.187 -0.173,-0.273c-0.065,-0.086 -0.138,-0.165 -0.217,-0.238c-0.08,-0.073 -0.164,-0.138 -0.255,-0.197c-0.091,-0.058 -0.186,-0.107 -0.286,-0.149c-0.1,-0.041 -0.202,-0.074 -0.307,-0.097c-0.106,-0.024 -0.212,-0.039 -0.32,-0.043c-0.107,-0.005 -0.215,-0.001 -0.322,0.013c-5.637,0.06 -11.275,0.033 -16.914,0.028c-2.976,0 -4.126,-1.146 -4.128,-4.117c-0.008,-6.022 -0.008,-12.044 0,-18.066l0,-1.698c-2.253,0.491 -4.532,0.736 -6.838,0.735c-2.306,-0.001 -4.584,-0.249 -6.836,-0.743c-0.029,0.643 -0.07,1.14 -0.07,1.638c-0.004,6.022 -0.007,12.044 -0.006,18.066c-0.004,3.059 -1.143,4.182 -4.221,4.185c-5.638,0.005 -11.275,0.023 -16.913,-0.019c-0.101,-0.014 -0.204,-0.018 -0.305,-0.015c-0.102,0.004 -0.204,0.018 -0.304,0.039c-0.1,0.022 -0.197,0.052 -0.292,0.091c-0.094,0.039 -0.185,0.086 -0.272,0.14c-0.086,0.055 -0.168,0.116 -0.243,0.185c-0.076,0.068 -0.145,0.143 -0.208,0.224c-0.063,0.081 -0.118,0.166 -0.167,0.256c-0.048,0.091 -0.087,0.185 -0.119,0.282c-0.135,0.296 -0.283,0.586 -0.445,0.869c-0.162,0.283 -0.335,0.558 -0.523,0.824c-0.187,0.267 -0.386,0.525 -0.595,0.773c-0.211,0.249 -0.432,0.487 -0.664,0.715c-0.232,0.229 -0.475,0.446 -0.726,0.653c-0.252,0.206 -0.513,0.4 -0.783,0.583c-0.269,0.182 -0.547,0.351 -0.833,0.508c-0.285,0.157 -0.577,0.3 -0.876,0.431c-0.299,0.13 -0.602,0.246 -0.911,0.348c-0.309,0.102 -0.622,0.19 -0.94,0.264c-0.317,0.074 -0.637,0.133 -0.959,0.177c-0.322,0.044 -0.646,0.074 -0.971,0.088c-0.325,0.015 -0.651,0.014 -0.976,-0.001c-0.325,-0.015 -0.649,-0.045 -0.971,-0.09c-0.323,-0.045 -0.642,-0.104 -0.959,-0.179c-0.317,-0.074 -0.63,-0.163 -0.939,-0.265c-0.304,-0.101 -0.602,-0.215 -0.895,-0.342c-0.294,-0.127 -0.58,-0.268 -0.861,-0.42c-0.281,-0.153 -0.554,-0.318 -0.82,-0.495c-0.266,-0.177 -0.524,-0.366 -0.773,-0.566c-0.249,-0.2 -0.49,-0.411 -0.72,-0.632c-0.23,-0.221 -0.45,-0.453 -0.661,-0.694c-0.21,-0.241 -0.408,-0.491 -0.596,-0.75c-0.188,-0.259 -0.364,-0.525 -0.528,-0.8c-0.164,-0.274 -0.316,-0.555 -0.455,-0.843c-0.138,-0.289 -0.265,-0.582 -0.378,-0.881c-0.113,-0.299 -0.212,-0.602 -0.299,-0.911c-0.086,-0.308 -0.159,-0.619 -0.217,-0.933c-0.058,-0.315 -0.102,-0.631 -0.133,-0.949c-0.03,-0.319 -0.047,-0.637 -0.049,-0.957c-0.002,-0.32 0.01,-0.64 0.037,-0.959c0.026,-0.319 0.066,-0.636 0.122,-0.95c0.053,-0.319 0.121,-0.635 0.202,-0.947c0.082,-0.313 0.178,-0.621 0.288,-0.925c0.11,-0.304 0.234,-0.602 0.371,-0.894c0.137,-0.293 0.287,-0.579 0.45,-0.858c0.163,-0.278 0.338,-0.55 0.525,-0.813c0.188,-0.263 0.387,-0.517 0.597,-0.762c0.211,-0.245 0.431,-0.48 0.663,-0.705c0.231,-0.226 0.473,-0.439 0.725,-0.642c0.251,-0.203 0.511,-0.394 0.779,-0.574c0.268,-0.179 0.544,-0.346 0.829,-0.5c0.283,-0.154 0.574,-0.296 0.87,-0.424c0.297,-0.128 0.598,-0.242 0.905,-0.343c0.307,-0.101 0.617,-0.187 0.932,-0.259c0.315,-0.072 0.632,-0.13 0.952,-0.174c0.32,-0.044 0.642,-0.073 0.964,-0.087c0.323,-0.014 0.645,-0.013 0.968,0.001c4.34,0.221 7.455,2.426 9.412,6.318c0.226,0.45 0.793,1.028 1.209,1.034c4.832,0.068 9.664,0.039 14.497,0.029c0.192,-0.032 0.378,-0.084 0.559,-0.154Zm13.517,-70.408c-0.388,0 -0.776,0.01 -1.164,0.029c-0.387,0.019 -0.774,0.048 -1.161,0.086c-0.387,0.038 -0.772,0.086 -1.156,0.143c-0.384,0.057 -0.767,0.123 -1.147,0.199c-0.381,0.075 -0.759,0.161 -1.136,0.255c-0.377,0.095 -0.751,0.198 -1.122,0.31c-0.372,0.113 -0.74,0.235 -1.105,0.366c-0.366,0.131 -0.728,0.27 -1.087,0.419c-0.358,0.149 -0.713,0.306 -1.064,0.472c-0.351,0.166 -0.698,0.341 -1.04,0.523c-0.342,0.184 -0.68,0.375 -1.013,0.575c-0.333,0.2 -0.661,0.407 -0.984,0.623c-0.323,0.216 -0.64,0.439 -0.952,0.67c-0.312,0.231 -0.618,0.471 -0.918,0.717c-0.3,0.246 -0.594,0.5 -0.881,0.761c-0.289,0.261 -0.569,0.528 -0.844,0.803c-0.275,0.275 -0.543,0.556 -0.803,0.844c-0.261,0.288 -0.514,0.582 -0.761,0.882c-0.247,0.299 -0.486,0.606 -0.716,0.918c-0.231,0.312 -0.455,0.63 -0.671,0.953c-0.216,0.323 -0.424,0.651 -0.624,0.984c-0.2,0.334 -0.391,0.671 -0.574,1.014c-0.184,0.342 -0.358,0.689 -0.524,1.04c-0.166,0.351 -0.324,0.706 -0.472,1.065c-0.149,0.359 -0.289,0.721 -0.42,1.087c-0.131,0.366 -0.252,0.735 -0.366,1.106c-0.112,0.372 -0.216,0.746 -0.311,1.123c-0.094,0.377 -0.179,0.756 -0.256,1.136c-0.075,0.382 -0.142,0.764 -0.2,1.148c-0.057,0.384 -0.105,0.77 -0.143,1.157c-0.039,0.387 -0.067,0.774 -0.086,1.162c-0.019,0.388 -0.029,0.777 -0.029,1.165c-0.001,0.388 0.008,0.777 0.028,1.165c0.018,0.388 0.047,0.776 0.085,1.162c0.038,0.387 0.085,0.772 0.142,1.157c0.057,0.384 0.122,0.767 0.198,1.148c0.075,0.381 0.161,0.76 0.255,1.136c0.094,0.377 0.197,0.751 0.309,1.124c0.112,0.372 0.234,0.741 0.364,1.106c0.131,0.366 0.27,0.728 0.419,1.088c0.148,0.359 0.305,0.714 0.471,1.065c0.165,0.351 0.34,0.699 0.523,1.042c0.183,0.342 0.374,0.68 0.573,1.014c0.2,0.333 0.407,0.662 0.622,0.985c0.216,0.324 0.439,0.641 0.669,0.954c0.231,0.312 0.47,0.618 0.715,0.919c0.247,0.3 0.5,0.595 0.76,0.882c0.261,0.289 0.528,0.57 0.803,0.845c0.274,0.275 0.554,0.543 0.842,0.804c0.288,0.262 0.581,0.515 0.881,0.762c0.3,0.247 0.606,0.486 0.918,0.717c0.312,0.232 0.629,0.456 0.951,0.672c0.323,0.216 0.651,0.424 0.983,0.625c0.333,0.2 0.671,0.392 1.013,0.575c0.342,0.183 0.689,0.358 1.039,0.524c0.351,0.167 0.705,0.325 1.063,0.474c0.359,0.148 0.72,0.289 1.086,0.42c0.366,0.131 0.734,0.253 1.105,0.367c0.372,0.113 0.745,0.217 1.121,0.312c0.377,0.095 0.756,0.18 1.136,0.257c0.381,0.076 0.763,0.143 1.147,0.2c0.384,0.057 0.769,0.105 1.155,0.143c0.387,0.039 0.773,0.068 1.162,0.087c0.387,0.019 0.776,0.029 1.163,0.029c0.388,0.001 0.777,-0.008 1.164,-0.027c0.388,-0.018 0.775,-0.047 1.162,-0.085c0.386,-0.038 0.772,-0.085 1.156,-0.141c0.384,-0.057 0.767,-0.122 1.147,-0.198c0.381,-0.075 0.759,-0.16 1.136,-0.254c0.377,-0.094 0.751,-0.197 1.123,-0.309c0.372,-0.112 0.74,-0.234 1.105,-0.364c0.366,-0.131 0.728,-0.27 1.087,-0.419c0.359,-0.148 0.714,-0.305 1.065,-0.471c0.351,-0.166 0.698,-0.34 1.041,-0.523c0.342,-0.183 0.68,-0.374 1.013,-0.574c0.334,-0.199 0.662,-0.407 0.985,-0.621c0.323,-0.216 0.641,-0.439 0.953,-0.67c0.312,-0.231 0.618,-0.47 0.918,-0.715c0.301,-0.247 0.595,-0.5 0.883,-0.76c0.288,-0.261 0.569,-0.528 0.844,-0.803c0.275,-0.274 0.543,-0.555 0.804,-0.843c0.261,-0.288 0.515,-0.581 0.762,-0.881c0.247,-0.299 0.486,-0.606 0.717,-0.918c0.232,-0.312 0.456,-0.629 0.672,-0.952c0.216,-0.322 0.424,-0.65 0.625,-0.983c0.2,-0.333 0.392,-0.671 0.575,-1.013c0.183,-0.342 0.358,-0.689 0.524,-1.04c0.167,-0.351 0.325,-0.706 0.474,-1.065c0.149,-0.358 0.289,-0.72 0.42,-1.086c0.132,-0.366 0.254,-0.734 0.367,-1.106c0.113,-0.372 0.217,-0.746 0.312,-1.122c0.095,-0.377 0.18,-0.756 0.257,-1.136c0.076,-0.381 0.143,-0.763 0.2,-1.148c0.058,-0.384 0.106,-0.769 0.144,-1.156c0.039,-0.387 0.068,-0.774 0.088,-1.162c0.019,-0.387 0.029,-0.776 0.03,-1.164c0,-0.389 -0.008,-0.778 -0.027,-1.167c-0.019,-0.388 -0.047,-0.776 -0.085,-1.163c-0.038,-0.387 -0.085,-0.773 -0.141,-1.158c-0.056,-0.385 -0.122,-0.767 -0.198,-1.149c-0.075,-0.382 -0.16,-0.762 -0.254,-1.139c-0.094,-0.377 -0.197,-0.752 -0.309,-1.125c-0.112,-0.372 -0.233,-0.741 -0.364,-1.108c-0.131,-0.367 -0.27,-0.73 -0.419,-1.089c-0.148,-0.36 -0.305,-0.715 -0.471,-1.067c-0.166,-0.352 -0.341,-0.699 -0.523,-1.042c-0.183,-0.344 -0.374,-0.682 -0.574,-1.016c-0.199,-0.334 -0.407,-0.663 -0.622,-0.986c-0.216,-0.324 -0.439,-0.642 -0.67,-0.954c-0.231,-0.313 -0.47,-0.62 -0.716,-0.92c-0.247,-0.301 -0.5,-0.595 -0.761,-0.884c-0.261,-0.289 -0.528,-0.57 -0.803,-0.846c-0.275,-0.275 -0.556,-0.543 -0.844,-0.804c-0.288,-0.262 -0.582,-0.516 -0.881,-0.763c-0.3,-0.247 -0.606,-0.486 -0.918,-0.718c-0.312,-0.232 -0.63,-0.456 -0.953,-0.673c-0.323,-0.216 -0.651,-0.424 -0.985,-0.625c-0.333,-0.2 -0.671,-0.392 -1.013,-0.575c-0.343,-0.184 -0.69,-0.359 -1.041,-0.525c-0.351,-0.167 -0.706,-0.325 -1.065,-0.474c-0.36,-0.149 -0.722,-0.289 -1.088,-0.42c-0.366,-0.132 -0.735,-0.253 -1.106,-0.367c-0.372,-0.113 -0.746,-0.217 -1.123,-0.312c-0.377,-0.095 -0.757,-0.179 -1.137,-0.256c-0.382,-0.076 -0.764,-0.143 -1.148,-0.2c-0.385,-0.057 -0.771,-0.105 -1.157,-0.143c-0.387,-0.039 -0.774,-0.067 -1.162,-0.086c-0.387,-0.019 -0.776,-0.029 -1.165,-0.029Z" style="fill:#189caa;fill-rule:nonzero;"/><path d="M112.562,87.403c10.452,0.716 18.305,9.332 17.77,19.262c-0.013,0.304 -0.034,0.608 -0.062,0.911c-0.028,0.304 -0.064,0.606 -0.107,0.907c-0.043,0.301 -0.093,0.601 -0.151,0.901c-0.058,0.299 -0.122,0.596 -0.195,0.892c-0.072,0.296 -0.152,0.59 -0.238,0.881c-0.087,0.292 -0.181,0.581 -0.282,0.869c-0.101,0.288 -0.209,0.572 -0.324,0.854c-0.115,0.282 -0.237,0.561 -0.365,0.837c-0.128,0.276 -0.263,0.549 -0.405,0.818c-0.143,0.269 -0.291,0.535 -0.445,0.798c-0.155,0.262 -0.316,0.52 -0.484,0.774c-0.168,0.254 -0.341,0.504 -0.521,0.75c-0.18,0.245 -0.366,0.486 -0.558,0.723c-0.191,0.237 -0.389,0.468 -0.592,0.694c-0.203,0.227 -0.411,0.449 -0.625,0.665c-0.214,0.216 -0.433,0.428 -0.658,0.633c-0.224,0.206 -0.453,0.406 -0.687,0.601c-0.235,0.195 -0.473,0.383 -0.716,0.566c-0.243,0.183 -0.491,0.36 -0.743,0.53c-0.252,0.17 -0.508,0.335 -0.768,0.493c-0.26,0.158 -0.523,0.309 -0.791,0.455c-0.268,0.145 -0.538,0.283 -0.813,0.415c-0.274,0.132 -0.552,0.257 -0.832,0.375c-0.28,0.118 -0.564,0.23 -0.85,0.334c-0.286,0.104 -0.574,0.201 -0.865,0.291c-0.29,0.091 -0.583,0.174 -0.878,0.249c-0.294,0.075 -0.59,0.144 -0.889,0.205c-0.298,0.061 -0.597,0.115 -0.898,0.161c-0.3,0.046 -0.602,0.086 -0.904,0.117c-0.303,0.031 -0.606,0.055 -0.91,0.072c-0.304,0.017 -0.608,0.026 -0.912,0.028c-0.304,0.002 -0.609,-0.003 -0.913,-0.017c-0.303,-0.012 -0.606,-0.032 -0.907,-0.059c-0.302,-0.027 -0.603,-0.061 -0.903,-0.103c-0.3,-0.042 -0.599,-0.091 -0.897,-0.148c-0.298,-0.056 -0.594,-0.121 -0.889,-0.192c-0.294,-0.071 -0.587,-0.149 -0.878,-0.235c-0.29,-0.086 -0.579,-0.179 -0.866,-0.279c-0.286,-0.1 -0.569,-0.207 -0.85,-0.321c-0.281,-0.114 -0.559,-0.235 -0.834,-0.362c-0.274,-0.128 -0.546,-0.263 -0.814,-0.404c-0.268,-0.141 -0.533,-0.289 -0.794,-0.444c-0.261,-0.154 -0.517,-0.315 -0.771,-0.481c-0.252,-0.168 -0.502,-0.341 -0.746,-0.52c-0.245,-0.179 -0.485,-0.365 -0.72,-0.556c-0.236,-0.191 -0.466,-0.388 -0.692,-0.591c-0.226,-0.202 -0.445,-0.41 -0.661,-0.624c-0.216,-0.214 -0.425,-0.433 -0.63,-0.657c-0.204,-0.224 -0.403,-0.453 -0.596,-0.686c-0.193,-0.234 -0.38,-0.472 -0.562,-0.715c-0.181,-0.243 -0.356,-0.491 -0.526,-0.742c-0.169,-0.252 -0.331,-0.507 -0.488,-0.767c-0.157,-0.26 -0.306,-0.523 -0.45,-0.791c-0.143,-0.267 -0.28,-0.538 -0.41,-0.812c-0.13,-0.273 -0.253,-0.551 -0.37,-0.831c-0.117,-0.28 -0.226,-0.563 -0.328,-0.848c-0.102,-0.286 -0.198,-0.574 -0.286,-0.864c-0.089,-0.29 -0.169,-0.582 -0.243,-0.876c-0.074,-0.294 -0.14,-0.59 -0.2,-0.888c-0.06,-0.297 -0.111,-0.596 -0.155,-0.896c-0.044,-0.3 -0.081,-0.601 -0.111,-0.903c-0.03,-0.302 -0.052,-0.605 -0.066,-0.907c-0.015,-0.303 -0.022,-0.606 -0.022,-0.91c0.001,-0.303 0.008,-0.606 0.023,-0.909c0.588,-10.469 9.336,-18.399 19.249,-17.72Zm-0.798,30.355c0.387,0.002 0.774,-0.016 1.16,-0.053c0.386,-0.037 0.769,-0.093 1.149,-0.168c0.381,-0.074 0.757,-0.167 1.127,-0.278c0.372,-0.112 0.736,-0.242 1.094,-0.388c0.359,-0.148 0.71,-0.312 1.052,-0.494c0.342,-0.182 0.674,-0.381 0.997,-0.595c0.323,-0.215 0.635,-0.445 0.935,-0.689c0.3,-0.246 0.587,-0.505 0.862,-0.778c0.275,-0.274 0.535,-0.56 0.782,-0.86c0.247,-0.299 0.478,-0.61 0.694,-0.932c0.216,-0.322 0.416,-0.654 0.599,-0.996c0.184,-0.342 0.35,-0.692 0.499,-1.05c0.149,-0.358 0.28,-0.722 0.393,-1.093c0.113,-0.372 0.208,-0.747 0.284,-1.127c0.076,-0.381 0.134,-0.763 0.173,-1.15c0.039,-0.386 0.059,-0.772 0.059,-1.161c0.001,-0.387 -0.018,-0.774 -0.055,-1.161c-0.038,-0.386 -0.094,-0.769 -0.169,-1.15c-0.075,-0.381 -0.169,-0.757 -0.281,-1.128c-0.112,-0.371 -0.242,-0.736 -0.389,-1.094c-0.148,-0.359 -0.314,-0.71 -0.496,-1.052c-0.182,-0.342 -0.381,-0.674 -0.595,-0.997c-0.216,-0.323 -0.445,-0.634 -0.691,-0.934c-0.246,-0.3 -0.505,-0.588 -0.779,-0.862c-0.273,-0.274 -0.56,-0.535 -0.86,-0.782c-0.299,-0.246 -0.61,-0.477 -0.932,-0.693c-0.322,-0.216 -0.654,-0.415 -0.996,-0.598c-0.342,-0.184 -0.692,-0.349 -1.05,-0.498c-0.358,-0.148 -0.722,-0.279 -1.093,-0.392c-0.371,-0.113 -0.746,-0.207 -1.126,-0.283c-0.381,-0.075 -0.763,-0.133 -1.149,-0.171c-0.386,-0.038 -0.772,-0.057 -1.16,-0.057c-0.387,0 -0.774,0.019 -1.16,0.057c-0.386,0.038 -0.768,0.095 -1.149,0.17c-0.38,0.075 -0.756,0.169 -1.126,0.283c-0.371,0.112 -0.736,0.243 -1.094,0.392c-0.358,0.148 -0.708,0.314 -1.049,0.497c-0.342,0.184 -0.674,0.382 -0.996,0.598c-0.322,0.216 -0.632,0.447 -0.933,0.693c-0.299,0.247 -0.586,0.507 -0.86,0.781c-0.274,0.275 -0.534,0.562 -0.779,0.862c-0.246,0.299 -0.476,0.611 -0.692,0.933c-0.215,0.323 -0.413,0.655 -0.596,0.997c-0.182,0.342 -0.347,0.693 -0.496,1.052c-0.148,0.358 -0.278,0.723 -0.39,1.094c-0.112,0.372 -0.205,0.747 -0.281,1.128c-0.075,0.38 -0.132,0.763 -0.169,1.15c-0.037,0.386 -0.056,0.772 -0.055,1.161c-0.003,0.387 0.013,0.773 0.049,1.159c0.036,0.386 0.09,0.769 0.164,1.149c0.073,0.381 0.165,0.757 0.276,1.128c0.11,0.371 0.239,0.736 0.386,1.094c0.146,0.358 0.31,0.709 0.491,1.051c0.181,0.342 0.379,0.674 0.593,0.997c0.215,0.323 0.444,0.634 0.689,0.933c0.245,0.3 0.504,0.587 0.777,0.861c0.273,0.274 0.559,0.534 0.859,0.78c0.299,0.246 0.61,0.476 0.931,0.691c0.322,0.215 0.654,0.413 0.996,0.595c0.341,0.182 0.691,0.347 1.049,0.494c0.358,0.148 0.722,0.277 1.093,0.388c0.371,0.112 0.746,0.205 1.126,0.278c0.38,0.074 0.762,0.129 1.147,0.165c0.386,0.036 0.772,0.054 1.159,0.051Z" style="fill:#189caa;fill-rule:nonzero;"/></g></svg>