<?xml version="1.0" encoding="UTF-8" standalone="no"?><!DOCTYPE svg PUBLIC "-//W3C//DTD SVG 1.1//EN" "http://www.w3.org/Graphics/SVG/1.1/DTD/svg11.dtd"><svg width="100%" height="100%" viewBox="0 0 224 212" version="1.1" xmlns="http://www.w3.org/2000/svg" xmlns:xlink="http://www.w3.org/1999/xlink" xml:space="preserve" xmlns:serif="http://www.serif.com/" style="fill-rule:evenodd;clip-rule:evenodd;stroke-linejoin:round;stroke-miterlimit:2;"><rect id="Kettlebell" x="0" y="0.384" width="223.502" height="211.507" style="fill:none;"/><g id="Kettlebell1" serif:id="Kettlebell"><path id="Hex" d="M65.789,169.627l-37.578,-17.757c-3.776,-1.784 -6.234,-5.168 -6.234,-8.965l0,-73.242c0,-3.797 2.458,-7.184 6.234,-8.968l31.313,-14.796c-1.327,3.616 -2.058,7.406 -2.182,11.226l-24.159,11.417c-0.627,0.296 -0.882,0.765 -0.882,1.122l0,73.242c0,0.357 0.255,0.826 0.882,1.122l22.503,10.634c2.646,5.477 6.059,10.512 10.103,14.966Zm100.705,-122.539l28.795,13.607c3.776,1.784 6.237,5.171 6.237,8.968l0,73.242c0,3.797 -2.464,7.181 -6.237,8.965l-33.987,16.061c3.7,-4.38 6.815,-9.269 9.223,-14.549l19.795,-9.354c0.627,-0.296 0.882,-0.765 0.882,-1.122l0,-73.242c0,-0.357 -0.255,-0.826 -0.882,-1.122l-22.041,-10.416c-0.016,-3.74 -0.615,-7.463 -1.785,-11.037Zm-39.292,136.957l-9.409,4.446c-3.721,1.761 -8.361,1.761 -12.082,0l-9.41,-4.446l30.901,0Z" style="fill:#189caa;stroke:#189caa;stroke-width:0.5px;"/><path id="Kettlebell2" serif:id="Kettlebell" d="M167.57,113.344c-2.443,-10.363 -7.998,-19.667 -15.546,-26.933l7.033,-16.991c3.72,-8.994 2.723,-19.185 -2.692,-27.292c-5.399,-8.091 -14.425,-12.914 -24.167,-12.914l-38.78,0c-9.741,0 -18.768,4.823 -24.183,12.93c-5.416,8.091 -6.412,18.298 -2.692,27.292l7.112,17.163c-10.614,10.254 -17.243,24.615 -17.243,40.516c0,18.313 8.699,34.589 22.254,44.843c4.45,3.376 9.975,5.088 15.561,5.088l37.146,0c5.602,0 11.127,-1.712 15.578,-5.088c16.853,-12.79 26.206,-34.853 20.619,-58.613Zm-82.586,-51.549c-1.182,-2.863 -0.887,-5.99 0.84,-8.573c1.727,-2.583 4.498,-4.061 7.594,-4.061l38.78,0c3.097,0 5.867,1.478 7.594,4.061c1.727,2.583 2.023,5.695 0.84,8.573l-5.571,13.428c-2.879,-1.213 -5.836,-2.287 -8.933,-2.987c-12.761,-2.91 -24.961,-1.431 -35.527,3.112l-5.618,-13.553Zm50.903,95.022c-1.354,1.011 -2.926,1.509 -4.498,1.509c-2.272,0 -4.513,-1.027 -5.976,-2.972c-2.49,-3.299 -1.836,-7.982 1.462,-10.472c7.097,-5.353 10.115,-14.47 7.921,-23.806c-0.949,-4.03 1.541,-8.059 5.571,-8.993c4.047,-0.981 8.061,1.54 8.995,5.57c3.579,15.186 -1.587,30.201 -13.476,39.163Z" style="fill:#189caa;fill-rule:nonzero;"/></g></svg>