<?xml version="1.0" encoding="UTF-8" standalone="no"?><!DOCTYPE svg PUBLIC "-//W3C//DTD SVG 1.1//EN" "http://www.w3.org/Graphics/SVG/1.1/DTD/svg11.dtd"><svg width="100%" height="100%" viewBox="0 0 224 212" version="1.1" xmlns="http://www.w3.org/2000/svg" xmlns:xlink="http://www.w3.org/1999/xlink" xml:space="preserve" xmlns:serif="http://www.serif.com/" style="fill-rule:evenodd;clip-rule:evenodd;stroke-linejoin:round;stroke-miterlimit:2;"><rect id="Legumes" x="0" y="-0" width="223.502" height="211.507" style="fill:none;"/><path id="Hex" d="M22.24,99.99l0,-30.746c0,-3.786 2.451,-7.163 6.216,-8.942l77.272,-36.514c1.872,-0.885 3.949,-1.323 6.02,-1.323c2.068,0 4.154,0.438 6.026,1.323l77.269,36.514c3.765,1.779 6.219,5.156 6.219,8.942l0,32.942c-2.559,-3.813 -6.038,-7.184 -10.294,-9.757l0,-23.185c0,-0.356 -0.254,-0.824 -0.879,-1.119l-31.675,-14.968c-0.504,-0.993 -1.075,-1.969 -1.717,-2.923c-6.418,-9.536 -17.561,-12.883 -28.12,-11.176l-15.756,-7.446c-0.327,-0.155 -0.695,-0.237 -1.072,-0.237c-0.374,0 -0.739,0.082 -1.066,0.237l-77.269,36.514c-0.625,0.295 -0.879,0.762 -0.879,1.119l0,20.843c-4.211,2.613 -7.711,6.032 -10.294,9.903Zm179.023,33.488l0,8.794c0,3.786 -2.457,7.16 -6.219,8.939l-77.269,36.514c-3.71,1.756 -8.337,1.756 -12.047,0l-77.272,-36.514c-3.765,-1.779 -6.216,-5.153 -6.216,-8.939l0,-10.846c1.906,2.673 4.398,5.211 7.547,7.524c0.892,0.655 1.809,1.271 2.747,1.847l0,1.475c0,0.356 0.254,0.824 0.879,1.119l77.269,36.514c0.663,0.313 1.472,0.313 2.138,0l15.057,-7.115c7.711,-0.124 15.183,-1.615 21.788,-4.681c6.858,-3.183 11.85,-7.659 15.107,-12.754l25.317,-11.964c0.439,-0.207 0.695,-0.499 0.809,-0.778c0.986,-0.561 1.942,-1.166 2.862,-1.816c3.123,-2.208 5.603,-4.681 7.503,-7.318Z" style="fill:#189caa;stroke:#189caa;stroke-width:0.5px;"/><g id="Legumes1" serif:id="Legumes"><path d="M78.121,110.141c6.525,-6.406 16.563,-7.904 25.238,-5.809c6.444,1.557 11.726,5.622 18,7.394c8.397,2.37 16.127,0.667 24.381,4.259c21.421,9.323 22.839,35.629 0.979,45.775c-22.258,10.33 -55.578,0.491 -69.531,-19.445c-6.868,-9.815 -8.16,-23.246 0.934,-32.173Zm32.671,1.08c0.045,2.39 2.892,4.519 4.82,5.658c4.499,2.654 10.618,3.3 15.552,1.576c0.799,-0.279 1.527,-0.445 2.059,-1.183c0,-1.073 -6.942,-1.508 -8.028,-1.71c-2.136,-0.398 -4.536,-0.986 -6.593,-1.674c-1.17,-0.39 -7.19,-3.28 -7.813,-2.666l0.001,-0.001Z" style="fill:#189caa;fill-rule:nonzero;"/><path d="M110.79,102.359c-2.837,-0.827 -5.573,-2.019 -8.501,-2.568c-20.906,-3.922 -39.112,12.015 -33.868,33.572c0.573,2.355 1.811,4.485 2.218,6.789c-12.332,1.931 -26.38,0.74 -36.708,-6.844c-19.04,-13.983 -7.576,-38.241 13.272,-41.241c5.691,-0.82 11.181,0.046 16.998,-1.309c5.116,-1.192 9.461,-4.325 14.418,-5.954c14.778,-4.855 30.598,0.712 32.171,17.555Zm-56.984,-7.08c-0.264,0.34 1.808,1.393 2.16,1.528c6.662,2.557 15.891,0.419 19.395,-6.1c-0.373,-0.542 -0.685,-0.469 -1.254,-0.392c-2.146,0.288 -6.053,2.457 -8.725,3.104c-3.848,0.932 -7.801,0.782 -11.576,1.861l0.001,0Z" style="fill:#189caa;fill-rule:nonzero;"/><path d="M166.593,141.632c0.978,-14.923 -9.94,-27.4 -23.916,-31.151c-7.278,-1.952 -14.328,-0.769 -21.628,-3.172c-0.975,-0.321 -5.414,-2.105 -5.851,-2.71c-0.934,-1.293 0.765,-6.805 1.445,-8.343c4.83,-10.913 17.3,-13.715 28.032,-10.801c6.177,1.678 11.07,5.693 17.132,7.376c6.646,1.844 13.437,0.802 20.005,3.026c17.743,6.007 24.611,27.413 7.906,39.225c-6.533,4.619 -15.239,6.409 -23.125,6.552Zm5.907,-43.114c0.082,-0.42 -0.119,-0.653 -0.433,-0.89c-0.927,-0.707 -7.394,-1.241 -9.258,-1.667c-1.089,-0.248 -2.401,-0.615 -3.457,-0.971c-1.953,-0.656 -5.409,-2.718 -7.152,-2.913c-2.873,-0.322 1.638,3.969 2.316,4.502c5.008,3.949 12.217,4.365 17.985,1.94l-0.001,-0.001Z" style="fill:#189caa;fill-rule:nonzero;"/><path d="M150.037,82.854c-7.427,-2.701 -14.988,-3.806 -22.65,-1.246c-6.064,2.025 -11.472,6.629 -14.087,12.484c-1.124,-1.654 -1.958,-3.505 -3.151,-5.115c-5.726,-7.724 -15.77,-11.07 -25.158,-9.905c-1.782,0.222 -4.041,1.058 -5.646,1.149c-0.37,0.022 -0.612,-0.002 -0.44,-0.443c0.303,-0.777 2.429,-3.516 3.092,-4.291c7.733,-9.029 17.956,-8.595 26.435,-15.492c4.232,-3.443 7.05,-7.825 12.012,-10.722c9.856,-5.755 23.655,-5.219 30.445,4.869c5.941,8.827 3.771,19.863 -0.854,28.713l0.001,-0.001Zm-33.932,-24.782c-0.709,-0.734 -5.03,3.573 -5.764,4.124c-1.919,1.442 -4.109,2.989 -6.228,4.107c-1.031,0.542 -6.831,2.566 -6.607,3.721c2.488,1.13 6.159,0.423 8.638,-0.51c4.414,-1.661 9.577,-6.514 9.961,-11.443Z" style="fill:#189caa;fill-rule:nonzero;"/></g></svg>