<?xml version="1.0" encoding="UTF-8" standalone="no"?><!DOCTYPE svg PUBLIC "-//W3C//DTD SVG 1.1//EN" "http://www.w3.org/Graphics/SVG/1.1/DTD/svg11.dtd"><svg width="100%" height="100%" viewBox="0 0 224 212" version="1.1" xmlns="http://www.w3.org/2000/svg" xmlns:xlink="http://www.w3.org/1999/xlink" xml:space="preserve" xmlns:serif="http://www.serif.com/" style="fill-rule:evenodd;clip-rule:evenodd;stroke-linejoin:round;stroke-miterlimit:2;"><rect id="Lightning" x="0" y="0.384" width="223.502" height="211.507" style="fill:none;"/><path id="Hex" d="M59.702,166.609l-31.491,-14.881c-3.776,-1.784 -6.234,-5.168 -6.234,-8.965l0,-73.242c0,-3.797 2.458,-7.184 6.234,-8.968l31.219,-14.752c-5.762,4.999 -10.8,10.81 -14.938,17.254l-11.31,5.344c-0.627,0.296 -0.882,0.765 -0.882,1.122l0,28.388c-0.277,2.705 -0.419,5.45 -0.419,8.228c0,2.775 0.142,5.517 0.419,8.218l0,28.408c0,0.357 0.255,0.826 0.882,1.122l11.386,5.381c4.189,6.487 9.295,12.327 15.133,17.343Zm38.682,-139.215l7.325,-3.462c1.878,-0.888 3.961,-1.327 6.038,-1.327c2.074,0 4.166,0.439 6.044,1.327l9.822,4.642l-2.344,3.065l-0.981,1.283c-0.069,-0.75 -0.26,-1.495 -0.576,-2.204c-1.043,-2.342 -3.284,-3.927 -5.84,-4.13c-2.029,-0.161 -4.053,-0.308 -6.122,-0.308c-4.555,0 -9.02,0.381 -13.367,1.114Zm65.447,18.295l31.456,14.865c3.776,1.784 6.237,5.171 6.237,8.968l0,73.242c0,3.797 -2.464,7.181 -6.237,8.965l-31.231,14.758c5.764,-4.999 10.804,-10.809 14.944,-17.252l11.318,-5.348c0.627,-0.296 0.882,-0.765 0.882,-1.122l0,-28.398c0.277,-2.705 0.419,-5.45 0.419,-8.228c0,-2.775 -0.142,-5.516 -0.419,-8.217l0,-28.399c0,-0.357 -0.255,-0.826 -0.882,-1.122l-11.376,-5.376c-4.184,-6.482 -9.282,-12.32 -15.112,-17.335Zm-38.693,139.189l-7.346,3.472c-3.721,1.761 -8.361,1.761 -12.082,0l-9.826,-4.643l2.348,-3.07l0.976,-1.276c0.07,0.748 0.261,1.491 0.576,2.198c1.044,2.342 3.285,3.926 5.841,4.128c2.035,0.161 4.058,0.308 6.127,0.308c4.562,0 9.034,-0.382 13.387,-1.117Z" style="fill:#189caa;stroke:#189caa;stroke-width:0.5px;"/><g id="Lightning1" serif:id="Lightning"><path d="M51.027,106.138c0,-32.245 25.298,-58.626 57.081,-60.538l9.212,-12.033c-1.846,-0.147 -3.686,-0.286 -5.568,-0.286c-40.242,0 -72.87,32.622 -72.87,72.857c0,26.66 14.361,49.901 35.73,62.596l3.164,-12.307c-16.128,-10.922 -26.749,-29.398 -26.749,-50.289Z" style="fill:#189caa;fill-rule:nonzero;"/><path d="M148.635,43.384l-3.334,12.191c16.366,10.899 27.174,29.477 27.174,50.563c0,32.239 -25.298,58.626 -57.081,60.526l-9.218,12.045c1.852,0.147 3.692,0.286 5.575,0.286c40.241,0 72.869,-32.622 72.869,-72.857c0,-26.763 -14.476,-50.09 -35.985,-62.754Z" style="fill:#189caa;fill-rule:nonzero;"/><path d="M160.331,87.923l-36.434,0l3.57,-13.102l6.825,-25.008l3.207,-11.767l4.615,-16.909l-11.282,14.754l-8.089,10.576l-20.209,26.417l-39.362,51.468l36.434,0l-3.552,13.023l-6.844,25.087l-3.207,11.767l-4.615,16.909l11.282,-14.754l8.089,-10.576l20.464,-26.763l39.107,-51.122Z" style="fill:#189caa;fill-rule:nonzero;"/></g></svg>