<?xml version="1.0" encoding="UTF-8" standalone="no"?><!DOCTYPE svg PUBLIC "-//W3C//DTD SVG 1.1//EN" "http://www.w3.org/Graphics/SVG/1.1/DTD/svg11.dtd"><svg width="100%" height="100%" viewBox="0 0 224 212" version="1.1" xmlns="http://www.w3.org/2000/svg" xmlns:xlink="http://www.w3.org/1999/xlink" xml:space="preserve" xmlns:serif="http://www.serif.com/" style="fill-rule:evenodd;clip-rule:evenodd;stroke-linejoin:round;stroke-miterlimit:2;"><rect id="Liver" x="0" y="0.384" width="223.502" height="211.507" style="fill:none;"/><g id="Liver1" serif:id="Liver"><path id="Hex" d="M20.477,106.707l0,-37.185c0,-3.797 2.458,-7.184 6.234,-8.968l77.499,-36.621c1.878,-0.888 3.961,-1.327 6.038,-1.327c2.074,0 4.166,0.439 6.044,1.327l77.496,36.621c3.776,1.784 6.237,5.171 6.237,8.968l0,1.617c-0.298,-0.229 -0.61,-0.445 -0.935,-0.647c-10.718,-6.648 -21.848,-10.579 -32.096,-12.406l-55.671,-26.307c-0.328,-0.155 -0.697,-0.237 -1.075,-0.237c-0.375,0 -0.741,0.082 -1.069,0.237l-36.399,17.201c-11.299,1.46 -24.975,5.514 -35.442,15.777c-0.59,0.579 -1.171,1.177 -1.742,1.795l-3.912,1.849c-0.627,0.296 -0.882,0.765 -0.882,1.122l0,3.103c-5.188,7.729 -8.907,17.849 -9.917,31.147c-0.072,0.471 -0.22,1.481 -0.408,2.935Zm179.549,-15.873l0,51.93c0,3.797 -2.464,7.181 -6.237,8.965l-77.496,36.621c-3.721,1.761 -8.361,1.761 -12.082,0l-49.833,-23.548c3.718,-1.113 7.467,-2.718 11.014,-4.987l43.788,20.692c0.665,0.313 1.477,0.313 2.145,0l77.496,-36.621c0.627,-0.296 0.882,-0.765 0.882,-1.122l0,-47.819c4.915,-0.933 8.103,-2.479 10.211,-4.026l0.003,-0.002c0.037,-0.027 0.074,-0.055 0.11,-0.082Z" style="fill:#189caa;stroke:#189caa;stroke-width:0.5px;"/><g><path id="path1-30-2" d="M143.978,64.649c13.2,-2.458 32.964,0.339 51.429,11.795c3.043,1.883 3.292,6.679 0.363,8.831c-1.993,1.463 -5.327,2.734 -10.842,3.285c-14.115,1.41 -16.638,9.408 -20.875,14.979c-3.604,4.742 -10.843,18.933 -23.98,24.465c-4.289,1.806 -8.516,-0.062 -9.223,-4.972c-0.125,-0.924 -0.249,-1.858 -0.488,-2.772c-2.347,-9.124 -1.391,-22.788 0.249,-37.386c1.018,-15.923 1.018,-15.923 13.366,-18.224" style="fill:#189caa;fill-rule:nonzero;"/><path id="path2-62-1" d="M71.658,78.887c-13.037,2.728 -20.993,10.376 -23.648,22.747c-0.326,1.469 -1.628,2.486 -3.076,2.486c-0.22,0 -0.441,-0.021 -0.672,-0.073c-1.701,-0.367 -2.782,-2.036 -2.414,-3.736c4.02,-18.717 17.729,-25.328 28.53,-27.583c1.69,-0.346 3.371,0.735 3.716,2.434c0.358,1.711 -0.734,3.379 -2.435,3.725Zm-25.264,46.158c0.052,1.733 -1.324,3.187 -3.066,3.239l-0.084,0c-1.7,0 -3.096,-1.35 -3.149,-3.063c-0.168,-6.073 0.399,-11.802 0.432,-12.041c0.167,-1.734 1.71,-3 3.442,-2.813c1.732,0.176 2.992,1.713 2.825,3.436c-0.011,0.062 -0.556,5.595 -0.399,11.242Zm46.059,-69.408c-6.969,-0.755 -60.629,-5.718 -64.608,48.923c0,0 -4,24.855 -1.155,47.453c0.556,4.401 4.146,7.764 8.566,7.993c7.673,0.394 19.828,-0.498 29.328,-8.232c10.896,-8.865 17.384,-17.419 27.576,-21.114c5.972,-2.17 11.263,-1.879 17.215,0.353c3.872,1.433 9.221,2.595 12.649,-0.104c1.64,-1.308 2.481,-3.373 2.481,-5.46c-1.703,-13.9 -1.879,-27.258 0,-39.837c2.192,-23.88 -3.105,-26.869 -32.052,-29.975" style="fill:#189caa;fill-rule:nonzero;"/></g></g></svg>