<?xml version="1.0" encoding="UTF-8" standalone="no"?><!DOCTYPE svg PUBLIC "-//W3C//DTD SVG 1.1//EN" "http://www.w3.org/Graphics/SVG/1.1/DTD/svg11.dtd"><svg width="100%" height="100%" viewBox="0 0 224 212" version="1.1" xmlns="http://www.w3.org/2000/svg" xmlns:xlink="http://www.w3.org/1999/xlink" xml:space="preserve" xmlns:serif="http://www.serif.com/" style="fill-rule:evenodd;clip-rule:evenodd;stroke-linejoin:round;stroke-miterlimit:2;"><rect id="Meal-Prep" serif:id="Meal Prep" x="0" y="-0" width="223.502" height="211.507" style="fill:none;"/><path id="Hex" d="M67.906,169.852l-39.45,-18.641c-3.765,-1.779 -6.216,-5.153 -6.216,-8.939l0,-73.028c0,-3.786 2.451,-7.163 6.216,-8.942l26.598,-12.568c-0,0.019 -0,0.037 -0,0.056l0,2.996c0,2.36 1.168,4.447 2.958,5.715l-24.598,11.624c-0.625,0.295 -0.879,0.762 -0.879,1.119l0,73.028c0,0.356 0.254,0.824 0.879,1.119l32.327,15.276l2.166,11.185Zm8.182,-132.057l29.64,-14.006c1.872,-0.885 3.949,-1.323 6.02,-1.323c2.068,0 4.154,0.438 6.026,1.323l29.639,14.006l-17.658,0c-0.703,0 -1.382,0.104 -2.022,0.296c-0.579,-0.174 -1.19,-0.276 -1.822,-0.294l-13.091,-6.186c-0.327,-0.155 -0.695,-0.237 -1.072,-0.237c-0.374,0 -0.739,0.082 -1.066,0.237l-13.087,6.185c-0.649,0.012 -1.276,0.113 -1.87,0.291c-0.636,-0.19 -1.309,-0.292 -2.007,-0.292l-17.629,0Zm92.331,9.926l26.625,12.582c3.765,1.779 6.219,5.156 6.219,8.942l0,73.028c0,3.786 -2.457,7.16 -6.219,8.939l-39.48,18.656l2.165,-11.184l32.361,-15.292c0.625,-0.295 0.879,-0.762 0.879,-1.119l0,-73.028c0,-0.356 -0.254,-0.824 -0.879,-1.119l-24.616,-11.632c1.783,-1.269 2.945,-3.352 2.945,-5.707l0,-2.996c0,-0.023 -0,-0.046 -0,-0.069Zm-27.516,129.074l-23.128,10.929c-3.71,1.756 -8.337,1.756 -12.047,0l-23.129,-10.929l21.503,0l6.58,3.11c0.663,0.313 1.472,0.313 2.138,0l6.58,-3.11l21.502,0Z" style="fill:#189caa;stroke:#189caa;stroke-width:0.5px;"/><g id="Meal-Prep1" serif:id="Meal Prep"><path d="M129.755,140.859l0,5.781c0,2.456 -1.977,4.434 -4.434,4.434l-27.201,0c-2.426,0 -4.434,-1.977 -4.434,-4.434l0,-5.781l-24.265,0l5.602,28.936l73.423,0l5.602,-28.936l-24.294,0Zm-5.003,21.118l11.952,0c1.108,0 2.007,0.898 2.007,2.007c0,1.108 -0.899,2.007 -2.007,2.007l-11.952,0c-1.108,0 -2.007,-0.898 -2.007,-2.007c0,-1.108 0.899,-2.007 2.007,-2.007Zm-37.985,0l30.106,0c1.108,0 2.007,0.898 2.007,2.007c0,1.108 -0.899,2.007 -2.007,2.007l-30.106,0c-1.108,0 -2.007,-0.898 -2.007,-2.007c-0.03,-1.108 0.869,-2.007 2.007,-2.007Z" style="fill:#189caa;"/><path d="M125.741,130.824l-27.98,0l0,15.846c0,0.209 0.18,0.39 0.39,0.39l27.201,0c0.209,0 0.39,-0.18 0.39,-0.39l0,-15.846Zm-18.243,6.081l8.477,0c1.108,0 2.007,0.898 2.007,2.007c0,1.108 -0.899,2.007 -2.007,2.007l-8.477,0c-1.108,0 -2.007,-0.898 -2.007,-2.007c0,-1.108 0.899,-2.007 2.007,-2.007Z" style="fill:#189caa;"/><path d="M158.453,130.824l-28.668,0l0,5.99l31.664,0l0,-2.995c0,-1.647 -1.348,-2.995 -2.996,-2.995Z" style="fill:#189caa;"/><path d="M93.717,130.824l-28.668,0c-1.647,0 -2.995,1.348 -2.995,2.995l0,2.995l31.664,0l0,-5.99Z" style="fill:#189caa;"/><path d="M69.422,97.844l5.602,28.936l73.423,0l5.602,-28.936l-24.294,0l0,5.811c0,2.456 -1.977,4.433 -4.434,4.433l-27.201,0c-2.426,0 -4.434,-1.976 -4.434,-4.433l0,-5.811l-24.265,0Zm17.345,21.118l30.106,0c1.108,0 2.007,0.898 2.007,2.007c0,1.108 -0.899,2.007 -2.007,2.007l-30.106,0c-1.108,0 -2.007,-0.899 -2.007,-2.007c-0.03,-1.108 0.869,-2.007 2.007,-2.007Zm37.985,4.043c-1.108,0 -2.007,-0.898 -2.007,-2.007c0,-1.108 0.899,-2.007 2.007,-2.007l11.952,0c1.108,0 2.007,0.899 2.007,2.007c0,1.108 -0.899,2.007 -2.007,2.007l-11.952,0Z" style="fill:#189caa;"/><path d="M97.731,44.795l0,15.816c0,0.21 0.18,0.39 0.39,0.39l27.201,0c0.209,0 0.39,-0.179 0.39,-0.39l0,-15.816l-27.98,0Zm7.759,8.118c0,-1.108 0.899,-2.007 2.007,-2.007l8.477,0c1.108,0 2.007,0.898 2.007,2.007c0,1.108 -0.899,2.007 -2.007,2.007l-8.477,0c-1.108,0 -2.007,-0.898 -2.007,-2.007Z" style="fill:#189caa;"/><path d="M62.053,50.786l31.664,0l0,-5.991l-28.668,0c-1.647,0 -2.995,1.348 -2.995,2.995l0,2.996Z" style="fill:#189caa;"/><path d="M69.422,54.83l5.602,28.936l73.423,0l5.602,-28.936l-24.294,0l0,5.811c0,2.456 -1.977,4.434 -4.434,4.434l-27.201,0c-2.426,0 -4.434,-1.977 -4.434,-4.434l0,-5.811l-24.265,0Zm17.345,21.118l30.106,0c1.108,0 2.007,0.898 2.007,2.007c0,1.108 -0.899,2.007 -2.007,2.007l-30.106,0c-1.108,0 -2.007,-0.899 -2.007,-2.007c-0.03,-1.108 0.869,-2.007 2.007,-2.007Zm35.978,2.037c0,-1.108 0.899,-2.007 2.007,-2.007l11.952,0c1.108,0 2.007,0.898 2.007,2.007c0,1.108 -0.899,2.007 -2.007,2.007l-11.952,0c-1.108,0 -2.007,-0.898 -2.007,-2.007Z" style="fill:#189caa;"/><path d="M129.755,87.81l0,5.99l31.664,0l0,-2.995c0,-1.647 -1.348,-2.995 -2.995,-2.995l-28.668,0Z" style="fill:#189caa;"/><path d="M97.731,87.81l0,15.846c0,0.209 0.18,0.39 0.39,0.39l27.201,0c0.209,0 0.39,-0.18 0.39,-0.39l0,-15.816l-27.98,0l0,-0.03Zm9.766,6.081l8.477,0c1.108,0 2.007,0.898 2.007,2.007c0,1.108 -0.899,2.007 -2.007,2.007l-8.477,0c-1.108,0 -2.007,-0.899 -2.007,-2.007c0,-1.108 0.899,-2.007 2.007,-2.007Z" style="fill:#189caa;"/><path d="M93.717,87.81l-28.668,0c-1.647,0 -2.995,1.348 -2.995,2.995l0,2.995l31.664,0l0,-5.99Z" style="fill:#189caa;"/><path d="M129.755,44.795l0,5.991l31.664,0l0,-2.996c0,-1.647 -1.348,-2.995 -2.995,-2.995l-28.668,0Z" style="fill:#189caa;"/></g></svg>