<?xml version="1.0" encoding="UTF-8" standalone="no"?><!DOCTYPE svg PUBLIC "-//W3C//DTD SVG 1.1//EN" "http://www.w3.org/Graphics/SVG/1.1/DTD/svg11.dtd"><svg width="100%" height="100%" viewBox="0 0 224 212" version="1.1" xmlns="http://www.w3.org/2000/svg" xmlns:xlink="http://www.w3.org/1999/xlink" xml:space="preserve" xmlns:serif="http://www.serif.com/" style="fill-rule:evenodd;clip-rule:evenodd;stroke-linejoin:round;stroke-miterlimit:2;"><rect id="Megaphone" x="0" y="0.384" width="223.502" height="211.507" style="fill:none;"/><path id="Hex" d="M187.726,56.98l7.562,3.574c3.776,1.784 6.237,5.171 6.237,8.968l0,73.242c0,3.797 -2.464,7.181 -6.237,8.965l-77.496,36.621c-3.721,1.761 -8.361,1.761 -12.082,0l-77.499,-36.621c-3.776,-1.784 -6.234,-5.168 -6.234,-8.965l0,-73.242c0,-3.797 2.458,-7.184 6.234,-8.968l77.499,-36.621c1.878,-0.888 3.961,-1.327 6.038,-1.327c2.074,0 4.166,0.439 6.044,1.327l26.804,12.666l-4.626,8.008l-27.147,-12.828c-0.328,-0.155 -0.697,-0.237 -1.075,-0.237c-0.375,0 -0.741,0.082 -1.069,0.237l-77.496,36.621c-0.627,0.296 -0.882,0.765 -0.882,1.122l0,55.369c-0.499,2.998 -0.511,6.086 0,9.132l0,8.741c0,0.357 0.255,0.826 0.882,1.122l4.161,1.966c5.584,7.522 14.53,11.524 23.528,11.118l19.056,9.005l7.019,9.081c1.96,2.536 4.594,3.987 7.786,4.275c3.05,0.275 5.793,-0.583 8.105,-2.531l7.842,3.706c0.665,0.313 1.477,0.313 2.145,0l77.496,-36.621c0.627,-0.296 0.882,-0.765 0.882,-1.122l0,-44.706c1.598,-1.944 2.555,-4.433 2.55,-7.138c-0.006,-2.691 -0.962,-5.159 -2.55,-7.089l0,-14.31c0,-0.357 -0.255,-0.826 -0.882,-1.122l-3.149,-1.488c1.677,-2.975 1.959,-6.646 0.555,-9.931Zm-22.904,-10.824l9.395,4.439c-0.839,0.247 -1.661,0.596 -2.452,1.052l-7.605,4.389l-3.836,-1.813l3.733,-6.463c0.302,-0.522 0.556,-1.059 0.766,-1.605Z" style="fill:#189caa;stroke:#189caa;stroke-width:0.5px;"/><path id="Megaphone1" serif:id="Megaphone" d="M89.606,142.798l14.289,18.563c1.298,1.685 1.07,4.07 -0.505,5.499l-4.914,4.458c-0.878,0.796 -1.934,1.15 -3.115,1.043c-1.18,-0.106 -2.152,-0.647 -2.876,-1.584l-15.842,-20.497l12.963,-7.48Zm78.385,-47.64l14.553,0c2.327,0 4.211,-1.901 4.207,-4.224c-0.005,-2.327 -1.903,-4.207 -4.228,-4.207l-14.552,0c-2.328,0 -4.212,1.901 -4.207,4.224c0.005,2.327 1.903,4.207 4.228,4.207Zm-17.274,-38.3l7.276,-12.598c1.162,-2.013 0.483,-4.596 -1.53,-5.764c-2.011,-1.166 -4.599,-0.485 -5.763,1.53l-7.277,12.598c-1.162,2.013 -0.482,4.596 1.531,5.763c2.011,1.166 4.599,0.486 5.763,-1.529Zm16.837,15.089l11.948,-6.895c2.028,-1.17 2.723,-3.762 1.552,-5.789c-1.171,-2.028 -3.764,-2.722 -5.793,-1.552l-11.948,6.896c-2.028,1.17 -2.722,3.762 -1.552,5.789c1.171,2.027 3.764,2.721 5.793,1.551Zm-18.791,18.973l14.092,24.398c2.646,4.58 1.061,10.492 -3.522,13.137c-4.277,2.468 -9.712,1.253 -12.57,-2.643c-15.6,-2.372 -35.919,0.176 -56.124,8.049l-19.425,-33.63c16.93,-13.539 29.336,-29.769 35.081,-44.458c-2.017,-4.442 -0.36,-9.818 3.95,-12.305c4.582,-2.645 10.497,-1.061 13.143,3.52l14.092,24.398c0.401,-0.31 0.828,-0.597 1.279,-0.857c5.445,-3.143 12.408,-1.278 15.552,4.165c3.144,5.444 1.279,12.404 -4.167,15.546c-0.451,0.261 -0.913,0.486 -1.382,0.679Zm-63.007,46.499l-20.354,-35.239l-16.181,9.338c-9.832,5.674 -13.232,18.358 -7.555,28.185c5.677,9.828 18.366,13.226 28.197,7.553l16.181,-9.338l-0.288,-0.499Z" style="fill:#189caa;"/></svg>