<?xml version="1.0" encoding="UTF-8" standalone="no"?><!DOCTYPE svg PUBLIC "-//W3C//DTD SVG 1.1//EN" "http://www.w3.org/Graphics/SVG/1.1/DTD/svg11.dtd"><svg width="100%" height="100%" viewBox="0 0 224 212" version="1.1" xmlns="http://www.w3.org/2000/svg" xmlns:xlink="http://www.w3.org/1999/xlink" xml:space="preserve" xmlns:serif="http://www.serif.com/" style="fill-rule:evenodd;clip-rule:evenodd;stroke-linejoin:round;stroke-miterlimit:2;"><rect id="Menstrual-Cycle" serif:id="Menstrual Cycle" x="0" y="0.384" width="223.502" height="211.507" style="fill:none;"/><path id="path4-40-0" d="M49.186,161.391l-20.73,-9.796c-3.765,-1.779 -6.216,-5.153 -6.216,-8.939l0,-73.028c0,-3.786 2.451,-7.163 6.216,-8.942l32.813,-15.505c-6.012,5.037 -11.271,10.944 -15.58,17.527l-12.275,5.801c-0.625,0.295 -0.879,0.762 -0.879,1.119l0,73.028c0,0.356 0.254,0.824 0.879,1.119l15.773,7.454l0,10.162Zm48.495,-133.415l8.047,-3.802c1.872,-0.885 3.949,-1.323 6.02,-1.323c2.068,0 4.154,0.438 6.026,1.323l7.485,3.537c-4.267,-0.709 -8.616,-1.073 -13.008,-1.073c-4.975,0 -9.846,0.459 -14.57,1.338Zm77.636,23.389l19.727,9.322c3.765,1.779 6.219,5.156 6.219,8.942l0,73.028c0,3.786 -2.457,7.16 -6.219,8.939l-30.589,14.455c5.704,-4.976 10.693,-10.752 14.792,-17.151l10.843,-5.124c0.625,-0.295 0.879,-0.762 0.879,-1.119l0,-25.345c0.516,-3.651 0.783,-7.382 0.783,-11.173c0,-3.77 -0.262,-7.507 -0.783,-11.191l-0,-25.318c0,-0.356 -0.254,-0.824 -0.879,-1.119l-14.773,-6.981c0,-0.043 0.001,-0.086 0.001,-0.128l0,-10.035Zm-50.065,133.21l-7.477,3.533c-3.71,1.756 -8.337,1.756 -12.047,0l-8.106,-3.83c4.784,0.898 9.679,1.359 14.629,1.359c4.426,0 8.769,-0.364 13,-1.062Z" style="fill:#189caa;stroke:#189caa;stroke-width:0.5px;"/><g id="Menstrual-Cycle1" serif:id="Menstrual Cycle"><path d="M89.474,111.56c0,-6.305 -9.035,-15.832 -10.846,-17.678c-0.952,-0.969 -2.662,-0.969 -3.614,0c-1.811,1.846 -10.846,11.373 -10.846,17.678c0,6.976 5.676,12.653 12.653,12.653c6.977,0 12.653,-5.677 12.653,-12.653Zm22.777,4.7c4.187,0 7.592,-3.405 7.592,-7.592c0,-4.186 -3.405,-7.592 -7.592,-7.592c-4.187,0 -7.592,3.406 -7.592,7.592c0,4.187 3.405,7.592 7.592,7.592Zm-35.605,13.006c0.059,0 0.116,0.009 0.175,0.009c9.768,0 17.715,-7.948 17.715,-17.715c0,-6.777 -6.181,-14.684 -10.773,-19.623c10.383,-16.444 25.711,-32.166 26.681,-33.156c0.952,-0.969 2.662,-0.969 3.614,0c1.475,1.505 36.153,37.079 36.153,57.448c0,20.932 -17.029,37.96 -37.96,37.96c-16.345,0 -30.27,-10.405 -35.605,-24.923Zm22.952,-20.598c0,6.111 4.354,11.222 10.123,12.398l0,5.317l-2.531,0c-1.397,0 -2.53,1.132 -2.53,2.531c0,1.399 1.134,2.53 2.53,2.53l2.531,0l0,2.53c0,1.399 1.133,2.53 2.53,2.53c1.398,0 2.53,-1.132 2.53,-2.53l0,-2.53l2.531,0c1.397,0 2.53,-1.132 2.53,-2.53c0,-1.399 -1.134,-2.531 -2.53,-2.531l-2.531,0l0,-5.317c5.768,-1.176 10.123,-6.287 10.123,-12.398c0,-6.976 -5.676,-12.653 -12.653,-12.653c-6.977,0 -12.653,5.677 -12.653,12.653Z" style="fill:#189caa;fill-rule:nonzero;"/><path d="M180.612,81.988l0.001,0.003c2.745,7.715 4.138,15.84 4.138,24.147c0,39.977 -32.523,72.5 -72.5,72.5c-17.691,0 -34.604,-6.469 -47.723,-17.982l0,4.536c0,2.305 -1.867,4.171 -4.171,4.171c-2.304,0 -4.171,-1.866 -4.171,-4.171l0,-14.317c0,-2.305 1.867,-4.171 4.171,-4.171l14.316,0c2.304,0 4.171,1.866 4.171,4.171c0,2.306 -1.867,4.172 -4.171,4.172l-3.882,-0c11.496,9.773 26.149,15.249 41.46,15.249c35.377,0 64.158,-28.78 64.158,-64.158c0,-7.348 -1.229,-14.533 -3.656,-21.354l-0,-0.001c-0.771,-2.171 0.363,-4.554 2.531,-5.327l0.007,-0.003c2.166,-0.761 4.551,0.362 5.322,2.535Zm-128.862,45.504c0.771,2.171 -0.363,4.554 -2.531,5.327l-0.004,0.001c-0.461,0.163 -0.933,0.24 -1.396,0.24c-1.715,0 -3.322,-1.064 -3.929,-2.773c-2.746,-7.716 -4.139,-15.842 -4.139,-24.149c0,-39.977 32.523,-72.5 72.5,-72.5c17.691,0 34.604,6.469 47.723,17.982l0,-4.536c0,-2.305 1.867,-4.171 4.171,-4.171c2.303,0 4.172,1.866 4.172,4.171l0,14.316c0,2.306 -1.868,4.172 -4.172,4.172l-14.316,0c-2.303,0 -4.171,-1.865 -4.171,-4.172c0,-2.305 1.867,-4.171 4.171,-4.171l3.882,0c-11.496,-9.773 -26.149,-15.249 -41.46,-15.249c-35.377,0 -64.158,28.78 -64.158,64.158c0,7.348 1.229,14.533 3.656,21.354l0,0.001Z" style="fill:#189caa;fill-rule:nonzero;"/></g></svg>