<?xml version="1.0" encoding="UTF-8" standalone="no"?><!DOCTYPE svg PUBLIC "-//W3C//DTD SVG 1.1//EN" "http://www.w3.org/Graphics/SVG/1.1/DTD/svg11.dtd"><svg width="100%" height="100%" viewBox="0 0 224 212" version="1.1" xmlns="http://www.w3.org/2000/svg" xmlns:xlink="http://www.w3.org/1999/xlink" xml:space="preserve" xmlns:serif="http://www.serif.com/" style="fill-rule:evenodd;clip-rule:evenodd;stroke-linejoin:round;stroke-miterlimit:2;"><rect id="Mountain" x="0" y="0.384" width="223.502" height="211.507" style="fill:none;"/><path id="path4-40-0" d="M22.24,139.797l0,-70.169c0,-3.786 2.451,-7.163 6.216,-8.942l77.247,-36.502c-0.739,0.671 -1.373,1.47 -1.864,2.376l-6.318,11.655l-64.108,30.294c-0.625,0.295 -0.879,0.762 -0.879,1.119l0,51.193l-10.294,18.976Zm95.56,-115.612l77.244,36.502c3.765,1.779 6.219,5.156 6.219,8.942l0,70.161l-10.294,-18.979l0,-51.183c0,-0.356 -0.254,-0.824 -0.879,-1.119l-64.099,-30.29l-6.329,-11.662c-0.491,-0.904 -1.123,-1.702 -1.862,-2.372Zm61.845,134.687l-61.87,29.237c-3.71,1.756 -8.337,1.756 -12.047,0l-61.859,-29.23l21.504,0l45.308,21.411c0.663,0.313 1.472,0.313 2.138,0l45.322,-21.417l21.502,0Z" style="fill:#189caa;stroke:#189caa;stroke-width:0.5px;"/><g><path d="M74.523,83.73c0.241,-0.17 0.498,-0.301 0.771,-0.392c0.273,-0.091 0.551,-0.139 0.837,-0.144c0.284,-0.005 0.564,0.033 0.839,0.113c0.276,0.081 0.537,0.203 0.782,0.365l19.072,12.49l-20.339,-37.483l-20.839,38.414l18.878,-13.362Z" style="fill:#189caa;fill-rule:nonzero;"/><path d="M125.959,149.878l-22.325,-41.155l-27.39,-17.943l-27.878,19.73l-21.357,39.368l98.949,0Z" style="fill:#189caa;fill-rule:nonzero;"/><path d="M109.189,105.537l2.562,4.694l2.179,-4.026c0.066,-0.14 0.141,-0.276 0.222,-0.405l19.137,-35.264l-21.537,-39.686l-21.532,39.717l18.057,33.309c0.448,0.454 0.753,1.007 0.912,1.66Z" style="fill:#189caa;fill-rule:nonzero;"/><path d="M174.246,108.856l-27.596,-18.076l-27.698,19.601l-3.565,6.567l17.861,32.923l63.245,0l-22.247,-41.016Z" style="fill:#189caa;fill-rule:nonzero;"/><path d="M148.157,83.672l19.274,12.623l-20.411,-37.616l-20.783,38.281l18.678,-13.23c0.242,-0.172 0.5,-0.303 0.774,-0.395c0.273,-0.093 0.553,-0.14 0.839,-0.147c0.287,-0.005 0.568,0.034 0.844,0.115c0.276,0.081 0.538,0.204 0.784,0.367Z" style="fill:#189caa;fill-rule:nonzero;"/></g></svg>