<?xml version="1.0" encoding="UTF-8" standalone="no"?><!DOCTYPE svg PUBLIC "-//W3C//DTD SVG 1.1//EN" "http://www.w3.org/Graphics/SVG/1.1/DTD/svg11.dtd"><svg width="100%" height="100%" viewBox="0 0 224 212" version="1.1" xmlns="http://www.w3.org/2000/svg" xmlns:xlink="http://www.w3.org/1999/xlink" xml:space="preserve" xmlns:serif="http://www.serif.com/" style="fill-rule:evenodd;clip-rule:evenodd;stroke-linejoin:round;stroke-miterlimit:2;"><rect id="Muffin" x="0" y="-0" width="223.502" height="211.507" style="fill:none;"/><path id="Hex" d="M65.679,168.8l-37.223,-17.589c-3.765,-1.779 -6.216,-5.153 -6.216,-8.939l0,-73.028c0,-3.786 2.451,-7.163 6.216,-8.942l59.252,-27.999c-3.045,3.287 -4.918,7.678 -4.951,12.504l-3.181,1.503c-1.053,0.409 -2.06,0.828 -3.024,1.256c-0.509,0.226 -0.986,0.511 -1.423,0.846l-41.717,19.713c-0.625,0.295 -0.879,0.762 -0.879,1.119l0,73.028c0,0.356 0.254,0.824 0.879,1.119l28.331,13.388l2.837,9.416c0.279,0.926 0.649,1.797 1.098,2.605Zm34.584,-142.428l5.465,-2.583c1.872,-0.885 3.949,-1.323 6.02,-1.323c2.068,0 4.154,0.438 6.026,1.323l3.927,1.856c-0.297,0.46 -0.541,0.958 -0.726,1.487c-0.719,2.061 -1.666,3.78 -2.824,5.214c-0.359,0.445 -0.737,0.861 -1.133,1.25l-1.474,-0.697c-0.328,-0.385 -0.67,-0.757 -1.028,-1.114c-3.365,-3.362 -8.019,-5.445 -13.155,-5.445c-0.369,0 -0.736,0.011 -1.1,0.032Zm43.474,9.686l51.307,24.245c3.765,1.779 6.219,5.156 6.219,8.942l0,73.028c0,3.786 -2.457,7.16 -6.219,8.939l-35.683,16.862c0.284,-0.597 0.527,-1.225 0.724,-1.88l3.029,-10.055l26.975,-12.747c0.625,-0.295 0.879,-0.762 0.879,-1.119l0,-73.028c0,-0.356 -0.254,-0.824 -0.879,-1.119l-40.177,-18.986c-0.876,-3.005 -2.049,-5.905 -3.516,-8.675c-0.798,-1.507 -1.684,-2.977 -2.659,-4.407Zm0.148,139.328l-26.11,12.339c-3.71,1.756 -8.337,1.756 -12.047,0l-26.111,-12.339l8.491,0c0.804,0 1.592,-0.138 2.334,-0.401c0.733,0.26 1.521,0.401 2.337,0.401l8.34,0l9.562,4.519c0.663,0.313 1.472,0.313 2.138,0l9.562,-4.519l9.388,0c0.817,0 1.605,-0.141 2.338,-0.401c0.742,0.263 1.531,0.401 2.335,0.401l7.441,0Z" style="fill:#189caa;stroke:#189caa;stroke-width:0.5px;"/><path id="Muffin1" serif:id="Muffin" d="M101.363,56.537c3.204,0 6.107,-1.299 8.206,-3.397c2.099,-2.098 3.398,-4.999 3.398,-8.202c0,-3.202 -1.299,-6.103 -3.398,-8.201c-2.099,-2.097 -5.002,-3.397 -8.206,-3.397c-3.205,0 -6.108,1.299 -8.206,3.397c-2.1,2.098 -3.399,4.999 -3.399,8.201c0,3.203 1.299,6.104 3.399,8.202c2.098,2.097 5.002,3.397 8.206,3.397Zm41.752,62.999l-6.67,48.85l11.256,0c1.346,0 2.577,-0.415 3.56,-1.145c0.983,-0.73 1.736,-1.786 2.121,-3.066l13.562,-45.011c-1.363,-1.522 -2.991,-2.749 -4.784,-3.63l-0.008,-0.004c-2.13,-1.043 -4.507,-1.607 -6.961,-1.607c-2.454,0 -4.832,0.565 -6.961,1.612l-0.12,0.054c-1.891,0.948 -3.598,2.284 -4.996,3.947Zm-28.46,0.18c0.119,-0.225 0.196,-0.464 0.234,-0.707c1.37,-1.527 3.003,-2.754 4.797,-3.632c0.317,-0.154 0.638,-0.298 0.964,-0.431l0.102,-0.041c1.837,-0.734 3.829,-1.125 5.878,-1.125c2.452,0 4.822,0.56 6.943,1.597c1.85,0.905 3.527,2.18 4.922,3.772l-6.724,49.237l-17.117,0l0,-48.67Zm-26.547,48.67l-6.56,-48.853c-1.424,-1.694 -3.168,-3.048 -5.104,-3.999l-0.008,-0.004c-2.131,-1.043 -4.507,-1.607 -6.962,-1.607c-2.454,0 -4.831,0.565 -6.96,1.612l-0.12,0.054c-1.749,0.877 -3.339,2.084 -4.673,3.575l13.562,45.011c0.385,1.28 1.138,2.335 2.122,3.066c0.982,0.73 2.215,1.145 3.559,1.145l11.143,0Zm9.928,-54.606c2.453,0 4.823,0.56 6.944,1.597c1.788,0.875 3.417,2.097 4.783,3.615c0.04,0.267 0.126,0.52 0.249,0.75l0,48.644l-17.232,0l-6.611,-49.235c1.396,-1.593 3.074,-2.87 4.925,-3.774c2.12,-1.037 4.491,-1.597 6.942,-1.597Zm-15.539,-22.659c-5.035,-3.125 -10.63,-7.378 -14.016,-12.396c-0.408,-0.606 -0.783,-1.224 -1.12,-1.854c-0.046,-0.204 -0.121,-0.405 -0.226,-0.598c-0.077,-0.14 -0.165,-0.27 -0.265,-0.387c-1.824,-3.953 -2.087,-8.346 0.476,-13.021c1.364,-2.08 3.445,-4.02 6.247,-5.821c-0.121,2.097 0.462,4.135 1.752,6.119c2.232,3.429 6.7,6.535 13.402,9.313c6.343,2.884 13.431,5.631 21.262,8.24c7.87,2.622 16.423,5.087 25.657,7.393l0.044,0.011c14.767,3.413 23.912,5.753 27.436,7.02l0.166,0.06c1.906,0.622 3.548,1.762 4.775,3.238c1.228,1.478 2.047,3.299 2.309,5.283c0.262,1.987 -0.058,3.963 -0.863,5.714c-0.615,1.339 -1.516,2.547 -2.659,3.531c-0.851,-0.594 -1.745,-1.122 -2.675,-1.581c-2.776,-1.365 -5.854,-2.102 -9.009,-2.102c-3.156,0 -6.234,0.736 -9.011,2.102l-0.126,0.066c-1.853,0.927 -3.563,2.135 -5.066,3.589c-1.581,-1.56 -3.403,-2.845 -5.384,-3.813c-2.771,-1.356 -5.836,-2.087 -8.975,-2.087c-2.3,0 -4.56,0.393 -6.695,1.137c-7.699,-3.542 -14.711,-6.887 -20.95,-10.05c-6.386,-3.238 -11.917,-6.269 -16.488,-9.105Zm14.403,13.237c-6.539,-3.315 -12.193,-6.413 -16.852,-9.304c-5.472,-3.398 -11.59,-8.074 -15.412,-13.737c-0.157,-0.235 -0.313,-0.471 -0.463,-0.709c-1.141,0.729 -2.215,1.514 -3.207,2.35c-3.772,3.176 -6.447,7.115 -7.479,11.505c-1.024,4.359 -0.426,9.22 2.325,14.28c0.695,1.281 1.526,2.574 2.5,3.872c0.653,-0.426 1.332,-0.816 2.029,-1.165l0.126,-0.066c2.776,-1.365 5.854,-2.102 9.01,-2.102c3.156,0 6.234,0.737 9.01,2.102c1.9,0.939 3.656,2.168 5.192,3.656c1.581,-1.56 3.403,-2.845 5.384,-3.813c2.772,-1.356 5.836,-2.087 8.975,-2.087c3.139,0 6.204,0.731 8.975,2.087c1.956,0.956 3.754,2.22 5.322,3.752c0.751,-0.733 1.554,-1.406 2.402,-2.011c-6.529,-3.033 -12.496,-5.902 -17.836,-8.609Zm15.953,-47.937c2.94,-2.938 4.76,-6.999 4.76,-11.483c0,-0.975 -0.086,-1.929 -0.251,-2.856c2.337,-1.389 4.447,-3.119 6.24,-5.339c1.624,-2.013 2.976,-4.412 3.986,-7.304c5.548,4.04 9.757,8.889 12.624,14.303c2.961,5.59 4.502,11.801 4.621,18.359l-0.666,-0.157c-3.04,-0.705 -6.275,-1.254 -9.586,-1.815c-2.679,-0.454 -5.412,-0.918 -8.056,-1.466c-1.251,-0.26 -2.478,0.543 -2.738,1.794c-0.26,1.251 0.544,2.477 1.796,2.737c2.788,0.578 5.539,1.045 8.236,1.502c3.236,0.549 6.396,1.085 9.314,1.762c10.466,2.428 17.924,6.922 14.787,22.313c-4.931,-1.319 -11.975,-3.037 -21.129,-5.154c-9.23,-2.307 -17.674,-4.737 -25.33,-7.287c-7.67,-2.554 -14.62,-5.25 -20.847,-8.084l-0.082,-0.036c-5.823,-2.411 -9.591,-4.934 -11.303,-7.567c-1.323,-2.033 -1.267,-4.259 0.166,-6.677c2.106,-0.935 4.445,-1.819 7.02,-2.655c0.822,1.923 2.003,3.655 3.46,5.111c2.94,2.938 7.004,4.757 11.49,4.757c4.486,0 8.549,-1.819 11.489,-4.757Z" style="fill:#189caa;"/></svg>