<?xml version="1.0" encoding="UTF-8" standalone="no"?>
<!DOCTYPE svg PUBLIC "-//W3C//DTD SVG 1.1//EN" "http://www.w3.org/Graphics/SVG/1.1/DTD/svg11.dtd">
<svg width="100%" height="100%" viewBox="0 0 224 212" version="1.1" xmlns="http://www.w3.org/2000/svg" xmlns:xlink="http://www.w3.org/1999/xlink" xml:space="preserve" xmlns:serif="http://www.serif.com/" style="fill-rule:evenodd;clip-rule:evenodd;stroke-linejoin:round;stroke-miterlimit:2;">
    <g transform="matrix(1,0,0,1,-1669,-3730)">
        <g id="Mute" transform="matrix(1,0,0,1,-0.50222,0)">
            <rect x="1669.502" y="3730" width="223.502" height="211.507" style="fill:none;"/>
            <g id="Hex" transform="matrix(0.75,0,0,0.75,1668.753331,3723.340217)">
                <path d="M209.253,235.306L158.055,259.5C153.094,261.848 146.906,261.848 141.945,259.5L38.613,210.672C33.578,208.293 30.301,203.781 30.301,198.719L30.301,101.062C30.301,96 33.578,91.484 38.613,89.105L59.737,79.124C58.881,82.252 59.682,85.738 62.139,88.195L64.439,90.495L45.242,99.566C44.406,99.961 44.066,100.586 44.066,101.062L44.066,198.719C44.066,199.195 44.406,199.82 45.242,200.215L148.57,249.043C149.457,249.461 150.539,249.461 151.43,249.043L155.079,247.319C163.434,251.668 171.616,250.848 177.829,247.967C184.05,245.082 190.03,239.093 192.331,229.715L200.025,226.079L209.253,235.306ZM91.063,64.321L141.945,40.277C144.449,39.094 147.227,38.508 149.996,38.508C152.762,38.508 155.551,39.094 158.055,40.277L261.383,89.105C266.418,91.484 269.699,96 269.699,101.062L269.699,198.719C269.699,203.781 266.414,208.293 261.383,210.672L240.097,220.731C241.207,217.47 240.461,213.717 237.861,211.117L235.88,209.136L254.758,200.215C255.594,199.82 255.934,199.195 255.934,198.719L255.934,101.062C255.934,100.586 255.594,99.961 254.758,99.566L192.638,70.211C190.451,59.623 183.34,53.483 175.772,50.884C169.768,48.823 162.293,48.838 155.081,52.464L151.43,50.738C150.992,50.531 150.5,50.422 149.996,50.422C149.496,50.422 149.008,50.531 148.57,50.738L100.293,73.552L91.063,64.321Z" style="fill:rgb(24,156,170);stroke:rgb(24,156,170);stroke-width:0.67px;"/>
            </g>
            <g transform="matrix(1.327955,0,0,1.327955,-619.057615,-1271.1814)">
                <g transform="matrix(4.215259,0,0,4.215259,1749.78956,3790.698878)">
                    <path d="M3.693,3.017L23.7,23.024" style="fill:none;stroke:rgb(24,156,170);stroke-width:2px;stroke-linecap:round;stroke-miterlimit:10;"/>
                </g>
                <g transform="matrix(0.339835,0,0,0.339835,1740.925458,3781.834777)">
                    <path d="M236.949,244.59L236.949,67.215C236.949,51.512 223.191,47.441 212.477,58.16L130.785,138.352L130.723,138.352L236.949,244.59Z" style="fill:rgb(24,156,170);"/>
                </g>
                <g transform="matrix(0.339835,0,0,0.339835,1740.925458,3781.834777)">
                    <path d="M100.766,138.352L88.102,138.352C81.27,138.352 75.699,143.922 75.699,150.754L75.699,225.176C75.699,232.012 81.27,237.582 88.102,237.582L130.883,237.582L212.09,317.289C224.496,329.691 236.949,323.293 236.949,306.387L236.949,274.531L100.766,138.352Z" style="fill:rgb(24,156,170);"/>
                </g>
            </g>
        </g>
        <g id="Palette">
        </g>
    </g>
</svg>
