<?xml version="1.0" encoding="UTF-8" standalone="no"?><!DOCTYPE svg PUBLIC "-//W3C//DTD SVG 1.1//EN" "http://www.w3.org/Graphics/SVG/1.1/DTD/svg11.dtd"><svg width="100%" height="100%" viewBox="0 0 224 212" version="1.1" xmlns="http://www.w3.org/2000/svg" xmlns:xlink="http://www.w3.org/1999/xlink" xml:space="preserve" xmlns:serif="http://www.serif.com/" style="fill-rule:evenodd;clip-rule:evenodd;stroke-linejoin:round;stroke-miterlimit:2;"><rect id="Notes" x="0" y="0.384" width="223.502" height="211.507" style="fill:none;"/><path id="path4-40-0" d="M62.96,167.899l-34.504,-16.304c-3.765,-1.779 -6.216,-5.153 -6.216,-8.939l0,-73.028c0,-3.786 2.451,-7.163 6.216,-8.942l50.545,-23.884c-0.185,0.236 -0.36,0.478 -0.528,0.727l-0.014,0.021c-0.226,0.337 -0.434,0.684 -0.625,1.039l-0.019,0.035c-0.183,0.344 -0.351,0.698 -0.503,1.06l-0.016,0.038c-0.156,0.375 -0.293,0.757 -0.412,1.146l-0.009,0.029c-0.042,0.139 -0.082,0.278 -0.119,0.419c-0.415,0.059 -0.829,0.13 -1.24,0.212c-0.696,0.14 -1.382,0.313 -2.06,0.521c-0.68,0.207 -1.348,0.447 -2.003,0.721c-0.654,0.272 -1.292,0.575 -1.916,0.908l-0.005,0.003c-0.624,0.335 -1.229,0.697 -1.817,1.091l-0.007,0.005c-0.589,0.394 -1.157,0.817 -1.705,1.267c-0.549,0.451 -1.074,0.927 -1.575,1.428l-0.008,0.008c-0.499,0.5 -0.974,1.023 -1.421,1.569c-0.45,0.547 -0.872,1.116 -1.266,1.704l-0.005,0.007c-0.392,0.587 -0.754,1.189 -1.088,1.81l-0.01,0.018c-0.333,0.623 -0.635,1.259 -0.905,1.91c-0.26,0.625 -0.49,1.26 -0.691,1.906l-25.621,12.107c-0.625,0.295 -0.879,0.762 -0.879,1.119l0,73.028c0,0.356 0.254,0.824 0.879,1.119l24.682,11.664c0.018,0.295 0.041,0.591 0.071,0.885l0.001,0.013c0.072,0.704 0.177,1.402 0.316,2.096c0.14,0.696 0.314,1.384 0.522,2.063c0.207,0.678 0.447,1.346 0.72,2.001c0.272,0.654 0.575,1.292 0.908,1.916l0.006,0.012c0.335,0.623 0.699,1.229 1.093,1.817c0.383,0.572 0.792,1.124 1.228,1.658Zm26.268,-135.929l16.5,-7.797c1.872,-0.885 3.949,-1.323 6.02,-1.323c2.068,0 4.154,0.438 6.026,1.323l16.498,7.796c-0.298,0.008 -0.596,0.026 -0.891,0.055l-0.04,0.004c-0.39,0.04 -0.775,0.097 -1.16,0.172l-0.052,0.01c-0.396,0.08 -0.787,0.178 -1.174,0.295c-0.397,0.12 -0.786,0.259 -1.169,0.418c-0.368,0.153 -0.728,0.322 -1.08,0.509l-0.054,0.029c-0.354,0.191 -0.701,0.398 -1.035,0.622c-0.339,0.226 -0.666,0.469 -0.983,0.728c-0.321,0.262 -0.628,0.541 -0.923,0.836l-0.022,0.023c-0.282,0.284 -0.551,0.58 -0.804,0.889c-0.223,0.271 -0.434,0.551 -0.633,0.84l-3.545,-1.675c-0.024,-0.024 -0.047,-0.048 -0.071,-0.072c-0.292,-0.292 -0.595,-0.567 -0.912,-0.826c-0.319,-0.263 -0.652,-0.509 -0.995,-0.738c-0.339,-0.226 -0.684,-0.434 -1.043,-0.627c-0.365,-0.196 -0.74,-0.374 -1.124,-0.533c-0.373,-0.155 -0.753,-0.291 -1.14,-0.41c-0.395,-0.121 -0.797,-0.223 -1.203,-0.304c-0.4,-0.08 -0.802,-0.141 -1.209,-0.182c-0.049,-0.005 -0.098,-0.01 -0.147,-0.014l-0.042,-0.02c-0.327,-0.155 -0.695,-0.237 -1.072,-0.237c-0.374,0 -0.739,0.082 -1.066,0.237l-0.042,0.02c-0.049,0.004 -0.097,0.009 -0.146,0.014l-0.005,0c-0.404,0.041 -0.806,0.102 -1.206,0.182c-0.404,0.081 -0.803,0.182 -1.197,0.302c-0.389,0.119 -0.77,0.256 -1.145,0.412c-0.384,0.159 -0.759,0.337 -1.124,0.533c-0.36,0.193 -0.709,0.402 -1.047,0.629c-0.342,0.228 -0.672,0.473 -0.99,0.735c-0.322,0.264 -0.631,0.544 -0.925,0.84c-0.02,0.02 -0.039,0.04 -0.059,0.059l-3.55,1.678c-0.199,-0.289 -0.41,-0.568 -0.633,-0.84c-0.261,-0.318 -0.536,-0.621 -0.825,-0.91c-0.292,-0.292 -0.595,-0.567 -0.912,-0.826c-0.319,-0.262 -0.649,-0.508 -0.992,-0.736c-0.337,-0.226 -0.686,-0.435 -1.045,-0.628c-0.365,-0.196 -0.74,-0.374 -1.124,-0.533c-0.372,-0.154 -0.75,-0.29 -1.133,-0.408l-0.013,-0.004c-0.394,-0.121 -0.793,-0.221 -1.197,-0.302c-0.4,-0.08 -0.802,-0.141 -1.209,-0.182c-0.31,-0.032 -0.622,-0.052 -0.934,-0.06Zm55.285,4.839l50.53,23.878c3.765,1.779 6.219,5.156 6.219,8.942l0,73.028c0,3.786 -2.457,7.16 -6.219,8.939l-34.5,16.303c0.435,-0.533 0.844,-1.086 1.227,-1.657c0.395,-0.589 0.76,-1.197 1.095,-1.823c0.336,-0.626 0.64,-1.266 0.912,-1.922c0.274,-0.657 0.515,-1.327 0.722,-2.008c0.206,-0.677 0.38,-1.362 0.519,-2.056c0.14,-0.696 0.245,-1.396 0.316,-2.102c0.03,-0.297 0.054,-0.594 0.072,-0.892l24.682,-11.664c0.625,-0.295 0.879,-0.762 0.879,-1.119l0,-73.028c0,-0.356 -0.254,-0.824 -0.879,-1.119l-25.621,-12.107c-0.2,-0.646 -0.43,-1.28 -0.691,-1.906c-0.272,-0.655 -0.576,-1.296 -0.912,-1.922c-0.334,-0.623 -0.697,-1.227 -1.09,-1.816l-0.005,-0.007c-0.394,-0.589 -0.817,-1.157 -1.267,-1.705c-0.448,-0.546 -0.922,-1.068 -1.42,-1.568l-0.015,-0.015c-0.5,-0.499 -1.021,-0.972 -1.568,-1.42c-0.548,-0.45 -1.116,-0.872 -1.705,-1.267l-0.007,-0.005c-0.586,-0.392 -1.19,-0.754 -1.811,-1.087l-0.012,-0.006c-0.622,-0.333 -1.259,-0.636 -1.912,-0.908l-0.007,-0.003c-0.653,-0.271 -1.32,-0.511 -1.997,-0.717c-0.679,-0.208 -1.366,-0.381 -2.063,-0.522c-0.411,-0.083 -0.823,-0.153 -1.238,-0.212c-0.036,-0.137 -0.075,-0.273 -0.115,-0.409l-0.013,-0.041c-0.119,-0.389 -0.255,-0.771 -0.411,-1.146c-0.159,-0.384 -0.337,-0.76 -0.534,-1.125c-0.192,-0.357 -0.399,-0.703 -0.622,-1.038l-0.007,-0.01c-0.169,-0.253 -0.348,-0.5 -0.534,-0.739Zm-0.884,139.082l-25.855,12.218c-3.71,1.756 -8.337,1.756 -12.047,0l-25.856,-12.218l21.503,0l9.307,4.398c0.663,0.313 1.472,0.313 2.138,0l9.307,-4.398l21.502,0Z" style="fill:#189caa;stroke:#189caa;stroke-width:0.5px;"/><g id="Notes1" serif:id="Notes"><path d="M139.167,44.534l0,4.569l-9.139,0l0,-4.569c0,-0.149 0.008,-0.298 0.022,-0.447c0.015,-0.149 0.037,-0.297 0.066,-0.443c0.029,-0.147 0.066,-0.292 0.109,-0.435c0.044,-0.143 0.094,-0.284 0.152,-0.422c0.057,-0.138 0.121,-0.274 0.191,-0.405c0.071,-0.132 0.147,-0.26 0.231,-0.384c0.083,-0.125 0.172,-0.245 0.267,-0.361c0.094,-0.115 0.196,-0.226 0.301,-0.332c0.106,-0.106 0.217,-0.206 0.332,-0.301c0.116,-0.095 0.236,-0.185 0.361,-0.267c0.124,-0.083 0.253,-0.16 0.384,-0.231c0.132,-0.07 0.267,-0.134 0.405,-0.191c0.138,-0.057 0.279,-0.108 0.422,-0.151c0.143,-0.044 0.288,-0.08 0.435,-0.11c0.147,-0.029 0.295,-0.051 0.444,-0.066c0.148,-0.014 0.298,-0.022 0.447,-0.022c0.15,0 0.299,0.008 0.448,0.022c0.148,0.015 0.297,0.037 0.443,0.066c0.147,0.029 0.292,0.066 0.435,0.11c0.143,0.043 0.284,0.094 0.422,0.151c0.138,0.057 0.274,0.121 0.405,0.191c0.132,0.071 0.26,0.147 0.385,0.231c0.124,0.083 0.244,0.172 0.36,0.267c0.115,0.094 0.227,0.195 0.332,0.301c0.106,0.106 0.206,0.217 0.302,0.332c0.094,0.115 0.184,0.236 0.267,0.361c0.083,0.124 0.159,0.252 0.23,0.384c0.071,0.131 0.135,0.267 0.192,0.405c0.057,0.138 0.107,0.279 0.151,0.422c0.043,0.143 0.08,0.288 0.109,0.435c0.029,0.147 0.051,0.294 0.066,0.443c0.015,0.149 0.022,0.298 0.022,0.447Zm-27.417,-4.568c-0.149,0.001 -0.298,0.008 -0.447,0.024c-0.148,0.015 -0.296,0.037 -0.442,0.067c-0.147,0.029 -0.292,0.066 -0.435,0.11c-0.143,0.044 -0.283,0.094 -0.421,0.152c-0.138,0.057 -0.273,0.121 -0.405,0.192c-0.132,0.071 -0.26,0.147 -0.384,0.231c-0.125,0.083 -0.244,0.172 -0.36,0.267c-0.115,0.094 -0.227,0.195 -0.332,0.301c-0.105,0.105 -0.206,0.216 -0.301,0.332c-0.095,0.115 -0.184,0.235 -0.267,0.359c-0.083,0.125 -0.16,0.253 -0.231,0.384c-0.071,0.131 -0.135,0.266 -0.192,0.405c-0.057,0.138 -0.108,0.279 -0.152,0.422c-0.044,0.142 -0.08,0.287 -0.11,0.434c-0.029,0.147 -0.051,0.294 -0.067,0.443c-0.015,0.148 -0.023,0.297 -0.024,0.447l0,4.569l9.139,0l0,-4.569c-0.001,-0.149 -0.008,-0.298 -0.024,-0.447c-0.015,-0.149 -0.037,-0.297 -0.067,-0.443c-0.029,-0.147 -0.067,-0.292 -0.11,-0.434c-0.043,-0.143 -0.094,-0.284 -0.152,-0.422c-0.057,-0.138 -0.121,-0.273 -0.192,-0.405c-0.07,-0.131 -0.147,-0.26 -0.23,-0.384c-0.083,-0.124 -0.173,-0.244 -0.267,-0.359c-0.095,-0.116 -0.196,-0.227 -0.301,-0.332c-0.106,-0.106 -0.217,-0.206 -0.332,-0.301c-0.115,-0.095 -0.236,-0.185 -0.36,-0.267c-0.125,-0.083 -0.252,-0.16 -0.384,-0.231c-0.131,-0.071 -0.266,-0.135 -0.405,-0.192c-0.138,-0.057 -0.279,-0.108 -0.422,-0.152c-0.142,-0.044 -0.287,-0.08 -0.434,-0.11c-0.147,-0.029 -0.294,-0.051 -0.443,-0.067c-0.148,-0.015 -0.297,-0.023 -0.447,-0.024Zm-22.847,0c-0.149,0.001 -0.298,0.008 -0.447,0.024c-0.149,0.015 -0.297,0.037 -0.443,0.067c-0.147,0.029 -0.292,0.066 -0.435,0.11c-0.142,0.044 -0.283,0.094 -0.421,0.152c-0.138,0.057 -0.273,0.121 -0.405,0.192c-0.132,0.071 -0.26,0.147 -0.384,0.231c-0.125,0.083 -0.244,0.172 -0.36,0.267c-0.115,0.094 -0.226,0.195 -0.332,0.301c-0.105,0.105 -0.206,0.216 -0.301,0.332c-0.095,0.115 -0.184,0.235 -0.267,0.359c-0.083,0.125 -0.16,0.253 -0.231,0.384c-0.07,0.131 -0.134,0.266 -0.192,0.405c-0.057,0.138 -0.108,0.279 -0.152,0.422c-0.043,0.142 -0.08,0.287 -0.11,0.434c-0.029,0.147 -0.051,0.294 -0.067,0.443c-0.015,0.148 -0.023,0.297 -0.024,0.447l0,4.569l9.139,0l0,-4.569c-0.001,-0.149 -0.008,-0.298 -0.024,-0.447c-0.015,-0.149 -0.037,-0.297 -0.067,-0.443c-0.029,-0.147 -0.067,-0.292 -0.11,-0.434c-0.044,-0.143 -0.094,-0.284 -0.152,-0.422c-0.058,-0.138 -0.122,-0.273 -0.192,-0.405c-0.071,-0.131 -0.147,-0.26 -0.231,-0.384c-0.083,-0.124 -0.172,-0.244 -0.267,-0.359c-0.095,-0.116 -0.196,-0.227 -0.301,-0.332c-0.106,-0.106 -0.217,-0.206 -0.332,-0.301c-0.115,-0.095 -0.235,-0.185 -0.36,-0.267c-0.124,-0.083 -0.252,-0.16 -0.384,-0.231c-0.131,-0.071 -0.266,-0.135 -0.405,-0.192c-0.138,-0.057 -0.279,-0.108 -0.421,-0.152c-0.143,-0.044 -0.288,-0.08 -0.435,-0.11c-0.147,-0.029 -0.294,-0.051 -0.443,-0.067c-0.148,-0.015 -0.297,-0.023 -0.447,-0.024Zm68.542,22.844l0,91.375c-0.002,0.448 -0.024,0.896 -0.07,1.342c-0.045,0.447 -0.111,0.889 -0.2,1.329c-0.088,0.44 -0.199,0.874 -0.33,1.303c-0.131,0.429 -0.282,0.851 -0.455,1.265c-0.172,0.415 -0.364,0.819 -0.576,1.214c-0.212,0.395 -0.442,0.78 -0.692,1.152c-0.249,0.372 -0.517,0.732 -0.801,1.08c-0.285,0.346 -0.586,0.678 -0.903,0.995c-0.318,0.317 -0.649,0.618 -0.996,0.903c-0.346,0.285 -0.706,0.552 -1.079,0.801c-0.373,0.249 -0.758,0.48 -1.153,0.692c-0.395,0.212 -0.8,0.404 -1.214,0.576c-0.414,0.172 -0.836,0.324 -1.265,0.455c-0.429,0.131 -0.863,0.24 -1.303,0.329c-0.44,0.088 -0.883,0.155 -1.33,0.201c-0.446,0.045 -0.893,0.068 -1.342,0.07l-63.973,0c-0.448,-0.002 -0.896,-0.025 -1.342,-0.07c-0.446,-0.046 -0.889,-0.112 -1.329,-0.201c-0.44,-0.088 -0.874,-0.198 -1.303,-0.329c-0.43,-0.131 -0.851,-0.283 -1.265,-0.455c-0.415,-0.173 -0.819,-0.365 -1.214,-0.576c-0.396,-0.212 -0.78,-0.442 -1.153,-0.692c-0.372,-0.249 -0.732,-0.517 -1.079,-0.801c-0.347,-0.285 -0.679,-0.586 -0.996,-0.903c-0.317,-0.317 -0.619,-0.649 -0.903,-0.995c-0.285,-0.347 -0.552,-0.707 -0.801,-1.08c-0.249,-0.372 -0.48,-0.757 -0.693,-1.152c-0.212,-0.395 -0.404,-0.8 -0.576,-1.214c-0.173,-0.414 -0.324,-0.836 -0.455,-1.265c-0.131,-0.429 -0.241,-0.863 -0.33,-1.303c-0.088,-0.44 -0.155,-0.882 -0.201,-1.329c-0.045,-0.446 -0.068,-0.893 -0.069,-1.342l0,-91.375c0.001,-0.448 0.024,-0.896 0.069,-1.342c0.046,-0.446 0.112,-0.889 0.201,-1.329c0.088,-0.44 0.198,-0.874 0.33,-1.303c0.131,-0.429 0.282,-0.85 0.455,-1.265c0.172,-0.414 0.364,-0.818 0.576,-1.214c0.212,-0.395 0.443,-0.779 0.693,-1.152c0.249,-0.372 0.517,-0.732 0.801,-1.079c0.284,-0.346 0.586,-0.678 0.903,-0.996c0.317,-0.317 0.649,-0.618 0.996,-0.903c0.346,-0.285 0.706,-0.552 1.079,-0.801c0.373,-0.249 0.757,-0.48 1.153,-0.692c0.395,-0.212 0.8,-0.404 1.214,-0.576c0.414,-0.173 0.835,-0.324 1.265,-0.455c0.429,-0.131 0.863,-0.241 1.303,-0.33c0.44,-0.088 0.883,-0.155 1.329,-0.201c0.447,-0.045 0.894,-0.068 1.342,-0.069l4.569,0l0,13.706c0,0.149 0.008,0.298 0.022,0.447c0.015,0.149 0.037,0.297 0.066,0.443c0.029,0.147 0.066,0.292 0.11,0.436c0.043,0.142 0.094,0.283 0.151,0.421c0.057,0.138 0.121,0.274 0.192,0.405c0.07,0.132 0.147,0.26 0.23,0.385c0.083,0.124 0.172,0.244 0.267,0.36c0.095,0.115 0.196,0.227 0.301,0.332c0.106,0.106 0.217,0.206 0.333,0.302c0.115,0.094 0.235,0.184 0.36,0.266c0.125,0.083 0.253,0.16 0.384,0.231c0.132,0.071 0.267,0.134 0.405,0.191c0.139,0.057 0.28,0.108 0.422,0.152c0.143,0.043 0.288,0.079 0.436,0.109c0.147,0.029 0.294,0.051 0.443,0.066c0.149,0.014 0.298,0.022 0.447,0.022c0.15,0 0.299,-0.008 0.448,-0.022c0.149,-0.014 0.297,-0.036 0.443,-0.066c0.147,-0.029 0.292,-0.066 0.435,-0.109c0.143,-0.044 0.284,-0.094 0.422,-0.152c0.139,-0.057 0.274,-0.121 0.405,-0.191c0.132,-0.071 0.26,-0.147 0.385,-0.231c0.125,-0.083 0.244,-0.172 0.36,-0.266c0.116,-0.095 0.227,-0.196 0.333,-0.302c0.105,-0.105 0.206,-0.217 0.301,-0.332c0.095,-0.115 0.184,-0.236 0.267,-0.36c0.083,-0.125 0.16,-0.253 0.23,-0.385c0.071,-0.131 0.135,-0.267 0.192,-0.405c0.057,-0.138 0.108,-0.279 0.151,-0.421c0.044,-0.143 0.08,-0.288 0.109,-0.436c0.029,-0.147 0.051,-0.294 0.067,-0.443c0.014,-0.149 0.022,-0.298 0.022,-0.447l0,-13.706l13.708,0l0,13.706c0,0.149 0.008,0.298 0.022,0.447c0.015,0.149 0.037,0.297 0.066,0.443c0.029,0.147 0.066,0.292 0.11,0.436c0.043,0.142 0.094,0.283 0.151,0.421c0.057,0.138 0.121,0.274 0.191,0.405c0.071,0.132 0.147,0.26 0.231,0.385c0.083,0.124 0.172,0.244 0.267,0.36c0.095,0.115 0.196,0.227 0.301,0.332c0.106,0.106 0.217,0.206 0.333,0.302c0.115,0.094 0.235,0.184 0.36,0.266c0.125,0.083 0.253,0.16 0.384,0.231c0.132,0.071 0.267,0.134 0.405,0.191c0.138,0.057 0.279,0.108 0.422,0.152c0.143,0.043 0.288,0.079 0.436,0.109c0.147,0.029 0.294,0.051 0.443,0.066c0.149,0.014 0.298,0.022 0.447,0.022c0.15,0 0.299,-0.008 0.448,-0.022c0.149,-0.014 0.297,-0.036 0.443,-0.066c0.147,-0.029 0.292,-0.066 0.435,-0.109c0.143,-0.044 0.284,-0.094 0.422,-0.152c0.138,-0.057 0.274,-0.121 0.405,-0.191c0.132,-0.071 0.26,-0.147 0.385,-0.231c0.124,-0.083 0.244,-0.172 0.36,-0.266c0.115,-0.095 0.227,-0.196 0.332,-0.302c0.106,-0.105 0.206,-0.217 0.302,-0.332c0.094,-0.115 0.184,-0.236 0.267,-0.36c0.083,-0.125 0.16,-0.253 0.23,-0.385c0.071,-0.131 0.135,-0.267 0.192,-0.405c0.057,-0.138 0.107,-0.279 0.151,-0.421c0.044,-0.143 0.08,-0.288 0.109,-0.436c0.029,-0.147 0.051,-0.294 0.066,-0.443c0.015,-0.149 0.023,-0.298 0.023,-0.447l0,-13.706l13.708,0l0,13.706c0,0.149 0.008,0.298 0.022,0.447c0.015,0.149 0.037,0.297 0.066,0.443c0.029,0.147 0.066,0.292 0.109,0.436c0.044,0.142 0.094,0.283 0.152,0.421c0.057,0.138 0.121,0.274 0.191,0.405c0.071,0.132 0.147,0.26 0.231,0.385c0.083,0.124 0.172,0.244 0.267,0.36c0.094,0.115 0.196,0.227 0.301,0.332c0.106,0.106 0.217,0.206 0.332,0.302c0.116,0.094 0.236,0.184 0.361,0.266c0.124,0.083 0.253,0.16 0.384,0.231c0.132,0.071 0.267,0.134 0.405,0.191c0.138,0.057 0.279,0.108 0.422,0.152c0.143,0.043 0.288,0.079 0.435,0.109c0.147,0.029 0.295,0.051 0.444,0.066c0.148,0.014 0.298,0.022 0.447,0.022c0.15,0 0.299,-0.008 0.448,-0.022c0.148,-0.014 0.297,-0.036 0.443,-0.066c0.147,-0.029 0.292,-0.066 0.435,-0.109c0.143,-0.044 0.284,-0.094 0.422,-0.152c0.138,-0.057 0.274,-0.121 0.405,-0.191c0.132,-0.071 0.26,-0.147 0.385,-0.231c0.124,-0.083 0.244,-0.172 0.36,-0.266c0.115,-0.095 0.227,-0.196 0.332,-0.302c0.106,-0.105 0.206,-0.217 0.302,-0.332c0.094,-0.115 0.184,-0.236 0.267,-0.36c0.083,-0.125 0.159,-0.253 0.23,-0.385c0.071,-0.131 0.135,-0.267 0.192,-0.405c0.057,-0.138 0.107,-0.279 0.151,-0.421c0.043,-0.143 0.08,-0.288 0.109,-0.436c0.029,-0.147 0.051,-0.294 0.066,-0.443c0.015,-0.149 0.022,-0.298 0.022,-0.447l0,-13.706l4.57,0c0.448,0.001 0.896,0.024 1.342,0.069c0.447,0.046 0.89,0.112 1.33,0.201c0.44,0.088 0.874,0.198 1.303,0.33c0.429,0.131 0.851,0.282 1.265,0.454c0.415,0.173 0.819,0.365 1.214,0.576c0.395,0.212 0.78,0.442 1.153,0.692c0.372,0.249 0.732,0.517 1.079,0.801c0.347,0.285 0.678,0.586 0.996,0.903c0.317,0.318 0.618,0.649 0.903,0.996c0.285,0.346 0.552,0.706 0.801,1.079c0.249,0.373 0.48,0.757 0.692,1.152c0.212,0.395 0.405,0.801 0.576,1.214c0.173,0.415 0.324,0.836 0.455,1.265c0.131,0.429 0.241,0.863 0.33,1.303c0.088,0.44 0.155,0.883 0.2,1.329c0.046,0.447 0.068,0.894 0.07,1.342Zm-13.708,82.238c-0.001,-0.15 -0.008,-0.299 -0.024,-0.447c-0.015,-0.149 -0.037,-0.297 -0.067,-0.443c-0.029,-0.147 -0.067,-0.291 -0.11,-0.434c-0.043,-0.143 -0.094,-0.283 -0.152,-0.421c-0.057,-0.138 -0.121,-0.273 -0.191,-0.405c-0.071,-0.131 -0.148,-0.26 -0.231,-0.383c-0.083,-0.125 -0.173,-0.244 -0.267,-0.36c-0.095,-0.115 -0.196,-0.226 -0.301,-0.332c-0.106,-0.105 -0.217,-0.206 -0.332,-0.301c-0.115,-0.095 -0.236,-0.184 -0.36,-0.267c-0.125,-0.083 -0.252,-0.16 -0.384,-0.231c-0.131,-0.07 -0.266,-0.134 -0.405,-0.191c-0.138,-0.058 -0.279,-0.109 -0.421,-0.152c-0.143,-0.044 -0.288,-0.081 -0.435,-0.11c-0.147,-0.029 -0.294,-0.051 -0.443,-0.067c-0.148,-0.015 -0.297,-0.023 -0.447,-0.023l-54.833,0c-0.149,0 -0.298,0.007 -0.447,0.022c-0.149,0.014 -0.297,0.036 -0.444,0.066c-0.147,0.029 -0.292,0.065 -0.435,0.109c-0.143,0.043 -0.284,0.094 -0.422,0.151c-0.138,0.057 -0.273,0.121 -0.405,0.192c-0.131,0.07 -0.26,0.147 -0.384,0.23c-0.125,0.083 -0.244,0.172 -0.36,0.267c-0.116,0.095 -0.227,0.196 -0.333,0.301c-0.105,0.106 -0.206,0.217 -0.301,0.333c-0.095,0.115 -0.184,0.235 -0.267,0.36c-0.083,0.125 -0.16,0.253 -0.231,0.384c-0.07,0.132 -0.134,0.267 -0.191,0.405c-0.057,0.138 -0.108,0.279 -0.151,0.422c-0.044,0.143 -0.08,0.288 -0.11,0.435c-0.029,0.147 -0.051,0.295 -0.066,0.443c-0.014,0.149 -0.022,0.298 -0.022,0.448c0,0.149 0.008,0.299 0.022,0.447c0.015,0.149 0.037,0.297 0.066,0.443c0.029,0.147 0.066,0.292 0.11,0.436c0.043,0.142 0.094,0.283 0.151,0.421c0.057,0.139 0.121,0.274 0.191,0.405c0.071,0.132 0.147,0.26 0.231,0.385c0.083,0.124 0.172,0.244 0.267,0.36c0.095,0.115 0.196,0.227 0.301,0.332c0.106,0.106 0.217,0.206 0.333,0.302c0.115,0.094 0.235,0.184 0.36,0.266c0.125,0.083 0.253,0.16 0.384,0.231c0.132,0.071 0.267,0.135 0.405,0.191c0.138,0.057 0.279,0.108 0.422,0.152c0.143,0.043 0.288,0.079 0.435,0.109c0.147,0.029 0.295,0.051 0.444,0.066c0.149,0.014 0.298,0.022 0.447,0.022l54.833,0c0.15,0 0.299,-0.008 0.447,-0.023c0.149,-0.015 0.297,-0.038 0.443,-0.067c0.147,-0.029 0.292,-0.066 0.435,-0.11c0.142,-0.044 0.283,-0.094 0.421,-0.152c0.138,-0.057 0.273,-0.121 0.405,-0.192c0.132,-0.071 0.26,-0.147 0.384,-0.23c0.124,-0.083 0.244,-0.173 0.36,-0.267c0.115,-0.095 0.226,-0.196 0.332,-0.301c0.105,-0.106 0.206,-0.217 0.301,-0.332c0.094,-0.115 0.184,-0.236 0.267,-0.36c0.083,-0.124 0.16,-0.252 0.231,-0.384c0.07,-0.131 0.134,-0.266 0.191,-0.405c0.058,-0.138 0.109,-0.279 0.152,-0.421c0.044,-0.143 0.081,-0.288 0.11,-0.435c0.029,-0.147 0.051,-0.294 0.067,-0.442c0.015,-0.149 0.023,-0.298 0.024,-0.447Zm0,-18.276c-0.001,-0.149 -0.008,-0.298 -0.024,-0.447c-0.015,-0.149 -0.037,-0.297 -0.067,-0.443c-0.029,-0.147 -0.067,-0.292 -0.11,-0.434c-0.043,-0.143 -0.094,-0.284 -0.152,-0.422c-0.057,-0.137 -0.121,-0.273 -0.191,-0.405c-0.071,-0.131 -0.148,-0.26 -0.231,-0.384c-0.083,-0.124 -0.173,-0.244 -0.267,-0.359c-0.095,-0.116 -0.196,-0.227 -0.301,-0.332c-0.106,-0.106 -0.217,-0.206 -0.332,-0.301c-0.115,-0.095 -0.236,-0.185 -0.36,-0.267c-0.125,-0.083 -0.252,-0.16 -0.384,-0.231c-0.131,-0.071 -0.266,-0.135 -0.405,-0.192c-0.138,-0.057 -0.279,-0.108 -0.421,-0.152c-0.143,-0.044 -0.288,-0.08 -0.435,-0.11c-0.147,-0.029 -0.294,-0.051 -0.443,-0.067c-0.148,-0.015 -0.297,-0.023 -0.447,-0.024l-54.833,0c-0.149,0 -0.298,0.008 -0.447,0.022c-0.149,0.015 -0.297,0.037 -0.444,0.066c-0.147,0.029 -0.292,0.066 -0.435,0.11c-0.143,0.043 -0.284,0.094 -0.422,0.151c-0.138,0.057 -0.273,0.121 -0.405,0.191c-0.131,0.071 -0.26,0.147 -0.384,0.231c-0.125,0.083 -0.244,0.172 -0.36,0.267c-0.116,0.094 -0.227,0.195 -0.333,0.301c-0.105,0.106 -0.206,0.217 -0.301,0.332c-0.095,0.115 -0.184,0.236 -0.267,0.361c-0.083,0.124 -0.16,0.252 -0.231,0.384c-0.07,0.131 -0.134,0.267 -0.191,0.405c-0.057,0.138 -0.108,0.279 -0.151,0.422c-0.044,0.143 -0.08,0.288 -0.11,0.435c-0.029,0.147 -0.051,0.294 -0.066,0.443c-0.014,0.149 -0.022,0.298 -0.022,0.447c0,0.15 0.008,0.299 0.022,0.448c0.015,0.149 0.037,0.297 0.066,0.443c0.029,0.147 0.066,0.292 0.11,0.435c0.043,0.143 0.094,0.284 0.151,0.422c0.057,0.138 0.121,0.273 0.191,0.405c0.071,0.132 0.147,0.26 0.231,0.384c0.083,0.125 0.172,0.245 0.267,0.361c0.095,0.115 0.196,0.226 0.301,0.332c0.106,0.106 0.217,0.206 0.333,0.301c0.115,0.095 0.235,0.185 0.36,0.267c0.125,0.083 0.253,0.16 0.384,0.231c0.132,0.07 0.267,0.134 0.405,0.191c0.138,0.057 0.279,0.108 0.422,0.151c0.143,0.044 0.288,0.08 0.435,0.11c0.147,0.029 0.295,0.051 0.444,0.066c0.149,0.014 0.298,0.022 0.447,0.022l54.833,0c0.15,-0.001 0.299,-0.008 0.447,-0.024c0.149,-0.015 0.297,-0.037 0.443,-0.067c0.147,-0.029 0.292,-0.066 0.435,-0.11c0.142,-0.044 0.283,-0.094 0.421,-0.152c0.138,-0.057 0.273,-0.121 0.405,-0.192c0.132,-0.071 0.26,-0.147 0.384,-0.231c0.124,-0.083 0.244,-0.172 0.36,-0.267c0.115,-0.094 0.226,-0.195 0.332,-0.301c0.105,-0.105 0.206,-0.216 0.301,-0.332c0.094,-0.115 0.184,-0.235 0.267,-0.359c0.083,-0.125 0.16,-0.253 0.231,-0.384c0.07,-0.131 0.134,-0.267 0.191,-0.405c0.058,-0.138 0.109,-0.279 0.152,-0.422c0.044,-0.142 0.081,-0.287 0.11,-0.434c0.029,-0.147 0.051,-0.294 0.067,-0.443c0.015,-0.148 0.023,-0.297 0.024,-0.447Zm0,-18.275c-0.001,-0.149 -0.008,-0.298 -0.024,-0.447c-0.015,-0.148 -0.037,-0.296 -0.067,-0.442c-0.029,-0.147 -0.067,-0.292 -0.11,-0.435c-0.043,-0.142 -0.094,-0.283 -0.152,-0.421c-0.057,-0.138 -0.121,-0.273 -0.191,-0.405c-0.071,-0.132 -0.148,-0.26 -0.231,-0.384c-0.083,-0.124 -0.173,-0.244 -0.267,-0.36c-0.095,-0.115 -0.196,-0.226 -0.301,-0.332c-0.106,-0.105 -0.217,-0.206 -0.332,-0.301c-0.115,-0.094 -0.236,-0.184 -0.36,-0.267c-0.125,-0.083 -0.252,-0.159 -0.384,-0.23c-0.131,-0.071 -0.266,-0.135 -0.405,-0.192c-0.138,-0.057 -0.279,-0.108 -0.421,-0.152c-0.143,-0.044 -0.288,-0.08 -0.435,-0.11c-0.147,-0.029 -0.294,-0.052 -0.443,-0.067c-0.148,-0.014 -0.297,-0.023 -0.447,-0.023l-54.833,0c-0.149,0 -0.298,0.008 -0.447,0.022c-0.149,0.014 -0.297,0.036 -0.444,0.066c-0.147,0.029 -0.292,0.066 -0.435,0.109c-0.143,0.044 -0.284,0.094 -0.422,0.151c-0.138,0.057 -0.273,0.121 -0.405,0.192c-0.131,0.071 -0.26,0.147 -0.384,0.23c-0.125,0.083 -0.244,0.173 -0.36,0.267c-0.116,0.095 -0.227,0.196 -0.333,0.302c-0.105,0.105 -0.206,0.217 -0.301,0.332c-0.095,0.115 -0.184,0.236 -0.267,0.36c-0.083,0.125 -0.16,0.253 -0.231,0.385c-0.07,0.131 -0.134,0.266 -0.191,0.405c-0.057,0.139 -0.108,0.28 -0.151,0.422c-0.044,0.143 -0.08,0.288 -0.11,0.435c-0.029,0.147 -0.051,0.295 -0.066,0.444c-0.014,0.148 -0.022,0.298 -0.022,0.447c0,0.15 0.008,0.299 0.022,0.448c0.015,0.148 0.037,0.297 0.066,0.443c0.029,0.147 0.066,0.292 0.11,0.435c0.043,0.143 0.094,0.284 0.151,0.422c0.057,0.138 0.121,0.273 0.191,0.405c0.071,0.131 0.147,0.26 0.231,0.384c0.083,0.125 0.172,0.244 0.267,0.36c0.095,0.116 0.196,0.227 0.301,0.333c0.106,0.105 0.217,0.206 0.333,0.301c0.115,0.095 0.235,0.184 0.36,0.267c0.125,0.083 0.253,0.16 0.384,0.23c0.132,0.071 0.267,0.135 0.405,0.192c0.138,0.057 0.279,0.108 0.422,0.151c0.143,0.044 0.288,0.08 0.435,0.109c0.147,0.029 0.295,0.051 0.444,0.066c0.149,0.015 0.298,0.022 0.447,0.022l54.833,0c0.15,0 0.299,-0.008 0.447,-0.023c0.149,-0.015 0.297,-0.037 0.443,-0.067c0.147,-0.029 0.292,-0.067 0.435,-0.11c0.142,-0.043 0.283,-0.094 0.421,-0.152c0.138,-0.057 0.273,-0.121 0.405,-0.191c0.132,-0.071 0.26,-0.147 0.384,-0.231c0.124,-0.083 0.244,-0.172 0.36,-0.267c0.115,-0.095 0.226,-0.196 0.332,-0.301c0.105,-0.106 0.206,-0.217 0.301,-0.332c0.094,-0.115 0.184,-0.235 0.267,-0.36c0.083,-0.124 0.16,-0.252 0.231,-0.383c0.07,-0.132 0.134,-0.267 0.191,-0.405c0.058,-0.138 0.109,-0.278 0.152,-0.421c0.044,-0.143 0.081,-0.287 0.11,-0.434c0.029,-0.147 0.051,-0.294 0.067,-0.443c0.015,-0.148 0.023,-0.297 0.024,-0.447Zm0,-18.275c-0.001,-0.15 -0.008,-0.299 -0.024,-0.447c-0.015,-0.149 -0.037,-0.297 -0.067,-0.443c-0.029,-0.147 -0.067,-0.291 -0.11,-0.434c-0.043,-0.143 -0.094,-0.284 -0.152,-0.421c-0.057,-0.138 -0.121,-0.273 -0.191,-0.405c-0.071,-0.131 -0.148,-0.26 -0.231,-0.383c-0.083,-0.125 -0.173,-0.244 -0.267,-0.36c-0.095,-0.115 -0.196,-0.226 -0.301,-0.332c-0.106,-0.105 -0.217,-0.206 -0.332,-0.301c-0.115,-0.095 -0.236,-0.184 -0.36,-0.267c-0.125,-0.083 -0.252,-0.16 -0.384,-0.231c-0.131,-0.07 -0.266,-0.134 -0.405,-0.192c-0.138,-0.057 -0.279,-0.108 -0.421,-0.151c-0.143,-0.044 -0.288,-0.081 -0.435,-0.11c-0.147,-0.029 -0.294,-0.051 -0.443,-0.067c-0.148,-0.015 -0.297,-0.023 -0.447,-0.024l-54.833,0c-0.149,0 -0.298,0.008 -0.447,0.023c-0.149,0.014 -0.297,0.036 -0.444,0.066c-0.147,0.029 -0.292,0.065 -0.435,0.109c-0.143,0.043 -0.284,0.094 -0.422,0.151c-0.138,0.057 -0.273,0.121 -0.405,0.192c-0.131,0.07 -0.26,0.147 -0.384,0.23c-0.125,0.083 -0.244,0.172 -0.36,0.267c-0.116,0.095 -0.227,0.196 -0.333,0.301c-0.105,0.106 -0.206,0.217 -0.301,0.333c-0.095,0.115 -0.184,0.235 -0.267,0.36c-0.083,0.124 -0.16,0.253 -0.231,0.384c-0.07,0.132 -0.134,0.267 -0.191,0.405c-0.057,0.138 -0.108,0.279 -0.151,0.422c-0.044,0.143 -0.08,0.288 -0.11,0.435c-0.029,0.147 -0.051,0.295 -0.066,0.443c-0.014,0.149 -0.022,0.298 -0.022,0.448c0,0.149 0.008,0.298 0.022,0.447c0.015,0.149 0.037,0.297 0.066,0.443c0.029,0.147 0.066,0.292 0.11,0.436c0.043,0.142 0.094,0.283 0.151,0.421c0.057,0.138 0.121,0.274 0.191,0.405c0.071,0.132 0.147,0.26 0.231,0.385c0.083,0.124 0.172,0.244 0.267,0.36c0.095,0.115 0.196,0.227 0.301,0.332c0.106,0.106 0.217,0.206 0.333,0.302c0.115,0.094 0.235,0.184 0.36,0.266c0.125,0.083 0.253,0.16 0.384,0.231c0.132,0.071 0.267,0.135 0.405,0.191c0.138,0.057 0.279,0.108 0.422,0.152c0.143,0.043 0.288,0.079 0.435,0.109c0.147,0.029 0.295,0.051 0.444,0.066c0.149,0.014 0.298,0.022 0.447,0.022l54.833,0c0.15,0 0.299,-0.008 0.447,-0.023c0.149,-0.015 0.297,-0.038 0.443,-0.067c0.147,-0.029 0.292,-0.066 0.435,-0.11c0.142,-0.044 0.283,-0.094 0.421,-0.152c0.138,-0.057 0.273,-0.121 0.405,-0.192c0.132,-0.071 0.26,-0.147 0.384,-0.23c0.124,-0.083 0.244,-0.173 0.36,-0.267c0.115,-0.095 0.226,-0.196 0.332,-0.301c0.105,-0.106 0.206,-0.217 0.301,-0.332c0.094,-0.115 0.184,-0.236 0.267,-0.36c0.083,-0.125 0.16,-0.252 0.231,-0.384c0.07,-0.131 0.134,-0.266 0.191,-0.405c0.058,-0.138 0.109,-0.279 0.152,-0.421c0.044,-0.143 0.081,-0.288 0.11,-0.435c0.029,-0.147 0.051,-0.294 0.067,-0.442c0.015,-0.149 0.023,-0.298 0.024,-0.447Z" style="fill:#189caa;fill-rule:nonzero;"/></g></svg>