<?xml version="1.0" encoding="UTF-8" standalone="no"?><!DOCTYPE svg PUBLIC "-//W3C//DTD SVG 1.1//EN" "http://www.w3.org/Graphics/SVG/1.1/DTD/svg11.dtd"><svg width="100%" height="100%" viewBox="0 0 224 212" version="1.1" xmlns="http://www.w3.org/2000/svg" xmlns:xlink="http://www.w3.org/1999/xlink" xml:space="preserve" xmlns:serif="http://www.serif.com/" style="fill-rule:evenodd;clip-rule:evenodd;stroke-linejoin:round;stroke-miterlimit:2;"><rect id="Oats" x="0" y="-0" width="223.502" height="211.507" style="fill:none;"/><path id="Hex" d="M22.24,88.346l0,-19.101c0,-3.786 2.451,-7.163 6.216,-8.942l77.272,-36.514c1.872,-0.885 3.949,-1.323 6.02,-1.323c2.068,0 4.154,0.438 6.026,1.323l77.269,36.514c3.765,1.779 6.219,5.156 6.219,8.942l0,19.101c-0.359,-0.057 -0.723,-0.086 -1.091,-0.086l-9.203,-0l0,-19.016c0,-0.356 -0.254,-0.824 -0.879,-1.119l-22.721,-10.737c-0.044,-0.073 -0.088,-0.146 -0.133,-0.219c-0.297,-0.485 -0.612,-0.955 -0.941,-1.411c-0.336,-0.465 -0.689,-0.914 -1.057,-1.346c-0.369,-0.433 -0.752,-0.849 -1.149,-1.247c-0.402,-0.403 -0.817,-0.785 -1.246,-1.151l-0.003,-0.003c-0.433,-0.369 -0.879,-0.717 -1.339,-1.047l-0.006,-0.004c-0.461,-0.33 -0.933,-0.639 -1.417,-0.927l-0.008,-0.005c-0.489,-0.291 -0.988,-0.56 -1.497,-0.805c-0.512,-0.248 -1.033,-0.471 -1.56,-0.671l-0.021,-0.008c-0.525,-0.197 -1.055,-0.371 -1.593,-0.523l-0.017,-0.005c-0.543,-0.151 -1.092,-0.278 -1.645,-0.38l-0.02,-0.004c-0.559,-0.102 -1.122,-0.179 -1.686,-0.23c-0.55,-0.052 -1.123,-0.077 -1.697,-0.077c-0.085,0 -0.17,0.002 -0.256,0.005l-0.114,-0.211c-0.502,-0.917 -1.059,-1.789 -1.671,-2.614c-0.623,-0.841 -1.296,-1.626 -2.017,-2.354c-0.735,-0.743 -1.515,-1.423 -2.335,-2.038c-0.837,-0.627 -1.709,-1.181 -2.615,-1.664l-0.005,-0.002c-0.924,-0.492 -1.873,-0.904 -2.849,-1.238c-0.988,-0.338 -1.991,-0.594 -3.011,-0.765c-1.027,-0.174 -2.061,-0.262 -3.101,-0.264l-0.027,-0c0,0 -2.402,0.161 -3.44,0.369c-0.459,-0.615 -0.945,-1.2 -1.459,-1.755c-0.615,-0.666 -1.264,-1.283 -1.946,-1.856l-0.015,-0.012c-0.697,-0.582 -1.422,-1.11 -2.176,-1.587c-0.771,-0.488 -1.568,-0.918 -2.385,-1.29l-0.005,-0.002c-0.826,-0.374 -1.67,-0.688 -2.53,-0.941c-0.87,-0.256 -1.75,-0.447 -2.642,-0.576l-0.015,-0.002c-0.896,-0.127 -1.794,-0.19 -2.696,-0.188l-0.143,0c-3.723,0.009 -3.801,0.046 0,0c-0.967,0.012 -1.929,0.097 -2.887,0.258l-0.002,0c-0.948,0.16 -1.883,0.389 -2.804,0.693c-0.913,0.301 -1.803,0.668 -2.673,1.107c-0.85,0.428 -1.673,0.92 -2.467,1.474l-0.015,0.01c-0.78,0.547 -1.526,1.152 -2.235,1.813l-0.001,0.001c-0.7,0.653 -1.359,1.354 -1.974,2.108c-0.412,0.503 -0.804,1.027 -1.174,1.571l-0.15,-0.049l-0.005,-0.002c-0.706,-0.226 -1.418,-0.408 -2.141,-0.548c-0.721,-0.141 -1.447,-0.239 -2.176,-0.294l-0.019,-0.001c-0.727,-0.053 -1.455,-0.064 -2.184,-0.033l-0.019,0.001c-0.732,0.033 -1.46,0.109 -2.184,0.228c-0.725,0.118 -1.443,0.279 -2.152,0.484c-0.703,0.202 -1.395,0.445 -2.074,0.728c-0.672,0.28 -1.33,0.6 -1.972,0.956l-0.007,0.004c-0.639,0.356 -1.258,0.747 -1.86,1.177c-0.595,0.423 -1.17,0.881 -1.723,1.373c-0.545,0.484 -1.067,0.998 -1.566,1.545c-0.486,0.533 -0.949,1.096 -1.386,1.683l-0.006,0.008c-0.434,0.585 -0.84,1.192 -1.219,1.825c-0.26,0.434 -0.507,0.879 -0.739,1.333c-0.567,0.001 -1.134,0.029 -1.697,0.083c-0.57,0.053 -1.139,0.133 -1.703,0.239c-0.562,0.105 -1.119,0.235 -1.671,0.391c-0.551,0.155 -1.095,0.336 -1.634,0.542l-0.021,0.008c-0.528,0.203 -1.047,0.428 -1.558,0.678l-0.019,0.009c-0.503,0.247 -0.998,0.515 -1.484,0.805l-0.026,0.016c-0.481,0.29 -0.952,0.601 -1.413,0.934c-0.464,0.334 -0.917,0.691 -1.357,1.069c-0.433,0.372 -0.853,0.762 -1.259,1.173c-0.397,0.402 -0.78,0.82 -1.149,1.257c-0.368,0.436 -0.719,0.888 -1.056,1.356l-0.007,0.01c-0.211,0.294 -0.414,0.593 -0.611,0.897l-22.99,10.864c-0.625,0.295 -0.879,0.762 -0.879,1.119l0,19.016l-9.203,0c-0.368,0 -0.732,0.029 -1.091,0.086Zm179.023,31.076l0,22.851c0,3.786 -2.457,7.16 -6.219,8.939l-37.667,17.8l0,-9.802l0.345,-0.073c1.184,-0.253 2.36,-0.545 3.529,-0.877l0.002,-0.001c1.165,-0.331 2.323,-0.702 3.47,-1.111l0.005,-0.002c1.145,-0.409 2.278,-0.855 3.4,-1.34c1.121,-0.483 2.229,-1.005 3.323,-1.564c1.092,-0.557 2.17,-1.15 3.232,-1.781c1.057,-0.627 2.097,-1.288 3.12,-1.985c1.022,-0.695 2.024,-1.425 3.008,-2.187l0.005,-0.004c0.524,-0.406 1.042,-0.822 1.554,-1.246l7.721,-3.648c0.625,-0.295 0.879,-0.762 0.879,-1.119l0,-3.888c0.185,-0.226 0.37,-0.453 0.552,-0.682c0.794,-0.992 1.561,-2.009 2.302,-3.054c0.738,-1.039 1.451,-2.103 2.135,-3.19l0.005,-0.008c0.681,-1.085 1.335,-2.19 1.962,-3.319l0.001,-0.002c0.626,-1.128 1.223,-2.276 1.79,-3.445c0.684,-1.409 0.866,-2.983 0.558,-4.472c0.352,-0.233 0.683,-0.497 0.988,-0.79Zm-69.61,61.745l-13.878,6.558c-3.71,1.756 -8.337,1.756 -12.047,0l-13.879,-6.558l39.803,0Zm-65.566,-12.174l-37.631,-17.782c-3.765,-1.779 -6.216,-5.153 -6.216,-8.939l0,-22.843c0.304,0.291 0.633,0.553 0.983,0.785c-0.309,1.491 -0.128,3.066 0.556,4.476c0.566,1.167 1.162,2.315 1.787,3.443c0.626,1.13 1.282,2.24 1.965,3.327c0.684,1.088 1.396,2.153 2.134,3.193c0.741,1.044 1.508,2.062 2.3,3.054c0.189,0.236 0.379,0.471 0.57,0.704l0,3.862c0,0.356 0.254,0.824 0.879,1.119l7.649,3.615c0.527,0.438 1.061,0.866 1.6,1.284c0.984,0.764 1.988,1.495 3.01,2.191c1.022,0.696 2.061,1.358 3.118,1.986l0.006,0.003c1.059,0.628 2.132,1.22 3.22,1.776l0.009,0.005c1.092,0.557 2.196,1.077 3.315,1.561l0.004,0.002c1.122,0.484 2.256,0.932 3.402,1.34c1.146,0.409 2.301,0.779 3.466,1.11c1.169,0.334 2.347,0.627 3.531,0.88l0.343,0.072l0,9.777Z" style="fill:#189caa;stroke:#189caa;stroke-width:0.5px;"/><g id="Oats1" serif:id="Oats"><path d="M30.077,121.635c0.51,1.053 1.048,2.088 1.612,3.106c0.563,1.017 1.153,2.015 1.767,2.993c0.615,0.977 1.254,1.934 1.917,2.868c0.664,0.936 1.35,1.846 2.06,2.735c0.71,0.889 1.441,1.753 2.195,2.592c0.754,0.839 1.529,1.653 2.324,2.439c0.796,0.788 1.611,1.547 2.444,2.28c0.834,0.732 1.687,1.436 2.557,2.11c0.87,0.675 1.757,1.321 2.66,1.936c0.903,0.615 1.821,1.199 2.754,1.754c0.933,0.553 1.879,1.075 2.838,1.565c0.96,0.489 1.93,0.947 2.914,1.372c0.982,0.424 1.975,0.816 2.978,1.173c1.003,0.357 2.013,0.682 3.033,0.971c1.019,0.291 2.045,0.546 3.077,0.767c1.033,0.221 2.07,0.407 3.111,0.557c0.19,0.028 0.375,0.074 0.558,0.141c0.182,0.065 0.357,0.149 0.527,0.253c0.168,0.102 0.328,0.221 0.478,0.356c0.15,0.136 0.288,0.286 0.415,0.45c0.127,0.165 0.239,0.341 0.338,0.529c0.099,0.189 0.181,0.385 0.249,0.589c0.068,0.206 0.119,0.417 0.153,0.632c0.034,0.216 0.051,0.433 0.051,0.652l0,17.71l77.29,0l0,-17.717c0,-0.219 0.017,-0.436 0.053,-0.652c0.034,-0.216 0.085,-0.426 0.152,-0.631c0.068,-0.206 0.151,-0.402 0.25,-0.59c0.099,-0.187 0.211,-0.364 0.337,-0.528c0.127,-0.165 0.265,-0.316 0.415,-0.451c0.15,-0.136 0.31,-0.254 0.478,-0.356c0.169,-0.102 0.345,-0.187 0.527,-0.253c0.182,-0.067 0.369,-0.112 0.558,-0.139c1.042,-0.152 2.081,-0.338 3.113,-0.558c1.033,-0.221 2.059,-0.476 3.079,-0.765c1.019,-0.29 2.031,-0.614 3.034,-0.971c1.004,-0.359 1.997,-0.749 2.98,-1.175c0.983,-0.424 1.955,-0.881 2.915,-1.372c0.96,-0.489 1.907,-1.011 2.84,-1.565c0.933,-0.553 1.852,-1.138 2.755,-1.753c0.904,-0.615 1.791,-1.261 2.662,-1.935c0.871,-0.675 1.723,-1.379 2.559,-2.111c0.834,-0.732 1.651,-1.493 2.446,-2.279c0.796,-0.788 1.571,-1.601 2.326,-2.441c0.755,-0.839 1.488,-1.703 2.197,-2.592c0.711,-0.889 1.399,-1.8 2.062,-2.735c0.664,-0.934 1.304,-1.891 1.92,-2.868c0.615,-0.979 1.204,-1.976 1.77,-2.994c0.564,-1.017 1.103,-2.052 1.614,-3.106l-163.343,0.007Z" style="fill:#189caa;fill-rule:nonzero;"/><path d="M200.172,95.26l-176.841,0c0.175,3.28 0.576,6.524 1.205,9.73c0.63,3.206 1.479,6.334 2.546,9.384l169.33,0c1.07,-3.049 1.92,-6.176 2.55,-9.384c0.631,-3.206 1.034,-6.45 1.209,-9.73Z" style="fill:#189caa;fill-rule:nonzero;"/><path d="M179.463,83.233c-0.005,-0.503 -0.031,-1.005 -0.078,-1.504c-0.046,-0.5 -0.114,-0.996 -0.203,-1.489c-0.088,-0.492 -0.197,-0.977 -0.327,-1.458c-0.129,-0.481 -0.278,-0.953 -0.447,-1.416c-0.168,-0.463 -0.356,-0.917 -0.563,-1.36c-0.207,-0.444 -0.432,-0.874 -0.676,-1.292c-0.242,-0.418 -0.503,-0.822 -0.78,-1.21c-0.277,-0.389 -0.569,-0.763 -0.878,-1.119c-0.308,-0.357 -0.631,-0.696 -0.967,-1.018c-0.337,-0.32 -0.685,-0.622 -1.048,-0.905c-0.362,-0.282 -0.735,-0.545 -1.119,-0.786c-0.385,-0.24 -0.778,-0.46 -1.18,-0.658c-0.403,-0.197 -0.813,-0.372 -1.23,-0.525c-0.417,-0.152 -0.84,-0.281 -1.268,-0.387c-0.428,-0.105 -0.859,-0.186 -1.293,-0.244c-0.435,-0.058 -0.872,-0.092 -1.309,-0.101c-0.164,-0.004 -0.328,-0.021 -0.49,-0.054c-0.163,-0.032 -0.322,-0.079 -0.478,-0.141c-0.156,-0.062 -0.307,-0.136 -0.453,-0.224c-0.146,-0.089 -0.284,-0.19 -0.417,-0.303c-0.132,-0.113 -0.255,-0.238 -0.37,-0.372c-0.116,-0.136 -0.221,-0.281 -0.316,-0.435c-0.095,-0.155 -0.179,-0.317 -0.253,-0.487c-0.073,-0.169 -0.134,-0.344 -0.183,-0.525c-0.104,-0.391 -0.221,-0.777 -0.351,-1.157c-0.13,-0.38 -0.273,-0.753 -0.429,-1.12c-0.157,-0.367 -0.325,-0.727 -0.506,-1.079c-0.181,-0.351 -0.374,-0.695 -0.579,-1.028c-0.205,-0.334 -0.421,-0.658 -0.649,-0.973c-0.227,-0.314 -0.465,-0.618 -0.714,-0.91c-0.249,-0.292 -0.507,-0.573 -0.775,-0.842c-0.268,-0.269 -0.545,-0.524 -0.831,-0.768c-0.285,-0.243 -0.579,-0.472 -0.882,-0.689c-0.301,-0.216 -0.61,-0.418 -0.927,-0.606c-0.315,-0.187 -0.637,-0.361 -0.965,-0.519c-0.328,-0.159 -0.662,-0.302 -1,-0.43c-0.338,-0.127 -0.679,-0.239 -1.025,-0.336c-0.345,-0.096 -0.694,-0.176 -1.046,-0.242c-0.351,-0.064 -0.705,-0.112 -1.059,-0.144c-0.355,-0.033 -0.71,-0.048 -1.066,-0.048c-0.722,0.027 -1.439,0.106 -2.152,0.235c-0.173,0.031 -0.345,0.044 -0.519,0.043c-0.175,-0.001 -0.347,-0.02 -0.519,-0.053c-0.172,-0.033 -0.34,-0.083 -0.504,-0.147c-0.165,-0.064 -0.324,-0.143 -0.478,-0.237c-0.153,-0.094 -0.3,-0.201 -0.439,-0.322c-0.138,-0.121 -0.268,-0.254 -0.388,-0.398c-0.12,-0.144 -0.231,-0.298 -0.329,-0.463c-0.099,-0.165 -0.186,-0.338 -0.26,-0.518c-0.265,-0.687 -0.571,-1.347 -0.919,-1.982c-0.347,-0.635 -0.732,-1.239 -1.156,-1.809c-0.424,-0.572 -0.88,-1.106 -1.371,-1.601c-0.49,-0.495 -1.009,-0.949 -1.556,-1.358c-0.547,-0.41 -1.118,-0.773 -1.71,-1.088c-0.593,-0.316 -1.202,-0.581 -1.829,-0.795c-0.626,-0.214 -1.262,-0.377 -1.909,-0.486c-0.646,-0.11 -1.296,-0.165 -1.949,-0.166l-0.063,0c-1.435,0.048 -2.831,0.34 -4.189,0.875c-0.165,0.062 -0.335,0.107 -0.507,0.137c-0.172,0.031 -0.345,0.043 -0.519,0.041c-0.175,-0.002 -0.347,-0.022 -0.519,-0.058c-0.172,-0.036 -0.339,-0.088 -0.503,-0.155c-0.164,-0.068 -0.322,-0.15 -0.474,-0.249c-0.152,-0.097 -0.296,-0.21 -0.432,-0.334c-0.136,-0.126 -0.263,-0.263 -0.379,-0.412c-0.117,-0.149 -0.221,-0.308 -0.314,-0.477c-0.302,-0.551 -0.634,-1.077 -0.994,-1.58c-0.36,-0.503 -0.746,-0.977 -1.159,-1.424c-0.413,-0.447 -0.848,-0.862 -1.306,-1.246c-0.459,-0.383 -0.936,-0.731 -1.433,-1.045c-0.497,-0.314 -1.009,-0.592 -1.536,-0.831c-0.528,-0.239 -1.066,-0.44 -1.615,-0.601c-0.549,-0.161 -1.105,-0.282 -1.668,-0.364c-0.563,-0.08 -1.127,-0.12 -1.695,-0.118l-0.073,0c-0.607,0.007 -1.211,0.06 -1.812,0.161c-0.601,0.101 -1.193,0.247 -1.776,0.439c-0.584,0.192 -1.154,0.428 -1.711,0.709c-0.556,0.28 -1.093,0.601 -1.612,0.964c-0.518,0.364 -1.013,0.765 -1.484,1.204c-0.472,0.44 -0.916,0.913 -1.331,1.421c-0.416,0.508 -0.801,1.046 -1.154,1.613c-0.353,0.567 -0.671,1.16 -0.954,1.776c-0.098,0.207 -0.21,0.401 -0.34,0.583c-0.13,0.181 -0.272,0.346 -0.43,0.497c-0.158,0.149 -0.326,0.281 -0.506,0.392c-0.179,0.112 -0.367,0.203 -0.561,0.275c-0.195,0.07 -0.395,0.118 -0.597,0.144c-0.204,0.026 -0.406,0.03 -0.61,0.01c-0.204,-0.018 -0.404,-0.06 -0.601,-0.124c-0.197,-0.064 -0.386,-0.149 -0.568,-0.255c-0.409,-0.243 -0.826,-0.461 -1.254,-0.653c-0.427,-0.194 -0.862,-0.361 -1.304,-0.503c-0.443,-0.142 -0.89,-0.256 -1.344,-0.344c-0.453,-0.089 -0.908,-0.15 -1.366,-0.185c-0.458,-0.033 -0.917,-0.041 -1.376,-0.021c-0.459,0.021 -0.916,0.068 -1.371,0.143c-0.455,0.074 -0.905,0.175 -1.35,0.303c-0.446,0.128 -0.885,0.282 -1.316,0.462c-0.432,0.18 -0.855,0.386 -1.268,0.615c-0.414,0.23 -0.815,0.484 -1.205,0.763c-0.39,0.277 -0.768,0.578 -1.13,0.901c-0.364,0.323 -0.712,0.666 -1.045,1.03c-0.331,0.364 -0.647,0.747 -0.945,1.148c-0.298,0.402 -0.577,0.82 -0.838,1.255c-0.261,0.434 -0.5,0.884 -0.72,1.346c-0.22,0.463 -0.419,0.939 -0.596,1.425c-0.068,0.184 -0.148,0.36 -0.24,0.529c-0.093,0.169 -0.197,0.327 -0.313,0.476c-0.116,0.148 -0.241,0.285 -0.376,0.41c-0.135,0.124 -0.279,0.237 -0.43,0.334c-0.151,0.097 -0.308,0.181 -0.471,0.249c-0.163,0.068 -0.33,0.121 -0.501,0.157c-0.171,0.037 -0.343,0.058 -0.517,0.062c-0.174,0.004 -0.346,-0.009 -0.518,-0.037c-0.667,-0.144 -1.341,-0.217 -2.019,-0.218c-0.36,0 -0.721,0.017 -1.079,0.052c-0.359,0.033 -0.717,0.084 -1.072,0.15c-0.356,0.067 -0.709,0.149 -1.059,0.248c-0.35,0.099 -0.695,0.213 -1.037,0.344c-0.342,0.132 -0.679,0.277 -1.01,0.439c-0.331,0.163 -0.657,0.339 -0.977,0.53c-0.319,0.192 -0.631,0.398 -0.936,0.619c-0.305,0.219 -0.602,0.454 -0.89,0.701c-0.288,0.248 -0.568,0.508 -0.839,0.781c-0.27,0.274 -0.531,0.558 -0.782,0.855c-0.251,0.297 -0.49,0.605 -0.72,0.924c-0.23,0.32 -0.447,0.65 -0.653,0.989c-0.206,0.339 -0.4,0.688 -0.582,1.045c-0.182,0.356 -0.351,0.721 -0.507,1.095c-0.157,0.372 -0.3,0.752 -0.43,1.138c-0.13,0.386 -0.247,0.777 -0.35,1.173c-0.048,0.181 -0.108,0.357 -0.181,0.528c-0.072,0.17 -0.156,0.333 -0.25,0.488c-0.094,0.155 -0.198,0.302 -0.313,0.439c-0.115,0.137 -0.237,0.261 -0.369,0.376c-0.132,0.115 -0.27,0.217 -0.415,0.307c-0.146,0.089 -0.297,0.165 -0.453,0.228c-0.156,0.062 -0.315,0.11 -0.477,0.144c-0.162,0.033 -0.326,0.053 -0.491,0.057c-0.436,0.015 -0.872,0.052 -1.305,0.115c-0.433,0.062 -0.863,0.148 -1.289,0.258c-0.426,0.11 -0.847,0.243 -1.262,0.399c-0.414,0.157 -0.822,0.335 -1.222,0.537c-0.4,0.201 -0.79,0.425 -1.172,0.669c-0.381,0.245 -0.751,0.51 -1.11,0.796c-0.358,0.286 -0.705,0.592 -1.038,0.916c-0.332,0.324 -0.652,0.667 -0.957,1.027c-0.304,0.359 -0.593,0.735 -0.865,1.127c-0.272,0.392 -0.529,0.797 -0.768,1.218c-0.238,0.42 -0.459,0.852 -0.662,1.297c-0.202,0.445 -0.385,0.899 -0.549,1.364c-0.164,0.465 -0.309,0.937 -0.433,1.417c-0.124,0.482 -0.228,0.968 -0.312,1.461c-0.083,0.492 -0.146,0.987 -0.188,1.488c-0.042,0.499 -0.062,1 -0.062,1.501c0.02,1.347 0.191,2.669 0.513,3.964l134.215,0c0.459,-1.546 0.691,-3.134 0.696,-4.766Zm-108.112,-3.566c-0.192,0.092 -0.389,0.161 -0.593,0.208c-0.204,0.048 -0.409,0.071 -0.617,0.071c-0.207,0.001 -0.413,-0.021 -0.617,-0.068c-0.204,-0.046 -0.401,-0.113 -0.593,-0.205c-0.192,-0.091 -0.374,-0.202 -0.548,-0.334c-0.173,-0.132 -0.332,-0.282 -0.479,-0.45c-0.147,-0.169 -0.279,-0.351 -0.395,-0.55c-0.116,-0.197 -0.213,-0.407 -0.294,-0.626l-2.039,-5.621c-0.087,-0.221 -0.153,-0.45 -0.199,-0.687c-0.047,-0.237 -0.073,-0.476 -0.078,-0.719c-0.004,-0.243 0.011,-0.483 0.048,-0.722c0.038,-0.238 0.094,-0.471 0.172,-0.696c0.078,-0.226 0.175,-0.44 0.29,-0.643c0.115,-0.203 0.247,-0.392 0.395,-0.565c0.148,-0.174 0.309,-0.328 0.484,-0.465c0.175,-0.136 0.36,-0.25 0.556,-0.344c0.194,-0.094 0.396,-0.164 0.603,-0.211c0.207,-0.047 0.416,-0.07 0.627,-0.069c0.211,0.001 0.42,0.026 0.627,0.075c0.207,0.049 0.408,0.121 0.602,0.217c0.194,0.095 0.379,0.212 0.552,0.349c0.174,0.138 0.335,0.295 0.482,0.47c0.146,0.174 0.277,0.364 0.389,0.568c0.114,0.205 0.209,0.42 0.284,0.647l2.043,5.623c0.079,0.219 0.139,0.445 0.181,0.679c0.041,0.233 0.062,0.468 0.063,0.706c0,0.238 -0.019,0.473 -0.059,0.706c-0.039,0.234 -0.098,0.461 -0.176,0.682c-0.078,0.219 -0.175,0.429 -0.29,0.627c-0.114,0.198 -0.243,0.382 -0.389,0.551c-0.146,0.17 -0.305,0.32 -0.476,0.455c-0.172,0.133 -0.352,0.245 -0.543,0.338l-0.013,0Zm31.387,-11.841c-0.192,0.091 -0.389,0.16 -0.593,0.207c-0.203,0.047 -0.409,0.07 -0.616,0.07c-0.208,0.001 -0.413,-0.022 -0.617,-0.068c-0.204,-0.047 -0.401,-0.115 -0.593,-0.206c-0.192,-0.091 -0.374,-0.202 -0.547,-0.334c-0.173,-0.133 -0.332,-0.282 -0.479,-0.451c-0.147,-0.168 -0.279,-0.351 -0.394,-0.548c-0.116,-0.198 -0.213,-0.407 -0.294,-0.627l-2.029,-5.623c-0.084,-0.221 -0.147,-0.449 -0.191,-0.684c-0.044,-0.235 -0.068,-0.473 -0.071,-0.714c-0.002,-0.242 0.015,-0.479 0.054,-0.716c0.039,-0.237 0.098,-0.467 0.176,-0.69c0.078,-0.223 0.175,-0.435 0.29,-0.636c0.116,-0.202 0.247,-0.388 0.394,-0.558c0.148,-0.171 0.308,-0.324 0.482,-0.459c0.174,-0.136 0.358,-0.249 0.551,-0.341c0.193,-0.092 0.394,-0.161 0.598,-0.21c0.206,-0.047 0.413,-0.07 0.623,-0.069c0.209,0 0.417,0.025 0.622,0.071c0.206,0.048 0.405,0.12 0.598,0.212c0.193,0.094 0.376,0.208 0.549,0.343c0.174,0.136 0.334,0.29 0.48,0.461c0.147,0.171 0.278,0.359 0.393,0.56c0.114,0.202 0.21,0.414 0.287,0.638l2.04,5.623c0.079,0.221 0.139,0.447 0.181,0.68c0.041,0.234 0.061,0.47 0.062,0.709c0,0.238 -0.019,0.475 -0.059,0.709c-0.041,0.233 -0.1,0.461 -0.179,0.682c-0.078,0.221 -0.176,0.43 -0.291,0.629c-0.115,0.198 -0.246,0.382 -0.391,0.551c-0.147,0.169 -0.307,0.319 -0.478,0.452c-0.173,0.133 -0.355,0.245 -0.546,0.338l-0.013,0Zm34.75,0c-0.387,0.189 -0.793,0.282 -1.214,0.282c-0.312,0 -0.617,-0.052 -0.916,-0.155c-0.298,-0.105 -0.578,-0.256 -0.838,-0.455c-0.26,-0.198 -0.488,-0.438 -0.686,-0.714c-0.198,-0.277 -0.357,-0.581 -0.477,-0.912l-2.042,-5.623c-0.076,-0.219 -0.133,-0.445 -0.172,-0.677c-0.038,-0.233 -0.056,-0.467 -0.054,-0.703c0.002,-0.237 0.024,-0.47 0.065,-0.701c0.042,-0.23 0.102,-0.455 0.182,-0.673c0.079,-0.217 0.177,-0.424 0.292,-0.62c0.115,-0.196 0.245,-0.377 0.39,-0.544c0.146,-0.166 0.304,-0.316 0.475,-0.446c0.171,-0.132 0.351,-0.243 0.541,-0.333c0.19,-0.091 0.385,-0.16 0.587,-0.207c0.202,-0.047 0.405,-0.071 0.61,-0.073c0.206,-0.001 0.41,0.021 0.611,0.064c0.202,0.044 0.398,0.111 0.589,0.2c0.191,0.088 0.372,0.196 0.545,0.325c0.172,0.129 0.331,0.276 0.479,0.44c0.147,0.165 0.279,0.344 0.396,0.539c0.117,0.195 0.216,0.399 0.298,0.616l2.042,5.623c0.079,0.219 0.139,0.446 0.18,0.679c0.042,0.233 0.062,0.468 0.062,0.706c0.001,0.238 -0.018,0.473 -0.058,0.706c-0.04,0.233 -0.099,0.46 -0.178,0.68c-0.078,0.219 -0.175,0.429 -0.288,0.627c-0.115,0.198 -0.245,0.382 -0.39,0.551c-0.145,0.169 -0.304,0.319 -0.475,0.452c-0.172,0.133 -0.353,0.247 -0.544,0.339l-0.013,0.004Zm28.491,16.061c-0.387,0.189 -0.793,0.283 -1.213,0.283c-0.312,0 -0.618,-0.053 -0.917,-0.157c-0.298,-0.105 -0.578,-0.255 -0.838,-0.455c-0.26,-0.198 -0.488,-0.436 -0.686,-0.714c-0.198,-0.277 -0.357,-0.581 -0.477,-0.912l-2.042,-5.619c-0.08,-0.221 -0.142,-0.447 -0.182,-0.682c-0.042,-0.233 -0.062,-0.47 -0.063,-0.708c-0.001,-0.239 0.019,-0.476 0.059,-0.71c0.04,-0.234 0.099,-0.461 0.178,-0.682c0.079,-0.221 0.176,-0.431 0.291,-0.63c0.115,-0.198 0.246,-0.382 0.393,-0.552c0.146,-0.169 0.306,-0.32 0.478,-0.452c0.173,-0.133 0.354,-0.247 0.546,-0.338c0.192,-0.092 0.389,-0.161 0.593,-0.208c0.204,-0.048 0.41,-0.071 0.618,-0.071c0.207,-0.001 0.413,0.022 0.617,0.068c0.204,0.047 0.402,0.115 0.594,0.206c0.192,0.091 0.374,0.202 0.548,0.334c0.173,0.133 0.332,0.283 0.479,0.451c0.147,0.169 0.279,0.353 0.395,0.551c0.116,0.197 0.213,0.407 0.293,0.627l2.039,5.623c0.079,0.219 0.14,0.446 0.181,0.679c0.041,0.233 0.061,0.468 0.062,0.706c0.001,0.237 -0.018,0.472 -0.058,0.706c-0.04,0.233 -0.099,0.46 -0.177,0.679c-0.078,0.221 -0.175,0.429 -0.288,0.627c-0.115,0.198 -0.245,0.382 -0.389,0.551c-0.146,0.169 -0.305,0.32 -0.475,0.454c-0.172,0.133 -0.353,0.247 -0.544,0.339l-0.013,0.004Z" style="fill:#189caa;fill-rule:nonzero;"/></g></svg>