<?xml version="1.0" encoding="UTF-8" standalone="no"?><!DOCTYPE svg PUBLIC "-//W3C//DTD SVG 1.1//EN" "http://www.w3.org/Graphics/SVG/1.1/DTD/svg11.dtd"><svg width="100%" height="100%" viewBox="0 0 224 212" version="1.1" xmlns="http://www.w3.org/2000/svg" xmlns:xlink="http://www.w3.org/1999/xlink" xml:space="preserve" xmlns:serif="http://www.serif.com/" style="fill-rule:evenodd;clip-rule:evenodd;stroke-linejoin:round;stroke-miterlimit:2;"><rect id="Palette" x="0" y="0.384" width="223.502" height="211.507" style="fill:none;"/><path id="path4-40-0" d="M50.674,162.093l-22.218,-10.499c-3.765,-1.779 -6.216,-5.153 -6.216,-8.939l0,-73.028c0,-3.786 2.451,-7.163 6.216,-8.942l77.272,-36.514c1.872,-0.885 3.949,-1.323 6.02,-1.323c2.068,0 4.154,0.438 6.026,1.323l17.296,8.173c-1.096,1 -1.91,2.301 -2.319,3.774c0,0 -0.509,1.842 -1.22,4.718l-18.712,-8.843c-0.327,-0.155 -0.695,-0.237 -1.072,-0.237c-0.374,0 -0.739,0.082 -1.066,0.237l-77.269,36.514c-0.625,0.295 -0.879,0.762 -0.879,1.119l0,73.028c0,0.356 0.254,0.824 0.879,1.119l7.711,3.644c2.45,5.461 5.691,10.381 9.55,14.675Zm107.634,-118.766l36.736,17.36c3.765,1.779 6.219,5.156 6.219,8.942l0,73.028c0,3.786 -2.457,7.16 -6.219,8.939l-77.269,36.514c-3.71,1.756 -8.337,1.756 -12.047,0l-18.702,-8.837c4.212,-1.093 6.799,-3.052 8.545,-5.174c0.187,-0.227 0.366,-0.459 0.536,-0.696l14.575,6.887c0.663,0.313 1.472,0.313 2.138,0l55.717,-26.329c2.721,1.446 5.825,1.905 9.104,0.928c0.595,-0.151 5.247,-1.486 7.979,-6.593c0.454,-0.849 0.88,-1.833 1.2,-2.975l3.27,-1.545c0.625,-0.295 0.879,-0.762 0.879,-1.119l0,-73.028c0,-0.356 -0.254,-0.824 -0.879,-1.119l-18.557,-8.769c-1.297,-2.993 -4.026,-6.839 -7.556,-10.678c-1.761,-1.914 -3.712,-3.867 -5.668,-5.735Z" style="fill:#189caa;stroke:#189caa;stroke-width:0.5px;"/><path d="M178.974,137.746c1.906,7.994 -3.502,9.438 -3.502,9.438c-4.892,1.581 -8.287,-6.821 -8.287,-6.821l-18.445,-45.946c-0.093,-0.29 -0.171,-0.584 -0.236,-0.881c-0.064,-0.297 -0.113,-0.598 -0.148,-0.9c-0.034,-0.302 -0.053,-0.606 -0.059,-0.91c-0.005,-0.304 0.005,-0.609 0.031,-0.912c0.025,-0.303 0.065,-0.605 0.119,-0.904c0.055,-0.299 0.123,-0.596 0.207,-0.889c0.084,-0.292 0.182,-0.58 0.294,-0.863c0.112,-0.284 0.238,-0.561 0.376,-0.831c0.139,-0.271 0.291,-0.534 0.457,-0.79c0.165,-0.256 0.341,-0.503 0.531,-0.742c0.189,-0.239 0.39,-0.467 0.602,-0.686c0.212,-0.219 0.434,-0.427 0.667,-0.623c0.231,-0.197 0.473,-0.383 0.723,-0.555c0.251,-0.174 0.509,-0.334 0.775,-0.482c0.266,-0.148 0.539,-0.283 0.819,-0.404c0.279,-0.12 0.564,-0.228 0.854,-0.321c0.29,-0.094 0.584,-0.173 0.881,-0.237c0.298,-0.065 0.599,-0.114 0.901,-0.149c0.302,-0.035 0.607,-0.055 0.911,-0.06c0.304,-0.005 0.609,0.005 0.912,0.03c0.303,0.025 0.606,0.065 0.905,0.119c0.3,0.055 0.597,0.123 0.89,0.208c0.293,0.083 0.581,0.181 0.864,0.293c0.284,0.112 0.561,0.238 0.832,0.376c0.271,0.139 0.535,0.291 0.791,0.457c0.256,0.165 0.503,0.341 0.742,0.531c0.239,0.19 0.468,0.391 0.687,0.603c0.219,0.211 0.427,0.433 0.624,0.665c0.196,0.232 0.383,0.474 0.555,0.724c0.174,0.251 0.334,0.509 0.482,0.776c0.148,0.266 0.283,0.539 0.404,0.819c0.121,0.279 0.228,0.564 0.322,0.854l12.519,49.015Zm-43.297,-65.122c-2.546,-7.923 4.785,-34.366 4.785,-34.366c0,0 21.366,17.223 23.916,25.145c0.151,0.47 0.279,0.946 0.383,1.429c0.104,0.482 0.184,0.968 0.24,1.459c0.057,0.491 0.088,0.982 0.097,1.475c0.007,0.494 -0.009,0.986 -0.049,1.478c-0.04,0.492 -0.105,0.98 -0.193,1.466c-0.088,0.485 -0.201,0.966 -0.336,1.44c-0.136,0.474 -0.294,0.941 -0.475,1.4c-0.182,0.459 -0.386,0.907 -0.611,1.346c-0.225,0.439 -0.472,0.866 -0.74,1.281c-0.267,0.415 -0.554,0.815 -0.862,1.201c-0.307,0.387 -0.632,0.757 -0.975,1.112c-0.344,0.354 -0.703,0.691 -1.079,1.01c-0.376,0.319 -0.767,0.619 -1.174,0.9c-0.406,0.281 -0.824,0.541 -1.256,0.781c-0.431,0.24 -0.873,0.458 -1.326,0.654c-0.454,0.196 -0.914,0.369 -1.384,0.52c-0.47,0.151 -0.946,0.279 -1.429,0.383c-0.482,0.104 -0.968,0.185 -1.459,0.241c-0.491,0.057 -0.982,0.089 -1.476,0.098c-0.493,0.007 -0.985,-0.008 -1.478,-0.048c-0.492,-0.04 -0.98,-0.105 -1.466,-0.193c-0.485,-0.087 -0.966,-0.2 -1.44,-0.335c-0.474,-0.135 -0.941,-0.293 -1.401,-0.475c-0.459,-0.181 -0.907,-0.384 -1.346,-0.609c-0.439,-0.226 -0.866,-0.472 -1.282,-0.74c-0.415,-0.267 -0.815,-0.554 -1.201,-0.861c-0.387,-0.307 -0.758,-0.632 -1.113,-0.974c-0.355,-0.344 -0.691,-0.703 -1.011,-1.079c-0.319,-0.376 -0.619,-0.767 -0.9,-1.173c-0.282,-0.405 -0.542,-0.824 -0.782,-1.255c-0.24,-0.432 -0.459,-0.873 -0.655,-1.326c-0.196,-0.453 -0.37,-0.914 -0.521,-1.383Zm9.857,33.666c5.906,17.416 1.383,35.935 -10.236,49.153c-14.559,7.883 -9.477,-19.32 -32.217,-11.883c-22.741,7.437 -2.137,26.481 -20.864,28.457c-16.183,-4.041 -29.887,-15.657 -35.504,-32.231c-8.928,-26.333 5.955,-55.179 33.245,-64.424c27.289,-9.244 56.648,4.593 65.576,30.928Zm-22.822,-11.748c-0.211,-0.049 -0.425,-0.089 -0.64,-0.118c-0.215,-0.029 -0.431,-0.047 -0.648,-0.055c-0.217,-0.007 -0.434,-0.005 -0.651,0.009c-0.216,0.013 -0.432,0.037 -0.646,0.072c-0.215,0.035 -0.427,0.08 -0.637,0.136c-0.21,0.056 -0.417,0.121 -0.62,0.197c-0.203,0.076 -0.402,0.161 -0.597,0.257c-0.195,0.096 -0.386,0.201 -0.57,0.315c-0.185,0.113 -0.363,0.237 -0.536,0.368c-0.173,0.132 -0.338,0.272 -0.498,0.42c-0.158,0.148 -0.31,0.303 -0.454,0.466c-0.143,0.163 -0.279,0.332 -0.405,0.508c-0.128,0.177 -0.245,0.358 -0.354,0.546c-0.109,0.187 -0.209,0.381 -0.299,0.578c-0.091,0.197 -0.171,0.398 -0.241,0.604c-0.07,0.206 -0.131,0.413 -0.18,0.625c-0.05,0.211 -0.089,0.424 -0.118,0.64c-0.029,0.215 -0.047,0.431 -0.056,0.648c-0.007,0.217 -0.004,0.433 0.009,0.65c0.013,0.217 0.038,0.432 0.073,0.646c0.034,0.215 0.079,0.427 0.135,0.637c0.057,0.21 0.122,0.417 0.197,0.62c0.076,0.203 0.161,0.402 0.257,0.597c0.096,0.195 0.201,0.386 0.315,0.57c0.114,0.185 0.238,0.363 0.369,0.536c0.132,0.173 0.272,0.338 0.42,0.497c0.147,0.159 0.302,0.311 0.466,0.454c0.163,0.144 0.332,0.279 0.508,0.406c0.176,0.127 0.358,0.245 0.546,0.354c0.187,0.109 0.381,0.209 0.578,0.298c0.197,0.091 0.399,0.171 0.604,0.241c0.206,0.071 0.415,0.131 0.625,0.181c0.211,0.049 0.425,0.088 0.64,0.118c0.215,0.029 0.431,0.046 0.648,0.055c0.217,0.007 0.434,0.005 0.651,-0.009c0.216,-0.013 0.432,-0.037 0.646,-0.072c0.215,-0.035 0.427,-0.08 0.637,-0.136c0.21,-0.056 0.417,-0.121 0.619,-0.197c0.204,-0.076 0.403,-0.161 0.598,-0.257c0.195,-0.096 0.386,-0.201 0.57,-0.315c0.185,-0.114 0.363,-0.237 0.536,-0.368c0.173,-0.132 0.338,-0.272 0.498,-0.42c0.158,-0.148 0.31,-0.303 0.454,-0.466c0.143,-0.163 0.279,-0.332 0.405,-0.508c0.128,-0.177 0.245,-0.358 0.354,-0.546c0.109,-0.187 0.209,-0.381 0.299,-0.578c0.091,-0.197 0.171,-0.398 0.241,-0.604c0.07,-0.206 0.131,-0.413 0.18,-0.625c0.05,-0.211 0.089,-0.424 0.118,-0.64c0.029,-0.215 0.047,-0.431 0.056,-0.648c0.007,-0.217 0.004,-0.433 -0.009,-0.65c-0.013,-0.217 -0.038,-0.432 -0.073,-0.647c-0.035,-0.214 -0.079,-0.426 -0.136,-0.636c-0.056,-0.21 -0.121,-0.417 -0.196,-0.62c-0.076,-0.203 -0.163,-0.402 -0.257,-0.597c-0.096,-0.195 -0.201,-0.386 -0.315,-0.57c-0.114,-0.185 -0.238,-0.363 -0.369,-0.536c-0.132,-0.173 -0.272,-0.338 -0.42,-0.497c-0.147,-0.159 -0.303,-0.311 -0.466,-0.454c-0.163,-0.144 -0.332,-0.279 -0.508,-0.406c-0.176,-0.127 -0.358,-0.245 -0.546,-0.354c-0.187,-0.109 -0.381,-0.209 -0.578,-0.298c-0.197,-0.091 -0.399,-0.171 -0.604,-0.241c-0.206,-0.071 -0.415,-0.131 -0.625,-0.181Zm-32.56,-3.184c0,-0.217 -0.01,-0.433 -0.032,-0.649c-0.021,-0.216 -0.052,-0.431 -0.095,-0.644c-0.043,-0.213 -0.096,-0.423 -0.158,-0.631c-0.063,-0.208 -0.136,-0.412 -0.219,-0.613c-0.083,-0.201 -0.176,-0.396 -0.279,-0.587c-0.102,-0.191 -0.214,-0.377 -0.334,-0.559c-0.12,-0.18 -0.25,-0.355 -0.388,-0.523c-0.138,-0.168 -0.283,-0.328 -0.436,-0.481c-0.154,-0.153 -0.315,-0.299 -0.482,-0.437c-0.168,-0.138 -0.343,-0.266 -0.523,-0.388c-0.181,-0.12 -0.366,-0.231 -0.559,-0.334c-0.191,-0.102 -0.387,-0.194 -0.587,-0.278c-0.201,-0.083 -0.405,-0.156 -0.613,-0.219c-0.208,-0.063 -0.418,-0.116 -0.631,-0.158c-0.213,-0.042 -0.428,-0.074 -0.644,-0.096c-0.216,-0.021 -0.433,-0.032 -0.65,-0.032c-0.217,0 -0.433,0.011 -0.65,0.032c-0.216,0.022 -0.43,0.053 -0.643,0.096c-0.213,0.042 -0.424,0.096 -0.632,0.158c-0.208,0.063 -0.411,0.136 -0.612,0.219c-0.201,0.083 -0.397,0.176 -0.588,0.278c-0.191,0.103 -0.377,0.214 -0.557,0.334c-0.181,0.121 -0.355,0.25 -0.524,0.388c-0.168,0.138 -0.328,0.284 -0.481,0.437c-0.153,0.153 -0.299,0.314 -0.437,0.481c-0.138,0.168 -0.266,0.343 -0.388,0.523c-0.12,0.181 -0.231,0.367 -0.334,0.559c-0.102,0.191 -0.195,0.387 -0.278,0.587c-0.083,0.201 -0.156,0.405 -0.219,0.613c-0.064,0.208 -0.116,0.418 -0.158,0.631c-0.042,0.213 -0.074,0.428 -0.096,0.644c-0.022,0.216 -0.032,0.432 -0.032,0.649c0,0.217 0.01,0.434 0.032,0.65c0.022,0.216 0.053,0.431 0.096,0.644c0.042,0.213 0.095,0.423 0.158,0.631c0.063,0.208 0.136,0.411 0.219,0.612c0.082,0.201 0.176,0.397 0.278,0.588c0.103,0.191 0.214,0.377 0.334,0.557c0.121,0.181 0.25,0.355 0.388,0.523c0.138,0.169 0.284,0.329 0.437,0.482c0.153,0.153 0.314,0.299 0.481,0.437c0.169,0.138 0.343,0.266 0.524,0.387c0.18,0.121 0.366,0.232 0.557,0.334c0.191,0.103 0.388,0.195 0.588,0.279c0.201,0.083 0.404,0.156 0.612,0.219c0.208,0.063 0.419,0.115 0.632,0.158c0.213,0.042 0.427,0.074 0.643,0.095c0.217,0.022 0.433,0.032 0.65,0.032c0.217,0 0.434,-0.01 0.65,-0.032c0.216,-0.021 0.431,-0.052 0.644,-0.095c0.213,-0.043 0.423,-0.096 0.631,-0.158c0.208,-0.063 0.412,-0.136 0.613,-0.219c0.201,-0.083 0.396,-0.176 0.587,-0.279c0.192,-0.102 0.377,-0.213 0.559,-0.334c0.18,-0.12 0.355,-0.249 0.523,-0.387c0.168,-0.138 0.328,-0.284 0.482,-0.437c0.153,-0.153 0.298,-0.314 0.436,-0.482c0.138,-0.168 0.267,-0.341 0.388,-0.523c0.12,-0.18 0.232,-0.366 0.334,-0.557c0.103,-0.191 0.195,-0.388 0.279,-0.588c0.083,-0.201 0.156,-0.404 0.219,-0.612c0.063,-0.208 0.115,-0.418 0.158,-0.631c0.042,-0.213 0.074,-0.428 0.095,-0.644c0.022,-0.216 0.032,-0.433 0.032,-0.65Zm-7.655,45.966c0,-0.34 -0.016,-0.679 -0.05,-1.017c-0.033,-0.338 -0.082,-0.674 -0.149,-1.007c-0.066,-0.333 -0.149,-0.662 -0.248,-0.987c-0.098,-0.325 -0.213,-0.645 -0.343,-0.959c-0.13,-0.315 -0.276,-0.621 -0.435,-0.921c-0.16,-0.3 -0.335,-0.591 -0.524,-0.873c-0.189,-0.283 -0.391,-0.555 -0.607,-0.818c-0.216,-0.263 -0.443,-0.514 -0.684,-0.755c-0.241,-0.24 -0.492,-0.468 -0.755,-0.684c-0.262,-0.215 -0.535,-0.418 -0.818,-0.606c-0.282,-0.189 -0.574,-0.363 -0.873,-0.524c-0.299,-0.16 -0.607,-0.305 -0.921,-0.435c-0.314,-0.131 -0.634,-0.245 -0.959,-0.344c-0.325,-0.099 -0.654,-0.181 -0.987,-0.247c-0.334,-0.067 -0.67,-0.116 -1.008,-0.15c-0.338,-0.033 -0.677,-0.049 -1.017,-0.049c-0.339,0 -0.679,0.016 -1.016,0.049c-0.338,0.034 -0.675,0.083 -1.008,0.15c-0.333,0.066 -0.662,0.148 -0.987,0.247c-0.325,0.099 -0.645,0.213 -0.959,0.344c-0.315,0.13 -0.621,0.275 -0.921,0.435c-0.3,0.16 -0.591,0.334 -0.873,0.524c-0.283,0.188 -0.555,0.391 -0.819,0.606c-0.262,0.216 -0.514,0.444 -0.754,0.684c-0.241,0.241 -0.469,0.492 -0.684,0.755c-0.216,0.262 -0.418,0.535 -0.607,0.818c-0.188,0.282 -0.363,0.573 -0.524,0.873c-0.16,0.299 -0.305,0.606 -0.435,0.921c-0.131,0.314 -0.245,0.634 -0.344,0.959c-0.099,0.325 -0.181,0.654 -0.247,0.987c-0.067,0.333 -0.116,0.669 -0.15,1.007c-0.033,0.338 -0.049,0.677 -0.049,1.017c0,0.339 0.016,0.679 0.049,1.016c0.034,0.338 0.083,0.675 0.15,1.008c0.066,0.333 0.148,0.662 0.247,0.987c0.099,0.325 0.213,0.645 0.344,0.959c0.13,0.314 0.275,0.62 0.435,0.921c0.16,0.299 0.335,0.59 0.524,0.873c0.189,0.282 0.391,0.554 0.607,0.818c0.215,0.262 0.443,0.514 0.684,0.754c0.24,0.241 0.492,0.468 0.754,0.684c0.263,0.215 0.536,0.418 0.819,0.607c0.282,0.188 0.573,0.363 0.873,0.523c0.299,0.16 0.606,0.305 0.921,0.436c0.314,0.13 0.634,0.244 0.959,0.343c0.325,0.099 0.654,0.181 0.987,0.248c0.333,0.066 0.67,0.116 1.008,0.149c0.337,0.033 0.677,0.05 1.016,0.05c0.34,0 0.679,-0.017 1.017,-0.05c0.338,-0.033 0.674,-0.083 1.008,-0.149c0.333,-0.067 0.662,-0.149 0.987,-0.248c0.325,-0.099 0.645,-0.213 0.959,-0.343c0.314,-0.131 0.621,-0.276 0.921,-0.436c0.299,-0.159 0.591,-0.334 0.873,-0.523c0.283,-0.189 0.555,-0.392 0.818,-0.607c0.263,-0.216 0.514,-0.443 0.755,-0.684c0.241,-0.24 0.468,-0.492 0.684,-0.754c0.216,-0.263 0.418,-0.536 0.607,-0.818c0.188,-0.283 0.363,-0.574 0.524,-0.873c0.159,-0.3 0.305,-0.607 0.435,-0.921c0.13,-0.314 0.245,-0.634 0.343,-0.959c0.099,-0.325 0.182,-0.654 0.248,-0.987c0.067,-0.333 0.116,-0.67 0.149,-1.008c0.034,-0.337 0.05,-0.677 0.05,-1.016Zm23.528,-55.105c-0.212,-0.05 -0.425,-0.089 -0.64,-0.118c-0.215,-0.029 -0.431,-0.047 -0.648,-0.055c-0.217,-0.008 -0.434,-0.005 -0.651,0.008c-0.216,0.013 -0.432,0.038 -0.646,0.073c-0.215,0.035 -0.427,0.08 -0.637,0.136c-0.21,0.056 -0.417,0.121 -0.62,0.196c-0.203,0.076 -0.402,0.163 -0.598,0.257c-0.194,0.096 -0.385,0.201 -0.569,0.315c-0.185,0.114 -0.364,0.238 -0.536,0.369c-0.173,0.132 -0.338,0.272 -0.498,0.419c-0.158,0.148 -0.31,0.303 -0.454,0.467c-0.143,0.163 -0.279,0.332 -0.405,0.508c-0.128,0.176 -0.246,0.358 -0.355,0.545c-0.109,0.188 -0.208,0.381 -0.298,0.578c-0.091,0.197 -0.171,0.399 -0.241,0.605c-0.071,0.205 -0.131,0.413 -0.18,0.624c-0.05,0.212 -0.089,0.425 -0.118,0.64c-0.029,0.215 -0.047,0.431 -0.056,0.648c-0.007,0.217 -0.004,0.434 0.009,0.651c0.013,0.216 0.038,0.432 0.072,0.646c0.035,0.214 0.08,0.427 0.136,0.637c0.056,0.21 0.121,0.416 0.197,0.619c0.076,0.204 0.161,0.402 0.257,0.598c0.096,0.195 0.201,0.385 0.315,0.57c0.114,0.184 0.237,0.363 0.368,0.536c0.133,0.172 0.272,0.337 0.42,0.497c0.148,0.158 0.303,0.31 0.467,0.454c0.163,0.143 0.332,0.279 0.508,0.405c0.176,0.128 0.358,0.245 0.546,0.354c0.187,0.109 0.38,0.209 0.578,0.299c0.197,0.091 0.398,0.171 0.604,0.241c0.206,0.07 0.413,0.131 0.625,0.18c0.211,0.05 0.425,0.089 0.64,0.118c0.215,0.029 0.431,0.047 0.648,0.056c0.217,0.007 0.434,0.004 0.65,-0.009c0.217,-0.013 0.433,-0.038 0.647,-0.073c0.214,-0.035 0.427,-0.079 0.637,-0.136c0.21,-0.056 0.417,-0.121 0.619,-0.196c0.204,-0.076 0.403,-0.161 0.598,-0.257c0.195,-0.096 0.385,-0.201 0.57,-0.315c0.185,-0.114 0.363,-0.237 0.536,-0.368c0.173,-0.133 0.338,-0.272 0.497,-0.42c0.159,-0.148 0.311,-0.303 0.454,-0.467c0.144,-0.163 0.28,-0.332 0.406,-0.508c0.127,-0.176 0.245,-0.358 0.354,-0.545c0.109,-0.188 0.209,-0.381 0.299,-0.578c0.089,-0.197 0.17,-0.399 0.241,-0.605c0.07,-0.205 0.131,-0.413 0.18,-0.624c0.05,-0.212 0.089,-0.425 0.118,-0.64c0.029,-0.215 0.047,-0.431 0.055,-0.648c0.008,-0.217 0.005,-0.434 -0.008,-0.651c-0.013,-0.216 -0.038,-0.432 -0.073,-0.646c-0.035,-0.214 -0.08,-0.426 -0.136,-0.636c-0.056,-0.21 -0.121,-0.417 -0.197,-0.62c-0.075,-0.204 -0.161,-0.402 -0.257,-0.598c-0.095,-0.194 -0.2,-0.385 -0.314,-0.57c-0.114,-0.184 -0.238,-0.363 -0.369,-0.536c-0.132,-0.172 -0.272,-0.337 -0.42,-0.497c-0.148,-0.158 -0.303,-0.31 -0.466,-0.454c-0.163,-0.143 -0.332,-0.279 -0.508,-0.405c-0.177,-0.128 -0.359,-0.245 -0.546,-0.354c-0.188,-0.109 -0.381,-0.209 -0.578,-0.299c-0.197,-0.091 -0.399,-0.171 -0.604,-0.241c-0.206,-0.07 -0.415,-0.131 -0.625,-0.18Z" style="fill:#189caa;"/></svg>