<?xml version="1.0" encoding="UTF-8" standalone="no"?><!DOCTYPE svg PUBLIC "-//W3C//DTD SVG 1.1//EN" "http://www.w3.org/Graphics/SVG/1.1/DTD/svg11.dtd"><svg width="100%" height="100%" viewBox="0 0 224 212" version="1.1" xmlns="http://www.w3.org/2000/svg" xmlns:xlink="http://www.w3.org/1999/xlink" xml:space="preserve" xmlns:serif="http://www.serif.com/" style="fill-rule:evenodd;clip-rule:evenodd;stroke-linejoin:round;stroke-miterlimit:2;"><rect id="Pause" x="0" y="0" width="223.502" height="211.507" style="fill:none;"/><path id="Hex" d="M111.748,22.221c2.074,0 4.166,0.439 6.044,1.327l77.496,36.621c3.776,1.784 6.237,5.171 6.237,8.968l0,73.242c0,3.797 -2.464,7.181 -6.237,8.965l-77.496,36.621c-3.721,1.761 -8.361,1.761 -12.082,0l-77.499,-36.621c-3.776,-1.784 -6.234,-5.168 -6.234,-8.965l0,-73.242c0,-3.797 2.458,-7.184 6.234,-8.968l77.499,-36.621c1.878,-0.888 3.961,-1.327 6.038,-1.327Zm-25.342,41.694c-0.216,0 -0.432,0.011 -0.648,0.032c-0.216,0.021 -0.43,0.052 -0.642,0.095c-0.213,0.042 -0.423,0.095 -0.63,0.157c-0.207,0.063 -0.411,0.135 -0.611,0.218c-0.2,0.084 -0.395,0.176 -0.586,0.277c-0.191,0.102 -0.376,0.213 -0.557,0.334c-0.18,0.12 -0.353,0.248 -0.521,0.385c-0.167,0.137 -0.328,0.282 -0.481,0.436c-0.153,0.153 -0.299,0.313 -0.436,0.48c-0.137,0.167 -0.266,0.341 -0.386,0.521c-0.12,0.181 -0.231,0.365 -0.333,0.556c-0.103,0.192 -0.195,0.386 -0.277,0.586c-0.084,0.2 -0.156,0.404 -0.219,0.61c-0.063,0.208 -0.115,0.417 -0.157,0.63c-0.042,0.212 -0.075,0.426 -0.096,0.641c-0.021,0.216 -0.031,0.432 -0.031,0.648l0,70.464c0,0.216 0.01,0.432 0.031,0.648c0.021,0.215 0.053,0.429 0.096,0.641c0.042,0.213 0.095,0.422 0.157,0.63c0.063,0.207 0.135,0.41 0.219,0.61c0.083,0.2 0.175,0.394 0.277,0.586c0.102,0.191 0.213,0.375 0.333,0.556c0.12,0.18 0.249,0.353 0.386,0.521c0.137,0.167 0.282,0.327 0.436,0.48c0.153,0.153 0.314,0.298 0.481,0.436c0.167,0.137 0.341,0.265 0.521,0.385c0.181,0.12 0.366,0.232 0.557,0.334c0.191,0.102 0.386,0.194 0.586,0.276c0.201,0.084 0.405,0.156 0.611,0.219c0.207,0.063 0.417,0.115 0.63,0.157c0.212,0.042 0.426,0.074 0.642,0.095c0.216,0.021 0.432,0.032 0.648,0.032l11.019,0c0.217,0 0.433,-0.011 0.649,-0.032c0.215,-0.021 0.429,-0.052 0.642,-0.095c0.212,-0.042 0.422,-0.095 0.63,-0.157c0.207,-0.063 0.411,-0.135 0.61,-0.219c0.201,-0.083 0.395,-0.175 0.587,-0.276c0.191,-0.102 0.376,-0.214 0.556,-0.334c0.181,-0.12 0.354,-0.248 0.522,-0.385c0.167,-0.138 0.328,-0.282 0.48,-0.436c0.153,-0.153 0.299,-0.313 0.436,-0.48c0.138,-0.167 0.266,-0.341 0.387,-0.521c0.12,-0.181 0.231,-0.365 0.333,-0.556c0.102,-0.192 0.195,-0.386 0.277,-0.586c0.083,-0.201 0.156,-0.404 0.219,-0.61c0.063,-0.208 0.115,-0.417 0.157,-0.63c0.042,-0.212 0.074,-0.426 0.095,-0.641c0.022,-0.216 0.032,-0.432 0.032,-0.648l0,-70.464c0,-0.216 -0.01,-0.432 -0.032,-0.648c-0.021,-0.215 -0.052,-0.429 -0.095,-0.641c-0.042,-0.213 -0.095,-0.422 -0.157,-0.63c-0.063,-0.207 -0.136,-0.411 -0.219,-0.61c-0.083,-0.2 -0.176,-0.395 -0.277,-0.586c-0.102,-0.191 -0.213,-0.375 -0.333,-0.556c-0.121,-0.18 -0.249,-0.353 -0.387,-0.521c-0.137,-0.167 -0.282,-0.327 -0.435,-0.48c-0.153,-0.153 -0.314,-0.299 -0.481,-0.436c-0.167,-0.137 -0.341,-0.265 -0.522,-0.385c-0.18,-0.121 -0.365,-0.232 -0.556,-0.334c-0.192,-0.102 -0.386,-0.194 -0.587,-0.277c-0.2,-0.083 -0.404,-0.155 -0.61,-0.218c-0.208,-0.063 -0.418,-0.115 -0.63,-0.157c-0.213,-0.042 -0.427,-0.074 -0.642,-0.095c-0.216,-0.021 -0.432,-0.032 -0.649,-0.032l-11.019,0Zm39.67,0c-0.217,0 -0.433,0.011 -0.649,0.032c-0.215,0.021 -0.429,0.052 -0.642,0.095c-0.212,0.042 -0.422,0.095 -0.63,0.157c-0.207,0.063 -0.411,0.135 -0.61,0.218c-0.201,0.084 -0.395,0.176 -0.587,0.277c-0.191,0.102 -0.376,0.213 -0.556,0.334c-0.181,0.12 -0.354,0.248 -0.522,0.385c-0.167,0.137 -0.328,0.282 -0.48,0.436c-0.153,0.153 -0.299,0.313 -0.436,0.48c-0.137,0.167 -0.266,0.341 -0.386,0.521c-0.121,0.181 -0.232,0.365 -0.334,0.556c-0.102,0.192 -0.195,0.386 -0.277,0.586c-0.083,0.2 -0.155,0.404 -0.219,0.61c-0.063,0.208 -0.115,0.417 -0.157,0.63c-0.042,0.212 -0.074,0.426 -0.095,0.641c-0.021,0.216 -0.032,0.432 -0.032,0.648l0,70.464c0,0.216 0.011,0.432 0.032,0.648c0.021,0.215 0.052,0.429 0.095,0.641c0.042,0.213 0.095,0.422 0.157,0.63c0.064,0.207 0.136,0.41 0.219,0.61c0.083,0.2 0.176,0.394 0.277,0.586c0.102,0.191 0.213,0.375 0.334,0.556c0.12,0.18 0.249,0.353 0.386,0.521c0.137,0.167 0.282,0.327 0.436,0.48c0.152,0.153 0.313,0.298 0.48,0.436c0.167,0.137 0.341,0.265 0.522,0.385c0.18,0.12 0.365,0.232 0.556,0.334c0.192,0.102 0.386,0.194 0.587,0.276c0.2,0.084 0.404,0.156 0.61,0.219c0.208,0.063 0.418,0.115 0.63,0.157c0.213,0.042 0.427,0.074 0.642,0.095c0.216,0.021 0.432,0.032 0.649,0.032l11.019,0c0.216,0 0.432,-0.011 0.648,-0.032c0.216,-0.021 0.43,-0.052 0.642,-0.095c0.213,-0.042 0.423,-0.095 0.63,-0.157c0.208,-0.063 0.411,-0.135 0.611,-0.219c0.2,-0.083 0.395,-0.175 0.586,-0.276c0.191,-0.102 0.376,-0.214 0.557,-0.334c0.18,-0.12 0.353,-0.248 0.521,-0.385c0.167,-0.138 0.328,-0.282 0.481,-0.436c0.153,-0.153 0.299,-0.313 0.436,-0.48c0.137,-0.167 0.266,-0.341 0.386,-0.521c0.12,-0.181 0.231,-0.365 0.334,-0.556c0.102,-0.192 0.194,-0.386 0.277,-0.586c0.083,-0.201 0.155,-0.404 0.218,-0.61c0.064,-0.208 0.116,-0.417 0.157,-0.63c0.042,-0.212 0.075,-0.426 0.096,-0.641c0.021,-0.216 0.031,-0.432 0.031,-0.648l0,-70.464c0,-0.216 -0.01,-0.432 -0.031,-0.648c-0.021,-0.215 -0.053,-0.429 -0.096,-0.641c-0.041,-0.213 -0.094,-0.422 -0.157,-0.63c-0.063,-0.207 -0.135,-0.411 -0.218,-0.61c-0.084,-0.2 -0.176,-0.395 -0.277,-0.586c-0.103,-0.191 -0.214,-0.375 -0.334,-0.556c-0.12,-0.18 -0.249,-0.353 -0.386,-0.521c-0.137,-0.167 -0.282,-0.327 -0.436,-0.48c-0.153,-0.153 -0.314,-0.299 -0.481,-0.436c-0.167,-0.137 -0.341,-0.265 -0.521,-0.385c-0.181,-0.121 -0.366,-0.232 -0.557,-0.334c-0.191,-0.102 -0.386,-0.194 -0.586,-0.277c-0.201,-0.083 -0.404,-0.155 -0.611,-0.218c-0.207,-0.063 -0.417,-0.115 -0.63,-0.157c-0.212,-0.042 -0.426,-0.074 -0.642,-0.095c-0.215,-0.021 -0.432,-0.032 -0.648,-0.032l-11.019,0Z" style="fill:#189caa;"/></svg>