<?xml version="1.0" encoding="UTF-8" standalone="no"?><!DOCTYPE svg PUBLIC "-//W3C//DTD SVG 1.1//EN" "http://www.w3.org/Graphics/SVG/1.1/DTD/svg11.dtd"><svg width="100%" height="100%" viewBox="0 0 224 212" version="1.1" xmlns="http://www.w3.org/2000/svg" xmlns:xlink="http://www.w3.org/1999/xlink" xml:space="preserve" xmlns:serif="http://www.serif.com/" style="fill-rule:evenodd;clip-rule:evenodd;stroke-linejoin:round;stroke-miterlimit:2;"><rect id="Pill" x="0" y="0.384" width="223.502" height="211.507" style="fill:none;"/><path id="Hex" d="M45.166,159.74l-16.955,-8.012c-3.776,-1.784 -6.234,-5.168 -6.234,-8.965l0,-73.242c0,-3.797 2.458,-7.184 6.234,-8.968l77.499,-36.621c1.878,-0.888 3.961,-1.327 6.038,-1.327c2.074,0 4.166,0.439 6.044,1.327l16.742,7.912c-4.676,0.534 -9.288,1.779 -13.658,3.74l-8.053,-3.806c-0.328,-0.155 -0.697,-0.237 -1.075,-0.237c-0.375,0 -0.741,0.082 -1.069,0.237l-77.496,36.621c-0.627,0.296 -0.882,0.765 -0.882,1.122l0,73.242c0,0.357 0.255,0.826 0.882,1.122l6.17,2.916c0.703,2.551 1.632,5.048 2.783,7.456c-0.261,-0.707 2.193,4.145 2.193,4.145c0.271,0.45 0.55,0.896 0.836,1.338Zm133.191,-107.187l16.931,8.001c3.776,1.784 6.237,5.171 6.237,8.968l0,73.242c0,3.797 -2.464,7.181 -6.237,8.965l-77.496,36.621c-3.721,1.761 -8.361,1.761 -12.082,0l-16.72,-7.901c4.692,-0.522 9.314,-1.763 13.684,-3.725l8.005,3.783c0.665,0.313 1.477,0.313 2.145,0l77.496,-36.621c0.627,-0.296 0.882,-0.765 0.882,-1.122l0,-73.242c0,-0.357 -0.255,-0.826 -0.882,-1.122l-6.179,-2.92c-1.248,-4.546 -3.169,-8.898 -5.783,-12.926Z" style="fill:#189caa;stroke:#189caa;stroke-width:0.5px;"/><g id="Pill1" serif:id="Pill"><path d="M44.735,136.022c0.193,5.439 1.527,10.835 3.988,15.771l0,0.044c0.504,1.037 1.037,1.987 1.601,2.95c1.69,2.802 3.72,5.44 6.166,7.767c7.664,7.575 17.728,11.251 27.674,11.177c10.035,-0.074 20.026,-3.987 27.527,-11.755l25.273,-25.762l-55.778,-54.667l-25.273,25.762c-7.812,7.96 -11.517,18.455 -11.177,28.712Z" style="fill:#189caa;fill-rule:nonzero;"/><path d="M167.632,104.967c9.724,-9.991 13.133,-23.82 10.065,-36.449c-1.69,-6.967 -5.203,-13.445 -10.643,-18.795c-3.261,-3.217 -6.967,-5.707 -10.865,-7.501c-5.321,-2.52 -11.102,-3.75 -16.838,-3.676c-9.991,0.119 -19.952,4.017 -27.526,11.754l-2.253,2.298l-23.034,23.465l55.778,54.711l25.318,-25.807Zm-42.008,-37.131l-7.619,8.078l-5.558,-5.248l7.618,-8.078c4.669,-4.981 11.029,-7.812 17.847,-8.034c6.922,-0.192 13.325,2.297 18.306,6.967l-5.248,5.588c-3.483,-3.29 -8.152,-5.099 -12.821,-4.906c-4.788,0.163 -9.22,2.15 -12.525,5.633Z" style="fill:#189caa;fill-rule:nonzero;"/></g></svg>