<?xml version="1.0" encoding="UTF-8" standalone="no"?><!DOCTYPE svg PUBLIC "-//W3C//DTD SVG 1.1//EN" "http://www.w3.org/Graphics/SVG/1.1/DTD/svg11.dtd"><svg width="100%" height="100%" viewBox="0 0 224 212" version="1.1" xmlns="http://www.w3.org/2000/svg" xmlns:xlink="http://www.w3.org/1999/xlink" xml:space="preserve" xmlns:serif="http://www.serif.com/" style="fill-rule:evenodd;clip-rule:evenodd;stroke-linejoin:round;stroke-miterlimit:2;"><rect id="Plant-Supplement" serif:id="Plant Supplement" x="0" y="0.384" width="223.502" height="211.507" style="fill:none;"/><path id="Hex" d="M68.05,170.554l-39.839,-18.826c-3.776,-1.784 -6.234,-5.168 -6.234,-8.965l0,-73.242c0,-3.797 2.458,-7.184 6.234,-8.968l43.664,-20.633c-0.349,1.137 -0.537,2.345 -0.537,3.597l0,6.852l-38.155,18.031c-0.627,0.296 -0.882,0.765 -0.882,1.122l0,73.242c0,0.357 0.255,0.826 0.882,1.122l32.165,15.2l0,2.466c0,2.935 0.964,6.101 2.702,9.002Zm22.107,-139.272l15.553,-7.349c1.878,-0.888 3.961,-1.327 6.038,-1.327c2.074,0 4.166,0.439 6.044,1.327l15.552,7.349l-43.187,0Zm61.469,8.639l43.662,20.633c3.776,1.784 6.237,5.171 6.237,8.968l0,73.242c0,3.797 -2.464,7.181 -6.237,8.965l-39.836,18.825c1.738,-2.9 2.702,-6.066 2.702,-9.001l0,-2.466l32.165,-15.2c0.627,-0.296 0.882,-0.765 0.882,-1.122l0,-73.242c0,-0.357 -0.255,-0.826 -0.882,-1.122l-38.155,-18.031l0,-6.852c0,-1.251 -0.188,-2.459 -0.538,-3.596Zm-18.268,141.073l-15.566,7.356c-3.721,1.761 -8.361,1.761 -12.082,0l-15.567,-7.356l43.215,0Z" style="fill:#189caa;stroke:#189caa;stroke-width:0.5px;"/><g id="Plant-Supplement1" serif:id="Plant Supplement"><path d="M139.924,61.829l-56.347,0c-2.893,0 -5.239,-2.344 -5.239,-5.235l0,-13.076c0,-2.891 2.344,-5.235 5.239,-5.235l56.347,0c2.893,0 5.24,2.345 5.24,5.235l0,13.076c0,2.891 -2.347,5.235 -5.24,5.235Z" style="fill:#189caa;fill-rule:nonzero;"/><path d="M151.151,86.364c0,-7.691 -6.557,-14.098 -12.994,-15.111c-0.645,-0.1 -1.14,-0.618 -1.14,-1.262l0,-3.835l-50.539,0l0,3.835c0,0.644 -0.495,1.162 -1.14,1.262c-6.434,1.013 -12.992,7.42 -12.992,15.111l0,1.185l78.803,0l0,-1.185Z" style="fill:#189caa;fill-rule:nonzero;"/><path d="M72.348,161.552c0,5.688 6.386,12.442 13.069,12.442l52.668,0c6.683,0 13.069,-6.753 13.069,-12.442l0,-8.055l-78.806,0l0,8.055Z" style="fill:#189caa;fill-rule:nonzero;"/><path d="M87.873,103.014c-0.428,2.963 -0.526,5.972 -0.288,8.949c0.274,3.476 0.616,7.801 3.218,12.631c1.416,2.626 3.786,7.017 9.108,9.576c2.16,1.037 4.296,1.509 6.225,1.678c-1.316,-4.046 -3.253,-7.741 -5.832,-10.985c-1.282,-1.603 -2.716,-3.107 -4.27,-4.461c-1.03,-0.899 -1.132,-2.461 -0.235,-3.49c0.9,-1.027 2.46,-1.132 3.492,-0.235c1.775,1.547 3.419,3.267 4.884,5.105c2.924,3.672 5.121,7.836 6.618,12.386c0.484,-4.18 0.358,-10.69 -3.27,-17.187c-5.474,-9.814 -15.396,-13.018 -19.651,-13.966Z" style="fill:#189caa;fill-rule:nonzero;"/><path d="M126.451,102.557c-2.87,1.13 -7.193,2.837 -10.841,7.071c-1.414,1.643 -2.563,3.509 -3.454,5.536c1.295,2.44 2.188,4.869 2.774,7.203c0.444,-0.692 0.853,-1.413 1.333,-2.079c1.744,-2.438 3.744,-4.736 5.936,-6.83c0.994,-0.946 2.556,-0.908 3.5,0.077c0.944,0.988 0.909,2.554 -0.077,3.498c-1.972,1.884 -3.765,3.946 -5.335,6.137c-1.692,2.361 -3.144,4.922 -4.346,7.604c-0.006,1.759 -0.139,3.343 -0.32,4.685c2.969,-0.82 7.643,-2.319 11.683,-5.905c4.527,-4.018 6.179,-8.879 7.065,-11.489c2.298,-6.758 1.863,-13.055 0.868,-17.64c-3.026,0.306 -5.972,1.02 -8.786,2.133Z" style="fill:#189caa;fill-rule:nonzero;"/><path d="M72.348,92.494l0,56.056l78.803,0l0,-56.056l-78.803,0Zm66.709,27.157c-0.963,2.828 -2.961,8.712 -8.467,13.601c-5.361,4.757 -11.613,6.432 -14.621,7.236c-1.051,0.284 -2.125,0.509 -3.204,0.711c-0.144,0.788 -0.33,1.564 -0.431,2.356c-0.162,1.248 -1.225,2.159 -2.453,2.159c-0.104,0 -0.21,-0.006 -0.316,-0.019c-1.356,-0.174 -2.316,-1.415 -2.142,-2.768c0.088,-0.687 0.205,-1.376 0.32,-2.061c-2.923,-0.012 -6.418,-0.532 -9.978,-2.24c-6.774,-3.255 -9.844,-8.952 -11.32,-11.689c-3.1,-5.746 -3.521,-11.063 -3.798,-14.584c-0.272,-3.432 -0.149,-6.904 0.363,-10.318c0.193,-1.283 0.918,-2.438 1.984,-3.177c1.072,-0.739 2.416,-1.006 3.688,-0.732c4.158,0.892 13.634,3.781 20.352,12.246c0.823,-1.411 1.76,-2.742 2.821,-3.974c4.444,-5.159 9.653,-7.216 12.764,-8.444c3.962,-1.559 8.134,-2.443 12.413,-2.62c1.12,-0.104 2.181,0.702 2.488,1.813c1.472,5.317 2.584,13.534 -0.465,22.502Z" style="fill:#189caa;fill-rule:nonzero;"/></g></svg>