<?xml version="1.0" encoding="UTF-8" standalone="no"?><!DOCTYPE svg PUBLIC "-//W3C//DTD SVG 1.1//EN" "http://www.w3.org/Graphics/SVG/1.1/DTD/svg11.dtd"><svg width="100%" height="100%" viewBox="0 0 224 212" version="1.1" xmlns="http://www.w3.org/2000/svg" xmlns:xlink="http://www.w3.org/1999/xlink" xml:space="preserve" xmlns:serif="http://www.serif.com/" style="fill-rule:evenodd;clip-rule:evenodd;stroke-linejoin:round;stroke-miterlimit:2;"><rect id="Play-and-Pause" serif:id="Play and Pause" x="0" y="0" width="223.502" height="211.507" style="fill:none;"/><path id="Hex" d="M31.01,152.667l-2.799,-1.323c-3.776,-1.784 -6.234,-5.168 -6.234,-8.965l0,-73.242c0,-3.797 2.458,-7.184 6.234,-8.968l2.796,-1.321c-0.935,2.307 -1.448,4.842 -1.448,7.467l0,78.878c0,2.627 0.515,5.164 1.452,7.474Zm21.37,-103.918l53.33,-25.2c1.878,-0.888 3.961,-1.327 6.038,-1.327c2.074,0 4.166,0.439 6.044,1.327l51.819,24.487c-3.512,0.695 -6.791,2.566 -9.343,5.475l-0.004,0.005c-0.061,0.07 -0.121,0.14 -0.181,0.211l-6.688,-3.161c-1.446,-0.982 -3.011,-1.719 -4.644,-2.194l-35.928,-16.978c-0.328,-0.155 -0.697,-0.237 -1.075,-0.237c-0.375,0 -0.741,0.082 -1.069,0.237l-48.565,22.949l-6.977,-4.243c-0.893,-0.543 -1.815,-0.993 -2.757,-1.352Zm140.117,10.102l2.791,1.319c3.776,1.784 6.237,5.171 6.237,8.968l0,73.242c0,3.797 -2.464,7.181 -6.237,8.965l-2.794,1.32c0.941,-2.328 1.45,-4.875 1.45,-7.486l0,-78.851c0,-2.607 -0.507,-5.151 -1.447,-7.477Zm-22.875,104.622l-51.83,24.493c-3.721,1.761 -8.361,1.761 -12.082,0l-53.338,-25.204c0.945,-0.359 1.87,-0.811 2.765,-1.355l6.968,-4.237l48.574,22.954c0.665,0.313 1.477,0.313 2.145,0l35.985,-17.005c1.593,-0.471 3.121,-1.19 4.536,-2.144l6.745,-3.187c0.058,0.068 0.116,0.136 0.175,0.203l0.004,0.005c2.555,2.913 5.837,4.784 9.354,5.477Z" style="fill:#189caa;"/><g><path d="M116.357,95.522l-64.857,-39.44c-3.15,-1.916 -6.952,-1.803 -10.012,0.292c-3.055,2.097 -4.929,5.868 -4.929,9.941l0,78.878c0,4.071 1.874,7.842 4.929,9.939c3.061,2.097 6.862,2.208 10.012,0.292l64.857,-39.44c3.315,-2.012 5.385,-5.945 5.385,-10.231c0,-4.286 -2.07,-8.218 -5.385,-10.231Z" style="fill:#189caa;"/><path d="M154.428,66.328c0,-3.074 -1.068,-6.025 -2.975,-8.201c-1.907,-2.174 -4.491,-3.395 -7.186,-3.395l-4.065,0c-2.695,0 -5.28,1.221 -7.186,3.395c-1.907,2.177 -2.977,5.127 -2.977,8.201l0,78.851c0,3.076 1.07,6.025 2.977,8.201c1.905,2.174 4.491,3.395 7.186,3.395l4.065,0c2.695,0 5.279,-1.221 7.186,-3.395c1.907,-2.177 2.975,-5.125 2.975,-8.201l0,-78.851Z" style="fill:#189caa;"/><path d="M186.944,66.328c0,-3.074 -1.07,-6.025 -2.975,-8.201c-1.907,-2.174 -4.492,-3.395 -7.186,-3.395l-4.065,0c-2.695,0 -5.28,1.221 -7.187,3.395c-1.905,2.177 -2.975,5.127 -2.975,8.201l0,78.851c0,3.076 1.07,6.025 2.975,8.201c1.907,2.174 4.492,3.395 7.187,3.395l4.065,0c2.693,0 5.279,-1.221 7.186,-3.395c1.905,-2.177 2.975,-5.125 2.975,-8.201l0,-78.851Z" style="fill:#189caa;"/></g></svg>