<?xml version="1.0" encoding="UTF-8" standalone="no"?><!DOCTYPE svg PUBLIC "-//W3C//DTD SVG 1.1//EN" "http://www.w3.org/Graphics/SVG/1.1/DTD/svg11.dtd"><svg width="100%" height="100%" viewBox="0 0 224 212" version="1.1" xmlns="http://www.w3.org/2000/svg" xmlns:xlink="http://www.w3.org/1999/xlink" xml:space="preserve" xmlns:serif="http://www.serif.com/" style="fill-rule:evenodd;clip-rule:evenodd;stroke-linejoin:round;stroke-miterlimit:2;"><rect id="Pyramid--Empty-" serif:id="Pyramid (Empty)" x="0" y="0.384" width="223.502" height="211.507" style="fill:none;"/><g id="Pyramid--Empty-1" serif:id="Pyramid (Empty)"><path id="Hex" d="M35.721,157.387l-7.51,-3.549c-3.776,-1.784 -6.234,-5.168 -6.234,-8.965l0,-73.242c0,-3.797 2.458,-7.184 6.234,-8.968l71.231,-33.659l-7.521,13.748l-58.739,27.757c-0.627,0.296 -0.882,0.765 -0.882,1.122l0,73.242c0,0.357 0.255,0.826 0.882,1.122l6.866,3.244l-4.211,7.923c-0.04,0.074 -0.078,0.149 -0.116,0.224Zm88.34,-128.382l71.227,33.659c3.776,1.784 6.237,5.171 6.237,8.968l0,73.242c0,3.797 -2.464,7.181 -6.237,8.965l-7.507,3.548c-0.038,-0.074 -0.076,-0.149 -0.115,-0.223l-4.212,-7.923l6.866,-3.244c0.627,-0.296 0.882,-0.765 0.882,-1.122l0,-73.242c0,-0.357 -0.255,-0.826 -0.882,-1.122l-58.738,-27.757l-7.521,-13.748Zm27.687,145.409l-33.956,16.046c-3.721,1.761 -8.361,1.761 -12.082,0l-33.957,-16.046l21.567,0l17.36,8.203c0.665,0.313 1.477,0.313 2.145,0l17.36,-8.203l21.565,0Z" style="fill:#189caa;stroke:#189caa;stroke-width:0.5px;"/><g><path id="path3-87-8-0-0-8-1" d="M111.751,27.331c-1.901,0 -3.802,0.888 -4.773,2.665l-23.208,42.424c-1.938,3.542 0.879,8.098 5.008,8.098l45.949,0c4.128,0 6.946,-4.556 5.008,-8.098l-23.208,-42.424c-0.972,-1.777 -2.873,-2.665 -4.773,-2.665Zm0,7.904l21.186,38.729l-42.373,0l21.186,-38.729Z" style="fill:#189caa;fill-rule:nonzero;"/><path id="path4-15-1-3-6-1-7" d="M85.743,84.624c-3.623,0 -6.966,1.869 -8.667,4.845l-15.665,27.415c-1.963,3.435 0.893,7.856 5.075,7.856l90.53,0c4.182,0 7.038,-4.42 5.075,-7.856l-15.665,-27.415c-1.701,-2.976 -5.044,-4.845 -8.667,-4.845l-52.016,0Zm0,6.413l52.016,0c1.087,0 2.069,0.549 2.579,1.442l14.768,25.847l-86.711,0l14.768,-25.847c0.51,-0.893 1.492,-1.442 2.579,-1.442Z" style="fill:#189caa;fill-rule:nonzero;"/><path id="path46" d="M63.506,130.06c-3.219,0 -6.185,1.783 -7.696,4.625l-13.715,25.806c-1.599,3.007 0.704,6.838 4.11,6.838l131.094,0c3.406,0 5.708,-3.831 4.11,-6.838l-13.717,-25.806c-1.511,-2.842 -4.477,-4.624 -7.696,-4.624l-96.489,0Zm0,4.716l96.489,0c1.483,0 2.835,0.813 3.532,2.122l13.669,25.714l-130.887,0l13.667,-25.714c0.696,-1.31 2.048,-2.122 3.531,-2.122Z" style="fill:#189caa;fill-rule:nonzero;"/><path id="path47" d="M63.506,129.225c-3.527,0 -6.778,1.953 -8.433,5.068l-13.716,25.806c-1.892,3.56 0.815,8.064 4.847,8.064l131.094,0c4.032,0 6.739,-4.504 4.847,-8.064l-13.717,-25.806c-1.655,-3.114 -4.906,-5.068 -8.433,-5.068l-96.488,0Zm0,1.669l96.488,0c2.91,0 5.593,1.612 6.959,4.182l13.717,25.806c1.305,2.455 -0.593,5.612 -3.373,5.612l-131.094,0c-2.78,0 -4.678,-3.157 -3.373,-5.612l13.716,-25.806c1.366,-2.57 4.048,-4.182 6.959,-4.182Zm0,3.047c-1.788,0 -3.429,0.986 -4.268,2.565l-14.32,26.941l133.665,0l-14.32,-26.941c-0.839,-1.579 -2.481,-2.565 -4.269,-2.565l-96.488,0Zm0,1.669l96.488,0c1.179,0 2.242,0.64 2.795,1.681l13.016,24.488l-128.109,0l13.015,-24.488c0.553,-1.041 1.616,-1.681 2.795,-1.681Z" style="fill:#189caa;fill-rule:nonzero;"/></g></g></svg>