<?xml version="1.0" encoding="UTF-8" standalone="no"?><!DOCTYPE svg PUBLIC "-//W3C//DTD SVG 1.1//EN" "http://www.w3.org/Graphics/SVG/1.1/DTD/svg11.dtd"><svg width="100%" height="100%" viewBox="0 0 224 212" version="1.1" xmlns="http://www.w3.org/2000/svg" xmlns:xlink="http://www.w3.org/1999/xlink" xml:space="preserve" xmlns:serif="http://www.serif.com/" style="fill-rule:evenodd;clip-rule:evenodd;stroke-linejoin:round;stroke-miterlimit:2;"><rect id="Recipe" x="0" y="0.384" width="223.502" height="211.507" style="fill:none;"/><path id="Hex" d="M55.995,164.857l-27.784,-13.129c-3.776,-1.784 -6.234,-5.168 -6.234,-8.965l0,-73.242c0,-3.797 2.458,-7.184 6.234,-8.968l31.423,-14.848c-3.354,3.293 -5.484,7.83 -5.642,12.861l-20.809,9.833c-0.627,0.296 -0.882,0.765 -0.882,1.122l0,73.242c0,0.357 0.255,0.826 0.882,1.122l20.799,9.829l0,2.657c0,3.052 0.725,5.935 2.013,8.486Zm28.342,-130.825l21.373,-10.099c1.878,-0.888 3.961,-1.327 6.038,-1.327c2.074,0 4.166,0.439 6.044,1.327l21.32,10.075l-1.176,0.64l-1.388,1.151l-1.808,2.705l-1.836,-2.722l-2.968,-2.004l-1.77,-0.552l-1.889,-0.192l-1.89,0.193l-1.77,0.552l-2.29,1.546l-7.504,-3.546c-0.328,-0.155 -0.697,-0.237 -1.075,-0.237c-0.375,0 -0.741,0.082 -1.069,0.237l-7.504,3.546l-2.29,-1.546l-1.77,-0.552l-1.89,-0.193l-1.889,0.192l-1.77,0.552l-2.968,2.003l-1.836,2.72l-1.834,-2.719l-2.592,-1.75Zm79.533,11.675l31.418,14.847c3.776,1.784 6.237,5.171 6.237,8.968l0,73.242c0,3.797 -2.464,7.181 -6.237,8.965l-27.78,13.128c1.287,-2.551 2.012,-5.434 2.012,-8.485l0,-2.657l20.799,-9.829c0.627,-0.296 0.882,-0.765 0.882,-1.122l0,-73.242c0,-0.357 -0.255,-0.826 -0.882,-1.122l-20.809,-9.833c-0.158,-5.03 -2.288,-9.566 -5.641,-12.859Zm-18.341,129.535l-27.737,13.107c-3.721,1.761 -8.361,1.761 -12.082,0l-27.738,-13.107l21.566,0l11.141,5.265c0.665,0.313 1.477,0.313 2.145,0l11.141,-5.265l21.565,0Z" style="fill:#189caa;stroke:#189caa;stroke-width:0.5px;"/><g id="Recipe1" serif:id="Recipe"><path d="M150.653,47.299l-5.079,0l0,-4.891c0,-1.306 -1.044,-2.374 -2.373,-2.374c-1.33,0 -2.374,1.068 -2.374,2.374l0,4.891l-12.176,0l0,-4.891c0,-1.306 -1.068,-2.374 -2.373,-2.374c-1.305,0 -2.373,1.068 -2.373,2.374l0,4.891l-9.779,0l0,-4.891c0,-1.306 -1.068,-2.374 -2.373,-2.374c-1.306,0 -2.373,1.068 -2.373,2.374l0,4.891l-9.779,0l0,-4.891c0,-1.306 -1.068,-2.374 -2.373,-2.374c-1.306,0 -2.374,1.068 -2.374,2.374l0,4.891l-12.176,0l0,-4.891c0,-1.306 -1.068,-2.374 -2.373,-2.374c-1.305,0 -2.373,1.068 -2.373,2.374l0,4.891l-5.079,0c-6.551,0 -11.868,5.318 -11.868,11.871l0,97.201c0,6.553 5.316,11.871 11.868,11.871l77.803,0c6.551,0 11.868,-5.319 11.868,-11.871l0,-97.201c0,-6.553 -5.316,-11.871 -11.868,-11.871Zm-5.079,4.748l0,4.891c0,1.306 -1.044,2.374 -2.373,2.374c-1.33,0 -2.374,-1.068 -2.374,-2.374l0,-4.891l4.747,0Zm-47.85,16.999c1.448,0 2.824,0.261 4.13,0.831c1.852,-3.68 5.625,-6.102 9.897,-6.102c4.272,0 8.07,2.422 9.921,6.078c1.305,-0.546 2.682,-0.807 4.106,-0.807c6.147,0 11.155,4.986 11.155,11.135c0,4.63 -2.872,8.714 -7.026,10.399l0,12.062c0,3.442 -2.8,6.244 -6.242,6.244l-23.829,0c-3.442,0 -6.243,-2.802 -6.243,-6.244l0,-12.062c-4.153,-1.685 -7.025,-5.769 -7.025,-10.399c0,-6.149 5.008,-11.135 11.155,-11.135Zm45.477,47.936c1.329,0 2.373,1.068 2.373,2.374c0,1.306 -1.044,2.375 -2.373,2.375l-62.898,0c-1.329,0 -2.373,-1.068 -2.373,-2.375c0,-1.306 1.044,-2.374 2.373,-2.374l62.898,0Zm2.373,16.905c0,1.306 -1.044,2.374 -2.373,2.374l-62.898,0c-1.329,0 -2.373,-1.068 -2.373,-2.374c0,-1.306 1.044,-2.374 2.373,-2.374l62.898,0c1.329,0 2.373,1.068 2.373,2.374Zm-65.272,12.156l62.898,0c1.329,0 2.373,1.044 2.373,2.374c0,1.33 -1.044,2.374 -2.373,2.374l-62.898,0c-1.329,0 -2.373,-1.068 -2.373,-2.374c0,-1.306 1.044,-2.374 2.373,-2.374Zm48.348,-93.996l0,4.891c0,1.306 -1.068,2.374 -2.373,2.374c-1.305,0 -2.373,-1.068 -2.373,-2.374l0,-4.891l4.747,0Zm-14.526,0l0,4.891c0,1.306 -1.068,2.374 -2.373,2.374c-1.306,0 -2.373,-1.068 -2.373,-2.374l0,-4.891l4.747,0Zm-14.526,0l0,4.891c0,1.306 -1.068,2.374 -2.373,2.374c-1.306,0 -2.374,-1.068 -2.374,-2.374l0,-4.891l4.747,0Zm-16.924,0l0,4.891c0,1.306 -1.068,2.374 -2.373,2.374c-1.305,0 -2.373,-1.068 -2.373,-2.374l0,-4.891l4.747,0Z" style="fill:#189caa;fill-rule:nonzero;"/><path d="M96.442,86.449c0.285,0.048 0.523,0.166 0.76,0.308c0.119,0.072 0.237,0.143 0.332,0.237c0.071,0.072 0.143,0.143 0.214,0.214c0.214,0.261 0.38,0.546 0.475,0.878c0.047,0.095 0.071,0.19 0.071,0.285c0.024,0.119 0.048,0.261 0.048,0.404l0,6.577l26.82,0l0,-6.577c0,-0.143 0,-0.285 0.048,-0.404c0,-0.119 0.047,-0.237 0.095,-0.332c0,-0.166 0.095,-0.333 0.19,-0.475c0.072,-0.096 0.119,-0.19 0.214,-0.285c0.072,-0.095 0.166,-0.19 0.261,-0.285c0.119,-0.071 0.214,-0.166 0.332,-0.237c0.237,-0.142 0.499,-0.261 0.783,-0.308c2.943,-0.594 5.103,-3.229 5.103,-6.268c0,-3.513 -2.871,-6.386 -6.408,-6.386c-1.401,0 -2.73,0.451 -3.869,1.353c-0.024,0 -0.048,0.024 -0.072,0.048c-0.119,0.095 -0.214,0.166 -0.332,0.237c-0.498,0.261 -1.021,0.356 -1.542,0.237c-0.119,0 -0.214,-0.024 -0.309,-0.072c-0.095,-0.023 -0.214,-0.047 -0.308,-0.119c-0.166,-0.071 -0.308,-0.166 -0.451,-0.284c-0.143,-0.095 -0.261,-0.237 -0.379,-0.38c-0.261,-0.332 -0.428,-0.712 -0.499,-1.092c-0.546,-2.992 -3.157,-5.2 -6.266,-5.2c-3.11,0 -5.649,2.161 -6.266,5.129c0,0.047 0,0.071 -0.024,0.119c0,0.143 -0.071,0.284 -0.119,0.403c-0.071,0.214 -0.19,0.452 -0.356,0.641c-0.119,0.143 -0.237,0.285 -0.379,0.38c-0.143,0.119 -0.285,0.214 -0.451,0.284c-0.095,0.048 -0.19,0.096 -0.285,0.119c-0.095,0.024 -0.214,0.072 -0.308,0.072c-0.166,0 -0.308,0.047 -0.451,0.047c-0.143,0 -0.261,-0.023 -0.404,-0.047c-0.142,-0.024 -0.284,-0.072 -0.403,-0.119c-0.237,-0.072 -0.451,-0.19 -0.641,-0.356c-1.163,-0.926 -2.516,-1.401 -3.94,-1.401c-3.537,0 -6.409,2.873 -6.409,6.386c0,3.039 2.161,5.675 5.127,6.268Z" style="fill:#189caa;fill-rule:nonzero;"/><path d="M98.341,102.642c0,0.831 0.664,1.495 1.495,1.495l23.829,0c0.831,0 1.495,-0.664 1.495,-1.495l0,-2.541l-26.82,0l0,2.541Z" style="fill:#189caa;fill-rule:nonzero;"/></g></svg>