<?xml version="1.0" encoding="UTF-8" standalone="no"?><!DOCTYPE svg PUBLIC "-//W3C//DTD SVG 1.1//EN" "http://www.w3.org/Graphics/SVG/1.1/DTD/svg11.dtd"><svg width="100%" height="100%" viewBox="0 0 224 212" version="1.1" xmlns="http://www.w3.org/2000/svg" xmlns:xlink="http://www.w3.org/1999/xlink" xml:space="preserve" xmlns:serif="http://www.serif.com/" style="fill-rule:evenodd;clip-rule:evenodd;stroke-linejoin:round;stroke-miterlimit:2;"><rect id="Resources" x="0" y="0.384" width="223.502" height="211.507" style="fill:none;"/><path id="path4-40-0" d="M94.159,182.642l-65.703,-31.047c-3.765,-1.779 -6.216,-5.153 -6.216,-8.939l0,-73.028c0,-3.786 2.451,-7.163 6.216,-8.942l61.371,-29l-45.708,26.373l-0.003,0.002c-3.105,1.794 -5.262,4.801 -6.008,8.229l-4.695,2.219c-0.625,0.295 -0.879,0.762 -0.879,1.119l0,73.028c0,0.356 0.254,0.824 0.879,1.119l4.824,2.28c0.842,3.209 2.933,6.003 5.88,7.708l0.007,0.004l50.035,28.876Zm39.519,-150.953l61.366,28.999c3.765,1.779 6.219,5.156 6.219,8.942l0,73.028c0,3.786 -2.457,7.16 -6.219,8.939l-65.693,31.043l50.032,-28.872c2.95,-1.702 5.045,-4.5 5.888,-7.714l4.818,-2.277c0.625,-0.295 0.879,-0.762 0.879,-1.119l0,-73.028c0,-0.356 -0.254,-0.824 -0.879,-1.119l-4.695,-2.219c-0.745,-3.422 -2.898,-6.428 -6,-8.225l-0.011,-0.006l-45.705,-26.372Z" style="fill:#189caa;stroke:#189caa;stroke-width:0.5px;"/><g id="Resources1" serif:id="Resources"><g><path d="M48.118,72.943l61.337,35.394c1.42,0.819 3.171,0.819 4.593,0l61.337,-35.394c1.42,-0.819 2.297,-2.335 2.297,-3.976c0,-1.64 -0.877,-3.155 -2.297,-3.977l-61.337,-35.391c-1.42,-0.82 -3.171,-0.82 -4.593,0l-61.337,35.391c-1.42,0.82 -2.297,2.336 -2.297,3.977c0,1.642 0.877,3.157 2.297,3.976Z" style="fill:#189caa;fill-rule:nonzero;"/><path d="M175.385,101.937l-16.122,-9.303l-40.712,23.494c-2.097,1.21 -4.448,1.814 -6.797,1.814c-2.351,0 -4.7,-0.605 -6.797,-1.814l-40.714,-23.494l-16.123,9.303c-1.42,0.819 -2.296,2.335 -2.296,3.976c0,1.64 0.876,3.155 2.296,3.977l61.335,35.391c1.42,0.82 3.171,0.82 4.593,0l61.337,-35.394c1.42,-0.819 2.297,-2.335 2.297,-3.976c0,-1.636 -0.877,-3.152 -2.297,-3.974Z" style="fill:#189caa;fill-rule:nonzero;"/><path d="M175.385,138.884l-16.122,-9.303l-40.712,23.494c-2.097,1.21 -4.446,1.814 -6.797,1.814c-2.351,0 -4.7,-0.605 -6.797,-1.814l-40.712,-23.494l-16.122,9.303c-1.42,0.819 -2.297,2.335 -2.297,3.976c0,1.642 0.877,3.155 2.297,3.976l61.332,35.395c1.42,0.819 3.171,0.819 4.593,0l61.337,-35.395c1.42,-0.819 2.297,-2.335 2.297,-3.976c0,-1.642 -0.877,-3.155 -2.297,-3.976Z" style="fill:#189caa;fill-rule:nonzero;"/></g></g></svg>