<?xml version="1.0" encoding="UTF-8" standalone="no"?>
<!DOCTYPE svg PUBLIC "-//W3C//DTD SVG 1.1//EN" "http://www.w3.org/Graphics/SVG/1.1/DTD/svg11.dtd">
<svg width="100%" height="100%" viewBox="0 0 224 212" version="1.1" xmlns="http://www.w3.org/2000/svg" xmlns:xlink="http://www.w3.org/1999/xlink" xml:space="preserve" xmlns:serif="http://www.serif.com/" style="fill-rule:evenodd;clip-rule:evenodd;stroke-linejoin:round;stroke-miterlimit:2;">
    <g transform="matrix(1,0,0,1,-2215,-3730)">
        <g id="Shield" transform="matrix(1,0,0,1,-0.50222,0)">
            <rect x="2215.502" y="3730" width="223.502" height="211.507" style="fill:none;"/>
            <g id="Hex" transform="matrix(0.75,0,0,0.75,2214.753331,3723.340217)">
                <path d="M92.599,236.182L38.613,210.672C33.578,208.293 30.301,203.781 30.301,198.719L30.301,101.062C30.301,96 33.578,91.484 38.613,89.105L51.96,82.799C51.431,84.676 51.148,86.656 51.148,88.7L51.148,96.775L45.242,99.566C44.406,99.961 44.066,100.586 44.066,101.062L44.066,198.719C44.066,199.195 44.406,199.82 45.242,200.215L67.974,210.957C75.179,220.946 83.922,229.353 92.599,236.182ZM87.2,66.147L141.945,40.277C144.449,39.094 147.227,38.508 149.996,38.508C152.762,38.508 155.551,39.094 158.055,40.277L212.792,66.143C185.841,63.185 165.345,52.876 161.322,50.738L160.928,50.532L160.822,50.478L160.825,50.472C154.152,46.647 145.938,46.635 139.256,50.437L139.195,50.472C139.108,50.52 138.939,50.612 138.692,50.744C134.666,52.887 114.155,63.194 87.2,66.147ZM248.04,82.8L261.383,89.105C266.418,91.484 269.699,96 269.699,101.062L269.699,198.719C269.699,203.781 266.414,208.293 261.383,210.672L207.451,236.158C216.119,229.331 224.848,220.93 232.042,210.949L254.758,200.215C255.594,199.82 255.934,199.195 255.934,198.719L255.934,101.062C255.934,100.586 255.594,99.961 254.758,99.566L248.852,96.775L248.852,88.7C248.852,86.656 248.569,84.677 248.04,82.8Z" style="fill:rgb(24,156,170);stroke:rgb(24,156,170);stroke-width:0.67px;"/>
            </g>
            <g transform="matrix(0.480017,0,0,0.480017,2237.225748,3753.215312)">
                <path d="M181.188,336.562C180.52,336.312 148.426,325.105 116.113,302.219C84.453,279.766 47.684,242.512 47.684,189.465L47.684,76.352C47.684,65.641 56.387,56.934 67.125,56.934C129.664,56.934 178.855,28.742 177.922,29.273C183.891,25.852 191.242,25.852 197.211,29.273C196.277,28.727 245.449,56.934 308.008,56.934C318.715,56.934 327.418,65.641 327.418,76.352L327.418,189.48C327.418,242.512 290.676,279.766 259.02,302.219C226.707,325.105 194.613,336.312 193.945,336.562C189.828,337.992 185.32,337.992 181.188,336.562ZM206.859,225.16L206.859,201.73L230.297,201.73C241.008,201.73 249.711,193.023 249.711,182.281C249.711,171.566 241.008,162.859 230.297,162.859L206.859,162.859L206.859,139.414C206.859,128.703 198.156,119.996 187.449,119.996C176.711,119.996 168.008,128.703 168.008,139.414L168.008,162.859L144.586,162.859C133.848,162.859 125.145,171.566 125.145,182.281C125.145,193.023 133.848,201.73 144.586,201.73L168.008,201.73L168.008,225.16C168.008,235.906 176.711,244.613 187.449,244.613C198.156,244.598 206.859,235.891 206.859,225.16Z" style="fill:rgb(24,156,170);fill-rule:nonzero;"/>
            </g>
        </g>
        <g id="Palette">
        </g>
    </g>
</svg>
