<?xml version="1.0" encoding="UTF-8" standalone="no"?><!DOCTYPE svg PUBLIC "-//W3C//DTD SVG 1.1//EN" "http://www.w3.org/Graphics/SVG/1.1/DTD/svg11.dtd"><svg width="100%" height="100%" viewBox="0 0 224 212" version="1.1" xmlns="http://www.w3.org/2000/svg" xmlns:xlink="http://www.w3.org/1999/xlink" xml:space="preserve" xmlns:serif="http://www.serif.com/" style="fill-rule:evenodd;clip-rule:evenodd;stroke-linejoin:round;stroke-miterlimit:2;"><rect id="Sleep" x="0" y="0.384" width="223.502" height="211.507" style="fill:none;"/><path id="Hex" d="M60.417,167.947l-32.206,-15.219c-3.776,-1.784 -6.234,-5.168 -6.234,-8.965l0,-73.242c0,-3.797 2.458,-7.184 6.234,-8.968l24.768,-11.704c-5.311,4.987 -9.864,10.578 -13.565,16.605l-6.231,2.944c-0.627,0.296 -0.882,0.765 -0.882,1.122l0,10.891c-5.283,15.149 -5.714,31.895 -0.182,48.223c0.06,0.178 0.121,0.355 0.182,0.532l0,13.597c0,0.357 0.255,0.826 0.882,1.122l8.756,4.138c5.074,7.266 11.341,13.629 18.479,18.924Zm41.015,-140.993l4.277,-2.021c1.878,-0.888 3.961,-1.327 6.038,-1.327c2.074,0 4.166,0.439 6.044,1.327l20.826,9.841l-16.402,0c-1.361,0 -2.655,0.22 -3.853,0.622l-5.539,-2.617c-0.328,-0.155 -0.697,-0.237 -1.075,-0.237c-0.072,0 -0.145,0.003 -0.216,0.009c-0.129,-0.851 -0.415,-1.686 -0.863,-2.459c-1.399,-2.418 -4.102,-3.773 -6.876,-3.446c-0.786,0.092 -1.573,0.195 -2.36,0.309Zm47.868,12.868l29.803,14.083l-13.155,0c-2.035,0 -3.922,0.492 -5.56,1.35l-10.085,-4.766c1.572,-3.461 1.232,-7.464 -1.003,-10.668Zm44.907,21.221l1.08,0.51c3.776,1.784 6.237,5.171 6.237,8.968l0,73.242c0,3.797 -2.464,7.181 -6.237,8.965l-18.283,8.64c3.388,-3.236 6.462,-6.719 9.196,-10.404c1.039,-1.4 1.496,-3.102 1.352,-4.771l2.766,-1.307c0.627,-0.296 0.882,-0.765 0.882,-1.122l0,-53.502c2.563,-2.097 4.15,-5.231 4.15,-8.63c0,-3.277 -1.476,-6.308 -3.879,-8.401l0.017,-0.016c3.509,-3.345 4.408,-8.112 2.72,-12.171Zm-66.846,123.784l-9.571,4.523c-3.721,1.761 -8.361,1.761 -12.082,0l-13.847,-6.543c11.325,2.883 23.385,3.671 35.499,2.021Z" style="fill:#189caa;stroke:#189caa;stroke-width:0.5px;"/><g id="Sleep1" serif:id="Sleep"><g><path d="M139.515,50.337l-17.299,0c-2.589,0 -4.68,-1.913 -4.68,-4.281c0,-2.369 2.091,-4.282 4.68,-4.282l17.299,0c2.588,0 4.679,1.913 4.679,4.282c0,2.368 -2.091,4.281 -4.679,4.281Z" style="fill:#189caa;"/><path d="M122.216,66.781c-1.17,0 -2.34,-0.387 -3.236,-1.207c-1.867,-1.64 -1.916,-4.35 -0.125,-6.058l17.299,-16.444c1.793,-1.708 4.754,-1.754 6.622,-0.114c1.866,1.64 1.916,4.35 0.125,6.059l-17.299,16.467c-0.921,0.865 -2.141,1.298 -3.385,1.298Z" style="fill:#189caa;"/><path d="M139.938,66.781l-17.299,0c-2.588,0 -4.679,-1.913 -4.679,-4.282c0,-2.368 2.091,-4.281 4.679,-4.281l17.299,0c2.588,0 4.68,1.913 4.68,4.281c0,2.369 -2.091,4.282 -4.68,4.282Z" style="fill:#189caa;"/><path d="M147.753,97.916l-17.299,0c-2.588,0 -4.679,-1.913 -4.679,-4.282c0,-2.369 2.091,-4.282 4.679,-4.282l17.299,0c2.588,0 4.68,1.913 4.68,4.282c0,2.369 -2.091,4.282 -4.68,4.282Z" style="fill:#189caa;"/><path d="M130.454,114.361c-1.17,0 -2.339,-0.388 -3.235,-1.207c-1.867,-1.641 -1.916,-4.35 -0.125,-6.059l17.299,-16.444c1.793,-1.708 4.754,-1.753 6.622,-0.113c1.866,1.64 1.916,4.35 0.124,6.058l-17.299,16.444c-0.921,0.888 -2.141,1.321 -3.385,1.321Z" style="fill:#189caa;"/><path d="M148.177,114.361l-17.299,0c-2.588,0 -4.68,-1.913 -4.68,-4.282c0,-2.369 2.091,-4.282 4.68,-4.282l17.299,0c2.588,0 4.679,1.913 4.679,4.282c0,2.369 -2.091,4.282 -4.679,4.282Z" style="fill:#189caa;"/><path d="M183.249,69.469l-17.299,0c-2.588,0 -4.68,-1.913 -4.68,-4.281c0,-2.369 2.091,-4.282 4.68,-4.282l17.299,0c2.588,0 4.679,1.913 4.679,4.282c0,2.368 -2.091,4.281 -4.679,4.281Z" style="fill:#189caa;"/><path d="M165.974,85.913c-1.17,0 -2.34,-0.388 -3.236,-1.207c-1.867,-1.64 -1.916,-4.35 -0.125,-6.058l17.299,-16.444c1.793,-1.708 4.754,-1.754 6.622,-0.114c1.867,1.64 1.916,4.35 0.125,6.058l-17.325,16.467c-0.921,0.865 -2.141,1.298 -3.36,1.298Z" style="fill:#189caa;"/><path d="M183.671,85.913l-17.299,0c-2.589,0 -4.68,-1.913 -4.68,-4.282c0,-2.368 2.091,-4.281 4.68,-4.281l17.299,0c2.589,0 4.68,1.913 4.68,4.281c0,2.369 -2.091,4.282 -4.68,4.282Z" style="fill:#189caa;"/></g><path d="M94.38,96.117c-7.467,-22.025 -2.911,-44.824 10.23,-62.52c-4.455,0.524 -8.935,1.412 -13.391,2.664c-41.991,11.912 -65.489,52.704 -52.471,91.127c13.018,38.423 57.599,59.923 99.59,48.011c17.922,-5.079 32.458,-15.419 42.241,-28.607c-37.685,4.487 -74.574,-16.33 -86.199,-50.676Z" style="fill:#189caa;"/></g></svg>