<?xml version="1.0" encoding="UTF-8" standalone="no"?><!DOCTYPE svg PUBLIC "-//W3C//DTD SVG 1.1//EN" "http://www.w3.org/Graphics/SVG/1.1/DTD/svg11.dtd"><svg width="100%" height="100%" viewBox="0 0 224 212" version="1.1" xmlns="http://www.w3.org/2000/svg" xmlns:xlink="http://www.w3.org/1999/xlink" xml:space="preserve" xmlns:serif="http://www.serif.com/" style="fill-rule:evenodd;clip-rule:evenodd;stroke-linejoin:round;stroke-miterlimit:2;"><rect id="Smart-Watch" serif:id="Smart Watch" x="0" y="0.384" width="223.502" height="211.507" style="fill:none;"/><path id="Hex" d="M84.931,178.531l-56.72,-26.802c-3.776,-1.784 -6.234,-5.168 -6.234,-8.965l0,-73.242c0,-3.797 2.458,-7.184 6.234,-8.968l56.7,-26.793c-0.792,1.204 -1.405,2.544 -1.8,3.983l-0.003,0.01l-2.206,8.096l-47.719,22.55c-0.627,0.296 -0.882,0.765 -0.882,1.122l0,73.242c0,0.357 0.255,0.826 0.882,1.122l47.715,22.548c1.288,4.715 2.418,8.823 2.493,8.998c0.385,1.103 0.905,2.143 1.54,3.099Zm14.293,-151.534l6.486,-3.065c1.878,-0.888 3.961,-1.327 6.038,-1.327c2.074,0 4.166,0.439 6.044,1.327l6.61,3.123c-3.423,-0.397 -7.775,-0.724 -12.848,-0.724c-4.811,0 -8.978,0.294 -12.33,0.665Zm38.771,6.483l57.292,27.074c3.776,1.784 6.237,5.171 6.237,8.968l0,73.242c0,3.797 -2.464,7.181 -6.237,8.965l-57.282,27.069c0.885,-1.277 1.565,-2.714 1.991,-4.267l0.002,-0.008l2.145,-7.871l48.175,-22.766c0.627,-0.296 0.882,-0.765 0.882,-1.122l0,-73.242c0,-0.357 -0.255,-0.826 -0.882,-1.122l-48.173,-22.764l-2.148,-7.882c-0.422,-1.55 -1.107,-2.991 -2.003,-4.273Zm-13.575,151.737l-6.628,3.132c-3.721,1.761 -8.361,1.761 -12.082,0l-6.504,-3.073c3.343,0.371 7.518,0.667 12.348,0.667c5.071,0 9.427,-0.327 12.866,-0.726Zm-41.029,-9.785c-0.104,-0.298 0.198,0.463 0,0Z" style="fill:#189caa;stroke:#189caa;stroke-width:0.5px;"/><g id="Smart-Watch1" serif:id="Smart Watch"><path d="M160.924,95.737l0,-7.8c0,-1.435 -1.165,-2.6 -2.598,-2.6l-2.599,0l0,13l2.599,0c1.434,0 2.598,-1.165 2.598,-2.6Z" style="fill:#189caa;fill-rule:nonzero;"/><path d="M133.245,39.596c-0.709,-2.605 -2.913,-4.576 -5.612,-5.023c-3.427,-0.565 -9.001,-1.24 -16.079,-1.24c-7.143,0 -12.766,0.689 -16.227,1.263c-2.609,0.434 -4.752,2.397 -5.465,4.998l-6.088,22.34l55.559,0l-6.088,-22.34l0,0.002Z" style="fill:#189caa;fill-rule:nonzero;"/><path d="M89.862,172.679c0.71,2.605 2.913,4.576 5.613,5.023c3.427,0.565 9,1.24 16.079,1.24c7.143,0 12.766,-0.689 16.227,-1.263c2.609,-0.434 4.752,-2.397 5.464,-4.998l6.088,-22.34l-55.559,0l6.088,22.34l0,-0.002Z" style="fill:#189caa;fill-rule:nonzero;"/><path d="M125.897,82.736c-4.716,0 -9.199,2.288 -12.288,6.275c-0.985,1.269 -3.121,1.269 -4.106,0c-3.089,-3.986 -7.571,-6.275 -12.287,-6.275c-7.849,0 -14.239,6.706 -14.239,14.951c0,18.577 23.601,29.537 28.582,31.646c4.981,-2.109 28.582,-13.068 28.582,-31.646c0,-8.245 -6.39,-14.951 -14.24,-14.951l-0.005,0Zm1.247,26.001l-7.795,0c-0.839,0 -1.616,-0.403 -2.102,-1.071l-3.23,9.696c-0.354,1.063 -1.351,1.778 -2.463,1.778l-0.099,0c-1.154,-0.044 -2.141,-0.845 -2.422,-1.969l-3.247,-12.998l-1.172,2.933c-0.395,0.988 -1.351,1.636 -2.414,1.636l-6.236,0c-1.437,0 -2.598,-1.162 -2.598,-2.6c0,-1.438 1.161,-2.601 2.598,-2.601l4.48,0l3.503,-8.765c0.418,-1.048 1.481,-1.664 2.588,-1.63c1.125,0.075 2.074,0.871 2.344,1.965l3.035,12.138l2.375,-7.13c0.333,-0.998 1.232,-1.695 2.279,-1.771c1.081,-0.078 2.039,0.489 2.51,1.43l1.881,3.762l6.189,0c1.437,0 2.598,1.163 2.598,2.601c0,1.438 -1.161,2.6 -2.598,2.6l-0.003,-0.005Z" style="fill:#189caa;fill-rule:nonzero;"/><path d="M150.53,137.339l0,-62.403c0,-4.3 -3.497,-7.8 -7.795,-7.8l-62.362,0c-4.298,0 -7.795,3.5 -7.795,7.8l0,62.403c0,4.3 3.497,7.8 7.795,7.8l62.362,0c4.298,0 7.795,-3.5 7.795,-7.8Zm-38.061,-2.764c-0.294,0.109 -0.603,0.163 -0.914,0.163c-0.312,0 -0.618,-0.054 -0.914,-0.163c-1.341,-0.505 -32.865,-12.613 -32.865,-36.888c0,-11.111 8.717,-20.151 19.436,-20.151c5.345,0 10.43,2.147 14.343,5.98c3.913,-3.833 8.998,-5.98 14.343,-5.98c10.718,0 19.436,9.04 19.436,20.151c0,24.274 -31.526,36.381 -32.865,36.888Z" style="fill:#189caa;fill-rule:nonzero;"/></g></svg>