<?xml version="1.0" encoding="UTF-8" standalone="no"?><!DOCTYPE svg PUBLIC "-//W3C//DTD SVG 1.1//EN" "http://www.w3.org/Graphics/SVG/1.1/DTD/svg11.dtd"><svg width="100%" height="100%" viewBox="0 0 224 212" version="1.1" xmlns="http://www.w3.org/2000/svg" xmlns:xlink="http://www.w3.org/1999/xlink" xml:space="preserve" xmlns:serif="http://www.serif.com/" style="fill-rule:evenodd;clip-rule:evenodd;stroke-linejoin:round;stroke-miterlimit:2;"><rect id="Stomach" x="0" y="0.384" width="223.502" height="211.507" style="fill:none;"/><g id="Stomach1" serif:id="Stomach"><path id="Hex" d="M38.96,156.807l-10.748,-5.079c-3.776,-1.784 -6.234,-5.168 -6.234,-8.965l0,-73.242c0,-3.797 2.458,-7.184 6.234,-8.968l52.026,-24.584c0.056,3.519 0.4,6.758 0.969,9.736l-48.023,22.694c-0.627,0.296 -0.882,0.765 -0.882,1.122l0,73.242c0,0.357 0.255,0.826 0.882,1.122l6.691,3.162c-0.546,3.693 -0.801,7.086 -0.914,9.76Zm64.317,-131.725l2.433,-1.15c1.878,-0.888 3.961,-1.327 6.038,-1.327c2.074,0 4.166,0.439 6.044,1.327l77.496,36.621c3.776,1.784 6.237,5.171 6.237,8.968l0,73.242c0,3.797 -2.464,7.181 -6.237,8.965l-77.496,36.621c-3.721,1.761 -8.361,1.761 -12.082,0l-41.53,-19.625c0.766,-0.351 1.47,-0.841 2.073,-1.454c1.316,-1.338 2.04,-3.148 2.009,-5.024c-0.01,-0.61 -0.01,-1.205 -0,-1.785l42.418,20.045c0.665,0.313 1.477,0.313 2.145,0l77.496,-36.621c0.627,-0.296 0.882,-0.765 0.882,-1.122l0,-73.242c0,-0.357 -0.255,-0.826 -0.882,-1.122l-18.6,-8.789c-0.904,-1.235 -1.823,-2.362 -2.747,-3.368c-10.285,-11.198 -21.215,-14.555 -32.857,-13.457l-23.292,-11.007c-0.328,-0.155 -0.697,-0.237 -1.075,-0.237c-0.375,0 -0.741,0.082 -1.069,0.237l-1.9,0.898c-0.041,-0.594 -0.049,-0.938 -0.049,-0.938c-0.081,-3.267 -2.391,-5.965 -5.453,-6.655Z" style="fill:#189caa;stroke:#189caa;stroke-width:0.5px;"/><path id="path2-87-3" d="M163.817,60.977c-12.859,-14 -26.982,-13.11 -42.407,-7.391c-18.965,7.037 -19.678,-21.675 -19.678,-21.675l-14.427,0c-1.536,31.026 21.781,38.915 21.781,38.915c19.669,35.538 -5.283,51.991 -5.283,51.991c-10.746,-4.076 -18.969,0.935 -18.969,0.935c0,0 -10.99,-11.45 -25.393,-1.495c-14.856,10.261 -13.538,40.104 -13.538,40.104l15.358,0c-0.26,-15.745 5.551,-23.321 5.551,-23.321c7.543,6.682 16.219,2.227 16.219,2.227c0,0 34.257,35.345 74.782,3.281c31.12,-24.635 19.55,-68.824 6.004,-83.573Zm-27.559,83.112c-30.062,10.405 -46.54,-10.302 -46.54,-10.302c4.817,-4.937 17.524,-1.182 17.524,-1.182c14.016,-2.969 18.907,-20.46 18.907,-20.46c0,0 15.281,6.25 38.001,0c0,0.007 -4.274,23.774 -27.892,31.943Z" style="fill:#189caa;fill-rule:nonzero;"/></g></svg>