<?xml version="1.0" encoding="UTF-8" standalone="no"?><!DOCTYPE svg PUBLIC "-//W3C//DTD SVG 1.1//EN" "http://www.w3.org/Graphics/SVG/1.1/DTD/svg11.dtd"><svg width="100%" height="100%" viewBox="0 0 224 212" version="1.1" xmlns="http://www.w3.org/2000/svg" xmlns:xlink="http://www.w3.org/1999/xlink" xml:space="preserve" xmlns:serif="http://www.serif.com/" style="fill-rule:evenodd;clip-rule:evenodd;stroke-linejoin:round;stroke-miterlimit:2;"><rect id="Stretches" x="0" y="0" width="223.502" height="211.507" style="fill:none;"/><path id="Hex" d="M53.873,163.47l-25.662,-12.126c-3.776,-1.784 -6.234,-5.168 -6.234,-8.965l0,-73.242c0,-3.797 2.458,-7.184 6.234,-8.968l77.499,-36.621c1.878,-0.888 3.961,-1.327 6.038,-1.327c2.074,0 4.166,0.439 6.044,1.327l16.037,7.578c-2.487,1.955 -4.892,4.191 -7.147,6.816l-13.859,-6.549c-0.328,-0.155 -0.697,-0.237 -1.075,-0.237c-0.375,0 -0.741,0.082 -1.069,0.237l-77.496,36.621c-0.627,0.296 -0.882,0.765 -0.882,1.122l0,73.242c0,0.357 0.255,0.826 0.882,1.122l25.677,12.134c-1.792,2.817 -3.484,5.475 -4.987,7.835Zm107.282,-119.431l34.133,16.13c3.776,1.784 6.237,5.171 6.237,8.968l0,73.242c0,3.797 -2.464,7.181 -6.237,8.965l-25.356,11.982l-6.078,-7.319l26.465,-12.506c0.627,-0.296 0.882,-0.765 0.882,-1.122l0,-73.242c0,-0.357 -0.255,-0.826 -0.882,-1.122l-39.205,-18.526c0.047,-0.027 0.094,-0.055 0.142,-0.082c3.991,-2.274 7.271,-3.992 9.899,-5.367Zm-15.762,130.883l-27.601,13.043c-3.721,1.761 -8.361,1.761 -12.082,0l-30.072,-14.21l5.854,-7.425l29.187,13.793c0.665,0.313 1.477,0.313 2.145,0l26.099,-12.333l6.471,7.133Z" style="fill:#189caa;"/><g><path d="M148.439,59.576c14.24,-1.372 14.976,20.518 1.188,20.629c-12.831,0.102 -14.126,-19.383 -1.188,-20.629Z" style="fill:#189caa;fill-rule:nonzero;"/><path d="M166.879,172.721c0,1.666 -0.674,3.238 -1.893,4.361c-1.188,1.091 -2.728,1.668 -4.333,1.603c-1.603,-0.065 -3.112,-0.77 -4.17,-1.956l-21.178,-23.346c-0.128,-0.128 -0.29,-0.256 -0.418,-0.384l-32.342,-21.293c-0.386,-0.256 -0.835,-0.386 -1.253,-0.386c-0.674,0 -1.347,0.29 -1.796,0.867l-34.814,44.158c-1.444,1.859 -4.042,2.275 -6.031,0.993c-2.086,-1.347 -2.696,-4.137 -1.347,-6.221c8.694,-13.66 29.199,-45.856 31.379,-49.512c0.674,-1.091 2.503,-4.073 5.135,-8.275l30.162,18.023c-0.804,2.854 -0.193,5.996 1.765,8.338c1.731,2.084 4.266,3.27 6.994,3.27c1.861,0 3.658,-0.577 5.198,-1.635c0.384,-0.29 0.802,-0.577 1.251,-0.867l5.295,3.175l20.985,25.27c0.898,1.058 1.412,2.405 1.412,3.815Z" style="fill:#189caa;fill-rule:nonzero;"/><path d="M157.958,37.812c-2.695,1.41 -6.065,3.175 -10.171,5.515c-17.294,9.876 -16.364,29.085 -16.299,29.887c0.032,0.609 0.319,1.154 0.768,1.572c0.13,0.097 12.706,11.383 18.483,23.184c6.866,14.078 7.958,21.679 3.624,25.367c-3.368,2.854 -11.036,8.594 -16.524,12.538c-0.032,0.032 -0.065,0.032 -0.097,0.065c-0.867,0.609 -1.637,1.186 -2.374,1.666c-0.77,0.546 -1.668,0.802 -2.6,0.802c-1.347,0 -2.631,-0.609 -3.496,-1.635c-1.221,-1.444 -1.412,-3.528 -0.483,-5.163c0,0 0,-0.032 0.032,-0.032c0,0 0,-0.033 0.033,-0.033c0.353,-0.577 0.802,-1.058 1.347,-1.442l16.429,-11.673c0.93,-0.674 1.219,-1.893 0.705,-2.919l-7.156,-13.66c-0.353,-0.674 -0.995,-1.123 -1.731,-1.186c-0.739,-0.097 -1.477,0.191 -1.989,0.737l-18.58,20.972l-21.594,-12.924c8.054,-12.762 17.68,-27.705 19.925,-30.368c2.054,-2.437 2.438,-4.521 2.984,-7.406c0.611,-3.24 1.54,-8.145 5.519,-17.35c6.866,-15.872 18.419,-21.614 28.622,-26.68l0.932,-0.481c4.652,-2.34 8.342,-2.982 10.363,-1.893c1.253,0.674 1.989,2.117 2.214,4.298c0.354,3.11 -0.321,3.719 -8.887,8.241Z" style="fill:#189caa;fill-rule:nonzero;"/></g></svg>