<?xml version="1.0" encoding="UTF-8" standalone="no"?><!DOCTYPE svg PUBLIC "-//W3C//DTD SVG 1.1//EN" "http://www.w3.org/Graphics/SVG/1.1/DTD/svg11.dtd"><svg width="100%" height="100%" viewBox="0 0 224 212" version="1.1" xmlns="http://www.w3.org/2000/svg" xmlns:xlink="http://www.w3.org/1999/xlink" xml:space="preserve" xmlns:serif="http://www.serif.com/" style="fill-rule:evenodd;clip-rule:evenodd;stroke-linejoin:round;stroke-miterlimit:2;"><rect id="Superset" x="0" y="0" width="223.502" height="211.507" style="fill:none;"/><path id="Hex" d="M48.004,160.697l-19.793,-9.353c-3.776,-1.784 -6.234,-5.168 -6.234,-8.965l0,-73.242c0,-3.797 2.458,-7.184 6.234,-8.968l77.499,-36.621c1.878,-0.888 3.961,-1.327 6.038,-1.327c2.074,0 4.166,0.439 6.044,1.327l23.651,11.176c-0.804,0.048 -1.606,0.122 -2.404,0.219l-0.012,0.002c-0.949,0.117 -1.891,0.268 -2.828,0.454c-0.94,0.185 -1.87,0.406 -2.794,0.659l-0.013,0.004c-0.925,0.255 -1.838,0.544 -2.742,0.866c-0.903,0.322 -1.793,0.676 -2.669,1.062c-0.205,0.09 -0.41,0.183 -0.613,0.277l-14.544,-6.873c-0.328,-0.155 -0.697,-0.237 -1.075,-0.237c-0.375,0 -0.741,0.082 -1.069,0.237l-77.496,36.621c-0.627,0.296 -0.882,0.765 -0.882,1.122l0,73.242c0,0.357 0.255,0.826 0.882,1.122l8.633,4.08c0.003,0.01 0.012,0.045 0.012,0.045c0.159,0.608 0.332,1.21 0.52,1.808c0.187,0.6 0.389,1.194 0.606,1.784c0.216,0.589 0.447,1.174 0.691,1.75l0.008,0.019c0.243,0.572 0.498,1.138 0.769,1.701c0.272,0.567 0.558,1.125 0.858,1.678c0.299,0.553 0.611,1.097 0.938,1.636c0.323,0.535 0.662,1.063 1.011,1.582l0.003,0.005c0.252,0.374 0.51,0.743 0.774,1.107Zm127.489,-109.882l19.795,9.354c3.776,1.784 6.237,5.171 6.237,8.968l0,73.242c0,3.797 -2.464,7.181 -6.237,8.965l-77.496,36.621c-3.721,1.761 -8.361,1.761 -12.082,0l-23.666,-11.183c0.292,-0.018 0.584,-0.039 0.876,-0.063c0.603,-0.049 1.226,-0.116 1.847,-0.196l0.022,-0.003c0.621,-0.082 1.24,-0.178 1.857,-0.29c0.618,-0.112 1.233,-0.238 1.845,-0.379l0.005,-0.001c0.61,-0.141 1.219,-0.297 1.824,-0.467c0.605,-0.171 1.203,-0.355 1.798,-0.555c0.596,-0.198 1.184,-0.412 1.769,-0.639c0.588,-0.228 1.168,-0.472 1.742,-0.727c0.163,-0.072 0.325,-0.146 0.487,-0.221l14.564,6.882c0.665,0.313 1.477,0.313 2.145,0l77.496,-36.621c0.627,-0.296 0.882,-0.765 0.882,-1.122l0,-73.242c0,-0.357 -0.255,-0.826 -0.882,-1.122l-8.636,-4.081c-0.137,-0.528 -0.286,-1.053 -0.446,-1.575c-0.28,-0.919 -0.593,-1.824 -0.941,-2.719c-0.345,-0.892 -0.724,-1.771 -1.134,-2.636l-0.003,-0.006c-0.411,-0.865 -0.853,-1.716 -1.327,-2.549c-0.473,-0.832 -0.977,-1.647 -1.509,-2.442l-0.007,-0.01c-0.268,-0.399 -0.543,-0.793 -0.825,-1.182Z" style="fill:#189caa;"/><g><path d="M101.755,161.082l26.433,-26.375c0.744,-0.746 1.451,-1.524 2.118,-2.337c0.668,-0.814 1.295,-1.658 1.881,-2.533c0.586,-0.875 1.127,-1.777 1.622,-2.705c0.497,-0.927 0.948,-1.877 1.351,-2.849c0.404,-0.972 0.759,-1.961 1.065,-2.969c0.307,-1.006 0.563,-2.026 0.77,-3.057c0.207,-1.031 0.363,-2.071 0.468,-3.119c0.103,-1.048 0.157,-2.097 0.16,-3.149c0.005,-3.48 -0.533,-6.873 -1.613,-10.182c-0.783,-2.36 -1.829,-4.596 -3.14,-6.709c-1.311,-2.113 -2.851,-4.045 -4.618,-5.793c-1.506,-1.511 -3.146,-2.857 -4.922,-4.04c-1.776,-1.182 -3.651,-2.178 -5.626,-2.985l-9.032,9.022c-0.492,0.504 -0.944,1.04 -1.354,1.611c0.339,0.032 0.676,0.073 1.014,0.123c0.337,0.048 0.673,0.107 1.006,0.174c0.334,0.068 0.667,0.144 0.996,0.228c0.329,0.086 0.657,0.179 0.981,0.281c0.324,0.103 0.646,0.213 0.965,0.333c0.318,0.119 0.634,0.249 0.946,0.384c0.312,0.136 0.62,0.281 0.925,0.433c0.303,0.153 0.604,0.313 0.899,0.483c0.297,0.168 0.588,0.344 0.873,0.528c0.287,0.184 0.568,0.376 0.844,0.575c0.276,0.199 0.547,0.405 0.812,0.618c0.265,0.215 0.525,0.434 0.778,0.662c0.253,0.226 0.5,0.46 0.743,0.701c0.241,0.241 0.475,0.487 0.702,0.739c0.228,0.253 0.449,0.512 0.663,0.776c0.215,0.265 0.421,0.534 0.62,0.81c0.2,0.274 0.392,0.555 0.578,0.841c0.184,0.286 0.362,0.576 0.531,0.872c0.169,0.295 0.329,0.594 0.483,0.899c0.153,0.303 0.299,0.61 0.436,0.922c0.137,0.312 0.266,0.626 0.386,0.944c0.121,0.32 0.232,0.641 0.336,0.964c0.102,0.324 0.197,0.652 0.282,0.981c0.086,0.329 0.161,0.66 0.231,0.993c0.068,0.334 0.126,0.668 0.176,1.006c0.05,0.336 0.092,0.673 0.124,1.012c0.032,0.339 0.055,0.678 0.069,1.017c0.015,0.341 0.019,0.681 0.015,1.02c-0.003,0.341 -0.016,0.681 -0.039,1.02c-0.023,0.339 -0.053,0.678 -0.094,1.015c-0.04,0.337 -0.089,0.675 -0.147,1.01c-0.058,0.334 -0.126,0.668 -0.202,0.999c-0.386,1.769 -1.015,3.448 -1.889,5.035c-0.872,1.588 -1.952,3.019 -3.24,4.294l-26.481,26.36c-1.8,1.8 -3.874,3.191 -6.224,4.173c-0.508,0.211 -1.027,0.4 -1.551,0.567c-0.525,0.168 -1.057,0.312 -1.595,0.433c-0.538,0.121 -1.078,0.22 -1.626,0.294c-0.546,0.076 -1.094,0.126 -1.645,0.153c-0.55,0.027 -1.101,0.032 -1.651,0.013c-0.55,-0.021 -1.099,-0.063 -1.646,-0.131c-0.547,-0.066 -1.091,-0.157 -1.63,-0.27c-0.539,-0.115 -1.072,-0.25 -1.6,-0.41c-0.528,-0.16 -1.048,-0.341 -1.559,-0.546c-0.512,-0.203 -1.014,-0.429 -1.506,-0.676c-0.492,-0.247 -0.973,-0.515 -1.443,-0.804c-0.47,-0.289 -0.927,-0.597 -1.369,-0.925c-0.442,-0.328 -0.87,-0.673 -1.283,-1.038c-0.413,-0.365 -0.81,-0.746 -1.191,-1.144c-0.379,-0.399 -0.743,-0.814 -1.086,-1.243c-0.345,-0.429 -0.67,-0.873 -0.977,-1.332c-0.307,-0.457 -0.592,-0.927 -0.859,-1.409c-0.266,-0.483 -0.51,-0.975 -0.734,-1.479c-0.223,-0.504 -0.425,-1.015 -0.604,-1.537c-0.179,-0.52 -0.336,-1.048 -0.47,-1.582c-0.134,-0.534 -0.245,-1.072 -0.333,-1.616c-0.087,-0.544 -0.152,-1.091 -0.192,-1.64c-0.04,-0.549 -0.058,-1.099 -0.052,-1.65c0.008,-0.55 0.037,-1.099 0.092,-1.646c0.053,-0.549 0.131,-1.093 0.232,-1.635c0.102,-0.541 0.224,-1.077 0.371,-1.608c0.149,-0.531 0.318,-1.054 0.51,-1.571c0.192,-0.515 0.405,-1.022 0.641,-1.521c0.237,-0.497 0.494,-0.983 0.772,-1.459c0.278,-0.476 0.575,-0.938 0.893,-1.388c0.316,-0.45 0.654,-0.886 1.009,-1.308c0.355,-0.421 0.728,-0.826 1.117,-1.216l14.418,-14.387c-0.786,-2.851 -1.238,-5.755 -1.354,-8.709c-0.118,-2.956 0.103,-5.884 0.66,-8.789l-22.836,22.783c-0.354,0.374 -0.699,0.757 -1.036,1.149c-0.336,0.392 -0.662,0.791 -0.98,1.198c-0.316,0.408 -0.623,0.822 -0.92,1.245c-0.297,0.421 -0.584,0.851 -0.86,1.287c-0.276,0.436 -0.541,0.878 -0.796,1.327c-0.255,0.449 -0.499,0.902 -0.731,1.364c-0.234,0.46 -0.455,0.925 -0.665,1.396c-0.211,0.471 -0.41,0.948 -0.597,1.427c-0.187,0.481 -0.363,0.967 -0.528,1.456c-0.165,0.489 -0.316,0.981 -0.457,1.477c-0.14,0.497 -0.268,0.996 -0.384,1.5c-0.116,0.502 -0.221,1.007 -0.313,1.516c-0.09,0.507 -0.171,1.017 -0.237,1.529c-0.068,0.51 -0.123,1.023 -0.165,1.538c-0.044,0.513 -0.073,1.028 -0.09,1.543c-0.018,0.517 -0.023,1.031 -0.016,1.548c0.008,0.515 0.027,1.03 0.06,1.545c0.032,0.515 0.076,1.03 0.134,1.542c0.056,0.513 0.126,1.023 0.207,1.533c0.082,0.51 0.176,1.017 0.282,1.521c0.105,0.505 0.224,1.007 0.354,1.506c0.131,0.5 0.273,0.996 0.428,1.488c0.153,0.492 0.32,0.98 0.497,1.464c0.178,0.484 0.368,0.965 0.568,1.44c0.202,0.475 0.413,0.944 0.638,1.411c0.223,0.465 0.458,0.923 0.704,1.377c0.245,0.454 0.502,0.901 0.77,1.343c0.266,0.441 0.546,0.875 0.833,1.303c0.289,0.429 0.588,0.849 0.896,1.262c0.308,0.413 0.628,0.82 0.956,1.219c0.328,0.397 0.665,0.788 1.014,1.17c0.347,0.381 0.702,0.754 1.067,1.119c0.366,0.365 0.739,0.722 1.122,1.069c0.383,0.345 0.773,0.683 1.17,1.01c0.399,0.329 0.805,0.647 1.219,0.956c0.415,0.308 0.836,0.607 1.264,0.894c0.428,0.289 0.864,0.567 1.306,0.833c0.441,0.268 0.889,0.523 1.343,0.768c0.454,0.247 0.914,0.481 1.379,0.704c0.467,0.224 0.936,0.436 1.412,0.636c0.475,0.202 0.956,0.391 1.44,0.568c0.486,0.178 0.973,0.344 1.467,0.497c0.492,0.155 0.988,0.297 1.488,0.426c0.499,0.131 1.002,0.249 1.508,0.355c0.505,0.105 1.012,0.2 1.522,0.281c0.51,0.082 1.022,0.15 1.535,0.208c0.513,0.056 1.027,0.1 1.542,0.132c0.517,0.032 1.031,0.052 1.548,0.06c0.517,0.006 1.033,0.002 1.548,-0.016c0.517,-0.018 1.031,-0.047 1.546,-0.09c0.515,-0.042 1.028,-0.097 1.54,-0.163c0.512,-0.068 1.022,-0.147 1.53,-0.239c0.508,-0.092 1.014,-0.195 1.517,-0.312c0.502,-0.116 1.002,-0.244 1.5,-0.384c0.497,-0.14 0.99,-0.292 1.479,-0.457c0.491,-0.163 0.975,-0.339 1.456,-0.526c0.483,-0.187 0.959,-0.387 1.43,-0.597c0.471,-0.21 0.938,-0.431 1.398,-0.663c0.462,-0.234 0.915,-0.478 1.366,-0.731c0.449,-0.255 0.891,-0.52 1.327,-0.796c0.436,-0.276 0.865,-0.563 1.288,-0.859c0.423,-0.297 0.838,-0.604 1.245,-0.92c0.408,-0.316 0.809,-0.644 1.199,-0.98c0.392,-0.336 0.776,-0.681 1.151,-1.035Z" style="fill:#189caa;fill-rule:nonzero;"/><path d="M175.941,73.708c-0.002,-0.788 -0.032,-1.574 -0.092,-2.358c-0.06,-0.786 -0.147,-1.567 -0.263,-2.347c-0.118,-0.778 -0.263,-1.551 -0.437,-2.32c-0.173,-0.767 -0.374,-1.529 -0.605,-2.281c-0.229,-0.754 -0.486,-1.496 -0.772,-2.231c-0.284,-0.734 -0.596,-1.458 -0.933,-2.169c-0.337,-0.71 -0.701,-1.409 -1.09,-2.094c-0.389,-0.684 -0.804,-1.354 -1.241,-2.008c-0.439,-0.654 -0.901,-1.291 -1.387,-1.911c-0.484,-0.621 -0.993,-1.222 -1.522,-1.806c-0.529,-0.583 -1.08,-1.144 -1.651,-1.688c-0.571,-0.542 -1.161,-1.062 -1.771,-1.563c-0.609,-0.499 -1.236,-0.975 -1.881,-1.429c-0.644,-0.452 -1.306,-0.881 -1.981,-1.287c-0.676,-0.404 -1.367,-0.783 -2.071,-1.136c-0.704,-0.355 -1.421,-0.681 -2.149,-0.983c-0.728,-0.302 -1.466,-0.575 -2.215,-0.823c-0.747,-0.247 -1.504,-0.465 -2.268,-0.657c-0.765,-0.19 -1.535,-0.355 -2.312,-0.489c-0.776,-0.136 -1.558,-0.241 -2.342,-0.318c-0.783,-0.077 -1.569,-0.126 -2.357,-0.145c-0.788,-0.021 -1.575,-0.011 -2.363,0.027c-0.788,0.037 -1.572,0.105 -2.354,0.2c-0.783,0.097 -1.561,0.221 -2.334,0.374c-0.773,0.152 -1.538,0.334 -2.299,0.542c-0.76,0.21 -1.511,0.447 -2.253,0.712c-0.743,0.265 -1.474,0.555 -2.194,0.873c-0.722,0.318 -1.43,0.663 -2.124,1.033c-0.696,0.371 -1.377,0.765 -2.044,1.186c-0.667,0.42 -1.316,0.865 -1.95,1.333c-0.633,0.468 -1.249,0.959 -1.847,1.472c-0.597,0.513 -1.175,1.048 -1.734,1.603l-26.433,26.344c-1.85,1.829 -3.462,3.848 -4.838,6.057c-0.3,0.496 -0.588,0.996 -0.86,1.506c-0.273,0.51 -0.533,1.027 -0.778,1.55c-0.245,0.525 -0.476,1.054 -0.692,1.59c-0.218,0.536 -0.42,1.077 -0.607,1.624c-0.187,0.547 -0.36,1.099 -0.518,1.655c-0.157,0.557 -0.3,1.117 -0.426,1.68c-0.128,0.565 -0.241,1.132 -0.337,1.701c-0.097,0.57 -0.178,1.143 -0.244,1.716c-0.065,0.575 -0.115,1.151 -0.15,1.727c-0.034,0.578 -0.053,1.156 -0.056,1.734c-0.003,0.578 0.008,1.156 0.036,1.734c0.029,0.576 0.073,1.153 0.131,1.729c0.06,0.575 0.134,1.148 0.224,1.719c0.089,0.57 0.195,1.138 0.315,1.705c0.121,0.565 0.257,1.127 0.408,1.685c0.15,0.557 0.316,1.111 0.497,1.661c0.181,0.549 0.378,1.093 0.588,1.63c0.21,0.539 0.436,1.072 0.675,1.598c0.239,0.526 0.492,1.046 0.759,1.559c0.268,0.512 0.549,1.017 0.843,1.514c0.295,0.499 0.604,0.988 0.925,1.469c0.32,0.481 0.654,0.952 1.001,1.416c0.347,0.463 0.705,0.917 1.077,1.359c0.371,0.444 0.754,0.878 1.148,1.301c0.394,0.423 0.801,0.835 1.217,1.235c0.416,0.402 0.844,0.791 1.282,1.169c0.437,0.379 0.886,0.744 1.343,1.099c0.458,0.354 0.925,0.694 1.401,1.023c0.476,0.328 0.96,0.644 1.453,0.946c0.494,0.303 0.994,0.592 1.503,0.867c0.508,0.276 1.025,0.538 1.548,0.786c0.523,0.247 1.052,0.481 1.587,0.699l9.048,-9.022c0.487,-0.502 0.935,-1.04 1.338,-1.611c-0.336,-0.032 -0.67,-0.074 -1.002,-0.124c-0.334,-0.05 -0.665,-0.11 -0.996,-0.178c-0.329,-0.068 -0.659,-0.144 -0.985,-0.229c-0.326,-0.084 -0.649,-0.178 -0.97,-0.281c-0.321,-0.102 -0.641,-0.211 -0.956,-0.331c-0.316,-0.118 -0.628,-0.245 -0.936,-0.381c-0.308,-0.136 -0.613,-0.278 -0.915,-0.429c-0.302,-0.152 -0.597,-0.31 -0.891,-0.478c-0.292,-0.166 -0.581,-0.341 -0.864,-0.523c-0.284,-0.182 -0.563,-0.371 -0.836,-0.568c-0.274,-0.197 -0.542,-0.4 -0.805,-0.612c-0.263,-0.21 -0.52,-0.428 -0.772,-0.652c-0.25,-0.224 -0.496,-0.455 -0.734,-0.692c-0.241,-0.237 -0.473,-0.481 -0.699,-0.731c-0.226,-0.249 -0.446,-0.505 -0.659,-0.765c-0.213,-0.262 -0.42,-0.528 -0.618,-0.801c-0.199,-0.271 -0.391,-0.549 -0.575,-0.831c-0.184,-0.281 -0.36,-0.568 -0.529,-0.859c-0.169,-0.292 -0.331,-0.588 -0.484,-0.888c-0.153,-0.3 -0.299,-0.604 -0.436,-0.91c-0.137,-0.308 -0.266,-0.618 -0.387,-0.933c-0.121,-0.315 -0.234,-0.631 -0.339,-0.952c-0.103,-0.32 -0.2,-0.642 -0.287,-0.969c-0.087,-0.324 -0.166,-0.652 -0.236,-0.981c-0.071,-0.329 -0.131,-0.66 -0.184,-0.993c-0.053,-0.333 -0.097,-0.667 -0.131,-1.002c-0.036,-0.334 -0.061,-0.67 -0.079,-1.007c-0.018,-0.336 -0.026,-0.672 -0.026,-1.009c0.002,-0.337 0.011,-0.673 0.029,-1.009c0.018,-0.337 0.045,-0.673 0.081,-1.007c0.036,-0.336 0.081,-0.668 0.134,-1.001c0.053,-0.333 0.116,-0.663 0.187,-0.993c0.024,-0.2 0.073,-0.394 0.145,-0.581c0.413,-1.7 1.048,-3.314 1.905,-4.841c0.859,-1.527 1.905,-2.909 3.143,-4.149l26.4,-26.358c0.889,-0.898 1.858,-1.698 2.907,-2.402c1.049,-0.704 2.157,-1.298 3.324,-1.782c1.167,-0.484 2.37,-0.849 3.609,-1.094c1.24,-0.244 2.491,-0.365 3.755,-0.362c0.946,0 1.887,0.068 2.822,0.207c0.936,0.139 1.856,0.345 2.76,0.618c0.906,0.274 1.785,0.613 2.641,1.017c0.854,0.404 1.676,0.868 2.462,1.393c0.786,0.526 1.529,1.106 2.229,1.74c0.701,0.634 1.351,1.317 1.95,2.048c0.6,0.73 1.143,1.501 1.629,2.312c0.486,0.81 0.909,1.653 1.27,2.525c0.36,0.873 0.655,1.769 0.885,2.686c0.229,0.917 0.389,1.845 0.481,2.785c0.092,0.941 0.113,1.882 0.066,2.826c-0.048,0.943 -0.165,1.879 -0.35,2.804c-0.187,0.927 -0.439,1.835 -0.76,2.723c-0.32,0.889 -0.702,1.75 -1.151,2.583c-0.447,0.833 -0.952,1.627 -1.517,2.384c-0.565,0.759 -1.183,1.471 -1.853,2.137l-14.384,14.371c0.933,3.38 1.406,6.822 1.419,10.328c-0.024,2.428 -0.262,4.833 -0.71,7.219l22.82,-22.815c0.746,-0.739 1.454,-1.516 2.124,-2.326c0.67,-0.81 1.298,-1.651 1.885,-2.523c0.586,-0.873 1.128,-1.772 1.626,-2.697c0.497,-0.927 0.949,-1.874 1.353,-2.844c0.404,-0.97 0.759,-1.958 1.064,-2.964c0.307,-1.006 0.563,-2.024 0.768,-3.054c0.205,-1.031 0.358,-2.069 0.462,-3.115c0.103,-1.046 0.153,-2.094 0.153,-3.144Z" style="fill:#189caa;fill-rule:nonzero;"/></g></svg>