<?xml version="1.0" encoding="UTF-8" standalone="no"?><!DOCTYPE svg PUBLIC "-//W3C//DTD SVG 1.1//EN" "http://www.w3.org/Graphics/SVG/1.1/DTD/svg11.dtd"><svg width="100%" height="100%" viewBox="0 0 224 212" version="1.1" xmlns="http://www.w3.org/2000/svg" xmlns:xlink="http://www.w3.org/1999/xlink" xml:space="preserve" xmlns:serif="http://www.serif.com/" style="fill-rule:evenodd;clip-rule:evenodd;stroke-linejoin:round;stroke-miterlimit:2;"><rect id="Tape-Measure" serif:id="Tape Measure" x="0" y="0.384" width="223.502" height="211.507" style="fill:none;"/><g id="Tape-Measure1" serif:id="Tape Measure"><path id="Hex" d="M69.392,168.699l-41.181,-19.46c-3.776,-1.784 -6.234,-5.168 -6.234,-8.965l0,-73.242c0,-3.797 2.458,-7.184 6.234,-8.968l14.91,-7.046c-2.747,3.95 -4.153,8.118 -4.39,12.269l-5.548,2.622c-0.627,0.296 -0.882,0.765 -0.882,1.122l0,73.242c0,0.357 0.255,0.826 0.882,1.122l28.372,13.407c-0.009,0.465 0.003,0.947 0.038,1.429c0.045,0.615 0.127,1.224 0.245,1.829l0.004,0.022c0.12,0.604 0.275,1.2 0.467,1.787c0.192,0.586 0.417,1.159 0.678,1.719c0.262,0.562 0.556,1.107 0.884,1.632c0.325,0.523 0.68,1.022 1.065,1.502c0.387,0.482 0.802,0.938 1.244,1.37c0.439,0.429 0.901,0.828 1.389,1.202l1.824,1.405Zm18.354,-138.767l17.963,-8.488c1.878,-0.888 3.961,-1.327 6.038,-1.327c2.074,0 4.166,0.439 6.044,1.327l21.339,10.084c-9.354,-2.327 -18.871,-3.155 -30.493,-3.377c-0.117,-0.002 -0.234,-0.002 -0.352,0.002c-7.505,0.234 -14.345,0.851 -20.54,1.779Zm80.69,15.444l26.852,12.689c3.776,1.784 6.237,5.171 6.237,8.968l0,73.242c0,3.797 -2.464,7.181 -6.237,8.965l-73.711,34.832c0.89,-0.694 1.771,-1.384 2.644,-2.072c0.767,-0.604 1.388,-1.354 1.838,-2.194c0.899,-0.254 1.758,-0.691 2.519,-1.311c4.6,-3.75 8.927,-7.445 12.979,-11.085c0.707,-0.635 1.269,-1.399 1.663,-2.243c0.888,-0.319 1.704,-0.815 2.397,-1.459c0.858,-0.797 1.704,-1.592 2.537,-2.385l42.166,-19.926c0.627,-0.296 0.882,-0.765 0.882,-1.122l0,-73.242c0,-0.357 -0.255,-0.826 -0.882,-1.122l-5.956,-2.814c-0.521,-0.951 -1.074,-1.902 -1.66,-2.854c-1.296,-2.105 -3.57,-3.326 -5.95,-3.33c-1.67,-4.154 -4.553,-8.103 -8.317,-11.537Z" style="fill:#189caa;stroke:#189caa;stroke-width:0.5px;"/><g><path id="path2-51-9" d="M108.505,94.851c20.908,-0.488 39.918,-3.2 55.407,-15.508c15.344,-13.226 4.903,-29.071 -11.383,-35.795c-14.51,-6.407 -26.829,-8.071 -44.024,-8.399c-89.115,2.778 -78.195,59.65 0,59.702Zm0,-47.252c19.731,0 34.629,7.486 34.629,17.388c-0.489,23.048 -68.757,23.056 -69.231,0c0,-9.901 14.872,-17.388 34.602,-17.388Z" style="fill:#189caa;fill-rule:nonzero;"/><path id="path3-10-2" d="M108.505,77.008c17.234,0 29.26,-6.333 29.26,-12.021c0,-5.689 -12.026,-12.02 -29.26,-12.02c-17.234,0 -29.234,6.332 -29.234,12.02c0,5.689 12,12.021 29.234,12.021Z" style="fill:#189caa;fill-rule:nonzero;"/><path id="path4-41-3" d="M65.151,128.607c3.63,1.618 7.361,2.95 11.195,3.997l0,-21.707c0.003,-0.174 0.023,-0.346 0.059,-0.517c0.037,-0.17 0.09,-0.335 0.159,-0.495c0.068,-0.16 0.153,-0.312 0.251,-0.456c0.098,-0.144 0.21,-0.276 0.334,-0.399c0.124,-0.122 0.259,-0.231 0.405,-0.327c0.145,-0.095 0.299,-0.176 0.46,-0.243c0.162,-0.065 0.328,-0.115 0.499,-0.149c0.171,-0.034 0.343,-0.051 0.518,-0.051c0.174,0 0.347,0.017 0.518,0.051c0.172,0.034 0.338,0.084 0.499,0.149c0.162,0.066 0.315,0.147 0.461,0.243c0.145,0.096 0.281,0.205 0.405,0.327c0.124,0.123 0.235,0.255 0.333,0.399c0.099,0.144 0.183,0.296 0.252,0.456c0.068,0.16 0.121,0.325 0.158,0.495c0.036,0.171 0.056,0.343 0.06,0.517c-0.001,3.95 0,19.363 0,23.023c3.939,-1.594 7.671,-3.58 11.194,-5.957l0,-14.221c0,-0.176 0.017,-0.351 0.052,-0.524c0.034,-0.173 0.084,-0.341 0.153,-0.503c0.067,-0.163 0.15,-0.317 0.248,-0.464c0.098,-0.146 0.209,-0.282 0.333,-0.406c0.125,-0.124 0.261,-0.236 0.407,-0.334c0.147,-0.097 0.302,-0.18 0.464,-0.248c0.163,-0.067 0.331,-0.118 0.504,-0.153c0.173,-0.035 0.347,-0.051 0.523,-0.051c0.176,0 0.351,0.016 0.524,0.051c0.173,0.035 0.341,0.085 0.503,0.153c0.163,0.068 0.318,0.151 0.464,0.248c0.147,0.098 0.282,0.21 0.407,0.334c0.124,0.124 0.236,0.26 0.334,0.406c0.097,0.147 0.18,0.302 0.248,0.464c0.067,0.163 0.118,0.331 0.153,0.503c0.035,0.173 0.052,0.348 0.052,0.524l0,10.545c14.549,-10.143 26.173,-18.944 34.924,-26.27c-25.695,5.66 -66.986,0.35 -82.25,-13.578c-1.984,-1.565 -3.773,-3.327 -5.37,-5.285l0,27.719c0.168,7.37 5.249,13.788 14.201,18.997l0,-21.761c0,-0.176 0.017,-0.351 0.052,-0.523c0.034,-0.173 0.084,-0.341 0.153,-0.503c0.067,-0.163 0.15,-0.318 0.248,-0.464c0.098,-0.146 0.209,-0.282 0.333,-0.407c0.125,-0.124 0.261,-0.235 0.407,-0.333c0.147,-0.098 0.302,-0.181 0.464,-0.248c0.163,-0.067 0.331,-0.118 0.504,-0.153c0.173,-0.035 0.347,-0.052 0.523,-0.052c0.176,0 0.351,0.017 0.524,0.052c0.173,0.035 0.341,0.085 0.503,0.153c0.163,0.067 0.318,0.15 0.464,0.248c0.147,0.098 0.282,0.209 0.407,0.333c0.124,0.124 0.236,0.261 0.334,0.407c0.097,0.146 0.18,0.301 0.248,0.464c0.067,0.163 0.118,0.33 0.153,0.503c0.035,0.173 0.052,0.347 0.052,0.523c-0.001,4.233 0,20.584 -0.001,24.499l0,0Z" style="fill:#189caa;fill-rule:nonzero;"/><path id="path5-614-5" d="M79.996,143.069c-4.314,3.261 -11.26,5.294 -11.435,11.645c-0.015,0.336 -0.011,0.672 0.014,1.007c0.025,0.336 0.07,0.669 0.134,0.999c0.065,0.33 0.15,0.655 0.254,0.975c0.104,0.32 0.227,0.632 0.37,0.937c0.142,0.305 0.302,0.6 0.48,0.886c0.178,0.286 0.372,0.56 0.583,0.822c0.211,0.262 0.437,0.51 0.678,0.746c0.241,0.235 0.495,0.454 0.763,0.659l28.454,21.923c0.366,0.278 0.751,0.526 1.156,0.742c0.406,0.215 0.826,0.398 1.261,0.546c0.435,0.148 0.879,0.261 1.332,0.336c0.453,0.076 0.909,0.116 1.369,0.118c0.46,0.003 0.916,-0.032 1.371,-0.104c0.453,-0.071 0.899,-0.179 1.335,-0.322c0.437,-0.144 0.859,-0.322 1.266,-0.533c0.408,-0.212 0.797,-0.455 1.164,-0.729c3.221,-2.442 6.335,-4.848 9.342,-7.218c-0.959,-0.818 -38.894,-32.59 -39.891,-33.434l-0,-0Z" style="fill:#189caa;fill-rule:nonzero;"/><path id="path6-5-9" d="M156.905,120.181c2.927,2.818 7.149,6.865 10.093,9.687c16.99,-23.912 22.766,-44.814 9.745,-65.955c0.384,17.319 -17.33,26.612 -32.186,31.314c-12.173,11.277 -33.029,26.632 -51.649,39.229c-2.765,1.834 -5.507,3.709 -8.268,5.527c0.916,0.754 37.38,31.319 39.515,33.085c4.51,-3.676 8.751,-7.298 12.724,-10.867c-1.891,-1.908 -12.267,-12.263 -12.267,-12.263c-0.124,-0.124 -0.236,-0.259 -0.333,-0.405c-0.098,-0.146 -0.181,-0.3 -0.248,-0.462c-0.067,-0.163 -0.118,-0.33 -0.153,-0.502c-0.035,-0.172 -0.052,-0.346 -0.052,-0.521c0,-0.176 0.017,-0.35 0.052,-0.522c0.035,-0.173 0.085,-0.34 0.153,-0.502c0.067,-0.162 0.15,-0.316 0.248,-0.462c0.097,-0.146 0.209,-0.281 0.333,-0.405c0.125,-0.124 0.262,-0.235 0.409,-0.333c0.147,-0.098 0.302,-0.181 0.466,-0.248c0.163,-0.067 0.332,-0.118 0.506,-0.153c0.173,-0.034 0.348,-0.051 0.525,-0.051c0.177,0 0.352,0.017 0.525,0.051c0.173,0.035 0.342,0.085 0.506,0.153c0.163,0.067 0.319,0.15 0.466,0.248c0.147,0.098 0.283,0.209 0.409,0.333c2.125,2.087 12.429,12.424 12.429,12.424c3.812,-3.542 7.374,-7.039 10.684,-10.492c-2.087,-1.694 -12.778,-10.331 -12.778,-10.331c-0.138,-0.11 -0.264,-0.233 -0.378,-0.369c-0.114,-0.135 -0.213,-0.281 -0.298,-0.435c-0.085,-0.155 -0.154,-0.317 -0.207,-0.486c-0.053,-0.169 -0.089,-0.342 -0.108,-0.517c-0.018,-0.176 -0.02,-0.352 -0.004,-0.528c0.015,-0.176 0.049,-0.349 0.099,-0.519c0.051,-0.17 0.117,-0.332 0.199,-0.489c0.083,-0.157 0.18,-0.303 0.292,-0.441c0.112,-0.137 0.235,-0.262 0.371,-0.375c0.136,-0.113 0.282,-0.211 0.439,-0.294c0.155,-0.084 0.318,-0.152 0.487,-0.203c0.17,-0.052 0.342,-0.086 0.519,-0.104c0.175,-0.018 0.352,-0.018 0.528,-0.001c0.176,0.018 0.349,0.052 0.518,0.104c0.17,0.052 0.332,0.119 0.488,0.203c0.156,0.084 0.302,0.182 0.439,0.294c0,0 11.022,8.881 13.099,10.573c3.087,-3.381 5.915,-6.709 8.483,-9.982c-1.954,-1.855 -10.524,-10.116 -10.524,-10.116c-0.124,-0.123 -0.236,-0.255 -0.335,-0.4c-0.099,-0.144 -0.183,-0.296 -0.252,-0.457c-0.069,-0.16 -0.122,-0.326 -0.159,-0.497c-0.036,-0.171 -0.056,-0.343 -0.059,-0.518c-0.003,-0.174 0.011,-0.348 0.042,-0.52c0.031,-0.173 0.078,-0.34 0.141,-0.502c0.064,-0.163 0.143,-0.318 0.236,-0.465c0.094,-0.147 0.201,-0.284 0.322,-0.411c0.12,-0.127 0.252,-0.241 0.394,-0.342c0.143,-0.101 0.294,-0.187 0.453,-0.258c0.16,-0.072 0.324,-0.127 0.495,-0.166c0.17,-0.039 0.342,-0.062 0.517,-0.067c0.174,-0.006 0.348,0.005 0.52,0.034c0.173,0.028 0.341,0.073 0.504,0.134c0.164,0.061 0.321,0.137 0.47,0.229c0.149,0.091 0.287,0.196 0.416,0.314l-0,0Z" style="fill:#189caa;fill-rule:nonzero;"/></g></g></svg>