<?xml version="1.0" encoding="UTF-8" standalone="no"?><!DOCTYPE svg PUBLIC "-//W3C//DTD SVG 1.1//EN" "http://www.w3.org/Graphics/SVG/1.1/DTD/svg11.dtd"><svg width="100%" height="100%" viewBox="0 0 224 212" version="1.1" xmlns="http://www.w3.org/2000/svg" xmlns:xlink="http://www.w3.org/1999/xlink" xml:space="preserve" xmlns:serif="http://www.serif.com/" style="fill-rule:evenodd;clip-rule:evenodd;stroke-linejoin:round;stroke-miterlimit:2;"><rect id="Testosterone" x="0" y="0.384" width="223.502" height="211.507" style="fill:none;"/><g id="Testosterone1" serif:id="Testosterone"><path id="Hex" d="M24.277,148.771c-1.457,-1.702 -2.301,-3.784 -2.301,-6.008l0,-73.242c0,-3.797 2.458,-7.184 6.234,-8.968l77.499,-36.621c1.878,-0.888 3.961,-1.327 6.038,-1.327c2.074,0 4.166,0.439 6.044,1.327l53.96,25.499c-0.025,0.058 -0.05,0.117 -0.074,0.175l-0.005,0.011c-0.165,0.398 -0.31,0.801 -0.434,1.212c-0.123,0.406 -0.226,0.818 -0.308,1.233l-0.001,0.006c-0.081,0.412 -0.143,0.825 -0.185,1.241l-0.003,0.031c-0.04,0.416 -0.06,0.833 -0.06,1.253c0,0.419 0.02,0.837 0.06,1.253l0.003,0.028c0.042,0.418 0.103,0.831 0.185,1.244l0.001,0.006c0.082,0.416 0.185,0.827 0.308,1.233c0.124,0.411 0.269,0.815 0.434,1.212c0,0 0.007,0.017 0.008,0.02l-5.069,-2.395c-0.035,-0.128 -0.071,-0.256 -0.11,-0.383c-0.121,-0.401 -0.263,-0.796 -0.422,-1.181l-0.007,-0.016c-0.162,-0.391 -0.343,-0.773 -0.542,-1.145l-0.006,-0.011c-0.201,-0.375 -0.418,-0.738 -0.653,-1.09c-0.237,-0.354 -0.491,-0.697 -0.762,-1.026c-0.268,-0.327 -0.554,-0.641 -0.854,-0.942c-0.296,-0.296 -0.607,-0.579 -0.932,-0.846l-0.034,-0.028c-0.325,-0.265 -0.66,-0.513 -1.01,-0.746c-0.349,-0.233 -0.71,-0.45 -1.08,-0.647c-0.377,-0.202 -0.762,-0.384 -1.158,-0.549c-0.388,-0.161 -0.782,-0.302 -1.183,-0.425l-0.029,-0.009c-0.406,-0.123 -0.818,-0.226 -1.233,-0.308c-0.418,-0.083 -0.84,-0.146 -1.266,-0.187c-0.42,-0.041 -0.842,-0.062 -1.265,-0.062c-0.422,0 -0.844,0.021 -1.266,0.062c-0.423,0.041 -0.844,0.103 -1.261,0.186c-0.419,0.083 -0.83,0.186 -1.237,0.309l-0.029,0.009c-0.403,0.124 -0.801,0.266 -1.189,0.427c-0.121,0.05 -0.241,0.102 -0.36,0.156l-35.901,-16.965c-0.328,-0.155 -0.697,-0.237 -1.075,-0.237c-0.375,0 -0.741,0.082 -1.069,0.237l-77.496,36.621c-0.627,0.296 -0.882,0.765 -0.882,1.122l0,73.242c0,0.357 0.255,0.826 0.882,1.122l1.823,0.861c-0.42,-0.041 -0.841,-0.063 -1.265,-0.063c-0.422,0 -0.844,0.021 -1.266,0.062c-0.422,0.041 -0.841,0.103 -1.259,0.185l-0.006,0.001c-0.419,0.083 -0.834,0.187 -1.241,0.311l-0.02,0.006c-0.401,0.123 -0.796,0.264 -1.184,0.425l-0.011,0.005c-0.388,0.161 -0.767,0.341 -1.14,0.54c-0.375,0.2 -0.741,0.42 -1.095,0.656c-0.351,0.235 -0.691,0.486 -1.017,0.753l-0.019,0.015c-0.324,0.267 -0.635,0.549 -0.933,0.847c-0.092,0.092 -0.183,0.186 -0.272,0.281Zm170.966,-88.239l0.045,0.021c3.776,1.784 6.237,5.171 6.237,8.968l0,22.774l-0.465,-0.915l-9.86,-13.57l0,-8.289c0,-0.357 -0.255,-0.826 -0.882,-1.122l-0.782,-0.369l0.461,-2.076c0.309,-0.172 0.61,-0.356 0.904,-0.553c0.351,-0.235 0.691,-0.486 1.017,-0.753l0.003,-0.003c0.335,-0.274 0.653,-0.563 0.957,-0.868c0.295,-0.295 0.573,-0.603 0.838,-0.924c0.271,-0.329 0.524,-0.67 0.761,-1.024c0.237,-0.352 0.454,-0.715 0.655,-1.088l0.02,-0.038c0.03,-0.057 0.06,-0.114 0.089,-0.171Zm6.282,40.378l0,41.853c0,3.797 -2.464,7.181 -6.237,8.965l-77.496,36.621c-3.721,1.761 -8.361,1.761 -12.082,0l-59.249,-27.997c0.009,-0.041 0.017,-0.082 0.025,-0.123c0.084,-0.418 0.147,-0.84 0.189,-1.266l0.003,-0.028l0.007,-0.074l7.018,-5.279l56.975,26.924c0.665,0.313 1.477,0.313 2.145,0l77.496,-36.621c0.627,-0.296 0.882,-0.765 0.882,-1.122l0,-27.37l9.863,-13.575l0.004,-0.006l0.457,-0.902Z" style="fill:#189caa;stroke:#189caa;stroke-width:0.5px;"/><g><path id="path3-95-5" d="M86.168,138.179l0,-12.093c0,-1.277 -0.682,-2.457 -1.784,-3.096l-10.474,-6.045c-1.106,-0.638 -2.467,-0.638 -3.573,0l-10.473,6.045c-1.106,0.638 -1.785,1.819 -1.785,3.096l0,12.093c0,1.277 0.683,2.456 1.785,3.095l10.473,6.045c1.106,0.638 2.467,0.638 3.573,0l10.474,-6.045c1.105,-0.638 1.784,-1.818 1.784,-3.095Z" style="fill:#189caa;fill-rule:nonzero;"/><path id="path4-49-8" d="M126.653,137.597l0,-12.093c0,-1.277 -0.683,-2.456 -1.785,-3.095l-10.473,-6.045c-1.106,-0.638 -2.467,-0.638 -3.573,0l-10.474,6.045c-1.105,0.638 -1.784,1.818 -1.784,3.095l0,12.093c0,1.277 0.682,2.456 1.784,3.095l10.474,6.046c1.106,0.638 2.467,0.638 3.573,0l10.473,-6.046c1.106,-0.638 1.785,-1.818 1.785,-3.095Z" style="fill:#189caa;fill-rule:nonzero;"/><path id="path5-1-4" d="M146.862,102.157l0,-12.094c0,-1.277 -0.683,-2.456 -1.785,-3.095l-10.473,-6.045c-1.106,-0.638 -2.467,-0.638 -3.573,0l-10.474,6.045c-1.105,0.638 -1.784,1.818 -1.784,3.095l0,12.094c0,1.277 0.683,2.456 1.784,3.095l10.474,6.045c1.106,0.638 2.467,0.638 3.573,0l10.473,-6.045c1.106,-0.638 1.785,-1.818 1.785,-3.095Z" style="fill:#189caa;fill-rule:nonzero;"/><path id="path6-7-2" d="M72.192,157.323c-0.323,0 -0.648,-0.084 -0.937,-0.252l-20.216,-11.67c-0.581,-0.336 -0.937,-0.955 -0.937,-1.624l0,-23.343c0,-0.669 0.356,-1.288 0.937,-1.624l20.216,-11.67c0.582,-0.336 1.294,-0.336 1.875,0l20.215,11.67c0.582,0.336 0.937,0.955 0.937,1.624l0,23.343c0,0.669 -0.356,1.288 -0.937,1.624l-20.215,11.67c-0.289,0.168 -0.615,0.252 -0.938,0.252Zm-18.34,-14.628l18.34,10.589l18.34,-10.589l0,-21.18l-18.34,-10.589l-18.34,10.589l0,21.18Zm38.556,1.082l0.004,0l-0.004,0Z" style="fill:#189caa;fill-rule:nonzero;"/><path id="path7-55-5" d="M112.678,156.573c-0.323,0 -0.648,-0.084 -0.937,-0.253l-20.216,-11.67c-0.581,-0.336 -0.937,-0.955 -0.937,-1.624l0,-23.343c0,-0.669 0.356,-1.288 0.937,-1.624l20.216,-11.67c0.581,-0.336 1.294,-0.336 1.875,0l20.216,11.67c0.582,0.336 0.937,0.954 0.937,1.624l0,23.343c0,0.669 -0.356,1.288 -0.937,1.624l-20.216,11.67c-0.289,0.168 -0.615,0.253 -0.937,0.253Zm-18.34,-14.628l18.34,10.589l18.34,-10.589l0,-21.18l-18.34,-10.589l-18.34,10.589l0,21.18Zm38.556,1.082l0.004,0l-0.004,0Z" style="fill:#189caa;fill-rule:nonzero;"/><path id="path8-4-0" d="M132.92,121.71c-0.323,0 -0.648,-0.084 -0.937,-0.253l-20.216,-11.67c-0.581,-0.335 -0.937,-0.954 -0.937,-1.623l0,-23.343c0,-0.669 0.356,-1.288 0.937,-1.624l20.216,-11.67c0.581,-0.336 1.294,-0.336 1.875,0l20.216,11.67c0.582,0.336 0.937,0.954 0.937,1.624l0,23.343c0,0.669 -0.356,1.288 -0.937,1.623l-20.216,11.67c-0.289,0.168 -0.615,0.253 -0.937,0.253Zm-18.34,-14.628l18.34,10.589l18.34,-10.589l0,-21.18l-18.34,-10.589l-18.34,10.589l0,21.18Zm38.556,1.082l0.003,0l-0.003,0Z" style="fill:#189caa;fill-rule:nonzero;"/><path id="path9-1-7" d="M175.593,82.435l-14.104,4.584c-0.847,0.276 -1.421,1.065 -1.421,1.955l0,14.829c0,0.891 0.575,1.68 1.421,1.956l14.104,4.584c0.847,0.276 1.777,-0.027 2.302,-0.746l8.717,-11.997c0.524,-0.723 0.524,-1.697 0,-2.419l-8.717,-11.997c-0.525,-0.723 -1.452,-1.022 -2.302,-0.746l0,-0.004Z" style="fill:#189caa;fill-rule:nonzero;"/><path id="path10-88-0" d="M178.889,119.11c-0.192,0 -0.389,-0.031 -0.577,-0.091l-24.262,-7.883c-0.772,-0.252 -1.294,-0.971 -1.294,-1.781l0,-25.508c0,-0.813 0.525,-1.532 1.294,-1.781l24.262,-7.883c0.772,-0.252 1.619,0.024 2.096,0.682l14.994,20.636c0.477,0.655 0.477,1.546 0,2.204l-14.994,20.636c-0.359,0.494 -0.928,0.772 -1.515,0.772l-0.004,-0.003Zm-22.386,-11.12l21.67,7.04l13.394,-18.434l-13.394,-18.434l-21.67,7.04l0,22.789Z" style="fill:#189caa;fill-rule:nonzero;"/><path id="path11-35-7" d="M92.462,121.559c-1.036,0 -1.875,-0.84 -1.875,-1.875l0,-19.581c0,-1.035 0.84,-1.875 1.875,-1.875c1.035,0 1.875,0.84 1.875,1.875l0,19.581c0,1.035 -0.84,1.875 -1.875,1.875Z" style="fill:#189caa;fill-rule:nonzero;"/><path id="path12-2-6" d="M34.49,158.804c-0.568,0 -1.132,-0.259 -1.499,-0.746c-0.622,-0.827 -0.457,-2.003 0.37,-2.625l17.487,-13.152c0.827,-0.622 2.003,-0.454 2.625,0.37c0.622,0.826 0.457,2.002 -0.37,2.624l-17.487,13.152c-0.336,0.253 -0.733,0.377 -1.126,0.377Z" style="fill:#189caa;fill-rule:nonzero;"/><path id="path13-2-8" d="M153.882,85.721c-1.035,0 -1.875,-0.84 -1.875,-1.875l0,-19.698c0,-1.036 0.841,-1.875 1.875,-1.875c1.035,0 1.875,0.84 1.875,1.875l0,19.698c0,1.035 -0.84,1.875 -1.875,1.875Z" style="fill:#189caa;fill-rule:nonzero;"/><path id="path14-6-2" d="M178.734,77.613c-0.135,0 -0.272,-0.013 -0.41,-0.043c-1.012,-0.225 -1.647,-1.226 -1.421,-2.238l4.274,-19.231c0.225,-1.012 1.226,-1.647 2.238,-1.421c1.011,0.225 1.647,1.226 1.421,2.238l-4.274,19.231c-0.195,0.873 -0.968,1.468 -1.828,1.468l0,-0.004Z" style="fill:#189caa;fill-rule:nonzero;"/><path id="path15-7-9" d="M39.739,157.682c0,0.197 -0.01,0.393 -0.028,0.588c-0.02,0.196 -0.048,0.39 -0.087,0.583c-0.038,0.192 -0.086,0.383 -0.143,0.571c-0.057,0.188 -0.123,0.372 -0.199,0.554c-0.074,0.181 -0.159,0.358 -0.251,0.532c-0.093,0.173 -0.194,0.341 -0.303,0.505c-0.109,0.163 -0.226,0.321 -0.35,0.473c-0.125,0.153 -0.256,0.298 -0.395,0.436c-0.139,0.139 -0.284,0.27 -0.436,0.395c-0.152,0.125 -0.309,0.241 -0.473,0.35c-0.163,0.11 -0.332,0.21 -0.505,0.303c-0.174,0.092 -0.351,0.176 -0.532,0.252c-0.182,0.074 -0.366,0.141 -0.554,0.198c-0.188,0.057 -0.379,0.105 -0.571,0.143c-0.193,0.039 -0.387,0.067 -0.583,0.087c-0.195,0.019 -0.391,0.028 -0.588,0.028c-0.196,0 -0.392,-0.009 -0.588,-0.028c-0.195,-0.019 -0.389,-0.048 -0.583,-0.087c-0.192,-0.038 -0.383,-0.086 -0.57,-0.143c-0.188,-0.057 -0.373,-0.123 -0.555,-0.198c-0.181,-0.075 -0.358,-0.16 -0.532,-0.252c-0.173,-0.093 -0.341,-0.193 -0.505,-0.303c-0.163,-0.109 -0.321,-0.225 -0.473,-0.35c-0.152,-0.125 -0.297,-0.256 -0.436,-0.395c-0.139,-0.138 -0.27,-0.284 -0.395,-0.436c-0.124,-0.152 -0.241,-0.309 -0.35,-0.473c-0.109,-0.163 -0.21,-0.332 -0.302,-0.505c-0.093,-0.174 -0.177,-0.351 -0.252,-0.532c-0.075,-0.182 -0.142,-0.366 -0.199,-0.554c-0.057,-0.188 -0.105,-0.379 -0.143,-0.571c-0.038,-0.192 -0.067,-0.387 -0.087,-0.583c-0.019,-0.195 -0.028,-0.391 -0.028,-0.588c0,-0.196 0.01,-0.392 0.028,-0.588c0.02,-0.195 0.049,-0.389 0.087,-0.582c0.038,-0.193 0.086,-0.383 0.143,-0.571c0.057,-0.188 0.123,-0.373 0.199,-0.554c0.074,-0.182 0.159,-0.359 0.252,-0.532c0.092,-0.174 0.193,-0.342 0.302,-0.505c0.109,-0.163 0.226,-0.321 0.35,-0.473c0.125,-0.152 0.256,-0.297 0.395,-0.436c0.139,-0.139 0.285,-0.27 0.436,-0.395c0.152,-0.124 0.309,-0.241 0.473,-0.35c0.163,-0.109 0.332,-0.21 0.505,-0.302c0.174,-0.093 0.351,-0.176 0.532,-0.252c0.182,-0.075 0.367,-0.141 0.555,-0.199c0.187,-0.057 0.378,-0.105 0.57,-0.143c0.193,-0.038 0.388,-0.067 0.583,-0.086c0.196,-0.019 0.392,-0.029 0.588,-0.029c0.197,0 0.393,0.01 0.588,0.029c0.196,0.019 0.389,0.048 0.583,0.086c0.192,0.038 0.383,0.086 0.571,0.143c0.188,0.058 0.372,0.123 0.554,0.199c0.181,0.075 0.358,0.159 0.532,0.252c0.173,0.092 0.341,0.193 0.505,0.302c0.163,0.109 0.321,0.226 0.473,0.35c0.153,0.125 0.297,0.256 0.436,0.395c0.139,0.139 0.27,0.285 0.395,0.436c0.124,0.152 0.241,0.309 0.35,0.473c0.109,0.163 0.21,0.332 0.303,0.505c0.092,0.173 0.176,0.35 0.251,0.532c0.075,0.181 0.142,0.366 0.199,0.554c0.057,0.188 0.105,0.378 0.143,0.571c0.039,0.192 0.067,0.387 0.087,0.582c0.019,0.196 0.028,0.392 0.028,0.588Z" style="fill:#189caa;fill-rule:nonzero;"/><path id="path16-8-0" d="M160.065,60.593c0,0.197 -0.01,0.393 -0.029,0.588c-0.019,0.196 -0.048,0.39 -0.086,0.583c-0.039,0.192 -0.086,0.383 -0.144,0.571c-0.057,0.188 -0.123,0.372 -0.198,0.554c-0.075,0.182 -0.16,0.359 -0.252,0.532c-0.093,0.173 -0.193,0.341 -0.302,0.505c-0.109,0.163 -0.226,0.321 -0.351,0.473c-0.124,0.153 -0.256,0.298 -0.395,0.436c-0.138,0.139 -0.284,0.271 -0.435,0.395c-0.153,0.125 -0.309,0.241 -0.474,0.351c-0.163,0.109 -0.332,0.209 -0.505,0.302c-0.173,0.092 -0.35,0.176 -0.532,0.252c-0.182,0.074 -0.366,0.141 -0.554,0.198c-0.188,0.058 -0.379,0.105 -0.571,0.144c-0.192,0.038 -0.387,0.067 -0.583,0.086c-0.195,0.019 -0.391,0.029 -0.588,0.029c-0.196,0 -0.392,-0.01 -0.588,-0.029c-0.195,-0.019 -0.389,-0.048 -0.582,-0.086c-0.193,-0.039 -0.383,-0.086 -0.571,-0.144c-0.188,-0.057 -0.373,-0.123 -0.554,-0.198c-0.182,-0.075 -0.359,-0.16 -0.532,-0.252c-0.174,-0.093 -0.341,-0.193 -0.505,-0.302c-0.163,-0.11 -0.321,-0.226 -0.473,-0.351c-0.152,-0.124 -0.297,-0.256 -0.436,-0.395c-0.138,-0.138 -0.27,-0.284 -0.395,-0.436c-0.124,-0.152 -0.241,-0.309 -0.35,-0.473c-0.109,-0.163 -0.21,-0.332 -0.302,-0.505c-0.093,-0.173 -0.176,-0.35 -0.252,-0.532c-0.075,-0.182 -0.141,-0.366 -0.199,-0.554c-0.057,-0.188 -0.105,-0.379 -0.143,-0.571c-0.038,-0.192 -0.067,-0.387 -0.086,-0.583c-0.019,-0.195 -0.029,-0.391 -0.029,-0.588c0,-0.196 0.01,-0.392 0.029,-0.588c0.019,-0.195 0.048,-0.389 0.086,-0.582c0.038,-0.193 0.086,-0.383 0.143,-0.571c0.058,-0.188 0.123,-0.373 0.199,-0.554c0.075,-0.182 0.159,-0.359 0.252,-0.532c0.092,-0.174 0.193,-0.342 0.302,-0.505c0.109,-0.163 0.226,-0.321 0.35,-0.473c0.125,-0.152 0.257,-0.297 0.395,-0.436c0.139,-0.138 0.285,-0.27 0.436,-0.395c0.152,-0.124 0.309,-0.241 0.473,-0.35c0.164,-0.109 0.332,-0.21 0.505,-0.302c0.173,-0.093 0.35,-0.176 0.532,-0.252c0.181,-0.075 0.366,-0.141 0.554,-0.199c0.188,-0.057 0.378,-0.105 0.571,-0.143c0.192,-0.038 0.387,-0.067 0.582,-0.086c0.196,-0.019 0.392,-0.029 0.588,-0.029c0.197,0 0.393,0.01 0.588,0.029c0.196,0.019 0.39,0.048 0.583,0.086c0.192,0.038 0.383,0.086 0.571,0.143c0.188,0.058 0.372,0.123 0.554,0.199c0.182,0.075 0.359,0.159 0.532,0.252c0.173,0.092 0.341,0.193 0.505,0.302c0.164,0.109 0.321,0.226 0.474,0.35c0.152,0.125 0.297,0.257 0.435,0.395c0.139,0.139 0.271,0.285 0.395,0.436c0.125,0.152 0.242,0.309 0.351,0.473c0.109,0.163 0.209,0.332 0.302,0.505c0.092,0.173 0.176,0.35 0.252,0.532c0.074,0.181 0.141,0.366 0.198,0.554c0.058,0.188 0.105,0.378 0.144,0.571c0.038,0.192 0.067,0.387 0.086,0.582c0.019,0.196 0.029,0.392 0.029,0.588Z" style="fill:#189caa;fill-rule:nonzero;"/><path id="path17-8" d="M189.679,54.595c0,0.197 -0.009,0.393 -0.028,0.588c-0.019,0.196 -0.048,0.389 -0.087,0.583c-0.038,0.192 -0.086,0.383 -0.143,0.571c-0.057,0.188 -0.123,0.372 -0.198,0.554c-0.075,0.181 -0.16,0.358 -0.252,0.532c-0.093,0.173 -0.193,0.341 -0.303,0.505c-0.109,0.163 -0.225,0.321 -0.35,0.473c-0.125,0.152 -0.256,0.297 -0.395,0.436c-0.138,0.139 -0.284,0.27 -0.436,0.395c-0.152,0.124 -0.309,0.241 -0.473,0.35c-0.163,0.109 -0.332,0.21 -0.505,0.303c-0.174,0.092 -0.351,0.176 -0.532,0.251c-0.182,0.075 -0.366,0.142 -0.554,0.199c-0.188,0.057 -0.379,0.105 -0.571,0.143c-0.192,0.039 -0.387,0.067 -0.583,0.087c-0.195,0.019 -0.391,0.028 -0.588,0.028c-0.196,0 -0.392,-0.01 -0.588,-0.028c-0.195,-0.019 -0.389,-0.048 -0.582,-0.087c-0.193,-0.038 -0.383,-0.086 -0.571,-0.143c-0.188,-0.057 -0.373,-0.123 -0.554,-0.199c-0.182,-0.074 -0.359,-0.159 -0.532,-0.251c-0.174,-0.093 -0.342,-0.194 -0.505,-0.303c-0.163,-0.109 -0.321,-0.226 -0.473,-0.35c-0.152,-0.125 -0.297,-0.256 -0.436,-0.395c-0.139,-0.139 -0.27,-0.285 -0.395,-0.436c-0.124,-0.152 -0.241,-0.309 -0.35,-0.473c-0.109,-0.163 -0.21,-0.332 -0.302,-0.505c-0.093,-0.174 -0.176,-0.351 -0.252,-0.532c-0.075,-0.182 -0.142,-0.366 -0.199,-0.554c-0.057,-0.188 -0.105,-0.379 -0.143,-0.571c-0.038,-0.193 -0.067,-0.387 -0.087,-0.583c-0.019,-0.195 -0.028,-0.391 -0.028,-0.588c0,-0.197 0.01,-0.393 0.028,-0.588c0.019,-0.195 0.049,-0.389 0.087,-0.583c0.038,-0.192 0.086,-0.383 0.143,-0.571c0.057,-0.188 0.123,-0.372 0.199,-0.554c0.075,-0.181 0.159,-0.358 0.252,-0.532c0.092,-0.173 0.193,-0.341 0.302,-0.505c0.109,-0.163 0.226,-0.321 0.35,-0.473c0.125,-0.152 0.256,-0.297 0.395,-0.436c0.139,-0.139 0.285,-0.27 0.436,-0.395c0.152,-0.124 0.309,-0.241 0.473,-0.35c0.163,-0.109 0.332,-0.21 0.505,-0.303c0.173,-0.092 0.35,-0.176 0.532,-0.251c0.181,-0.075 0.366,-0.142 0.554,-0.199c0.188,-0.057 0.378,-0.105 0.571,-0.143c0.192,-0.038 0.387,-0.067 0.582,-0.087c0.196,-0.019 0.392,-0.028 0.588,-0.028c0.197,0 0.393,0.01 0.588,0.028c0.196,0.019 0.39,0.049 0.583,0.087c0.192,0.038 0.383,0.086 0.571,0.143c0.188,0.057 0.372,0.123 0.554,0.199c0.181,0.074 0.358,0.159 0.532,0.251c0.173,0.093 0.341,0.194 0.505,0.303c0.163,0.109 0.321,0.226 0.473,0.35c0.153,0.125 0.298,0.256 0.436,0.395c0.139,0.139 0.27,0.285 0.395,0.436c0.125,0.152 0.241,0.309 0.35,0.473c0.11,0.163 0.21,0.332 0.303,0.505c0.092,0.174 0.176,0.351 0.252,0.532c0.074,0.182 0.141,0.366 0.198,0.554c0.057,0.188 0.105,0.379 0.143,0.571c0.039,0.193 0.067,0.388 0.087,0.583c0.019,0.195 0.028,0.391 0.028,0.588Z" style="fill:#189caa;fill-rule:nonzero;"/></g></g></svg>