<?xml version="1.0" encoding="UTF-8" standalone="no"?><!DOCTYPE svg PUBLIC "-//W3C//DTD SVG 1.1//EN" "http://www.w3.org/Graphics/SVG/1.1/DTD/svg11.dtd"><svg width="100%" height="100%" viewBox="0 0 224 212" version="1.1" xmlns="http://www.w3.org/2000/svg" xmlns:xlink="http://www.w3.org/1999/xlink" xml:space="preserve" xmlns:serif="http://www.serif.com/" style="fill-rule:evenodd;clip-rule:evenodd;stroke-linejoin:round;stroke-miterlimit:2;"><rect id="Timer" x="0" y="0.384" width="223.502" height="211.507" style="fill:none;"/><g id="Timer1" serif:id="Timer"><path id="Hex" d="M54.302,164.058l-26.091,-12.329c-3.776,-1.784 -6.234,-5.168 -6.234,-8.965l0,-73.242c0,-3.797 2.458,-7.184 6.234,-8.968l63.805,-30.15c-0.452,3.506 -0.348,6.988 -0.068,10.226l-58.766,27.77c-0.627,0.296 -0.882,0.765 -0.882,1.122l0,73.242c0,0.357 0.255,0.826 0.882,1.122l11.21,5.297c2.718,5.368 6.054,10.355 9.91,14.875Zm77.351,-133.575l16.007,7.564c-0.455,0.278 -0.877,0.607 -1.26,0.983c-2.729,2.683 -4.366,4.718 -5.265,6.128l-9.5,-4.489c0.271,-3.315 0.496,-6.763 0.018,-10.185Zm39.317,18.579l24.318,11.492c3.776,1.784 6.237,5.171 6.237,8.968l0,73.242c0,3.797 -2.464,7.181 -6.237,8.965l-26.145,12.355c3.847,-4.553 7.14,-9.539 9.821,-14.832l11.355,-5.366c0.627,-0.296 0.882,-0.765 0.882,-1.122l0,-73.242c0,-0.357 -0.255,-0.826 -0.882,-1.122l-18.796,-8.882c1.397,-2.619 1.59,-4.534 1.395,-6.058c-0.168,-1.316 -0.64,-2.78 -1.948,-4.397Z" style="fill:#189caa;stroke:#189caa;stroke-width:0.5px;"/><g><path id="path5-3-7" d="M105.017,42.932c-2.006,-1.227 -3.875,-0.292 -5.979,-1.675c-0.37,-3.641 -0.604,-7.71 0.214,-11.741c4.187,-1.032 20.254,-1.11 25.044,-0.136c1.072,3.855 0.604,7.827 0.292,11.565c-1.655,1.889 -3.817,0.721 -5.609,1.694c-1.111,1.149 -0.955,2.531 -0.214,4.011c2.025,1.032 4.265,0.954 6.388,1.402c6.796,1.46 13.32,3.738 19.435,7.087c1.675,0.915 3.369,2.064 4.557,-0.681c0.039,-1.714 -2.162,-2.006 -2.571,-4.206c-0.136,-0.798 1.149,-2.706 4.733,-6.23c1.09,-0.351 1.967,0.156 2.804,0.759c3.271,2.395 6.583,4.732 9.796,7.185c2.629,2.005 2.629,2.551 0.76,5.393c-0.195,0.273 -0.39,0.546 -0.604,0.818c-2.61,3.563 -2.61,3.563 -6.933,1.538c-2.337,1.421 -1.772,2.764 -0.019,4.302c5.258,4.576 9.659,9.891 13.262,15.868c25.122,41.51 -0.273,95.657 -48.239,102.899c-42.124,6.386 -79.632,-26.518 -78.833,-69.119c0.623,-32.379 24.83,-60.494 56.749,-65.867c1.481,-0.253 2.961,-0.565 4.285,-0.817c1.227,-1.343 0.721,-2.687 0.682,-4.05Zm61.793,72.487c0.136,-30.256 -24.168,-55.061 -54.198,-55.315c-30.925,-0.252 -55.99,24.435 -56.009,55.159c-0.019,30.14 24.908,55.082 55.113,55.16c30.264,0.058 54.958,-24.591 55.094,-55.004Z" style="fill:#189caa;fill-rule:nonzero;"/><path id="path6-9-4" d="M61.082,115.049l50.77,0l0,-50.272c20.039,-2.162 48.648,15.284 50.868,46.534c2.162,30.315 -21.656,55.723 -51.705,55.022c-34.412,-0.818 -51.393,-30.724 -49.933,-51.284Z" style="fill:#189caa;fill-rule:nonzero;"/></g></g></svg>