<?xml version="1.0" encoding="UTF-8" standalone="no"?>
<!DOCTYPE svg PUBLIC "-//W3C//DTD SVG 1.1//EN" "http://www.w3.org/Graphics/SVG/1.1/DTD/svg11.dtd">
<svg width="100%" height="100%" viewBox="0 0 224 212" version="1.1" xmlns="http://www.w3.org/2000/svg" xmlns:xlink="http://www.w3.org/1999/xlink" xml:space="preserve" xmlns:serif="http://www.serif.com/" style="fill-rule:evenodd;clip-rule:evenodd;stroke-linejoin:round;stroke-miterlimit:2;">
    <g transform="matrix(1,0,0,1,-1942,-3730)">
        <g id="Virus" transform="matrix(1,0,0,1,-0.50222,0)">
            <rect x="1942.502" y="3730" width="223.502" height="211.507" style="fill:none;"/>
            <g id="Hex" transform="matrix(0.75,0,0,0.75,1941.753331,3723.340217)">
                <path d="M67.43,224.289L38.613,210.672C33.578,208.293 30.301,203.781 30.301,198.719L30.301,101.062C30.301,96 33.578,91.484 38.613,89.105L67.414,75.496L64.497,78.414C63.832,79.079 63.217,79.792 62.655,80.547C62.087,81.311 61.581,82.112 61.132,82.951C60.685,83.789 60.301,84.655 59.982,85.549C59.667,86.434 59.417,87.338 59.233,88.256L59.231,88.265C59.047,89.192 58.933,90.123 58.885,91.068C58.851,91.751 58.854,92.434 58.893,93.116L45.242,99.566C44.406,99.961 44.066,100.586 44.066,101.062L44.066,126.517C43.698,126.923 43.344,127.347 43.009,127.785C42.623,128.285 42.238,128.844 41.886,129.421C41.573,129.925 41.263,130.492 40.977,131.078L40.95,131.133C40.668,131.721 40.415,132.32 40.194,132.932C39.971,133.547 39.778,134.176 39.621,134.81C39.463,135.439 39.336,136.078 39.242,136.721C39.148,137.368 39.086,138.02 39.058,138.673C39.034,139.224 39.035,139.775 39.059,140.328L39.059,159.711C39.059,160.346 39.089,160.976 39.15,161.601L39.157,161.663C39.22,162.27 39.309,162.872 39.428,163.47C39.548,164.074 39.697,164.668 39.872,165.257L39.898,165.341C40.079,165.933 40.29,166.521 40.528,167.094C40.771,167.68 41.043,168.256 41.342,168.814C41.638,169.365 41.956,169.898 42.302,170.417C42.649,170.937 43.023,171.44 43.416,171.923L43.451,171.964C43.65,172.206 43.856,172.443 44.066,172.675L44.066,198.719C44.066,199.195 44.406,199.82 45.242,200.215L58.92,206.679C58.901,207.034 58.891,207.39 58.891,207.747C58.891,208.999 59.012,210.238 59.252,211.467C59.492,212.696 59.852,213.889 60.323,215.048L60.335,215.078C60.81,216.234 61.392,217.334 62.077,218.377L62.094,218.401C62.785,219.445 63.566,220.409 64.445,221.303L64.497,221.355L67.43,224.289ZM99.612,60.281L122.395,49.516C122.219,49.863 122.054,50.216 121.899,50.574C121.64,51.172 121.413,51.779 121.215,52.401L121.19,52.481C121.002,53.092 120.843,53.703 120.714,54.327C120.582,54.968 120.482,55.618 120.415,56.272C120.349,56.924 120.316,57.575 120.316,58.226C120.316,58.883 120.35,59.535 120.416,60.183C120.482,60.836 120.582,61.485 120.714,62.125C120.825,62.661 120.958,63.191 121.112,63.714L109.284,69.303C108.937,68.617 108.549,67.954 108.12,67.312C107.592,66.522 107.007,65.775 106.37,65.075C105.741,64.382 105.067,63.74 104.345,63.145L104.317,63.122C103.59,62.527 102.82,61.985 102.013,61.502C101.241,61.038 100.44,60.633 99.612,60.281ZM177.605,49.516L200.387,60.282C199.561,60.632 198.768,61.034 197.997,61.496C197.194,61.975 196.433,62.512 195.705,63.103L195.654,63.145C194.933,63.74 194.258,64.382 193.63,65.075C192.992,65.775 192.41,66.522 191.882,67.312C191.453,67.954 191.065,68.617 190.716,69.303L178.888,63.714C179.043,63.191 179.174,62.663 179.284,62.128C179.413,61.508 179.51,60.879 179.579,60.246L179.586,60.186C179.652,59.537 179.685,58.884 179.685,58.226C179.685,57.575 179.652,56.924 179.586,56.272L179.579,56.206C179.51,55.572 179.413,54.944 179.284,54.324C179.152,53.68 178.989,53.05 178.79,52.42L178.784,52.401C178.586,51.779 178.36,51.172 178.101,50.574C177.946,50.216 177.78,49.863 177.605,49.516ZM232.591,75.5L261.383,89.105C266.418,91.484 269.699,96 269.699,101.062L269.699,198.719C269.699,203.781 266.414,208.293 261.383,210.672L232.575,224.285L235.504,221.356L235.574,221.285C236.447,220.394 237.228,219.43 237.914,218.389C238.606,217.342 239.188,216.239 239.664,215.078C240.144,213.909 240.505,212.707 240.747,211.467C240.987,210.238 241.109,208.999 241.109,207.747C241.109,207.391 241.099,207.034 241.079,206.679L254.758,200.215C255.594,199.82 255.934,199.195 255.934,198.719L255.934,173.285C256.304,172.877 256.655,172.456 256.99,172.018C257.356,171.544 257.724,171.01 258.067,170.461L258.116,170.382C258.449,169.836 258.759,169.27 259.036,168.697L259.049,168.67C259.331,168.082 259.584,167.483 259.805,166.871L259.813,166.85C260.029,166.247 260.216,165.64 260.373,165.024L260.389,164.96C260.541,164.342 260.665,163.714 260.757,163.082C260.852,162.435 260.913,161.783 260.941,161.13C260.966,160.568 260.966,160.002 260.939,159.438L260.94,140.34C260.966,139.795 260.966,139.234 260.941,138.673C260.913,138.02 260.852,137.368 260.757,136.721C260.665,136.089 260.541,135.461 260.389,134.843L260.373,134.779C260.215,134.156 260.024,133.537 259.805,132.932C259.584,132.32 259.331,131.721 259.049,131.133C258.767,130.545 258.454,129.976 258.116,129.421L258.086,129.372C257.739,128.811 257.367,128.27 256.967,127.752L256.96,127.743C256.633,127.319 256.291,126.91 255.934,126.517L255.934,101.062C255.934,100.586 255.594,99.961 254.758,99.566L241.106,93.115C241.146,92.434 241.148,91.751 241.114,91.068C241.067,90.123 240.952,89.192 240.768,88.265L240.766,88.256C240.582,87.338 240.333,86.434 240.017,85.549C239.699,84.655 239.314,83.789 238.867,82.951C238.421,82.117 237.919,81.321 237.355,80.562C236.793,79.802 236.175,79.084 235.504,78.413L232.591,75.5ZM200.399,239.49L177.599,250.264C177.777,249.913 177.944,249.557 178.101,249.195C178.359,248.597 178.587,247.986 178.784,247.365C178.985,246.735 179.149,246.096 179.283,245.451C179.414,244.839 179.517,244.171 179.586,243.503L179.586,243.496C179.652,242.846 179.685,242.196 179.685,241.54C179.685,240.889 179.652,240.238 179.586,239.587C179.518,238.912 179.414,238.246 179.272,237.581C179.172,237.096 179.044,236.582 178.891,236.066L190.722,230.475C191.068,231.157 191.453,231.815 191.878,232.451C192.4,233.234 192.983,233.979 193.618,234.681C194.258,235.387 194.945,236.041 195.68,236.643C196.407,237.238 197.167,237.773 197.969,238.256L198.024,238.289C198.79,238.744 199.579,239.145 200.399,239.49ZM122.401,250.265L99.6,239.49C100.426,239.142 101.226,238.736 101.996,238.277L102.03,238.256C102.837,237.77 103.605,237.231 104.332,236.632C105.062,236.034 105.745,235.383 106.381,234.681C107.009,233.988 107.585,233.252 108.105,232.478L108.12,232.457C108.546,231.819 108.933,231.159 109.279,230.476L121.109,236.066C120.957,236.583 120.825,237.106 120.716,237.632L120.713,237.645C120.581,238.289 120.482,238.933 120.415,239.587C120.349,240.238 120.314,240.889 120.314,241.54C120.314,242.196 120.349,242.846 120.415,243.496L120.416,243.503C120.482,244.15 120.581,244.796 120.713,245.438L120.716,245.451C120.846,246.075 121.006,246.694 121.196,247.304L121.215,247.365C121.413,247.986 121.64,248.597 121.899,249.195C122.055,249.557 122.222,249.913 122.401,250.265Z" style="fill:rgb(24,156,170);stroke:rgb(24,156,170);stroke-width:0.67px;"/>
            </g>
            <g transform="matrix(0.351786,0,0,0.351786,1285.570974,2433.63878)">
                <g transform="matrix(1.333333,0,0,1.333333,1942.50222,3730.000006)">
                    <path d="M233.703,237.801C234.352,237.801 235,237.766 235.648,237.703C236.293,237.637 236.934,237.539 237.57,237.41C238.207,237.281 238.836,237.125 239.457,236.934C240.078,236.742 240.688,236.523 241.285,236.273C241.883,236.023 242.469,235.746 243.043,235.438C243.613,235.129 244.168,234.793 244.707,234.434C245.246,234.07 245.766,233.684 246.266,233.27C246.77,232.855 247.246,232.422 247.703,231.961C248.164,231.5 248.598,231.02 249.008,230.516C249.418,230.012 249.805,229.492 250.164,228.953C250.523,228.41 250.855,227.855 251.16,227.281C251.465,226.707 251.738,226.121 251.988,225.52C252.234,224.922 252.453,224.309 252.637,223.688C252.824,223.066 252.98,222.438 253.109,221.801C253.234,221.164 253.328,220.523 253.391,219.875C253.453,219.23 253.48,218.582 253.48,217.934C253.48,217.285 253.445,216.637 253.383,215.988C253.316,215.344 253.219,214.703 253.094,214.066C252.965,213.43 252.805,212.801 252.617,212.18C252.426,211.559 252.207,210.949 251.957,210.352C251.711,209.75 251.43,209.164 251.125,208.594C250.816,208.02 250.484,207.465 250.121,206.926C249.762,206.387 249.375,205.867 248.961,205.367C248.547,204.863 248.113,204.383 247.652,203.926C247.191,203.469 246.711,203.031 246.211,202.621C245.707,202.211 245.184,201.824 244.645,201.465C244.105,201.105 243.547,200.773 242.977,200.469C242.402,200.164 241.816,199.887 241.215,199.637C240.617,199.391 240.004,199.172 239.383,198.984C238.762,198.797 238.133,198.641 237.496,198.516C236.859,198.387 236.219,198.293 235.574,198.23C234.926,198.168 234.277,198.137 233.629,198.137C232.98,198.137 232.332,198.172 231.688,198.234C231.039,198.297 230.398,198.395 229.762,198.523C229.125,198.648 228.496,198.809 227.875,198.996C227.254,199.184 226.645,199.402 226.047,199.652C225.445,199.902 224.859,200.18 224.289,200.484C223.715,200.793 223.16,201.125 222.621,201.484C222.082,201.848 221.559,202.234 221.059,202.645C220.559,203.059 220.078,203.492 219.617,203.953C219.16,204.41 218.723,204.891 218.312,205.395C217.902,205.895 217.516,206.418 217.152,206.957C216.793,207.496 216.461,208.055 216.156,208.625C215.848,209.199 215.57,209.785 215.324,210.383C215.074,210.984 214.855,211.594 214.668,212.215C214.48,212.836 214.324,213.465 214.195,214.102C214.07,214.738 213.977,215.383 213.91,216.027C213.848,216.672 213.816,217.32 213.816,217.969C213.816,218.621 213.848,219.27 213.91,219.918C213.977,220.566 214.07,221.207 214.199,221.844C214.324,222.484 214.484,223.113 214.672,223.738C214.863,224.359 215.082,224.973 215.332,225.57C215.582,226.172 215.859,226.762 216.164,227.336C216.473,227.906 216.809,228.465 217.168,229.004C217.531,229.547 217.918,230.066 218.332,230.57C218.746,231.074 219.184,231.555 219.645,232.012C220.105,232.473 220.586,232.91 221.09,233.32C221.594,233.734 222.117,234.117 222.66,234.48C223.199,234.84 223.758,235.172 224.332,235.48C224.906,235.785 225.496,236.062 226.098,236.309C226.699,236.555 227.312,236.773 227.934,236.961C228.559,237.148 229.188,237.305 229.828,237.43C230.465,237.555 231.109,237.648 231.758,237.711C232.406,237.773 233.055,237.805 233.703,237.801Z" style="fill:rgb(24,156,170);fill-rule:nonzero;"/>
                </g>
                <g transform="matrix(1.333333,0,0,1.333333,1942.50222,3730.000006)">
                    <path d="M223.172,149.059C223.508,149.059 223.84,149.027 224.168,148.961C224.496,148.898 224.812,148.801 225.121,148.672C225.434,148.543 225.727,148.387 226.004,148.199C226.281,148.016 226.539,147.805 226.777,147.566C227.012,147.332 227.227,147.074 227.41,146.793C227.598,146.516 227.754,146.223 227.883,145.914C228.012,145.605 228.105,145.285 228.172,144.957C228.238,144.629 228.27,144.297 228.27,143.961C228.27,143.629 228.238,143.297 228.172,142.969C228.105,142.641 228.012,142.32 227.883,142.012C227.754,141.703 227.598,141.406 227.41,141.129C227.227,140.852 227.012,140.594 226.777,140.355C226.539,140.121 226.281,139.91 226.004,139.723C225.727,139.535 225.434,139.379 225.121,139.25C224.812,139.125 224.496,139.027 224.168,138.961C223.84,138.895 223.508,138.863 223.172,138.863C222.836,138.863 222.504,138.895 222.176,138.961C221.848,139.027 221.531,139.125 221.223,139.25C220.91,139.379 220.617,139.535 220.34,139.723C220.062,139.91 219.805,140.121 219.566,140.355C219.328,140.594 219.117,140.852 218.934,141.129C218.746,141.406 218.59,141.703 218.461,142.012C218.332,142.32 218.238,142.641 218.172,142.969C218.105,143.297 218.074,143.629 218.074,143.961C218.074,144.297 218.105,144.629 218.172,144.957C218.238,145.285 218.332,145.605 218.461,145.914C218.59,146.223 218.746,146.516 218.934,146.793C219.117,147.074 219.328,147.332 219.566,147.566C219.805,147.805 220.062,148.016 220.34,148.199C220.617,148.387 220.91,148.543 221.223,148.672C221.531,148.801 221.848,148.898 222.176,148.961C222.504,149.027 222.836,149.059 223.172,149.059Z" style="fill:rgb(24,156,170);fill-rule:nonzero;"/>
                </g>
                <g transform="matrix(1.333333,0,0,1.333333,1942.50222,3730.000006)">
                    <path d="M192.133,268.559C192.387,268.238 192.609,267.898 192.797,267.535C192.98,267.172 193.133,266.793 193.242,266.398C193.355,266.008 193.43,265.605 193.461,265.199C193.496,264.793 193.488,264.387 193.441,263.98C193.395,263.574 193.309,263.176 193.184,262.789C193.059,262.398 192.895,262.027 192.699,261.668C192.5,261.312 192.266,260.98 192.004,260.668C191.738,260.355 191.445,260.074 191.125,259.82C190.078,258.977 188.883,258.527 187.539,258.477L186.812,258.477C185.996,258.562 185.227,258.805 184.508,259.203C183.789,259.602 183.176,260.125 182.668,260.773C182.145,261.414 181.77,262.137 181.547,262.934C181.32,263.734 181.266,264.543 181.379,265.367C181.465,266.191 181.707,266.969 182.105,267.695C182.504,268.426 183.027,269.051 183.676,269.566C183.992,269.797 184.328,269.996 184.68,270.164C185.035,270.332 185.402,270.465 185.781,270.562C186.16,270.66 186.543,270.723 186.934,270.75C187.324,270.777 187.715,270.766 188.102,270.719C188.492,270.672 188.871,270.59 189.246,270.473C189.617,270.355 189.977,270.203 190.32,270.02C190.668,269.836 190.992,269.621 191.297,269.375C191.602,269.129 191.879,268.855 192.133,268.559Z" style="fill:rgb(24,156,170);fill-rule:nonzero;"/>
                </g>
                <g transform="matrix(1.333333,0,0,1.333333,1942.50222,3730.000006)">
                    <path d="M164.457,174.215C164.457,175.129 164.414,176.043 164.324,176.953C164.234,177.867 164.102,178.77 163.922,179.668C163.742,180.566 163.52,181.453 163.254,182.328C162.988,183.207 162.68,184.066 162.332,184.914C161.98,185.758 161.59,186.586 161.156,187.395C160.727,188.199 160.254,188.984 159.746,189.746C159.238,190.508 158.695,191.242 158.113,191.949C157.531,192.656 156.918,193.336 156.27,193.984C155.621,194.629 154.945,195.246 154.238,195.824C153.531,196.406 152.797,196.949 152.035,197.461C151.273,197.969 150.488,198.438 149.68,198.871C148.875,199.301 148.047,199.691 147.199,200.043C146.355,200.395 145.492,200.703 144.617,200.969C143.742,201.234 142.855,201.457 141.957,201.633C141.059,201.812 140.152,201.945 139.242,202.035C138.332,202.125 137.418,202.172 136.504,202.172C135.586,202.172 134.672,202.125 133.762,202.035C132.852,201.945 131.945,201.812 131.047,201.633C130.152,201.457 129.262,201.234 128.387,200.969C127.512,200.703 126.648,200.395 125.805,200.043C124.957,199.691 124.133,199.301 123.324,198.871C122.516,198.438 121.73,197.969 120.973,197.461C120.211,196.949 119.477,196.406 118.766,195.824C118.059,195.246 117.383,194.629 116.734,193.984C116.086,193.336 115.473,192.656 114.891,191.949C114.312,191.242 113.766,190.508 113.258,189.746C112.75,188.984 112.277,188.199 111.848,187.395C111.414,186.586 111.023,185.758 110.676,184.914C110.324,184.066 110.016,183.207 109.75,182.328C109.484,181.453 109.262,180.566 109.082,179.668C108.906,178.77 108.77,177.867 108.68,176.953C108.59,176.043 108.547,175.129 108.547,174.215C108.547,173.301 108.59,172.387 108.68,171.477C108.77,170.562 108.906,169.66 109.082,168.762C109.262,167.863 109.484,166.977 109.75,166.102C110.016,165.223 110.324,164.363 110.676,163.516C111.023,162.672 111.414,161.844 111.848,161.035C112.277,160.23 112.75,159.445 113.258,158.684C113.766,157.922 114.312,157.188 114.891,156.48C115.473,155.773 116.086,155.094 116.734,154.445C117.383,153.801 118.059,153.184 118.766,152.605C119.477,152.023 120.211,151.48 120.973,150.969C121.73,150.461 122.516,149.992 123.324,149.559C124.133,149.129 124.957,148.738 125.805,148.387C126.648,148.035 127.512,147.727 128.387,147.461C129.262,147.195 130.152,146.977 131.047,146.797C131.945,146.617 132.852,146.484 133.762,146.395C134.672,146.305 135.586,146.258 136.504,146.258C137.418,146.258 138.332,146.305 139.242,146.395C140.152,146.484 141.059,146.617 141.957,146.797C142.855,146.977 143.742,147.195 144.617,147.461C145.492,147.727 146.355,148.035 147.199,148.387C148.047,148.738 148.875,149.129 149.68,149.559C150.488,149.992 151.273,150.461 152.035,150.969C152.797,151.48 153.531,152.023 154.238,152.605C154.945,153.184 155.621,153.801 156.27,154.445C156.918,155.094 157.531,155.773 158.113,156.48C158.695,157.188 159.238,157.922 159.746,158.684C160.254,159.445 160.727,160.23 161.156,161.035C161.59,161.844 161.98,162.672 162.332,163.516C162.68,164.363 162.988,165.223 163.254,166.102C163.52,166.977 163.742,167.863 163.922,168.762C164.102,169.66 164.234,170.562 164.324,171.477C164.414,172.387 164.457,173.301 164.457,174.215Z" style="fill:rgb(24,156,170);fill-rule:nonzero;"/>
                </g>
                <g transform="matrix(1.333333,0,0,1.333333,1942.50222,3730.000006)">
                    <path d="M35.379,223.402C36.422,223.398 37.453,223.297 38.477,223.09C39.496,222.883 40.488,222.578 41.449,222.176C42.414,221.777 43.328,221.285 44.191,220.703C45.059,220.121 45.859,219.461 46.594,218.723C47.328,217.984 47.984,217.184 48.562,216.316C49.141,215.449 49.629,214.531 50.027,213.57C50.426,212.605 50.727,211.613 50.93,210.59C51.133,209.566 51.234,208.535 51.234,207.492L51.234,206.371L73.645,206.371C74.266,211.035 75.191,215.637 76.414,220.18C77.637,224.723 79.148,229.168 80.949,233.512C82.75,237.855 84.824,242.066 87.176,246.141C89.527,250.219 92.129,254.121 94.988,257.859L78.965,273.883L78.18,273.098C77.43,272.395 76.617,271.766 75.746,271.215C74.871,270.664 73.957,270.203 73,269.824C72.039,269.445 71.055,269.16 70.043,268.969C69.027,268.773 68.008,268.68 66.977,268.68C65.945,268.68 64.926,268.773 63.91,268.969C62.898,269.16 61.914,269.445 60.953,269.824C59.996,270.203 59.082,270.664 58.207,271.215C57.336,271.766 56.523,272.395 55.773,273.098C55.043,273.836 54.395,274.641 53.82,275.508C53.25,276.375 52.766,277.285 52.371,278.246C51.98,279.207 51.68,280.199 51.48,281.215C51.281,282.234 51.18,283.266 51.18,284.301C51.18,285.34 51.281,286.367 51.48,287.387C51.68,288.406 51.98,289.395 52.371,290.355C52.766,291.316 53.25,292.23 53.82,293.098C54.395,293.965 55.043,294.766 55.773,295.508L78.18,317.918C78.734,318.469 79.32,318.977 79.949,319.438C80.574,319.902 81.23,320.316 81.918,320.684C82.605,321.051 83.316,321.367 84.051,321.629C84.781,321.891 85.531,322.098 86.297,322.25C87.062,322.402 87.832,322.496 88.609,322.535C89.391,322.574 90.164,322.555 90.941,322.477C91.715,322.402 92.48,322.27 93.238,322.078C93.992,321.891 94.73,321.645 95.453,321.348C96.172,321.051 96.867,320.699 97.535,320.301C98.203,319.898 98.84,319.453 99.441,318.957C100.043,318.465 100.605,317.93 101.129,317.352C101.652,316.773 102.133,316.16 102.566,315.516C103,314.867 103.383,314.191 103.715,313.484C104.047,312.781 104.328,312.059 104.555,311.312C104.781,310.566 104.953,309.809 105.066,309.035C105.184,308.266 105.242,307.492 105.242,306.711C105.258,304.613 104.867,302.59 104.07,300.648C103.273,298.707 102.133,296.992 100.648,295.508L99.863,294.723L115.887,278.699C119.621,281.559 123.527,284.164 127.602,286.512C131.676,288.863 135.887,290.938 140.234,292.738C144.578,294.543 149.023,296.055 153.562,297.277C158.105,298.5 162.711,299.422 167.371,300.047L167.371,322.453L166.25,322.453C165.711,322.422 165.172,322.418 164.633,322.441C164.09,322.465 163.555,322.516 163.02,322.594C162.484,322.672 161.953,322.773 161.43,322.906C160.902,323.039 160.387,323.195 159.879,323.383C159.371,323.566 158.871,323.777 158.387,324.012C157.898,324.246 157.426,324.504 156.965,324.789C156.504,325.074 156.059,325.379 155.629,325.707C155.199,326.035 154.789,326.387 154.395,326.758C154,327.129 153.629,327.52 153.273,327.926C152.922,328.336 152.59,328.762 152.277,329.207C151.969,329.648 151.68,330.105 151.418,330.578C151.152,331.051 150.914,331.535 150.699,332.031C150.484,332.527 150.297,333.035 150.133,333.551C149.973,334.066 149.836,334.59 149.727,335.117C149.617,335.648 149.535,336.18 149.48,336.719C149.426,337.258 149.395,337.797 149.395,338.336C149.395,338.879 149.426,339.418 149.48,339.957C149.535,340.492 149.617,341.027 149.727,341.559C149.836,342.086 149.973,342.609 150.133,343.125C150.297,343.641 150.484,344.148 150.699,344.645C150.914,345.141 151.152,345.625 151.418,346.098C151.68,346.57 151.969,347.027 152.277,347.469C152.59,347.914 152.922,348.34 153.273,348.746C153.629,349.156 154,349.547 154.395,349.918C154.789,350.289 155.199,350.637 155.629,350.969C156.059,351.297 156.504,351.602 156.965,351.887C157.426,352.168 157.898,352.43 158.387,352.664C158.871,352.898 159.371,353.109 159.879,353.293C160.387,353.477 160.902,353.637 161.43,353.77C161.953,353.898 162.484,354.004 163.02,354.082C163.555,354.16 164.09,354.211 164.633,354.234C165.172,354.258 165.711,354.254 166.25,354.219L197.625,354.219C198.164,354.254 198.703,354.258 199.246,354.234C199.785,354.211 200.324,354.16 200.859,354.082C201.395,354.004 201.922,353.898 202.449,353.77C202.973,353.637 203.488,353.477 203.996,353.293C204.504,353.109 205.004,352.898 205.488,352.664C205.977,352.43 206.449,352.168 206.91,351.887C207.371,351.602 207.816,351.297 208.246,350.969C208.676,350.637 209.086,350.289 209.48,349.918C209.875,349.547 210.246,349.156 210.602,348.746C210.957,348.34 211.289,347.914 211.598,347.469C211.91,347.027 212.195,346.57 212.461,346.098C212.723,345.625 212.961,345.141 213.176,344.645C213.391,344.148 213.578,343.641 213.742,343.125C213.906,342.609 214.039,342.086 214.148,341.559C214.262,341.027 214.344,340.492 214.398,339.957C214.453,339.418 214.48,338.879 214.48,338.336C214.48,337.797 214.453,337.258 214.398,336.719C214.344,336.18 214.262,335.648 214.148,335.117C214.039,334.59 213.906,334.066 213.742,333.551C213.578,333.035 213.391,332.527 213.176,332.031C212.961,331.535 212.723,331.051 212.461,330.578C212.195,330.105 211.91,329.648 211.598,329.207C211.289,328.762 210.957,328.336 210.602,327.926C210.246,327.52 209.875,327.129 209.48,326.758C209.086,326.387 208.676,326.035 208.246,325.707C207.816,325.379 207.371,325.074 206.91,324.789C206.449,324.504 205.977,324.246 205.488,324.012C205.004,323.777 204.504,323.566 203.996,323.383C203.488,323.195 202.973,323.039 202.449,322.906C201.922,322.773 201.395,322.672 200.859,322.594C200.324,322.516 199.785,322.465 199.246,322.441C198.703,322.418 198.164,322.422 197.625,322.453L196.504,322.453L196.504,300.047C201.168,299.422 205.77,298.5 210.312,297.277C214.855,296.055 219.297,294.543 223.645,292.738C227.988,290.938 232.199,288.863 236.273,286.512C240.348,284.164 244.254,281.559 247.992,278.699L264.012,294.723L263.23,295.508C261.746,296.992 260.605,298.707 259.809,300.648C259.012,302.59 258.621,304.613 258.637,306.711C258.637,307.492 258.691,308.266 258.809,309.035C258.922,309.809 259.094,310.566 259.32,311.312C259.547,312.059 259.828,312.781 260.16,313.484C260.496,314.191 260.879,314.867 261.312,315.516C261.742,316.16 262.223,316.773 262.746,317.352C263.27,317.93 263.832,318.465 264.434,318.957C265.039,319.453 265.672,319.898 266.34,320.301C267.012,320.699 267.703,321.051 268.426,321.348C269.145,321.645 269.883,321.891 270.637,322.078C271.395,322.27 272.16,322.402 272.934,322.477C273.711,322.555 274.488,322.574 275.266,322.535C276.043,322.496 276.816,322.402 277.578,322.25C278.344,322.098 279.094,321.891 279.828,321.629C280.559,321.367 281.27,321.051 281.957,320.684C282.645,320.316 283.301,319.902 283.93,319.438C284.555,318.977 285.145,318.469 285.695,317.918L308.105,295.508C308.832,294.766 309.484,293.965 310.055,293.098C310.629,292.23 311.109,291.316 311.504,290.355C311.898,289.395 312.195,288.406 312.395,287.387C312.594,286.367 312.695,285.34 312.695,284.301C312.695,283.266 312.594,282.234 312.395,281.215C312.195,280.199 311.898,279.207 311.504,278.246C311.109,277.285 310.629,276.375 310.055,275.508C309.484,274.641 308.832,273.836 308.105,273.098C307.352,272.395 306.539,271.766 305.668,271.215C304.797,270.664 303.879,270.203 302.922,269.824C301.961,269.445 300.977,269.16 299.965,268.969C298.953,268.773 297.93,268.68 296.898,268.68C295.867,268.68 294.848,268.773 293.836,268.969C292.82,269.16 291.836,269.445 290.879,269.824C289.918,270.203 289.004,270.664 288.133,271.215C287.262,271.766 286.449,272.395 285.695,273.098L284.91,273.883L268.887,257.859C271.746,254.121 274.352,250.219 276.699,246.141C279.051,242.066 281.125,237.855 282.926,233.512C284.73,229.168 286.242,224.723 287.465,220.18C288.688,215.637 289.609,211.035 290.234,206.371L312.641,206.371L312.641,207.492C312.609,208.031 312.605,208.574 312.629,209.113C312.652,209.652 312.703,210.191 312.781,210.727C312.859,211.262 312.961,211.793 313.094,212.316C313.227,212.84 313.383,213.355 313.57,213.867C313.754,214.375 313.965,214.871 314.199,215.359C314.434,215.844 314.695,216.32 314.977,216.781C315.262,217.238 315.566,217.684 315.895,218.113C316.227,218.543 316.574,218.953 316.945,219.348C317.316,219.742 317.707,220.117 318.117,220.469C318.523,220.824 318.949,221.156 319.395,221.465C319.836,221.777 320.293,222.062 320.766,222.328C321.238,222.59 321.723,222.828 322.219,223.043C322.715,223.258 323.223,223.449 323.738,223.609C324.254,223.773 324.777,223.91 325.305,224.02C325.836,224.129 326.367,224.211 326.906,224.266C327.445,224.32 327.984,224.348 328.523,224.348C329.066,224.348 329.605,224.32 330.145,224.266C330.68,224.211 331.215,224.129 331.746,224.02C332.273,223.91 332.797,223.773 333.312,223.609C333.828,223.449 334.336,223.258 334.832,223.043C335.328,222.828 335.812,222.59 336.285,222.328C336.758,222.062 337.215,221.777 337.656,221.465C338.102,221.156 338.527,220.824 338.934,220.469C339.344,220.117 339.734,219.742 340.105,219.348C340.477,218.953 340.824,218.543 341.152,218.113C341.484,217.684 341.789,217.238 342.074,216.781C342.355,216.32 342.617,215.844 342.852,215.359C343.086,214.871 343.297,214.375 343.48,213.867C343.664,213.355 343.824,212.84 343.957,212.316C344.086,211.793 344.191,211.262 344.27,210.727C344.348,210.191 344.398,209.652 344.422,209.113C344.445,208.574 344.441,208.031 344.406,207.492L344.406,176.121C344.441,175.578 344.445,175.039 344.422,174.5C344.398,173.961 344.348,173.422 344.27,172.887C344.191,172.352 344.086,171.82 343.957,171.297C343.824,170.773 343.664,170.254 343.48,169.746C343.297,169.238 343.086,168.742 342.852,168.254C342.617,167.766 342.355,167.293 342.074,166.832C341.789,166.371 341.484,165.926 341.156,165.5C340.824,165.07 340.477,164.656 340.105,164.266C339.734,163.871 339.344,163.496 338.934,163.145C338.527,162.789 338.102,162.457 337.656,162.148C337.215,161.836 336.758,161.551 336.285,161.285C335.812,161.023 335.328,160.781 334.832,160.566C334.336,160.355 333.828,160.164 333.312,160.004C332.797,159.84 332.273,159.703 331.746,159.594C331.215,159.484 330.68,159.402 330.145,159.348C329.605,159.293 329.066,159.266 328.523,159.266C327.984,159.266 327.445,159.293 326.906,159.348C326.367,159.402 325.836,159.484 325.305,159.594C324.777,159.703 324.254,159.84 323.738,160.004C323.223,160.164 322.715,160.355 322.219,160.566C321.723,160.781 321.238,161.023 320.766,161.285C320.293,161.551 319.836,161.836 319.395,162.148C318.949,162.457 318.523,162.789 318.117,163.145C317.707,163.496 317.316,163.871 316.945,164.266C316.574,164.656 316.227,165.07 315.895,165.5C315.566,165.926 315.262,166.371 314.977,166.832C314.695,167.293 314.434,167.766 314.199,168.254C313.965,168.742 313.754,169.238 313.57,169.746C313.383,170.254 313.227,170.773 313.094,171.297C312.961,171.82 312.859,172.352 312.781,172.887C312.703,173.422 312.652,173.961 312.629,174.5C312.605,175.039 312.609,175.578 312.641,176.121L312.641,177.238L290.234,177.238C289.609,172.578 288.688,167.977 287.465,163.434C286.242,158.891 284.73,154.445 282.926,150.102C281.125,145.754 279.051,141.547 276.699,137.469C274.352,133.395 271.746,129.488 268.887,125.754L284.91,109.73L285.695,110.516C287.18,112 288.895,113.141 290.836,113.938C292.777,114.734 294.801,115.125 296.898,115.109C297.68,115.109 298.453,115.051 299.223,114.938C299.996,114.82 300.754,114.652 301.5,114.426C302.246,114.195 302.969,113.918 303.672,113.582C304.379,113.25 305.055,112.867 305.703,112.434C306.348,112 306.961,111.523 307.539,111C308.117,110.477 308.652,109.91 309.145,109.309C309.641,108.707 310.086,108.07 310.488,107.402C310.887,106.734 311.238,106.039 311.535,105.32C311.832,104.602 312.078,103.863 312.266,103.105C312.457,102.352 312.59,101.586 312.664,100.809C312.742,100.035 312.762,99.258 312.723,98.48C312.684,97.699 312.59,96.93 312.438,96.164C312.285,95.402 312.078,94.652 311.816,93.918C311.555,93.184 311.238,92.473 310.871,91.785C310.504,91.098 310.09,90.441 309.625,89.816C309.164,89.191 308.656,88.602 308.105,88.051L285.695,65.641C285.145,65.09 284.555,64.582 283.93,64.117C283.301,63.656 282.645,63.238 281.957,62.871C281.27,62.504 280.559,62.191 279.828,61.93C279.094,61.664 278.344,61.457 277.578,61.305C276.816,61.156 276.043,61.059 275.266,61.023C274.488,60.984 273.711,61.004 272.934,61.078C272.16,61.156 271.395,61.289 270.637,61.477C269.883,61.668 269.145,61.91 268.426,62.207C267.703,62.508 267.012,62.855 266.34,63.258C265.672,63.656 265.039,64.105 264.434,64.598C263.832,65.094 263.27,65.629 262.746,66.207C262.223,66.781 261.746,67.395 261.312,68.043C260.879,68.691 260.496,69.367 260.16,70.07C259.828,70.773 259.547,71.5 259.32,72.246C259.094,72.992 258.922,73.75 258.809,74.52C258.691,75.289 258.637,76.066 258.637,76.844C258.621,78.945 259.012,80.965 259.809,82.91C260.605,84.852 261.746,86.566 263.23,88.051L264.012,88.836L247.992,104.855C244.254,102 240.348,99.395 236.273,97.043C232.199,94.695 227.988,92.617 223.645,90.816C219.297,89.016 214.855,87.504 210.312,86.281C205.77,85.059 201.168,84.137 196.504,83.512L196.504,61.102L197.625,61.102C198.164,61.133 198.703,61.141 199.246,61.117C199.785,61.094 200.324,61.043 200.859,60.965C201.395,60.887 201.922,60.781 202.449,60.648C202.973,60.52 203.488,60.359 203.996,60.176C204.504,59.992 205.004,59.781 205.488,59.547C205.977,59.309 206.449,59.051 206.91,58.766C207.371,58.484 207.816,58.176 208.246,57.848C208.676,57.52 209.086,57.168 209.48,56.801C209.875,56.43 210.246,56.039 210.602,55.629C210.957,55.219 211.289,54.793 211.598,54.352C211.91,53.91 212.195,53.449 212.461,52.98C212.723,52.508 212.961,52.023 213.176,51.527C213.391,51.027 213.578,50.523 213.742,50.008C213.906,49.492 214.039,48.969 214.148,48.438C214.258,47.91 214.34,47.375 214.398,46.836C214.453,46.301 214.48,45.762 214.48,45.219C214.48,44.68 214.453,44.141 214.398,43.602C214.34,43.062 214.258,42.527 214.148,42C214.039,41.469 213.906,40.949 213.742,40.43C213.578,39.914 213.391,39.41 213.176,38.914C212.961,38.418 212.723,37.934 212.461,37.461C212.195,36.988 211.91,36.531 211.598,36.086C211.289,35.645 210.957,35.219 210.602,34.809C210.246,34.402 209.875,34.012 209.48,33.641C209.086,33.27 208.676,32.918 208.246,32.59C207.816,32.262 207.371,31.953 206.91,31.672C206.449,31.387 205.977,31.129 205.488,30.895C205.004,30.656 204.504,30.449 203.996,30.262C203.488,30.078 202.973,29.922 202.449,29.789C201.922,29.656 201.395,29.551 200.859,29.473C200.324,29.395 199.785,29.348 199.246,29.324C198.703,29.301 198.164,29.305 197.625,29.336L166.25,29.336C165.711,29.305 165.172,29.301 164.633,29.324C164.09,29.348 163.555,29.395 163.02,29.473C162.484,29.551 161.953,29.656 161.43,29.789C160.902,29.922 160.387,30.078 159.879,30.262C159.371,30.449 158.871,30.656 158.387,30.895C157.898,31.129 157.426,31.387 156.965,31.672C156.504,31.953 156.059,32.262 155.629,32.59C155.199,32.918 154.789,33.27 154.395,33.641C154.004,34.012 153.629,34.402 153.273,34.809C152.922,35.219 152.59,35.645 152.277,36.086C151.969,36.531 151.68,36.988 151.418,37.461C151.152,37.934 150.914,38.418 150.699,38.914C150.484,39.41 150.297,39.914 150.133,40.43C149.973,40.949 149.836,41.469 149.727,42C149.617,42.527 149.535,43.062 149.48,43.602C149.426,44.141 149.398,44.68 149.398,45.219C149.398,45.762 149.426,46.301 149.48,46.836C149.535,47.375 149.617,47.91 149.727,48.438C149.836,48.969 149.973,49.492 150.133,50.008C150.297,50.523 150.484,51.027 150.699,51.527C150.914,52.023 151.152,52.508 151.418,52.98C151.68,53.449 151.969,53.91 152.277,54.352C152.59,54.793 152.922,55.219 153.273,55.629C153.629,56.039 154.004,56.43 154.395,56.801C154.789,57.168 155.199,57.52 155.629,57.848C156.059,58.176 156.504,58.484 156.965,58.766C157.426,59.051 157.898,59.309 158.387,59.547C158.871,59.781 159.371,59.992 159.879,60.176C160.387,60.359 160.902,60.52 161.43,60.648C161.953,60.781 162.484,60.887 163.02,60.965C163.555,61.043 164.09,61.094 164.633,61.117C165.172,61.141 165.711,61.133 166.25,61.102L167.371,61.102L167.371,83.512C162.711,84.137 158.105,85.059 153.562,86.281C149.023,87.504 144.578,89.016 140.234,90.816C135.887,92.617 131.676,94.695 127.602,97.043C123.527,99.395 119.621,102 115.887,104.855L99.863,88.836L100.648,88.051C102.133,86.566 103.273,84.852 104.07,82.91C104.867,80.965 105.258,78.945 105.242,76.844C105.242,76.066 105.184,75.289 105.066,74.52C104.953,73.75 104.781,72.992 104.555,72.246C104.328,71.5 104.047,70.773 103.715,70.07C103.383,69.367 103,68.691 102.566,68.043C102.133,67.395 101.652,66.781 101.129,66.207C100.605,65.629 100.043,65.094 99.441,64.598C98.84,64.105 98.203,63.656 97.535,63.258C96.867,62.855 96.172,62.508 95.453,62.207C94.73,61.91 93.992,61.668 93.238,61.477C92.48,61.289 91.715,61.156 90.941,61.078C90.164,61.004 89.391,60.984 88.609,61.023C87.832,61.059 87.062,61.156 86.297,61.305C85.531,61.457 84.781,61.664 84.051,61.93C83.316,62.191 82.605,62.504 81.918,62.871C81.23,63.238 80.574,63.656 79.949,64.117C79.32,64.582 78.734,65.09 78.18,65.641L55.773,88.051C55.223,88.602 54.715,89.191 54.25,89.816C53.785,90.441 53.371,91.098 53.004,91.785C52.637,92.473 52.32,93.184 52.059,93.918C51.797,94.652 51.59,95.402 51.438,96.164C51.285,96.93 51.191,97.699 51.152,98.48C51.113,99.258 51.133,100.035 51.211,100.809C51.285,101.586 51.422,102.352 51.609,103.105C51.797,103.863 52.043,104.602 52.34,105.32C52.637,106.039 52.988,106.734 53.387,107.402C53.789,108.07 54.234,108.707 54.73,109.309C55.223,109.91 55.762,110.477 56.336,111C56.914,111.523 57.527,112 58.176,112.434C58.824,112.867 59.5,113.25 60.203,113.582C60.906,113.918 61.633,114.195 62.379,114.426C63.121,114.652 63.883,114.82 64.652,114.938C65.422,115.051 66.199,115.109 66.977,115.109C69.078,115.125 71.098,114.734 73.039,113.938C74.984,113.141 76.695,112 78.18,110.516L78.965,109.73L94.988,125.754C92.129,129.488 89.527,133.395 87.176,137.469C84.824,141.547 82.75,145.754 80.949,150.102C79.148,154.445 77.637,158.891 76.414,163.434C75.191,167.977 74.266,172.578 73.645,177.238L51.234,177.238L51.234,176.121C51.266,175.578 51.27,175.039 51.246,174.5C51.223,173.961 51.176,173.422 51.098,172.887C51.02,172.352 50.914,171.82 50.781,171.297C50.648,170.773 50.492,170.254 50.309,169.746C50.121,169.238 49.914,168.742 49.676,168.254C49.441,167.766 49.184,167.293 48.898,166.832C48.617,166.371 48.309,165.926 47.98,165.5C47.652,165.07 47.301,164.656 46.93,164.266C46.559,163.871 46.168,163.496 45.762,163.145C45.352,162.789 44.926,162.457 44.484,162.148C44.039,161.836 43.582,161.551 43.109,161.285C42.637,161.023 42.152,160.781 41.656,160.566C41.16,160.355 40.656,160.164 40.141,160.004C39.621,159.84 39.102,159.703 38.57,159.594C38.043,159.484 37.508,159.402 36.969,159.348C36.43,159.293 35.891,159.266 35.352,159.266C34.809,159.266 34.27,159.293 33.734,159.348C33.195,159.402 32.66,159.484 32.133,159.594C31.602,159.703 31.078,159.84 30.562,160.004C30.047,160.164 29.543,160.355 29.043,160.566C28.547,160.781 28.062,161.023 27.59,161.285C27.121,161.551 26.66,161.836 26.219,162.148C25.777,162.457 25.352,162.789 24.941,163.145C24.531,163.496 24.141,163.871 23.77,164.266C23.402,164.656 23.051,165.07 22.723,165.5C22.395,165.926 22.086,166.371 21.805,166.832C21.52,167.293 21.262,167.766 21.023,168.254C20.789,168.742 20.578,169.238 20.395,169.746C20.211,170.254 20.051,170.773 19.922,171.297C19.789,171.82 19.684,172.352 19.605,172.887C19.527,173.422 19.477,173.961 19.453,174.5C19.43,175.039 19.438,175.578 19.469,176.121L19.469,207.492C19.469,208.016 19.492,208.535 19.543,209.051C19.598,209.57 19.672,210.086 19.773,210.598C19.875,211.109 20.004,211.613 20.152,212.113C20.305,212.609 20.48,213.102 20.68,213.582C20.879,214.062 21.102,214.535 21.348,214.992C21.594,215.453 21.859,215.898 22.148,216.332C22.438,216.766 22.75,217.184 23.078,217.586C23.41,217.988 23.762,218.375 24.129,218.742C24.496,219.113 24.883,219.461 25.285,219.793C25.688,220.121 26.105,220.434 26.539,220.723C26.973,221.012 27.418,221.281 27.879,221.523C28.34,221.77 28.809,221.992 29.289,222.191C29.773,222.391 30.262,222.566 30.762,222.719C31.258,222.871 31.766,222.996 32.273,223.098C32.785,223.199 33.301,223.277 33.82,223.328C34.34,223.379 34.859,223.402 35.379,223.402ZM223.172,128.164C223.695,128.164 224.215,128.188 224.738,128.238C225.258,128.293 225.773,128.367 226.285,128.469C226.801,128.57 227.305,128.699 227.809,128.852C228.309,129.004 228.801,129.18 229.281,129.379C229.766,129.578 230.238,129.801 230.699,130.047C231.16,130.293 231.609,130.562 232.043,130.855C232.477,131.145 232.898,131.457 233.301,131.789C233.707,132.117 234.094,132.469 234.461,132.84C234.832,133.211 235.184,133.598 235.516,134C235.848,134.406 236.156,134.824 236.449,135.258C236.738,135.695 237.008,136.141 237.254,136.602C237.5,137.062 237.723,137.535 237.922,138.02C238.125,138.504 238.301,138.996 238.449,139.496C238.602,139.996 238.73,140.504 238.832,141.016C238.934,141.527 239.012,142.043 239.062,142.566C239.113,143.086 239.137,143.605 239.137,144.129C239.137,144.652 239.113,145.176 239.062,145.695C239.012,146.215 238.934,146.73 238.832,147.246C238.73,147.758 238.602,148.266 238.449,148.766C238.301,149.266 238.125,149.758 237.922,150.238C237.723,150.723 237.5,151.195 237.254,151.656C237.008,152.117 236.738,152.566 236.449,153C236.156,153.434 235.848,153.855 235.516,154.258C235.184,154.664 234.832,155.051 234.461,155.422C234.094,155.789 233.707,156.141 233.301,156.473C232.898,156.805 232.477,157.117 232.043,157.406C231.609,157.695 231.16,157.965 230.699,158.211C230.238,158.457 229.766,158.68 229.281,158.883C228.801,159.082 228.309,159.258 227.809,159.41C227.305,159.562 226.801,159.688 226.285,159.789C225.773,159.891 225.258,159.969 224.738,160.02C224.215,160.07 223.695,160.098 223.172,160.098C222.648,160.098 222.129,160.07 221.605,160.02C221.086,159.969 220.57,159.891 220.059,159.789C219.543,159.688 219.039,159.562 218.535,159.41C218.035,159.258 217.543,159.082 217.062,158.883C216.578,158.68 216.105,158.457 215.645,158.211C215.184,157.965 214.734,157.695 214.301,157.406C213.867,157.117 213.445,156.805 213.043,156.473C212.637,156.141 212.25,155.789 211.883,155.422C211.512,155.051 211.16,154.664 210.828,154.258C210.496,153.855 210.188,153.434 209.895,153C209.605,152.566 209.336,152.117 209.09,151.656C208.844,151.195 208.621,150.723 208.422,150.238C208.219,149.758 208.043,149.266 207.891,148.766C207.742,148.266 207.613,147.758 207.512,147.246C207.41,146.73 207.332,146.215 207.281,145.695C207.23,145.176 207.203,144.652 207.203,144.129C207.199,143.602 207.219,143.078 207.266,142.555C207.312,142.027 207.387,141.508 207.484,140.992C207.582,140.473 207.703,139.961 207.852,139.457C208,138.953 208.176,138.457 208.371,137.969C208.57,137.48 208.789,137.004 209.035,136.535C209.281,136.07 209.547,135.617 209.836,135.18C210.125,134.738 210.438,134.316 210.77,133.906C211.102,133.496 211.453,133.105 211.82,132.73C212.191,132.355 212.578,132 212.984,131.664C213.391,131.328 213.812,131.016 214.25,130.719C214.684,130.426 215.137,130.156 215.598,129.906C216.062,129.656 216.535,129.43 217.023,129.227C217.508,129.023 218.004,128.844 218.508,128.691C219.012,128.539 219.52,128.41 220.035,128.305C220.551,128.203 221.074,128.125 221.598,128.074C222.121,128.02 222.645,127.996 223.172,127.996L223.172,128.164ZM233.703,187.324C234.711,187.324 235.715,187.375 236.715,187.473C237.715,187.57 238.711,187.719 239.695,187.914C240.684,188.109 241.656,188.355 242.621,188.648C243.582,188.941 244.527,189.277 245.457,189.664C246.387,190.047 247.293,190.477 248.184,190.953C249.07,191.426 249.93,191.945 250.766,192.504C251.602,193.062 252.41,193.66 253.188,194.297C253.965,194.938 254.707,195.613 255.418,196.324C256.133,197.035 256.805,197.781 257.441,198.559C258.082,199.336 258.68,200.141 259.238,200.98C259.797,201.816 260.312,202.676 260.785,203.566C261.262,204.453 261.688,205.359 262.074,206.289C262.457,207.219 262.797,208.164 263.09,209.129C263.379,210.09 263.625,211.066 263.82,212.051C264.016,213.039 264.16,214.031 264.258,215.035C264.355,216.035 264.406,217.039 264.406,218.043C264.406,219.051 264.355,220.055 264.254,221.055C264.156,222.055 264.008,223.051 263.812,224.035C263.613,225.023 263.371,225.996 263.078,226.961C262.785,227.922 262.445,228.867 262.059,229.797C261.676,230.727 261.242,231.633 260.77,232.52C260.293,233.406 259.777,234.27 259.219,235.105C258.656,235.941 258.059,236.746 257.418,237.523C256.781,238.301 256.105,239.043 255.395,239.754C254.68,240.465 253.938,241.141 253.16,241.777C252.379,242.414 251.574,243.012 250.734,243.57C249.898,244.129 249.035,244.645 248.148,245.117C247.262,245.59 246.352,246.02 245.422,246.402C244.492,246.785 243.547,247.125 242.582,247.414C241.621,247.707 240.645,247.949 239.66,248.145C238.672,248.34 237.68,248.484 236.676,248.582C235.676,248.68 234.672,248.727 233.668,248.727C232.66,248.727 231.656,248.676 230.656,248.574C229.656,248.477 228.664,248.328 227.676,248.129C226.691,247.934 225.715,247.688 224.754,247.395C223.789,247.102 222.844,246.762 221.918,246.375C220.988,245.988 220.082,245.559 219.195,245.082C218.309,244.605 217.445,244.09 216.609,243.527C215.773,242.969 214.969,242.367 214.191,241.73C213.414,241.09 212.672,240.414 211.961,239.703C211.254,238.988 210.578,238.242 209.941,237.465C209.305,236.688 208.707,235.879 208.148,235.043C207.594,234.203 207.078,233.34 206.605,232.453C206.133,231.566 205.703,230.656 205.32,229.727C204.938,228.797 204.602,227.852 204.309,226.887C204.02,225.926 203.777,224.949 203.582,223.961C203.387,222.977 203.242,221.98 203.145,220.98C203.047,219.98 203,218.977 203.004,217.969C203.004,216.965 203.051,215.961 203.152,214.961C203.25,213.961 203.398,212.969 203.594,211.984C203.789,211 204.035,210.023 204.324,209.062C204.617,208.102 204.957,207.156 205.34,206.23C205.727,205.301 206.156,204.395 206.629,203.508C207.105,202.621 207.621,201.762 208.18,200.926C208.738,200.09 209.336,199.285 209.977,198.508C210.613,197.734 211.289,196.992 212,196.281C212.711,195.57 213.453,194.898 214.23,194.262C215.008,193.625 215.816,193.027 216.652,192.469C217.488,191.914 218.348,191.398 219.234,190.926C220.121,190.453 221.031,190.023 221.961,189.641C222.887,189.258 223.836,188.922 224.797,188.629C225.758,188.34 226.73,188.098 227.719,187.902C228.703,187.711 229.695,187.562 230.695,187.469C231.695,187.371 232.699,187.324 233.703,187.324ZM197.848,251.305C198.488,251.828 199.086,252.398 199.645,253.012C200.199,253.621 200.711,254.27 201.172,254.957C201.637,255.645 202.047,256.359 202.406,257.105C202.762,257.852 203.066,258.621 203.312,259.41C203.559,260.199 203.75,261.004 203.879,261.82C204.008,262.637 204.078,263.461 204.09,264.285C204.102,265.113 204.051,265.938 203.941,266.758C203.836,267.578 203.668,268.387 203.441,269.184C203.215,269.98 202.93,270.754 202.594,271.512C202.254,272.266 201.859,272.992 201.418,273.688C200.973,274.387 200.48,275.051 199.938,275.676C199.398,276.301 198.816,276.887 198.188,277.43C197.562,277.969 196.902,278.465 196.203,278.91C195.508,279.355 194.781,279.746 194.027,280.086C193.273,280.426 192.496,280.711 191.699,280.938C190.906,281.168 190.098,281.336 189.277,281.445L187.262,281.445C185.336,281.453 183.465,281.141 181.648,280.504C179.832,279.871 178.172,278.953 176.672,277.746C176.234,277.398 175.816,277.031 175.418,276.645C175.016,276.258 174.637,275.852 174.277,275.426C173.918,275 173.578,274.559 173.262,274.102C172.941,273.641 172.648,273.168 172.379,272.684C172.109,272.195 171.859,271.695 171.641,271.184C171.418,270.676 171.219,270.152 171.051,269.625C170.879,269.094 170.734,268.555 170.613,268.012C170.496,267.465 170.406,266.918 170.34,266.363C170.273,265.809 170.238,265.254 170.227,264.699C170.215,264.141 170.234,263.586 170.277,263.027C170.32,262.473 170.391,261.922 170.488,261.371C170.586,260.824 170.711,260.281 170.863,259.746C171.016,259.207 171.191,258.68 171.395,258.16C171.598,257.641 171.824,257.133 172.078,256.637C172.328,256.141 172.605,255.656 172.906,255.188C173.203,254.719 173.527,254.262 173.871,253.824C174.223,253.391 174.594,252.977 174.988,252.582C175.379,252.184 175.793,251.809 176.223,251.453C176.652,251.098 177.098,250.762 177.559,250.449C178.023,250.137 178.5,249.848 178.988,249.582C179.48,249.316 179.98,249.074 180.496,248.859C181.012,248.645 181.535,248.453 182.066,248.285C182.602,248.121 183.141,247.984 183.688,247.871C184.234,247.758 184.785,247.672 185.34,247.613C185.895,247.555 186.449,247.523 187.008,247.52C187.566,247.516 188.125,247.539 188.68,247.59C189.234,247.641 189.785,247.719 190.336,247.824C190.883,247.93 191.426,248.062 191.961,248.219C192.496,248.375 193.02,248.559 193.539,248.77C194.055,248.98 194.562,249.215 195.055,249.473C195.551,249.73 196.031,250.012 196.496,250.32C196.965,250.625 197.414,250.953 197.848,251.305ZM119.414,116.062C126.754,110.047 134.785,105.176 143.504,101.441C134.73,105.191 126.664,110.102 119.305,116.176L119.414,116.062ZM136.504,135.445C137.777,135.438 139.047,135.492 140.316,135.613C141.582,135.73 142.844,135.91 144.094,136.152C145.344,136.391 146.578,136.695 147.801,137.059C149.02,137.422 150.219,137.844 151.398,138.324C152.578,138.805 153.73,139.344 154.855,139.938C155.98,140.531 157.078,141.18 158.141,141.883C159.203,142.586 160.227,143.34 161.215,144.141C162.203,144.945 163.148,145.797 164.055,146.691C164.957,147.59 165.816,148.527 166.629,149.508C167.441,150.488 168.203,151.508 168.914,152.562C169.629,153.617 170.285,154.707 170.891,155.828C171.496,156.949 172.043,158.094 172.535,159.27C173.027,160.445 173.461,161.641 173.836,162.859C174.211,164.074 174.523,165.309 174.777,166.555C175.031,167.805 175.223,169.062 175.352,170.328C175.48,171.594 175.547,172.867 175.551,174.141C175.555,175.414 175.496,176.684 175.375,177.953C175.254,179.219 175.074,180.477 174.828,181.727C174.582,182.977 174.277,184.211 173.914,185.434C173.547,186.652 173.121,187.852 172.637,189.027C172.152,190.207 171.613,191.359 171.016,192.48C170.418,193.605 169.766,194.699 169.062,195.762C168.355,196.82 167.602,197.844 166.797,198.832C165.988,199.816 165.137,200.762 164.238,201.664C163.34,202.566 162.398,203.422 161.418,204.23C160.434,205.043 159.414,205.801 158.355,206.512C157.301,207.223 156.211,207.875 155.086,208.48C153.965,209.082 152.816,209.629 151.641,210.117C150.465,210.605 149.27,211.035 148.051,211.406C146.832,211.777 145.598,212.09 144.348,212.34C143.102,212.59 141.844,212.777 140.574,212.902C139.309,213.031 138.039,213.094 136.766,213.094C135.492,213.098 134.219,213.035 132.953,212.91C131.684,212.789 130.426,212.602 129.18,212.355C127.93,212.105 126.695,211.797 125.477,211.43C124.258,211.059 123.059,210.633 121.883,210.145C120.707,209.66 119.555,209.113 118.434,208.516C117.309,207.914 116.219,207.262 115.16,206.555C114.102,205.848 113.078,205.09 112.094,204.281C111.109,203.473 110.168,202.617 109.266,201.719C108.367,200.816 107.512,199.875 106.707,198.891C105.898,197.906 105.141,196.883 104.434,195.824C103.727,194.766 103.074,193.672 102.473,192.551C101.875,191.426 101.332,190.273 100.844,189.098C100.359,187.922 99.93,186.723 99.562,185.504C99.195,184.285 98.887,183.051 98.641,181.801C98.391,180.551 98.207,179.293 98.082,178.027C97.961,176.758 97.898,175.488 97.902,174.215C97.902,172.949 97.969,171.688 98.094,170.426C98.219,169.168 98.402,167.918 98.652,166.676C98.898,165.434 99.207,164.207 99.574,162.996C99.941,161.785 100.367,160.594 100.852,159.426C101.336,158.258 101.875,157.113 102.473,155.996C103.066,154.879 103.715,153.793 104.418,152.742C105.121,151.688 105.871,150.672 106.672,149.691C107.473,148.711 108.32,147.773 109.215,146.875C110.105,145.98 111.043,145.129 112.02,144.324C112.992,143.516 114.008,142.762 115.059,142.055C116.109,141.348 117.191,140.695 118.305,140.094C119.418,139.492 120.559,138.949 121.727,138.461C122.895,137.973 124.082,137.539 125.293,137.168C126.5,136.793 127.727,136.48 128.969,136.23C130.207,135.977 131.457,135.785 132.715,135.652C133.973,135.523 135.238,135.453 136.504,135.445ZM92.301,96.566L107.707,111.973L92.301,96.566Z" style="fill:rgb(24,156,170);fill-rule:nonzero;"/>
                </g>
            </g>
        </g>
        <g id="Palette">
        </g>
    </g>
</svg>
