<?xml version="1.0" encoding="UTF-8" standalone="no"?><!DOCTYPE svg PUBLIC "-//W3C//DTD SVG 1.1//EN" "http://www.w3.org/Graphics/SVG/1.1/DTD/svg11.dtd"><svg width="100%" height="100%" viewBox="0 0 224 212" version="1.1" xmlns="http://www.w3.org/2000/svg" xmlns:xlink="http://www.w3.org/1999/xlink" xml:space="preserve" xmlns:serif="http://www.serif.com/" style="fill-rule:evenodd;clip-rule:evenodd;stroke-linejoin:round;stroke-miterlimit:2;"><rect id="Warning" x="0" y="0.384" width="223.502" height="211.507" style="fill:none;"/><path id="Hex" d="M33.457,154.207l-5.246,-2.479c-3.776,-1.784 -6.234,-5.168 -6.234,-8.965l0,-73.242c0,-3.797 2.458,-7.184 6.234,-8.968l70.008,-33.081c-0.183,0.281 -0.358,0.569 -0.526,0.864l-7.451,13.1l-57.059,26.963c-0.627,0.296 -0.882,0.765 -0.882,1.122l0,73.242c0,0.253 0.128,0.562 0.425,0.826c-0.961,3.506 -0.716,7.22 0.732,10.618Zm91.826,-126.735l70.005,33.081c3.776,1.784 6.237,5.171 6.237,8.968l0,73.242c0,3.797 -2.464,7.181 -6.237,8.965l-5.243,2.478c1.448,-3.398 1.693,-7.109 0.731,-10.617c0.297,-0.264 0.425,-0.573 0.425,-0.826l0,-73.242c0,-0.357 -0.255,-0.826 -0.882,-1.122l-57.059,-26.963l-7.45,-13.098c-0.168,-0.295 -0.344,-0.584 -0.527,-0.866Zm43.745,136.665l-51.236,24.212c-3.721,1.761 -8.361,1.761 -12.082,0l-51.238,-24.212l21.567,0l34.639,16.369c0.665,0.313 1.477,0.313 2.145,0l34.639,-16.369l21.565,0Z" style="fill:#189caa;stroke:#189caa;stroke-width:0.5px;"/><path id="Warning1" serif:id="Warning" d="M183.103,143.222l-63.377,-111.423c-1.66,-2.917 -4.639,-4.662 -7.975,-4.662c-3.336,0 -6.314,1.744 -7.975,4.662l-63.377,111.423c-1.666,2.929 -1.648,6.421 0.048,9.336c1.67,2.869 4.631,4.58 7.927,4.58l126.754,0c3.297,0 6.257,-1.711 7.927,-4.58c1.697,-2.915 1.715,-6.403 0.048,-9.336Zm-65.304,-7.247c0,1.669 -1.348,3.023 -3.018,3.023l-6.061,0c-1.67,0 -3.019,-1.354 -3.019,-3.023l0,-6.047c0,-1.669 1.349,-3.023 3.019,-3.023l6.057,0c1.673,0 3.021,1.354 3.021,3.023l0,6.047Zm0,-21.163c0,1.67 -1.354,3.024 -3.024,3.024l-6.058,0c-1.672,0 -3.015,-1.354 -3.015,-3.024l0,-42.326c0,-1.669 1.349,-3.023 3.019,-3.023l6.057,0c1.673,0 3.021,1.354 3.021,3.023l0,42.326Z" style="fill:#189caa;fill-rule:nonzero;"/></svg>