<?xml version="1.0" encoding="UTF-8" standalone="no"?><!DOCTYPE svg PUBLIC "-//W3C//DTD SVG 1.1//EN" "http://www.w3.org/Graphics/SVG/1.1/DTD/svg11.dtd"><svg width="100%" height="100%" viewBox="0 0 224 212" version="1.1" xmlns="http://www.w3.org/2000/svg" xmlns:xlink="http://www.w3.org/1999/xlink" xml:space="preserve" xmlns:serif="http://www.serif.com/" style="fill-rule:evenodd;clip-rule:evenodd;stroke-linejoin:round;stroke-miterlimit:2;"><rect id="Weightlifting" x="0" y="0" width="223.502" height="211.507" style="fill:none;"/><path id="Hex" d="M79.647,175.65l-51.436,-24.306c-3.776,-1.784 -6.234,-5.168 -6.234,-8.965l0,-73.242c0,-3.797 2.458,-7.184 6.234,-8.968l8.564,-4.047c0.314,0.34 0.657,0.662 1.03,0.961c0.416,3.192 1.552,5.603 3.284,7.195l-7.906,3.736c-0.627,0.296 -0.882,0.765 -0.882,1.122l0,73.242c0,0.357 0.255,0.826 0.882,1.122l44.388,20.976c0.684,3.835 1.567,7.666 2.077,11.173Zm-7.394,-136.292l33.457,-15.809c1.878,-0.888 3.961,-1.327 6.038,-1.327c2.074,0 4.166,0.439 6.044,1.327l33.455,15.809l-21.572,0l-16.853,-7.964c-0.328,-0.155 -0.697,-0.237 -1.075,-0.237c-0.375,0 -0.741,0.082 -1.069,0.237l-16.853,7.964l-21.573,0Zm114.553,16.804l8.481,4.008c3.776,1.784 6.237,5.171 6.237,8.968l0,73.242c0,3.797 -2.464,7.181 -6.237,8.965l-51.42,24.299c0.552,-3.501 1.454,-7.352 2.152,-11.208l44.299,-20.934c0.627,-0.296 0.882,-0.765 0.882,-1.122l0,-73.242c0,-0.357 -0.255,-0.826 -0.882,-1.122l-7.785,-3.679c0.097,-0.084 0.193,-0.171 0.286,-0.261c1.841,-1.762 2.64,-3.698 2.927,-5.762c0.054,-0.389 0.06,-0.789 0.053,-1.197c0.363,-0.297 0.698,-0.617 1.006,-0.956Zm-63.414,129.157l-5.601,2.647c-3.721,1.761 -8.361,1.761 -12.082,0l-5.549,-2.622c2.392,-1.772 4.173,-4.428 4.758,-7.859c0.004,-0.026 0.009,-0.052 0.013,-0.078l5.747,2.716c0.665,0.313 1.477,0.313 2.145,0l5.799,-2.74c0.598,3.475 2.388,6.15 4.77,7.936Z" style="fill:#189caa;"/><g><path d="M59.729,46.358l104.095,0l0,-13.519c0,-0.571 1.564,-1.949 2.239,-2.099c0.89,-0.199 2.971,-0.172 3.903,-0.04c3.812,0.537 2.737,4.835 2.866,7.648c6.317,-0.729 6.345,2.391 6.022,7.662c3.178,-0.564 4.688,3.926 2.502,5.701c-1.561,1.267 -2.19,-0.553 -2.512,2.832c-0.15,1.588 0.466,3.207 -0.863,4.477c-1.302,1.247 -3.497,1.037 -5.148,1.022c-0.208,2.19 0.818,6.055 -1.481,7.365c-0.823,0.469 -4.296,0.469 -5.339,0.295c-0.625,-0.103 -2.186,-1.334 -2.186,-1.815l0,-13.855l-10.677,0c-0.627,2.926 -1.312,5.862 -2.097,8.752c-1.613,5.951 -3.306,14.806 -6.64,19.73c-5.436,8.03 -12.115,13.048 -14.926,22.79c-1.688,5.852 -4.28,15.417 -3.693,21.336c0.725,7.291 11.012,15.532 13.436,23.277c2.712,8.659 -1.834,20.914 -2.694,29.876c-2.703,5.034 -10.449,3.765 -11.079,-2.07c-0.745,-6.883 0.687,-14.879 -0.158,-21.878c-0.475,-1.827 -6.432,-6.6 -8.214,-7.806c-3.421,-2.318 -5.906,-2.839 -9.618,-0.671c-1.354,0.792 -7.505,5.605 -8.319,6.698c-0.444,0.595 -0.966,1.858 -1.059,2.614c-0.796,6.524 1.008,15.294 -0.071,21.628c-0.93,5.462 -8.875,6.279 -11.098,1.249c-0.781,-8.906 -5.141,-20.656 -2.587,-29.298c2.411,-8.159 12.724,-15.997 13.425,-23.622c0.542,-5.875 -2.444,-18.182 -4.352,-24.012c-2.152,-6.571 -10.064,-14.016 -14.129,-19.913c-3.823,-5.543 -6.247,-17.999 -8.108,-24.936c-0.328,-1.22 -0.711,-2.473 -0.763,-3.745l-10.675,0l0,13.521c0,0.085 -0.725,1.349 -0.85,1.485c-1.285,1.39 -8.159,1.204 -8.159,-1.82l0,-5.174c-6.138,0.647 -6.439,-2.453 -6.018,-7.653c-4.662,-0.212 -4.855,-5.997 -0.131,-6.345c0.005,-5.192 -0.183,-8.353 6.149,-7.702l0,-5.174c0,-0.096 0.819,-1.467 1.019,-1.653c1.122,-1.046 4.615,-1.126 6.006,-0.702c0.555,0.169 1.985,1.557 1.985,2.021l0,13.519l-0.002,0Zm83.743,5.676l-63.392,0c1.869,5.514 3.468,11.801 5.752,17.114c1.983,4.615 9.024,11.293 12.928,14.774c10.227,9.114 17.205,8.047 26.87,-0.83c3.879,-3.562 10.05,-9.245 12.091,-13.944c2.317,-5.337 3.968,-11.551 5.75,-17.114Z" style="fill:#189caa;fill-rule:nonzero;"/><path d="M110.702,64.813c14.69,-1.416 15.45,21.167 1.225,21.282c-13.237,0.105 -14.573,-19.996 -1.225,-21.282Z" style="fill:#189caa;fill-rule:nonzero;"/></g></svg>