<?xml version="1.0" encoding="UTF-8" standalone="no"?><!DOCTYPE svg PUBLIC "-//W3C//DTD SVG 1.1//EN" "http://www.w3.org/Graphics/SVG/1.1/DTD/svg11.dtd"><svg width="100%" height="100%" viewBox="0 0 224 212" version="1.1" xmlns="http://www.w3.org/2000/svg" xmlns:xlink="http://www.w3.org/1999/xlink" xml:space="preserve" xmlns:serif="http://www.serif.com/" style="fill-rule:evenodd;clip-rule:evenodd;stroke-linejoin:round;stroke-miterlimit:2;"><rect id="Avocado" x="0" y="0.384" width="223.502" height="211.507" style="fill:none;"/><g id="Avocado1" serif:id="Avocado"><path id="Hex" d="M54.597,164.197l-26.386,-12.468c-3.776,-1.784 -6.234,-5.168 -6.234,-8.965l0,-73.242c0,-3.797 2.458,-7.184 6.234,-8.968l60.014,-28.359c-4.808,3.399 -7.805,8.053 -9.538,12.984c-5.36,1.625 -10.222,4.553 -14.243,8.448l-31.261,14.773c-0.627,0.296 -0.882,0.765 -0.882,1.122l0,73.242c0,0.357 0.255,0.826 0.882,1.122l11.075,5.234c2.478,5.643 6.01,10.759 10.339,15.078Zm41.957,-135.937l9.157,-4.327c1.878,-0.888 3.961,-1.327 6.038,-1.327c2.074,0 4.166,0.439 6.044,1.327l77.496,36.621c3.776,1.784 6.237,5.171 6.237,8.968l0,73.242c0,3.797 -2.464,7.181 -6.237,8.965l-77.496,36.621c-3.721,1.761 -8.361,1.761 -12.082,0l-21.525,-10.171c0.789,0.071 1.584,0.122 2.383,0.153c3.986,0.167 7.856,-0.196 11.558,-0.933c1.124,-0.224 2.15,-0.713 3.009,-1.401l9.543,4.51c0.665,0.313 1.477,0.313 2.145,0l5.788,-2.735c19.183,3.017 38.841,-5.858 49.024,-23.167l22.684,-10.72c0.627,-0.296 0.882,-0.765 0.882,-1.122l0,-73.242c0,-0.357 -0.255,-0.826 -0.882,-1.122l-15.365,-7.261c-3.03,-3.645 -6.829,-6.686 -11.299,-8.846c-4.666,-2.256 -9.625,-3.345 -14.563,-3.375l-36.269,-17.139c-0.328,-0.155 -0.697,-0.237 -1.075,-0.237c-0.375,0 -0.741,0.082 -1.069,0.237l-1.998,0.944c-2.653,-3.782 -7.439,-5.667 -12.127,-4.463Z" style="fill:#189caa;stroke:#189caa;stroke-width:0.5px;"/><g><path id="path5-78-4-8" d="M81.142,108.207c3.976,-8.13 10.033,-14.996 17.57,-19.909c4.665,-3.073 10.837,-8.23 13.766,-15.628c0.388,-0.905 0.761,-1.81 1.22,-2.687c0.244,-0.488 0.488,-0.977 0.76,-1.436c-3.89,-9.049 -11.799,-15.714 -21.244,-17.409c1.005,-3.261 3.115,-6.378 7.464,-7.713c2.297,-0.718 3.589,-3.16 2.871,-5.458c-0.718,-2.298 -3.144,-3.577 -5.455,-2.873c-8.642,2.686 -12.431,9.38 -13.78,15.958c-13.809,2.169 -24.432,14.91 -24.432,30.323c0,0.761 0.029,1.536 0.1,2.298c0.632,8.891 -2.268,17.538 -6.861,25.18c-3.689,6.176 -5.857,13.387 -5.885,21.13c-0.043,21.891 17.756,40.52 39.618,41.353c3.417,0.143 6.733,-0.173 9.905,-0.804c-19.149,-13.948 -26.226,-40.492 -15.618,-62.325Z" style="fill:#189caa;fill-rule:nonzero;"/><path id="path6-4-1-6" d="M160.609,58.595c-14.225,-6.88 -31.723,-0.086 -39.088,15.183c-0.345,0.704 -0.66,1.422 -0.933,2.126c-3.301,8.273 -9.647,14.824 -17.11,19.693c-6.029,3.936 -11.11,9.494 -14.484,16.447c-9.574,19.678 -1.622,44.183 17.699,54.454c20.785,11.046 46.38,2.542 56.528,-18.472c3.387,-6.995 4.593,-14.479 3.918,-21.69c-0.833,-8.862 0.359,-17.897 4.78,-25.61c0.388,-0.675 0.747,-1.35 1.091,-2.069c7.363,-15.24 1.809,-33.195 -12.402,-40.061Zm-13.866,80.395c-5.656,11.721 -19.307,16.849 -30.49,11.433c-11.182,-5.401 -15.646,-19.291 -9.99,-31.011c5.656,-11.721 19.307,-16.849 30.489,-11.434c11.182,5.401 15.646,19.291 9.991,31.012Z" style="fill:#189caa;fill-rule:nonzero;"/></g></g></svg>