<?xml version="1.0" encoding="UTF-8" standalone="no"?><!DOCTYPE svg PUBLIC "-//W3C//DTD SVG 1.1//EN" "http://www.w3.org/Graphics/SVG/1.1/DTD/svg11.dtd"><svg width="100%" height="100%" viewBox="0 0 224 212" version="1.1" xmlns="http://www.w3.org/2000/svg" xmlns:xlink="http://www.w3.org/1999/xlink" xml:space="preserve" xmlns:serif="http://www.serif.com/" style="fill-rule:evenodd;clip-rule:evenodd;stroke-linejoin:round;stroke-miterlimit:2;"><rect id="Blood-Cells" serif:id="Blood Cells" x="0" y="0.384" width="223.502" height="211.507" style="fill:none;"/><g id="Blood-Cells1" serif:id="Blood Cells"><path id="Hex" d="M48.073,161.114l-19.862,-9.385c-3.776,-1.784 -6.234,-5.168 -6.234,-8.965l0,-73.242c0,-3.797 2.458,-7.184 6.234,-8.968l58.461,-27.625c-4.302,3.839 -11.387,10.518 -18.94,19.144l-34.549,16.326c-0.627,0.296 -0.882,0.765 -0.882,1.122l0,73.242c0,0.357 0.255,0.826 0.882,1.122l6.308,2.981c2.205,5.169 5.115,9.947 8.582,14.247Zm50.457,-133.788l7.181,-3.393c1.878,-0.888 3.961,-1.327 6.038,-1.327c2.074,0 4.166,0.439 6.044,1.327l77.496,36.621c3.776,1.784 6.237,5.171 6.237,8.968l0,73.242c0,3.797 -2.464,7.181 -6.237,8.965l-20.039,9.469l1.62,-4.941l0.003,-0.009c0.025,-0.076 0.061,-0.146 0.107,-0.21c0.049,-0.067 0.107,-0.125 0.174,-0.174l0.007,-0.005l5.189,-3.776c0.637,-0.46 1.255,-0.984 1.83,-1.556c0.577,-0.574 1.104,-1.188 1.582,-1.844l0.005,-0.006c0.478,-0.656 0.901,-1.344 1.27,-2.066c0.247,-0.484 0.469,-0.98 0.664,-1.486l2.618,-1.237c0.627,-0.296 0.882,-0.765 0.882,-1.122l0,-73.242c0,-0.357 -0.255,-0.826 -0.882,-1.122l-77.496,-36.621c-0.328,-0.155 -0.697,-0.237 -1.075,-0.237c-0.375,0 -0.741,0.082 -1.069,0.237l-3.167,1.497c-1.473,-1.315 -2.966,-2.61 -4.479,-3.885c-0.056,-0.048 -0.114,-0.094 -0.172,-0.14l-1.319,-0.875l-0.047,-0.026l-1.461,-0.642l-1.504,-0.381Zm37.652,152.334l-18.389,8.69c-3.721,1.761 -8.361,1.761 -12.082,0l-6.998,-3.307c9.538,-0.172 19.198,-2.632 28.235,-7.814c0.606,-0.347 1.144,-0.775 1.605,-1.263c0.122,0.091 0.244,0.181 0.366,0.27c2.286,1.66 4.693,2.912 7.262,3.424Z" style="fill:#189caa;stroke:#189caa;stroke-width:0.5px;"/><g><path id="path1-17-0-3" d="M179.336,130.857c-1.316,-3.065 1.153,-7.98 1.978,-10.916c0.137,-0.422 0.241,-0.852 0.31,-1.291c0.07,-0.439 0.104,-0.88 0.104,-1.323c0,-0.444 -0.035,-0.885 -0.104,-1.324c-0.07,-0.439 -0.174,-0.869 -0.311,-1.291c-0.137,-0.422 -0.308,-0.831 -0.51,-1.225c-0.202,-0.396 -0.434,-0.772 -0.696,-1.131c-0.261,-0.358 -0.549,-0.694 -0.865,-1.007c-0.314,-0.314 -0.652,-0.6 -1.012,-0.86c-2.411,-1.937 -7.247,-4.416 -8.014,-7.68l-2.004,-6.112c-0.135,-0.422 -0.302,-0.83 -0.501,-1.225c-0.2,-0.395 -0.429,-0.772 -0.688,-1.131c-0.26,-0.358 -0.545,-0.695 -0.858,-1.008c-0.313,-0.314 -0.648,-0.601 -1.006,-0.861c-0.357,-0.261 -0.734,-0.491 -1.129,-0.692c-0.395,-0.201 -0.802,-0.37 -1.224,-0.506c-0.421,-0.137 -0.85,-0.239 -1.288,-0.307c-0.438,-0.069 -0.878,-0.102 -1.321,-0.101l-6.422,0c-4.954,0.211 -8.592,-6.018 -13.229,-6.73c-6.314,-1.647 -10.316,6.786 -16.26,6.731l-6.448,-0.001c-0.443,-0.001 -0.883,0.032 -1.321,0.101c-0.438,0.068 -0.866,0.17 -1.288,0.307c-0.421,0.136 -0.829,0.305 -1.223,0.506c-0.395,0.201 -0.771,0.431 -1.129,0.692c-0.357,0.261 -0.693,0.548 -1.005,0.861c-0.313,0.314 -0.598,0.65 -0.858,1.008c-0.259,0.359 -0.488,0.736 -0.688,1.131c-0.199,0.396 -0.367,0.803 -0.501,1.225l-1.978,6.112c-0.768,3.24 -5.661,5.767 -8.04,7.68c-0.36,0.26 -0.698,0.546 -1.012,0.859c-0.315,0.314 -0.603,0.65 -0.865,1.008c-0.262,0.359 -0.494,0.736 -0.696,1.131c-0.203,0.395 -0.372,0.803 -0.51,1.225c-0.138,0.422 -0.242,0.852 -0.311,1.291c-0.07,0.439 -0.105,0.88 -0.105,1.324c0,0.444 0.035,0.885 0.105,1.323c0.07,0.439 0.173,0.869 0.31,1.291l2.004,6.088c1.308,3.1 -1.193,7.983 -2.004,10.942c-0.137,0.422 -0.241,0.852 -0.31,1.291c-0.07,0.439 -0.105,0.88 -0.105,1.324c0.001,0.444 0.036,0.885 0.105,1.323c0.07,0.439 0.173,0.869 0.311,1.291c0.137,0.422 0.307,0.831 0.51,1.225c0.202,0.396 0.434,0.773 0.696,1.131c0.261,0.358 0.549,0.694 0.864,1.008c0.315,0.313 0.653,0.599 1.013,0.859c2.4,1.939 7.251,4.415 8.04,7.654l1.978,6.113c0.135,0.422 0.302,0.83 0.501,1.225c0.199,0.395 0.429,0.772 0.688,1.131c0.26,0.358 0.545,0.694 0.858,1.008c0.313,0.314 0.648,0.601 1.005,0.861c0.358,0.261 0.735,0.491 1.129,0.692c0.394,0.201 0.802,0.37 1.223,0.506c0.421,0.137 0.851,0.239 1.288,0.307c0.438,0.069 0.877,0.102 1.32,0.101l6.448,0c5.474,-0.142 9.221,7.188 14.745,6.884c5.512,0.29 9.257,-7.046 14.745,-6.884l6.422,0c0.443,0.001 0.883,-0.032 1.321,-0.101c0.438,-0.068 0.866,-0.17 1.288,-0.307c0.422,-0.136 0.829,-0.305 1.224,-0.506c0.395,-0.201 0.771,-0.431 1.129,-0.692c0.358,-0.261 0.693,-0.548 1.006,-0.861c0.313,-0.314 0.598,-0.65 0.858,-1.008c0.259,-0.359 0.488,-0.736 0.688,-1.131c0.199,-0.396 0.367,-0.803 0.501,-1.225l2.004,-6.113c0.254,-0.779 0.623,-1.5 1.105,-2.162c0.483,-0.663 1.056,-1.235 1.719,-1.716l5.189,-3.776c0.36,-0.26 0.698,-0.546 1.012,-0.859c0.315,-0.314 0.603,-0.65 0.865,-1.008c0.261,-0.359 0.494,-0.736 0.696,-1.131c0.202,-0.395 0.372,-0.803 0.51,-1.225c0.137,-0.422 0.242,-0.852 0.311,-1.291c0.07,-0.439 0.104,-0.88 0.104,-1.324c0,-0.444 -0.035,-0.885 -0.104,-1.323c-0.07,-0.439 -0.173,-0.869 -0.31,-1.291l-1.978,-6.113Zm-28.642,-27.329c0.293,0 0.585,0.015 0.876,0.045c0.291,0.029 0.581,0.073 0.868,0.13c0.287,0.058 0.57,0.129 0.851,0.214c0.28,0.086 0.555,0.185 0.826,0.297c0.27,0.113 0.535,0.238 0.793,0.376c0.258,0.138 0.508,0.289 0.751,0.452c0.243,0.163 0.478,0.338 0.704,0.524c0.227,0.186 0.443,0.382 0.65,0.59c0.207,0.207 0.404,0.424 0.589,0.65c0.185,0.227 0.359,0.462 0.522,0.705c0.162,0.243 0.313,0.495 0.45,0.753c0.138,0.258 0.263,0.523 0.375,0.794c0.112,0.271 0.21,0.545 0.295,0.826c0.085,0.281 0.156,0.564 0.213,0.851c0.057,0.287 0.1,0.576 0.129,0.867c0.028,0.292 0.043,0.584 0.043,0.876c0,0.293 -0.015,0.585 -0.043,0.876c-0.029,0.292 -0.072,0.581 -0.129,0.868c-0.057,0.287 -0.127,0.571 -0.213,0.851c-0.085,0.281 -0.184,0.555 -0.295,0.826c-0.112,0.271 -0.237,0.535 -0.375,0.794c-0.137,0.258 -0.288,0.51 -0.45,0.753c-0.163,0.243 -0.337,0.478 -0.522,0.705c-0.185,0.227 -0.382,0.444 -0.589,0.65c-0.207,0.208 -0.423,0.404 -0.65,0.59c-0.226,0.186 -0.461,0.361 -0.704,0.524c-0.243,0.163 -0.493,0.314 -0.751,0.452c-0.258,0.138 -0.523,0.264 -0.793,0.376c-0.271,0.113 -0.546,0.211 -0.826,0.296c-0.281,0.086 -0.564,0.157 -0.851,0.215c-0.287,0.057 -0.577,0.101 -0.868,0.13c-0.291,0.03 -0.583,0.045 -0.876,0.045c-0.168,0 -0.335,-0.017 -0.5,-0.05c-0.165,-0.033 -0.325,-0.083 -0.481,-0.147c-0.156,-0.065 -0.303,-0.144 -0.443,-0.238c-0.14,-0.094 -0.269,-0.2 -0.387,-0.319c-0.119,-0.119 -0.225,-0.248 -0.319,-0.389c-0.094,-0.14 -0.172,-0.287 -0.237,-0.443c-0.064,-0.156 -0.113,-0.316 -0.146,-0.482c-0.032,-0.165 -0.049,-0.331 -0.049,-0.5c0,-0.168 0.017,-0.335 0.049,-0.5c0.033,-0.165 0.082,-0.325 0.146,-0.481c0.065,-0.156 0.143,-0.304 0.237,-0.444c0.094,-0.14 0.199,-0.27 0.319,-0.389c0.118,-0.119 0.247,-0.226 0.387,-0.319c0.14,-0.094 0.287,-0.173 0.443,-0.238c0.156,-0.065 0.315,-0.113 0.481,-0.147c0.165,-0.033 0.332,-0.05 0.5,-0.05c0.125,0 0.25,-0.007 0.374,-0.02c0.124,-0.012 0.247,-0.031 0.37,-0.056c0.122,-0.025 0.243,-0.055 0.363,-0.092c0.119,-0.036 0.237,-0.079 0.352,-0.127c0.115,-0.048 0.228,-0.102 0.338,-0.161c0.11,-0.059 0.217,-0.123 0.321,-0.193c0.103,-0.07 0.204,-0.145 0.3,-0.224c0.096,-0.079 0.189,-0.164 0.276,-0.252c0.089,-0.089 0.171,-0.181 0.251,-0.278c0.079,-0.097 0.153,-0.198 0.222,-0.302c0.07,-0.103 0.133,-0.211 0.191,-0.321c0.059,-0.111 0.112,-0.223 0.159,-0.339c0.048,-0.116 0.089,-0.233 0.125,-0.352c0.036,-0.12 0.066,-0.241 0.09,-0.364c0.024,-0.122 0.041,-0.246 0.054,-0.37c0.012,-0.124 0.017,-0.249 0.017,-0.374c0,-0.125 -0.007,-0.25 -0.019,-0.374c-0.013,-0.124 -0.031,-0.247 -0.056,-0.37c-0.025,-0.122 -0.055,-0.243 -0.093,-0.362c-0.036,-0.12 -0.079,-0.237 -0.127,-0.352c-0.049,-0.115 -0.103,-0.228 -0.161,-0.338c-0.06,-0.11 -0.124,-0.217 -0.194,-0.32c-0.07,-0.104 -0.145,-0.204 -0.224,-0.3c-0.079,-0.096 -0.164,-0.189 -0.252,-0.276c-0.089,-0.088 -0.181,-0.171 -0.278,-0.251c-0.097,-0.079 -0.197,-0.152 -0.301,-0.222c-0.104,-0.069 -0.212,-0.132 -0.322,-0.191c-0.111,-0.059 -0.223,-0.112 -0.339,-0.159c-0.115,-0.047 -0.233,-0.089 -0.352,-0.125c-0.12,-0.036 -0.241,-0.066 -0.363,-0.09c-0.123,-0.024 -0.247,-0.041 -0.371,-0.053c-0.124,-0.012 -0.249,-0.018 -0.374,-0.017c-0.125,0 -0.25,0.007 -0.374,0.02c-0.124,0.012 -0.247,0.031 -0.37,0.056c-0.122,0.024 -0.243,0.055 -0.363,0.092c-0.119,0.036 -0.237,0.079 -0.352,0.127c-0.115,0.048 -0.228,0.102 -0.338,0.161c-0.11,0.059 -0.217,0.123 -0.321,0.193c-0.103,0.07 -0.204,0.145 -0.3,0.224c-0.097,0.079 -0.189,0.164 -0.276,0.252c-0.089,0.089 -0.172,0.181 -0.251,0.278c-0.079,0.097 -0.153,0.198 -0.222,0.301c-0.07,0.104 -0.133,0.212 -0.192,0.322c-0.058,0.111 -0.111,0.223 -0.159,0.339c-0.047,0.115 -0.089,0.233 -0.125,0.352c-0.036,0.12 -0.065,0.241 -0.089,0.363c-0.024,0.123 -0.042,0.247 -0.054,0.371c-0.012,0.124 -0.017,0.249 -0.017,0.374c-0.002,0.167 -0.021,0.333 -0.055,0.496c-0.035,0.164 -0.085,0.322 -0.151,0.476c-0.065,0.154 -0.146,0.3 -0.239,0.438c-0.094,0.138 -0.201,0.266 -0.32,0.383c-0.119,0.117 -0.248,0.222 -0.387,0.314c-0.14,0.092 -0.287,0.17 -0.441,0.233c-0.155,0.063 -0.314,0.111 -0.478,0.143c-0.164,0.032 -0.329,0.049 -0.496,0.049c-0.167,0 -0.333,-0.017 -0.496,-0.049c-0.164,-0.032 -0.324,-0.08 -0.478,-0.143c-0.154,-0.064 -0.301,-0.141 -0.441,-0.233c-0.139,-0.092 -0.268,-0.197 -0.387,-0.314c-0.119,-0.117 -0.226,-0.245 -0.319,-0.383c-0.094,-0.138 -0.175,-0.284 -0.24,-0.438c-0.065,-0.154 -0.116,-0.312 -0.151,-0.476c-0.035,-0.163 -0.053,-0.329 -0.055,-0.496c-0.001,-0.294 0.013,-0.587 0.042,-0.879c0.028,-0.292 0.071,-0.583 0.128,-0.87c0.057,-0.288 0.128,-0.573 0.213,-0.854c0.085,-0.281 0.184,-0.557 0.296,-0.828c0.112,-0.271 0.237,-0.537 0.376,-0.796c0.138,-0.259 0.289,-0.511 0.452,-0.755c0.164,-0.244 0.338,-0.48 0.525,-0.707c0.186,-0.228 0.383,-0.444 0.591,-0.652c0.208,-0.208 0.425,-0.405 0.652,-0.591c0.227,-0.186 0.463,-0.362 0.707,-0.525c0.245,-0.163 0.496,-0.314 0.755,-0.452c0.259,-0.138 0.524,-0.264 0.795,-0.376c0.271,-0.113 0.548,-0.211 0.829,-0.296c0.281,-0.085 0.565,-0.156 0.854,-0.213c0.288,-0.057 0.578,-0.1 0.87,-0.128c0.292,-0.029 0.585,-0.043 0.879,-0.042l-0,-0Zm-2.568,21.138c-0.002,0.125 -0.015,0.249 -0.041,0.371c-0.026,0.122 -0.062,0.241 -0.111,0.356c-0.049,0.115 -0.108,0.224 -0.178,0.328c-0.07,0.103 -0.15,0.199 -0.238,0.286c-0.089,0.088 -0.185,0.166 -0.29,0.235c-0.103,0.07 -0.213,0.127 -0.329,0.175c-0.115,0.048 -0.234,0.084 -0.357,0.108c-0.122,0.025 -0.246,0.036 -0.371,0.036c-0.125,0 -0.248,-0.012 -0.371,-0.036c-0.122,-0.024 -0.242,-0.06 -0.357,-0.108c-0.115,-0.047 -0.225,-0.105 -0.329,-0.175c-0.103,-0.069 -0.2,-0.147 -0.289,-0.235c-0.089,-0.088 -0.168,-0.183 -0.238,-0.286c-0.07,-0.103 -0.129,-0.213 -0.178,-0.328c-0.049,-0.115 -0.086,-0.233 -0.111,-0.356c-0.026,-0.122 -0.039,-0.246 -0.041,-0.371c0.002,-0.124 0.015,-0.248 0.041,-0.37c0.025,-0.122 0.062,-0.241 0.111,-0.356c0.049,-0.115 0.108,-0.224 0.178,-0.328c0.07,-0.103 0.15,-0.199 0.238,-0.286c0.089,-0.089 0.185,-0.166 0.289,-0.236c0.104,-0.069 0.214,-0.127 0.329,-0.175c0.116,-0.047 0.235,-0.083 0.357,-0.107c0.122,-0.025 0.246,-0.036 0.371,-0.036c0.125,0 0.248,0.012 0.371,0.036c0.122,0.024 0.242,0.06 0.357,0.107c0.116,0.048 0.226,0.106 0.329,0.175c0.104,0.07 0.201,0.147 0.29,0.236c0.089,0.088 0.168,0.183 0.238,0.286c0.07,0.103 0.129,0.213 0.178,0.328c0.049,0.115 0.085,0.233 0.111,0.356c0.026,0.122 0.039,0.246 0.041,0.37Zm-17.545,-23.373c0.125,0.002 0.248,0.017 0.371,0.044c0.122,0.026 0.24,0.065 0.355,0.114c0.114,0.05 0.223,0.109 0.326,0.18c0.103,0.07 0.199,0.151 0.285,0.24c0.088,0.089 0.165,0.185 0.234,0.29c0.069,0.104 0.127,0.214 0.174,0.329c0.047,0.116 0.083,0.235 0.107,0.357c0.024,0.122 0.036,0.246 0.036,0.371c0,0.125 -0.012,0.249 -0.036,0.372c-0.024,0.122 -0.06,0.242 -0.107,0.357c-0.047,0.116 -0.105,0.226 -0.174,0.33c-0.069,0.104 -0.146,0.201 -0.234,0.29c-0.088,0.089 -0.183,0.169 -0.285,0.24c-0.103,0.07 -0.212,0.131 -0.326,0.18c-0.115,0.049 -0.233,0.087 -0.355,0.114c-0.122,0.026 -0.246,0.041 -0.371,0.043c-0.125,-0.002 -0.248,-0.017 -0.37,-0.044c-0.122,-0.026 -0.241,-0.065 -0.355,-0.114c-0.115,-0.049 -0.223,-0.109 -0.326,-0.18c-0.103,-0.071 -0.199,-0.151 -0.285,-0.24c-0.088,-0.089 -0.165,-0.186 -0.234,-0.29c-0.069,-0.104 -0.127,-0.214 -0.174,-0.33c-0.047,-0.116 -0.083,-0.234 -0.107,-0.357c-0.024,-0.123 -0.036,-0.247 -0.036,-0.372c0,-0.125 0.012,-0.248 0.036,-0.371c0.024,-0.122 0.06,-0.242 0.107,-0.357c0.047,-0.116 0.105,-0.225 0.174,-0.33c0.069,-0.104 0.146,-0.201 0.234,-0.29c0.087,-0.089 0.182,-0.17 0.285,-0.24c0.103,-0.071 0.212,-0.131 0.326,-0.18c0.115,-0.05 0.233,-0.088 0.355,-0.114c0.122,-0.026 0.246,-0.041 0.37,-0.044Zm-16.594,39.042c-0.123,-0.003 -0.246,-0.019 -0.367,-0.046c-0.12,-0.027 -0.237,-0.065 -0.35,-0.115c-0.113,-0.05 -0.221,-0.109 -0.322,-0.18c-0.102,-0.07 -0.196,-0.15 -0.282,-0.238c-0.086,-0.089 -0.163,-0.185 -0.23,-0.288c-0.068,-0.103 -0.125,-0.213 -0.171,-0.327c-0.046,-0.114 -0.082,-0.233 -0.105,-0.353c-0.024,-0.122 -0.036,-0.244 -0.036,-0.367c0,-0.123 0.012,-0.246 0.036,-0.367c0.023,-0.121 0.059,-0.239 0.105,-0.353c0.046,-0.114 0.103,-0.223 0.171,-0.327c0.067,-0.103 0.144,-0.199 0.23,-0.288c0.086,-0.089 0.18,-0.168 0.282,-0.238c0.101,-0.07 0.209,-0.13 0.322,-0.18c0.113,-0.05 0.23,-0.088 0.35,-0.115c0.121,-0.026 0.243,-0.041 0.367,-0.045c0.123,0.003 0.246,0.018 0.366,0.045c0.121,0.027 0.237,0.065 0.351,0.115c0.113,0.05 0.22,0.109 0.322,0.18c0.102,0.07 0.195,0.15 0.281,0.238c0.087,0.089 0.164,0.185 0.231,0.288c0.068,0.103 0.125,0.213 0.171,0.327c0.046,0.114 0.082,0.233 0.105,0.353c0.024,0.122 0.036,0.244 0.036,0.367c0,0.123 -0.012,0.246 -0.036,0.367c-0.023,0.121 -0.059,0.239 -0.105,0.353c-0.046,0.114 -0.103,0.223 -0.171,0.327c-0.067,0.103 -0.144,0.199 -0.231,0.288c-0.086,0.089 -0.18,0.168 -0.281,0.238c-0.102,0.07 -0.209,0.13 -0.322,0.18c-0.113,0.05 -0.23,0.088 -0.351,0.115c-0.12,0.026 -0.242,0.042 -0.366,0.046Zm8.452,11.43c-0.125,-0.002 -0.249,-0.017 -0.371,-0.043c-0.122,-0.026 -0.241,-0.065 -0.356,-0.114c-0.115,-0.05 -0.224,-0.109 -0.327,-0.18c-0.103,-0.07 -0.199,-0.151 -0.286,-0.239c-0.088,-0.089 -0.165,-0.186 -0.234,-0.29c-0.069,-0.105 -0.127,-0.215 -0.174,-0.33c-0.048,-0.116 -0.084,-0.235 -0.108,-0.357c-0.024,-0.123 -0.036,-0.247 -0.036,-0.372c0,-0.125 0.012,-0.249 0.036,-0.372c0.024,-0.122 0.06,-0.242 0.108,-0.357c0.047,-0.116 0.105,-0.226 0.174,-0.33c0.069,-0.105 0.146,-0.202 0.234,-0.29c0.088,-0.089 0.183,-0.17 0.286,-0.24c0.103,-0.071 0.212,-0.131 0.327,-0.18c0.115,-0.05 0.233,-0.087 0.356,-0.113c0.122,-0.026 0.246,-0.041 0.371,-0.043c0.125,0.002 0.248,0.017 0.371,0.043c0.122,0.026 0.24,0.064 0.355,0.113c0.115,0.05 0.224,0.11 0.327,0.18c0.103,0.07 0.199,0.151 0.286,0.24c0.088,0.089 0.165,0.186 0.234,0.29c0.069,0.104 0.127,0.214 0.175,0.33c0.047,0.116 0.083,0.235 0.107,0.357c0.024,0.122 0.036,0.247 0.036,0.372c0,0.125 -0.012,0.248 -0.036,0.372c-0.024,0.122 -0.06,0.242 -0.108,0.357c-0.047,0.116 -0.105,0.226 -0.174,0.33c-0.069,0.104 -0.146,0.201 -0.234,0.29c-0.088,0.089 -0.183,0.169 -0.286,0.239c-0.103,0.071 -0.212,0.131 -0.327,0.18c-0.115,0.05 -0.233,0.088 -0.356,0.114c-0.122,0.026 -0.246,0.041 -0.371,0.043l0.001,0Zm1.798,-16.721c-0.261,-0.01 -0.52,-0.026 -0.779,-0.05c-0.259,-0.022 -0.518,-0.051 -0.776,-0.087c-0.257,-0.036 -0.515,-0.077 -0.77,-0.124c-0.256,-0.048 -0.511,-0.102 -0.764,-0.162c-0.253,-0.06 -0.506,-0.126 -0.755,-0.198c-0.25,-0.072 -0.498,-0.151 -0.745,-0.235c-0.246,-0.084 -0.491,-0.174 -0.732,-0.27c-0.242,-0.096 -0.482,-0.198 -0.718,-0.305c-0.237,-0.108 -0.472,-0.221 -0.703,-0.34c-0.232,-0.118 -0.46,-0.243 -0.686,-0.373c-0.225,-0.13 -0.448,-0.265 -0.667,-0.406c-0.218,-0.141 -0.434,-0.286 -0.646,-0.437c-0.212,-0.151 -0.42,-0.308 -0.625,-0.469c-0.204,-0.161 -0.405,-0.327 -0.601,-0.498c-0.197,-0.17 -0.389,-0.346 -0.577,-0.526c-0.188,-0.18 -0.372,-0.365 -0.55,-0.554c-0.179,-0.189 -0.353,-0.382 -0.523,-0.58c-0.17,-0.197 -0.334,-0.399 -0.494,-0.604c-0.16,-0.205 -0.314,-0.415 -0.464,-0.627c-0.15,-0.213 -0.295,-0.429 -0.434,-0.65c-0.14,-0.22 -0.274,-0.443 -0.402,-0.669c-0.128,-0.227 -0.252,-0.456 -0.369,-0.688c-0.117,-0.233 -0.229,-0.468 -0.335,-0.706c-0.106,-0.237 -0.206,-0.477 -0.3,-0.72c-0.095,-0.242 -0.184,-0.487 -0.266,-0.734c-0.083,-0.247 -0.16,-0.496 -0.23,-0.746c-0.07,-0.251 -0.135,-0.502 -0.194,-0.756c-0.059,-0.254 -0.111,-0.509 -0.156,-0.765c-0.046,-0.257 -0.086,-0.514 -0.12,-0.772c-0.033,-0.258 -0.061,-0.516 -0.082,-0.776c-0.022,-0.259 -0.036,-0.519 -0.045,-0.779c-0.008,-0.26 -0.011,-0.52 -0.007,-0.78c0.046,-10.075 11.536,-15.526 19.882,-10.248c11.945,6.438 10.687,26.289 -4.367,26.635l-0,-0Zm22.451,23.117c-0.224,0 -0.449,-0.006 -0.674,-0.017c-0.225,-0.011 -0.449,-0.028 -0.673,-0.05c-0.223,-0.022 -0.447,-0.05 -0.669,-0.083c-0.223,-0.033 -0.444,-0.072 -0.664,-0.116c-0.22,-0.044 -0.439,-0.094 -0.658,-0.148c-0.218,-0.055 -0.434,-0.115 -0.65,-0.18c-0.215,-0.065 -0.429,-0.137 -0.64,-0.212c-0.211,-0.076 -0.421,-0.157 -0.629,-0.243c-0.208,-0.086 -0.413,-0.177 -0.616,-0.274c-0.203,-0.096 -0.404,-0.197 -0.602,-0.303c-0.199,-0.107 -0.394,-0.218 -0.587,-0.333c-0.193,-0.116 -0.383,-0.236 -0.57,-0.361c-0.186,-0.125 -0.371,-0.255 -0.551,-0.389c-0.18,-0.134 -0.357,-0.272 -0.531,-0.415c-0.174,-0.143 -0.344,-0.29 -0.511,-0.441c-0.166,-0.151 -0.329,-0.305 -0.488,-0.465c-0.16,-0.159 -0.314,-0.321 -0.465,-0.488c-0.151,-0.166 -0.298,-0.337 -0.441,-0.511c-0.142,-0.174 -0.281,-0.351 -0.415,-0.531c-0.134,-0.18 -0.264,-0.364 -0.389,-0.551c-0.125,-0.187 -0.245,-0.376 -0.361,-0.569c-0.116,-0.193 -0.227,-0.389 -0.333,-0.587c-0.106,-0.199 -0.207,-0.399 -0.304,-0.602c-0.096,-0.203 -0.187,-0.409 -0.273,-0.616c-0.086,-0.208 -0.167,-0.417 -0.243,-0.629c-0.076,-0.211 -0.146,-0.424 -0.212,-0.64c-0.065,-0.215 -0.126,-0.432 -0.18,-0.65c-0.055,-0.218 -0.104,-0.438 -0.148,-0.658c-0.044,-0.221 -0.083,-0.442 -0.116,-0.664c-0.033,-0.223 -0.061,-0.445 -0.084,-0.669c-0.022,-0.223 -0.039,-0.448 -0.05,-0.672c-0.011,-0.225 -0.017,-0.449 -0.017,-0.674c0.645,-18.187 26.843,-18.183 27.486,0c-0.001,0.225 -0.007,0.45 -0.017,0.674c-0.012,0.224 -0.028,0.448 -0.05,0.672c-0.022,0.224 -0.05,0.447 -0.083,0.669c-0.034,0.223 -0.072,0.444 -0.117,0.664c-0.044,0.22 -0.094,0.439 -0.148,0.658c-0.055,0.218 -0.115,0.434 -0.18,0.65c-0.065,0.215 -0.136,0.429 -0.212,0.64c-0.076,0.212 -0.156,0.422 -0.243,0.63c-0.086,0.208 -0.177,0.413 -0.273,0.616c-0.097,0.204 -0.198,0.404 -0.304,0.602c-0.106,0.199 -0.217,0.394 -0.333,0.587c-0.116,0.193 -0.236,0.382 -0.361,0.569c-0.125,0.187 -0.255,0.371 -0.389,0.551c-0.133,0.18 -0.272,0.358 -0.415,0.532c-0.142,0.174 -0.29,0.343 -0.44,0.51c-0.151,0.167 -0.306,0.329 -0.465,0.489c-0.16,0.159 -0.322,0.314 -0.489,0.465c-0.166,0.151 -0.337,0.297 -0.511,0.44c-0.174,0.142 -0.351,0.281 -0.531,0.415c-0.18,0.134 -0.364,0.264 -0.551,0.389c-0.187,0.125 -0.376,0.245 -0.569,0.361c-0.194,0.116 -0.389,0.227 -0.587,0.333c-0.199,0.106 -0.4,0.207 -0.602,0.303c-0.204,0.097 -0.409,0.188 -0.616,0.274c-0.208,0.086 -0.417,0.167 -0.629,0.243c-0.212,0.075 -0.425,0.146 -0.64,0.212c-0.215,0.065 -0.431,0.126 -0.65,0.18c-0.218,0.055 -0.438,0.104 -0.658,0.148c-0.22,0.044 -0.442,0.083 -0.664,0.116c-0.223,0.033 -0.445,0.061 -0.669,0.083c-0.223,0.022 -0.448,0.04 -0.672,0.05c-0.225,0.012 -0.449,0.017 -0.674,0.017l-0,0Zm17.725,-39.529c0.002,-0.124 0.018,-0.246 0.045,-0.367c0.026,-0.121 0.065,-0.237 0.114,-0.351c0.05,-0.113 0.11,-0.221 0.18,-0.323c0.07,-0.102 0.15,-0.195 0.238,-0.281c0.089,-0.087 0.185,-0.164 0.288,-0.232c0.103,-0.067 0.212,-0.124 0.327,-0.171c0.114,-0.046 0.233,-0.082 0.353,-0.105c0.122,-0.024 0.244,-0.036 0.368,-0.036c0.123,0 0.246,0.012 0.367,0.036c0.121,0.024 0.239,0.059 0.353,0.105c0.115,0.047 0.223,0.104 0.327,0.171c0.103,0.068 0.199,0.145 0.288,0.232c0.089,0.086 0.168,0.18 0.238,0.281c0.07,0.102 0.131,0.209 0.18,0.323c0.049,0.113 0.088,0.23 0.114,0.351c0.026,0.121 0.042,0.243 0.045,0.367c-0.002,0.123 -0.017,0.246 -0.045,0.367c-0.026,0.121 -0.065,0.238 -0.114,0.352c-0.049,0.113 -0.109,0.221 -0.18,0.323c-0.07,0.102 -0.15,0.196 -0.238,0.282c-0.089,0.087 -0.185,0.164 -0.288,0.232c-0.103,0.068 -0.213,0.125 -0.327,0.171c-0.115,0.047 -0.233,0.082 -0.354,0.106c-0.122,0.024 -0.244,0.036 -0.368,0.036c-0.123,0 -0.246,-0.012 -0.367,-0.036c-0.122,-0.024 -0.239,-0.059 -0.354,-0.106c-0.114,-0.046 -0.223,-0.103 -0.327,-0.171c-0.103,-0.068 -0.2,-0.145 -0.289,-0.232c-0.089,-0.086 -0.168,-0.18 -0.238,-0.282c-0.07,-0.102 -0.13,-0.209 -0.18,-0.323c-0.049,-0.113 -0.087,-0.231 -0.114,-0.352c-0.026,-0.121 -0.041,-0.243 -0.045,-0.367l0.001,0Zm2.62,23.245c-0.124,-0.004 -0.246,-0.02 -0.367,-0.048c-0.121,-0.027 -0.238,-0.066 -0.352,-0.117c-0.113,-0.05 -0.22,-0.111 -0.322,-0.181c-0.102,-0.071 -0.195,-0.151 -0.281,-0.24c-0.086,-0.089 -0.163,-0.186 -0.231,-0.29c-0.067,-0.104 -0.124,-0.213 -0.171,-0.328c-0.046,-0.115 -0.081,-0.233 -0.105,-0.355c-0.023,-0.122 -0.036,-0.244 -0.036,-0.368c0,-0.124 0.012,-0.247 0.036,-0.368c0.024,-0.122 0.059,-0.24 0.106,-0.355c0.046,-0.114 0.103,-0.224 0.17,-0.328c0.068,-0.104 0.145,-0.2 0.231,-0.29c0.086,-0.089 0.18,-0.169 0.281,-0.24c0.102,-0.07 0.209,-0.132 0.323,-0.181c0.113,-0.05 0.23,-0.089 0.351,-0.117c0.121,-0.027 0.243,-0.043 0.367,-0.047c0.124,0.004 0.247,0.02 0.367,0.047c0.121,0.028 0.237,0.067 0.351,0.117c0.113,0.05 0.22,0.111 0.322,0.181c0.102,0.071 0.195,0.151 0.281,0.24c0.087,0.089 0.163,0.186 0.231,0.29c0.068,0.104 0.125,0.213 0.171,0.328c0.046,0.115 0.081,0.233 0.105,0.355c0.023,0.122 0.036,0.244 0.036,0.368c0,0.124 -0.012,0.247 -0.036,0.368c-0.024,0.122 -0.059,0.24 -0.105,0.355c-0.046,0.114 -0.103,0.224 -0.171,0.328c-0.068,0.104 -0.145,0.2 -0.231,0.29c-0.086,0.089 -0.18,0.169 -0.281,0.24c-0.102,0.07 -0.209,0.132 -0.322,0.181c-0.113,0.05 -0.231,0.089 -0.352,0.117c-0.121,0.027 -0.242,0.043 -0.367,0.047Z" style="fill:#189caa;fill-rule:nonzero;"/><path id="path2-18-3-3" d="M125.263,112.441c-0.141,-0.082 -0.286,-0.16 -0.434,-0.233c-0.146,-0.073 -0.296,-0.141 -0.448,-0.204c-0.151,-0.063 -0.305,-0.121 -0.46,-0.175c-0.155,-0.053 -0.312,-0.101 -0.47,-0.144c-0.158,-0.043 -0.318,-0.08 -0.478,-0.113c-0.161,-0.032 -0.323,-0.06 -0.485,-0.082c-0.163,-0.022 -0.326,-0.04 -0.489,-0.051c-0.164,-0.012 -0.328,-0.018 -0.492,-0.019c-0.165,-0.001 -0.329,0.003 -0.492,0.012c-0.164,0.01 -0.328,0.025 -0.49,0.045c-0.163,0.021 -0.325,0.046 -0.487,0.076c-0.161,0.031 -0.321,0.066 -0.48,0.108c-0.159,0.041 -0.316,0.087 -0.472,0.138c-0.156,0.051 -0.31,0.107 -0.463,0.168c-0.152,0.061 -0.302,0.127 -0.45,0.198c-0.148,0.071 -0.293,0.146 -0.436,0.227c-0.143,0.08 -0.284,0.165 -0.421,0.254c-0.137,0.089 -0.272,0.184 -0.404,0.281c-0.132,0.098 -0.26,0.2 -0.385,0.306c-0.125,0.107 -0.246,0.217 -0.364,0.331c-0.117,0.114 -0.232,0.233 -0.342,0.353c-0.11,0.122 -0.216,0.247 -0.318,0.376c-0.103,0.128 -0.2,0.26 -0.294,0.395c-0.094,0.134 -0.183,0.272 -0.267,0.412c-0.084,0.141 -0.165,0.284 -0.24,0.429c-0.075,0.146 -0.146,0.294 -0.212,0.444c-0.065,0.15 -0.127,0.302 -0.182,0.457c-0.056,0.154 -0.107,0.309 -0.153,0.468c-0.046,0.157 -0.086,0.316 -0.122,0.476c-0.036,0.161 -0.066,0.321 -0.091,0.483c-0.026,0.162 -0.046,0.325 -0.06,0.488c-0.014,0.164 -0.023,0.327 -0.027,0.492c-0.002,0.318 0.011,0.635 0.037,0.952c0.026,0.318 0.065,0.633 0.118,0.947c0.053,0.314 0.119,0.625 0.199,0.933c0.079,0.309 0.172,0.612 0.278,0.913c0.106,0.3 0.224,0.595 0.356,0.885c0.131,0.29 0.275,0.573 0.43,0.851c0.156,0.277 0.323,0.548 0.501,0.811c0.179,0.263 0.368,0.519 0.569,0.765c0.2,0.247 0.411,0.485 0.632,0.714c0.221,0.229 0.452,0.448 0.692,0.657c0.24,0.209 0.488,0.408 0.745,0.596c0.257,0.188 0.521,0.364 0.794,0.53c0.272,0.165 0.551,0.318 0.836,0.459c0.285,0.141 0.576,0.27 0.873,0.386c0.296,0.116 0.597,0.219 0.902,0.31c0.305,0.09 0.613,0.167 0.925,0.232c11.284,1.365 11.235,-13.646 2.517,-17.338l0,0Zm2.235,14.666c-5.462,3.326 -12.432,-4.46 -11.456,-9.401c0.015,-2.524 2.827,-5.001 5.009,-2.594c0.086,0.108 0.163,0.223 0.231,0.343c0.067,0.12 0.125,0.245 0.173,0.375c0.047,0.129 0.084,0.261 0.111,0.397c0.026,0.135 0.042,0.272 0.047,0.41c0.004,0.138 -0.002,0.276 -0.02,0.412c-0.017,0.137 -0.046,0.271 -0.084,0.404c-0.039,0.132 -0.088,0.261 -0.147,0.386c-0.06,0.124 -0.129,0.243 -0.208,0.357c-0.017,0.268 -0.008,0.535 0.027,0.802c0.036,0.266 0.098,0.526 0.186,0.779c0.089,0.254 0.201,0.496 0.338,0.727c0.137,0.231 0.295,0.446 0.476,0.645c0.329,0.434 0.726,0.79 1.192,1.07c0.466,0.28 0.968,0.463 1.505,0.548c0.14,-0.056 0.285,-0.1 0.433,-0.132c0.148,-0.031 0.298,-0.049 0.449,-0.053c0.151,-0.005 0.302,0.003 0.452,0.026c0.15,0.022 0.296,0.057 0.44,0.105c0.143,0.048 0.281,0.108 0.415,0.18c0.133,0.072 0.258,0.156 0.376,0.25c0.118,0.095 0.228,0.199 0.327,0.313c0.1,0.114 0.189,0.236 0.267,0.366c0.078,0.129 0.145,0.265 0.199,0.406c0.055,0.141 0.096,0.286 0.124,0.435c0.029,0.148 0.044,0.298 0.046,0.449c0.002,0.151 -0.009,0.302 -0.034,0.452c-0.024,0.149 -0.062,0.295 -0.112,0.438c-0.05,0.143 -0.113,0.281 -0.188,0.412c-0.074,0.132 -0.161,0.256 -0.257,0.372c-0.097,0.117 -0.203,0.223 -0.319,0.321l-0,0Z" style="fill:#189caa;fill-rule:nonzero;"/><path id="path3-787-2-8" d="M146.687,135.814c-0.281,0.002 -0.559,0.019 -0.838,0.049c-0.279,0.03 -0.555,0.073 -0.83,0.129c-0.275,0.057 -0.545,0.127 -0.813,0.21c-0.267,0.084 -0.53,0.18 -0.789,0.288c-0.258,0.109 -0.511,0.231 -0.757,0.364c-0.247,0.134 -0.486,0.279 -0.718,0.436c-0.232,0.157 -0.456,0.324 -0.672,0.504c-0.216,0.179 -0.422,0.367 -0.62,0.567c-0.197,0.199 -0.384,0.407 -0.561,0.624c-0.177,0.218 -0.343,0.443 -0.498,0.677c-0.155,0.233 -0.299,0.474 -0.429,0.722c-0.132,0.247 -0.251,0.501 -0.357,0.76c-0.107,0.259 -0.201,0.523 -0.281,0.792c-0.081,0.268 -0.149,0.54 -0.204,0.814c-0.054,0.276 -0.095,0.552 -0.122,0.831c-0.027,0.28 -0.041,0.559 -0.041,0.839c0,0.281 0.013,0.56 0.041,0.839c0.027,0.279 0.069,0.556 0.122,0.831c0.055,0.275 0.122,0.546 0.204,0.815c0.081,0.268 0.175,0.532 0.281,0.791c0.107,0.259 0.226,0.512 0.357,0.76c0.132,0.247 0.275,0.487 0.429,0.722c0.155,0.233 0.321,0.458 0.498,0.676c0.177,0.218 0.364,0.425 0.561,0.625c0.198,0.199 0.404,0.388 0.62,0.567c0.216,0.179 0.44,0.347 0.672,0.503c0.233,0.157 0.472,0.303 0.718,0.436c0.247,0.134 0.499,0.255 0.757,0.364c0.258,0.108 0.521,0.205 0.789,0.288c0.268,0.084 0.539,0.153 0.813,0.21c0.275,0.056 0.551,0.1 0.83,0.13c0.279,0.03 0.559,0.046 0.838,0.048c0.281,-0.002 0.56,-0.018 0.839,-0.048c0.279,-0.03 0.555,-0.074 0.83,-0.13c0.274,-0.057 0.545,-0.127 0.813,-0.21c0.268,-0.083 0.531,-0.18 0.789,-0.288c0.258,-0.109 0.511,-0.23 0.757,-0.364c0.246,-0.133 0.486,-0.279 0.717,-0.436c0.233,-0.156 0.457,-0.324 0.672,-0.503c0.216,-0.179 0.423,-0.368 0.62,-0.567c0.198,-0.199 0.385,-0.407 0.562,-0.625c0.177,-0.218 0.343,-0.443 0.498,-0.676c0.155,-0.234 0.298,-0.474 0.429,-0.722c0.132,-0.248 0.251,-0.501 0.357,-0.76c0.107,-0.259 0.2,-0.523 0.281,-0.791c0.081,-0.269 0.148,-0.54 0.203,-0.815c0.055,-0.275 0.095,-0.552 0.122,-0.831c0.027,-0.279 0.041,-0.559 0.041,-0.839c0,-0.281 -0.014,-0.559 -0.041,-0.839c-0.027,-0.279 -0.068,-0.555 -0.122,-0.831c-0.055,-0.275 -0.122,-0.546 -0.203,-0.815c-0.081,-0.268 -0.175,-0.532 -0.281,-0.791c-0.107,-0.259 -0.226,-0.512 -0.357,-0.76c-0.132,-0.247 -0.275,-0.488 -0.429,-0.722c-0.156,-0.234 -0.321,-0.459 -0.498,-0.677c-0.177,-0.217 -0.364,-0.425 -0.562,-0.624c-0.197,-0.199 -0.404,-0.388 -0.62,-0.567c-0.216,-0.18 -0.439,-0.348 -0.672,-0.504c-0.233,-0.157 -0.472,-0.302 -0.718,-0.436c-0.246,-0.133 -0.498,-0.255 -0.757,-0.364c-0.258,-0.108 -0.52,-0.204 -0.789,-0.288c-0.267,-0.083 -0.539,-0.153 -0.813,-0.21c-0.274,-0.056 -0.551,-0.099 -0.83,-0.129c-0.278,-0.03 -0.558,-0.046 -0.838,-0.049Zm0,9.529c0.167,0.002 0.333,0.022 0.496,0.056c0.164,0.035 0.322,0.085 0.476,0.151c0.154,0.065 0.3,0.146 0.438,0.24c0.137,0.094 0.266,0.2 0.382,0.319c0.117,0.119 0.222,0.248 0.314,0.387c0.092,0.14 0.17,0.287 0.233,0.441c0.064,0.155 0.112,0.314 0.144,0.478c0.032,0.164 0.048,0.329 0.048,0.496c0,0.167 -0.016,0.333 -0.048,0.496c-0.032,0.164 -0.08,0.323 -0.144,0.477c-0.063,0.155 -0.141,0.301 -0.233,0.441c-0.093,0.139 -0.197,0.268 -0.314,0.387c-0.117,0.119 -0.245,0.226 -0.383,0.32c-0.137,0.094 -0.284,0.174 -0.437,0.239c-0.154,0.066 -0.313,0.116 -0.476,0.151c-0.164,0.035 -0.329,0.054 -0.496,0.056c-0.199,-0.001 -0.396,-0.011 -0.593,-0.031c-0.198,-0.02 -0.393,-0.049 -0.587,-0.088c-0.194,-0.04 -0.386,-0.088 -0.577,-0.146c-0.189,-0.058 -0.376,-0.125 -0.559,-0.201c-0.184,-0.076 -0.362,-0.161 -0.537,-0.255c-0.175,-0.094 -0.344,-0.195 -0.509,-0.306c-0.165,-0.11 -0.324,-0.228 -0.477,-0.354c-0.153,-0.126 -0.3,-0.259 -0.439,-0.4c-0.141,-0.141 -0.273,-0.287 -0.399,-0.44c-0.126,-0.154 -0.243,-0.313 -0.353,-0.477c-0.11,-0.165 -0.212,-0.335 -0.305,-0.511c-0.094,-0.175 -0.178,-0.353 -0.254,-0.537c-0.075,-0.183 -0.142,-0.37 -0.199,-0.559c-0.058,-0.189 -0.106,-0.381 -0.145,-0.577c-0.038,-0.194 -0.067,-0.39 -0.087,-0.587c-0.019,-0.197 -0.029,-0.395 -0.029,-0.593c0,-0.199 0.01,-0.396 0.029,-0.593c0.02,-0.198 0.049,-0.393 0.087,-0.587c0.039,-0.194 0.087,-0.387 0.145,-0.577c0.057,-0.189 0.124,-0.376 0.199,-0.559c0.076,-0.184 0.161,-0.362 0.254,-0.537c0.094,-0.175 0.195,-0.345 0.305,-0.51c0.11,-0.165 0.228,-0.324 0.353,-0.477c0.126,-0.154 0.258,-0.3 0.399,-0.441c0.14,-0.141 0.286,-0.273 0.439,-0.4c0.153,-0.126 0.313,-0.244 0.477,-0.354c0.165,-0.11 0.334,-0.213 0.509,-0.306c0.175,-0.094 0.354,-0.179 0.537,-0.255c0.183,-0.076 0.369,-0.143 0.559,-0.201c0.189,-0.058 0.381,-0.106 0.576,-0.145c0.194,-0.04 0.39,-0.069 0.587,-0.089c0.197,-0.02 0.395,-0.03 0.593,-0.031c0.167,0.002 0.333,0.022 0.496,0.056c0.163,0.035 0.322,0.085 0.476,0.151c0.153,0.065 0.299,0.146 0.437,0.24c0.138,0.094 0.266,0.2 0.383,0.319c0.117,0.119 0.222,0.248 0.314,0.388c0.092,0.139 0.17,0.286 0.233,0.44c0.063,0.155 0.111,0.314 0.143,0.478c0.032,0.164 0.048,0.329 0.048,0.496c0,0.167 -0.016,0.333 -0.048,0.496c-0.032,0.164 -0.08,0.324 -0.143,0.478c-0.064,0.154 -0.141,0.301 -0.233,0.44c-0.092,0.14 -0.197,0.269 -0.314,0.388c-0.117,0.119 -0.245,0.225 -0.383,0.319c-0.138,0.094 -0.284,0.175 -0.437,0.24c-0.154,0.065 -0.313,0.116 -0.476,0.151c-0.163,0.035 -0.329,0.054 -0.496,0.056c-0.06,0.002 -0.118,0.008 -0.177,0.022c-0.058,0.013 -0.114,0.031 -0.17,0.055c-0.055,0.024 -0.106,0.053 -0.156,0.087c-0.049,0.034 -0.094,0.073 -0.136,0.115c-0.042,0.043 -0.079,0.089 -0.112,0.139c-0.032,0.05 -0.06,0.103 -0.083,0.158c-0.022,0.055 -0.04,0.113 -0.05,0.171c-0.012,0.058 -0.017,0.117 -0.017,0.177c0,0.06 0.006,0.119 0.017,0.178c0.011,0.058 0.028,0.115 0.05,0.17c0.022,0.055 0.05,0.108 0.083,0.158c0.033,0.05 0.07,0.096 0.112,0.139c0.041,0.043 0.087,0.081 0.136,0.115c0.05,0.034 0.101,0.063 0.156,0.087c0.055,0.024 0.112,0.042 0.17,0.055c0.059,0.013 0.117,0.021 0.177,0.022Z" style="fill:#189caa;fill-rule:nonzero;"/><path id="path4-74-8-5" d="M104.944,161.782c-0.716,-1.745 -1.831,-6.876 -2.954,-7.449l-5.215,-3.776c-0.288,-0.209 -0.568,-0.428 -0.839,-0.659c-0.271,-0.23 -0.533,-0.471 -0.784,-0.722c-0.252,-0.251 -0.494,-0.511 -0.726,-0.782c-0.232,-0.271 -0.453,-0.549 -0.662,-0.837c-0.209,-0.288 -0.407,-0.583 -0.593,-0.886c-0.186,-0.304 -0.36,-0.613 -0.522,-0.93c-0.161,-0.317 -0.311,-0.64 -0.447,-0.969c-0.137,-0.329 -0.26,-0.662 -0.37,-1c-0.109,-0.338 -0.206,-0.681 -0.289,-1.027c-0.084,-0.346 -0.152,-0.695 -0.208,-1.046c-0.055,-0.352 -0.097,-0.705 -0.125,-1.06c-0.027,-0.354 -0.041,-0.71 -0.041,-1.066c0.001,-0.356 0.015,-0.711 0.044,-1.066c0.028,-0.355 0.071,-0.707 0.127,-1.059c0.056,-0.351 0.126,-0.7 0.21,-1.046c0.084,-0.345 0.181,-0.688 0.292,-1.025c0.519,-2.055 2.587,-6.66 1.978,-7.757l-1.978,-6.113c-0.111,-0.338 -0.208,-0.68 -0.291,-1.025c-0.084,-0.346 -0.154,-0.695 -0.21,-1.046c-0.056,-0.352 -0.098,-0.704 -0.127,-1.059c-0.028,-0.355 -0.043,-0.71 -0.043,-1.066c0,-0.356 0.013,-0.711 0.041,-1.066c0.027,-0.354 0.069,-0.707 0.124,-1.059c0.055,-0.351 0.125,-0.7 0.208,-1.046c0.083,-0.346 0.18,-0.688 0.29,-1.027c0.11,-0.338 0.233,-0.672 0.369,-1c0.137,-0.329 0.285,-0.651 0.447,-0.968c0.162,-0.317 0.336,-0.627 0.522,-0.93c0.186,-0.304 0.384,-0.599 0.593,-0.886c0.209,-0.288 0.429,-0.567 0.661,-0.837c0.231,-0.27 0.472,-0.53 0.725,-0.782c0.252,-0.252 0.513,-0.492 0.784,-0.723c0.271,-0.23 0.55,-0.45 0.838,-0.659c1.69,-1.397 6.034,-3.888 6.165,-5.111l2.003,-6.113c0.109,-0.338 0.232,-0.672 0.367,-1c0.136,-0.329 0.284,-0.651 0.444,-0.968c0.161,-0.317 0.333,-0.627 0.519,-0.93c0.185,-0.304 0.382,-0.599 0.591,-0.887c0.209,-0.288 0.428,-0.567 0.659,-0.837c0.23,-0.271 0.471,-0.531 0.722,-0.783c0.251,-0.252 0.511,-0.493 0.782,-0.724c0.27,-0.231 0.549,-0.451 0.836,-0.659c0.288,-0.209 0.583,-0.406 0.886,-0.592c0.303,-0.185 0.612,-0.359 0.929,-0.52c0.317,-0.161 0.64,-0.309 0.967,-0.445c0.329,-0.136 0.662,-0.259 1,-0.368c0.338,-0.11 0.679,-0.206 1.025,-0.289c0.346,-0.083 0.694,-0.151 1.045,-0.207c0.351,-0.055 0.704,-0.096 1.058,-0.123c0.354,-0.027 0.709,-0.041 1.064,-0.041l6.448,0c0.277,0 0.548,-0.045 0.812,-0.132c0.263,-0.088 0.506,-0.215 0.729,-0.381l5.215,-3.776c0.947,-0.691 1.967,-1.248 3.06,-1.67c1.093,-0.423 2.223,-0.696 3.388,-0.822c-5.366,-8.289 -11.314,-16.139 -17.845,-23.547c-6.53,-7.407 -13.571,-14.294 -21.123,-20.657c-0.114,-0.09 -0.236,-0.17 -0.363,-0.24c-0.128,-0.07 -0.261,-0.128 -0.399,-0.175c-0.137,-0.047 -0.278,-0.084 -0.422,-0.108c-0.144,-0.024 -0.288,-0.036 -0.434,-0.036c-0.146,0 -0.29,0.012 -0.434,0.036c-0.144,0.024 -0.285,0.06 -0.422,0.108c-0.137,0.047 -0.271,0.106 -0.399,0.175c-0.127,0.07 -0.249,0.15 -0.363,0.24c-2.184,1.798 -53.508,44.101 -53.508,88.152c-0.573,41.313 46.014,68.715 81.688,48.262l-5.627,0.001c-0.355,0.001 -0.71,-0.012 -1.064,-0.04c-0.355,-0.027 -0.707,-0.069 -1.058,-0.123c-0.352,-0.055 -0.7,-0.124 -1.046,-0.207c-0.345,-0.082 -0.688,-0.179 -1.025,-0.288c-0.338,-0.109 -0.672,-0.233 -1,-0.368c-0.329,-0.136 -0.651,-0.284 -0.967,-0.445c-0.317,-0.161 -0.627,-0.335 -0.93,-0.52c-0.303,-0.186 -0.598,-0.383 -0.885,-0.592c-0.288,-0.209 -0.567,-0.429 -0.837,-0.659c-0.271,-0.232 -0.531,-0.472 -0.782,-0.724c-0.251,-0.252 -0.492,-0.513 -0.722,-0.784c-0.231,-0.271 -0.45,-0.549 -0.659,-0.837c-0.209,-0.288 -0.405,-0.583 -0.59,-0.887c-0.185,-0.303 -0.358,-0.613 -0.519,-0.93c-0.161,-0.318 -0.309,-0.64 -0.444,-0.969c-0.136,-0.329 -0.257,-0.662 -0.367,-1l0,-0Zm-29.952,-4.29c-0.108,0.131 -0.226,0.249 -0.357,0.357c-0.13,0.107 -0.269,0.201 -0.418,0.281c-0.148,0.08 -0.303,0.146 -0.464,0.195c-0.161,0.05 -0.326,0.084 -0.494,0.102c-0.167,0.017 -0.335,0.019 -0.503,0.004c-0.169,-0.015 -0.333,-0.046 -0.496,-0.093c-0.162,-0.047 -0.318,-0.109 -0.468,-0.187c-0.15,-0.077 -0.291,-0.169 -0.423,-0.273c-0.449,-0.367 -0.89,-0.741 -1.325,-1.124c-0.434,-0.383 -0.861,-0.774 -1.282,-1.173c-0.42,-0.399 -0.832,-0.806 -1.235,-1.22c-0.405,-0.415 -0.801,-0.837 -1.189,-1.266c-0.389,-0.429 -0.769,-0.866 -1.141,-1.31c-0.372,-0.444 -0.735,-0.894 -1.09,-1.352c-0.355,-0.457 -0.702,-0.921 -1.038,-1.392c-0.338,-0.47 -0.666,-0.947 -0.986,-1.43c-0.319,-0.483 -0.63,-0.971 -0.931,-1.466c-0.3,-0.495 -0.592,-0.995 -0.875,-1.5c-0.282,-0.506 -0.554,-1.017 -0.817,-1.532c-0.263,-0.516 -0.516,-1.037 -0.76,-1.562c-0.243,-0.525 -0.476,-1.055 -0.699,-1.59c-0.223,-0.535 -0.436,-1.072 -0.639,-1.615c-0.203,-0.542 -0.396,-1.088 -0.578,-1.638c-0.182,-0.549 -0.354,-1.102 -0.516,-1.658c-0.161,-0.556 -0.312,-1.115 -0.453,-1.676c-0.14,-0.562 -0.27,-1.126 -0.389,-1.693c-0.119,-0.566 -0.227,-1.135 -0.324,-1.705c-0.098,-0.571 -0.185,-1.144 -0.261,-1.718c-0.075,-0.573 -0.141,-1.149 -0.194,-1.725c-0.055,-0.577 -0.098,-1.153 -0.13,-1.732c-0.033,-0.578 -0.055,-1.157 -0.065,-1.735c-0.011,-0.579 -0.011,-1.158 0.001,-1.737c0.012,-0.578 0.033,-1.157 0.066,-1.735c0.034,-0.578 0.078,-1.155 0.132,-1.732c0.055,-0.576 0.121,-1.151 0.197,-1.725c0.077,-0.573 0.165,-1.146 0.262,-1.717c0.098,-0.57 0.208,-1.139 0.327,-1.705c0.12,-0.566 0.251,-1.13 0.391,-1.692c0.141,-0.561 0.292,-1.12 0.454,-1.676c0.162,-0.556 0.334,-1.109 0.518,-1.658c0.049,-0.159 0.113,-0.311 0.191,-0.458c0.079,-0.146 0.17,-0.284 0.276,-0.412c0.105,-0.129 0.222,-0.247 0.35,-0.352c0.128,-0.106 0.266,-0.199 0.412,-0.278c0.146,-0.079 0.299,-0.143 0.458,-0.193c0.159,-0.05 0.32,-0.084 0.486,-0.102c0.165,-0.018 0.331,-0.02 0.497,-0.006c0.165,0.014 0.329,0.044 0.488,0.09c0.16,0.046 0.314,0.107 0.462,0.182c0.148,0.076 0.288,0.165 0.419,0.268c0.131,0.103 0.25,0.218 0.358,0.343c0.108,0.127 0.204,0.261 0.286,0.406c0.082,0.145 0.149,0.296 0.202,0.453c0.053,0.158 0.089,0.319 0.111,0.484c0.022,0.165 0.026,0.331 0.016,0.496c-0.011,0.166 -0.037,0.329 -0.08,0.491c-0.33,0.978 -0.624,1.968 -0.88,2.968c-0.256,1 -0.472,2.009 -0.652,3.026c-0.18,1.017 -0.32,2.04 -0.422,3.067c-0.102,1.028 -0.165,2.058 -0.189,3.091c-0.024,1.032 -0.009,2.064 0.046,3.096c0.054,1.031 0.146,2.059 0.279,3.083c0.132,1.024 0.302,2.041 0.511,3.053c0.209,1.011 0.456,2.013 0.741,3.005c0.285,0.993 0.607,1.973 0.966,2.942c0.359,0.968 0.754,1.921 1.185,2.86c0.431,0.938 0.897,1.859 1.398,2.762c0.501,0.904 1.035,1.786 1.603,2.649c0.568,0.863 1.168,1.703 1.799,2.52c0.631,0.818 1.292,1.609 1.983,2.376c0.691,0.768 1.41,1.508 2.157,2.221c0.747,0.712 1.521,1.396 2.319,2.05c0.132,0.107 0.251,0.224 0.359,0.354c0.108,0.129 0.203,0.268 0.284,0.416c0.081,0.148 0.147,0.303 0.199,0.463c0.05,0.161 0.086,0.325 0.105,0.493c0.019,0.168 0.022,0.336 0.007,0.504c-0.013,0.168 -0.043,0.333 -0.089,0.496c-0.046,0.162 -0.107,0.319 -0.183,0.469c-0.077,0.151 -0.167,0.292 -0.271,0.425l-0,-0Z" style="fill:#189caa;fill-rule:nonzero;"/></g></g></svg>