<?xml version="1.0" encoding="UTF-8" standalone="no"?><!DOCTYPE svg PUBLIC "-//W3C//DTD SVG 1.1//EN" "http://www.w3.org/Graphics/SVG/1.1/DTD/svg11.dtd"><svg width="100%" height="100%" viewBox="0 0 224 212" version="1.1" xmlns="http://www.w3.org/2000/svg" xmlns:xlink="http://www.w3.org/1999/xlink" xml:space="preserve" xmlns:serif="http://www.serif.com/" style="fill-rule:evenodd;clip-rule:evenodd;stroke-linejoin:round;stroke-miterlimit:2;"><rect id="Book" x="0" y="0.384" width="223.502" height="211.507" style="fill:none;"/><path id="path4-40-0" d="M30.387,152.507l-1.931,-0.912c-3.765,-1.779 -6.216,-5.153 -6.216,-8.939l0,-73.028c0,-3.786 2.451,-7.163 6.216,-8.942l18.323,-8.658l-0.851,2.44c-0.003,0.022 -0.01,3.158 -0.017,8.135l-12.497,5.906c-0.625,0.295 -0.879,0.762 -0.879,1.119l0,1.564l-0.592,0.534l-1.329,2.257c-0.203,0.517 -0.619,1.599 -0.619,5.049l-0.001,71.127c0,-0.065 0.231,1.344 0.393,2.346Zm34.192,-108.89l41.149,-19.444c1.872,-0.885 3.949,-1.323 6.02,-1.323c2.068,0 4.154,0.438 6.026,1.323l41.124,19.433c-0.312,-0.067 -0.568,-0.11 -0.706,-0.131c-1.52,-0.31 -5.418,-0.714 -7.005,-0.764c-3.677,-0.116 -6.307,0.155 -6.853,0.21c-3.313,0.335 -4.29,0.631 -6.071,1.008c-0.045,0.009 -0.089,0.019 -0.132,0.028l-25.312,-11.961c-0.327,-0.155 -0.695,-0.237 -1.072,-0.237c-0.374,0 -0.739,0.082 -1.066,0.237l-25.317,11.963c-0.054,-0.011 -0.108,-0.023 -0.162,-0.034c-0.424,-0.087 -3.152,-0.753 -6.146,-1.012c-1.246,-0.108 -2.134,-0.25 -6.119,-0.218c-0.715,0.006 -3.802,0.161 -6.54,0.59c-0.746,0.117 -0.839,0.105 -1.412,0.25c-0.106,0.02 -0.235,0.046 -0.406,0.082Zm112.071,8.377l18.394,8.692c3.765,1.779 6.219,5.156 6.219,8.942l0,73.028c0,3.786 -2.457,7.16 -6.219,8.939l-1.955,0.924l0.418,-2.475c-0.001,-0.1 0.001,-72.671 -0,-72.797l-0.423,-2.724l-0.998,-2.057l-1.117,-1.085l0,-1.752c0,-0.356 -0.254,-0.824 -0.879,-1.119l-12.421,-5.869l-0,-6.657l-0.363,-2.633l-0.656,-1.356Zm5.48,105.702l-64.356,30.411c-3.71,1.756 -8.337,1.756 -12.047,0l-64,-30.242c0.383,-0.206 0.942,-0.532 1.766,-1.045c0.142,-0.089 1.291,-0.752 1.589,-0.94c0.361,-0.227 0.822,-0.449 1.064,-0.604c0.642,-0.41 0.74,-0.386 1.521,-0.867c0.249,-0.153 0.303,-0.147 0.989,-0.526c0.888,-0.492 0.972,-0.49 1.738,-0.914c0.241,-0.115 0.921,-0.439 1.226,-0.59l59.06,27.909c0.663,0.313 1.472,0.313 2.138,0l59.078,-27.918c0.234,0.106 0.524,0.24 1.08,0.55c0.595,0.332 0.604,0.31 0.947,0.486c1.328,0.681 1.315,0.702 1.432,0.76c0.758,0.373 1.633,0.907 2.093,1.151l-0.394,-0.199c0,0 1.669,0.953 1.886,1.084c0.893,0.537 0.893,0.528 1.06,0.614c-0.054,-0.028 -0.227,-0.123 -0.227,-0.123c-0,-0 1.188,0.509 2.355,1.004Z" style="fill:#189caa;stroke:#189caa;stroke-width:0.5px;"/><g id="Book1" serif:id="Book"><g><path d="M123.706,59.045c0.343,-0.254 0.39,-0.281 0.427,-0.301c0.259,-0.147 1.144,-0.765 1.316,-0.851c0.074,-0.037 1.178,-0.704 1.28,-0.765c0.013,-0.008 1.659,-0.935 1.928,-1.077c0.003,-0.001 2.949,-1.487 3.314,-1.625c0.336,-0.127 1.456,-0.651 2.462,-1.011c0.991,-0.355 1.588,-0.603 2.735,-0.92c0.378,-0.105 1.184,-0.408 2.751,-0.739c1.531,-0.324 2.37,-0.587 5.22,-0.875c0.462,-0.047 2.687,-0.271 5.797,-0.173c1.295,0.041 4.528,0.359 5.662,0.607c0.432,0.095 0.439,0.049 0.865,0.173c0.37,0.108 1.673,0.267 4.031,0.963c1.284,0.379 1.294,0.342 2.056,0.63c0.418,0.158 1.196,0.409 1.301,0.443c0.977,0.316 1.672,0.668 2.309,0.893c0.345,0.122 1.48,0.664 2.023,0.881c0.447,0.179 0.486,0.223 0.487,0.703c0,0.174 -0,73.149 0,73.301c0.002,0.367 0.015,0.549 -0.333,0.434c-0.084,-0.028 -0.079,-0.037 -1.023,-0.413c-0.213,-0.085 -0.214,-0.075 -0.427,-0.164c-0.873,-0.366 -0.878,-0.349 -2.883,-1.056c-0.691,-0.244 -3.25,-1.03 -3.773,-1.144c-1.715,-0.374 -1.685,-0.507 -4.356,-0.967c-0.103,-0.018 -1.117,-0.192 -1.293,-0.211c-0.584,-0.061 -0.575,-0.114 -1.159,-0.161c-0.332,-0.026 -0.489,-0.13 -2.467,-0.258c-1.376,-0.088 -1.373,-0.092 -2.754,-0.105c-0.58,-0.006 -0.577,-0.04 -1.158,-0.006c-0.437,0.025 -3.262,-0.095 -7.678,0.719c-0.941,0.174 -1.194,0.141 -4.213,0.97c-1.018,0.28 -1.024,0.258 -2.021,0.609c-0.809,0.285 -0.831,0.217 -2.036,0.708c-0.091,0.037 -1.105,0.384 -1.885,0.721c-2.204,0.953 -3.136,1.398 -5.077,2.455c-0.144,0.079 -0.147,0.069 -0.286,0.157c-0.356,0.225 -0.787,0.399 -1.744,1.006c-0.131,0.083 -0.844,0.469 -1.112,0.654c-0.192,0.132 -1.799,1.119 -2.514,1.662c-0.086,0.066 -1.72,1.178 -2.448,1.762c-0.083,0.067 -0.098,0.047 -1.062,0.811c-0.25,0.198 -0.256,0.186 -0.504,0.384c-0.398,0.317 -0.412,0.297 -0.77,0.659c-0.041,0.002 -0.075,0.041 -0.116,0.043c-0.01,0.001 -0.005,-0.019 -0.117,-0.03c-0.052,-0.005 -0.05,0.013 -0.101,0.008c0.005,-0.038 0.034,-0.07 0.039,-0.109c0.014,-0.112 -0.002,-71.57 0.009,-71.723c0.015,-0.206 -0.028,-0.263 0.862,-1.048c0.036,-0.032 0.627,-0.585 0.762,-0.682c0.108,-0.078 0.76,-0.686 1.012,-0.872c0.08,-0.059 0.065,-0.077 0.954,-0.794c0.051,-0.041 0.039,-0.053 0.626,-0.526c0.514,-0.415 0.692,-0.592 0.88,-0.71c0.132,-0.083 1.018,-0.819 1.311,-1.005c0.15,-0.095 0.624,-0.457 0.678,-0.498c0.289,-0.221 0.293,-0.212 0.592,-0.42c0.173,-0.12 0.171,-0.122 0.651,-0.476c0.08,-0.048 0.278,-0.166 0.97,-0.643Z" style="fill:#189caa;fill-opacity:1;"/><path d="M99.795,59.053c0.069,0.047 0.71,0.477 0.865,0.586c0.169,0.113 0.167,0.11 0.33,0.235c0.269,0.206 0.598,0.397 0.856,0.597c0.574,0.444 0.588,0.421 1.162,0.866c1.219,0.945 1.22,0.943 1.305,1.015c0.322,0.27 0.321,0.268 0.655,0.52c0.365,0.274 0.329,0.314 0.686,0.595c0.899,0.707 0.872,0.74 0.952,0.798c0.339,0.248 1.629,1.432 1.768,1.56c0.324,0.297 0.586,0.471 0.655,0.76c0.038,0.159 -0.011,70.218 0.026,71.698c0.004,0.173 -0.027,0.167 -0.04,0.246c-0.071,0.004 -0.143,0.008 -0.214,0.013c-0.189,-0.192 -0.184,-0.192 -0.201,-0.207c-0.121,-0.108 -2.528,-1.972 -2.709,-2.084c-0.071,-0.044 -0.156,-0.096 -0.848,-0.61c-0.131,-0.097 -0.137,-0.083 -0.269,-0.177c-0.586,-0.419 -0.603,-0.432 -0.654,-0.471c-0.194,-0.149 -0.837,-0.581 -0.856,-0.595c-0.365,-0.257 -0.37,-0.248 -2.134,-1.367c-0.278,-0.176 -0.553,-0.304 -0.567,-0.312c-0.12,-0.069 -0.104,-0.087 -0.222,-0.159c-0.411,-0.251 -1.387,-0.778 -1.575,-0.9c-0.222,-0.144 -0.675,-0.38 -0.735,-0.411c-3.241,-1.688 -4.223,-2.027 -4.44,-2.127c-1.077,-0.496 -1.104,-0.424 -2.352,-0.934c-0.412,-0.168 -3.107,-1.071 -4.19,-1.325c-1.303,-0.305 -1.285,-0.373 -2.593,-0.644c-0.362,-0.075 -0.361,-0.066 -0.726,-0.137c-1.079,-0.21 -2.085,-0.352 -2.185,-0.369c-1.55,-0.272 -4.075,-0.42 -4.342,-0.426c-1.6,-0.035 -1.598,-0.024 -1.737,-0.032c-0.775,-0.045 -1.408,0.011 -2.462,0.03c-2.875,0.051 -7.349,0.797 -9.126,1.27c-1.747,0.464 -1.763,0.4 -3.058,0.816c-1.505,0.483 -1.605,0.451 -2.753,0.878c-0.513,0.191 -0.515,0.181 -0.56,0.197c-0.47,0.18 -0.482,0.145 -2.315,0.875c-0.943,0.376 -0.94,0.38 -1.023,0.411c-0.402,0.151 -0.345,-0.158 -0.343,-0.427c0.005,-1.257 -0.009,-73.493 0.007,-73.599c0.05,-0.318 0.23,-0.269 1.379,-0.8c1.159,-0.536 1.847,-0.762 2.284,-0.949c0.926,-0.395 3.171,-1.114 3.333,-1.163c2.294,-0.694 3.338,-0.913 3.632,-0.974c1.511,-0.317 1.738,-0.381 2.029,-0.424c0.023,-0.003 0.164,-0.024 0.279,-0.055c0.428,-0.114 0.432,-0.08 0.87,-0.149c2.247,-0.352 4.779,-0.489 5.365,-0.494c3.493,-0.028 4.272,0.093 5.364,0.188c2.544,0.22 4.86,0.803 5.22,0.877c1.525,0.315 2.698,0.737 3.189,0.873c0.885,0.245 0.869,0.282 2.297,0.787c0.993,0.352 1.876,0.773 1.916,0.789c0.665,0.275 0.668,0.261 2.471,1.149c3.478,1.711 6.047,3.479 6.336,3.695Z" style="fill:#189caa;fill-opacity:1;"/><path d="M184.222,76.048c0.094,0.061 0.278,0.202 0.715,0.448c0.556,0.373 0.568,0.447 0.57,0.8c0.001,0.127 -0.001,72.766 0.001,72.866c0.005,0.351 0.019,0.352 -0.006,0.412c-0.01,0.024 -0.181,0.112 -0.218,0.107c-0.036,-0.004 -1.351,-0.837 -1.6,-0.966c-0.098,-0.051 -0.094,-0.052 -0.62,-0.368c-0.265,-0.16 -2.104,-1.213 -2.133,-1.226c-0.339,-0.154 -1.256,-0.745 -2.043,-1.132c-0.107,-0.053 -0.094,-0.075 -1.315,-0.701c-0.25,-0.128 -0.259,-0.107 -0.693,-0.35c-0.983,-0.549 -1.029,-0.459 -1.622,-0.816c-0.23,-0.138 -0.642,-0.314 -0.699,-0.339c-0.478,-0.204 -1.187,-0.558 -1.289,-0.609c-0.785,-0.392 -0.805,-0.341 -1.595,-0.723c-0.351,-0.169 -1.27,-0.613 -4.494,-1.885c-0.729,-0.287 -0.783,-0.269 -1.594,-0.578c-1.524,-0.58 -1.548,-0.502 -3.073,-1.072c-0.293,-0.109 -0.89,-0.26 -1.883,-0.574c-2.163,-0.685 -3.2,-0.855 -3.76,-1.037c-0.516,-0.168 -2.353,-0.513 -2.606,-0.58c-0.16,-0.043 -0.162,-0.03 -2.032,-0.41c-0.179,-0.036 -2.392,-0.384 -4.481,-0.633c-0.509,-0.061 -0.503,-0.075 -1.016,-0.126c-1.647,-0.162 -1.644,-0.172 -3.039,-0.221c-0.081,-0.003 -0.08,-0.016 -1.017,-0.072c-1.259,-0.076 -4.664,-0.016 -5.07,-0.009c-0.518,0.009 -3.663,0.151 -5.076,0.386c-0.579,0.096 -0.582,0.054 -1.158,0.152c-0.081,0.014 -0.081,-0.013 -1.016,0.142c-0.115,0.019 -0.115,-0.002 -1.439,0.206c-1.569,0.247 -1.557,0.298 -2.17,0.452c-0.231,0.058 -0.22,0.083 -0.295,0.109c-0.047,0.017 -0.101,0.012 -0.146,0.034c-0.053,0.026 -0.089,0.08 -0.143,0.105c-0.025,0.011 -0.328,0.148 -0.316,-0.135c0.002,-0.046 0.022,-0.095 0.054,-0.129c0.023,-0.025 0.068,-0.013 0.095,-0.032c0.028,-0.019 0.036,-0.061 0.065,-0.078c0.055,-0.032 0.683,-0.285 1.275,-0.608c0.076,-0.042 0.682,-0.401 1.306,-0.718c0.427,-0.217 0.582,-0.327 0.859,-0.454c0.113,-0.052 1.341,-0.675 1.449,-0.723c0.149,-0.066 0.14,-0.081 0.29,-0.143c0.067,-0.028 0.062,-0.036 0.837,-0.363c0.87,-0.367 0.853,-0.402 1.739,-0.732c0.107,-0.04 0.103,-0.044 1.329,-0.513c0.184,-0.07 2.675,-0.882 3.324,-1.042c1.037,-0.257 3.761,-0.997 7.393,-1.303c0.138,-0.012 2.416,-0.159 3.189,-0.162c0.787,-0.003 2.807,0.091 3.91,0.201c0.439,0.044 0.44,0.02 0.875,0.089c0.446,0.07 0.952,0.086 2.598,0.36c1.243,0.207 4.281,0.885 5.369,1.263c0.276,0.096 1.437,0.371 2.749,0.88c0.317,0.123 0.826,0.252 1.719,0.625c0.421,0.175 1.64,0.641 2.749,1.168c0.657,0.312 0.706,0.278 1.347,0.631c0.068,0.037 0.072,0.027 0.876,0.417c1.525,0.741 2.527,0.154 2.714,0.044c1.186,-0.696 1.025,-1.891 1.025,-2.591c-0,-20.812 -0,-41.624 -0,-62.436c-0.004,-0.326 -0.04,-0.333 0.014,-0.426c0.127,-0.22 0.192,-0.12 0.411,0.007c0.139,0.081 0.147,0.066 1.766,0.962c0.126,0.07 0.978,0.499 1.31,0.715c0.122,0.079 0.14,0.045 1.577,0.898c0.664,0.394 0.75,0.408 1.177,0.696c0.087,0.059 0.959,0.551 1.554,0.933c0.357,0.23 0.364,0.214 0.717,0.446c0.562,0.37 0.557,0.372 0.708,0.461Z" style="fill:#189caa;fill-opacity:1;"/><path d="M97.44,137.468c-0.085,0.231 -0.076,0.235 -0.091,0.249c-0.036,0.036 -0.115,-0.015 -0.151,0.02c-0.049,-0.013 -0.099,-0.018 -0.148,-0.031c-0.441,-0.113 -0.408,-0.255 -2.748,-0.607c-3.059,-0.46 -3.065,-0.414 -3.33,-0.458c-1.295,-0.216 -3.876,-0.333 -4.642,-0.377c-0.294,-0.017 -2.945,-0.054 -3.188,-0.045c-1.488,0.059 -2.057,-0.03 -3.189,0.11c-0.254,0.031 -0.535,-0.05 -3.039,0.21c-1.438,0.149 -3.996,0.521 -4.065,0.528c-0.948,0.092 -3.689,0.675 -4.054,0.746c-1.607,0.31 -2.604,0.617 -3.624,0.868c-1.06,0.261 -3.533,1.013 -4.35,1.298c-1.363,0.476 -1.37,0.447 -2.73,0.934c-2.12,0.76 -2.583,0.99 -2.917,1.107c-0.003,0.001 -2.098,0.812 -3.344,1.422c-0.445,0.218 -0.458,0.183 -2.125,0.974c-0.82,0.389 -0.824,0.377 -1.631,0.793c-0.235,0.121 -1.275,0.604 -1.399,0.674c-0.934,0.525 -0.954,0.481 -1.891,0.999c-0.912,0.505 -0.978,0.509 -1.309,0.713c-0.842,0.519 -0.945,0.497 -1.637,0.94c-0.232,0.148 -0.672,0.357 -1.017,0.574c-0.293,0.185 -1.422,0.836 -1.562,0.923c-1.009,0.63 -1.006,0.634 -1.042,0.646c-0.073,0.025 -0.21,-0.079 -0.22,-0.104c-0.021,-0.055 -0.009,-0.057 -0.005,-0.415c0,-23.709 0,-47.418 0.001,-71.127c0,-2.057 -0.042,-2.127 0.241,-2.318c0.307,-0.207 0.3,-0.214 0.327,-0.23c0.913,-0.557 0.887,-0.595 1.809,-1.132c0.071,-0.041 0.1,-0.092 0.332,-0.221c0.107,-0.059 0.374,-0.267 0.72,-0.441c0.114,-0.057 0.11,-0.06 0.617,-0.372c1.169,-0.718 1.184,-0.69 1.285,-0.754c0.693,-0.435 0.975,-0.535 2.024,-1.165c0.107,-0.064 0.986,-0.506 1.314,-0.707c0.066,-0.041 0.508,-0.312 0.853,-0.462c0.246,-0.108 0.758,-0.446 0.853,-0.414c0.023,0.008 0.011,0.05 0.026,0.069c0.019,0.025 0.057,0.034 0.071,0.062c0.049,0.094 0.02,0.1 0.015,0.407c-0,19.218 -0,38.437 -0.001,57.655c-0,6 -0.032,6.03 0.219,6.501c0.42,0.787 1.021,0.978 1.258,1.063c1.447,0.516 2.705,-0.531 3.929,-1.028c0.462,-0.188 1.469,-0.67 1.596,-0.718c0.118,-0.044 1.544,-0.648 2.295,-0.926c2.362,-0.875 3.357,-1.127 3.65,-1.214c1.492,-0.444 1.492,-0.434 2.578,-0.691c0.164,-0.039 1.514,-0.357 2.052,-0.469c0.862,-0.179 0.864,-0.154 2.445,-0.389c2.598,-0.387 5.856,-0.464 6.383,-0.426c0.507,0.037 0.505,-0.002 1.011,0.038c1.302,0.102 1.303,0.078 1.741,0.116c3.53,0.31 5.825,0.917 7.391,1.309c0.725,0.182 3.085,0.946 3.324,1.04c0.106,0.042 0.906,0.357 1.329,0.515c0.2,0.075 1.051,0.393 2.452,1.045c0.296,0.138 0.289,0.144 0.583,0.283c2.14,1.013 3.668,1.981 4.202,2.181c0.268,0.1 0.257,0.119 0.298,0.143c0,0 0.202,0.076 0.219,0.083Z" style="fill:#189caa;fill-opacity:1;"/></g></g></svg>