<?xml version="1.0" encoding="UTF-8" standalone="no"?><!DOCTYPE svg PUBLIC "-//W3C//DTD SVG 1.1//EN" "http://www.w3.org/Graphics/SVG/1.1/DTD/svg11.dtd"><svg width="100%" height="100%" viewBox="0 0 224 212" version="1.1" xmlns="http://www.w3.org/2000/svg" xmlns:xlink="http://www.w3.org/1999/xlink" xml:space="preserve" xmlns:serif="http://www.serif.com/" style="fill-rule:evenodd;clip-rule:evenodd;stroke-linejoin:round;stroke-miterlimit:2;"><rect id="Bowl" x="0" y="-0" width="223.502" height="211.507" style="fill:none;"/><path id="Hex" d="M69.024,170.38l-40.568,-19.17c-3.765,-1.779 -6.216,-5.153 -6.216,-8.939l0,-73.028c0,-3.786 2.451,-7.163 6.216,-8.942l77.272,-36.514c1.872,-0.885 3.949,-1.323 6.02,-1.323c2.068,0 4.154,0.438 6.026,1.323l27.912,13.19c-0.401,0.057 -0.8,0.126 -1.196,0.209c-0.517,0.108 -1.03,0.237 -1.537,0.389c-0.507,0.151 -1.007,0.323 -1.499,0.516c-0.489,0.192 -0.969,0.404 -1.44,0.636l-0.014,0.007c-0.475,0.235 -0.938,0.489 -1.39,0.762c-0.45,0.272 -0.887,0.562 -1.312,0.87l-0.011,0.008c-0.426,0.31 -0.839,0.637 -1.238,0.982c-0.303,0.261 -0.597,0.533 -0.883,0.814l-22.346,-10.56c-0.327,-0.155 -0.695,-0.237 -1.072,-0.237c-0.374,0 -0.739,0.082 -1.066,0.237l-77.269,36.514c-0.625,0.295 -0.879,0.762 -0.879,1.119l0,73.028c0,0.356 0.254,0.824 0.879,1.119l16.819,7.948c0.559,0.82 1.134,1.629 1.725,2.426c0.726,0.98 1.475,1.94 2.248,2.882l0.003,0.003c0.773,0.94 1.567,1.862 2.385,2.764c0.818,0.902 1.657,1.784 2.519,2.645c0.862,0.862 1.744,1.702 2.647,2.52c0.902,0.818 1.824,1.612 2.764,2.384c0.942,0.774 1.902,1.522 2.88,2.248l0.002,0.002c0.534,0.396 1.074,0.785 1.618,1.167Zm95.29,-124.599l30.73,14.522c3.765,1.779 6.219,5.156 6.219,8.942l0,73.028c0,3.786 -2.457,7.16 -6.219,8.939l-40.562,19.168c0.543,-0.381 1.082,-0.769 1.615,-1.164l0.002,-0.002c0.978,-0.726 1.939,-1.475 2.88,-2.248c0.941,-0.772 1.862,-1.566 2.764,-2.384c0.903,-0.818 1.785,-1.658 2.647,-2.52c0.861,-0.861 1.701,-1.744 2.519,-2.645c0.818,-0.902 1.612,-1.824 2.385,-2.764l0.003,-0.003c0.773,-0.942 1.523,-1.903 2.248,-2.882c0.592,-0.797 1.166,-1.606 1.725,-2.426l16.819,-7.948c0.625,-0.295 0.879,-0.762 0.879,-1.119l0,-73.028c0,-0.356 -0.254,-0.824 -0.879,-1.119l-23.111,-10.921c0.049,-0.536 0.074,-1.075 0.076,-1.618l0,-0.03c0,-0.521 -0.022,-1.041 -0.064,-1.56l-0.001,-0.017c-0.044,-0.528 -0.111,-1.055 -0.2,-1.578c-0.088,-0.52 -0.198,-1.035 -0.33,-1.546c-0.132,-0.512 -0.286,-1.017 -0.461,-1.517c-0.174,-0.497 -0.369,-0.986 -0.585,-1.468l-0.003,-0.006c-0.217,-0.484 -0.454,-0.957 -0.711,-1.42c-0.124,-0.224 -0.253,-0.446 -0.386,-0.664Zm-32.596,135.354l-13.943,6.589c-3.71,1.756 -8.337,1.756 -12.047,0l-13.944,-6.589c0.624,0.174 1.25,0.339 1.879,0.497c1.182,0.296 2.37,0.563 3.565,0.801c1.196,0.238 2.397,0.446 3.602,0.625c1.204,0.179 2.413,0.328 3.626,0.447c1.212,0.119 2.425,0.209 3.642,0.269l0.005,0c1.216,0.059 2.433,0.09 3.65,0.09c1.217,0 2.434,-0.03 3.65,-0.09l0.005,-0c1.216,-0.06 2.43,-0.15 3.642,-0.269c1.212,-0.119 2.421,-0.268 3.626,-0.447c1.206,-0.179 2.406,-0.387 3.602,-0.625c1.194,-0.238 2.383,-0.504 3.565,-0.801c0.628,-0.157 1.254,-0.323 1.877,-0.497Z" style="fill:#189caa;stroke:#189caa;stroke-width:0.5px;"/><g id="Bowl1" serif:id="Bowl"><path d="M126.574,117.347c-0.306,0.084 -0.616,0.105 -0.93,0.063c-4.371,0.33 -9.037,0.506 -13.893,0.506c-2.31,0 -4.576,-0.048 -6.836,-0.118c-0.029,0 -0.058,0.011 -0.089,0.011c-0.031,0 -0.046,-0.014 -0.069,-0.016c-23.818,-0.819 -44.802,-5.781 -56.123,-13.284c-1.553,-1.003 -2.995,-2.145 -4.326,-3.428l0,8.339c0,1.103 0.027,2.207 0.081,3.309c0.054,1.102 0.135,2.203 0.243,3.301c0.108,1.099 0.244,2.193 0.406,3.285c0.162,1.092 0.35,2.179 0.566,3.261c0.215,1.083 0.457,2.16 0.725,3.231c0.268,1.07 0.562,2.134 0.883,3.19c0.32,1.056 0.666,2.104 1.038,3.144c0.372,1.039 0.768,2.069 1.191,3.088c0.422,1.02 0.869,2.029 1.342,3.026c0.472,0.998 0.968,1.983 1.488,2.956c0.52,0.973 1.064,1.934 1.632,2.881c0.567,0.946 1.157,1.878 1.771,2.796c0.613,0.918 1.248,1.82 1.906,2.706c0.657,0.887 1.336,1.757 2.036,2.61c0.701,0.853 1.421,1.689 2.163,2.507c0.741,0.817 1.502,1.616 2.282,2.397c0.781,0.781 1.579,1.542 2.397,2.282c0.818,0.742 1.654,1.462 2.507,2.162c0.853,0.701 1.723,1.379 2.609,2.037c0.887,0.658 1.789,1.293 2.707,1.906c0.917,0.613 1.85,1.203 2.796,1.771c0.947,0.568 1.907,1.112 2.88,1.632c0.974,0.52 1.96,1.016 2.957,1.488c0.998,0.472 2.007,0.92 3.026,1.342c1.02,0.423 2.049,0.82 3.088,1.191c1.039,0.372 2.087,0.718 3.144,1.038c1.056,0.32 2.119,0.615 3.19,0.883c1.071,0.268 2.147,0.51 3.23,0.725c1.083,0.215 2.17,0.404 3.262,0.566c1.091,0.162 2.186,0.297 3.285,0.405c1.099,0.108 2.199,0.189 3.301,0.244c1.103,0.054 2.206,0.081 3.309,0.081c1.103,0 2.207,-0.028 3.309,-0.081c1.103,-0.054 2.203,-0.136 3.301,-0.244c1.099,-0.108 2.194,-0.243 3.285,-0.405c1.092,-0.162 2.179,-0.35 3.262,-0.566c1.082,-0.215 2.159,-0.457 3.23,-0.725c1.071,-0.268 2.134,-0.563 3.19,-0.883c1.056,-0.32 2.104,-0.666 3.144,-1.038c1.039,-0.372 2.069,-0.768 3.088,-1.191c1.02,-0.422 2.029,-0.869 3.026,-1.342c0.998,-0.472 1.983,-0.968 2.957,-1.488c0.973,-0.52 1.933,-1.064 2.88,-1.632c0.946,-0.568 1.879,-1.158 2.796,-1.771c0.918,-0.613 1.82,-1.248 2.707,-1.906c0.886,-0.658 1.756,-1.336 2.609,-2.037c0.853,-0.7 1.689,-1.421 2.507,-2.162c0.818,-0.741 1.616,-1.502 2.397,-2.282c0.781,-0.781 1.542,-1.58 2.282,-2.397c0.742,-0.818 1.462,-1.654 2.163,-2.507c0.7,-0.853 1.379,-1.723 2.036,-2.61c0.658,-0.886 1.293,-1.788 1.906,-2.706c0.614,-0.918 1.204,-1.85 1.771,-2.796c0.568,-0.947 1.112,-1.908 1.632,-2.881c0.52,-0.973 1.016,-1.959 1.488,-2.956c0.472,-0.998 0.92,-2.007 1.342,-3.026c0.423,-1.02 0.82,-2.049 1.191,-3.088c0.372,-1.039 0.718,-2.087 1.038,-3.144c0.32,-1.056 0.615,-2.12 0.883,-3.19c0.268,-1.071 0.51,-2.147 0.725,-3.231c0.215,-1.082 0.404,-2.169 0.566,-3.261c0.162,-1.092 0.298,-2.186 0.406,-3.285c0.108,-1.099 0.189,-2.199 0.243,-3.301c0.054,-1.103 0.081,-2.206 0.081,-3.309l0,-8.342c-1.334,1.286 -2.779,2.432 -4.336,3.438c-10.07,6.65 -27.654,11.318 -48.284,12.831Zm2.842,46.825c-3.699,1.256 -7.479,2.177 -11.342,2.76c-0.12,0.017 -0.24,0.026 -0.361,0.027c-0.151,0 -0.3,-0.015 -0.448,-0.042c-0.148,-0.028 -0.292,-0.07 -0.432,-0.125c-0.141,-0.055 -0.274,-0.123 -0.402,-0.203c-0.128,-0.08 -0.246,-0.172 -0.357,-0.274c-0.11,-0.102 -0.21,-0.215 -0.299,-0.336c-0.089,-0.121 -0.167,-0.25 -0.232,-0.385c-0.065,-0.136 -0.117,-0.276 -0.156,-0.422c-0.038,-0.146 -0.063,-0.293 -0.075,-0.443c-0.011,-0.15 -0.008,-0.3 0.009,-0.45c0.017,-0.15 0.048,-0.297 0.093,-0.441c0.044,-0.143 0.102,-0.282 0.172,-0.415c0.071,-0.133 0.153,-0.259 0.246,-0.376c0.094,-0.118 0.198,-0.225 0.313,-0.324c0.114,-0.098 0.237,-0.185 0.367,-0.259c0.131,-0.076 0.267,-0.138 0.409,-0.188c0.142,-0.05 0.288,-0.085 0.437,-0.107c3.579,-0.539 7.084,-1.39 10.512,-2.553c0.15,-0.053 0.304,-0.091 0.462,-0.113c0.158,-0.023 0.316,-0.029 0.476,-0.02c0.159,0.009 0.315,0.033 0.47,0.074c0.154,0.04 0.303,0.095 0.446,0.164c0.143,0.07 0.278,0.153 0.405,0.25c0.127,0.097 0.243,0.204 0.349,0.324c0.105,0.12 0.198,0.248 0.278,0.386c0.08,0.137 0.145,0.282 0.196,0.433c0.051,0.15 0.087,0.305 0.108,0.463c0.02,0.158 0.025,0.316 0.014,0.476c-0.011,0.159 -0.037,0.315 -0.08,0.469c-0.041,0.154 -0.098,0.302 -0.17,0.444c-0.072,0.142 -0.156,0.276 -0.255,0.402c-0.098,0.125 -0.207,0.241 -0.328,0.344c-0.12,0.104 -0.25,0.195 -0.389,0.273c-0.139,0.078 -0.284,0.142 -0.436,0.191l0,-0.004Zm38.91,-37.313c-0.853,2.216 -1.826,4.377 -2.92,6.485c-1.094,2.107 -2.301,4.147 -3.622,6.12c-1.321,1.973 -2.748,3.866 -4.28,5.68c-1.532,1.814 -3.16,3.537 -4.884,5.17c-2.109,1.984 -4.346,3.814 -6.711,5.487c-0.129,0.091 -0.266,0.168 -0.411,0.233c-0.144,0.064 -0.294,0.114 -0.447,0.149c-0.154,0.035 -0.311,0.054 -0.469,0.059c-0.158,0.004 -0.315,-0.007 -0.471,-0.034c-0.155,-0.026 -0.307,-0.068 -0.455,-0.124c-0.148,-0.057 -0.289,-0.128 -0.422,-0.211c-0.134,-0.085 -0.258,-0.181 -0.373,-0.29c-0.115,-0.109 -0.217,-0.228 -0.309,-0.357c-0.091,-0.128 -0.169,-0.265 -0.233,-0.41c-0.064,-0.145 -0.114,-0.294 -0.149,-0.448c-0.035,-0.154 -0.054,-0.31 -0.059,-0.468c-0.005,-0.158 0.007,-0.315 0.033,-0.471c0.027,-0.156 0.068,-0.307 0.124,-0.455c0.057,-0.147 0.128,-0.288 0.211,-0.422c0.085,-0.133 0.181,-0.258 0.289,-0.372c0.109,-0.115 0.228,-0.218 0.357,-0.31c2.182,-1.542 4.245,-3.228 6.193,-5.058c1.593,-1.508 3.097,-3.101 4.513,-4.778c1.416,-1.677 2.734,-3.426 3.954,-5.25c1.22,-1.823 2.336,-3.709 3.347,-5.657c1.011,-1.947 1.91,-3.945 2.699,-5.993c0.054,-0.15 0.124,-0.294 0.207,-0.429c0.084,-0.137 0.18,-0.263 0.289,-0.381c0.108,-0.117 0.228,-0.222 0.357,-0.315c0.13,-0.094 0.268,-0.173 0.413,-0.239c0.146,-0.067 0.296,-0.117 0.452,-0.154c0.155,-0.036 0.313,-0.056 0.473,-0.061c0.159,-0.004 0.318,0.007 0.476,0.034c0.158,0.027 0.311,0.069 0.46,0.126c0.149,0.058 0.291,0.129 0.426,0.215c0.135,0.086 0.26,0.185 0.375,0.295c0.115,0.111 0.219,0.231 0.311,0.363c0.091,0.131 0.168,0.27 0.232,0.416c0.064,0.147 0.112,0.298 0.146,0.455c0.034,0.156 0.051,0.315 0.054,0.474c0.002,0.16 -0.012,0.318 -0.041,0.476c-0.029,0.157 -0.074,0.309 -0.134,0.458l0,-0.002Z" style="fill:#189caa;fill-rule:nonzero;"/><path d="M50.048,99.629c12.848,-7.787 36.217,-12.593 61.703,-12.593c1.219,0 2.408,0.027 3.613,0.05l8.175,-17.554c-3.945,-0.241 -7.895,-0.393 -11.78,-0.393c-39.743,0 -67.443,11.589 -67.443,21.992c-0.007,3.452 2.883,6.415 5.732,8.498Z" style="fill:#189caa;fill-rule:nonzero;"/><path d="M168.748,102.502c-4.153,-1.999 -8.43,-3.677 -12.833,-5.037c-4.403,-1.36 -8.882,-2.384 -13.438,-3.075l-11.721,17.757c15.483,-1.542 29.114,-5.007 37.993,-9.644Z" style="fill:#189caa;fill-rule:nonzero;"/><path d="M155.507,74.641l-10.148,15.38c4.919,0.794 9.736,1.997 14.451,3.611c4.714,1.615 9.258,3.616 13.632,6.004c2.861,-2.088 5.752,-5.051 5.752,-8.505c0,-6.02 -9.037,-12.265 -23.687,-16.49Z" style="fill:#189caa;fill-rule:nonzero;"/><path d="M54.745,102.497c10.909,5.752 28.559,9.561 48.588,10.41l9.793,-21.035c-0.459,0 -0.91,-0.02 -1.375,-0.02c-23.254,0 -44.512,4.022 -57.006,10.644Z" style="fill:#189caa;fill-rule:nonzero;"/><path d="M119.066,90.532l-10.487,22.518c5.492,0.08 11.002,-0.043 16.073,-0.402l14.616,-22.148l0.072,-0.106l13.197,-19.992c0.015,-0.02 0.024,-0.039 0.037,-0.058l5.509,-8.344c0.638,-0.953 1.125,-1.978 1.461,-3.076c0.337,-1.097 0.507,-2.22 0.511,-3.367c0,-0.332 -0.014,-0.663 -0.041,-0.993c-0.028,-0.33 -0.069,-0.659 -0.125,-0.986c-0.055,-0.327 -0.124,-0.65 -0.207,-0.972c-0.083,-0.321 -0.179,-0.637 -0.289,-0.951c-0.11,-0.313 -0.233,-0.62 -0.368,-0.924c-0.136,-0.302 -0.284,-0.598 -0.445,-0.888c-0.161,-0.29 -0.333,-0.573 -0.519,-0.848c-0.185,-0.276 -0.381,-0.542 -0.588,-0.801c-0.207,-0.259 -0.425,-0.508 -0.654,-0.749c-0.228,-0.24 -0.467,-0.47 -0.715,-0.69c-0.248,-0.22 -0.505,-0.429 -0.771,-0.628c-0.265,-0.198 -0.539,-0.385 -0.82,-0.56c-0.281,-0.175 -0.57,-0.338 -0.865,-0.489c-0.295,-0.15 -0.597,-0.289 -0.903,-0.414c-0.307,-0.125 -0.619,-0.237 -0.936,-0.336c-0.316,-0.099 -0.636,-0.185 -0.96,-0.256c-0.324,-0.072 -0.65,-0.13 -0.978,-0.174c-0.328,-0.044 -0.659,-0.074 -0.99,-0.09c-0.331,-0.016 -0.663,-0.019 -0.994,-0.007c-0.332,0.012 -0.662,0.037 -0.991,0.077c-0.329,0.04 -0.656,0.094 -0.981,0.161c-0.324,0.067 -0.646,0.149 -0.964,0.244c-0.318,0.094 -0.631,0.202 -0.939,0.324c-0.309,0.121 -0.611,0.255 -0.909,0.402c-0.298,0.147 -0.588,0.307 -0.872,0.478c-0.284,0.172 -0.559,0.355 -0.828,0.549c-0.268,0.195 -0.528,0.401 -0.779,0.618c-0.25,0.216 -0.492,0.444 -0.724,0.681c-0.232,0.237 -0.453,0.485 -0.664,0.74c-0.211,0.256 -0.41,0.52 -0.598,0.794c-0.189,0.273 -0.365,0.553 -0.529,0.841c-0.165,0.288 -0.317,0.582 -0.457,0.883l-18.578,39.914l-0.01,0.024Z" style="fill:#189caa;fill-rule:nonzero;"/></g></svg>