<?xml version="1.0" encoding="UTF-8" standalone="no"?><!DOCTYPE svg PUBLIC "-//W3C//DTD SVG 1.1//EN" "http://www.w3.org/Graphics/SVG/1.1/DTD/svg11.dtd"><svg width="100%" height="100%" viewBox="0 0 224 212" version="1.1" xmlns="http://www.w3.org/2000/svg" xmlns:xlink="http://www.w3.org/1999/xlink" xml:space="preserve" xmlns:serif="http://www.serif.com/" style="fill-rule:evenodd;clip-rule:evenodd;stroke-linejoin:round;stroke-miterlimit:2;"><rect id="Bread" x="0" y="0.384" width="223.502" height="211.507" style="fill:none;"/><g id="Bread1" serif:id="Bread"><path id="Hex" d="M154.995,170.769l-37.203,17.58c-3.721,1.761 -8.361,1.761 -12.082,0l-77.499,-36.621c-3.776,-1.784 -6.234,-5.168 -6.234,-8.965l0,-73.242c0,-3.797 2.458,-7.184 6.234,-8.968l8.19,-3.87c-0.835,3.095 -0.934,6.525 -0.2,10.29l-3.018,1.426c-0.627,0.296 -0.882,0.765 -0.882,1.122l0,73.242c0,0.357 0.255,0.826 0.882,1.122l77.496,36.621c0.665,0.313 1.477,0.313 2.145,0l30.287,-14.312c0.252,0.121 0.503,0.24 0.752,0.357c3.99,1.872 7.698,3.265 11.133,4.218Zm-83.929,-130.466l34.644,-16.371c1.878,-0.888 3.961,-1.327 6.038,-1.327c2.074,0 4.166,0.439 6.044,1.327l77.496,36.621c3.776,1.784 6.237,5.171 6.237,8.968l0,73.242c0,3.797 -2.464,7.181 -6.237,8.965l-8.286,3.916c0.751,-3.023 1.016,-6.384 0.743,-10.077c-0.011,-0.149 -0.023,-0.299 -0.035,-0.449l2.609,-1.233c0.627,-0.296 0.882,-0.765 0.882,-1.122l0,-73.242c0,-0.357 -0.255,-0.826 -0.882,-1.122l-77.496,-36.621c-0.328,-0.155 -0.697,-0.237 -1.075,-0.237c-0.375,0 -0.741,0.082 -1.069,0.237l-24.881,11.758c-1.258,-0.386 -2.506,-0.744 -3.743,-1.072l-0.002,-0.001c-3.863,-1.025 -7.531,-1.742 -10.986,-2.16Z" style="fill:#189caa;stroke:#189caa;stroke-width:0.5px;"/><path id="path5-2-9-8" d="M177.042,160.436c-5.519,6.798 -15.399,6.725 -30.206,-0.222c-12.945,-6.074 -29.013,-17.05 -50.572,-34.544c-21.557,-17.492 -35.608,-30.958 -44.217,-42.373c-9.847,-13.059 -11.951,-22.711 -6.434,-29.51c2.909,-3.584 7.378,-5.803 13.286,-6.599c1.63,-0.219 3.346,-0.329 5.144,-0.329c4.837,0 10.268,0.793 16.214,2.37c3.555,0.944 7.203,2.145 10.911,3.582c-0.565,0.078 -1.14,0.167 -1.723,0.272c-4.387,0.777 -8.332,2.148 -11.725,4.077c-4.32,2.455 -7.739,5.809 -10.16,9.97c-0.712,1.221 -0.298,2.788 0.924,3.499c0.405,0.236 0.848,0.347 1.286,0.347c0.882,0 1.739,-0.455 2.215,-1.273c3.566,-6.127 9.695,-10.016 18.217,-11.555c5.664,-1.023 10.597,-0.624 11.914,-0.486c9.195,4.567 18.559,10.437 27.641,17.362c-2.3,0.387 -5.109,1.014 -8.093,2.032c-4.357,1.488 -8.197,3.508 -11.411,6.002c-4.085,3.171 -7.155,7.107 -9.126,11.701c-0.558,1.299 0.043,2.805 1.343,3.363c0.329,0.141 0.671,0.208 1.009,0.208c0.992,0 1.937,-0.58 2.353,-1.551c2.957,-6.887 8.794,-11.877 17.352,-14.83c5.929,-2.046 11.21,-2.369 12.264,-2.414c8.75,7.201 16.602,14.928 23.235,22.811c-1.861,0.115 -4.092,0.405 -6.512,1.026c-3.851,0.991 -7.409,2.623 -10.571,4.851c-3.94,2.778 -7.258,6.48 -9.859,11.006c-0.705,1.225 -0.281,2.791 0.944,3.495c0.402,0.231 0.84,0.341 1.273,0.341c0.887,0 1.748,-0.461 2.221,-1.286c3.996,-6.952 9.74,-11.46 17.072,-13.398c4.467,-1.181 8.224,-1.015 9.564,-0.897c4.647,6.051 8.546,12.146 11.557,18.119c3.797,7.537 5.949,14.426 6.393,20.478c0.44,5.939 -0.815,10.769 -3.723,14.354Z" style="fill:#189caa;fill-rule:nonzero;"/></g></svg>