<?xml version="1.0" encoding="UTF-8" standalone="no"?><!DOCTYPE svg PUBLIC "-//W3C//DTD SVG 1.1//EN" "http://www.w3.org/Graphics/SVG/1.1/DTD/svg11.dtd"><svg width="100%" height="100%" viewBox="0 0 224 212" version="1.1" xmlns="http://www.w3.org/2000/svg" xmlns:xlink="http://www.w3.org/1999/xlink" xml:space="preserve" xmlns:serif="http://www.serif.com/" style="fill-rule:evenodd;clip-rule:evenodd;stroke-linejoin:round;stroke-miterlimit:2;"><rect id="Burger" x="0" y="0.384" width="223.502" height="211.507" style="fill:none;"/><path id="Hex" d="M42.175,158.327l-13.964,-6.598c-3.776,-1.784 -6.234,-5.168 -6.234,-8.965l0,-73.242c0,-3.797 2.458,-7.184 6.234,-8.968l27.119,-12.815c-0.569,0.483 -1.126,0.972 -1.672,1.468c-5.09,4.622 -9.18,9.78 -12.101,15.235l-8.374,3.957c-0.627,0.296 -0.882,0.765 -0.882,1.122l0,73.242c0,0.357 0.255,0.826 0.882,1.122l3.66,1.73c0.825,4.673 2.684,8.992 5.332,12.711Zm50.221,-128.103l13.314,-6.291c1.878,-0.888 3.961,-1.327 6.038,-1.327c2.074,0 4.166,0.439 6.044,1.327l13.723,6.485c-6.365,-1.382 -13.078,-2.136 -20.016,-2.136c-6.608,0 -13.01,0.683 -19.103,1.942Zm74.625,16.972l28.268,13.358c3.776,1.784 6.237,5.171 6.237,8.968l0,73.242c0,3.797 -2.464,7.181 -6.237,8.965l-14.751,6.971c2.735,-3.73 4.667,-8.085 5.542,-12.81l4.24,-2.004c0.627,-0.296 0.882,-0.765 0.882,-1.122l0,-73.242c0,-0.357 -0.255,-0.826 -0.882,-1.122l-9.051,-4.277c-2.909,-5.337 -6.938,-10.384 -11.928,-14.915c-0.751,-0.682 -1.525,-1.353 -2.32,-2.011Zm-13.714,124.371l-35.514,16.782c-3.721,1.761 -8.361,1.761 -12.082,0l-35.516,-16.782l21.567,0l18.918,8.94c0.665,0.313 1.477,0.313 2.145,0l18.918,-8.94l21.565,0Z" style="fill:#189caa;stroke:#189caa;stroke-width:0.5px;"/><path id="Burger1" serif:id="Burger" d="M43.364,96.436c0,-2.888 2.344,-5.233 5.233,-5.233l125.778,0c2.889,0 5.233,2.344 5.233,5.233c0,2.889 -2.344,5.233 -5.233,5.233l-125.778,0c-2.889,0 -5.233,-2.344 -5.233,-5.233Zm3.543,-12.236l129.185,0c1.962,0 3.543,-1.69 3.325,-3.625c-2.753,-23.71 -32.105,-45.294 -67.917,-45.294c-35.812,0 -65.165,21.584 -67.917,45.294c-0.245,1.935 1.362,3.625 3.325,3.625Zm122.672,24.445l-116.267,0c-3.952,0 -7.113,3.625 -6.214,7.494c0,0.027 0,0.055 0.027,0.082c1.308,5.477 5.942,9.593 11.011,10.547c5.07,0.927 10.411,-1.063 14.363,-4.688c2.153,-1.989 4.442,-4.633 7.222,-4.224c1.199,0.191 2.235,0.899 3.216,1.69c3.107,2.452 5.887,5.396 9.184,7.522c3.298,2.098 7.386,3.297 10.956,1.826c4.579,-1.908 7.413,-7.767 12.265,-8.503c8.258,-1.281 12.891,12.863 21.231,12.781c7.632,-0.081 12.483,-12.154 20.005,-10.628c2.507,0.518 4.551,2.534 6.977,3.488c3.134,1.226 6.868,0.436 9.376,-1.989c2.507,-2.425 3.652,-6.404 2.916,-9.974c-0.082,-0.382 -0.191,-0.763 -0.3,-1.145c-0.818,-2.616 -3.298,-4.278 -5.969,-4.278Zm-101.767,55.922l87.349,0c13.519,0 24.447,-10.955 24.447,-24.445l-136.243,0c0,13.49 10.956,24.445 24.447,24.445Z" style="fill:#189caa;fill-rule:nonzero;"/></svg>