<?xml version="1.0" encoding="UTF-8" standalone="no"?><!DOCTYPE svg PUBLIC "-//W3C//DTD SVG 1.1//EN" "http://www.w3.org/Graphics/SVG/1.1/DTD/svg11.dtd"><svg width="100%" height="100%" viewBox="0 0 224 212" version="1.1" xmlns="http://www.w3.org/2000/svg" xmlns:xlink="http://www.w3.org/1999/xlink" xml:space="preserve" xmlns:serif="http://www.serif.com/" style="fill-rule:evenodd;clip-rule:evenodd;stroke-linejoin:round;stroke-miterlimit:2;"><rect id="Checklist" x="0" y="0.384" width="223.502" height="211.507" style="fill:none;"/><g id="Checklist1" serif:id="Checklist"><path id="Hex" d="M65.286,168.051l-35.9,-16.964c-3.723,-1.759 -6.147,-5.095 -6.147,-8.839l0,-72.212c0,-3.743 2.423,-7.083 6.147,-8.842l76.409,-36.106c1.852,-0.875 3.905,-1.308 5.953,-1.308c2.045,0 4.107,0.433 5.959,1.308l76.406,36.106c3.723,1.759 6.15,5.098 6.15,8.842l0,72.212c0,3.743 -2.429,7.08 -6.15,8.839l-35.896,16.963c2.35,-2.74 3.774,-6.296 3.774,-10.169l0,-1.662l27.223,-12.864c0.618,-0.292 0.869,-0.754 0.869,-1.106l0,-72.212c0,-0.352 -0.251,-0.815 -0.869,-1.106l-63.132,-29.833c-0.786,-1.781 -1.901,-3.39 -3.281,-4.75c-2.835,-2.882 -6.742,-4.606 -11.05,-4.606c-6.368,0 -11.879,3.855 -14.315,9.348l-63.148,29.841c-0.618,0.292 -0.869,0.754 -0.869,1.106l0,72.212c0,0.352 0.251,0.815 0.869,1.106l27.223,12.864l0,1.662c0,3.874 1.425,7.43 3.775,10.17Zm81.329,5.481l-28.908,13.66c-3.668,1.736 -8.244,1.736 -11.912,0l-28.909,-13.66c0.091,0.002 0.181,0.002 0.273,0.002l20.995,0l12.54,5.926c0.656,0.309 1.456,0.309 2.114,0l12.54,-5.926l20.995,0c0.091,0 0.181,-0.001 0.271,-0.002Z" style="fill:#189caa;stroke:#189caa;stroke-width:0.5px;"/><g><path id="path7-35-8" d="M133.371,54.049l0,8.651c0,2.38 -1.944,4.324 -4.324,4.324l-34.592,0c-2.38,0 -4.324,-1.944 -4.324,-4.324l0,-8.651c0,-2.383 1.944,-4.327 4.324,-4.327l8.648,0l0,-4.327c0,-4.76 3.891,-8.654 8.648,-8.654c2.38,0 4.541,0.95 6.098,2.553c1.6,1.557 2.551,3.72 2.551,6.1l0,4.327l8.648,0c2.38,0 4.324,1.944 4.324,4.327Z" style="fill:#189caa;fill-rule:nonzero;"/><path id="path8-0-8" d="M146.343,58.373l-6.488,0l0,4.327c0,5.97 -4.841,10.814 -10.809,10.814l-34.592,0c-5.968,0 -10.812,-4.844 -10.812,-10.814l0,-4.327l-6.485,0c-4.757,0 -8.648,3.894 -8.648,8.651l0,90.857c0,4.76 3.891,8.654 8.648,8.654l69.185,0c4.757,0 8.648,-3.894 8.648,-8.654l0,-90.857c0,-4.757 -3.891,-8.651 -8.648,-8.651Zm-63.997,34.483c1.297,-1.254 3.33,-1.254 4.584,0l2.033,2.033l6.355,-6.36c1.297,-1.254 3.33,-1.254 4.584,0c1.297,1.256 1.297,3.333 0,4.584l-8.648,8.654c-0.607,0.65 -1.427,0.953 -2.291,0.953c-0.823,0 -1.644,-0.303 -2.293,-0.953l-4.324,-4.327c-1.254,-1.254 -1.254,-3.328 0,-4.584Zm0,25.959c1.297,-1.256 3.33,-1.256 4.584,0l2.033,2.033l6.355,-6.36c1.297,-1.256 3.33,-1.256 4.584,0c1.297,1.254 1.297,3.33 0,4.587l-8.648,8.651c-0.607,0.65 -1.427,0.953 -2.291,0.953c-0.823,0 -1.644,-0.303 -2.293,-0.953l-4.324,-4.327c-1.254,-1.254 -1.254,-3.33 0,-4.584Zm56.516,31.496l-53.055,0c-1.774,0 -3.244,-1.47 -3.244,-3.247c0,-1.771 1.47,-3.241 3.244,-3.241l53.055,0c1.774,0 3.244,1.47 3.244,3.241c0,1.776 -1.47,3.247 -3.244,3.247Zm0,-25.959l-28.278,0c-1.774,0 -3.244,-1.47 -3.244,-3.244c0,-1.774 1.47,-3.247 3.244,-3.247l28.278,0c1.774,0 3.244,1.473 3.244,3.247c0,1.774 -1.47,3.244 -3.244,3.244Zm0,-25.959l-28.278,0c-1.774,0 -3.244,-1.47 -3.244,-3.244c0,-1.776 1.47,-3.247 3.244,-3.247l28.278,0c1.774,0 3.244,1.47 3.244,3.247c0,1.774 -1.47,3.244 -3.244,3.244Z" style="fill:#189caa;fill-rule:nonzero;"/></g></g></svg>