<?xml version="1.0" encoding="UTF-8" standalone="no"?><!DOCTYPE svg PUBLIC "-//W3C//DTD SVG 1.1//EN" "http://www.w3.org/Graphics/SVG/1.1/DTD/svg11.dtd"><svg width="100%" height="100%" viewBox="0 0 224 212" version="1.1" xmlns="http://www.w3.org/2000/svg" xmlns:xlink="http://www.w3.org/1999/xlink" xml:space="preserve" xmlns:serif="http://www.serif.com/" style="fill-rule:evenodd;clip-rule:evenodd;stroke-linejoin:round;stroke-miterlimit:2;"><rect id="Chequered-Flag" serif:id="Chequered Flag" x="0" y="0.384" width="223.502" height="211.507" style="fill:none;"/><g id="Chequered-Flag1" serif:id="Chequered Flag"><path id="Hex" d="M67.239,170.17l-39.028,-18.442c-3.776,-1.784 -6.234,-5.168 -6.234,-8.965l0,-73.242c0,-3.797 2.458,-7.184 6.234,-8.968l0.553,-0.261l3.537,10.102l0,72.369c0,0.357 0.255,0.826 0.882,1.122l29.78,14.073l4.276,12.212Zm28.372,-141.466l10.099,-4.772c1.878,-0.888 3.961,-1.327 6.038,-1.327c2.074,0 4.166,0.439 6.044,1.327l24.465,11.561c-3.982,1.8 -8.201,3.124 -12.602,4.238l-12.588,-5.948l-0.454,-1.021c-1.063,-2.392 -3.372,-3.99 -5.985,-4.144c-5.178,-0.304 -10.188,-0.268 -15.018,0.086Zm78.319,21.756l21.359,10.093c3.776,1.784 6.237,5.171 6.237,8.968l0,73.242c0,3.797 -2.464,7.181 -6.237,8.965l-77.496,36.621c-3.721,1.761 -8.361,1.761 -12.082,0l-13.934,-6.584l0.331,-0.132c3.189,-1.275 4.925,-4.633 4.264,-7.887l14.308,6.761c0.665,0.313 1.477,0.313 2.145,0l77.496,-36.621c0.627,-0.296 0.882,-0.765 0.882,-1.122l0,-28.42c1.396,-1.662 2.541,-3.293 3.393,-4.853c0.996,-1.825 1.129,-3.998 0.364,-5.931l-3.756,-9.485l0,-24.553c0,-0.357 -0.255,-0.826 -0.882,-1.122l-11.424,-5.398l-4.966,-12.541Z" style="fill:#189caa;stroke:#189caa;stroke-width:0.5px;"/><path id="Chequered-Flag2" serif:id="Chequered Flag" d="M159.304,32.54c-9.51,8.893 -21.015,12.573 -33.747,15.333l7.823,28.978c3.989,-0.766 7.21,-1.687 11.965,-3.526l-8.59,-23.458c8.437,-2.3 14.572,-5.367 20.556,-9.66l8.744,21.773c-7.363,5.826 -13.346,8.892 -20.709,11.346l9.358,25.912c9.357,-4.293 15.032,-8.28 20.708,-13.8l7.977,20.24c-4.295,5.826 -12.886,11.959 -20.556,15.945l-8.13,-22.385c-3.528,1.84 -9.358,4.14 -13.806,5.366l-30.679,-68.996c-26.077,-1.533 -47.553,6.134 -62.893,19.933l36.815,93.529c13.806,-18.399 46.019,-38.331 56.756,-38.331c7.67,0 3.068,9.199 -6.135,18.552c13.806,-20.852 -7.671,-10.886 -15.34,-2.453c9.204,20.699 59.824,-3.833 69.029,-20.699l-29.146,-73.597Zm-52.155,7.666l9.204,19.933c-9.971,0.767 -19.942,3.067 -27.612,6.133l12.272,28.366c7.517,-3.22 18.254,-6.9 26.844,-7.974l8.897,19.933c-7.977,1.84 -19.021,8.126 -25.463,12.572l-10.278,-24.531c-9.203,4.6 -18.407,9.813 -26.844,16.866l-11.505,-29.899c7.67,-6.133 15.34,-10.733 26.077,-15.333l-9.204,-22.998c9.204,-3.067 18.408,-3.067 27.611,-3.067Zm-65.193,13.8l-6.903,3.066l42.951,122.661l11.505,-4.6l-47.553,-121.127Z" style="fill:#189caa;fill-rule:nonzero;"/></g></svg>