<?xml version="1.0" encoding="UTF-8" standalone="no"?><!DOCTYPE svg PUBLIC "-//W3C//DTD SVG 1.1//EN" "http://www.w3.org/Graphics/SVG/1.1/DTD/svg11.dtd"><svg width="100%" height="100%" viewBox="0 0 224 212" version="1.1" xmlns="http://www.w3.org/2000/svg" xmlns:xlink="http://www.w3.org/1999/xlink" xml:space="preserve" xmlns:serif="http://www.serif.com/" style="fill-rule:evenodd;clip-rule:evenodd;stroke-linejoin:round;stroke-miterlimit:2;"><rect id="Chicken-Leg" serif:id="Chicken Leg" x="0" y="0.384" width="223.502" height="211.507" style="fill:none;"/><g id="Chicken-Leg1" serif:id="Chicken Leg"><path id="Hex" d="M44.445,159.399l-16.234,-7.671c-3.776,-1.784 -6.234,-5.168 -6.234,-8.965l0,-73.242c0,-3.797 2.458,-7.184 6.234,-8.968l77.499,-36.621c1.878,-0.888 3.961,-1.327 6.038,-1.327c2.074,0 4.166,0.439 6.044,1.327l16.456,7.776c-4.433,0.747 -8.849,2.078 -13.123,3.993l-8.302,-3.923c-0.328,-0.155 -0.697,-0.237 -1.075,-0.237c-0.375,0 -0.741,0.082 -1.069,0.237l-77.496,36.621c-0.627,0.296 -0.882,0.765 -0.882,1.122l0,73.242c0,0.357 0.255,0.826 0.882,1.122l3.704,1.75c0.896,5.425 3.638,10.236 7.558,13.764Zm137.556,-105.125l13.288,6.279c3.776,1.784 6.237,5.171 6.237,8.968l0,73.242c0,3.797 -2.464,7.181 -6.237,8.965l-77.496,36.621c-3.721,1.761 -8.361,1.761 -12.082,0l-19.523,-9.226c3.218,-1.502 5.967,-3.7 8.139,-6.345l16.353,7.728c0.665,0.313 1.477,0.313 2.145,0l77.496,-36.621c0.627,-0.296 0.882,-0.765 0.882,-1.122l0,-73.242c0,-0.357 -0.255,-0.826 -0.882,-1.122l-4.228,-1.998c-0.784,-4.232 -2.147,-8.316 -4.091,-12.127Z" style="fill:#189caa;stroke:#189caa;stroke-width:0.5px;"/><path id="Chicken" d="M169.312,48.568c-15.592,-15.588 -42.672,-13.786 -60.49,4.032c-19.05,19.05 -10.752,33.975 -19.337,43.607c-5.215,5.853 -7.489,13.328 -6.745,20.253l-12.164,12.105c-10.718,-8.444 -27.006,-0.92 -27.006,13.191c0,8.926 7.027,16.245 15.841,16.713c0.467,8.814 7.787,15.841 16.713,15.841c14.029,0 21.664,-16.221 13.206,-26.992l12.222,-12.169c6.886,0.701 14.302,-1.573 20.116,-6.749c9.568,-8.522 24.582,-0.312 43.612,-19.342c17.818,-17.817 19.62,-44.898 4.032,-60.49Zm-90.476,95.453c-2.236,2.221 -1.797,5.96 0.901,7.606c6.116,3.73 3.355,12.944 -3.613,12.944c-4.958,0 -8.639,-5.196 -6.243,-10.051c2.045,-4.148 -2.347,-8.565 -6.52,-6.52c-4.86,2.405 -10.051,-1.368 -10.051,-6.243c0,-6.968 9.214,-9.729 12.944,-3.613c1.607,2.635 5.322,3.18 7.591,0.916l12.622,-12.568c1.655,2.347 2.459,3.204 4.986,4.972l-12.616,12.558Zm63.922,-86.581c-7.134,0 -14.487,3.258 -20.164,8.931c-4.514,4.514 -11.448,-2.328 -6.886,-6.886c7.495,-7.489 17.351,-11.784 27.05,-11.784c6.438,0 6.448,9.739 0,9.739Z" style="fill:#189caa;fill-rule:nonzero;"/></g></svg>