<?xml version="1.0" encoding="UTF-8" standalone="no"?><!DOCTYPE svg PUBLIC "-//W3C//DTD SVG 1.1//EN" "http://www.w3.org/Graphics/SVG/1.1/DTD/svg11.dtd"><svg width="100%" height="100%" viewBox="0 0 224 212" version="1.1" xmlns="http://www.w3.org/2000/svg" xmlns:xlink="http://www.w3.org/1999/xlink" xml:space="preserve" xmlns:serif="http://www.serif.com/" style="fill-rule:evenodd;clip-rule:evenodd;stroke-linejoin:round;stroke-miterlimit:2;"><rect id="Clapperboard" x="0" y="0.384" width="223.502" height="211.507" style="fill:none;"/><path id="path4-40-0" d="M47.193,160.449l-18.737,-8.854c-3.765,-1.779 -6.216,-5.153 -6.216,-8.939l0,-73.028c0,-3.786 2.451,-7.163 6.216,-8.942l77.272,-36.514c1.872,-0.885 3.949,-1.323 6.02,-1.323c2.068,0 4.154,0.438 6.026,1.323l26.171,12.367l-13.829,3.629l-17.297,-8.174c-0.327,-0.155 -0.695,-0.237 -1.072,-0.237c-0.374,0 -0.739,0.082 -1.066,0.237l-77.269,36.514c-0.625,0.295 -0.879,0.762 -0.879,1.119l0,73.028c0,0.356 0.254,0.824 0.879,1.119l12.204,5.767l0,3.166c0,2.748 0.561,5.364 1.576,7.741Zm126.65,-109.78l21.201,10.019c3.765,1.779 6.219,5.156 6.219,8.942l0,73.028c0,3.786 -2.457,7.16 -6.219,8.939l-22.739,10.746c1.596,-2.848 2.506,-6.134 2.506,-9.632l0,-1.713l15.279,-7.22c0.625,-0.295 0.879,-0.762 0.879,-1.119l0,-73.028c0,-0.356 -0.254,-0.824 -0.879,-1.119l-18.533,-8.758c1.551,-2.715 2.377,-5.848 2.286,-9.084Zm-22.892,121.763l-33.176,15.677c-3.71,1.756 -8.337,1.756 -12.047,0l-33.177,-15.677l21.503,0l16.628,7.858c0.663,0.313 1.472,0.313 2.138,0l16.628,-7.858l21.502,0Z" style="fill:#189caa;stroke:#189caa;stroke-width:0.5px;"/><g><path d="M160.552,76.796l-86.966,0l6.909,6.911c1.122,1.122 1.736,2.641 1.736,4.234l0,4.559c0,1.085 -0.29,2.099 -0.796,2.967l79.116,0c5.136,0 9.333,-4.197 9.333,-9.335c0,-5.138 -4.197,-9.336 -9.333,-9.336Zm-56.506,15.812l-9.442,0l7.67,-13.026l9.442,0l-7.669,13.026Zm57.012,-12.953l-7.633,12.953l7.09,0l-41.24,0l7.669,-13.026l9.442,0l-7.67,13.026l15.266,0l7.669,-13.026l8.863,0c0.29,0 0.543,0.036 0.796,0.036l-0.253,0.036Z" style="fill:#189caa;fill-rule:nonzero;"/><path d="M53.617,98.434l0,54.274c0,6.477 5.246,11.723 11.721,11.723l89.751,0c6.475,0 11.721,-5.246 11.721,-11.723l0,-54.274l-113.193,0Z" style="fill:#189caa;fill-rule:nonzero;"/><path d="M107.338,73.722l51.55,-13.532c4.956,-1.303 7.959,-6.405 6.656,-11.398c-1.085,-4.088 -4.775,-6.947 -9.007,-6.947c-0.796,0 -1.592,0.109 -2.387,0.29l-92.79,24.351c1.375,0.108 2.677,0.724 3.69,1.736l5.499,5.5l36.79,0Zm47.499,-28.838l-6.874,1.809l10.672,10.602l0.29,-0.073c-0.253,0.108 -0.506,0.181 -0.759,0.253l-8.574,2.244l-10.708,-10.638l-6.656,1.736l22.61,-5.934Zm-30.749,8.069l10.708,10.638l-9.116,2.388l-10.708,-10.638l9.116,-2.388Zm-23.912,6.26l10.708,10.638l-9.116,2.387l-10.708,-10.638l9.116,-2.387Z" style="fill:#189caa;fill-rule:nonzero;"/><path d="M78.072,86.059l-15.447,-15.45c-0.471,-0.47 -1.157,-0.759 -1.845,-0.759l-4.558,0c-1.447,0 -2.605,1.157 -2.605,2.605l0,20.009c0,1.448 1.158,2.605 2.605,2.605l20.041,0c1.447,0 2.604,-1.157 2.604,-2.605l0,-4.559c-0.036,-0.687 -0.29,-1.339 -0.796,-1.846Z" style="fill:#189caa;fill-rule:nonzero;"/></g></svg>