<?xml version="1.0" encoding="UTF-8" standalone="no"?><!DOCTYPE svg PUBLIC "-//W3C//DTD SVG 1.1//EN" "http://www.w3.org/Graphics/SVG/1.1/DTD/svg11.dtd"><svg width="100%" height="100%" viewBox="0 0 224 212" version="1.1" xmlns="http://www.w3.org/2000/svg" xmlns:xlink="http://www.w3.org/1999/xlink" xml:space="preserve" xmlns:serif="http://www.serif.com/" style="fill-rule:evenodd;clip-rule:evenodd;stroke-linejoin:round;stroke-miterlimit:2;"><rect id="Clock" x="0" y="0.384" width="223.502" height="211.507" style="fill:none;"/><path id="Hex" d="M53.183,163.528l-24.972,-11.8c-3.776,-1.784 -6.234,-5.168 -6.234,-8.965l0,-73.242c0,-3.797 2.458,-7.184 6.234,-8.968l24.96,-11.794c-0.741,0.756 -1.467,1.526 -2.178,2.311c-0.9,0.993 -1.775,2.008 -2.626,3.044l-0.003,0.003c-0.852,1.037 -1.677,2.096 -2.477,3.174c-0.799,1.078 -1.571,2.173 -2.315,3.288c-0.747,1.116 -1.466,2.252 -2.155,3.403c-0.145,0.243 -0.289,0.486 -0.432,0.73l-7.802,3.687c-0.627,0.296 -0.882,0.765 -0.882,1.122l-0,16.328c-0.031,0.121 -0.062,0.242 -0.092,0.364c-0.326,1.302 -0.62,2.611 -0.882,3.927c-0.262,1.317 -0.492,2.64 -0.688,3.968c-0.197,1.327 -0.362,2.658 -0.493,3.994c-0.131,1.335 -0.229,2.672 -0.296,4.012c-0.066,1.341 -0.099,2.683 -0.099,4.026c0,1.342 0.033,2.684 0.099,4.026c0.066,1.34 0.164,2.677 0.296,4.011c0.131,1.336 0.296,2.667 0.493,3.994c0.197,1.328 0.426,2.651 0.688,3.968c0.262,1.316 0.556,2.625 0.882,3.927c0.03,0.121 0.061,0.242 0.092,0.363l0,16.337c0,0.357 0.255,0.826 0.882,1.122l7.809,3.69c0.14,0.239 0.282,0.478 0.424,0.717c0.69,1.152 1.408,2.287 2.155,3.403c0.745,1.115 1.516,2.211 2.315,3.288c0.799,1.078 1.625,2.136 2.476,3.174l0.003,0.003c0.851,1.036 1.726,2.05 2.626,3.044c0.715,0.789 1.445,1.563 2.19,2.323Zm51.436,-139.08l1.091,-0.516c1.878,-0.888 3.961,-1.327 6.038,-1.327c2.074,0 4.166,0.439 6.044,1.327l1.111,0.525c-1.039,-0.092 -2.08,-0.165 -3.123,-0.217c-1.339,-0.067 -2.678,-0.101 -4.019,-0.103l-0.01,-0c-1.342,0 -2.684,0.033 -4.026,0.099c-1.037,0.051 -2.073,0.121 -3.107,0.212Zm65.624,24.27l25.046,11.835c3.776,1.784 6.237,5.171 6.237,8.968l0,73.242c0,3.797 -2.464,7.181 -6.237,8.965l-24.967,11.798c0.745,-0.76 1.474,-1.533 2.188,-2.322c0.9,-0.993 1.775,-2.008 2.626,-3.044l0.003,-0.003c0.852,-1.037 1.677,-2.096 2.477,-3.174c0.799,-1.078 1.571,-2.173 2.315,-3.288c0.747,-1.116 1.466,-2.252 2.155,-3.403c0.143,-0.238 0.284,-0.477 0.424,-0.717l7.809,-3.69c0.627,-0.296 0.882,-0.765 0.882,-1.122l0,-16.337c0.031,-0.121 0.062,-0.242 0.092,-0.363c0.326,-1.302 0.62,-2.612 0.882,-3.927c0.262,-1.317 0.492,-2.64 0.688,-3.968c0.197,-1.327 0.362,-2.658 0.493,-3.994c0.131,-1.335 0.229,-2.672 0.296,-4.012c0.066,-1.341 0.099,-2.683 0.099,-4.026l-0,-0.01c-0.002,-1.341 -0.036,-2.68 -0.103,-4.019c-0.067,-1.34 -0.168,-2.677 -0.3,-4.011c-0.132,-1.334 -0.298,-2.666 -0.496,-3.993c-0.198,-1.327 -0.428,-2.649 -0.691,-3.965c-0.263,-1.314 -0.558,-2.621 -0.884,-3.921l-0.001,-0.005c-0.025,-0.098 -0.049,-0.195 -0.074,-0.293l0,-16.401c0,-0.357 -0.255,-0.826 -0.882,-1.122l-7.852,-3.71c-0.135,-0.231 -0.272,-0.461 -0.409,-0.69c-0.69,-1.151 -1.409,-2.285 -2.155,-3.401c-0.745,-1.114 -1.516,-2.21 -2.316,-3.287c-0.799,-1.078 -1.624,-2.135 -2.476,-3.172c-0.851,-1.037 -1.727,-2.052 -2.628,-3.045c-0.731,-0.808 -1.479,-1.6 -2.242,-2.377Zm-51.342,139.108l-1.108,0.524c-3.721,1.761 -8.361,1.761 -12.082,0l-1.109,-0.524c1.04,0.091 2.081,0.162 3.124,0.213c1.341,0.066 2.683,0.099 4.026,0.099c1.342,0 2.684,-0.033 4.026,-0.099c1.043,-0.052 2.084,-0.122 3.124,-0.213Z" style="fill:#189caa;stroke:#189caa;stroke-width:0.5px;"/><g id="Clock1" serif:id="Clock"><path d="M156.069,134.933c-0.157,-0.091 -0.305,-0.197 -0.442,-0.317c-0.137,-0.12 -0.261,-0.252 -0.373,-0.397c-0.111,-0.145 -0.207,-0.299 -0.288,-0.463c-0.08,-0.164 -0.145,-0.334 -0.192,-0.509c-0.047,-0.176 -0.077,-0.355 -0.089,-0.538c-0.013,-0.182 -0.006,-0.363 0.017,-0.544c0.024,-0.181 0.065,-0.357 0.124,-0.53c0.059,-0.173 0.134,-0.338 0.224,-0.496c0.091,-0.158 0.197,-0.306 0.317,-0.443c0.12,-0.137 0.253,-0.261 0.398,-0.372c0.145,-0.111 0.298,-0.207 0.462,-0.288c0.164,-0.08 0.334,-0.144 0.51,-0.192c0.176,-0.047 0.355,-0.077 0.537,-0.089c0.183,-0.012 0.363,-0.006 0.544,0.018c0.181,0.024 0.358,0.065 0.531,0.123c0.173,0.059 0.338,0.134 0.496,0.225l4.708,2.718c0.955,-1.85 1.808,-3.745 2.558,-5.687c0.751,-1.941 1.393,-3.918 1.931,-5.929c0.537,-2.011 0.965,-4.046 1.282,-6.103c0.317,-2.057 0.524,-4.125 0.618,-6.205l-5.414,0c-0.183,0 -0.363,-0.018 -0.542,-0.053c-0.179,-0.035 -0.353,-0.089 -0.522,-0.158c-0.168,-0.07 -0.328,-0.156 -0.48,-0.257c-0.151,-0.101 -0.292,-0.216 -0.42,-0.345c-0.129,-0.128 -0.244,-0.269 -0.345,-0.42c-0.101,-0.152 -0.187,-0.312 -0.257,-0.48c-0.07,-0.169 -0.123,-0.343 -0.158,-0.522c-0.035,-0.179 -0.053,-0.359 -0.053,-0.542c0,-0.183 0.018,-0.363 0.053,-0.542c0.035,-0.179 0.089,-0.353 0.158,-0.522c0.07,-0.168 0.156,-0.328 0.257,-0.48c0.101,-0.151 0.216,-0.292 0.345,-0.42c0.128,-0.129 0.269,-0.244 0.42,-0.345c0.152,-0.101 0.312,-0.187 0.48,-0.257c0.169,-0.07 0.343,-0.123 0.522,-0.158c0.178,-0.035 0.359,-0.053 0.542,-0.053l5.414,0c-0.094,-2.08 -0.3,-4.148 -0.618,-6.205c-0.317,-2.057 -0.745,-4.092 -1.282,-6.103c-0.537,-2.011 -1.18,-3.988 -1.931,-5.929c-0.751,-1.941 -1.603,-3.837 -2.558,-5.687l-4.707,2.718c-0.158,0.091 -0.324,0.166 -0.496,0.225c-0.173,0.058 -0.35,0.099 -0.531,0.123c-0.181,0.024 -0.362,0.03 -0.544,0.018c-0.182,-0.012 -0.361,-0.042 -0.537,-0.089c-0.176,-0.048 -0.346,-0.111 -0.51,-0.193c-0.164,-0.08 -0.317,-0.176 -0.462,-0.288c-0.145,-0.11 -0.278,-0.235 -0.398,-0.372c-0.12,-0.137 -0.226,-0.285 -0.316,-0.443c-0.091,-0.158 -0.166,-0.324 -0.225,-0.496c-0.059,-0.173 -0.099,-0.349 -0.124,-0.53c-0.024,-0.181 -0.03,-0.363 -0.017,-0.544c0.012,-0.183 0.042,-0.362 0.089,-0.538c0.047,-0.175 0.111,-0.345 0.192,-0.509c0.08,-0.164 0.176,-0.318 0.288,-0.463c0.111,-0.145 0.235,-0.277 0.373,-0.397c0.137,-0.12 0.285,-0.226 0.443,-0.317l4.698,-2.713c-1.128,-1.749 -2.346,-3.432 -3.653,-5.052c-1.308,-1.619 -2.696,-3.165 -4.168,-4.636c-1.471,-1.471 -3.016,-2.861 -4.636,-4.168c-1.619,-1.307 -3.303,-2.525 -5.052,-3.653l-2.713,4.7c-0.091,0.158 -0.197,0.306 -0.317,0.443c-0.12,0.137 -0.252,0.261 -0.397,0.373c-0.145,0.111 -0.299,0.207 -0.463,0.288c-0.164,0.08 -0.334,0.145 -0.51,0.192c-0.175,0.048 -0.355,0.077 -0.537,0.09c-0.182,0.012 -0.363,0.005 -0.544,-0.018c-0.181,-0.024 -0.358,-0.065 -0.531,-0.124c-0.173,-0.058 -0.338,-0.133 -0.496,-0.224c-0.158,-0.091 -0.306,-0.197 -0.443,-0.317c-0.137,-0.12 -0.261,-0.253 -0.373,-0.398c-0.111,-0.145 -0.207,-0.299 -0.288,-0.463c-0.08,-0.164 -0.145,-0.334 -0.192,-0.51c-0.047,-0.176 -0.077,-0.355 -0.089,-0.537c-0.012,-0.183 -0.006,-0.363 0.018,-0.544c0.024,-0.182 0.065,-0.358 0.124,-0.531c0.059,-0.173 0.134,-0.338 0.225,-0.496l2.718,-4.709c-1.849,-0.955 -3.745,-1.808 -5.687,-2.558c-1.941,-0.751 -3.918,-1.393 -5.929,-1.931c-2.011,-0.537 -4.046,-0.965 -6.103,-1.282c-2.057,-0.317 -4.125,-0.524 -6.205,-0.618l0,5.414c0,0.183 -0.018,0.363 -0.053,0.542c-0.035,0.179 -0.089,0.353 -0.158,0.522c-0.07,0.168 -0.156,0.328 -0.257,0.48c-0.101,0.151 -0.216,0.292 -0.345,0.42c-0.128,0.129 -0.269,0.244 -0.42,0.345c-0.152,0.101 -0.312,0.187 -0.48,0.257c-0.169,0.07 -0.343,0.123 -0.522,0.158c-0.179,0.035 -0.359,0.053 -0.542,0.053c-0.183,0 -0.363,-0.018 -0.542,-0.053c-0.179,-0.035 -0.353,-0.089 -0.522,-0.158c-0.168,-0.07 -0.328,-0.156 -0.48,-0.257c-0.151,-0.101 -0.292,-0.216 -0.42,-0.345c-0.129,-0.128 -0.244,-0.269 -0.345,-0.42c-0.101,-0.152 -0.187,-0.312 -0.257,-0.48c-0.07,-0.169 -0.123,-0.343 -0.158,-0.522c-0.035,-0.179 -0.053,-0.359 -0.053,-0.542l0,-5.414c-2.08,0.094 -4.148,0.3 -6.205,0.618c-2.057,0.317 -4.092,0.745 -6.103,1.282c-2.011,0.537 -3.988,1.18 -5.929,1.931c-1.941,0.751 -3.838,1.603 -5.687,2.558l2.718,4.709c0.091,0.158 0.166,0.324 0.225,0.496c0.058,0.173 0.099,0.349 0.123,0.53c0.024,0.181 0.03,0.363 0.018,0.544c-0.012,0.183 -0.042,0.362 -0.089,0.538c-0.048,0.175 -0.111,0.345 -0.192,0.509c-0.081,0.164 -0.177,0.318 -0.288,0.463c-0.11,0.145 -0.235,0.277 -0.372,0.397c-0.137,0.12 -0.285,0.226 -0.443,0.317c-0.158,0.091 -0.324,0.166 -0.496,0.225c-0.173,0.058 -0.349,0.099 -0.53,0.123c-0.181,0.024 -0.363,0.03 -0.544,0.018c-0.183,-0.012 -0.362,-0.042 -0.537,-0.089c-0.176,-0.048 -0.346,-0.111 -0.51,-0.192c-0.164,-0.081 -0.318,-0.177 -0.463,-0.288c-0.145,-0.11 -0.277,-0.235 -0.397,-0.372c-0.12,-0.137 -0.226,-0.285 -0.317,-0.443l-2.713,-4.7c-1.749,1.128 -3.432,2.346 -5.052,3.653c-1.619,1.308 -3.165,2.697 -4.636,4.168c-1.472,1.471 -2.861,3.016 -4.168,4.636c-1.307,1.619 -2.525,3.303 -3.653,5.052l4.698,2.713c0.158,0.091 0.306,0.197 0.443,0.317c0.137,0.12 0.261,0.252 0.373,0.397c0.111,0.145 0.207,0.299 0.288,0.463c0.08,0.164 0.145,0.334 0.192,0.51c0.047,0.175 0.077,0.354 0.089,0.537c0.013,0.182 0.006,0.363 -0.017,0.544c-0.024,0.181 -0.065,0.357 -0.124,0.53c-0.059,0.173 -0.134,0.338 -0.225,0.496c-0.09,0.158 -0.196,0.306 -0.316,0.443c-0.12,0.137 -0.253,0.261 -0.398,0.372c-0.145,0.111 -0.298,0.207 -0.462,0.288c-0.164,0.08 -0.334,0.144 -0.51,0.192c-0.176,0.047 -0.355,0.077 -0.537,0.089c-0.183,0.012 -0.363,0.006 -0.544,-0.018c-0.181,-0.024 -0.358,-0.065 -0.531,-0.123c-0.173,-0.059 -0.338,-0.134 -0.496,-0.225l-4.707,-2.718c-0.955,1.85 -1.808,3.745 -2.558,5.687c-0.751,1.941 -1.393,3.918 -1.931,5.929c-0.537,2.011 -0.965,4.046 -1.282,6.103c-0.317,2.057 -0.524,4.125 -0.618,6.205l5.414,0c0.183,0 0.363,0.018 0.542,0.053c0.179,0.035 0.353,0.089 0.522,0.158c0.168,0.07 0.328,0.156 0.48,0.257c0.151,0.101 0.292,0.216 0.42,0.345c0.129,0.128 0.244,0.269 0.345,0.42c0.101,0.152 0.187,0.312 0.257,0.48c0.07,0.169 0.123,0.343 0.158,0.522c0.035,0.179 0.053,0.359 0.053,0.542c0,0.183 -0.018,0.363 -0.053,0.542c-0.035,0.179 -0.089,0.353 -0.158,0.522c-0.07,0.168 -0.156,0.328 -0.257,0.48c-0.101,0.151 -0.216,0.292 -0.345,0.42c-0.128,0.129 -0.269,0.244 -0.42,0.345c-0.152,0.101 -0.312,0.187 -0.48,0.257c-0.169,0.07 -0.343,0.123 -0.522,0.158c-0.179,0.035 -0.359,0.053 -0.542,0.053l-5.414,0c0.094,2.08 0.3,4.148 0.618,6.205c0.317,2.057 0.745,4.092 1.282,6.103c0.537,2.011 1.18,3.988 1.931,5.929c0.751,1.941 1.603,3.837 2.558,5.687l4.707,-2.718c0.158,-0.091 0.324,-0.165 0.496,-0.224c0.173,-0.059 0.35,-0.099 0.53,-0.123c0.181,-0.024 0.363,-0.03 0.544,-0.018c0.182,0.013 0.361,0.042 0.537,0.09c0.176,0.047 0.346,0.111 0.51,0.192c0.163,0.08 0.317,0.176 0.462,0.288c0.145,0.111 0.277,0.235 0.397,0.373c0.12,0.137 0.226,0.284 0.317,0.442c0.09,0.158 0.165,0.323 0.224,0.496c0.059,0.173 0.099,0.35 0.124,0.531c0.024,0.181 0.03,0.362 0.018,0.543c-0.013,0.183 -0.042,0.362 -0.089,0.538c-0.047,0.175 -0.111,0.345 -0.192,0.509c-0.08,0.164 -0.176,0.317 -0.288,0.462c-0.111,0.145 -0.235,0.278 -0.372,0.398c-0.137,0.12 -0.285,0.226 -0.443,0.317l-4.698,2.713c1.128,1.749 2.346,3.432 3.653,5.052c1.308,1.619 2.696,3.165 4.168,4.636c1.471,1.471 3.016,2.861 4.636,4.168c1.619,1.307 3.303,2.525 5.052,3.653l2.713,-4.7c0.091,-0.158 0.197,-0.306 0.317,-0.443c0.12,-0.137 0.252,-0.261 0.397,-0.372c0.145,-0.111 0.299,-0.207 0.463,-0.288c0.164,-0.08 0.334,-0.144 0.509,-0.192c0.176,-0.047 0.355,-0.077 0.538,-0.089c0.182,-0.012 0.363,-0.006 0.544,0.018c0.181,0.024 0.357,0.065 0.53,0.123c0.173,0.059 0.338,0.134 0.496,0.225c0.158,0.091 0.306,0.197 0.443,0.317c0.137,0.12 0.261,0.252 0.372,0.397c0.111,0.145 0.207,0.299 0.288,0.463c0.081,0.164 0.145,0.334 0.193,0.51c0.047,0.175 0.077,0.354 0.089,0.537c0.012,0.182 0.006,0.363 -0.018,0.544c-0.024,0.181 -0.065,0.357 -0.123,0.53c-0.059,0.173 -0.134,0.338 -0.225,0.496l-2.718,4.709c1.849,0.955 3.745,1.808 5.687,2.558c1.941,0.751 3.918,1.393 5.929,1.931c2.011,0.537 4.046,0.965 6.103,1.282c2.057,0.317 4.125,0.524 6.205,0.618l0,-5.414c0,-0.183 0.018,-0.363 0.053,-0.542c0.035,-0.179 0.089,-0.353 0.158,-0.522c0.07,-0.168 0.156,-0.328 0.257,-0.48c0.101,-0.151 0.216,-0.292 0.345,-0.42c0.128,-0.129 0.269,-0.244 0.42,-0.345c0.152,-0.101 0.312,-0.187 0.48,-0.257c0.169,-0.07 0.343,-0.123 0.522,-0.158c0.179,-0.035 0.359,-0.053 0.542,-0.053c0.183,0 0.363,0.018 0.542,0.053c0.179,0.035 0.353,0.089 0.522,0.158c0.168,0.07 0.328,0.156 0.48,0.257c0.151,0.101 0.292,0.216 0.42,0.345c0.129,0.128 0.244,0.269 0.345,0.42c0.101,0.152 0.187,0.312 0.257,0.48c0.07,0.169 0.123,0.343 0.158,0.522c0.035,0.179 0.053,0.359 0.053,0.542l0,5.414c2.08,-0.094 4.148,-0.3 6.205,-0.618c2.057,-0.317 4.092,-0.745 6.103,-1.282c2.011,-0.537 3.988,-1.18 5.929,-1.931c1.941,-0.751 3.838,-1.603 5.687,-2.558l-2.718,-4.709c-0.091,-0.158 -0.166,-0.324 -0.225,-0.496c-0.058,-0.173 -0.099,-0.349 -0.123,-0.53c-0.024,-0.181 -0.03,-0.363 -0.018,-0.544c0.012,-0.183 0.042,-0.362 0.089,-0.537c0.047,-0.176 0.111,-0.346 0.192,-0.51c0.081,-0.164 0.177,-0.318 0.288,-0.463c0.11,-0.145 0.235,-0.277 0.372,-0.397c0.137,-0.12 0.285,-0.226 0.443,-0.317c0.158,-0.091 0.324,-0.166 0.496,-0.225c0.173,-0.058 0.349,-0.099 0.53,-0.123c0.181,-0.024 0.363,-0.03 0.544,-0.018c0.183,0.012 0.362,0.042 0.537,0.089c0.176,0.048 0.346,0.111 0.51,0.192c0.164,0.081 0.318,0.177 0.463,0.288c0.145,0.11 0.277,0.235 0.397,0.372c0.12,0.137 0.226,0.285 0.317,0.443l2.713,4.7c1.749,-1.128 3.432,-2.346 5.052,-3.653c1.619,-1.308 3.165,-2.697 4.636,-4.168c1.472,-1.471 2.861,-3.016 4.168,-4.636c1.307,-1.619 2.525,-3.303 3.653,-5.052l-4.699,-2.713Zm-19.74,-13.433c-0.096,0.155 -0.207,0.298 -0.332,0.431c-0.125,0.133 -0.262,0.252 -0.411,0.358c-0.148,0.106 -0.306,0.196 -0.472,0.271c-0.166,0.074 -0.338,0.132 -0.516,0.174c-0.178,0.041 -0.358,0.064 -0.54,0.07c-0.183,0.005 -0.363,-0.007 -0.543,-0.037c-0.18,-0.031 -0.355,-0.078 -0.525,-0.143c-0.171,-0.065 -0.334,-0.146 -0.488,-0.242l-22.222,-13.889c-0.199,-0.125 -0.381,-0.272 -0.543,-0.443c-0.162,-0.171 -0.3,-0.359 -0.415,-0.565c-0.114,-0.206 -0.201,-0.423 -0.26,-0.651c-0.059,-0.228 -0.089,-0.46 -0.089,-0.695l0,-30.556c0,-0.183 0.018,-0.363 0.053,-0.542c0.035,-0.179 0.089,-0.353 0.158,-0.522c0.07,-0.168 0.156,-0.328 0.257,-0.48c0.101,-0.151 0.216,-0.292 0.345,-0.42c0.128,-0.129 0.269,-0.244 0.42,-0.345c0.152,-0.101 0.312,-0.187 0.48,-0.257c0.169,-0.07 0.343,-0.123 0.522,-0.158c0.179,-0.035 0.359,-0.053 0.542,-0.053c0.183,0 0.363,0.018 0.542,0.053c0.179,0.035 0.353,0.089 0.522,0.158c0.168,0.07 0.328,0.156 0.48,0.257c0.151,0.101 0.292,0.216 0.42,0.345c0.129,0.128 0.244,0.269 0.345,0.42c0.101,0.152 0.187,0.312 0.257,0.48c0.07,0.169 0.123,0.343 0.158,0.522c0.035,0.179 0.053,0.359 0.053,0.542l0,29.015l20.917,13.075c0.155,0.097 0.298,0.207 0.431,0.332c0.133,0.126 0.252,0.262 0.358,0.411c0.106,0.148 0.196,0.306 0.271,0.472c0.075,0.166 0.133,0.338 0.175,0.516c0.041,0.177 0.064,0.357 0.07,0.54c0.005,0.183 -0.006,0.363 -0.037,0.543c-0.03,0.18 -0.077,0.355 -0.142,0.525c-0.064,0.171 -0.146,0.334 -0.242,0.488Z" style="fill:#189caa;fill-rule:nonzero;"/><path d="M111.751,31.138c-1.227,0 -2.454,0.03 -3.68,0.09c-1.226,0.061 -2.45,0.15 -3.671,0.27c-1.222,0.12 -2.44,0.271 -3.653,0.451c-1.214,0.18 -2.423,0.39 -3.628,0.629c-1.204,0.24 -2.401,0.508 -3.592,0.807c-1.191,0.298 -2.373,0.626 -3.547,0.982c-1.175,0.356 -2.34,0.741 -3.496,1.155c-1.156,0.413 -2.3,0.854 -3.434,1.325c-1.134,0.469 -2.256,0.967 -3.366,1.492c-1.109,0.524 -2.205,1.076 -3.289,1.655c-1.082,0.579 -2.149,1.184 -3.203,1.815c-1.053,0.63 -2.09,1.287 -3.11,1.969c-1.021,0.682 -2.024,1.388 -3.01,2.12c-0.986,0.731 -1.953,1.486 -2.902,2.264c-0.949,0.779 -1.878,1.581 -2.788,2.405c-0.91,0.824 -1.798,1.67 -2.666,2.538c-0.868,0.868 -1.714,1.756 -2.538,2.666c-0.825,0.91 -1.626,1.839 -2.405,2.788c-0.779,0.949 -1.534,1.916 -2.264,2.902c-0.732,0.987 -1.438,1.989 -2.12,3.01c-0.683,1.02 -1.339,2.057 -1.969,3.11c-0.631,1.053 -1.236,2.12 -1.815,3.203c-0.579,1.083 -1.13,2.179 -1.655,3.289c-0.525,1.109 -1.023,2.232 -1.492,3.366c-0.47,1.134 -0.911,2.279 -1.325,3.434c-0.414,1.156 -0.798,2.321 -1.155,3.496c-0.357,1.175 -0.684,2.356 -0.982,3.547c-0.298,1.191 -0.567,2.388 -0.807,3.592c-0.24,1.204 -0.449,2.413 -0.629,3.628c-0.18,1.213 -0.331,2.431 -0.451,3.653c-0.12,1.222 -0.21,2.445 -0.27,3.671c-0.061,1.226 -0.09,2.453 -0.09,3.68c0,1.227 0.03,2.454 0.09,3.68c0.061,1.226 0.15,2.45 0.27,3.671c0.12,1.222 0.271,2.44 0.451,3.653c0.18,1.214 0.39,2.423 0.629,3.628c0.24,1.204 0.508,2.401 0.807,3.592c0.298,1.19 0.625,2.373 0.982,3.547c0.356,1.175 0.741,2.34 1.155,3.496c0.413,1.156 0.854,2.3 1.325,3.434c0.469,1.134 0.967,2.256 1.492,3.366c0.524,1.109 1.076,2.205 1.655,3.289c0.579,1.082 1.184,2.149 1.815,3.203c0.63,1.053 1.287,2.09 1.969,3.11c0.682,1.021 1.388,2.024 2.12,3.01c0.731,0.986 1.486,1.953 2.264,2.902c0.779,0.949 1.581,1.878 2.405,2.788c0.824,0.91 1.67,1.798 2.538,2.666c0.868,0.868 1.756,1.714 2.666,2.538c0.91,0.825 1.839,1.626 2.788,2.405c0.949,0.779 1.916,1.534 2.902,2.264c0.987,0.732 1.989,1.438 3.01,2.12c1.02,0.683 2.057,1.339 3.11,1.969c1.053,0.631 2.12,1.236 3.203,1.815c1.083,0.579 2.179,1.13 3.289,1.655c1.109,0.525 2.232,1.023 3.366,1.492c1.134,0.47 2.279,0.911 3.434,1.325c1.156,0.414 2.321,0.798 3.496,1.155c1.175,0.356 2.356,0.684 3.547,0.982c1.191,0.298 2.388,0.567 3.592,0.807c1.204,0.24 2.413,0.449 3.628,0.629c1.213,0.18 2.431,0.331 3.653,0.451c1.222,0.12 2.445,0.21 3.671,0.27c1.226,0.061 2.453,0.09 3.68,0.09c1.227,0 2.454,-0.03 3.68,-0.09c1.226,-0.061 2.45,-0.15 3.671,-0.27c1.222,-0.12 2.44,-0.271 3.653,-0.451c1.214,-0.18 2.423,-0.39 3.628,-0.629c1.204,-0.24 2.401,-0.508 3.592,-0.807c1.19,-0.298 2.373,-0.626 3.547,-0.982c1.175,-0.356 2.34,-0.741 3.496,-1.155c1.156,-0.413 2.3,-0.854 3.434,-1.325c1.134,-0.469 2.256,-0.967 3.366,-1.492c1.109,-0.524 2.205,-1.076 3.289,-1.655c1.082,-0.579 2.149,-1.184 3.203,-1.815c1.053,-0.63 2.09,-1.287 3.11,-1.969c1.021,-0.682 2.024,-1.388 3.01,-2.12c0.986,-0.731 1.953,-1.486 2.902,-2.264c0.949,-0.779 1.878,-1.581 2.788,-2.405c0.91,-0.824 1.798,-1.67 2.666,-2.538c0.868,-0.868 1.714,-1.756 2.538,-2.666c0.825,-0.91 1.626,-1.839 2.405,-2.788c0.779,-0.949 1.534,-1.916 2.264,-2.902c0.732,-0.987 1.438,-1.989 2.12,-3.01c0.683,-1.02 1.339,-2.057 1.969,-3.11c0.631,-1.053 1.236,-2.12 1.815,-3.203c0.579,-1.083 1.13,-2.179 1.655,-3.289c0.525,-1.109 1.023,-2.232 1.492,-3.366c0.47,-1.134 0.911,-2.279 1.325,-3.434c0.414,-1.156 0.798,-2.321 1.155,-3.496c0.356,-1.175 0.684,-2.357 0.982,-3.547c0.298,-1.191 0.567,-2.388 0.807,-3.592c0.24,-1.204 0.449,-2.413 0.629,-3.628c0.18,-1.213 0.331,-2.431 0.451,-3.653c0.12,-1.222 0.21,-2.445 0.27,-3.671c0.061,-1.226 0.09,-2.453 0.09,-3.68c-0.002,-1.227 -0.033,-2.453 -0.094,-3.678c-0.061,-1.226 -0.154,-2.45 -0.275,-3.67c-0.121,-1.221 -0.273,-2.439 -0.454,-3.652c-0.181,-1.213 -0.392,-2.422 -0.632,-3.625c-0.241,-1.204 -0.511,-2.4 -0.809,-3.59c-0.299,-1.19 -0.628,-2.373 -0.985,-3.546c-0.357,-1.174 -0.742,-2.338 -1.157,-3.493c-0.414,-1.156 -0.856,-2.299 -1.326,-3.433c-0.47,-1.133 -0.968,-2.254 -1.493,-3.363c-0.525,-1.109 -1.078,-2.204 -1.657,-3.287c-0.579,-1.081 -1.184,-2.148 -1.815,-3.201c-0.631,-1.053 -1.288,-2.089 -1.97,-3.109c-0.682,-1.02 -1.388,-2.023 -2.12,-3.008c-0.731,-0.986 -1.486,-1.952 -2.264,-2.901c-0.779,-0.949 -1.581,-1.877 -2.404,-2.786c-0.824,-0.91 -1.67,-1.798 -2.537,-2.666c-0.868,-0.867 -1.756,-1.714 -2.666,-2.537c-0.909,-0.824 -1.837,-1.626 -2.786,-2.404c-0.949,-0.779 -1.915,-1.534 -2.901,-2.264c-0.986,-0.732 -1.988,-1.438 -3.008,-2.12c-1.02,-0.683 -2.056,-1.339 -3.109,-1.97c-1.053,-0.631 -2.12,-1.236 -3.201,-1.815c-1.082,-0.579 -2.177,-1.131 -3.287,-1.657c-1.109,-0.525 -2.23,-1.023 -3.363,-1.493c-1.134,-0.47 -2.278,-0.912 -3.433,-1.326c-1.155,-0.414 -2.319,-0.799 -3.493,-1.157c-1.174,-0.357 -2.356,-0.685 -3.546,-0.985c-1.19,-0.298 -2.386,-0.569 -3.59,-0.809c-1.204,-0.241 -2.412,-0.451 -3.625,-0.632c-1.213,-0.181 -2.431,-0.333 -3.652,-0.454c-1.221,-0.121 -2.444,-0.213 -3.67,-0.275c-1.225,-0.061 -2.451,-0.092 -3.678,-0.094Zm0,138.889c-1.045,0 -2.091,-0.025 -3.135,-0.077c-1.044,-0.052 -2.087,-0.128 -3.127,-0.231c-1.041,-0.103 -2.079,-0.231 -3.112,-0.384c-1.034,-0.153 -2.064,-0.332 -3.09,-0.536c-1.025,-0.203 -2.045,-0.433 -3.06,-0.686c-1.015,-0.254 -2.022,-0.533 -3.022,-0.836c-1.001,-0.304 -1.994,-0.632 -2.978,-0.984c-0.985,-0.353 -1.96,-0.729 -2.926,-1.128c-0.966,-0.401 -1.921,-0.824 -2.866,-1.271c-0.946,-0.447 -1.879,-0.917 -2.801,-1.41c-0.922,-0.493 -1.832,-1.008 -2.728,-1.545c-0.897,-0.538 -1.78,-1.097 -2.649,-1.678c-0.87,-0.581 -1.724,-1.183 -2.564,-1.806c-0.84,-0.622 -1.664,-1.266 -2.472,-1.929c-0.808,-0.664 -1.6,-1.346 -2.374,-2.048c-0.774,-0.703 -1.532,-1.423 -2.271,-2.163c-0.74,-0.739 -1.46,-1.496 -2.163,-2.271c-0.702,-0.775 -1.384,-1.566 -2.048,-2.374c-0.663,-0.808 -1.307,-1.632 -1.929,-2.472c-0.623,-0.84 -1.225,-1.695 -1.806,-2.564c-0.581,-0.869 -1.14,-1.752 -1.678,-2.649c-0.537,-0.896 -1.053,-1.806 -1.545,-2.728c-0.493,-0.922 -0.963,-1.855 -1.41,-2.801c-0.448,-0.945 -0.871,-1.901 -1.271,-2.866c-0.4,-0.966 -0.776,-1.941 -1.128,-2.926c-0.352,-0.984 -0.68,-1.977 -0.984,-2.978c-0.303,-1 -0.582,-2.007 -0.836,-3.022c-0.254,-1.015 -0.483,-2.035 -0.686,-3.06c-0.204,-1.025 -0.383,-2.055 -0.536,-3.09c-0.154,-1.034 -0.281,-2.072 -0.384,-3.112c-0.102,-1.04 -0.179,-2.082 -0.231,-3.127c-0.052,-1.044 -0.077,-2.09 -0.077,-3.135c0,-1.045 0.025,-2.091 0.077,-3.135c0.052,-1.044 0.128,-2.087 0.231,-3.127c0.103,-1.041 0.231,-2.079 0.384,-3.112c0.153,-1.034 0.332,-2.064 0.536,-3.09c0.203,-1.025 0.432,-2.045 0.686,-3.06c0.254,-1.015 0.533,-2.022 0.836,-3.022c0.304,-1.001 0.632,-1.994 0.984,-2.978c0.353,-0.985 0.729,-1.96 1.128,-2.926c0.401,-0.966 0.824,-1.921 1.271,-2.866c0.447,-0.946 0.917,-1.879 1.41,-2.801c0.493,-0.922 1.008,-1.832 1.545,-2.728c0.538,-0.897 1.097,-1.78 1.678,-2.649c0.581,-0.87 1.183,-1.724 1.806,-2.564c0.622,-0.84 1.266,-1.664 1.929,-2.472c0.664,-0.808 1.346,-1.6 2.048,-2.374c0.703,-0.774 1.423,-1.532 2.163,-2.271c0.739,-0.74 1.496,-1.46 2.271,-2.163c0.775,-0.702 1.566,-1.384 2.374,-2.048c0.808,-0.663 1.632,-1.307 2.472,-1.929c0.84,-0.623 1.695,-1.225 2.564,-1.806c0.869,-0.581 1.752,-1.14 2.649,-1.678c0.896,-0.537 1.806,-1.053 2.728,-1.545c0.922,-0.493 1.855,-0.963 2.801,-1.41c0.945,-0.448 1.901,-0.871 2.866,-1.271c0.966,-0.4 1.941,-0.776 2.926,-1.128c0.984,-0.352 1.977,-0.68 2.978,-0.984c1,-0.303 2.007,-0.582 3.022,-0.836c1.015,-0.253 2.035,-0.483 3.06,-0.686c1.025,-0.204 2.055,-0.383 3.09,-0.536c1.034,-0.154 2.072,-0.281 3.112,-0.384c1.04,-0.102 2.082,-0.179 3.127,-0.231c1.044,-0.052 2.09,-0.077 3.135,-0.077c1.045,0 2.091,0.025 3.135,0.077c1.044,0.052 2.087,0.128 3.127,0.231c1.041,0.103 2.079,0.231 3.112,0.384c1.034,0.153 2.064,0.332 3.09,0.536c1.025,0.203 2.045,0.433 3.06,0.686c1.015,0.254 2.022,0.533 3.022,0.836c1.001,0.304 1.994,0.632 2.978,0.984c0.985,0.353 1.96,0.729 2.926,1.128c0.966,0.401 1.921,0.824 2.866,1.271c0.946,0.447 1.879,0.917 2.801,1.41c0.922,0.493 1.832,1.008 2.728,1.545c0.897,0.538 1.78,1.097 2.649,1.678c0.87,0.581 1.724,1.183 2.564,1.806c0.84,0.622 1.664,1.266 2.472,1.929c0.808,0.664 1.6,1.346 2.374,2.048c0.774,0.703 1.532,1.423 2.271,2.163c0.74,0.739 1.46,1.496 2.163,2.271c0.702,0.775 1.384,1.566 2.048,2.374c0.663,0.808 1.307,1.632 1.929,2.472c0.623,0.84 1.225,1.695 1.806,2.564c0.581,0.869 1.14,1.752 1.678,2.649c0.537,0.896 1.053,1.806 1.545,2.728c0.493,0.922 0.963,1.855 1.41,2.801c0.448,0.945 0.871,1.901 1.271,2.866c0.4,0.966 0.776,1.941 1.128,2.926c0.352,0.984 0.68,1.977 0.984,2.978c0.303,1 0.582,2.007 0.836,3.022c0.253,1.015 0.483,2.035 0.686,3.06c0.204,1.025 0.383,2.055 0.536,3.09c0.154,1.034 0.281,2.072 0.384,3.112c0.102,1.04 0.179,2.082 0.231,3.127c0.052,1.044 0.077,2.09 0.077,3.135c-0.002,1.045 -0.029,2.09 -0.082,3.133c-0.053,1.043 -0.132,2.085 -0.236,3.126c-0.104,1.04 -0.233,2.076 -0.388,3.11c-0.156,1.034 -0.335,2.063 -0.541,3.087c-0.205,1.025 -0.435,2.044 -0.691,3.057c-0.255,1.014 -0.534,2.02 -0.839,3.02c-0.305,1 -0.633,1.991 -0.987,2.975c-0.353,0.984 -0.73,1.959 -1.131,2.923c-0.401,0.965 -0.825,1.92 -1.272,2.865c-0.448,0.944 -0.918,1.877 -1.411,2.799c-0.493,0.921 -1.008,1.83 -1.546,2.726c-0.538,0.896 -1.097,1.778 -1.678,2.647c-0.581,0.869 -1.183,1.723 -1.806,2.562c-0.623,0.839 -1.266,1.663 -1.929,2.47c-0.664,0.808 -1.346,1.599 -2.048,2.374c-0.702,0.774 -1.422,1.531 -2.161,2.27c-0.739,0.739 -1.496,1.459 -2.27,2.161c-0.775,0.702 -1.565,1.384 -2.374,2.048c-0.807,0.663 -1.631,1.306 -2.47,1.929c-0.839,0.623 -1.693,1.224 -2.562,1.806c-0.869,0.581 -1.751,1.14 -2.647,1.678c-0.896,0.538 -1.805,1.053 -2.726,1.546c-0.921,0.494 -1.855,0.964 -2.799,1.411c-0.945,0.448 -1.9,0.872 -2.865,1.272c-0.965,0.401 -1.94,0.779 -2.923,1.131c-0.984,0.354 -1.975,0.682 -2.975,0.987c-1,0.305 -2.006,0.584 -3.02,0.839c-1.013,0.256 -2.032,0.486 -3.057,0.691c-1.024,0.205 -2.053,0.385 -3.087,0.541c-1.034,0.155 -2.07,0.284 -3.11,0.388c-1.041,0.104 -2.082,0.183 -3.126,0.236c-1.043,0.053 -2.088,0.08 -3.133,0.082Z" style="fill:#189caa;fill-rule:nonzero;"/></g></svg>