<?xml version="1.0" encoding="UTF-8" standalone="no"?><!DOCTYPE svg PUBLIC "-//W3C//DTD SVG 1.1//EN" "http://www.w3.org/Graphics/SVG/1.1/DTD/svg11.dtd"><svg width="100%" height="100%" viewBox="0 0 224 212" version="1.1" xmlns="http://www.w3.org/2000/svg" xmlns:xlink="http://www.w3.org/1999/xlink" xml:space="preserve" xmlns:serif="http://www.serif.com/" style="fill-rule:evenodd;clip-rule:evenodd;stroke-linejoin:round;stroke-miterlimit:2;"><rect id="Croissant" x="0" y="-0" width="223.502" height="211.507" style="fill:none;"/><path id="Hex" d="M53.233,162.919l-24.777,-11.708c-3.765,-1.779 -6.216,-5.153 -6.216,-8.939l0,-73.028c0,-3.786 2.451,-7.163 6.216,-8.942l77.272,-36.514c1.872,-0.885 3.949,-1.323 6.02,-1.323c2.068,0 4.154,0.438 6.026,1.323l31.295,14.789c-1.596,-0.017 -3.22,0.036 -4.864,0.166l-0.006,0c-0.43,0.034 -0.838,0.108 -1.264,0.152c-1.096,0.114 -2.132,0.482 -3.034,1.056c-0.366,-0.63 -0.738,-1.259 -1.113,-1.886c-2.791,-4.655 -8.45,-6.965 -13.679,-5.502c-2.038,0.57 -4.075,1.229 -6.107,1.969l-6.182,-2.921c-0.327,-0.155 -0.695,-0.237 -1.072,-0.237c-0.374,0 -0.739,0.082 -1.066,0.237l-77.269,36.514c-0.625,0.295 -0.879,0.762 -0.879,1.119l0,73.028c0,0.356 0.254,0.824 0.879,1.119l15.334,7.246c0.994,4.63 2.563,8.804 4.486,12.282Zm129.264,-108.545l12.546,5.929c3.765,1.779 6.219,5.156 6.219,8.942l0,73.028c0,3.786 -2.457,7.16 -6.219,8.939l-77.269,36.514c-3.71,1.756 -8.337,1.756 -12.047,0l-28.892,-13.653c2.173,-0.946 4.279,-2.406 6.245,-4.389c0.601,-0.607 1.193,-1.269 1.77,-1.985l25.831,12.207c0.663,0.313 1.472,0.313 2.138,0l77.269,-36.514c0.625,-0.295 0.879,-0.762 0.879,-1.119l0,-73.028c0,-0.356 -0.254,-0.824 -0.879,-1.119l-6.137,-2.9c0.381,-1.564 0.508,-3.146 0.383,-4.723c-0.161,-2.035 -0.777,-4.11 -1.838,-6.129Z" style="fill:#189caa;stroke:#189caa;stroke-width:0.5px;"/><g id="Croissant1" serif:id="Croissant"><path d="M177.357,61.054c0.557,7.042 -8.574,13.723 -21.513,16.587c-2.309,-10.076 -6.516,-20.995 -12.186,-31.783c0.371,-0.038 0.725,-0.107 1.099,-0.137c17.228,-1.361 31.929,6.833 32.6,15.333Z" style="fill:#189caa;fill-rule:nonzero;"/><path d="M86.64,146.846c-2.864,12.939 -9.544,22.071 -16.586,21.514c-8.501,-0.673 -16.693,-15.374 -15.331,-32.6c0.03,-0.375 0.098,-0.729 0.137,-1.1c10.786,5.669 21.705,9.876 31.78,12.186Z" style="fill:#189caa;fill-rule:nonzero;"/><path d="M103.049,129.751l-4.12,8.059c-1.014,1.981 -3.164,3.169 -5.361,2.814c-13.264,-2.149 -28.636,-8.284 -42.905,-16.836c-1.975,-1.183 -2.981,-3.573 -2.36,-5.789c2.301,-8.228 6.171,-16.423 11.101,-24.361c11.425,12.361 30.178,27.5 43.645,36.114Z" style="fill:#189caa;fill-rule:nonzero;"/><path d="M149.622,84.57c0.355,2.195 -0.833,4.347 -2.814,5.361l-8.058,4.118c-8.598,-13.449 -23.769,-32.242 -36.112,-43.644c7.937,-4.931 16.13,-8.799 24.357,-11.1c2.217,-0.62 4.606,0.386 5.789,2.36c8.554,14.27 14.689,29.641 16.838,42.905Z" style="fill:#189caa;fill-rule:nonzero;"/><path d="M135.112,102.38c1.142,2.027 0.812,4.571 -0.848,6.228c-2.137,2.138 -14.519,14.52 -16.657,16.657c-1.658,1.658 -4.201,1.99 -6.228,0.848c-14.888,-8.55 -40.39,-29.261 -50.857,-42.602c-1.179,-1.474 -1.511,-3.501 -0.81,-5.233c2.727,-6.486 6.339,-12.014 10.945,-16.62c4.607,-4.606 10.135,-8.218 16.62,-10.945c1.732,-0.7 3.759,-0.367 5.233,0.81c13.341,10.467 34.052,35.969 42.602,50.857Z" style="fill:#189caa;fill-rule:nonzero;"/></g></svg>