<?xml version="1.0" encoding="UTF-8" standalone="no"?><!DOCTYPE svg PUBLIC "-//W3C//DTD SVG 1.1//EN" "http://www.w3.org/Graphics/SVG/1.1/DTD/svg11.dtd"><svg width="100%" height="100%" viewBox="0 0 224 212" version="1.1" xmlns="http://www.w3.org/2000/svg" xmlns:xlink="http://www.w3.org/1999/xlink" xml:space="preserve" xmlns:serif="http://www.serif.com/" style="fill-rule:evenodd;clip-rule:evenodd;stroke-linejoin:round;stroke-miterlimit:2;"><rect id="Doughnut" x="0" y="0.384" width="223.502" height="211.507" style="fill:none;"/><path id="path4-40-0" d="M49.82,161.69l-21.364,-10.095c-3.765,-1.779 -6.216,-5.153 -6.216,-8.939l0,-73.028c0,-3.786 2.451,-7.163 6.216,-8.942l39.888,-18.848c-7.926,5.398 -14.899,12.14 -20.561,19.881l-14.37,6.791c-0.625,0.295 -0.879,0.762 -0.879,1.119l0,30.949c-0.203,1.818 -0.344,3.652 -0.422,5.501c-0.105,2.275 -0.114,4.551 -0.028,6.826l0,0.003c0.077,2.003 0.226,4 0.45,5.99l0,23.758c0,0.356 0.254,0.824 0.879,1.119l7.886,3.726c0.774,1.476 1.592,2.928 2.456,4.355c1.18,1.95 2.441,3.847 3.781,5.691c0.625,0.885 1.198,1.846 1.696,2.851l0.002,0.003c0.21,0.424 0.405,0.853 0.586,1.288Zm41.853,-130.875l14.055,-6.642c1.872,-0.885 3.949,-1.323 6.02,-1.323c2.068,0 4.154,0.438 6.026,1.323l9.463,4.472c-0.566,-0.091 -1.132,-0.177 -1.7,-0.256c-1.285,-0.179 -2.574,-0.325 -3.866,-0.441l-0.005,-0c-1.291,-0.115 -2.585,-0.197 -3.88,-0.249l-0.005,-0c-1.276,-0.05 -2.552,-0.069 -3.829,-0.057l-0.064,0c-0.522,0.005 -0.976,0.009 -1.36,0.012c0.414,-0.007 0.828,-0.011 1.243,-0.012c-3.34,0.007 -3.697,0.03 -1.243,0.012c-7.186,0.127 -14.181,1.222 -20.855,3.162Zm75.163,16.542l28.208,13.33c3.765,1.779 6.219,5.156 6.219,8.942l0,73.028c0,3.786 -2.457,7.16 -6.219,8.939l-31.56,14.914c0.758,-0.659 1.502,-1.333 2.233,-2.022c0.951,-0.896 1.877,-1.816 2.78,-2.759l0.003,-0.003c0.902,-0.943 1.779,-1.91 2.631,-2.898l0.003,-0.003c0.853,-0.99 1.68,-2.002 2.481,-3.035c0.8,-1.032 1.572,-2.084 2.317,-3.156l0.004,-0.006c0.714,-1.03 1.403,-2.075 2.066,-3.138l12.088,-5.712c0.625,-0.295 0.879,-0.762 0.879,-1.119l-0,-12.744c1.324,-5.23 2.336,-12.122 2.633,-21.218l0.003,-0.136c0.018,-1.339 0.001,-2.679 -0.048,-4.017l-0,-0.005c-0.05,-1.337 -0.132,-2.672 -0.248,-4.005c-0.116,-1.333 -0.264,-2.663 -0.445,-3.99c-0.181,-1.326 -0.395,-2.648 -0.642,-3.964c-0.247,-1.316 -0.525,-2.624 -0.837,-3.926c-0.133,-0.556 -0.272,-1.11 -0.416,-1.663l0,-17.361c0,-0.356 -0.254,-0.824 -0.879,-1.119l-8.967,-4.238c-0.272,-0.432 -0.549,-0.862 -0.829,-1.289c-0.734,-1.118 -1.495,-2.217 -2.283,-3.297l-0.004,-0.006c-0.789,-1.079 -1.602,-2.138 -2.442,-3.177l-0.003,-0.003c-0.842,-1.04 -1.709,-2.06 -2.6,-3.058c-0.891,-0.997 -1.807,-1.972 -2.747,-2.924l-0.06,-0.06c-0.923,-0.914 -1.868,-1.805 -2.835,-2.671c-0.161,-0.144 -0.322,-0.288 -0.484,-0.43Zm-40.306,136.614l-8.755,4.137c-3.71,1.756 -8.337,1.756 -12.047,0l-13.039,-6.161c0.068,0.02 0.136,0.04 0.204,0.06c1.254,0.366 2.518,0.699 3.789,0.999c1.271,0.3 2.55,0.566 3.834,0.8c1.286,0.234 2.577,0.433 3.872,0.6l0.006,0.001c1.295,0.166 2.594,0.299 3.897,0.397c1.302,0.099 2.604,0.164 3.91,0.195l0.005,0c1.305,0.031 2.609,0.028 3.914,-0.009c1.307,-0.037 2.612,-0.108 3.914,-0.212c1.303,-0.105 2.602,-0.243 3.898,-0.416c0.868,-0.115 1.735,-0.246 2.598,-0.392Z" style="fill:#189caa;stroke:#189caa;stroke-width:0.5px;"/><path id="Doughnut1" serif:id="Doughnut" d="M164.506,135.668c0.001,0.281 0.013,0.562 0.038,0.843c0.023,0.281 0.058,0.56 0.105,0.837c0.047,0.278 0.104,0.553 0.173,0.826c0.068,0.273 0.148,0.543 0.238,0.809c0.091,0.266 0.193,0.528 0.304,0.787c0.111,0.258 0.234,0.511 0.366,0.76c0.133,0.248 0.275,0.491 0.426,0.727c0.152,0.237 0.314,0.467 0.484,0.691c0.171,0.224 0.351,0.44 0.539,0.649c0.188,0.21 0.385,0.41 0.589,0.604c0.205,0.193 0.417,0.378 0.637,0.553c0.219,0.176 0.446,0.343 0.68,0.501c0.233,0.158 0.472,0.305 0.717,0.443c0.245,0.138 0.495,0.266 0.751,0.384c0.255,0.117 0.515,0.225 0.779,0.321c0.264,0.097 0.532,0.183 0.803,0.258c-0.625,1.007 -1.276,1.998 -1.952,2.972c-0.677,0.973 -1.378,1.929 -2.104,2.866c-0.726,0.938 -1.477,1.855 -2.25,2.753c-0.775,0.898 -1.571,1.776 -2.39,2.633c-0.82,0.857 -1.661,1.692 -2.524,2.505c-0.862,0.813 -1.746,1.603 -2.65,2.37c-0.903,0.767 -1.827,1.511 -2.77,2.23c-0.942,0.719 -1.903,1.414 -2.882,2.083c-0.979,0.67 -1.974,1.313 -2.985,1.931c-1.012,0.617 -2.04,1.208 -3.082,1.772c-1.042,0.564 -2.099,1.101 -3.17,1.61c-1.07,0.51 -2.154,0.99 -3.249,1.443c-1.095,0.453 -2.202,0.877 -3.319,1.272c-1.117,0.395 -2.245,0.761 -3.381,1.098c-1.136,0.337 -2.281,0.644 -3.433,0.921c-1.152,0.278 -2.311,0.525 -3.477,0.741c-1.165,0.217 -2.335,0.404 -3.51,0.56c-1.175,0.157 -2.353,0.282 -3.535,0.377c-1.181,0.095 -2.364,0.159 -3.549,0.193c-1.185,0.033 -2.369,0.036 -3.554,0.008c-1.186,-0.029 -2.368,-0.088 -3.55,-0.177c-1.182,-0.09 -2.361,-0.21 -3.537,-0.361c-1.175,-0.151 -2.346,-0.332 -3.513,-0.544c-1.166,-0.212 -2.325,-0.454 -3.48,-0.726c-1.153,-0.272 -2.299,-0.574 -3.438,-0.906c-1.138,-0.331 -2.266,-0.692 -3.386,-1.083c-1.119,-0.39 -2.228,-0.809 -3.325,-1.257c-1.098,-0.449 -2.183,-0.924 -3.255,-1.429c-1.073,-0.504 -2.132,-1.036 -3.177,-1.596c-1.045,-0.56 -2.075,-1.146 -3.09,-1.76c-1.015,-0.612 -2.012,-1.252 -2.993,-1.916c-0.981,-0.665 -1.945,-1.356 -2.89,-2.07l0,-9.573c0,-0.294 0.014,-0.587 0.043,-0.88c0.029,-0.293 0.072,-0.583 0.129,-0.871c0.057,-0.288 0.129,-0.573 0.214,-0.855c0.085,-0.281 0.184,-0.558 0.296,-0.829c0.113,-0.272 0.238,-0.537 0.377,-0.797c0.139,-0.26 0.289,-0.511 0.453,-0.756c0.163,-0.244 0.338,-0.481 0.524,-0.707c0.187,-0.227 0.384,-0.445 0.592,-0.654c0.208,-0.208 0.425,-0.405 0.653,-0.591c0.227,-0.187 0.463,-0.362 0.707,-0.526c0.244,-0.163 0.496,-0.314 0.755,-0.453c0.26,-0.138 0.525,-0.264 0.796,-0.376c0.272,-0.113 0.548,-0.212 0.829,-0.297c0.281,-0.085 0.567,-0.157 0.854,-0.214c0.288,-0.057 0.579,-0.1 0.871,-0.129c0.293,-0.03 0.586,-0.044 0.88,-0.044c0.294,0 0.587,0.014 0.879,0.044c0.293,0.029 0.583,0.072 0.871,0.129c0.288,0.057 0.573,0.129 0.854,0.214c0.281,0.085 0.558,0.184 0.829,0.297c0.271,0.112 0.537,0.238 0.796,0.376c0.26,0.139 0.511,0.29 0.756,0.453c0.244,0.164 0.48,0.338 0.707,0.526c0.227,0.186 0.444,0.383 0.652,0.591c0.208,0.209 0.406,0.426 0.592,0.654c0.186,0.227 0.361,0.463 0.525,0.707c0.163,0.244 0.314,0.496 0.452,0.756c0.139,0.26 0.264,0.525 0.377,0.797c0.113,0.271 0.211,0.548 0.296,0.829c0.086,0.282 0.157,0.567 0.214,0.855c0.057,0.288 0.1,0.578 0.13,0.871c0.029,0.293 0.043,0.587 0.043,0.88l0,0.343c0.013,0.406 0.046,0.81 0.098,1.212c0.052,0.403 0.123,0.802 0.213,1.198c0.09,0.396 0.2,0.786 0.328,1.172c0.128,0.385 0.274,0.764 0.439,1.135c0.164,0.372 0.346,0.734 0.545,1.088c0.199,0.354 0.415,0.697 0.647,1.03c0.233,0.333 0.48,0.654 0.743,0.963c0.263,0.309 0.54,0.604 0.832,0.887c0.292,0.282 0.596,0.55 0.913,0.803c0.317,0.253 0.646,0.491 0.986,0.712c0.34,0.221 0.69,0.426 1.05,0.613c0.359,0.188 0.727,0.358 1.103,0.51c0.377,0.152 0.759,0.287 1.148,0.402c0.39,0.116 0.783,0.212 1.181,0.289c0.398,0.078 0.8,0.136 1.203,0.176c0.404,0.039 0.809,0.058 1.215,0.058c0.406,0 0.81,-0.02 1.214,-0.058c0.404,-0.039 0.805,-0.098 1.203,-0.176c0.398,-0.077 0.792,-0.174 1.181,-0.289c0.389,-0.116 0.772,-0.25 1.148,-0.402c0.376,-0.152 0.744,-0.322 1.104,-0.51c0.359,-0.187 0.709,-0.392 1.049,-0.613c0.34,-0.221 0.669,-0.458 0.986,-0.712c0.318,-0.253 0.622,-0.521 0.913,-0.803c0.292,-0.283 0.569,-0.578 0.832,-0.887c0.263,-0.31 0.511,-0.63 0.743,-0.963c0.232,-0.333 0.448,-0.676 0.647,-1.03c0.199,-0.354 0.381,-0.716 0.545,-1.088c0.164,-0.371 0.31,-0.749 0.438,-1.135c0.128,-0.386 0.237,-0.776 0.328,-1.172c0.09,-0.396 0.161,-0.795 0.213,-1.198c0.052,-0.402 0.085,-0.807 0.098,-1.212l0,-9.85c0,-0.219 0.011,-0.438 0.032,-0.656c0.021,-0.218 0.054,-0.435 0.097,-0.65c0.043,-0.215 0.096,-0.428 0.159,-0.638c0.064,-0.21 0.138,-0.416 0.221,-0.619c0.084,-0.203 0.178,-0.401 0.281,-0.595c0.104,-0.193 0.216,-0.381 0.338,-0.564c0.122,-0.182 0.253,-0.358 0.391,-0.527c0.14,-0.17 0.287,-0.332 0.441,-0.487c0.155,-0.155 0.317,-0.303 0.487,-0.441c0.169,-0.139 0.345,-0.27 0.527,-0.391c0.183,-0.122 0.37,-0.235 0.563,-0.338c0.193,-0.103 0.391,-0.197 0.594,-0.281c0.203,-0.083 0.409,-0.158 0.619,-0.221c0.21,-0.064 0.423,-0.117 0.638,-0.159c0.215,-0.043 0.432,-0.075 0.65,-0.097c0.218,-0.021 0.437,-0.032 0.655,-0.032c0.219,0 0.439,0.011 0.656,0.032c0.218,0.021 0.435,0.054 0.65,0.097c0.215,0.042 0.427,0.096 0.638,0.159c0.21,0.064 0.415,0.138 0.618,0.221c0.203,0.084 0.401,0.178 0.595,0.281c0.193,0.104 0.381,0.217 0.563,0.338c0.183,0.122 0.358,0.253 0.527,0.391c0.17,0.139 0.332,0.287 0.487,0.441c0.155,0.155 0.302,0.317 0.441,0.487c0.139,0.169 0.27,0.346 0.391,0.527c0.122,0.183 0.234,0.371 0.338,0.564c0.103,0.193 0.197,0.391 0.281,0.595c0.083,0.202 0.158,0.408 0.221,0.619c0.064,0.21 0.116,0.423 0.159,0.638c0.043,0.215 0.075,0.432 0.097,0.65c0.021,0.218 0.032,0.437 0.032,0.656l0,2.137c-0.013,0.366 -0.007,0.732 0.017,1.098c0.023,0.365 0.066,0.729 0.126,1.09c0.061,0.362 0.139,0.719 0.235,1.073c0.097,0.353 0.21,0.701 0.341,1.043c0.132,0.342 0.279,0.676 0.444,1.003c0.165,0.328 0.346,0.646 0.543,0.955c0.197,0.309 0.408,0.607 0.635,0.895c0.227,0.287 0.467,0.563 0.722,0.826c0.254,0.263 0.522,0.513 0.801,0.75c0.279,0.236 0.569,0.458 0.871,0.666c0.302,0.208 0.613,0.399 0.935,0.576c0.321,0.176 0.65,0.336 0.987,0.479c0.337,0.142 0.681,0.269 1.03,0.377c0.35,0.109 0.705,0.2 1.063,0.273c0.359,0.073 0.721,0.127 1.085,0.164c0.364,0.037 0.729,0.056 1.095,0.056c0.366,0 0.732,-0.019 1.096,-0.056c0.364,-0.037 0.725,-0.091 1.084,-0.164c0.359,-0.073 0.713,-0.164 1.063,-0.273c0.349,-0.108 0.693,-0.235 1.03,-0.377c0.338,-0.143 0.666,-0.304 0.988,-0.479c0.321,-0.176 0.632,-0.368 0.934,-0.576c0.302,-0.208 0.593,-0.43 0.872,-0.666c0.279,-0.237 0.546,-0.487 0.801,-0.75c0.254,-0.263 0.495,-0.539 0.722,-0.826c0.227,-0.288 0.439,-0.587 0.635,-0.895c0.197,-0.309 0.378,-0.627 0.543,-0.955c0.165,-0.327 0.313,-0.661 0.444,-1.003c0.132,-0.342 0.245,-0.69 0.341,-1.043c0.097,-0.354 0.176,-0.711 0.235,-1.073c0.061,-0.361 0.103,-0.724 0.127,-1.09c0.024,-0.366 0.03,-0.732 0.017,-1.098l0,-15.822c0,-0.218 0.011,-0.435 0.032,-0.652c0.021,-0.217 0.053,-0.432 0.095,-0.645c0.043,-0.214 0.096,-0.424 0.158,-0.633c0.064,-0.208 0.136,-0.413 0.219,-0.614c0.083,-0.201 0.176,-0.398 0.279,-0.589c0.102,-0.192 0.214,-0.378 0.335,-0.56c0.121,-0.181 0.25,-0.355 0.388,-0.524c0.139,-0.167 0.284,-0.329 0.438,-0.483c0.154,-0.154 0.315,-0.3 0.484,-0.438c0.167,-0.139 0.342,-0.268 0.523,-0.389c0.181,-0.121 0.367,-0.233 0.56,-0.336c0.192,-0.102 0.388,-0.195 0.589,-0.278c0.201,-0.083 0.405,-0.157 0.613,-0.219c0.208,-0.064 0.419,-0.116 0.632,-0.158c0.213,-0.043 0.428,-0.074 0.645,-0.096c0.217,-0.021 0.433,-0.032 0.651,-0.032c0.218,0 0.434,0.011 0.651,0.032c0.217,0.021 0.432,0.053 0.645,0.096c0.213,0.042 0.424,0.095 0.632,0.158c0.209,0.063 0.413,0.136 0.614,0.219c0.201,0.083 0.397,0.176 0.589,0.278c0.192,0.103 0.378,0.215 0.559,0.336c0.181,0.121 0.355,0.251 0.524,0.389c0.167,0.138 0.329,0.284 0.483,0.438c0.154,0.154 0.3,0.315 0.438,0.483c0.138,0.168 0.267,0.343 0.388,0.524c0.121,0.182 0.233,0.368 0.335,0.56c0.103,0.192 0.196,0.389 0.279,0.589c0.083,0.201 0.156,0.407 0.219,0.614c0.063,0.209 0.116,0.419 0.158,0.633c0.042,0.213 0.074,0.428 0.096,0.645c0.021,0.217 0.031,0.434 0.031,0.652l0,4.259Zm0.725,-80.233c0.859,0.87 1.696,1.761 2.511,2.673c0.815,0.912 1.607,1.844 2.376,2.795c0.768,0.951 1.513,1.92 2.235,2.907c0.721,0.989 1.417,1.993 2.088,3.016c0.672,1.023 1.317,2.06 1.937,3.115c0.62,1.054 1.213,2.123 1.78,3.207c0.567,1.083 1.107,2.18 1.62,3.292c0.513,1.11 0.998,2.232 1.455,3.367c0.458,1.135 0.886,2.28 1.287,3.436c0.4,1.155 0.773,2.32 1.116,3.494c0.343,1.175 0.656,2.356 0.941,3.546c0.285,1.19 0.539,2.385 0.765,3.588c0.226,1.203 0.421,2.41 0.587,3.621c0.166,1.212 0.301,2.428 0.407,3.646c0.106,1.219 0.181,2.439 0.227,3.661c0.045,1.222 0.06,2.445 0.044,3.669c-1.08,33.121 -11.596,33.609 -11.768,33.609c-0.208,0 -0.415,-0.01 -0.622,-0.03c-0.207,-0.021 -0.413,-0.051 -0.617,-0.091c-0.203,-0.04 -0.406,-0.091 -0.604,-0.151c-0.199,-0.061 -0.395,-0.131 -0.587,-0.21c-0.193,-0.08 -0.381,-0.168 -0.564,-0.267c-0.183,-0.098 -0.361,-0.205 -0.535,-0.321c-0.173,-0.116 -0.339,-0.239 -0.501,-0.372c-0.16,-0.132 -0.314,-0.271 -0.462,-0.419c-0.147,-0.147 -0.287,-0.301 -0.418,-0.462c-0.132,-0.16 -0.256,-0.328 -0.372,-0.501c-0.116,-0.173 -0.222,-0.351 -0.321,-0.535c-0.098,-0.184 -0.186,-0.371 -0.266,-0.563c-0.08,-0.193 -0.15,-0.389 -0.21,-0.587c-0.06,-0.199 -0.111,-0.401 -0.151,-0.605c-0.04,-0.204 -0.071,-0.409 -0.091,-0.617c-0.021,-0.207 -0.03,-0.415 -0.03,-0.622l0,-4.259c0,-0.349 -0.017,-0.698 -0.051,-1.045c-0.035,-0.347 -0.086,-0.691 -0.154,-1.034c-0.068,-0.342 -0.152,-0.68 -0.253,-1.014c-0.101,-0.334 -0.218,-0.663 -0.352,-0.985c-0.133,-0.322 -0.283,-0.637 -0.447,-0.945c-0.165,-0.308 -0.344,-0.607 -0.537,-0.897c-0.194,-0.29 -0.401,-0.569 -0.622,-0.839c-0.221,-0.27 -0.456,-0.528 -0.702,-0.775c-0.246,-0.246 -0.505,-0.481 -0.775,-0.702c-0.27,-0.221 -0.549,-0.429 -0.839,-0.622c-0.29,-0.194 -0.588,-0.373 -0.896,-0.538c-0.307,-0.164 -0.622,-0.313 -0.945,-0.447c-0.322,-0.133 -0.65,-0.251 -0.984,-0.352c-0.333,-0.101 -0.672,-0.186 -1.014,-0.254c-0.341,-0.068 -0.686,-0.119 -1.033,-0.153c-0.347,-0.034 -0.695,-0.051 -1.043,-0.051c-0.349,0 -0.697,0.017 -1.044,0.051c-0.347,0.034 -0.691,0.085 -1.033,0.153c-0.342,0.068 -0.681,0.153 -1.014,0.254c-0.334,0.101 -0.662,0.218 -0.984,0.352c-0.322,0.133 -0.637,0.283 -0.945,0.447c-0.307,0.165 -0.606,0.344 -0.896,0.538c-0.29,0.193 -0.569,0.401 -0.839,0.622c-0.27,0.221 -0.527,0.456 -0.775,0.702c-0.246,0.247 -0.48,0.505 -0.701,0.775c-0.221,0.27 -0.429,0.549 -0.623,0.839c-0.193,0.29 -0.372,0.589 -0.536,0.897c-0.165,0.308 -0.313,0.622 -0.447,0.945c-0.133,0.322 -0.251,0.651 -0.353,0.985c-0.101,0.334 -0.185,0.672 -0.253,1.014c-0.068,0.343 -0.119,0.688 -0.153,1.034c-0.034,0.347 -0.052,0.696 -0.052,1.045l0,15.822c0,0.227 -0.011,0.452 -0.033,0.678c-0.022,0.226 -0.056,0.45 -0.1,0.672c-0.045,0.222 -0.099,0.441 -0.166,0.658c-0.066,0.217 -0.142,0.43 -0.229,0.639c-0.087,0.21 -0.184,0.414 -0.29,0.613c-0.107,0.2 -0.224,0.394 -0.349,0.582c-0.126,0.188 -0.261,0.37 -0.405,0.545c-0.144,0.175 -0.295,0.343 -0.456,0.502c-0.16,0.16 -0.328,0.313 -0.503,0.456c-0.175,0.144 -0.356,0.278 -0.545,0.405c-0.188,0.125 -0.382,0.242 -0.582,0.348c-0.2,0.107 -0.404,0.203 -0.613,0.29c-0.21,0.087 -0.422,0.163 -0.638,0.228c-0.217,0.066 -0.436,0.121 -0.658,0.166c-0.223,0.044 -0.446,0.077 -0.672,0.099c-0.226,0.022 -0.451,0.033 -0.678,0.033c-0.227,0 -0.452,-0.011 -0.678,-0.033c-0.225,-0.022 -0.449,-0.056 -0.671,-0.099c-0.222,-0.045 -0.441,-0.099 -0.658,-0.166c-0.217,-0.065 -0.43,-0.141 -0.639,-0.228c-0.21,-0.087 -0.414,-0.184 -0.613,-0.29c-0.2,-0.107 -0.394,-0.223 -0.582,-0.348c-0.188,-0.126 -0.37,-0.261 -0.545,-0.405c-0.175,-0.143 -0.343,-0.295 -0.503,-0.456c-0.159,-0.159 -0.312,-0.328 -0.456,-0.502c-0.143,-0.176 -0.278,-0.357 -0.404,-0.545c-0.126,-0.188 -0.243,-0.382 -0.349,-0.582c-0.107,-0.2 -0.204,-0.404 -0.291,-0.613c-0.087,-0.21 -0.163,-0.423 -0.229,-0.639c-0.065,-0.217 -0.121,-0.436 -0.165,-0.658c-0.045,-0.222 -0.078,-0.446 -0.1,-0.672c-0.022,-0.226 -0.034,-0.451 -0.034,-0.678l0,-2.189c0,-0.351 -0.017,-0.701 -0.052,-1.05c-0.034,-0.349 -0.086,-0.697 -0.154,-1.04c-0.069,-0.345 -0.154,-0.685 -0.255,-1.021c-0.102,-0.336 -0.22,-0.666 -0.355,-0.99c-0.134,-0.324 -0.284,-0.641 -0.45,-0.951c-0.166,-0.31 -0.346,-0.611 -0.541,-0.903c-0.194,-0.292 -0.403,-0.573 -0.626,-0.844c-0.223,-0.271 -0.458,-0.532 -0.706,-0.78c-0.248,-0.248 -0.508,-0.484 -0.779,-0.706c-0.271,-0.223 -0.552,-0.432 -0.844,-0.627c-0.292,-0.194 -0.592,-0.375 -0.902,-0.541c-0.309,-0.165 -0.626,-0.315 -0.95,-0.45c-0.324,-0.134 -0.655,-0.253 -0.99,-0.355c-0.336,-0.102 -0.675,-0.187 -1.02,-0.255c-0.344,-0.069 -0.69,-0.12 -1.04,-0.155c-0.349,-0.034 -0.699,-0.051 -1.05,-0.051c-0.351,0 -0.701,0.017 -1.05,0.051c-0.349,0.035 -0.696,0.086 -1.04,0.155c-0.344,0.068 -0.684,0.153 -1.02,0.255c-0.336,0.102 -0.666,0.22 -0.99,0.355c-0.324,0.134 -0.641,0.285 -0.95,0.45c-0.31,0.166 -0.61,0.347 -0.902,0.541c-0.292,0.195 -0.573,0.404 -0.844,0.627c-0.271,0.223 -0.531,0.458 -0.779,0.706c-0.248,0.248 -0.484,0.509 -0.706,0.78c-0.222,0.271 -0.432,0.552 -0.626,0.844c-0.195,0.292 -0.375,0.593 -0.541,0.903c-0.166,0.31 -0.315,0.627 -0.45,0.951c-0.134,0.324 -0.253,0.655 -0.355,0.99c-0.101,0.336 -0.186,0.676 -0.255,1.021c-0.068,0.344 -0.12,0.691 -0.154,1.04c-0.035,0.349 -0.052,0.699 -0.052,1.05l0,9.85c0,0.283 -0.014,0.565 -0.042,0.846c-0.028,0.281 -0.069,0.561 -0.124,0.838c-0.056,0.277 -0.124,0.551 -0.206,0.821c-0.082,0.271 -0.177,0.536 -0.286,0.798c-0.108,0.261 -0.229,0.517 -0.363,0.766c-0.133,0.249 -0.278,0.492 -0.436,0.726c-0.157,0.235 -0.325,0.462 -0.504,0.681c-0.179,0.218 -0.369,0.428 -0.569,0.628c-0.201,0.2 -0.409,0.39 -0.628,0.569c-0.218,0.179 -0.445,0.347 -0.681,0.504c-0.235,0.158 -0.477,0.303 -0.726,0.436c-0.249,0.133 -0.504,0.253 -0.766,0.362c-0.261,0.108 -0.527,0.203 -0.797,0.286c-0.27,0.081 -0.544,0.15 -0.821,0.205c-0.278,0.056 -0.557,0.097 -0.838,0.124c-0.281,0.028 -0.563,0.041 -0.845,0.041c-0.283,0 -0.565,-0.013 -0.846,-0.041c-0.281,-0.028 -0.56,-0.069 -0.837,-0.124c-0.277,-0.055 -0.551,-0.124 -0.821,-0.205c-0.27,-0.082 -0.536,-0.177 -0.798,-0.286c-0.261,-0.108 -0.516,-0.229 -0.765,-0.362c-0.25,-0.133 -0.492,-0.278 -0.727,-0.436c-0.235,-0.157 -0.461,-0.325 -0.68,-0.504c-0.218,-0.179 -0.428,-0.369 -0.628,-0.569c-0.2,-0.2 -0.39,-0.409 -0.569,-0.628c-0.18,-0.218 -0.347,-0.445 -0.505,-0.681c-0.157,-0.235 -0.302,-0.477 -0.435,-0.726c-0.133,-0.249 -0.254,-0.504 -0.363,-0.766c-0.108,-0.261 -0.203,-0.527 -0.286,-0.798c-0.082,-0.27 -0.151,-0.544 -0.206,-0.821c-0.056,-0.278 -0.098,-0.557 -0.125,-0.838c-0.028,-0.281 -0.042,-0.563 -0.042,-0.846l0,-0.343c0.014,-0.434 0.006,-0.868 -0.023,-1.301c-0.03,-0.433 -0.081,-0.864 -0.154,-1.293c-0.073,-0.428 -0.167,-0.852 -0.282,-1.271c-0.116,-0.419 -0.251,-0.831 -0.407,-1.236c-0.157,-0.406 -0.333,-0.802 -0.529,-1.189c-0.196,-0.388 -0.411,-0.765 -0.646,-1.131c-0.234,-0.365 -0.485,-0.719 -0.755,-1.059c-0.27,-0.341 -0.555,-0.667 -0.857,-0.98c-0.303,-0.312 -0.62,-0.608 -0.951,-0.888c-0.332,-0.28 -0.677,-0.544 -1.035,-0.789c-0.358,-0.245 -0.727,-0.473 -1.109,-0.681c-0.381,-0.209 -0.771,-0.398 -1.171,-0.567c-0.399,-0.17 -0.807,-0.319 -1.221,-0.448c-0.415,-0.128 -0.835,-0.235 -1.261,-0.322c-0.425,-0.086 -0.854,-0.151 -1.286,-0.194c-0.432,-0.044 -0.865,-0.065 -1.299,-0.065c-0.434,0 -0.868,0.021 -1.299,0.065c-0.432,0.043 -0.861,0.108 -1.287,0.194c-0.425,0.087 -0.845,0.194 -1.26,0.322c-0.415,0.129 -0.822,0.278 -1.222,0.448c-0.399,0.169 -0.79,0.358 -1.17,0.567c-0.381,0.209 -0.75,0.436 -1.109,0.681c-0.358,0.245 -0.704,0.509 -1.035,0.789c-0.332,0.28 -0.649,0.577 -0.951,0.888c-0.302,0.313 -0.587,0.638 -0.857,0.98c-0.27,0.34 -0.521,0.694 -0.755,1.059c-0.235,0.366 -0.45,0.743 -0.646,1.131c-0.196,0.387 -0.372,0.784 -0.529,1.189c-0.157,0.405 -0.293,0.817 -0.407,1.236c-0.116,0.419 -0.21,0.843 -0.282,1.271c-0.073,0.429 -0.124,0.86 -0.154,1.293c-0.03,0.433 -0.038,0.867 -0.024,1.301l0,19.66c0.009,0.172 0.009,0.345 0.001,0.518c-0.009,0.173 -0.027,0.345 -0.053,0.516c-0.026,0.171 -0.061,0.34 -0.104,0.508c-0.044,0.167 -0.095,0.332 -0.155,0.494c-0.061,0.162 -0.129,0.321 -0.205,0.476c-0.076,0.156 -0.159,0.306 -0.251,0.453c-0.091,0.147 -0.191,0.289 -0.296,0.425c-0.106,0.137 -0.218,0.269 -0.337,0.394c-0.119,0.125 -0.244,0.244 -0.376,0.356c-0.131,0.113 -0.268,0.218 -0.409,0.318c-0.142,0.098 -0.288,0.19 -0.44,0.274c-0.151,0.084 -0.306,0.16 -0.465,0.228c-0.159,0.068 -0.321,0.128 -0.486,0.18c-0.165,0.052 -0.332,0.095 -0.501,0.13c-0.169,0.035 -0.34,0.061 -0.512,0.078c-0.172,0.018 -0.344,0.027 -0.517,0.027c-0.173,0 -0.346,-0.009 -0.518,-0.027c-0.172,-0.017 -0.343,-0.043 -0.512,-0.078c-0.169,-0.035 -0.337,-0.078 -0.501,-0.13c-0.165,-0.052 -0.327,-0.112 -0.485,-0.18c-0.159,-0.068 -0.314,-0.144 -0.466,-0.228c-0.15,-0.084 -0.297,-0.176 -0.439,-0.274c-0.142,-0.099 -0.278,-0.205 -0.41,-0.318c-0.131,-0.113 -0.256,-0.231 -0.375,-0.356c-0.119,-0.125 -0.232,-0.257 -0.338,-0.394c-0.106,-0.136 -0.204,-0.278 -0.295,-0.425c-0.091,-0.147 -0.176,-0.297 -0.252,-0.453c-0.076,-0.155 -0.144,-0.313 -0.204,-0.476c-0.06,-0.162 -0.112,-0.327 -0.155,-0.494c-0.044,-0.167 -0.078,-0.337 -0.105,-0.508c-0.026,-0.171 -0.043,-0.343 -0.052,-0.516c-0.009,-0.173 -0.009,-0.346 0,-0.518l0,-3.956c0.016,-1.5 -0.085,-2.992 -0.304,-4.476c-0.218,-1.484 -0.551,-2.941 -0.998,-4.373c-0.448,-1.432 -1.004,-2.82 -1.67,-4.164c-0.665,-1.344 -1.432,-2.627 -2.299,-3.851c-1.228,-1.688 -2.382,-3.425 -3.463,-5.211c-1.081,-1.785 -2.085,-3.614 -3.011,-5.485c-0.927,-1.871 -1.773,-3.776 -2.539,-5.718c-0.766,-1.942 -1.448,-3.913 -2.047,-5.913c-0.599,-2 -1.113,-4.021 -1.542,-6.065c-0.428,-2.043 -0.77,-4.101 -1.024,-6.173c-0.255,-2.072 -0.422,-4.151 -0.501,-6.238c-0.079,-2.085 -0.07,-4.172 0.027,-6.257c1.648,-39.477 35.159,-71.662 74.679,-71.742l0.172,0c1.183,-0.012 2.366,0.005 3.549,0.052c1.182,0.047 2.363,0.123 3.541,0.227c1.179,0.106 2.355,0.239 3.527,0.402c1.172,0.163 2.339,0.355 3.502,0.576c1.162,0.221 2.319,0.47 3.47,0.748c1.15,0.278 2.292,0.585 3.428,0.919c1.135,0.335 2.262,0.697 3.379,1.087c1.117,0.39 2.224,0.807 3.321,1.252c1.097,0.445 2.182,0.916 3.255,1.415c1.074,0.499 2.135,1.023 3.182,1.574c1.047,0.551 2.08,1.126 3.1,1.729c1.019,0.602 2.023,1.229 3.01,1.88c0.989,0.652 1.96,1.327 2.915,2.026c0.955,0.7 1.892,1.423 2.811,2.169c0.92,0.745 1.82,1.513 2.701,2.304c0.882,0.79 1.743,1.602 2.584,2.435Zm-99.362,67.233c0.085,-0.102 0.158,-0.211 0.221,-0.328c0.063,-0.116 0.114,-0.238 0.153,-0.364c0.039,-0.127 0.064,-0.256 0.078,-0.388c0.013,-0.132 0.013,-0.263 0,-0.396c-0.013,-0.132 -0.039,-0.261 -0.077,-0.388c-0.039,-0.126 -0.089,-0.248 -0.151,-0.364c-0.063,-0.117 -0.136,-0.227 -0.22,-0.329c-0.084,-0.102 -0.177,-0.195 -0.28,-0.278c-0.101,-0.085 -0.21,-0.158 -0.326,-0.222c-0.116,-0.063 -0.236,-0.114 -0.363,-0.154c-0.126,-0.039 -0.254,-0.066 -0.386,-0.08c-0.131,-0.014 -0.262,-0.016 -0.394,-0.004c-0.132,0.012 -0.261,0.036 -0.387,0.073c-0.127,0.037 -0.249,0.086 -0.366,0.147c-0.116,0.061 -0.227,0.133 -0.33,0.215c-0.103,0.082 -0.197,0.175 -0.282,0.276l-5.956,7.133c-0.085,0.101 -0.16,0.21 -0.224,0.325c-0.064,0.116 -0.116,0.237 -0.156,0.364c-0.039,0.125 -0.067,0.254 -0.081,0.386c-0.014,0.132 -0.015,0.263 -0.004,0.395c0.012,0.132 0.036,0.261 0.073,0.389c0.038,0.126 0.087,0.249 0.149,0.365c0.061,0.117 0.133,0.227 0.217,0.33c0.083,0.103 0.176,0.197 0.278,0.281l1.541,1.318l7.274,-8.702Zm15.484,-69.105c-0.115,0.068 -0.221,0.146 -0.321,0.235c-0.099,0.089 -0.189,0.187 -0.269,0.294c-0.08,0.107 -0.149,0.221 -0.205,0.341c-0.057,0.121 -0.103,0.245 -0.135,0.375c-0.032,0.129 -0.052,0.261 -0.058,0.394c-0.006,0.133 0,0.265 0.02,0.398c0.021,0.132 0.053,0.261 0.098,0.386c0.045,0.125 0.102,0.245 0.171,0.359l3.953,6.593c0.068,0.113 0.146,0.218 0.235,0.316c0.089,0.098 0.185,0.185 0.292,0.264c0.106,0.079 0.218,0.147 0.337,0.203c0.119,0.056 0.243,0.101 0.371,0.133c0.127,0.032 0.257,0.052 0.389,0.059c0.132,0.007 0.262,0.001 0.393,-0.018c0.131,-0.019 0.258,-0.049 0.382,-0.093c0.124,-0.044 0.243,-0.099 0.356,-0.167c0.113,-0.068 0.218,-0.146 0.316,-0.235c0.098,-0.089 0.186,-0.185 0.264,-0.291c0.079,-0.107 0.147,-0.218 0.203,-0.338c0.056,-0.119 0.101,-0.243 0.133,-0.371c0.032,-0.128 0.052,-0.258 0.059,-0.39c0.007,-0.132 0.001,-0.262 -0.018,-0.393c-0.019,-0.131 -0.05,-0.258 -0.093,-0.382c-0.044,-0.124 -0.099,-0.244 -0.167,-0.357l-3.953,-6.592c-0.066,-0.115 -0.144,-0.221 -0.232,-0.32c-0.087,-0.099 -0.184,-0.189 -0.289,-0.269c-0.105,-0.08 -0.218,-0.149 -0.336,-0.207c-0.119,-0.058 -0.243,-0.104 -0.37,-0.137c-0.128,-0.034 -0.258,-0.055 -0.39,-0.063c-0.132,-0.008 -0.263,-0.004 -0.394,0.014c-0.131,0.018 -0.259,0.048 -0.384,0.091c-0.124,0.043 -0.244,0.098 -0.359,0.164Zm36.464,55.405c14.008,-8.096 20.716,-22.798 14.956,-32.779c-2.859,-4.971 -8.262,-8.016 -15.18,-8.584c-1.803,-0.101 -3.603,-0.068 -5.401,0.101c-1.798,0.169 -3.573,0.472 -5.325,0.907c-1.752,0.436 -3.463,1 -5.131,1.693c-1.667,0.693 -3.274,1.507 -4.819,2.441c-1.581,0.87 -3.088,1.854 -4.521,2.951c-1.433,1.097 -2.775,2.296 -4.027,3.596c-1.253,1.299 -2.4,2.686 -3.444,4.159c-1.043,1.472 -1.97,3.015 -2.781,4.628c-2.991,6.276 -3.044,12.486 -0.171,17.444c3.268,5.683 9.884,8.623 17.566,8.623c1.604,-0.027 3.198,-0.158 4.784,-0.391c1.586,-0.234 3.15,-0.569 4.693,-1.007c1.542,-0.437 3.05,-0.972 4.523,-1.606c1.473,-0.633 2.899,-1.359 4.278,-2.178Zm-0.567,-37.367c5.587,0.461 9.857,2.796 12.044,6.593c0.821,1.433 1.313,2.971 1.476,4.614c-7.287,-1.555 -15.945,0.106 -23.852,4.668c-8.816,5.05 -14.944,12.83 -16.604,20.662c-1.019,-0.52 -1.944,-1.172 -2.775,-1.957c-0.832,-0.784 -1.537,-1.671 -2.114,-2.658c-2.201,-3.784 -2.082,-8.663 0.316,-13.726c0.73,-1.428 1.562,-2.795 2.495,-4.098c0.934,-1.304 1.959,-2.531 3.076,-3.682c1.117,-1.151 2.312,-2.212 3.587,-3.184c1.275,-0.972 2.616,-1.845 4.02,-2.616c1.229,-0.736 2.501,-1.39 3.815,-1.96c1.314,-0.571 2.66,-1.055 4.037,-1.451c1.377,-0.397 2.773,-0.702 4.19,-0.917c1.417,-0.214 2.841,-0.337 4.273,-0.366c0.698,0 1.344,0.079 2.017,0.079Zm47.889,5.788l-0.027,0c0.067,-0.115 0.123,-0.236 0.166,-0.363c0.043,-0.126 0.073,-0.256 0.09,-0.389c0.016,-0.133 0.02,-0.265 0.01,-0.398c-0.01,-0.133 -0.033,-0.264 -0.069,-0.393c-0.037,-0.128 -0.085,-0.252 -0.147,-0.371c-0.061,-0.119 -0.133,-0.23 -0.217,-0.334c-0.083,-0.105 -0.176,-0.2 -0.279,-0.285c-0.103,-0.085 -0.213,-0.159 -0.33,-0.223c-0.115,-0.065 -0.235,-0.118 -0.36,-0.159c-0.125,-0.041 -0.253,-0.071 -0.384,-0.087c-0.131,-0.016 -0.261,-0.02 -0.393,-0.01c-0.132,0.009 -0.261,0.031 -0.388,0.066c-0.127,0.035 -0.25,0.081 -0.368,0.141c-0.118,0.059 -0.229,0.129 -0.333,0.21c-0.105,0.081 -0.2,0.171 -0.287,0.27c-0.087,0.099 -0.163,0.206 -0.228,0.321l-3.953,6.975c-0.064,0.116 -0.117,0.236 -0.158,0.363c-0.04,0.126 -0.068,0.255 -0.083,0.387c-0.014,0.132 -0.016,0.263 -0.004,0.396c0.012,0.132 0.036,0.261 0.073,0.389c0.038,0.127 0.088,0.249 0.15,0.366c0.062,0.117 0.134,0.227 0.218,0.33c0.084,0.103 0.177,0.196 0.279,0.28c0.102,0.084 0.212,0.158 0.33,0.219c0.115,0.064 0.235,0.118 0.36,0.159c0.124,0.041 0.253,0.07 0.383,0.087c0.131,0.016 0.262,0.02 0.394,0.01c0.132,-0.01 0.261,-0.031 0.388,-0.066c0.127,-0.035 0.25,-0.082 0.368,-0.141c0.117,-0.059 0.228,-0.129 0.333,-0.21c0.104,-0.081 0.2,-0.171 0.287,-0.27c0.086,-0.099 0.162,-0.207 0.228,-0.321l3.953,-6.949Zm-18.449,35.126c0.094,-0.092 0.178,-0.193 0.252,-0.303c0.073,-0.109 0.136,-0.225 0.187,-0.347c0.051,-0.122 0.089,-0.247 0.115,-0.376c0.026,-0.129 0.039,-0.26 0.039,-0.392c0,-0.132 -0.013,-0.262 -0.039,-0.391c-0.026,-0.129 -0.064,-0.255 -0.115,-0.376c-0.051,-0.122 -0.114,-0.237 -0.187,-0.347c-0.073,-0.109 -0.158,-0.21 -0.252,-0.304l-5.271,-5.274c-0.092,-0.093 -0.193,-0.177 -0.303,-0.252c-0.108,-0.073 -0.224,-0.136 -0.346,-0.186c-0.122,-0.051 -0.247,-0.09 -0.376,-0.116c-0.13,-0.026 -0.26,-0.039 -0.392,-0.039c-0.132,0 -0.262,0.013 -0.391,0.039c-0.129,0.026 -0.254,0.064 -0.376,0.116c-0.122,0.05 -0.237,0.113 -0.347,0.186c-0.109,0.074 -0.21,0.158 -0.303,0.252c-0.093,0.093 -0.177,0.194 -0.251,0.304c-0.074,0.109 -0.136,0.225 -0.187,0.346c-0.051,0.122 -0.09,0.247 -0.116,0.377c-0.026,0.129 -0.039,0.26 -0.039,0.391c0,0.133 0.013,0.262 0.039,0.392c0.026,0.129 0.064,0.254 0.116,0.376c0.051,0.122 0.113,0.237 0.187,0.347c0.073,0.109 0.158,0.21 0.251,0.303l5.271,5.274c0.092,0.094 0.193,0.178 0.303,0.252c0.109,0.074 0.225,0.136 0.347,0.187c0.122,0.051 0.247,0.09 0.376,0.116c0.129,0.026 0.26,0.039 0.391,0.039c0.132,0 0.262,-0.013 0.391,-0.039c0.13,-0.026 0.255,-0.064 0.377,-0.116c0.121,-0.051 0.236,-0.113 0.346,-0.187c0.109,-0.073 0.21,-0.158 0.303,-0.252Zm-10.95,-56.605c0.048,-0.127 0.084,-0.258 0.107,-0.392c0.022,-0.134 0.031,-0.269 0.027,-0.405c-0.005,-0.136 -0.024,-0.27 -0.056,-0.403c-0.032,-0.133 -0.077,-0.26 -0.135,-0.383c-0.058,-0.123 -0.127,-0.239 -0.209,-0.348c-0.081,-0.109 -0.173,-0.209 -0.275,-0.299c-0.101,-0.091 -0.21,-0.17 -0.329,-0.239c-0.117,-0.068 -0.241,-0.124 -0.37,-0.167l-8.921,-3.296c-0.123,-0.047 -0.249,-0.081 -0.379,-0.102c-0.13,-0.021 -0.26,-0.03 -0.391,-0.025c-0.131,0.004 -0.261,0.021 -0.389,0.051c-0.127,0.03 -0.251,0.073 -0.371,0.127c-0.119,0.055 -0.232,0.12 -0.338,0.197c-0.107,0.077 -0.204,0.164 -0.294,0.261c-0.09,0.096 -0.168,0.2 -0.237,0.312c-0.068,0.112 -0.125,0.23 -0.171,0.353c-0.049,0.125 -0.086,0.254 -0.109,0.388c-0.024,0.133 -0.034,0.266 -0.031,0.401c0.004,0.134 0.02,0.268 0.049,0.399c0.03,0.131 0.073,0.258 0.128,0.381c0.056,0.123 0.122,0.239 0.201,0.348c0.079,0.109 0.167,0.21 0.266,0.302c0.098,0.091 0.206,0.173 0.321,0.243c0.115,0.071 0.235,0.129 0.363,0.175l8.908,3.31c0.125,0.052 0.254,0.09 0.387,0.116c0.133,0.025 0.267,0.036 0.403,0.034c0.135,-0.003 0.269,-0.018 0.4,-0.047c0.133,-0.03 0.26,-0.073 0.383,-0.128c0.124,-0.056 0.24,-0.123 0.349,-0.201c0.109,-0.08 0.21,-0.169 0.302,-0.269c0.091,-0.1 0.171,-0.208 0.241,-0.324c0.069,-0.116 0.126,-0.238 0.171,-0.366Zm-32.313,69.791c0.021,-0.13 0.029,-0.261 0.023,-0.392c-0.004,-0.132 -0.022,-0.261 -0.053,-0.389c-0.03,-0.128 -0.073,-0.252 -0.128,-0.372c-0.056,-0.119 -0.121,-0.233 -0.198,-0.338c-0.077,-0.107 -0.164,-0.205 -0.261,-0.295c-0.096,-0.09 -0.201,-0.168 -0.313,-0.237c-0.112,-0.069 -0.229,-0.126 -0.353,-0.172c-0.123,-0.046 -0.249,-0.079 -0.379,-0.1c-0.13,-0.021 -0.261,-0.03 -0.392,-0.026c-0.132,0.004 -0.261,0.021 -0.39,0.05c-0.128,0.03 -0.253,0.072 -0.372,0.126c-0.12,0.054 -0.234,0.119 -0.34,0.196c-0.107,0.076 -0.206,0.163 -0.296,0.259c-0.09,0.096 -0.169,0.2 -0.239,0.312c-0.07,0.111 -0.128,0.229 -0.175,0.352c-0.047,0.124 -0.081,0.25 -0.102,0.38l-1.225,7.542c-0.023,0.13 -0.032,0.26 -0.029,0.391c0.003,0.132 0.02,0.261 0.049,0.39c0.029,0.128 0.071,0.253 0.124,0.372c0.055,0.12 0.12,0.233 0.196,0.34c0.077,0.107 0.164,0.205 0.26,0.295c0.097,0.09 0.201,0.168 0.313,0.237c0.112,0.069 0.23,0.125 0.354,0.171c0.124,0.045 0.25,0.078 0.38,0.098c0.131,0.021 0.261,0.029 0.393,0.024c0.132,-0.005 0.261,-0.023 0.39,-0.054c0.129,-0.03 0.253,-0.073 0.372,-0.128c0.12,-0.055 0.234,-0.12 0.34,-0.197c0.107,-0.078 0.205,-0.164 0.295,-0.261c0.09,-0.097 0.17,-0.201 0.239,-0.313c0.07,-0.112 0.128,-0.23 0.175,-0.354c0.046,-0.123 0.08,-0.25 0.102,-0.38l1.238,-7.529Zm-48.376,-32.12c0,0.132 0.013,0.262 0.039,0.391c0.025,0.129 0.064,0.254 0.114,0.376c0.05,0.121 0.112,0.236 0.185,0.346c0.073,0.11 0.156,0.211 0.249,0.304c0.093,0.093 0.194,0.176 0.304,0.249c0.109,0.073 0.225,0.135 0.346,0.185c0.122,0.05 0.247,0.089 0.376,0.114c0.129,0.026 0.26,0.039 0.391,0.039c0.131,0 0.261,-0.013 0.39,-0.039c0.129,-0.025 0.254,-0.064 0.376,-0.114c0.121,-0.05 0.236,-0.112 0.346,-0.185c0.109,-0.073 0.21,-0.156 0.304,-0.249c0.093,-0.093 0.176,-0.194 0.249,-0.304c0.073,-0.109 0.135,-0.225 0.185,-0.346c0.05,-0.122 0.089,-0.247 0.114,-0.376c0.026,-0.129 0.039,-0.26 0.039,-0.391l0,-8.531c0,-0.133 -0.013,-0.262 -0.038,-0.392c-0.026,-0.129 -0.064,-0.255 -0.114,-0.377c-0.051,-0.122 -0.112,-0.238 -0.185,-0.347c-0.073,-0.11 -0.156,-0.212 -0.249,-0.305c-0.093,-0.094 -0.193,-0.177 -0.304,-0.251c-0.109,-0.074 -0.225,-0.136 -0.346,-0.187c-0.122,-0.051 -0.247,-0.09 -0.376,-0.116c-0.13,-0.027 -0.26,-0.04 -0.391,-0.041c-0.133,0.001 -0.262,0.014 -0.392,0.041c-0.129,0.026 -0.254,0.064 -0.376,0.116c-0.121,0.051 -0.236,0.113 -0.346,0.187c-0.109,0.073 -0.21,0.157 -0.304,0.251c-0.093,0.093 -0.176,0.195 -0.249,0.305c-0.073,0.109 -0.134,0.226 -0.184,0.347c-0.051,0.122 -0.089,0.248 -0.115,0.377c-0.025,0.13 -0.038,0.26 -0.038,0.392l0,8.531Z" style="fill:#189caa;"/></svg>