<?xml version="1.0" encoding="UTF-8" standalone="no"?><!DOCTYPE svg PUBLIC "-//W3C//DTD SVG 1.1//EN" "http://www.w3.org/Graphics/SVG/1.1/DTD/svg11.dtd"><svg width="100%" height="100%" viewBox="0 0 224 212" version="1.1" xmlns="http://www.w3.org/2000/svg" xmlns:xlink="http://www.w3.org/1999/xlink" xml:space="preserve" xmlns:serif="http://www.serif.com/" style="fill-rule:evenodd;clip-rule:evenodd;stroke-linejoin:round;stroke-miterlimit:2;"><rect id="Earth" x="0" y="0.384" width="223.502" height="211.507" style="fill:none;"/><g id="Earth1" serif:id="Earth"><path id="Hex" d="M63.819,168.554l-35.608,-16.826c-3.776,-1.784 -6.234,-5.168 -6.234,-8.965l0,-73.242c0,-3.797 2.458,-7.184 6.234,-8.968l35.578,-16.812c-6.689,5.149 -12.526,11.349 -17.265,18.353l-13.341,6.304c-0.627,0.296 -0.882,0.765 -0.882,1.122l0,73.242c0,0.357 0.255,0.826 0.882,1.122l13.354,6.31c4.744,7.007 10.587,13.209 17.283,18.358Zm30.235,-139.114l11.656,-5.508c1.878,-0.888 3.961,-1.327 6.038,-1.327c2.074,0 4.166,0.439 6.044,1.327l11.65,5.505c-5.688,-1.306 -11.611,-1.996 -17.695,-1.995c-6.083,0 -12.005,0.69 -17.692,1.997Zm65.669,14.307l35.565,16.806c3.776,1.784 6.237,5.171 6.237,8.968l0,73.242c0,3.797 -2.464,7.181 -6.237,8.965l-35.605,16.825c6.696,-5.149 12.54,-11.351 17.284,-18.358l13.353,-6.31c0.627,-0.296 0.882,-0.765 0.882,-1.122l0,-73.242c0,-0.357 -0.255,-0.826 -0.882,-1.122l-13.339,-6.304c-4.737,-7.002 -10.572,-13.201 -17.257,-18.349Zm-30.235,139.075l-11.696,5.527c-3.721,1.761 -8.361,1.761 -12.082,0l-11.692,-5.525c5.698,1.312 11.632,2.005 17.729,2.005c6.101,0 12.039,-0.694 17.741,-2.008Z" style="fill:#189caa;stroke:#189caa;stroke-width:0.5px;"/><path id="Earth2" serif:id="Earth" d="M78.006,53.269c4.838,1.302 7.352,3.03 6.27,4.866c-1.079,1.841 -5.726,-0.432 -8.644,-0.533c-2.918,-0.11 -9.08,3.23 -7.888,6.806c1.181,3.568 5.192,0.122 7.575,-1.534c3.04,-2.11 9.049,-0.291 8.735,4.454c-0.333,5.078 -2.553,-1.423 -8.02,6.381c-7.129,10.179 -12.077,4.745 -13.7,10.585c-0.254,0.909 0.219,2.455 -1.276,3.938c-1.15,1.163 -3.471,-1.656 -4.016,-1.565c-2.697,0.432 -3.453,7.339 -1.181,6.806c2.263,-0.545 4.747,-0.545 6.693,4.108c1.949,4.646 2.061,1.394 5.726,0.751c9.313,-1.636 16.675,6.946 22.806,13.077c5.361,5.363 -0.645,6.261 -1.193,11.452c-0.535,5.192 -4.321,1.95 -5.615,7.24c-0.797,3.231 -4.322,5.714 -4.655,8.2c-1.061,7.888 -2.04,11.928 -9.604,5.193c-2.474,-3.434 1.557,-9.191 0.72,-12.33c-0.518,-1.92 0.584,-5.563 -7.102,-11.547c-6.523,-5.067 2.457,-17.164 -0.212,-16.962c-5.928,0.454 -3.958,-5.26 -11.025,-6.806c-1.768,-0.385 -2.92,-1.465 -3.666,-2.809c3.364,-16.361 12.927,-30.419 26.123,-39.658c0.614,-0.615 2.189,-0.364 3.147,-0.112Zm30.792,-5.563c-1.748,4.08 -0.283,7.188 -4.362,7.866c-4.079,0.686 -8.476,2.303 -9.333,4.271c-1.048,2.424 -1.007,4.724 -3.491,3.111c-1.315,-0.85 -3.306,-4.169 -2.921,-6.019c0.394,-1.851 3.799,-3.302 -0.575,-5.927c-4.373,-2.627 3.496,-5.544 6.987,-6.314c3.485,-0.768 15.028,-0.665 13.695,3.011Zm19.076,-3.919c23.448,6.04 41.687,24.933 46.789,48.747c-1.667,1.101 -4.393,1.283 -8.523,-3.095c-7.746,-8.18 -7.029,2.932 -2.726,4.809c4.302,1.877 5.292,5.785 0.444,8.442c-4.847,2.659 0.636,6.222 -1.404,9.433c-8.572,8.301 -7.878,13.1 -8.018,22.68c-0.132,9.313 -8.687,22.831 -17.724,24.771c-9.928,2.125 -7.077,-1.553 -7.302,-15.933c-0.223,-14.371 0.444,-26.763 -7.077,-28.54c-7.515,-1.768 -13.493,6.199 -17.258,-10.167c-3.758,-16.371 12.167,-28.319 23.237,-25.005c11.058,3.321 19.904,5.534 15.257,-0.436c-4.643,-5.976 -17.691,-8.854 -22.337,-5.976c-4.646,2.878 -12.169,1.545 -8.857,-4.65c3.321,-6.187 18.591,-7.967 20.136,-12.167c1.547,-4.2 -2.94,-3.139 -6.189,-1.753c-2.658,1.14 -1.617,-12.01 1.553,-11.161Zm-16.127,-9.344c-39.59,0 -71.694,32.096 -71.694,71.694c0,39.586 32.094,71.693 71.694,71.693c39.597,0 71.701,-32.096 71.701,-71.693c0,-39.597 -32.104,-71.701 -71.701,-71.694Z" style="fill:#189caa;fill-rule:nonzero;"/></g></svg>