<?xml version="1.0" encoding="UTF-8" standalone="no"?><!DOCTYPE svg PUBLIC "-//W3C//DTD SVG 1.1//EN" "http://www.w3.org/Graphics/SVG/1.1/DTD/svg11.dtd"><svg width="100%" height="100%" viewBox="0 0 224 212" version="1.1" xmlns="http://www.w3.org/2000/svg" xmlns:xlink="http://www.w3.org/1999/xlink" xml:space="preserve" xmlns:serif="http://www.serif.com/" style="fill-rule:evenodd;clip-rule:evenodd;stroke-linejoin:round;stroke-miterlimit:2;"><rect id="Education" x="0" y="0.384" width="223.502" height="211.507" style="fill:none;"/><path id="path4-40-0" d="M22.24,83.674l0,-14.046c0,-3.786 2.451,-7.163 6.216,-8.942l77.272,-36.514c1.872,-0.885 3.949,-1.323 6.02,-1.323c2.068,0 4.154,0.438 6.026,1.323l77.269,36.514c3.765,1.779 6.219,5.156 6.219,8.942l0,14.484c-0.419,-0.193 -0.895,-0.406 -1.426,-0.636c-1.97,-0.85 -5.041,-2.144 -8.868,-3.74l0,-10.108c0,-0.356 -0.254,-0.824 -0.879,-1.119l-77.269,-36.514c-0.327,-0.155 -0.695,-0.237 -1.072,-0.237c-0.374,0 -0.739,0.082 -1.066,0.237l-77.269,36.514c-0.625,0.295 -0.879,0.762 -0.879,1.119l0,9.825c-3.943,1.628 -7.444,3.065 -10.294,4.221Zm179.023,16.474l0,42.508c0,3.786 -2.457,7.16 -6.219,8.939l-4.701,2.222c-0.053,-3.364 -0.407,-6.679 -0.9,-9.736l0.647,-0.306c0.625,-0.295 0.879,-0.762 0.879,-1.119l0,-37.657c3.712,-1.664 7.777,-3.537 10.294,-4.851Zm-32.748,63.983l-50.74,23.978c-3.71,1.756 -8.337,1.756 -12.047,0l-77.272,-36.514c-3.765,-1.779 -6.216,-5.153 -6.216,-8.939l0,-42.211c3.582,1.528 7.011,2.992 10.294,4.395l0,37.816c0,0.356 0.254,0.824 0.879,1.119l77.269,36.514c0.663,0.313 1.472,0.313 2.138,0l48.145,-22.751c0.272,1.532 0.988,2.964 2.078,4.111c1.435,1.51 3.399,2.398 5.472,2.482Z" style="fill:#189caa;stroke:#189caa;stroke-width:0.5px;"/><g id="Education1" serif:id="Education"><g><path d="M182.325,156.138l-13.483,0c0.543,-10.658 0.757,-15.052 4.136,-24.525c0.884,-2.478 -4.611,-3.698 0.253,-9.093c0.594,-0.659 0.539,-0.762 0.576,-15.63c0.001,-0.232 0.007,-2.712 -0.484,-2.861c-0.484,-0.147 -33.419,14.837 -43.783,19.389c-13.564,5.959 -15.145,7.78 -18.313,6.537c-5.079,-1.993 -17.935,-7.898 -85.852,-36.87c-1.389,-0.593 -1.09,-1.608 -0.342,-1.911c21.963,-8.902 83.843,-35.078 86.493,-35.037c1.211,0.019 87.52,35.34 87.572,35.797c0.163,1.447 -21.406,9.151 -21.767,10.789c-0.049,0.222 -0.411,18.631 0.208,19.463c0.207,0.278 3.567,2.932 1.608,6.703c-0.58,1.116 -1.567,1.327 -0.954,3.097c0.641,1.853 4.504,13.02 4.132,24.152Z" style="fill:#189caa;"/><path d="M125.039,155.653c-0.621,0.13 -25.985,0.068 -26.608,-0.074c-16.02,-3.673 -33.557,-13.053 -34.143,-17.597c-0.028,-0.217 0.231,-22.668 1.267,-23.049c0.777,-0.286 16.403,6.926 27.995,11.835c12.061,5.107 18.634,8.494 19.819,8.056c3.843,-1.42 43.276,-19.621 44.201,-19.248c0.379,0.153 0.224,0.291 0.722,9.294c0.061,1.107 0.7,12.652 0.434,13.853c-0.159,0.716 -0.799,2.714 -11.906,8.76c-1.635,0.89 -10.778,5.867 -21.782,8.171Z" style="fill:#189caa;"/></g></g></svg>