<?xml version="1.0" encoding="UTF-8" standalone="no"?><!DOCTYPE svg PUBLIC "-//W3C//DTD SVG 1.1//EN" "http://www.w3.org/Graphics/SVG/1.1/DTD/svg11.dtd"><svg width="100%" height="100%" viewBox="0 0 224 212" version="1.1" xmlns="http://www.w3.org/2000/svg" xmlns:xlink="http://www.w3.org/1999/xlink" xml:space="preserve" xmlns:serif="http://www.serif.com/" style="fill-rule:evenodd;clip-rule:evenodd;stroke-linejoin:round;stroke-miterlimit:2;"><rect id="Fibre" x="0" y="0.384" width="223.502" height="211.507" style="fill:none;"/><g id="Fibre1" serif:id="Fibre"><path id="Hex" d="M66.587,173.473l-38.376,-18.134c-3.776,-1.784 -6.234,-5.168 -6.234,-8.965l0,-73.242c0,-3.797 2.458,-7.184 6.234,-8.968l67.987,-32.126c-2.086,3.616 -3.923,7.845 -4.825,12.474l-58.191,27.498c-0.627,0.296 -0.882,0.765 -0.882,1.122l0,73.242c0,0.357 0.255,0.826 0.882,1.122l27.954,13.21c1.213,4.178 2.953,8.606 5.45,12.767Zm61.266,-141.176l67.435,31.867c3.776,1.784 6.237,5.171 6.237,8.968l0,73.242c0,3.797 -2.464,7.181 -6.237,8.965l-38.372,18.133c2.497,-4.16 4.237,-8.588 5.449,-12.766l27.954,-13.21c0.627,-0.296 0.882,-0.765 0.882,-1.122l0,-73.242c0,-0.357 -0.255,-0.826 -0.882,-1.122l-58.102,-27.456c-0.796,-4.518 -2.461,-8.68 -4.365,-12.256Z" style="fill:#189caa;stroke:#189caa;stroke-width:0.5px;"/><g><path id="path1-793-2" d="M109.746,75.929c0.408,0.393 0.938,0.589 1.466,0.589c0.5,0 0.994,-0.173 1.395,-0.523c0.522,-0.454 12.788,-11.284 13.103,-25.362c0.309,-14.074 -11.458,-25.449 -11.958,-25.927c-0.799,-0.761 -2.033,-0.789 -2.866,-0.066c-0.522,0.456 -12.783,11.288 -13.095,25.36c-0.31,14.076 11.454,25.451 11.957,25.928Z" style="fill:#189caa;fill-rule:nonzero;"/><path id="path2-80-3" d="M67.508,140.361c-0.537,-0.035 -1.081,0.156 -1.483,0.523c-0.402,0.37 -0.64,0.889 -0.659,1.438c-0.023,0.843 -0.181,20.483 11.21,32.939c14.029,15.348 27.775,12.969 30.771,12.459c0.93,-0.159 2.09,-0.907 2.136,-1.858c0.019,-0.382 1.51,-42.707 -41.974,-45.501Z" style="fill:#189caa;fill-rule:nonzero;"/><path id="path3-248-7" d="M155.994,140.361c0.538,-0.035 1.083,0.156 1.483,0.523c0.405,0.37 0.642,0.889 0.659,1.438c0.025,0.843 0.181,20.483 -11.209,32.939c-14.03,15.348 -27.774,12.969 -30.772,12.459c-0.93,-0.159 -2.088,-0.907 -2.136,-1.858c-0.021,-0.382 -1.509,-42.707 41.974,-45.501Z" style="fill:#189caa;fill-rule:nonzero;"/><path id="path4-3-1" d="M73.631,103.036c-0.541,-0.051 -1.083,0.122 -1.496,0.479c-0.413,0.357 -0.667,0.868 -0.7,1.417c-0.046,0.75 -0.659,18.212 9.227,29.509c8.638,9.868 20.71,12.314 20.71,12.314c2.009,0 3.81,0.146 6.002,-0.161c0.936,-0.128 2.136,-0.994 2.215,-1.942c0.025,-0.334 2.127,-37.972 -35.958,-41.617Z" style="fill:#189caa;fill-rule:nonzero;"/><path id="path5-9-8" d="M149.869,103.036c0.54,-0.051 1.083,0.122 1.497,0.479c0.414,0.357 0.664,0.868 0.701,1.417c0.044,0.75 0.658,18.212 -9.23,29.509c-8.64,9.868 -20.709,12.314 -20.709,12.314c-2.011,0 -3.809,0.146 -6,-0.161c-0.936,-0.128 -2.141,-0.994 -2.216,-1.942c-0.025,-0.334 -2.128,-37.972 35.957,-41.617Z" style="fill:#189caa;fill-rule:nonzero;"/><path id="path6-05-9" d="M105.982,108.245l0.004,0c0.404,0 0.805,-0.004 1.217,-0.015c0.942,-0.024 1.745,-0.705 1.927,-1.639c0.06,-0.31 5.636,-35.317 -29.55,-42.746c-0.534,-0.112 -1.089,-0.002 -1.539,0.31c-0.451,0.307 -0.761,0.787 -0.851,1.328c-0.131,0.74 -3.048,18.275 6.391,29.598c5.033,6.04 12.571,13.163 22.401,13.163l0,-0Z" style="fill:#189caa;fill-rule:nonzero;"/><path id="path7-22-3" d="M117.52,108.245l-0.002,0c-0.404,0 -0.807,-0.004 -1.221,-0.015c-0.942,-0.024 -1.744,-0.705 -1.924,-1.639c-0.062,-0.31 -5.636,-35.317 29.55,-42.746c0.533,-0.112 1.088,-0.002 1.538,0.31c0.451,0.307 0.759,0.787 0.852,1.328c0.131,0.74 3.045,18.275 -6.392,29.598c-5.033,6.04 -12.571,13.163 -22.401,13.163l0,-0Z" style="fill:#189caa;fill-rule:nonzero;"/></g></g></svg>