<?xml version="1.0" encoding="UTF-8" standalone="no"?><!DOCTYPE svg PUBLIC "-//W3C//DTD SVG 1.1//EN" "http://www.w3.org/Graphics/SVG/1.1/DTD/svg11.dtd"><svg width="100%" height="100%" viewBox="0 0 224 212" version="1.1" xmlns="http://www.w3.org/2000/svg" xmlns:xlink="http://www.w3.org/1999/xlink" xml:space="preserve" xmlns:serif="http://www.serif.com/" style="fill-rule:evenodd;clip-rule:evenodd;stroke-linejoin:round;stroke-miterlimit:2;"><rect id="Finances" x="0" y="0.384" width="223.502" height="211.507" style="fill:none;"/><path id="path4-40-0" d="M35.921,155.122l-7.465,-3.528c-3.765,-1.779 -6.216,-5.153 -6.216,-8.939l0,-73.028c0,-3.786 2.451,-7.163 6.216,-8.942l77.272,-36.514c1.872,-0.885 3.949,-1.323 6.02,-1.323c2.068,0 4.154,0.438 6.026,1.323l77.269,36.514c3.765,1.779 6.219,5.156 6.219,8.942l0,73.028c0,3.786 -2.457,7.16 -6.219,8.939l-7.232,3.417c1.371,-2.389 1.984,-4.869 1.984,-7.349l0,-3.75l0.294,-0.139c0.625,-0.295 0.879,-0.762 0.879,-1.119l0,-73.028c0,-0.356 -0.254,-0.824 -0.879,-1.119l-77.269,-36.514c-0.327,-0.155 -0.695,-0.237 -1.072,-0.237c-0.374,0 -0.739,0.082 -1.066,0.237l-77.269,36.514c-0.625,0.295 -0.879,0.762 -0.879,1.119l0,73.028c0,0.356 0.254,0.824 0.879,1.119l0.443,0.209l-0,3.679c0,2.542 0.633,5.041 2.066,7.459Zm123.738,13.193l-41.885,19.793c-3.71,1.756 -8.337,1.756 -12.047,0l-41.56,-19.639c1.23,0.079 2.473,0.119 3.723,0.119c4.763,0 9.525,-0.596 13.783,-1.712c0.144,-0.027 0.288,-0.057 0.431,-0.092l28.577,13.504c0.663,0.313 1.472,0.313 2.138,0l28.898,-13.656c4.397,1.181 9.128,1.808 14.141,1.808c1.27,0 2.54,-0.042 3.801,-0.126Z" style="fill:#189caa;stroke:#189caa;stroke-width:0.5px;"/><g id="Finances1" serif:id="Finances"><g><path d="M87.565,73.269c0,1.776 0.789,3.552 2.367,5.23c2.416,2.614 6.46,4.785 11.44,6.117c3.797,1.036 7.889,1.579 12.229,1.579c4.241,0 8.481,-0.543 12.229,-1.579c4.98,-1.381 9.023,-3.552 11.44,-6.117c1.578,-1.678 2.367,-3.454 2.367,-5.279l0,-4.341c-0.05,0.049 -0.099,0.099 -0.197,0.148c-0.099,0.099 -0.148,0.149 -0.246,0.247c-0.099,0.099 -0.246,0.197 -0.395,0.345c-0.099,0.049 -0.197,0.148 -0.246,0.197c-0.148,0.099 -0.296,0.197 -0.394,0.345c-0.099,0.049 -0.197,0.148 -0.247,0.197c-0.148,0.099 -0.295,0.246 -0.444,0.345c-0.099,0.05 -0.148,0.099 -0.246,0.149c-0.197,0.148 -0.394,0.295 -0.591,0.394c-0.05,0.05 -0.099,0.05 -0.148,0.099c-0.247,0.149 -0.494,0.345 -0.789,0.494c-0.05,0.049 -0.099,0.049 -0.197,0.099c-0.197,0.099 -0.395,0.246 -0.641,0.345c-0.099,0.049 -0.197,0.099 -0.296,0.148c-0.197,0.099 -0.345,0.197 -0.542,0.296c-0.099,0.05 -0.197,0.099 -0.345,0.149c-0.197,0.099 -0.346,0.197 -0.543,0.246c-0.099,0.049 -0.246,0.099 -0.345,0.148c-0.197,0.099 -0.345,0.149 -0.543,0.247c-0.099,0.049 -0.246,0.099 -0.395,0.148c-0.197,0.099 -0.345,0.148 -0.543,0.246c-0.148,0.05 -0.246,0.099 -0.394,0.149c-0.197,0.049 -0.395,0.148 -0.591,0.197c-0.149,0.049 -0.247,0.099 -0.395,0.148c-0.197,0.049 -0.394,0.148 -0.591,0.197c-0.148,0.049 -0.246,0.099 -0.395,0.148c-0.246,0.099 -0.444,0.149 -0.69,0.197c-0.099,0.05 -0.197,0.05 -0.295,0.099c-0.345,0.099 -0.691,0.197 -1.036,0.296c-4.142,1.135 -8.678,1.726 -13.363,1.726c-4.734,0 -9.221,-0.591 -13.363,-1.726c-0.345,-0.099 -0.69,-0.197 -1.035,-0.296c-0.099,-0.049 -0.197,-0.049 -0.345,-0.099c-0.246,-0.049 -0.444,-0.148 -0.69,-0.197c-0.148,-0.049 -0.246,-0.099 -0.395,-0.148c-0.197,-0.05 -0.394,-0.149 -0.591,-0.197c-0.148,-0.049 -0.246,-0.099 -0.394,-0.148c-0.197,-0.05 -0.395,-0.149 -0.543,-0.197c-0.149,-0.05 -0.246,-0.099 -0.395,-0.149c-0.197,-0.049 -0.345,-0.148 -0.543,-0.197c-0.148,-0.049 -0.246,-0.098 -0.394,-0.148c-0.197,-0.099 -0.345,-0.148 -0.494,-0.246c-0.148,-0.05 -0.246,-0.099 -0.394,-0.197c-0.148,-0.099 -0.345,-0.148 -0.493,-0.246c-0.099,-0.05 -0.247,-0.099 -0.346,-0.197c-0.197,-0.099 -0.345,-0.197 -0.493,-0.247c-0.099,-0.049 -0.197,-0.099 -0.296,-0.148c-0.197,-0.099 -0.394,-0.197 -0.542,-0.345c-0.099,-0.05 -0.149,-0.099 -0.247,-0.149c-0.246,-0.148 -0.493,-0.295 -0.789,-0.493c-0.049,-0.05 -0.098,-0.05 -0.148,-0.099c-0.197,-0.149 -0.394,-0.247 -0.591,-0.395c-0.099,-0.049 -0.149,-0.099 -0.246,-0.197c-0.149,-0.099 -0.296,-0.197 -0.444,-0.345c-0.099,-0.05 -0.197,-0.148 -0.296,-0.197c-0.148,-0.099 -0.246,-0.197 -0.394,-0.296c-0.099,-0.099 -0.197,-0.148 -0.247,-0.246c-0.148,-0.099 -0.246,-0.197 -0.345,-0.296c-0.099,-0.099 -0.197,-0.148 -0.246,-0.246c-0.049,-0.05 -0.099,-0.099 -0.197,-0.149l0,4.44l-0.049,0Z" style="fill:#189caa;fill-rule:nonzero;"/><path d="M101.372,71.148c3.797,1.036 7.889,1.579 12.229,1.579c4.241,0 8.481,-0.543 12.229,-1.579c4.98,-1.381 9.023,-3.552 11.44,-6.117c1.578,-1.678 2.367,-3.454 2.367,-5.279c0,-7.005 -11.934,-12.974 -25.987,-12.974c-14.102,0 -26.036,5.919 -26.036,12.974c0,1.776 0.789,3.552 2.367,5.279c2.318,2.565 6.41,4.735 11.391,6.117Z" style="fill:#189caa;fill-rule:nonzero;"/><path d="M98.315,107.063l0,3.65c0.099,0.05 0.148,0.05 0.246,0.099c0.295,0.099 0.641,0.246 0.986,0.345c0.148,0.05 0.246,0.099 0.394,0.149c0.444,0.148 0.888,0.296 1.331,0.394l0.099,0c3.747,1.036 7.939,1.579 12.229,1.579c4.29,0 8.481,-0.543 12.229,-1.579l0.099,0c3.402,-0.937 6.36,-2.269 8.628,-3.798c1.036,-0.691 1.973,-1.48 2.713,-2.27c1.578,-1.678 2.367,-3.453 2.367,-5.229l0,-4.341c-0.05,0.05 -0.099,0.099 -0.149,0.148c-0.099,0.099 -0.197,0.197 -0.345,0.296c-0.099,0.099 -0.197,0.149 -0.295,0.247c-0.099,0.098 -0.247,0.197 -0.345,0.295c-0.099,0.099 -0.197,0.149 -0.296,0.247c-0.099,0.099 -0.246,0.197 -0.345,0.246c-0.099,0.099 -0.246,0.148 -0.345,0.246c-0.099,0.099 -0.246,0.197 -0.345,0.247c-0.099,0.099 -0.247,0.148 -0.345,0.246c-0.247,0.148 -0.494,0.296 -0.74,0.444c-0.148,0.099 -0.246,0.149 -0.394,0.246c-0.149,0.099 -0.296,0.149 -0.395,0.247c-0.148,0.049 -0.246,0.148 -0.394,0.197c-0.149,0.099 -0.296,0.148 -0.444,0.246c-0.149,0.049 -0.247,0.148 -0.395,0.197c-0.148,0.099 -0.296,0.148 -0.444,0.197c-0.148,0.049 -0.296,0.148 -0.394,0.197c-0.149,0.049 -0.296,0.148 -0.444,0.197c-0.149,0.05 -0.296,0.149 -0.444,0.197c-0.149,0.05 -0.296,0.149 -0.444,0.197c-0.149,0.05 -0.296,0.149 -0.494,0.197c-0.148,0.049 -0.295,0.099 -0.444,0.197c-0.148,0.049 -0.345,0.148 -0.542,0.197c-0.149,0.049 -0.296,0.099 -0.444,0.148c-0.197,0.05 -0.395,0.148 -0.592,0.197c-0.099,0.049 -0.246,0.099 -0.345,0.099c-0.246,0.099 -0.543,0.148 -0.789,0.246c-0.049,0 -0.148,0.05 -0.197,0.05c-0.345,0.099 -0.69,0.197 -1.035,0.295c-0.789,0.197 -1.578,0.395 -2.367,0.592c-2.416,0.543 -4.931,0.888 -7.544,1.036c-1.134,0.049 -2.318,0.099 -3.501,0.099c-1.184,0 -2.367,-0.05 -3.501,-0.099c-2.515,-0.149 -4.981,-0.494 -7.348,-0.986c-0.838,-0.197 -1.725,-0.395 -2.564,-0.592c-0.049,0 -0.049,0 -0.099,-0.05c-0.493,-0.148 -0.985,-0.295 -1.479,-0.444c-0.099,-0.049 -0.197,-0.049 -0.345,-0.099c-0.493,-0.148 -0.986,-0.345 -1.479,-0.493c-0.049,0 -0.049,0 -0.099,-0.05c1.085,1.776 1.628,3.7 1.628,5.674Z" style="fill:#189caa;fill-rule:nonzero;"/><path d="M139.586,82.445c-0.049,0.049 -0.099,0.099 -0.197,0.148c-0.098,0.099 -0.148,0.149 -0.246,0.246c-0.099,0.099 -0.246,0.197 -0.345,0.296c-0.099,0.099 -0.197,0.149 -0.246,0.247c-0.148,0.099 -0.246,0.197 -0.394,0.295c-0.099,0.05 -0.197,0.149 -0.296,0.197c-0.148,0.099 -0.296,0.197 -0.444,0.346c-0.099,0.049 -0.148,0.148 -0.246,0.197c-0.197,0.149 -0.395,0.247 -0.543,0.395c-0.05,0.05 -0.099,0.099 -0.148,0.099c-0.247,0.148 -0.494,0.296 -0.789,0.494c-0.05,0.049 -0.149,0.099 -0.197,0.148c-0.197,0.099 -0.395,0.246 -0.591,0.345c-0.099,0.05 -0.197,0.099 -0.296,0.149c-0.148,0.099 -0.345,0.197 -0.543,0.295c-0.099,0.05 -0.246,0.099 -0.345,0.197c-0.148,0.099 -0.345,0.149 -0.493,0.247c-0.099,0.049 -0.247,0.099 -0.395,0.148c-0.148,0.099 -0.345,0.148 -0.543,0.246c-0.148,0.05 -0.246,0.099 -0.394,0.149c-0.197,0.099 -0.345,0.148 -0.543,0.197c-0.148,0.049 -0.246,0.099 -0.395,0.148c-0.197,0.05 -0.394,0.148 -0.542,0.197c-0.149,0.049 -0.247,0.099 -0.395,0.148c-0.197,0.05 -0.394,0.149 -0.591,0.197c-0.149,0.05 -0.246,0.099 -0.395,0.149c-0.246,0.049 -0.444,0.148 -0.69,0.197c-0.099,0.05 -0.197,0.05 -0.345,0.099c-0.345,0.099 -0.69,0.197 -1.035,0.296c-4.142,1.135 -8.679,1.726 -13.363,1.726c-4.734,0 -9.221,-0.591 -13.363,-1.726c-0.345,-0.099 -0.69,-0.197 -1.035,-0.296c-0.099,-0.049 -0.247,-0.049 -0.346,-0.099c-0.246,-0.049 -0.444,-0.148 -0.69,-0.197c-0.148,-0.05 -0.246,-0.099 -0.394,-0.149c-0.197,-0.049 -0.395,-0.148 -0.591,-0.197c-0.149,-0.049 -0.247,-0.099 -0.395,-0.148c-0.197,-0.05 -0.395,-0.148 -0.543,-0.197c-0.148,-0.049 -0.246,-0.099 -0.394,-0.148c-0.197,-0.05 -0.345,-0.149 -0.543,-0.197c-0.149,-0.05 -0.246,-0.099 -0.395,-0.149c-0.197,-0.099 -0.345,-0.148 -0.493,-0.246c-0.148,-0.049 -0.246,-0.099 -0.395,-0.197c-0.148,-0.099 -0.345,-0.148 -0.493,-0.246c-0.099,-0.05 -0.246,-0.099 -0.345,-0.197c-0.148,-0.099 -0.345,-0.197 -0.493,-0.246c-0.099,-0.05 -0.197,-0.099 -0.346,-0.149c-0.197,-0.099 -0.394,-0.197 -0.542,-0.295c-0.099,-0.05 -0.149,-0.099 -0.247,-0.149c-0.246,-0.148 -0.493,-0.296 -0.739,-0.494c-0.05,-0.049 -0.148,-0.098 -0.197,-0.148c-0.197,-0.099 -0.345,-0.246 -0.543,-0.345c-0.099,-0.05 -0.197,-0.149 -0.295,-0.197c-0.149,-0.099 -0.296,-0.197 -0.444,-0.296c-0.099,-0.049 -0.197,-0.148 -0.296,-0.197c-0.148,-0.099 -0.246,-0.197 -0.394,-0.295c-0.099,-0.099 -0.197,-0.149 -0.296,-0.247c-0.099,-0.099 -0.246,-0.197 -0.345,-0.296c-0.099,-0.099 -0.197,-0.148 -0.246,-0.246c-0.05,-0.049 -0.099,-0.099 -0.149,-0.148l0,4.341c0,1.381 0.444,2.713 1.381,4.045c0.295,0.394 0.591,0.839 0.985,1.233c2.022,2.171 5.128,3.996 8.974,5.378c0.789,0.296 1.628,0.543 2.466,0.789c0.789,0.197 1.578,0.395 2.417,0.592c2.071,0.444 4.191,0.74 6.41,0.888c1.134,0.05 2.219,0.099 3.402,0.099c1.134,0 2.318,-0.049 3.452,-0.099c1.972,-0.148 3.896,-0.394 5.72,-0.74c0.049,0 0.099,0 0.148,-0.049c0.099,0 0.149,-0.05 0.246,-0.05c0.888,-0.197 1.775,-0.394 2.663,-0.641c1.134,-0.295 2.169,-0.641 3.206,-1.035c3.501,-1.332 6.41,-3.109 8.283,-5.081c0.296,-0.345 0.592,-0.691 0.839,-1.036c0.986,-1.381 1.529,-2.812 1.529,-4.243l0,-4.489l-0.149,0Z" style="fill:#189caa;fill-rule:nonzero;"/><path d="M125.287,129.953c-0.494,0.099 -0.986,0.197 -1.479,0.296c-0.149,0.05 -0.296,0.05 -0.444,0.099c-0.345,0.05 -0.74,0.149 -1.134,0.197c-0.197,0.05 -0.395,0.05 -0.592,0.099c-0.345,0.049 -0.64,0.099 -0.985,0.148c-0.197,0.05 -0.444,0.05 -0.641,0.099c-0.345,0.05 -0.641,0.099 -0.986,0.099c-0.197,0 -0.444,0.05 -0.641,0.05c-0.345,0.049 -0.69,0.049 -0.985,0.099c-0.197,0 -0.395,0.049 -0.641,0.049c-0.345,0 -0.74,0.05 -1.085,0.05l-0.543,0c-0.542,0 -1.084,0.049 -1.677,0.049c-4.734,0 -9.221,-0.592 -13.412,-1.726c-0.543,-0.149 -1.085,-0.296 -1.627,-0.494c-0.05,0 -0.149,-0.049 -0.197,-0.049l0,8.83c0.099,0.049 0.148,0.049 0.246,0.099c0.345,0.099 0.641,0.246 0.986,0.345c0.148,0.05 0.246,0.099 0.394,0.148c0.444,0.149 0.888,0.296 1.381,0.395c3.796,1.036 7.889,1.579 12.228,1.579c0.543,0 1.036,0 1.579,-0.049l0.542,0c0.345,0 0.691,-0.05 1.036,-0.05c0.197,0 0.394,-0.049 0.64,-0.049c0.296,0 0.641,-0.05 0.937,-0.05c0.197,0 0.444,-0.049 0.64,-0.049c0.296,-0.05 0.592,-0.05 0.888,-0.099c0.246,-0.05 0.444,-0.05 0.69,-0.099c0.296,-0.05 0.543,-0.099 0.839,-0.099c0.246,-0.05 0.444,-0.099 0.69,-0.099c0.246,-0.05 0.543,-0.099 0.789,-0.148c0.246,-0.05 0.444,-0.099 0.641,-0.149c0.246,-0.049 0.543,-0.099 0.789,-0.148c0.197,-0.05 0.444,-0.099 0.64,-0.149c0.149,-0.049 0.346,-0.099 0.494,-0.148l0,-9.078Z" style="fill:#189caa;fill-rule:nonzero;"/><path d="M98.315,124.28c0.099,0.049 0.148,0.049 0.246,0.099c0.295,0.099 0.641,0.246 0.986,0.345c0.148,0.05 0.246,0.099 0.394,0.149c0.444,0.148 0.888,0.295 1.38,0.394c3.797,1.036 7.89,1.579 12.229,1.579c0.543,0 1.036,0 1.578,-0.049l0.494,0c0.345,0 0.69,-0.05 1.035,-0.05c0.197,0 0.395,-0.049 0.641,-0.049c0.295,0 0.64,-0.05 0.937,-0.05c0.197,0 0.444,-0.049 0.641,-0.049c0.295,-0.05 0.591,-0.05 0.888,-0.099c0.246,-0.05 0.444,-0.05 0.64,-0.099c0.296,-0.05 0.543,-0.099 0.839,-0.099c0.246,-0.049 0.444,-0.099 0.641,-0.099c0.246,-0.049 0.542,-0.099 0.789,-0.148c0.197,-0.05 0.444,-0.099 0.64,-0.149c0.246,-0.049 0.543,-0.099 0.789,-0.148c0.197,-0.05 0.444,-0.099 0.641,-0.148c0.148,-0.05 0.345,-0.099 0.493,-0.149l0,-4.735c0,-1.53 0.345,-3.01 0.937,-4.44c-0.149,0.049 -0.345,0.099 -0.494,0.099c-0.246,0.049 -0.493,0.099 -0.739,0.148c-0.296,0.049 -0.543,0.099 -0.839,0.197c-0.246,0.049 -0.493,0.099 -0.739,0.148c-0.296,0.05 -0.592,0.099 -0.888,0.149c-0.246,0.049 -0.494,0.099 -0.74,0.148c-0.295,0.049 -0.591,0.099 -0.888,0.148c-0.246,0.05 -0.493,0.05 -0.739,0.099c-0.296,0.05 -0.641,0.05 -0.937,0.099c-0.246,0.05 -0.444,0.05 -0.69,0.099c-0.345,0.05 -0.69,0.05 -0.986,0.099c-0.197,0 -0.443,0.05 -0.64,0.05c-0.395,0 -0.74,0.049 -1.134,0.049c-0.197,0 -0.395,0 -0.543,0.05c-0.543,0 -1.134,0.049 -1.726,0.049c-4.684,0 -9.171,-0.592 -13.313,-1.726l-0.05,0c-0.542,-0.149 -1.084,-0.296 -1.627,-0.494c-0.05,0 -0.148,-0.049 -0.197,-0.049l0,8.633l0.05,0Z" style="fill:#189caa;fill-rule:nonzero;"/><path d="M126.273,152.153c-0.641,-1.431 -0.986,-2.96 -0.986,-4.49l0,-4.193c-0.494,0.099 -0.986,0.197 -1.479,0.345c-0.149,0.05 -0.296,0.05 -0.444,0.099c-0.345,0.049 -0.74,0.148 -1.085,0.197c-0.197,0.049 -0.394,0.049 -0.591,0.099c-0.345,0.049 -0.641,0.099 -0.986,0.148c-0.197,0.05 -0.394,0.05 -0.641,0.099c-0.345,0.05 -0.64,0.099 -0.985,0.099c-0.197,0 -0.444,0.05 -0.641,0.05c-0.345,0.049 -0.69,0.049 -0.986,0.098c-0.197,0 -0.394,0.05 -0.641,0.05c-0.345,0 -0.739,0.049 -1.084,0.049l-0.543,0c-0.543,0 -1.085,0.05 -1.677,0.05c-4.734,0 -9.221,-0.592 -13.413,-1.726c-0.542,-0.149 -1.084,-0.296 -1.627,-0.494c-0.05,0 -0.148,-0.05 -0.197,-0.05l0,5.18c0,1.184 -0.197,2.319 -0.591,3.454c4.536,1.776 10.06,2.763 15.779,2.763c4.586,-0.099 8.974,-0.691 12.821,-1.825Z" style="fill:#189caa;fill-rule:nonzero;"/><path d="M44.222,112.341c2.416,2.615 6.459,4.786 11.44,6.118c3.797,1.036 7.889,1.579 12.229,1.579c1.578,0 3.205,-0.099 4.734,-0.246c2.613,-0.247 5.128,-0.691 7.445,-1.332c2.811,-0.74 5.326,-1.776 7.397,-3.009c1.628,-0.937 3.008,-1.974 4.043,-3.109c1.578,-1.677 2.367,-3.453 2.367,-5.278c0,-7.005 -11.933,-12.975 -26.036,-12.975c-14.102,0 -26.036,5.92 -26.036,12.975c0,0.246 0,0.444 0.05,0.69c0.246,1.579 1.035,3.109 2.367,4.588Z" style="fill:#189caa;fill-rule:nonzero;"/><path d="M93.088,144.013c-0.099,0.099 -0.197,0.148 -0.296,0.246c-0.148,0.099 -0.246,0.197 -0.394,0.296c-0.099,0.05 -0.197,0.148 -0.296,0.197c-0.148,0.099 -0.295,0.197 -0.444,0.345c-0.099,0.05 -0.148,0.099 -0.246,0.197c-0.197,0.148 -0.394,0.246 -0.591,0.395c-0.05,0.049 -0.099,0.049 -0.148,0.099c-0.247,0.148 -0.494,0.295 -0.789,0.493c-0.05,0.05 -0.149,0.05 -0.197,0.099c-0.197,0.099 -0.395,0.247 -0.592,0.346c-0.098,0.049 -0.197,0.098 -0.295,0.148c-0.197,0.099 -0.345,0.197 -0.543,0.296c-0.099,0.049 -0.197,0.099 -0.345,0.148c-0.197,0.099 -0.345,0.148 -0.543,0.246c-0.099,0.05 -0.246,0.099 -0.345,0.149c-0.197,0.099 -0.345,0.148 -0.543,0.246c-0.148,0.05 -0.246,0.099 -0.394,0.149c-0.197,0.098 -0.345,0.148 -0.543,0.246c-0.148,0.049 -0.246,0.099 -0.395,0.148c-0.197,0.05 -0.394,0.149 -0.591,0.197c-0.148,0.05 -0.246,0.099 -0.394,0.148c-0.197,0.05 -0.395,0.149 -0.592,0.197c-0.148,0.05 -0.246,0.099 -0.394,0.149c-0.246,0.049 -0.444,0.148 -0.69,0.197c-0.099,0.049 -0.197,0.049 -0.345,0.099c-0.346,0.098 -0.691,0.197 -1.036,0.295c-4.142,1.135 -8.678,1.727 -13.363,1.727c-4.734,0 -9.221,-0.592 -13.363,-1.727c-0.345,-0.099 -0.69,-0.197 -1.035,-0.295c-0.099,-0.05 -0.246,-0.05 -0.345,-0.099c-0.246,-0.05 -0.444,-0.149 -0.641,-0.197c-0.148,-0.05 -0.246,-0.099 -0.394,-0.149c-0.197,-0.049 -0.395,-0.148 -0.592,-0.197c-0.148,-0.049 -0.295,-0.098 -0.394,-0.148c-0.197,-0.049 -0.345,-0.148 -0.543,-0.197c-0.148,-0.049 -0.296,-0.099 -0.394,-0.148c-0.197,-0.05 -0.345,-0.149 -0.543,-0.197c-0.149,-0.049 -0.246,-0.099 -0.395,-0.148c-0.148,-0.099 -0.345,-0.149 -0.493,-0.247c-0.148,-0.049 -0.246,-0.099 -0.395,-0.197c-0.148,-0.099 -0.345,-0.148 -0.493,-0.246c-0.099,-0.049 -0.246,-0.099 -0.345,-0.197c-0.148,-0.099 -0.345,-0.197 -0.494,-0.246c-0.098,-0.05 -0.197,-0.099 -0.345,-0.197c-0.197,-0.099 -0.394,-0.197 -0.542,-0.296c-0.099,-0.049 -0.149,-0.099 -0.247,-0.148c-0.246,-0.149 -0.493,-0.296 -0.739,-0.494c-0.05,-0.049 -0.099,-0.049 -0.149,-0.099c-0.197,-0.148 -0.394,-0.246 -0.591,-0.394c-0.099,-0.05 -0.197,-0.149 -0.246,-0.197c-0.148,-0.099 -0.296,-0.197 -0.444,-0.296c-0.099,-0.05 -0.197,-0.148 -0.296,-0.197c-0.148,-0.099 -0.246,-0.197 -0.394,-0.296c-0.099,-0.099 -0.197,-0.148 -0.296,-0.246c-0.099,-0.099 -0.246,-0.197 -0.345,-0.296c-0.099,-0.099 -0.197,-0.148 -0.246,-0.246c-0.049,-0.05 -0.099,-0.099 -0.148,-0.149l0,4.341c0,1.826 0.789,3.552 2.367,5.23c2.416,2.565 6.41,4.735 11.341,6.117l0.099,0c3.747,1.036 7.938,1.579 12.229,1.579c4.24,0 8.481,-0.543 12.229,-1.579l0.098,0c4.931,-1.331 8.974,-3.503 11.341,-6.117c1.578,-1.678 2.368,-3.454 2.368,-5.23l0,-4.341c-0.05,0.05 -0.099,0.099 -0.149,0.149c-0.099,0.099 -0.197,0.148 -0.246,0.246c-0.197,0.099 -0.296,0.197 -0.444,0.296Z" style="fill:#189caa;fill-rule:nonzero;"/><path d="M41.855,120.63c0,1.775 0.789,3.552 2.367,5.229c2.416,2.614 6.459,4.785 11.44,6.118c3.797,1.035 7.889,1.578 12.229,1.578c1.578,0 3.205,-0.099 4.734,-0.246c2.613,-0.246 5.128,-0.69 7.445,-1.331c3.402,-0.937 6.41,-2.27 8.728,-3.849c1.035,-0.74 1.972,-1.48 2.712,-2.319c1.578,-1.677 2.367,-3.453 2.367,-5.278l0,-4.341c-0.049,0.049 -0.099,0.099 -0.197,0.148c-0.099,0.099 -0.148,0.149 -0.246,0.246c-0.148,0.099 -0.246,0.197 -0.394,0.346c-0.099,0.049 -0.197,0.148 -0.247,0.197c-0.148,0.099 -0.246,0.197 -0.394,0.345c-0.099,0.049 -0.197,0.148 -0.246,0.197c-0.149,0.099 -0.296,0.246 -0.444,0.345c-0.099,0.049 -0.149,0.099 -0.246,0.197c-0.197,0.148 -0.395,0.246 -0.592,0.395c-0.049,0.049 -0.099,0.049 -0.148,0.098c-0.246,0.149 -0.493,0.296 -0.789,0.494c-0.049,0.05 -0.148,0.099 -0.197,0.099c-0.197,0.099 -0.394,0.246 -0.591,0.345c-0.099,0.05 -0.197,0.099 -0.296,0.149c-0.148,0.099 -0.345,0.197 -0.543,0.295c-0.098,0.05 -0.246,0.099 -0.345,0.197c-0.148,0.099 -0.345,0.149 -0.493,0.247c-0.148,0.049 -0.246,0.099 -0.395,0.197c-0.148,0.098 -0.345,0.148 -0.493,0.246c-0.148,0.049 -0.246,0.099 -0.394,0.148c-0.197,0.05 -0.345,0.149 -0.543,0.197c-0.149,0.05 -0.246,0.099 -0.395,0.148c-0.197,0.05 -0.345,0.149 -0.543,0.197c-0.148,0.05 -0.246,0.099 -0.394,0.149c-0.197,0.049 -0.395,0.148 -0.591,0.197c-0.149,0.049 -0.247,0.099 -0.395,0.148c-0.197,0.049 -0.444,0.148 -0.641,0.197c-0.098,0.049 -0.246,0.049 -0.345,0.099c-0.345,0.099 -0.69,0.197 -1.035,0.296c-4.142,1.134 -8.678,1.726 -13.363,1.726c-4.734,0 -9.221,-0.592 -13.363,-1.726c-0.345,-0.099 -0.69,-0.197 -1.035,-0.296c-0.099,-0.05 -0.197,-0.05 -0.345,-0.099c-0.246,-0.05 -0.444,-0.149 -0.69,-0.197c-0.149,-0.05 -0.247,-0.099 -0.395,-0.148c-0.197,-0.05 -0.394,-0.149 -0.591,-0.197c-0.149,-0.05 -0.246,-0.099 -0.395,-0.149c-0.197,-0.049 -0.394,-0.148 -0.543,-0.197c-0.148,-0.049 -0.246,-0.098 -0.394,-0.148c-0.197,-0.049 -0.345,-0.148 -0.543,-0.197c-0.148,-0.049 -0.246,-0.099 -0.394,-0.148c-0.197,-0.099 -0.345,-0.149 -0.543,-0.246c-0.149,-0.05 -0.246,-0.099 -0.395,-0.149c-0.197,-0.099 -0.345,-0.148 -0.493,-0.246c-0.099,-0.05 -0.246,-0.099 -0.345,-0.149c-0.197,-0.099 -0.345,-0.197 -0.543,-0.295c-0.099,-0.05 -0.197,-0.099 -0.296,-0.149c-0.197,-0.099 -0.394,-0.197 -0.591,-0.345c-0.049,-0.049 -0.148,-0.099 -0.197,-0.148c-0.246,-0.149 -0.543,-0.296 -0.789,-0.494c-0.049,-0.05 -0.099,-0.05 -0.148,-0.099c-0.197,-0.148 -0.395,-0.246 -0.591,-0.395c-0.099,-0.049 -0.149,-0.099 -0.247,-0.197c-0.148,-0.099 -0.295,-0.197 -0.443,-0.345c-0.099,-0.049 -0.197,-0.148 -0.247,-0.197c-0.148,-0.099 -0.246,-0.197 -0.394,-0.295c-0.099,-0.099 -0.197,-0.149 -0.296,-0.247c-0.099,-0.099 -0.246,-0.197 -0.345,-0.296c-0.099,-0.099 -0.197,-0.148 -0.246,-0.246c-0.05,-0.049 -0.099,-0.099 -0.197,-0.148l0,4.341l-0.049,0Z" style="fill:#189caa;fill-rule:nonzero;"/><path d="M91.559,139.376c1.579,-1.678 2.368,-3.453 2.368,-5.279l0,-4.34c-0.05,0.049 -0.099,0.099 -0.149,0.148c-0.099,0.099 -0.197,0.148 -0.246,0.246c-0.099,0.099 -0.246,0.197 -0.345,0.296c-0.099,0.099 -0.197,0.148 -0.296,0.246c-0.148,0.099 -0.246,0.197 -0.394,0.296c-0.099,0.05 -0.197,0.149 -0.296,0.197c-0.148,0.099 -0.295,0.197 -0.444,0.345c-0.099,0.05 -0.148,0.099 -0.246,0.197c-0.197,0.149 -0.395,0.247 -0.591,0.395c-0.05,0.049 -0.099,0.049 -0.149,0.099c-0.246,0.148 -0.493,0.296 -0.789,0.493c-0.049,0.05 -0.148,0.05 -0.197,0.099c-0.197,0.099 -0.395,0.247 -0.592,0.346c-0.099,0.049 -0.197,0.099 -0.295,0.148c-0.197,0.099 -0.345,0.197 -0.543,0.296c-0.099,0.049 -0.197,0.099 -0.345,0.148c-0.197,0.099 -0.345,0.149 -0.543,0.247c-0.099,0.049 -0.246,0.099 -0.345,0.148c-0.197,0.099 -0.345,0.148 -0.543,0.246c-0.148,0.05 -0.246,0.099 -0.394,0.149c-0.197,0.099 -0.346,0.148 -0.543,0.246c-0.149,0.049 -0.246,0.099 -0.395,0.148c-0.197,0.05 -0.394,0.149 -0.591,0.197c-0.148,0.05 -0.246,0.099 -0.395,0.149c-0.197,0.049 -0.394,0.148 -0.591,0.197c-0.148,0.05 -0.246,0.099 -0.394,0.149c-0.247,0.049 -0.444,0.148 -0.691,0.197c-0.098,0.049 -0.197,0.049 -0.345,0.099c-0.345,0.099 -0.69,0.197 -1.035,0.295c-4.142,1.135 -8.678,1.727 -13.363,1.727c-4.734,0 -9.221,-0.592 -13.363,-1.727c-0.345,-0.098 -0.69,-0.197 -1.035,-0.295c-0.099,-0.05 -0.197,-0.05 -0.345,-0.099c-0.246,-0.05 -0.444,-0.149 -0.69,-0.197c-0.149,-0.05 -0.247,-0.099 -0.395,-0.149c-0.197,-0.049 -0.394,-0.148 -0.591,-0.197c-0.148,-0.05 -0.246,-0.099 -0.395,-0.149c-0.197,-0.049 -0.394,-0.148 -0.542,-0.197c-0.149,-0.049 -0.247,-0.099 -0.395,-0.148c-0.197,-0.049 -0.345,-0.148 -0.543,-0.197c-0.148,-0.049 -0.246,-0.099 -0.394,-0.148c-0.197,-0.099 -0.345,-0.149 -0.543,-0.247c-0.148,-0.049 -0.246,-0.099 -0.395,-0.148c-0.197,-0.099 -0.345,-0.148 -0.493,-0.246c-0.099,-0.05 -0.246,-0.099 -0.345,-0.197c-0.197,-0.099 -0.345,-0.197 -0.543,-0.296c-0.099,-0.049 -0.197,-0.099 -0.296,-0.148c-0.197,-0.099 -0.394,-0.197 -0.591,-0.346c-0.099,-0.049 -0.148,-0.099 -0.246,-0.148c-0.246,-0.148 -0.493,-0.296 -0.789,-0.494c-0.05,-0.049 -0.099,-0.099 -0.197,-0.099c-0.197,-0.098 -0.394,-0.246 -0.543,-0.394c-0.099,-0.05 -0.197,-0.149 -0.246,-0.197c-0.148,-0.099 -0.296,-0.197 -0.444,-0.296c-0.099,-0.049 -0.197,-0.148 -0.295,-0.197c-0.149,-0.099 -0.247,-0.197 -0.395,-0.296c-0.099,-0.099 -0.197,-0.148 -0.296,-0.246c-0.098,-0.099 -0.246,-0.197 -0.345,-0.296c-0.099,-0.099 -0.197,-0.148 -0.295,-0.246c-0.05,-0.049 -0.099,-0.099 -0.149,-0.148l0,4.341c0,1.825 0.789,3.552 2.367,5.229c2.417,2.614 6.46,4.785 11.44,6.117c3.797,1.036 7.89,1.579 12.229,1.579c1.578,0 3.206,-0.099 4.734,-0.246c2.614,-0.246 5.128,-0.691 7.446,-1.332c3.402,-0.937 6.41,-2.269 8.728,-3.848c1.233,-0.591 2.119,-1.381 2.908,-2.22Z" style="fill:#189caa;fill-rule:nonzero;"/><path d="M143.531,131.976c3.797,1.035 7.89,1.578 12.229,1.578c4.241,0 8.482,-0.543 12.229,-1.578c4.981,-1.382 9.024,-3.552 11.44,-6.118c1.578,-1.678 2.367,-3.454 2.367,-5.279c0,-7.005 -11.933,-12.974 -25.986,-12.974c-14.103,0 -26.036,5.92 -26.036,12.974c0,1.776 0.789,3.552 2.367,5.279c2.367,2.615 6.459,4.785 11.39,6.118Z" style="fill:#189caa;fill-rule:nonzero;"/><path d="M179.429,152.942c1.578,-1.678 2.367,-3.453 2.367,-5.279l0,-4.341c-0.049,0.05 -0.099,0.099 -0.148,0.149c-0.099,0.099 -0.197,0.148 -0.246,0.246c-0.099,0.099 -0.246,0.197 -0.345,0.296c-0.099,0.099 -0.197,0.148 -0.296,0.246c-0.148,0.099 -0.246,0.197 -0.395,0.296c-0.098,0.05 -0.197,0.148 -0.295,0.197c-0.148,0.099 -0.296,0.197 -0.444,0.345c-0.099,0.05 -0.148,0.099 -0.246,0.197c-0.197,0.148 -0.395,0.246 -0.592,0.395c-0.049,0.049 -0.098,0.049 -0.148,0.099c-0.246,0.148 -0.493,0.295 -0.789,0.493c-0.049,0.05 -0.148,0.099 -0.197,0.099c-0.197,0.099 -0.394,0.247 -0.591,0.346c-0.099,0.049 -0.197,0.098 -0.296,0.148c-0.197,0.099 -0.345,0.197 -0.542,0.296c-0.099,0.049 -0.247,0.099 -0.346,0.148c-0.148,0.099 -0.345,0.148 -0.493,0.246c-0.099,0.05 -0.246,0.099 -0.345,0.149c-0.148,0.099 -0.345,0.148 -0.543,0.246c-0.148,0.05 -0.246,0.099 -0.394,0.149c-0.197,0.098 -0.345,0.148 -0.543,0.197c-0.148,0.05 -0.246,0.099 -0.395,0.149c-0.197,0.049 -0.394,0.148 -0.542,0.197c-0.149,0.049 -0.247,0.099 -0.395,0.148c-0.197,0.049 -0.395,0.148 -0.591,0.197c-0.149,0.049 -0.246,0.099 -0.395,0.148c-0.246,0.05 -0.444,0.149 -0.69,0.197c-0.099,0.05 -0.197,0.05 -0.345,0.099c-0.345,0.099 -0.69,0.197 -1.035,0.296c-4.142,1.135 -8.679,1.726 -13.363,1.726c-4.734,0 -9.221,-0.591 -13.363,-1.726c-0.345,-0.099 -0.69,-0.197 -1.036,-0.296c-0.098,-0.049 -0.246,-0.049 -0.345,-0.099c-0.246,-0.049 -0.444,-0.148 -0.69,-0.197c-0.148,-0.049 -0.246,-0.099 -0.394,-0.148c-0.197,-0.05 -0.395,-0.149 -0.592,-0.197c-0.148,-0.049 -0.246,-0.099 -0.394,-0.148c-0.197,-0.05 -0.395,-0.149 -0.543,-0.197c-0.148,-0.05 -0.246,-0.099 -0.394,-0.149c-0.197,-0.049 -0.345,-0.148 -0.543,-0.197c-0.149,-0.05 -0.246,-0.099 -0.395,-0.149c-0.197,-0.099 -0.345,-0.148 -0.493,-0.246c-0.148,-0.05 -0.246,-0.099 -0.395,-0.197c-0.148,-0.099 -0.345,-0.148 -0.493,-0.246c-0.099,-0.05 -0.246,-0.099 -0.345,-0.197c-0.197,-0.099 -0.345,-0.197 -0.543,-0.296c-0.099,-0.05 -0.197,-0.099 -0.296,-0.148c-0.197,-0.099 -0.394,-0.197 -0.591,-0.346c-0.049,-0.049 -0.148,-0.099 -0.197,-0.099c-0.246,-0.148 -0.542,-0.295 -0.789,-0.493c-0.049,-0.05 -0.099,-0.05 -0.148,-0.099c-0.197,-0.149 -0.394,-0.247 -0.591,-0.395c-0.099,-0.049 -0.149,-0.099 -0.246,-0.197c-0.149,-0.099 -0.296,-0.197 -0.444,-0.345c-0.099,-0.05 -0.197,-0.148 -0.247,-0.197c-0.148,-0.099 -0.295,-0.197 -0.394,-0.345c-0.099,-0.05 -0.197,-0.149 -0.246,-0.197c-0.149,-0.099 -0.246,-0.197 -0.395,-0.345c-0.099,-0.099 -0.148,-0.149 -0.246,-0.247c-0.049,-0.049 -0.099,-0.099 -0.197,-0.148l0,4.341c0,1.825 0.789,3.552 2.367,5.229c2.417,2.615 6.46,4.785 11.44,6.118c3.797,1.036 7.89,1.579 12.229,1.579c4.241,0 8.482,-0.543 12.229,-1.579c4.882,-1.184 8.925,-3.355 11.341,-5.92Z" style="fill:#189caa;fill-rule:nonzero;"/><path d="M143.531,145.542c3.797,1.036 7.89,1.579 12.229,1.579c4.241,0 8.482,-0.543 12.229,-1.579c4.981,-1.381 9.024,-3.552 11.44,-6.117c1.578,-1.678 2.367,-3.454 2.367,-5.279l0,-4.341c-0.049,0.05 -0.099,0.099 -0.197,0.148c-0.098,0.099 -0.148,0.149 -0.246,0.247c-0.148,0.099 -0.246,0.197 -0.394,0.345c-0.099,0.049 -0.197,0.148 -0.246,0.197c-0.149,0.099 -0.247,0.197 -0.395,0.345c-0.099,0.05 -0.197,0.149 -0.246,0.197c-0.148,0.099 -0.296,0.197 -0.444,0.345c-0.099,0.05 -0.148,0.099 -0.246,0.197c-0.197,0.149 -0.395,0.246 -0.592,0.395c-0.049,0.049 -0.098,0.049 -0.148,0.099c-0.246,0.148 -0.493,0.296 -0.789,0.493c-0.049,0.05 -0.148,0.099 -0.197,0.099c-0.197,0.099 -0.394,0.247 -0.591,0.346c-0.099,0.049 -0.197,0.099 -0.296,0.148c-0.148,0.099 -0.345,0.197 -0.493,0.296c-0.099,0.049 -0.246,0.099 -0.345,0.197c-0.148,0.099 -0.345,0.148 -0.493,0.246c-0.149,0.049 -0.247,0.099 -0.395,0.197c-0.148,0.099 -0.345,0.148 -0.493,0.246c-0.149,0.05 -0.247,0.099 -0.395,0.149c-0.197,0.049 -0.345,0.148 -0.543,0.197c-0.148,0.05 -0.246,0.099 -0.394,0.149c-0.197,0.049 -0.395,0.148 -0.543,0.197c-0.148,0.049 -0.246,0.099 -0.395,0.148c-0.197,0.049 -0.394,0.148 -0.591,0.197c-0.148,0.049 -0.246,0.099 -0.394,0.148c-0.247,0.05 -0.444,0.149 -0.69,0.197c-0.099,0.05 -0.197,0.05 -0.346,0.099c-0.345,0.099 -0.69,0.197 -1.035,0.296c-4.142,1.135 -8.678,1.726 -13.363,1.726c-4.734,0 -9.221,-0.591 -13.363,-1.726c-0.345,-0.099 -0.69,-0.197 -1.035,-0.296c-0.099,-0.049 -0.197,-0.049 -0.345,-0.099c-0.246,-0.049 -0.444,-0.148 -0.69,-0.197c-0.149,-0.049 -0.246,-0.099 -0.395,-0.148c-0.197,-0.05 -0.394,-0.149 -0.591,-0.197c-0.148,-0.049 -0.246,-0.099 -0.395,-0.148c-0.197,-0.05 -0.394,-0.149 -0.542,-0.197c-0.149,-0.05 -0.247,-0.099 -0.395,-0.149c-0.197,-0.049 -0.345,-0.148 -0.543,-0.197c-0.148,-0.05 -0.246,-0.099 -0.394,-0.149c-0.197,-0.099 -0.345,-0.148 -0.494,-0.246c-0.148,-0.05 -0.246,-0.099 -0.394,-0.197c-0.148,-0.099 -0.345,-0.148 -0.494,-0.246c-0.098,-0.05 -0.246,-0.099 -0.345,-0.197c-0.197,-0.099 -0.345,-0.197 -0.493,-0.247c-0.099,-0.049 -0.197,-0.098 -0.296,-0.148c-0.197,-0.099 -0.394,-0.197 -0.591,-0.345c-0.099,-0.05 -0.148,-0.099 -0.246,-0.149c-0.246,-0.148 -0.494,-0.295 -0.789,-0.493c-0.05,-0.05 -0.099,-0.05 -0.148,-0.099c-0.197,-0.149 -0.395,-0.246 -0.592,-0.395c-0.099,-0.049 -0.148,-0.099 -0.246,-0.197c-0.148,-0.099 -0.296,-0.197 -0.444,-0.345c-0.099,-0.049 -0.197,-0.148 -0.246,-0.197c-0.148,-0.099 -0.296,-0.197 -0.395,-0.345c-0.098,-0.05 -0.197,-0.148 -0.246,-0.197c-0.148,-0.099 -0.246,-0.197 -0.394,-0.345c-0.099,-0.099 -0.149,-0.149 -0.247,-0.247c-0.049,-0.049 -0.148,-0.098 -0.197,-0.148l0,4.341c0,1.776 0.789,3.552 2.367,5.229c2.268,2.615 6.36,4.785 11.291,6.167Z" style="fill:#189caa;fill-rule:nonzero;"/></g></g></svg>