<?xml version="1.0" encoding="UTF-8" standalone="no"?><!DOCTYPE svg PUBLIC "-//W3C//DTD SVG 1.1//EN" "http://www.w3.org/Graphics/SVG/1.1/DTD/svg11.dtd"><svg width="100%" height="100%" viewBox="0 0 224 212" version="1.1" xmlns="http://www.w3.org/2000/svg" xmlns:xlink="http://www.w3.org/1999/xlink" xml:space="preserve" xmlns:serif="http://www.serif.com/" style="fill-rule:evenodd;clip-rule:evenodd;stroke-linejoin:round;stroke-miterlimit:2;"><rect id="Fish" x="0" y="0.384" width="223.502" height="211.507" style="fill:none;"/><g id="Fish1" serif:id="Fish"><path id="Hex" d="M21.972,71.359l0,-1.838c0,-3.797 2.458,-7.184 6.234,-8.968l77.499,-36.621c1.878,-0.888 3.961,-1.327 6.038,-1.327c2.074,0 4.166,0.439 6.044,1.327l77.496,36.621c3.776,1.784 6.237,5.171 6.237,8.968l0,27.283c-2.395,-3.55 -5.772,-7.693 -10.324,-11.804l0,-15.479c0,-0.357 -0.255,-0.826 -0.882,-1.122l-77.496,-36.621c-0.328,-0.155 -0.697,-0.237 -1.075,-0.237c-0.375,0 -0.741,0.082 -1.069,0.237l-77.496,36.621c-0.627,0.296 -0.882,0.765 -0.882,1.122l-0,1.935c-0.586,-0.2 -1.135,-0.38 -1.644,-0.543c-1.456,-0.465 -3.738,-0.761 -5.446,-0.581l-2.124,0.464l-1.111,0.563Zm179.549,44.14l0,27.265c0,3.797 -2.464,7.181 -6.237,8.965l-77.496,36.621c-3.721,1.761 -8.361,1.761 -12.082,0l-77.499,-36.621c-3.776,-1.784 -6.234,-5.168 -6.234,-8.965l0,-1.572l0.473,0.335l1.748,0.714l2.045,0.254l1.965,-0.291l0.189,-0.057c1.224,-0.388 2.532,-0.82 3.905,-1.302l0,1.919c0,0.357 0.255,0.826 0.882,1.122l77.496,36.621c0.665,0.313 1.477,0.313 2.145,0l77.496,-36.621c0.627,-0.296 0.882,-0.765 0.882,-1.122l0,-15.461c4.553,-4.111 7.929,-8.254 10.324,-11.804Zm-179.549,1.385l0,-21.893c2.375,5.094 5.437,8.712 8.432,11.307c-3.204,2.703 -6.179,6.136 -8.432,10.586Z" style="fill:#189caa;stroke:#189caa;stroke-width:0.5px;"/><g><path id="path5-61-3-6" d="M149.649,73.062c-4.673,-0.807 -9.734,-1.313 -15.2,-1.426c-1.295,-0.027 -2.89,-0.024 -3.562,-0.024l-0.452,-0.139c-12.612,-9.342 -24.834,-9.945 -30.932,-9.664c-1.294,0.06 -3.701,0.907 -3.208,1.803c2.975,4.86 5.135,7.292 7.041,9.153c0.927,0.905 2.072,2.575 1.442,2.743c-17.987,5.209 -32.207,12.446 -42.7,18.685c-1.113,0.662 -2.492,1.408 -2.843,1.106c-11.585,-10.809 -24.473,-15.723 -30.714,-17.718c-1.234,-0.395 -3.715,-0.567 -3.67,0.431c1.452,17.161 10.211,23.845 15.431,26.558c1.149,0.597 2.76,1.964 2.126,2.242c-7.346,3.703 -16.105,10.387 -17.416,25.207c-0.114,1.29 0.324,3.728 1.284,3.454c8.467,-2.683 21.35,-7.596 31.272,-16.77c0.951,-0.879 2.126,-1.981 2.52,-1.735c12.478,7.424 26.723,14.685 42.452,19.261c1.244,0.362 3.019,1.345 2.536,1.783c-3.621,3.471 -5.783,5.892 -7.58,8.722c-0.694,1.093 -1.325,3.529 -0.312,3.661c8.449,0.477 20.656,-0.146 31.423,-8.052c1.044,-0.767 2.039,-1.583 2.3,-1.583l1.217,0c7.811,-0.137 12.872,-0.644 17.545,-1.45c1.277,-0.22 1.701,-1.287 1.005,-2.38c-5.398,-8.46 -8.495,-18.19 -8.907,-28.399c-0.052,-1.294 -0.052,-3.396 -0,-4.69c0.408,-10.212 3.481,-19.967 8.901,-28.404c0.7,-1.09 0.279,-2.155 -0.998,-2.375l0,0Z" style="fill:#189caa;fill-rule:nonzero;"/><path id="path6-8-7-2" d="M197.51,103.593c-4.497,-7.867 -15.685,-21.379 -37.359,-28.054c-1.238,-0.381 -2.894,0.174 -3.633,1.238c-5.387,7.749 -8.717,17.011 -9.169,27.03c-0.058,1.294 -0.058,3.396 -0,4.69c0.452,10.02 3.781,19.305 9.166,27.031c0.741,1.063 2.398,1.617 3.636,1.236c21.674,-6.674 32.862,-20.186 37.359,-28.054c0.643,-1.125 1.319,-2.554 1.1,-3.045l-1.1,-2.071Zm-34.555,-3.618c-0.217,-0.171 -0.414,-0.368 -0.585,-0.586c-0.786,-0.999 -0.786,-3.354 0,-4.353c0.171,-0.218 0.368,-0.414 0.585,-0.586c0.999,-0.787 3.354,-0.787 4.352,0c0.217,0.171 0.414,0.368 0.585,0.586c0.786,0.999 0.786,3.354 -0,4.353c-0.171,0.218 -0.368,0.414 -0.585,0.586c-0.999,0.787 -3.354,0.787 -4.352,-0Z" style="fill:#189caa;fill-rule:nonzero;"/></g></g></svg>