<?xml version="1.0" encoding="UTF-8" standalone="no"?><!DOCTYPE svg PUBLIC "-//W3C//DTD SVG 1.1//EN" "http://www.w3.org/Graphics/SVG/1.1/DTD/svg11.dtd"><svg width="100%" height="100%" viewBox="0 0 224 212" version="1.1" xmlns="http://www.w3.org/2000/svg" xmlns:xlink="http://www.w3.org/1999/xlink" xml:space="preserve" xmlns:serif="http://www.serif.com/" style="fill-rule:evenodd;clip-rule:evenodd;stroke-linejoin:round;stroke-miterlimit:2;"><rect id="Flame" x="0" y="0.384" width="223.502" height="211.507" style="fill:none;"/><g id="Flame1" serif:id="Flame"><path id="Hex" d="M76.175,174.393l-47.964,-22.665c-3.776,-1.784 -6.234,-5.168 -6.234,-8.965l0,-73.242c0,-3.797 2.458,-7.184 6.234,-8.968l77.499,-36.621c1.878,-0.888 3.961,-1.327 6.038,-1.327c2.074,0 4.166,0.439 6.044,1.327l5.284,2.497c-2.444,0.1 -4.869,0.397 -7.275,0.892c-3.134,0.644 -6.166,1.609 -9.095,2.893c-1.401,0.603 -2.77,1.272 -4.107,2.007c-1.344,0.739 -2.65,1.539 -3.917,2.404c-1.267,0.864 -2.489,1.786 -3.667,2.767c-1.179,0.982 -2.308,2.018 -3.387,3.109c-0.17,0.171 -0.338,0.344 -0.505,0.518l-57.939,27.379c-0.627,0.296 -0.882,0.765 -0.882,1.122l0,73.242c0,0.357 0.255,0.826 0.882,1.122l26.396,12.474c1.143,1.888 2.382,3.713 3.719,5.472l0.002,0.003c1.595,2.099 3.315,4.091 5.161,5.974l0.059,0.059c2.391,2.381 4.943,4.557 7.655,6.526Zm60.566,-141.506l58.547,27.667c3.776,1.784 6.237,5.171 6.237,8.968l0,73.242c0,3.797 -2.464,7.181 -6.237,8.965l-48.044,22.703c2.73,-1.981 5.297,-4.17 7.701,-6.568l0.06,-0.06c1.845,-1.885 3.564,-3.879 5.157,-5.98c1.324,-1.746 2.553,-3.556 3.686,-5.429l26.471,-12.509c0.627,-0.296 0.882,-0.765 0.882,-1.122l0,-73.242c0,-0.357 -0.255,-0.826 -0.882,-1.122l-53.355,-25.213c-0.157,-1.725 -0.225,-3.454 -0.206,-5.187l0,-0.076l0,-4.531c0,-0.17 -0.006,-0.339 -0.018,-0.506Zm-9.471,150.984l-9.477,4.479c-3.721,1.761 -8.361,1.761 -12.082,0l-9.502,-4.49c2.422,0.641 4.875,1.13 7.359,1.468c2.718,0.37 5.449,0.554 8.192,0.554c2.743,0 5.475,-0.185 8.193,-0.554c2.469,-0.336 4.908,-0.821 7.316,-1.456Z" style="fill:#189caa;stroke:#189caa;stroke-width:0.5px;"/><path id="Flame2" serif:id="Flame" d="M129.759,37.923c-0.022,2.006 0.059,4.01 0.244,6.008c0.185,1.999 0.473,3.982 0.863,5.951c0.39,1.968 0.881,3.912 1.472,5.829c0.591,1.918 1.28,3.8 2.066,5.646c1.62,3.67 3.555,7.165 5.805,10.486c2.25,3.321 4.779,6.413 7.587,9.277c2.805,2.867 5.333,5.96 7.582,9.28c2.25,3.321 4.187,6.815 5.81,10.483c0.783,1.848 1.47,3.73 2.059,5.648c0.59,1.918 1.08,3.861 1.471,5.829c0.39,1.968 0.678,3.952 0.865,5.95c0.186,1.998 0.27,4 0.251,6.007c-0.002,4.924 -0.653,9.76 -1.952,14.51c-0.628,2.258 -1.395,4.468 -2.302,6.629c-0.906,2.162 -1.945,4.258 -3.115,6.289c-1.17,2.031 -2.463,3.979 -3.88,5.847c-1.416,1.867 -2.943,3.638 -4.583,5.314c-3.3,3.291 -6.944,6.142 -10.932,8.553c-4.083,2.371 -8.397,4.194 -12.943,5.468c-2.34,0.649 -4.713,1.136 -7.118,1.463c-2.406,0.327 -4.823,0.491 -7.25,0.491c-2.428,0 -4.844,-0.164 -7.25,-0.491c-2.406,-0.327 -4.778,-0.814 -7.118,-1.463c-4.559,-1.271 -8.887,-3.094 -12.982,-5.468c-3.995,-2.409 -7.645,-5.26 -10.951,-8.553c-1.641,-1.673 -3.169,-3.443 -4.587,-5.308c-1.417,-1.866 -2.712,-3.814 -3.884,-5.843c-1.173,-2.028 -2.213,-4.123 -3.121,-6.283c-0.908,-2.16 -1.678,-4.368 -2.308,-6.625c-1.299,-4.749 -1.95,-9.586 -1.952,-14.51c0.01,-3.951 0.433,-7.856 1.268,-11.717c0.821,-3.816 2.038,-7.5 3.651,-11.053c0.814,-1.774 1.718,-3.498 2.715,-5.176c0.997,-1.677 2.079,-3.297 3.247,-4.859c1.168,-1.562 2.415,-3.058 3.742,-4.489c1.327,-1.43 2.725,-2.786 4.196,-4.067c0.332,1.777 0.781,3.671 1.328,5.565c0.543,1.938 1.194,3.838 1.952,5.702c0.807,1.859 1.725,3.663 2.752,5.41c0.936,1.673 2.023,3.242 3.26,4.706c0.212,0.283 0.453,0.537 0.726,0.762c0.272,0.225 0.567,0.415 0.884,0.569c0.318,0.155 0.649,0.269 0.993,0.345c0.345,0.076 0.694,0.109 1.047,0.101c0.301,0.005 0.598,-0.02 0.893,-0.076c0.296,-0.057 0.582,-0.142 0.859,-0.258c0.277,-0.116 0.54,-0.259 0.787,-0.43c0.248,-0.171 0.475,-0.365 0.682,-0.583c0.206,-0.22 0.388,-0.458 0.548,-0.713c0.16,-0.255 0.294,-0.523 0.403,-0.804c0.109,-0.281 0.19,-0.57 0.244,-0.867c0.053,-0.297 0.078,-0.596 0.075,-0.897c0.015,-0.482 -0.057,-0.951 -0.215,-1.405c-0.183,-0.45 -0.404,-0.88 -0.664,-1.289c-1.273,-1.848 -2.438,-3.761 -3.494,-5.741c-1.026,-1.882 -1.891,-3.835 -2.596,-5.858c-0.72,-2.003 -1.254,-4.053 -1.601,-6.152c-0.394,-2.235 -0.582,-4.488 -0.566,-6.757c-0.022,-2.732 0.238,-5.438 0.781,-8.116c0.543,-2.678 1.356,-5.271 2.44,-7.78c0.505,-1.208 1.067,-2.39 1.686,-3.544c0.619,-1.154 1.292,-2.276 2.018,-3.365c0.726,-1.09 1.503,-2.142 2.331,-3.156c0.828,-1.015 1.703,-1.988 2.624,-2.918c0.921,-0.931 1.885,-1.816 2.891,-2.653c1.006,-0.838 2.05,-1.626 3.132,-2.363c1.082,-0.738 2.197,-1.422 3.345,-2.052c1.148,-0.631 2.323,-1.204 3.525,-1.721c2.485,-1.092 5.056,-1.911 7.715,-2.457c2.658,-0.547 5.344,-0.808 8.058,-0.785l4.49,0l0,4.531Z" style="fill:#189caa;fill-rule:nonzero;"/></g></svg>