<?xml version="1.0" encoding="UTF-8" standalone="no"?><!DOCTYPE svg PUBLIC "-//W3C//DTD SVG 1.1//EN" "http://www.w3.org/Graphics/SVG/1.1/DTD/svg11.dtd"><svg width="100%" height="100%" viewBox="0 0 224 212" version="1.1" xmlns="http://www.w3.org/2000/svg" xmlns:xlink="http://www.w3.org/1999/xlink" xml:space="preserve" xmlns:serif="http://www.serif.com/" style="fill-rule:evenodd;clip-rule:evenodd;stroke-linejoin:round;stroke-miterlimit:2;"><rect id="Fridge" x="0" y="-0" width="223.502" height="211.507" style="fill:none;"/><path id="Hex" d="M70.518,171.086l-42.062,-19.876c-3.765,-1.779 -6.216,-5.153 -6.216,-8.939l0,-73.028c0,-3.786 2.451,-7.163 6.216,-8.942l36.415,-17.207l0,10.165l-31.458,14.866c-0.625,0.295 -0.879,0.762 -0.879,1.119l0,73.028c0,0.356 0.254,0.824 0.879,1.119l31.467,14.87c0.159,4.387 2.34,8.256 5.638,10.706l-0,2.12Zm24.616,-142.291l10.594,-5.006c1.872,-0.885 3.949,-1.323 6.02,-1.323c2.068,0 4.154,0.438 6.026,1.323l10.593,5.006l-33.234,0Zm63.497,14.301l36.412,17.207c3.765,1.779 6.219,5.156 6.219,8.942l0,73.028c0,3.786 -2.457,7.16 -6.219,8.939l-42.06,19.876l0,-2.12c3.298,-2.45 5.48,-6.319 5.639,-10.706l31.467,-14.87c0.625,-0.295 0.879,-0.762 0.879,-1.119l0,-73.028c0,-0.356 -0.254,-0.824 -0.879,-1.119l-31.458,-14.866l0,-10.164Zm-23.554,136.452l-17.303,8.176c-3.71,1.756 -8.337,1.756 -12.047,0l-17.304,-8.177c1.514,-1.559 2.55,-3.597 2.855,-5.893l0.256,-1.935l1.827,-0l17.32,8.185c0.663,0.313 1.472,0.313 2.138,0l17.32,-8.185l1.827,-0l0.256,1.933c0.303,2.297 1.34,4.336 2.854,5.895Z" style="fill:#189caa;stroke:#189caa;stroke-width:0.5px;"/><g id="Fridge1" serif:id="Fridge"><path d="M144.662,35.795l-65.822,0c-3.85,0 -6.97,3.122 -6.97,6.973l0,46.626c0.181,0.001 0.361,0.003 0.542,0.003l79.219,0l0,-46.629c0,-3.851 -3.121,-6.973 -6.97,-6.973Zm-61.708,45.377c0,2.71 -4.203,2.706 -4.203,0l0,-12.205c0,-2.71 4.203,-2.706 4.203,0l0,12.205Zm68.136,12.43l-79.219,0l0,64.145c0,3.399 2.431,6.228 5.647,6.846l0,7.692c0,1.893 1.534,3.427 3.426,3.427c1.717,0 3.17,-1.273 3.396,-2.977l1.06,-8.015l52.702,0l1.06,8.015c0.225,1.705 1.678,2.977 3.396,2.977c1.892,0 3.425,-1.534 3.425,-3.427l0,-7.692c3.217,-0.618 5.648,-3.448 5.648,-6.846l0,-64.142c-0.181,-0.001 -0.361,-0.003 -0.542,-0.003Zm-72.339,7.755c0,-2.71 4.203,-2.706 4.203,0l0,12.205c0,2.71 -4.203,2.706 -4.203,0l0,-12.205Z" style="fill:#189caa;fill-rule:nonzero;"/></g></svg>