<?xml version="1.0" encoding="UTF-8" standalone="no"?><!DOCTYPE svg PUBLIC "-//W3C//DTD SVG 1.1//EN" "http://www.w3.org/Graphics/SVG/1.1/DTD/svg11.dtd"><svg width="100%" height="100%" viewBox="0 0 224 212" version="1.1" xmlns="http://www.w3.org/2000/svg" xmlns:xlink="http://www.w3.org/1999/xlink" xml:space="preserve" xmlns:serif="http://www.serif.com/" style="fill-rule:evenodd;clip-rule:evenodd;stroke-linejoin:round;stroke-miterlimit:2;"><rect id="Graph--Decending-" serif:id="Graph (Decending)" x="0" y="0.384" width="223.502" height="211.507" style="fill:none;"/><path id="Hex" d="M111.748,22.605c-2.077,0 -4.16,0.439 -6.038,1.327l-77.499,36.621c-3.776,1.784 -6.234,5.171 -6.234,8.968l0,73.242c0,3.797 2.458,7.181 6.234,8.965l77.499,36.621c3.721,1.761 8.361,1.761 12.082,0l77.496,-36.621c3.773,-1.784 6.237,-5.168 6.237,-8.965l0,-73.242c0,-3.797 -2.461,-7.184 -6.237,-8.968l-77.496,-36.621c-1.878,-0.888 -3.97,-1.327 -6.044,-1.327Zm0,8.936c0.378,0 0.747,0.082 1.075,0.237l77.496,36.621c0.627,0.296 0.882,0.765 0.882,1.122l0,73.242c0,0.357 -0.255,0.826 -0.882,1.122l-77.496,36.621c-0.668,0.313 -1.479,0.313 -2.145,0l-77.496,-36.621c-0.627,-0.296 -0.882,-0.765 -0.882,-1.122l0,-73.242c0,-0.357 0.255,-0.826 0.882,-1.122l77.496,-36.621c0.328,-0.155 0.694,-0.237 1.069,-0.237Z" style="fill:#189caa;fill-rule:nonzero;stroke:#189caa;stroke-width:0.5px;"/><g id="Graph--Decending-1" serif:id="Graph (Decending)"><path d="M82.361,85.52l0.294,-0.205l1.754,-0.637l1.919,-0.162l1.971,0.38l1.81,0.924c6.313,4.444 12.851,8.618 19.474,12.43l1.669,1.28l1.264,1.648l0.796,1.916l0.169,1.276l1.317,-0.657l1.803,-0.385l1.906,0.098l1.814,0.596l0.038,0.018c5.015,2.463 11.889,5.59 19.426,8.61l0.007,0.003l2.044,1.199l1.582,1.713l0.993,2.044l1.272,-0.704l1.655,-0.458l1.778,-0.046c0,0 1.765,0.402 1.662,0.365c6.425,2.233 12.912,4.145 18.797,5.289l0.018,0.003l2.577,0.993l2.061,1.783l1.336,2.362l0.468,2.698l-0,29.637l2.572,-0l3.119,0.633l2.535,1.709l1.709,2.535l0.633,3.118l0,5.471l-0.633,3.118l-1.709,2.535l-2.535,1.709l-3.119,0.633l-133.715,0l-3.119,-0.633l-2.535,-1.709l-1.709,-2.535l-0.633,-3.118l0,-5.471l0.633,-3.118l1.709,-2.535l2.535,-1.709l3.119,-0.633l2.65,-0l0,-93.934c0,-2.792 1.659,-5.317 4.222,-6.425c0.222,-0.096 0.231,-0.101 0.453,-0.192c2.616,-1.074 5.622,-0.468 7.618,1.536c5.92,5.944 12.48,11.747 19.444,17.232l1.308,1.284l0.968,1.522l0.6,1.693l0.206,1.804l0,1.47Z" style="fill:#eceff4;fill-rule:nonzero;"/><path d="M158.981,100.266l0.053,-0.135l1.324,-1.749l1.67,-1.281l1.882,-0.788l2.018,-0.291l2.087,0.24l2.032,0.817l1.77,1.37l12.488,12.794l1.268,1.687l0.773,1.911l0.261,1.968l-0.216,1.92l-0.666,1.812l-1.111,1.64l-1.541,1.361l-1.88,0.941l-16.894,5.856l-2.198,0.437l-2.186,-0.176l-1.978,-0.718l-1.677,-1.164l-1.332,-1.548l-0.921,-1.894l-0.401,-2.158l0.175,-1.883c-9.409,-3.479 -21.698,-8.611 -34.759,-15.643c-26.92,-14.492 -51.954,-35.519 -67.038,-56.163c1.318,1.804 3.418,2.87 5.652,2.87c-2.234,-0.001 -4.333,-1.068 -5.65,-2.873l-1.598,-2.189l-1.338,-2.889l-0.122,-3.07l1.043,-2.887l2.141,-2.345l4.397,-3.214l2.89,-1.338l3.067,-0.122l2.887,1.042l2.349,2.144l1.613,2.21c13.39,18.328 35.802,36.961 59.881,49.925c11.034,5.939 21.457,10.403 29.786,13.57Z" style="fill:#eceff4;fill-rule:nonzero;"/></g><g id="Graph--Decending-2" serif:id="Graph (Decending)"><path d="M148.221,166.538l-10.408,0l0,-46.465c0,-0.408 -0.252,-0.773 -0.631,-0.925c-7.725,-3.095 -14.769,-6.3 -19.909,-8.825c-0.132,-0.064 -0.277,0.036 -0.277,0.181l0,56.03l-10.408,0l0,-61.359c0,-0.355 -0.188,-0.681 -0.496,-0.858c-6.806,-3.917 -13.524,-8.207 -20.012,-12.773c-0.131,-0.092 -0.312,0 -0.312,0.163l0,74.823l-10.408,0l0,-82.481c0,-0.302 -0.139,-0.589 -0.38,-0.776c-7.225,-5.69 -13.995,-11.682 -20.107,-17.819c-0.164,0.067 -0.17,0.071 -0.334,0.142l0,100.934l-9.65,0c-0.549,0 -0.996,0.447 -0.996,0.996l0,5.471c0,0.549 0.447,0.996 0.996,0.996l133.715,0c0.549,0 0.996,-0.447 0.996,-0.996l0,-5.471c0,-0.549 -0.447,-0.996 -0.996,-0.996l-9.572,0l0,-36.637c0,-0.475 -0.326,-0.876 -0.794,-0.968c-6.186,-1.202 -13.007,-3.201 -19.76,-5.548c-0.127,-0.046 -0.262,0.049 -0.262,0.188l0,42.965l0.003,0.007Z" style="fill:#189caa;fill-rule:nonzero;"/><path d="M57.635,45.303c14.549,19.913 38.737,40.15 64.704,54.129c15.612,8.406 30.094,14.025 39.648,17.301l-1.362,5.765c-0.191,0.809 0.585,1.507 1.369,1.234l16.906,-5.86c0.727,-0.252 0.947,-1.177 0.407,-1.727l-12.499,-12.805c-0.578,-0.593 -1.585,-0.316 -1.776,0.493l-1.322,5.598c-9.274,-3.209 -23.018,-8.597 -37.833,-16.571c-25.035,-13.479 -48.294,-32.904 -62.215,-51.959l-1.613,-2.209c-0.326,-0.446 -0.95,-0.542 -1.393,-0.216l-4.413,3.226c-0.447,0.327 -0.543,0.95 -0.217,1.393l1.613,2.209l-0.004,0Z" style="fill:#189caa;fill-rule:nonzero;"/></g></svg>