<?xml version="1.0" encoding="UTF-8" standalone="no"?><!DOCTYPE svg PUBLIC "-//W3C//DTD SVG 1.1//EN" "http://www.w3.org/Graphics/SVG/1.1/DTD/svg11.dtd"><svg width="100%" height="100%" viewBox="0 0 224 212" version="1.1" xmlns="http://www.w3.org/2000/svg" xmlns:xlink="http://www.w3.org/1999/xlink" xml:space="preserve" xmlns:serif="http://www.serif.com/" style="fill-rule:evenodd;clip-rule:evenodd;stroke-linejoin:round;stroke-miterlimit:2;"><rect id="Group" x="0" y="0.384" width="223.502" height="211.507" style="fill:none;"/><path id="path4-40-0" d="M22.24,128.12l0,-58.491c0,-3.786 2.451,-7.163 6.216,-8.942l77.272,-36.514c1.872,-0.885 3.949,-1.323 6.02,-1.323c2.068,0 4.154,0.438 6.026,1.323l77.269,36.514c3.765,1.779 6.219,5.156 6.219,8.942l0,58.639c-2.245,-5.761 -5.798,-10.874 -10.294,-14.971l-0,-16.787c0.663,-2.373 1.017,-4.872 1.017,-7.452c0,-0.101 -0.002,-0.202 -0.006,-0.303c-0.096,-2.525 -0.446,-4.87 -1.011,-7.037l0,-12.089c0,-0.356 -0.254,-0.824 -0.879,-1.119l-77.269,-36.514c-0.327,-0.155 -0.695,-0.237 -1.072,-0.237c-0.374,0 -0.739,0.082 -1.066,0.237l-77.269,36.514c-0.625,0.295 -0.879,0.762 -0.879,1.119l0,11.998c-0.563,2.196 -0.91,4.573 -1.006,7.129c-0.004,0.101 -0.006,0.201 -0.006,0.302c0,2.574 0.353,5.067 1.012,7.435l0,17.076c-4.439,3.975 -8.025,8.913 -10.294,14.552Zm168.453,25.531l-72.919,34.458c-3.71,1.756 -8.337,1.756 -12.047,0l-72.921,-34.458l21.505,0l7.26,3.431c2.008,2.819 5.307,4.602 8.954,4.602l0.785,0l39.372,18.605c0.663,0.313 1.472,0.313 2.138,0l39.372,-18.605l0.79,0c0.225,0 0.449,-0.009 0.673,-0.028c3.441,-0.291 5.746,-1.717 7.399,-3.528c0.294,-0.322 0.569,-0.663 0.823,-1.021l7.313,-3.456l21.502,0Z" style="fill:#189caa;stroke:#189caa;stroke-width:0.5px;"/><g id="Group1" serif:id="Group"><g><path d="M104.446,99.858c16.601,4.938 34.603,-8.226 34.341,-26.025c-1.48,-35.838 -52.59,-35.836 -54.069,0.001c0,12.365 8.36,22.835 19.727,26.024Z" style="fill:#189caa;fill-rule:nonzero;"/><path d="M155.328,143.182c-3.549,-20.819 -21.742,-36.705 -43.574,-36.705c-24.659,-0.182 -45.301,21.067 -44.056,45.19c0.391,1.203 1.535,2.016 2.827,2.016l82.457,0c4.96,-0.419 2.507,-7.344 2.346,-10.501Z" style="fill:#189caa;fill-rule:nonzero;"/><path d="M164.229,108.824c10.886,0 19.757,-8.876 19.757,-19.767c-0.991,-26.148 -38.526,-26.14 -39.514,0c0,10.891 8.872,19.767 19.757,19.767Z" style="fill:#189caa;fill-rule:nonzero;"/><path d="M164.229,110.93c-5.593,0 -11.126,1.475 -15.938,4.273c1.413,1.475 2.707,3.069 3.909,4.724c5.425,7.324 8.813,16.425 9.473,25.724l31.275,0c1.653,0 3.007,-1.355 3.007,-3.009c0,-17.48 -14.223,-31.711 -31.726,-31.711Z" style="fill:#189caa;fill-rule:nonzero;"/><path d="M59.279,108.824c10.886,0 19.757,-8.876 19.757,-19.767c-0.991,-26.148 -38.526,-26.14 -39.514,0c0,10.891 8.871,19.767 19.757,19.767Z" style="fill:#189caa;fill-rule:nonzero;"/><path d="M75.216,115.203c-20.505,-12.369 -48.091,3.445 -47.664,27.439c-0,1.655 1.353,3.009 3.007,3.009l31.275,0c0.813,-11.419 5.654,-22.254 13.382,-30.448Z" style="fill:#189caa;fill-rule:nonzero;"/></g></g></svg>