<?xml version="1.0" encoding="UTF-8" standalone="no"?><!DOCTYPE svg PUBLIC "-//W3C//DTD SVG 1.1//EN" "http://www.w3.org/Graphics/SVG/1.1/DTD/svg11.dtd"><svg width="100%" height="100%" viewBox="0 0 224 212" version="1.1" xmlns="http://www.w3.org/2000/svg" xmlns:xlink="http://www.w3.org/1999/xlink" xml:space="preserve" xmlns:serif="http://www.serif.com/" style="fill-rule:evenodd;clip-rule:evenodd;stroke-linejoin:round;stroke-miterlimit:2;"><rect id="Heart-Rate" serif:id="Heart Rate" x="0" y="0.384" width="223.502" height="211.507" style="fill:none;"/><g id="Heart-Rate1" serif:id="Heart Rate"><path id="Hex" d="M105.208,186.815l-76.997,-36.384c-3.776,-1.784 -6.234,-5.168 -6.234,-8.965l0,-73.242c0,-3.797 2.458,-7.184 6.234,-8.968l8.915,-4.213c-5.454,7.96 -8.619,17.661 -8.619,28.225c0,4.792 0.905,9.745 2.529,14.82c0.277,0.865 0.711,1.647 1.265,2.319l0,41.058c0,0.357 0.255,0.826 0.882,1.122l49.782,23.525c7.136,6.859 14.628,13.775 22.243,20.702Zm-23.415,-152.878l23.917,-11.302c1.878,-0.888 3.961,-1.327 6.038,-1.327c2.074,0 4.166,0.439 6.044,1.327l24.246,11.457c-4.848,0.529 -9.579,1.746 -14.049,3.555l-15.165,-7.167c-0.328,-0.155 -0.697,-0.237 -1.075,-0.237c-0.375,0 -0.741,0.082 -1.069,0.237l-14.251,6.735c-4.665,-1.77 -9.596,-2.898 -14.635,-3.279Zm107.515,22.493l5.98,2.826c3.776,1.784 6.237,5.171 6.237,8.968l0,73.242c0,3.797 -2.464,7.181 -6.237,8.965l-72.825,34.414c7.54,-6.891 14.936,-13.762 21.961,-20.569l45.895,-21.688c0.627,-0.296 0.882,-0.765 0.882,-1.122l0,-39.383c1.525,-0.844 2.721,-2.248 3.28,-3.988c1.625,-5.065 2.531,-10.032 2.531,-14.825c0,-9.958 -2.813,-19.15 -7.704,-26.839Z" style="fill:#189caa;stroke:#189caa;stroke-width:0.5px;"/><g><path id="path3-66-8" d="M68.614,95.956c1.468,0 2.869,0.585 3.907,1.611l16.654,16.648l18.651,-37.279c0.971,-1.942 2.793,-3.255 5.165,-3.044c2.164,0.088 4.083,1.445 4.889,3.464l16.477,41.174l6.269,-18.811c0.761,-2.239 2.869,-3.762 5.242,-3.762l41.948,0c1.391,-4.336 2.196,-8.583 2.196,-12.687c0,-23.786 -18.695,-42.476 -42.489,-42.476c-13.442,0 -26.344,6.256 -34.764,16.14c-8.42,-9.885 -21.321,-16.14 -34.764,-16.14c-23.794,0 -42.489,18.689 -42.489,42.476c0,4.104 0.805,8.34 2.196,12.687l30.912,0Z" style="fill:#189caa;fill-rule:nonzero;"/><path id="path4-16-9" d="M149.84,106.989l-9.778,29.324c-0.729,2.195 -2.759,3.696 -5.077,3.774l-0.165,0c-2.252,0 -4.282,-1.368 -5.121,-3.465l-17.504,-43.755l-16.576,33.142c-0.795,1.578 -2.296,2.692 -4.05,2.968c-1.776,0.331 -3.532,-0.276 -4.79,-1.545l-20.449,-20.443l-23.949,0c12.592,23.864 40.834,50.441 70.377,77.228c29.544,-26.842 57.774,-53.387 70.377,-77.228l-33.296,0Z" style="fill:#189caa;fill-rule:nonzero;"/></g></g></svg>