<?xml version="1.0" encoding="UTF-8" standalone="no"?><!DOCTYPE svg PUBLIC "-//W3C//DTD SVG 1.1//EN" "http://www.w3.org/Graphics/SVG/1.1/DTD/svg11.dtd"><svg width="100%" height="100%" viewBox="0 0 224 212" version="1.1" xmlns="http://www.w3.org/2000/svg" xmlns:xlink="http://www.w3.org/1999/xlink" xml:space="preserve" xmlns:serif="http://www.serif.com/" style="fill-rule:evenodd;clip-rule:evenodd;stroke-linejoin:round;stroke-miterlimit:2;"><rect id="Heart" x="0" y="0.384" width="223.502" height="211.507" style="fill:none;"/><g id="Heart1" serif:id="Heart"><path id="Hex" d="M104.743,187.893l-76.532,-36.164c-3.776,-1.784 -6.234,-5.168 -6.234,-8.965l0,-73.242c0,-3.797 2.458,-7.184 6.234,-8.968l49.355,-23.322c-1.359,4.603 -3.306,8.793 -5.473,12.781l-38.91,18.387c-0.627,0.296 -0.882,0.765 -0.882,1.122l0,73.242c0,0.357 0.255,0.826 0.882,1.122l52.496,24.807c3.277,5.562 7.971,11.017 13.013,15.092c2.006,1.62 4.037,2.989 6.05,4.107Zm-2.735,-162.21l3.703,-1.75c1.878,-0.888 3.961,-1.327 6.038,-1.327c0.848,-0 1.699,0.073 2.536,0.221c-2.651,0.387 -4.518,1.574 -5.474,2.488c-0.714,0.683 -1.275,1.508 -1.646,2.42c-0.435,0.879 -0.68,1.838 -0.721,2.813c-0.691,0.707 -1.234,1.563 -1.579,2.522c-0.068,0.188 -0.228,0.782 -0.454,1.671l-0.197,0.093c-0.151,-0.773 -0.429,-1.507 -0.818,-2.176l0.268,-1.354l-0.088,-1.95l-0.709,-2.254c-0.237,-0.5 -0.536,-0.977 -0.859,-1.417Zm25.597,2.887l10.73,5.071c-3.538,-0.651 -6.157,0.355 -7.039,0.847c-0.94,0.525 -1.718,1.241 -2.307,2.076c-0.235,0.079 -0.466,0.171 -0.692,0.275c-0.043,-0.222 -0.097,-0.442 -0.161,-0.658l0.527,-1.092l0.289,-2.473l-0.543,-2.519c-0.171,-0.44 -0.435,-0.964 -0.804,-1.528Zm17.472,8.256l50.212,23.728c3.776,1.784 6.237,5.171 6.237,8.968l0,73.242c0,3.797 -2.464,7.181 -6.237,8.965l-53.073,25.08c3.472,-4.187 6.94,-9.264 10.228,-15.024l37.877,-17.899c0.627,-0.296 0.882,-0.765 0.882,-1.122l0,-73.242c0,-0.357 -0.255,-0.826 -0.882,-1.122l-27.588,-13.037c-0.851,-2.758 -2.353,-5.169 -4.09,-6.807c-1.4,-1.319 -4.161,-2.969 -6.976,-2.969l-1.985,0.226l-0.101,0.024l0.078,-0.391c0.054,-1.935 -0.774,-4.6 -2.384,-6.55l-0.077,-0.092c-0.579,-0.677 -1.318,-1.355 -2.12,-1.979Z" style="fill:#189caa;stroke:#189caa;stroke-width:0.5px;"/><g><path id="path2-13-8-4" d="M151.592,64.243c0.513,0.484 1.532,1.259 2.579,1.018c1.048,-0.242 1.623,-1.385 1.873,-2.045c0.537,-1.418 0.606,-3.27 0.188,-5.081c-0.417,-1.81 -1.289,-3.444 -2.393,-4.484c-0.447,-0.421 -1.276,-1.063 -2.175,-1.063c-0.133,0 -0.269,0.014 -0.405,0.046c-1.048,0.242 -1.623,1.385 -1.873,2.045c-0.537,1.419 -0.606,3.271 -0.189,5.081c0.418,1.81 1.29,3.445 2.394,4.485Z" style="fill:#189caa;fill-rule:nonzero;"/><path id="path3-78-0-8" d="M135.403,41.573c0.347,0.331 2.019,1.967 3.58,2.835c2.022,1.125 3.184,1.293 3.529,1.264c0.08,-0.076 0.141,-0.186 0.147,-0.422c0.017,-0.569 -0.31,-1.322 -0.784,-1.897c-0.844,-0.987 -2.312,-1.967 -3.399,-2.41c-1.894,-0.77 -3.344,-0.582 -3.767,-0.345c0.056,0.175 0.23,0.532 0.694,0.974Z" style="fill:#189caa;fill-rule:nonzero;"/><path id="path4-83-4-7" d="M117.153,33.772c2.632,0.767 4.597,0.023 4.789,-0.637c0.192,-0.659 -1.066,-2.343 -3.697,-3.11c-0.795,-0.232 -1.529,-0.326 -2.172,-0.326c-1.176,0 -2.046,0.314 -2.424,0.675c-0.039,0.119 -0.089,0.238 -0.151,0.352c-0.002,0.004 -0.024,0.044 -0.06,0.116c0.041,0.747 1.297,2.224 3.715,2.929Z" style="fill:#189caa;fill-rule:nonzero;"/><path id="path5-81-7-5" d="M141.032,49.816c-1.073,-0.22 -2.276,-0.676 -3.607,-1.369c-1.872,-0.975 -5.767,-4.366 -6.198,-5.25c-0.859,0.53 -1.661,0.93 -2.415,1.203c-0.837,0.304 -1.623,0.455 -2.355,0.455c-0.865,0 -1.655,-0.212 -2.362,-0.634c-1.692,-1.01 -2.589,-3.043 -2.672,-6.049c-0.667,0.145 -1.372,0.218 -2.098,0.218c-1.1,0 -2.245,-0.165 -3.374,-0.494c-1.743,-0.507 -3.309,-1.369 -4.501,-2.458c-0.365,1.014 -3.486,14.324 -5.032,21.085c4.852,-2.021 10.094,-3.349 15.63,-3.954c3.844,-0.421 12.297,-1.706 18.982,-2.755Z" style="fill:#189caa;fill-rule:nonzero;"/><path id="path6-5-6-9" d="M87.244,31.752c0.986,0.764 2.433,1.268 3.972,1.384c1.539,0.116 3.046,-0.166 4.134,-0.773c0.381,-0.213 1.273,-0.794 1.333,-1.585c0.06,-0.792 -0.736,-1.499 -1.081,-1.767c-0.985,-0.764 -2.433,-1.268 -3.971,-1.384c-0.228,-0.017 -0.454,-0.026 -0.679,-0.026c-1.296,0 -2.527,0.281 -3.454,0.799c-0.382,0.213 -1.274,0.793 -1.334,1.585c-0.06,0.791 0.736,1.499 1.081,1.766Z" style="fill:#189caa;fill-rule:nonzero;"/><path id="path7-5-6-3" d="M153.265,80.352l-5.897,-7.763c-8.003,4.11 -13.147,9.699 -15.789,13.151c-0.423,0.552 -1.061,0.842 -1.706,0.842c-0.455,0 -0.914,-0.144 -1.304,-0.442c-0.942,-0.722 -1.121,-2.069 -0.4,-3.012c2.681,-3.503 5.844,-6.667 9.398,-9.404c3.393,-2.613 7.072,-4.769 10.987,-6.443c-1.685,-1.628 -2.939,-3.949 -3.541,-6.557c-0.58,-2.52 -0.496,-5.067 0.234,-7.223c-6.91,1.098 -18.02,2.824 -22.731,3.34c-25.175,2.755 -38.546,20.812 -42.348,35.438c-0.252,0.966 -1.123,1.609 -2.077,1.609c-0.179,0 -0.361,-0.022 -0.542,-0.07c-1.148,-0.299 -1.836,-1.471 -1.538,-2.62c2.155,-8.291 7.089,-16.783 13.538,-23.299c2.044,-2.066 4.24,-3.945 6.572,-5.623c0.904,-4.966 1.519,-22.317 1.221,-26.101c-1.504,0.817 -3.376,1.286 -5.422,1.286c-0.338,0 -0.681,-0.012 -1.027,-0.039c-2.189,-0.165 -4.146,-0.832 -5.672,-1.834c-2.303,10.285 -7.351,18.666 -12.257,26.811c-7.301,12.12 -14.197,23.567 -11.718,40.401c0.002,0.007 0.002,0.015 0.003,0.023c1.84,13.498 9.285,33.034 21.54,46.531c-0.041,-1.631 0.026,-3.272 0.2,-4.911c0.618,-5.796 2.373,-9.594 2.448,-9.754c0.503,-1.074 1.782,-1.537 2.856,-1.033c1.074,0.503 1.537,1.782 1.033,2.857c-0.014,0.028 -1.563,3.425 -2.084,8.551c-0.69,6.797 0.656,13.279 4.001,19.267c2.874,5.143 7.191,10.25 11.848,14.012c5.054,4.083 10.213,6.332 14.525,6.332c4.881,0 10.172,-2.848 15.727,-8.467c5.013,-5.071 10.129,-12.371 14.797,-21.109c8.477,-15.874 14.63,-35 14.63,-45.478c0.001,-14.39 -4.616,-21.617 -9.506,-29.267l0,-0Zm-13.952,54.801c-0.078,0.06 -1.95,1.491 -4.653,2.374c-0.753,0.246 -1.499,0.427 -2.235,0.544c3.024,4.476 2.815,10.011 2.803,10.275c-0.052,1.152 -1.002,2.05 -2.143,2.05c-0.033,0 -0.066,0 -0.099,-0.002c-1.185,-0.054 -2.102,-1.058 -2.048,-2.243c0.002,-0.049 0.179,-5.492 -2.951,-8.773c-0.509,-0.534 -1.42,-1.203 -2.386,-1.913c-1.829,-1.344 -4.105,-3.017 -5.836,-5.287c-0.359,-0.47 -0.68,-0.95 -0.966,-1.44c-0.113,0.257 -0.225,0.516 -0.338,0.773c-1.298,2.971 -2.64,6.042 -3.001,8.472c-0.58,3.904 0.078,7.768 1.955,11.487c1.435,2.843 3.083,4.53 3.099,4.547c0.838,0.839 0.836,2.197 -0.003,3.035c-0.419,0.418 -0.967,0.627 -1.517,0.627c-0.551,0 -1.102,-0.21 -1.523,-0.631c-0.084,-0.084 -2.066,-2.087 -3.81,-5.485c-2.143,-4.175 -3.027,-8.699 -2.58,-13.151c-2.012,1.02 -3.836,1.296 -4.61,1.296c-1.186,0 -2.147,-0.962 -2.147,-2.148c0,-1.179 0.95,-2.137 2.127,-2.148c0.083,-0.005 1.339,-0.098 2.896,-0.94c1.904,-1.029 3.377,-2.693 4.378,-4.945c0.056,-0.127 0.124,-0.244 0.2,-0.355c0.199,-0.463 0.4,-0.923 0.601,-1.383c1.088,-2.49 2.213,-5.064 2.733,-7.212c0.506,-2.089 1.124,-6.296 -0.411,-10.983c-0.767,-2.343 -2.505,-4.632 -4.345,-7.057c-1.292,-1.704 -2.657,-3.502 -3.8,-5.476c-0.796,2.873 -1.852,5.409 -3.162,7.585c-1.746,3.537 -2.467,7.471 -2.142,11.703c0.254,3.309 1.089,5.565 1.097,5.587c0.422,1.109 -0.134,2.348 -1.243,2.77c-0.252,0.096 -0.51,0.141 -0.763,0.141c-0.866,0 -1.683,-0.529 -2.01,-1.386c-0.042,-0.11 -1.031,-2.74 -1.35,-6.619c-0.165,-2.002 -0.121,-3.982 0.124,-5.909c-3.194,1.994 -6.128,2.738 -6.327,2.787c-0.172,0.042 -0.344,0.062 -0.514,0.062c-0.966,0 -1.844,-0.655 -2.084,-1.636c-0.283,-1.151 0.42,-2.313 1.569,-2.598c0.123,-0.031 6.427,-1.68 9.584,-6.511c0.101,-0.156 0.201,-0.314 0.298,-0.472c0.029,-0.057 0.056,-0.113 0.085,-0.17c0.062,-0.121 0.134,-0.233 0.213,-0.335c4.974,-8.699 4.042,-21.984 4.031,-22.122c-0.089,-1.182 0.797,-2.213 1.979,-2.303c1.182,-0.09 2.213,0.794 2.304,1.978c0.012,0.15 0.257,3.465 -0.098,7.981c-0.061,3.767 1.614,6.821 3.749,9.819c0.007,0.008 0.013,0.017 0.02,0.026c4.985,6.764 14.927,6.619 15.028,6.616c0.017,-0.001 0.033,-0.001 0.049,-0.001c1.163,0 2.12,0.93 2.146,2.099c0.027,1.186 -0.913,2.17 -2.098,2.196c-0.028,0.001 -0.094,0.002 -0.194,0.002c-0.894,0 -4.525,-0.094 -8.603,-1.489c0.202,0.458 0.382,0.922 0.537,1.394c1.834,5.6 1.142,10.622 0.536,13.197c-0.516,4.389 2.172,7.102 5.082,9.355c0.015,0.009 0.031,0.017 0.046,0.026c4.725,2.983 10.042,-1.044 10.095,-1.085c0.939,-0.725 2.288,-0.551 3.012,0.388c0.725,0.941 0.55,2.29 -0.389,3.014l0,0Z" style="fill:#189caa;fill-rule:nonzero;"/></g></g></svg>