<?xml version="1.0" encoding="UTF-8" standalone="no"?><!DOCTYPE svg PUBLIC "-//W3C//DTD SVG 1.1//EN" "http://www.w3.org/Graphics/SVG/1.1/DTD/svg11.dtd"><svg width="100%" height="100%" viewBox="0 0 224 212" version="1.1" xmlns="http://www.w3.org/2000/svg" xmlns:xlink="http://www.w3.org/1999/xlink" xml:space="preserve" xmlns:serif="http://www.serif.com/" style="fill-rule:evenodd;clip-rule:evenodd;stroke-linejoin:round;stroke-miterlimit:2;"><rect id="Holiday" x="0" y="0.384" width="223.502" height="211.507" style="fill:none;"/><path id="Hex" d="M39.301,156.968l-11.089,-5.24c-3.776,-1.784 -6.234,-5.168 -6.234,-8.965l0,-73.242c0,-3.797 2.458,-7.184 6.234,-8.968l77.499,-36.621c1.878,-0.888 3.961,-1.327 6.038,-1.327c2.074,0 4.166,0.439 6.044,1.327l2.447,1.157c-0.219,0.211 -0.426,0.437 -0.619,0.678l-2.753,3.444c-2.064,-1.449 -4.808,-1.705 -7.154,-0.532l-35.795,17.898c-2.499,1.249 -4.548,3.135 -5.992,5.403l-34.744,16.418c-0.627,0.296 -0.882,0.765 -0.882,1.122l0,73.242c0,0.357 0.255,0.826 0.882,1.122l8.541,4.036l-1.893,5.68c-0.373,1.117 -0.543,2.252 -0.53,3.366Zm144.459,-101.863l11.528,5.448c3.776,1.784 6.237,5.171 6.237,8.968l0,73.242c0,3.797 -2.464,7.181 -6.237,8.965l-10.68,5.047l0,-10.191l5.711,-2.699c0.627,-0.296 0.882,-0.765 0.882,-1.122l0,-73.242c0,-0.357 -0.255,-0.826 -0.882,-1.122l-6.619,-3.128c0.588,-1.613 0.908,-3.355 0.908,-5.172c0,-1.73 -0.295,-3.414 -0.849,-4.994Zm-16.024,109.642l-49.944,23.601c-3.721,1.761 -8.361,1.761 -12.082,0l-49.685,-23.478c1.49,-1.194 2.665,-2.818 3.314,-4.765l1.112,-3.335l50.229,23.736c0.665,0.313 1.477,0.313 2.145,0l51.221,-24.205l-0,0.551c0,3.174 1.435,6.01 3.692,7.896Z" style="fill:#189caa;stroke:#189caa;stroke-width:0.5px;"/><g id="Holiday1" serif:id="Holiday"><path d="M172.032,114.176l-43.662,0l0,-46.201l16.915,0c0.47,-0.779 1.237,-2.903 1.237,-6.271c0,-3.367 -0.834,-5.793 -1.391,-6.493l-20.043,-25.074l-20.043,25.072c-0.557,0.702 -1.391,3.01 -1.391,6.495c0,3.486 0.768,5.489 1.235,6.271l16.917,0l0,46.201l-22.115,0l-33.594,-33.596c-2.178,-2.178 -5.71,-2.178 -7.89,0l-10.679,10.681c-2.179,2.179 -2.179,5.711 0,7.89l10.729,10.73l-5.288,26.439l-6.497,19.496c-0.574,1.721 0.356,3.581 2.074,4.152c0.346,0.116 0.698,0.171 1.041,0.171c1.375,0 2.654,-0.87 3.112,-2.245l5.817,-17.454l112.529,0l0,16.414c0,1.814 1.468,3.282 3.282,3.282c1.814,0 3.283,-1.468 3.283,-3.282l0,-37.101c0,-3.082 -2.497,-5.579 -5.579,-5.579l0.002,0.003Zm-89.786,19.696l-22.092,0l3.682,-18.412l18.41,18.412Z" style="fill:#189caa;fill-rule:nonzero;"/><path d="M153.087,61.702c0,2.264 -0.291,4.522 -0.867,6.513l17.275,0c4.481,0 8.114,-3.634 8.114,-8.115c0,-3.074 -1.737,-5.884 -4.487,-7.259l-35.789,-17.898l12.928,16.169c1.77,2.212 2.827,6.172 2.827,10.593l0,-0.002Z" style="fill:#189caa;fill-rule:nonzero;"/><path d="M80.679,68.215l17.274,0c-0.573,-1.99 -0.864,-4.248 -0.864,-6.513c0,-4.416 1.06,-8.373 2.827,-10.593l12.928,-16.169l-35.795,17.898c-2.75,1.375 -4.487,4.185 -4.487,7.259c0,4.481 3.633,8.114 8.114,8.114l0.002,0.003Z" style="fill:#189caa;fill-rule:nonzero;"/></g></svg>