<?xml version="1.0" encoding="UTF-8" standalone="no"?><!DOCTYPE svg PUBLIC "-//W3C//DTD SVG 1.1//EN" "http://www.w3.org/Graphics/SVG/1.1/DTD/svg11.dtd"><svg width="100%" height="100%" viewBox="0 0 224 212" version="1.1" xmlns="http://www.w3.org/2000/svg" xmlns:xlink="http://www.w3.org/1999/xlink" xml:space="preserve" xmlns:serif="http://www.serif.com/" style="fill-rule:evenodd;clip-rule:evenodd;stroke-linejoin:round;stroke-miterlimit:2;"><rect id="Honey" x="0" y="-0" width="223.502" height="211.507" style="fill:none;"/><path id="Hex" d="M112.93,188.994c-2.468,0.197 -4.997,-0.226 -7.202,-1.27l-77.272,-36.514c-3.765,-1.779 -6.216,-5.153 -6.216,-8.939l0,-73.028c0,-3.786 2.451,-7.163 6.216,-8.942l27.347,-12.923c-0.534,1.671 -0.817,3.469 -0.817,5.394l0,5.157l-21.573,10.194c-0.625,0.295 -0.879,0.762 -0.879,1.119l0,73.028c0,0.356 0.254,0.824 0.879,1.119l12.799,6.048c10.567,13.197 26.856,22.265 45.565,23.992c1.165,0.108 2.316,-0.079 3.36,-0.519l12.165,12.636l0.129,0.131c1.522,1.5 3.4,2.651 5.499,3.315Zm-20.424,-158.958l13.221,-6.248c1.872,-0.885 3.949,-1.323 6.02,-1.323c2.068,0 4.154,0.438 6.026,1.323l77.269,36.514c3.765,1.779 6.219,5.156 6.219,8.942l0,73.028c0,3.786 -2.457,7.16 -6.219,8.939l-35.76,16.899c0.708,-1.644 1.099,-3.453 1.099,-5.35c0,-1.599 -0.277,-3.134 -0.787,-4.561c0.501,-0.327 0.978,-0.686 1.43,-1.073l29.064,-13.734c0.625,-0.295 0.879,-0.762 0.879,-1.119l0,-31.278l2.599,-2.562c2.69,-2.653 4.371,-6.296 4.445,-10.329c0.004,-0.092 0.005,-0.184 0.005,-0.276c0,-5.319 -2.808,-10.009 -7.049,-12.661l-0,-15.922c0,-0.356 -0.254,-0.824 -0.879,-1.119l-50.784,-23.998c-2.498,-4.337 -6.917,-7.61 -12.473,-9.826c-9.7,-3.869 -22.932,-4.428 -28.557,-4.428l-0.005,-0c-1.469,0 -3.456,0.038 -5.765,0.164Zm98.462,74.794l0,-0.003c0.009,0 0.017,0 0.026,0c-0.007,0.001 -0.015,0.002 -0.026,0.003Zm0,-0.006l0,-0.017l0.042,0.017c-0.014,-0 -0.028,-0 -0.042,-0Z" style="fill:#189caa;stroke:#189caa;stroke-width:0.5px;"/><g id="Honey1" serif:id="Honey"><path d="M98.277,36.873c-8.512,0 -36.291,1.147 -36.291,15.901l0,18.552c0,3.666 6.372,6.896 16.056,8.801c0.044,-1.11 0.072,-2.271 0.072,-3.5c0,-12.502 -2.228,-16.43 -3.547,-19.547c-2.847,-1.24 -4.518,-2.718 -4.518,-4.305c0,-4.391 12.637,-7.952 28.225,-7.952c15.589,0 28.225,3.558 28.225,7.952c0,4.073 -10.878,7.425 -24.896,7.891c-1.093,3.842 -1.988,7.979 -1.988,15.961c0,1.915 0.073,3.641 0.182,5.279c19.33,-0.235 34.764,-4.873 34.764,-10.579l0,-18.552c0,-14.754 -27.777,-15.901 -36.291,-15.901l0.006,0Z" style="fill:#189caa;fill-rule:nonzero;"/><path d="M151.414,158.073l-29.57,-29.153c-1.216,-1.199 -2.896,-1.941 -4.753,-1.941c-3.712,0 -6.72,2.966 -6.72,6.626c0,1.83 0.752,3.486 1.967,4.685l29.57,29.153c1.216,1.199 2.896,1.94 4.752,1.94c3.713,0 6.721,-2.966 6.721,-6.626c0,-1.83 -0.752,-3.486 -1.968,-4.685Z" style="fill:#189caa;fill-rule:nonzero;"/><path d="M102.309,146.856c0,1.83 0.752,3.486 1.968,4.685l24.193,23.852c1.217,1.199 2.897,1.941 4.753,1.941c3.008,0 5.513,-1.966 6.369,-4.65l-32.508,-32.13c-2.754,0.827 -4.778,3.316 -4.778,6.301l0.003,0Z" style="fill:#189caa;fill-rule:nonzero;"/><path d="M101.117,155.918c-2.451,0.987 -4.182,3.358 -4.182,6.13c0,1.83 0.752,3.486 1.968,4.685l13.441,13.96c1.217,1.199 2.897,1.94 4.753,1.94c3.014,0 5.536,-1.97 6.388,-4.663l-22.366,-22.053l-0.003,0Z" style="fill:#189caa;fill-rule:nonzero;"/><path d="M154.028,153.153c2.735,-0.841 4.733,-3.324 4.733,-6.297c0,-1.83 -0.752,-3.487 -1.968,-4.685l-18.818,-18.553c-1.217,-1.199 -2.897,-1.94 -4.753,-1.94c-3.013,0 -5.536,1.968 -6.388,4.663l27.191,26.809l0.003,0.003Z" style="fill:#189caa;fill-rule:nonzero;"/><path d="M191.017,97.827c0,-4.39 -3.612,-7.952 -8.066,-7.952c-2.228,0 -4.243,0.89 -5.703,2.329l-32.257,31.801l11.403,11.242l32.257,-31.801c1.459,-1.439 2.362,-3.426 2.362,-5.623l0.003,0.003Z" style="fill:#189caa;fill-rule:nonzero;"/><path d="M138.573,75.872c-4.864,7.814 -22.225,11.003 -37.76,11.308c1.573,8.423 4.185,14.082 4.185,23.9c0,8.768 -7.235,15.9 -16.128,15.9c-8.893,0 -16.128,-7.133 -16.128,-15.9c0,-10.542 2.991,-16.289 4.495,-25.707l-0.244,-0.047c-11.624,-2.286 -16.908,-5.91 -19.066,-9.438c-10.73,9.619 -17.442,22.992 -17.442,37.84c0,27.458 22.768,50.04 51.935,52.733c-0.554,-1.378 -0.861,-2.87 -0.861,-4.413c0,-4.438 2.474,-8.407 6.374,-10.468c-0.646,-1.471 -0.998,-3.068 -0.998,-4.721c0,-5.11 3.375,-9.625 8.264,-11.246c-0.111,-0.658 -0.198,-1.325 -0.198,-2.006c0,-6.576 5.426,-11.926 12.097,-11.926c1.893,0 3.699,0.471 5.349,1.279c2.024,-4.002 6.145,-6.579 10.78,-6.579c3.187,0 6.178,1.218 8.451,3.41l13.797,-13.602c-1.851,-11.827 -7.999,-22.351 -16.898,-30.316l-0.003,0Z" style="fill:#189caa;fill-rule:nonzero;"/><path d="M95.392,60.685c-4.946,-0.141 -9.5,-0.648 -13.355,-1.415c0.707,2.95 1.457,7.704 1.457,14.705c0,18.552 -5.376,23.852 -5.376,37.104c0,5.854 4.814,10.601 10.752,10.601c5.938,0 10.752,-4.747 10.752,-10.601c0,-13.252 -5.376,-18.553 -5.376,-37.104c0,-5.973 0.545,-10.311 1.146,-13.293l0,0.003Z" style="fill:#189caa;fill-rule:nonzero;"/></g></svg>