<?xml version="1.0" encoding="UTF-8" standalone="no"?><!DOCTYPE svg PUBLIC "-//W3C//DTD SVG 1.1//EN" "http://www.w3.org/Graphics/SVG/1.1/DTD/svg11.dtd"><svg width="100%" height="100%" viewBox="0 0 224 212" version="1.1" xmlns="http://www.w3.org/2000/svg" xmlns:xlink="http://www.w3.org/1999/xlink" xml:space="preserve" xmlns:serif="http://www.serif.com/" style="fill-rule:evenodd;clip-rule:evenodd;stroke-linejoin:round;stroke-miterlimit:2;"><rect id="Hourglass" x="0" y="0.384" width="223.502" height="211.507" style="fill:none;"/><path id="Hex" d="M59.048,166.3l-30.837,-14.572c-3.776,-1.784 -6.234,-5.168 -6.234,-8.965l0,-73.242c0,-3.797 2.458,-7.184 6.234,-8.968l30.837,-14.572l0,4.05c0,2.006 0.542,3.865 1.49,5.44l-27.356,12.927c-0.627,0.296 -0.882,0.765 -0.882,1.122l0,73.242c0,0.357 0.255,0.826 0.882,1.122l27.351,12.925c-0.946,1.574 -1.486,3.429 -1.486,5.433l0,4.057Zm25.065,-132.162l21.597,-10.205c1.878,-0.888 3.961,-1.327 6.038,-1.327c2.074,0 4.166,0.439 6.044,1.327l21.596,10.205l-21.572,0l-4.993,-2.359c-0.328,-0.155 -0.697,-0.237 -1.075,-0.237c-0.375,0 -0.741,0.082 -1.069,0.237l-4.993,2.359l-21.572,0Zm80.341,11.845l30.834,14.571c3.776,1.784 6.237,5.171 6.237,8.968l0,73.242c0,3.797 -2.464,7.181 -6.237,8.965l-30.971,14.636l0,-4.121c0,-1.982 -0.529,-3.82 -1.455,-5.382l27.458,-12.975c0.627,-0.296 0.882,-0.765 0.882,-1.122l0,-73.242c0,-0.357 -0.255,-0.826 -0.882,-1.122l-27.421,-12.958c0.989,-1.598 1.555,-3.494 1.555,-5.546l0,-3.913Zm-25.052,132.155l-21.61,10.212c-3.721,1.761 -8.361,1.761 -12.082,0l-21.611,-10.212l21.566,0l5.013,2.369c0.665,0.313 1.477,0.313 2.145,0l5.013,-2.369l21.565,0Z" style="fill:#189caa;stroke:#189caa;stroke-width:0.5px;"/><g id="Hourglass1" serif:id="Hourglass"><path d="M149.654,70.421l0,-17.105l4.379,0c1.915,0 3.421,-1.505 3.421,-3.421l0,-5.338c0,-1.915 -1.505,-3.421 -3.421,-3.421l-84.564,0c-1.916,0 -3.421,1.505 -3.421,3.421l0,5.474c0,1.916 1.505,3.421 3.421,3.421l4.378,0l0,17.105c0,11.084 4.79,21.348 13.273,28.463l8.621,7.116l-8.621,7.116c-8.483,7.116 -13.273,17.516 -13.273,28.463l0,17.105l-4.378,0c-1.916,0 -3.421,1.505 -3.421,3.421l0,5.474c0,1.915 1.505,3.421 3.421,3.421l84.427,0c1.916,0 3.421,-1.505 3.421,-3.421l0,-5.474c0,-1.916 -1.505,-3.421 -3.421,-3.421l-4.378,0l0,-16.968c0,-11.085 -4.79,-21.348 -13.274,-28.463l-8.483,-7.253l8.62,-7.116c8.347,-7.116 13.273,-17.516 13.273,-28.601Zm-17.652,23.4l-11.63,9.716c-0.821,0.684 -1.232,1.643 -1.232,2.6c0,0.958 0.411,1.916 1.232,2.6l11.63,9.716c6.979,5.747 10.947,14.231 10.947,23.263l0,17.105l-62.397,0l0,-16.968c0,-9.032 3.968,-17.516 10.947,-23.264l11.631,-9.716c0.82,-0.684 1.231,-1.642 1.231,-2.599c0,-0.958 -0.411,-1.916 -1.231,-2.6l-11.631,-9.853c-6.979,-5.747 -10.947,-14.231 -10.947,-23.263l0,-17.242l62.26,0l0,17.105c0.136,9.032 -3.968,17.516 -10.811,23.4Z" style="fill:#189caa;fill-rule:nonzero;"/><path d="M128.445,129.811l-13.547,-8.621c-1.095,-0.684 -1.642,-1.779 -1.642,-3.147l0,-15.737l15.325,-12.727c0.411,-0.411 0.821,-0.684 1.232,-1.095c0,0 -9.579,2.19 -17.925,2.19c-8.347,0 -17.925,-2.19 -17.925,-2.19c0.411,0.411 0.821,0.821 1.231,1.095l15.326,12.727l0,15.737c0,1.231 -0.684,2.463 -1.643,3.147l-13.546,8.758c-5.747,3.694 -8.895,9.032 -8.895,14.642l0,8.895l51.313,0l0,-9.032c-0.273,-5.61 -3.558,-10.947 -9.304,-14.642Z" style="fill:#189caa;fill-rule:nonzero;"/></g></svg>