<?xml version="1.0" encoding="UTF-8" standalone="no"?><!DOCTYPE svg PUBLIC "-//W3C//DTD SVG 1.1//EN" "http://www.w3.org/Graphics/SVG/1.1/DTD/svg11.dtd"><svg width="100%" height="100%" viewBox="0 0 224 212" version="1.1" xmlns="http://www.w3.org/2000/svg" xmlns:xlink="http://www.w3.org/1999/xlink" xml:space="preserve" xmlns:serif="http://www.serif.com/" style="fill-rule:evenodd;clip-rule:evenodd;stroke-linejoin:round;stroke-miterlimit:2;"><rect id="HYROX" x="0" y="0.384" width="223.502" height="211.507" style="fill:none;"/><g id="HYROX1" serif:id="HYROX"><path id="Hex" d="M21.977,85.789l0,-16.267c0,-3.797 2.458,-7.184 6.234,-8.968l11.049,-5.221l-0.161,0.27c-1.256,2.105 -2.245,4.115 -2.457,4.721l-0.411,2.05l1.707,1.801c-0.509,0.031 -4.703,1.886 -5.619,3.454l-2.134,3.65c-1.336,2.284 -2.399,4.374 -2.609,4.929c0,0 0.253,2.618 1.033,3.367c-0.207,0.029 -0.411,0.068 -0.612,0.115c-0.242,0.057 -3.681,1.918 -4.509,3.398l-1.511,2.701Zm30.595,-36.747l53.138,-25.11c1.878,-0.888 3.961,-1.327 6.038,-1.327c2.074,0 4.166,0.439 6.044,1.327l77.496,36.621c3.776,1.784 6.237,5.171 6.237,8.968l0,25.922l-10.324,0.016l0,-25.937c0,-0.357 -0.255,-0.826 -0.882,-1.122l-77.496,-36.621c-0.328,-0.155 -0.697,-0.237 -1.075,-0.237c-0.375,0 -0.741,0.082 -1.069,0.237l-36.39,17.196l-21.717,0.068Zm148.953,77.236l0,16.486c0,3.797 -2.464,7.181 -6.237,8.965l-11.35,5.363l0.564,-1.002l2.006,-3.56c0.839,-1.489 1.092,-3.207 0.761,-4.832c1.493,-0.553 2.778,-1.609 3.608,-3.025l2.019,-3.445c1.382,-2.359 2.44,-4.653 2.657,-5.377l0.322,-2.146l-0.238,-1.175c1.835,-0.488 3.423,-1.712 4.353,-3.427l1.533,-2.825Zm-30.578,36.953l-53.156,25.119c-3.721,1.761 -8.361,1.761 -12.082,0l-77.499,-36.621c-3.776,-1.784 -6.234,-5.168 -6.234,-8.965l0,-25.928l10.324,0l0,25.928c0,0.357 0.255,0.826 0.882,1.122l77.496,36.621c0.665,0.313 1.477,0.313 2.145,0l36.416,-17.209l21.708,-0.068Z" style="fill:#189caa;stroke:#189caa;stroke-width:0.5px;"/><path id="HYROX2" serif:id="HYROX" d="M84.969,152.945l2.006,-3.56l93.436,-0.291l-2.006,3.56l-2.006,3.56l-93.436,0.291l2.006,-3.56Zm7.168,-12.145c0,-0.184 0.918,-1.976 2.041,-3.983l2.041,-3.649l46.329,0c28.758,0 46.329,0.204 46.329,0.538c0,0.296 -0.908,2.089 -2.019,3.983l-2.019,3.445l-46.351,0c-25.493,0 -46.351,-0.15 -46.351,-0.334Zm10.636,-19.01l2.167,-3.98l46.568,-0.007c25.612,0 46.482,0.189 46.378,0.424c-0.104,0.236 -1.058,2.028 -2.118,3.983l-1.929,3.555l-93.233,0l2.167,-3.976Zm-84.427,-15.511l1.998,-3.557l93.404,-0.144l93.404,-0.144l-1.491,2.42c-0.82,1.331 -1.772,2.996 -2.116,3.701l-0.626,1.28l-186.572,0l1.998,-3.557Zm7.211,-12.18c0,-0.205 0.909,-1.997 2.02,-3.983l2.02,-3.611l46.35,0c28.772,0 46.35,0.204 46.35,0.539c0,0.296 -0.908,2.089 -2.019,3.983l-2.019,3.445l-46.351,0c-25.493,0 -46.351,-0.167 -46.351,-0.372Zm8.536,-15.312c0,-0.179 0.96,-1.969 2.134,-3.976l2.134,-3.65l46.52,-0.01c25.586,-0.007 46.505,0.181 46.485,0.416c-0.019,0.235 -0.986,1.963 -2.148,3.841l-2.113,3.414l-46.506,0.146c-25.579,0.08 -46.506,0 -46.506,-0.181l0,-0Zm9.127,-16.041c0.013,-0.235 0.863,-1.835 1.89,-3.557l1.867,-3.13l93.465,-0.291l-4.203,7.394l-46.52,0.007c-25.586,0.007 -46.51,-0.187 -46.498,-0.421l-0,-0.002Z" style="fill:#189caa;fill-rule:nonzero;"/></g></svg>