<?xml version="1.0" encoding="UTF-8" standalone="no"?><!DOCTYPE svg PUBLIC "-//W3C//DTD SVG 1.1//EN" "http://www.w3.org/Graphics/SVG/1.1/DTD/svg11.dtd"><svg width="100%" height="100%" viewBox="0 0 224 212" version="1.1" xmlns="http://www.w3.org/2000/svg" xmlns:xlink="http://www.w3.org/1999/xlink" xml:space="preserve" xmlns:serif="http://www.serif.com/" style="fill-rule:evenodd;clip-rule:evenodd;stroke-linejoin:round;stroke-miterlimit:2;"><rect id="Injection" x="0" y="0.384" width="223.502" height="211.507" style="fill:none;"/><path id="Hex" d="M160.481,168.176l-42.689,20.173c-3.721,1.761 -8.361,1.761 -12.082,0l-77.499,-36.621c-3.776,-1.784 -6.234,-5.168 -6.234,-8.965l0,-73.242c0,-3.797 2.458,-7.184 6.234,-8.968l21.63,-10.221l-4.773,4.879l-0.095,0.099l-1.081,1.396l-0.009,0.015l-0.792,1.574l-0.011,0.028l-0.469,1.678l-0.151,1.749l0.186,1.764l0.11,0.362l-9.573,4.524c-0.627,0.296 -0.882,0.765 -0.882,1.122l0,73.242c0,0.357 0.255,0.826 0.882,1.122l77.496,36.621c0.665,0.313 1.477,0.313 2.145,0l40.841,-19.299l6.817,6.969Zm-84.197,-130.339l29.426,-13.905c1.878,-0.888 3.961,-1.327 6.038,-1.327c2.074,0 4.166,0.439 6.044,1.327l77.496,36.621c3.776,1.784 6.237,5.171 6.237,8.968l0,73.242c0,3.797 -2.464,7.181 -6.237,8.965l-17.163,8.11l-6.817,-6.969l19.011,-8.984c0.627,-0.296 0.882,-0.765 0.882,-1.122l0,-73.242c0,-0.357 -0.255,-0.826 -0.882,-1.122l-77.496,-36.621c-0.328,-0.155 -0.697,-0.237 -1.075,-0.237c-0.375,0 -0.741,0.082 -1.069,0.237l-33.039,15.613l0.109,-0.208l0.006,-0.016l0.499,-1.7l0.172,-1.769l-0,-0.031l-0.174,-1.753l-0.51,-1.712l-0.827,-1.577l-0.631,-0.787Z" style="fill:#189caa;stroke:#189caa;stroke-width:0.5px;"/><g id="Injection1" serif:id="Injection"><path d="M141.765,116.261l-49.755,-50.865l4.211,-4.305c0.099,-0.105 0.188,-0.218 0.265,-0.341c0.078,-0.123 0.143,-0.252 0.196,-0.387c0.053,-0.135 0.092,-0.275 0.119,-0.418c0.027,-0.143 0.04,-0.288 0.038,-0.434c-0.001,-0.145 -0.016,-0.29 -0.045,-0.433c-0.029,-0.143 -0.07,-0.282 -0.126,-0.416c-0.055,-0.135 -0.123,-0.263 -0.202,-0.384c-0.08,-0.121 -0.17,-0.234 -0.271,-0.337c-0.101,-0.103 -0.211,-0.195 -0.329,-0.277c-0.119,-0.082 -0.244,-0.15 -0.375,-0.207c-0.132,-0.056 -0.268,-0.099 -0.408,-0.129c-0.14,-0.029 -0.281,-0.044 -0.424,-0.046c-0.143,-0.001 -0.285,0.011 -0.425,0.039c-0.14,0.027 -0.277,0.067 -0.409,0.121c-0.132,0.055 -0.259,0.121 -0.379,0.201c-0.119,0.079 -0.231,0.17 -0.333,0.271c-8.452,8.653 -19.143,19.563 -27.596,28.213c-0.099,0.105 -0.187,0.218 -0.264,0.341c-0.077,0.123 -0.142,0.252 -0.195,0.387c-0.053,0.135 -0.092,0.275 -0.118,0.418c-0.026,0.143 -0.039,0.288 -0.038,0.434c0.002,0.145 0.016,0.29 0.045,0.432c0.029,0.143 0.071,0.282 0.126,0.416c0.055,0.135 0.123,0.262 0.202,0.383c0.08,0.121 0.169,0.233 0.27,0.336c0.101,0.103 0.211,0.195 0.329,0.276c0.119,0.082 0.243,0.15 0.375,0.207c0.131,0.056 0.267,0.099 0.407,0.129c0.14,0.03 0.281,0.045 0.423,0.046c0.143,0.001 0.284,-0.011 0.424,-0.038c0.14,-0.027 0.276,-0.067 0.409,-0.121c0.132,-0.054 0.258,-0.121 0.378,-0.199c0.12,-0.079 0.231,-0.169 0.334,-0.27l4.226,-4.32l6.899,7.053c1.02,-1.04 4.937,-5.049 6.029,-6.163c0.103,-0.101 0.214,-0.191 0.334,-0.27c0.12,-0.079 0.246,-0.145 0.378,-0.199c0.133,-0.054 0.269,-0.094 0.409,-0.121c0.14,-0.027 0.281,-0.039 0.424,-0.038c0.143,0.001 0.284,0.017 0.423,0.046c0.14,0.03 0.275,0.073 0.407,0.129c0.132,0.057 0.256,0.125 0.375,0.206c0.118,0.082 0.227,0.174 0.328,0.277c0.101,0.103 0.191,0.215 0.271,0.335c0.079,0.121 0.146,0.249 0.202,0.383c0.055,0.134 0.098,0.273 0.126,0.416c0.029,0.142 0.044,0.286 0.045,0.432c0.001,0.145 -0.011,0.29 -0.037,0.433c-0.026,0.143 -0.065,0.282 -0.118,0.418c-0.053,0.135 -0.117,0.265 -0.194,0.387c-0.078,0.123 -0.165,0.236 -0.264,0.341c-1.108,1.136 -4.987,5.098 -6.029,6.163l5.873,6.005c1.019,-1.04 4.938,-5.048 6.029,-6.163c0.103,-0.101 0.214,-0.191 0.333,-0.27c0.12,-0.079 0.246,-0.145 0.379,-0.199c0.132,-0.054 0.269,-0.094 0.408,-0.121c0.14,-0.026 0.281,-0.039 0.424,-0.038c0.142,0.001 0.283,0.017 0.423,0.046c0.139,0.03 0.275,0.072 0.406,0.129c0.132,0.057 0.256,0.125 0.375,0.207c0.118,0.081 0.228,0.173 0.328,0.276c0.101,0.103 0.191,0.215 0.271,0.336c0.079,0.121 0.146,0.249 0.202,0.383c0.055,0.134 0.098,0.273 0.126,0.416c0.029,0.143 0.044,0.287 0.045,0.432c0.001,0.145 -0.011,0.29 -0.037,0.433c-0.026,0.143 -0.065,0.283 -0.118,0.418c-0.053,0.135 -0.117,0.264 -0.194,0.387c-0.077,0.123 -0.165,0.236 -0.264,0.342c-1.108,1.134 -4.987,5.098 -6.029,6.163l5.889,6.02c1.018,-1.041 4.938,-5.048 6.029,-6.163c0.102,-0.102 0.213,-0.193 0.333,-0.272c0.12,-0.079 0.246,-0.147 0.379,-0.201c0.132,-0.054 0.269,-0.095 0.41,-0.122c0.14,-0.028 0.282,-0.04 0.425,-0.039c0.143,0.001 0.285,0.016 0.424,0.045c0.14,0.03 0.276,0.072 0.408,0.129c0.132,0.057 0.257,0.125 0.376,0.207c0.119,0.082 0.229,0.174 0.33,0.278c0.101,0.103 0.191,0.216 0.271,0.337c0.08,0.121 0.147,0.249 0.202,0.384c0.055,0.135 0.097,0.274 0.126,0.417c0.028,0.143 0.043,0.288 0.044,0.434c0.001,0.146 -0.011,0.291 -0.038,0.435c-0.026,0.143 -0.067,0.283 -0.119,0.418c-0.053,0.136 -0.119,0.265 -0.197,0.387c-0.078,0.123 -0.167,0.236 -0.266,0.341c-1.11,1.135 -4.986,5.098 -6.029,6.164l5.874,6.004c1.017,-1.042 4.939,-5.047 6.029,-6.163c0.103,-0.102 0.213,-0.193 0.333,-0.272c0.12,-0.079 0.246,-0.146 0.379,-0.201c0.132,-0.055 0.269,-0.095 0.41,-0.122c0.14,-0.028 0.282,-0.04 0.425,-0.039c0.143,0.001 0.284,0.016 0.424,0.045c0.14,0.03 0.275,0.073 0.408,0.129c0.132,0.057 0.257,0.125 0.376,0.207c0.119,0.082 0.229,0.174 0.329,0.278c0.101,0.103 0.191,0.216 0.271,0.337c0.08,0.121 0.147,0.249 0.202,0.384c0.055,0.135 0.097,0.273 0.126,0.417c0.029,0.143 0.043,0.288 0.045,0.434c0.001,0.146 -0.012,0.291 -0.038,0.434c-0.027,0.143 -0.067,0.283 -0.12,0.418c-0.053,0.136 -0.119,0.265 -0.196,0.387c-0.078,0.123 -0.167,0.236 -0.266,0.342c-1.11,1.132 -4.986,5.098 -6.029,6.163l5.874,6.004c1.017,-1.043 4.939,-5.046 6.029,-6.163c0.103,-0.102 0.214,-0.192 0.334,-0.271c0.12,-0.079 0.246,-0.146 0.379,-0.2c0.132,-0.055 0.269,-0.095 0.409,-0.122c0.14,-0.027 0.281,-0.04 0.424,-0.038c0.143,0.001 0.284,0.017 0.424,0.046c0.14,0.03 0.275,0.073 0.407,0.129c0.132,0.057 0.257,0.125 0.376,0.207c0.119,0.082 0.228,0.174 0.329,0.277c0.101,0.103 0.191,0.216 0.271,0.337c0.08,0.121 0.147,0.249 0.202,0.383c0.055,0.135 0.097,0.273 0.126,0.416c0.028,0.143 0.043,0.288 0.045,0.433c0.001,0.146 -0.011,0.291 -0.038,0.434c-0.026,0.143 -0.066,0.283 -0.119,0.418c-0.053,0.135 -0.118,0.264 -0.196,0.387c-0.078,0.123 -0.166,0.236 -0.265,0.342c-1.111,1.134 -4.986,5.098 -6.029,6.163l3.807,3.892c13.027,12.424 31.446,-5.974 19.159,-19.587Z" style="fill:#189caa;fill-rule:nonzero;"/><path d="M73.162,71.957c1.148,-1.17 6.618,-6.768 7.645,-7.816l-14.234,-14.551l4.211,-4.306c0.102,-0.104 0.192,-0.218 0.273,-0.34c0.08,-0.123 0.147,-0.252 0.202,-0.389c0.055,-0.136 0.096,-0.276 0.124,-0.421c0.028,-0.144 0.042,-0.29 0.042,-0.438c-0.001,-0.147 -0.014,-0.293 -0.043,-0.437c-0.028,-0.145 -0.07,-0.285 -0.125,-0.421c-0.055,-0.136 -0.123,-0.265 -0.203,-0.388c-0.08,-0.123 -0.171,-0.236 -0.273,-0.34c-0.102,-0.104 -0.213,-0.197 -0.333,-0.279c-0.12,-0.082 -0.246,-0.151 -0.38,-0.207c-0.133,-0.057 -0.27,-0.099 -0.411,-0.128c-0.142,-0.029 -0.285,-0.043 -0.428,-0.044c-0.144,0 -0.287,0.014 -0.428,0.043c-0.142,0.028 -0.279,0.071 -0.412,0.127c-0.134,0.057 -0.26,0.125 -0.38,0.207c-0.12,0.082 -0.231,0.174 -0.333,0.279l-17.605,17.998c-0.099,0.105 -0.186,0.219 -0.264,0.341c-0.077,0.123 -0.142,0.252 -0.194,0.387c-0.052,0.135 -0.092,0.274 -0.117,0.418c-0.026,0.143 -0.038,0.288 -0.037,0.433c0.001,0.145 0.016,0.29 0.045,0.432c0.029,0.143 0.071,0.282 0.126,0.416c0.055,0.134 0.123,0.261 0.202,0.383c0.079,0.121 0.169,0.232 0.27,0.335c0.101,0.103 0.21,0.195 0.328,0.276c0.119,0.082 0.243,0.15 0.374,0.207c0.131,0.056 0.267,0.099 0.407,0.129c0.139,0.03 0.28,0.045 0.422,0.046c0.142,0.001 0.284,-0.011 0.424,-0.038c0.14,-0.026 0.276,-0.067 0.408,-0.12c0.132,-0.054 0.259,-0.12 0.379,-0.199c0.119,-0.079 0.231,-0.168 0.333,-0.269l4.196,-4.289l14.234,14.551l1.554,-1.589Z" style="fill:#189caa;fill-rule:nonzero;"/><path d="M173.397,165.016l-22.122,-22.615c0.125,-0.287 0.228,-0.583 0.309,-0.886c0.082,-0.302 0.14,-0.61 0.176,-0.922c0.036,-0.313 0.049,-0.626 0.04,-0.94c-0.01,-0.314 -0.043,-0.626 -0.099,-0.935c-0.056,-0.309 -0.134,-0.612 -0.235,-0.909c-0.101,-0.297 -0.222,-0.585 -0.365,-0.863c-0.143,-0.279 -0.306,-0.544 -0.488,-0.798c-0.182,-0.253 -0.381,-0.492 -0.598,-0.714l-1.569,-1.604c-0.441,0.967 -0.962,1.887 -1.561,2.76c-0.599,0.874 -1.268,1.688 -2.006,2.442c-0.737,0.754 -1.534,1.437 -2.388,2.05c-0.855,0.612 -1.755,1.144 -2.7,1.596l1.569,1.604c0.217,0.222 0.449,0.425 0.697,0.611c0.247,0.186 0.507,0.352 0.779,0.498c0.271,0.145 0.552,0.27 0.842,0.373c0.291,0.102 0.586,0.183 0.888,0.24c0.302,0.057 0.606,0.091 0.913,0.101c0.307,0.011 0.613,-0.002 0.918,-0.039c0.304,-0.036 0.605,-0.096 0.901,-0.178c0.296,-0.083 0.584,-0.188 0.865,-0.315l22.126,22.62c0.102,0.104 0.213,0.197 0.333,0.28c0.12,0.082 0.246,0.152 0.38,0.208c0.134,0.057 0.271,0.099 0.412,0.128c0.142,0.029 0.285,0.043 0.429,0.044c0.144,0 0.287,-0.015 0.429,-0.043c0.142,-0.029 0.279,-0.071 0.412,-0.128c0.134,-0.057 0.26,-0.126 0.38,-0.207c0.12,-0.082 0.231,-0.175 0.333,-0.28c0.102,-0.104 0.193,-0.218 0.273,-0.341c0.08,-0.123 0.148,-0.253 0.203,-0.389c0.055,-0.136 0.097,-0.277 0.125,-0.422c0.028,-0.145 0.042,-0.291 0.042,-0.438c0,-0.148 -0.014,-0.294 -0.043,-0.438c-0.028,-0.145 -0.07,-0.286 -0.125,-0.422c-0.055,-0.136 -0.123,-0.265 -0.204,-0.389c-0.08,-0.123 -0.171,-0.236 -0.273,-0.34Z" style="fill:#189caa;fill-rule:nonzero;"/></g></svg>