<?xml version="1.0" encoding="UTF-8" standalone="no"?><!DOCTYPE svg PUBLIC "-//W3C//DTD SVG 1.1//EN" "http://www.w3.org/Graphics/SVG/1.1/DTD/svg11.dtd"><svg width="100%" height="100%" viewBox="0 0 224 212" version="1.1" xmlns="http://www.w3.org/2000/svg" xmlns:xlink="http://www.w3.org/1999/xlink" xml:space="preserve" xmlns:serif="http://www.serif.com/" style="fill-rule:evenodd;clip-rule:evenodd;stroke-linejoin:round;stroke-miterlimit:2;"><rect id="Intestines" x="0" y="0.384" width="223.502" height="211.507" style="fill:none;"/><g id="Intestines1" serif:id="Intestines"><path id="Hex" d="M57.249,165.45l-29.038,-13.721c-3.776,-1.784 -6.234,-5.168 -6.234,-8.965l0,-73.242c0,-3.797 2.458,-7.184 6.234,-8.968l17.284,-8.167c-0.374,1.655 -0.587,3.342 -0.666,4.995c-0.093,1.938 -0.011,3.807 0.142,5.448l-11.789,5.571c-0.627,0.296 -0.882,0.765 -0.882,1.122l0,73.242c0,0.357 0.255,0.826 0.882,1.122l14.635,6.916c2.64,2.157 5.66,3.82 8.858,4.786c0.012,0.635 0.008,1.317 -0.005,2.056l-0,0.004c-0.041,2.449 0.047,5.149 0.577,7.803Zm16.377,-126.357l32.084,-15.161c1.878,-0.888 3.961,-1.327 6.038,-1.327c2.074,0 4.166,0.439 6.044,1.327l33.397,15.782c-2.628,0.478 -4.867,1.442 -6.469,2.303c-5.419,-2.579 -10.39,-2.823 -14.565,-2.049l-17.331,-8.19c-0.328,-0.155 -0.697,-0.237 -1.075,-0.237c-0.375,0 -0.741,0.082 -1.069,0.237l-18.048,8.529c-5.333,-1.209 -10.61,0.281 -13.722,1.518c-1.293,-0.834 -3.11,-1.869 -5.282,-2.732Zm111.186,16.51l10.475,4.95c3.776,1.784 6.237,5.171 6.237,8.968l0,73.242c0,3.797 -2.464,7.181 -6.237,8.965l-17.044,8.054c3.232,-3.862 5.247,-8.782 6.299,-13.167l5.776,-2.729c0.627,-0.296 0.882,-0.765 0.882,-1.122l0,-73.242c0,-0.357 -0.255,-0.826 -0.882,-1.122l-5.158,-2.437c0.182,-1.794 0.289,-3.851 0.289,-6.206c0,-1.51 -0.225,-2.893 -0.637,-4.153Zm-21.961,111.453l-1.025,0.484c0.14,-0.171 0.273,-0.337 0.399,-0.498c0.21,0.007 0.418,0.012 0.626,0.014Zm-17.294,8.172l-5.796,2.739c0.315,-1.609 0.743,-3.014 1.158,-4.147c1.569,0.722 3.12,1.182 4.638,1.408Zm-31.207,14.212c-2.906,0.521 -6.005,0.157 -8.641,-1.091l-25.391,-11.998l0.998,-1.097l1.268,-3.018l0.245,-1.893l-0.135,-1.881l-0.371,-1.354l26.992,12.755c0.347,1.011 0.565,2.063 0.565,3.048c0,2.974 1.854,5.515 4.47,6.529Zm-46.215,-137.559l-9.168,4.333c0.168,-1.216 0.504,-2.408 1.243,-3.361c1.003,-1.291 2.715,-1.491 4.932,-1.491c1.073,0 2.085,0.211 2.993,0.52Zm54.477,123.999l3.447,-1.629c-0.104,0.536 -0.2,1.089 -0.286,1.66l-3.151,-0c-0.003,-0.01 -0.007,-0.021 -0.01,-0.031Z" style="fill:#189caa;stroke:#189caa;stroke-width:0.5px;"/><g><path id="path2-576-8" d="M152.335,113.716c-0.772,-1.703 -1.874,-4.57 -2.375,-7.817c-5.19,1.854 -10.091,2.836 -14.64,2.836c-1.874,0 -3.658,-0.221 -5.412,-0.531c-1.052,6.745 -4.049,12.097 -8.979,15.965c3.066,1.143 6.524,3.087 8.578,6.375c1.272,2.044 1.844,4.339 1.753,6.845c4.52,-1.543 9.019,-1.232 13.118,0.982c1.483,-1.925 3.969,-4.59 7.185,-5.933c-1.022,-2.285 -2.134,-5.603 -2.175,-9.221c-5.972,3.157 -11.654,3.247 -11.965,3.247l-0.04,-5.132c0.08,0 7.776,-0.171 13.659,-5.482c0.361,-0.722 0.772,-1.444 1.292,-2.135" style="fill:#189caa;fill-rule:nonzero;"/><path id="path3-27-4" d="M113.975,73.236c-1.283,0.682 -3.156,1.464 -5.401,1.905c-1.323,2.827 -4.82,9.672 -9.931,15.184c0.251,2.856 1.734,10.483 10.542,10.483c2.535,0 5.532,-0.922 8.889,-2.746c7.846,-4.2 14.801,-11.736 14.871,-11.817l3.787,3.468c-0.271,0.291 -5.822,6.314 -12.937,10.914c1.143,0.711 2.666,1.463 4.62,2.025c6.093,1.784 13.328,1.022 21.484,-2.195c0.421,-3.337 1.784,-6.184 4.149,-8.329c-2.465,-3.057 -5.692,-8.959 -3.427,-17.268c-4.75,1.643 -11.334,2.977 -16.234,0.2c-0.852,0.351 -2.045,0.772 -3.457,1.133c-3.417,4.791 -11.595,10.624 -12.567,11.315l-2.966,-4.19c1.634,-1.152 5.091,-3.759 7.917,-6.374c-3.127,-0.241 -6.403,-1.233 -9.34,-3.709" style="fill:#189caa;fill-rule:nonzero;"/><path id="path4-03-4" d="M106.9,146.129c5.572,-4.941 13.659,-4.73 16.825,-4.4c0.441,-0.39 1.073,-0.861 1.774,-1.363c0.922,-2.856 0.832,-5.202 -0.341,-7.105c-2.215,-3.569 -7.867,-5.061 -10.452,-5.443c-5.431,2.385 -12.145,3.608 -20.162,3.608c-3.839,0 -7.987,-0.28 -12.396,-0.832c0.892,2.034 1.383,4.089 1.383,6.134c0,0.832 -0.08,1.663 -0.201,2.495c2.285,2.336 10.121,8.95 23.569,6.906" style="fill:#189caa;fill-rule:nonzero;"/><path id="path5-99-9" d="M77.529,71.372c-0.872,2.776 -2.575,6.524 -5.752,8.85c0.812,1.714 1.804,4.199 2.295,6.946l0.03,-0.01c0.15,0.611 1.683,5.953 9.43,5.953c3.477,0 7.065,-1.864 10.662,-5.542c3.868,-3.928 6.864,-9 8.588,-12.308c-2.435,-0.391 -4.78,-1.332 -6.955,-2.826c-3.347,5.492 -7.706,9.882 -7.916,10.103l-3.627,-3.629c0.04,-0.04 2.725,-2.776 5.351,-6.434c-3.557,0.511 -8.067,0.601 -12.105,-1.102" style="fill:#189caa;fill-rule:nonzero;"/><path id="path6-17-1" d="M45.052,131.596c0,8.88 8.077,17.269 16.905,17.9c0.691,0.691 1.123,1.554 1.373,2.606c0.18,0.742 0.28,1.583 0.321,2.536c0.04,0.942 0.04,1.974 0.02,3.126c-0.09,5.343 -0.211,12.659 9.019,14.813c0.191,0.05 0.391,0.07 0.582,0.07c1.172,0 2.224,-0.802 2.495,-1.985c0.321,-1.373 -0.531,-2.756 -1.914,-3.077c-4.97,-1.163 -5.15,-3.979 -5.05,-9.732c0.02,-1.233 0.03,-2.546 -0.05,-3.879c-0.06,-0.852 -0.16,-1.703 -0.331,-2.546c-0.16,-0.842 -0.41,-1.654 -0.741,-2.456c5.331,-1.292 9.33,-4.78 10.431,-9.511l-0.01,0c0.2,-0.901 0.3,-1.824 0.3,-2.735c0,-2.516 -1.092,-5.152 -3.237,-7.838l1.994,-1.594l0,-0.02l-0.01,0.01l-2.014,1.594c-2.586,-3.267 -5.792,-5.372 -5.823,-5.392c-1.102,-0.712 -1.483,-2.144 -0.892,-3.317c1.934,-3.819 2.686,-7.577 2.205,-11.175l2.535,-0.341l-0.02,0l-2.546,0.341c-0.701,-5.392 -3.988,-8.66 -4.018,-8.689c-0.541,-0.511 -0.821,-1.233 -0.792,-1.965c0.03,-0.742 0.381,-1.433 0.952,-1.894c2.225,-1.794 3.006,-4.561 2.315,-8.229c-0.701,-4.079 -2.866,-7.627 -2.886,-7.667c-0.401,-0.651 -0.491,-1.443 -0.25,-2.165c0.24,-0.722 0.792,-1.303 1.503,-1.574c3.918,-1.523 5.571,-7.527 5.872,-9.712c0.13,-0.902 0.721,-1.674 1.573,-2.025c0.842,-0.341 1.814,-0.22 2.535,0.341c5.963,4.57 16.665,0.752 16.775,0.711c0.921,-0.341 1.954,-0.14 2.666,0.531c2.936,2.776 6.193,3.989 9.69,3.628c3.598,-0.371 6.222,-2.305 6.242,-2.316c1.053,-0.792 2.536,-0.661 3.428,0.301c3.026,3.267 7.265,4.339 12.596,3.157c2.706,-0.571 4.65,-1.554 4.659,-1.564c0.893,-0.45 1.974,-0.361 2.766,0.261c4.489,3.528 14.701,-0.631 17.928,-2.365c0.992,-0.542 2.224,-0.361 3.026,0.441c0.802,0.802 0.982,2.045 0.441,3.037c-6.694,12.328 1.514,18.912 1.874,19.193c0.671,0.522 1.052,1.353 0.992,2.205c-0.06,0.862 -0.541,1.634 -1.283,2.055c-2.876,1.654 -4.299,4.149 -4.349,7.637l-2.565,-0.03l-0.02,0l2.555,0.05c-0.111,5.202 2.755,10.424 2.786,10.474c0.541,0.972 0.391,2.185 -0.371,2.997c-0.792,0.852 -1.373,1.724 -1.774,2.656c-2.966,6.484 1.994,14.202 2.045,14.282c0.511,0.772 0.561,1.764 0.13,2.586c-0.421,0.822 -1.263,1.353 -2.184,1.384c-3.718,0.13 -7.195,4.78 -8.127,6.404c-0.361,0.631 -0.982,1.082 -1.694,1.232c-0.721,0.151 -1.463,-0.01 -2.054,-0.441c-5.481,-4.039 -10.902,-2.125 -14.48,0.191c-1.674,1.062 -2.666,2.084 -2.675,2.094c-0.591,0.611 -1.453,0.892 -2.295,0.742c-0.1,-0.021 -9.44,-1.594 -14.341,3.428c-2.104,2.144 -3.167,5.322 -3.167,9.441c0,5.452 2.535,8.068 5.211,10.834c2.375,2.445 5.05,7.778 5.05,12.257l15.393,0c0,-12.397 4.96,-17.429 5.952,-17.8c0.841,-0.31 1.773,-0.17 2.475,0.391c3.036,2.376 5.962,3.287 8.678,2.727c5.101,-1.082 8.377,-6.996 8.417,-7.046c0.511,-0.972 1.583,-1.503 2.656,-1.333c4.169,0.651 7.786,-0.31 10.742,-2.846c5.321,-4.561 7.255,-12.828 7.255,-17.279c0,-7.607 -5.622,-15.044 -5.682,-15.114c-0.682,-0.892 -0.702,-2.124 -0.05,-3.046c5.792,-8.128 0.401,-16.948 0.351,-17.038c-0.562,-0.892 -0.511,-2.045 0.12,-2.896c0.05,-0.07 5.261,-7.116 5.261,-13.01c0,-6.083 -3.467,-12.117 -3.497,-12.177c-0.401,-0.691 -0.461,-1.523 -0.16,-2.255c0.24,-0.602 0.701,-1.082 1.283,-1.363c0.321,-0.311 2.375,-2.756 2.375,-13.07c0,-7.567 -12.707,-7.697 -12.827,-7.697c-0.741,0 -1.453,-0.33 -1.944,-0.881c-7.726,-8.93 -16.254,-2.756 -17.206,-2.025c-0.832,0.651 -1.985,0.721 -2.886,0.19c-11.865,-7.025 -21.174,1.895 -21.265,1.985c-1.002,0.982 -2.615,0.973 -3.607,-0.02c-5.983,-5.973 -18.459,0.381 -18.589,0.451c-1.102,0.591 -2.465,0.291 -3.237,-0.702c-6.383,-8.278 -16.725,-2.195 -17.155,-1.934c-0.962,0.582 -2.195,0.471 -3.037,-0.28c-0.05,-0.04 -5.181,-4.48 -11.554,-4.48c-4.851,0 -8.267,1.373 -10.462,4.199c-4.96,6.394 -2.045,18.141 -2.014,18.25c0.25,1.002 -0.111,2.055 -0.932,2.676c-9.049,6.926 -2.145,19.905 -2.074,20.035c0.441,0.792 0.421,1.764 -0.04,2.536c-0.471,0.782 -1.303,1.263 -2.215,1.263c-0.732,0.091 -2.355,1.554 -2.355,6.415c0,7.827 4.87,13.42 4.92,13.48c0.772,0.872 0.862,2.175 0.2,3.147c-0.05,0.08 -5.12,7.617 -5.12,15.234" style="fill:#189caa;fill-rule:nonzero;"/><path id="path7-23-0" d="M80.546,140.025l0.08,0l0.01,-0.01l-0.03,0l-2.175,-0.481l2.114,0.491" style="fill:#189caa;fill-rule:nonzero;"/><path id="path8-6-3" d="M113.324,122.857c9.29,-4.339 11.153,-11.897 11.644,-15.965c-2.866,-1.093 -4.9,-2.476 -6.133,-3.498c-3.467,1.654 -6.714,2.546 -9.65,2.546c-9.319,0 -13.508,-6.084 -15.011,-11.556c-3.468,2.556 -7.035,3.859 -10.642,3.859c-4.349,0 -7.546,-1.323 -9.821,-3.087c-0.441,1.263 -1.072,2.416 -1.904,3.448c1.263,1.744 2.836,4.621 3.587,8.349c2.806,1.393 12.527,5.472 28.439,4.13l0.441,5.111c-2.365,0.2 -4.61,0.291 -6.714,0.291c-10.311,0 -17.637,-2.105 -21.775,-3.748c-0.191,2.575 -0.782,5.171 -1.874,7.767c1.243,0.982 2.937,2.496 4.549,4.38c15.122,2.405 26.866,1.744 34.863,-2.025" style="fill:#189caa;fill-rule:nonzero;"/></g></g></svg>