<?xml version="1.0" encoding="UTF-8" standalone="no"?><!DOCTYPE svg PUBLIC "-//W3C//DTD SVG 1.1//EN" "http://www.w3.org/Graphics/SVG/1.1/DTD/svg11.dtd"><svg width="100%" height="100%" viewBox="0 0 224 212" version="1.1" xmlns="http://www.w3.org/2000/svg" xmlns:xlink="http://www.w3.org/1999/xlink" xml:space="preserve" xmlns:serif="http://www.serif.com/" style="fill-rule:evenodd;clip-rule:evenodd;stroke-linejoin:round;stroke-miterlimit:2;"><rect id="Lightbulb" x="0" y="0.384" width="223.502" height="211.507" style="fill:none;"/><g id="Lightbulb1" serif:id="Lightbulb"><path id="Hex" d="M53.871,163.853l-25.66,-12.125c-3.776,-1.784 -6.234,-5.168 -6.234,-8.965l0,-73.242c0,-3.797 2.458,-7.184 6.234,-8.968l21.69,-10.249c-0.784,1.522 -1.21,3.219 -1.226,4.961c-0.016,1.832 0.423,3.622 1.259,5.218l-16.751,7.916c-0.627,0.296 -0.882,0.765 -0.882,1.122l0,33.065c-0.713,1.481 -1.094,3.117 -1.094,4.792c0,1.674 0.38,3.31 1.094,4.791l0,30.594c0,0.357 0.255,0.826 0.882,1.122l18.856,8.91c-0.484,1.255 -0.739,2.601 -0.739,3.973c0,2.6 0.916,5.105 2.571,7.084Zm8.174,-119.288l41.076,-19.41c-1.555,1.947 -2.414,4.376 -2.414,6.892l0,4.442l-30.042,14.197l-3.185,-3.184l-0.088,-0.087c-1.493,-1.441 -3.349,-2.42 -5.346,-2.85Zm58.337,-19.41l41.065,19.405c-2.002,0.435 -3.86,1.421 -5.352,2.871l-0.072,0.071l-3.185,3.184l-30.042,-14.197l0,-4.442c0,-2.517 -0.859,-4.945 -2.414,-6.892Zm53.237,25.157l21.67,10.24c3.776,1.784 6.237,5.171 6.237,8.968l0,73.242c0,3.797 -2.464,7.181 -6.237,8.965l-25.62,12.107c0.714,-0.858 1.294,-1.82 1.721,-2.856l0.004,-0.009c0.552,-1.344 0.833,-2.782 0.829,-4.234l-0,-0.011c-0.006,-1.347 -0.259,-2.682 -0.744,-3.936l18.841,-8.903c0.627,-0.296 0.882,-0.765 0.882,-1.122l0,-30.594c0.713,-1.481 1.094,-3.117 1.094,-4.791c0,-1.675 -0.381,-3.311 -1.094,-4.792l-0,-33.065c0,-0.357 -0.255,-0.826 -0.882,-1.122l-16.748,-7.914c0.836,-1.593 1.278,-3.381 1.264,-5.211c-0.012,-1.742 -0.436,-3.439 -1.217,-4.961Zm-12.374,117.503l-31.198,14.743c0.757,-1.517 1.163,-3.204 1.163,-4.933c0,-0.764 -0.079,-1.519 -0.233,-2.255c2.269,-0.371 4.383,-1.444 6.029,-3.09c1.268,-1.268 2.195,-2.811 2.724,-4.488l11.44,-5.406l2.177,2.174c1.019,1.025 2.229,1.84 3.562,2.398c1.345,0.564 2.785,0.855 4.242,0.858c0.031,0 0.063,0 0.094,-0Zm-44.188,20.854c-3.335,1.333 -7.276,1.333 -10.611,0l10.611,0Zm-23.6,-6.111l-31.206,-14.746c0.031,0 0.062,0 0.093,0c2.931,0 5.74,-1.164 7.81,-3.235l2.189,-2.188l11.43,5.402c0.529,1.676 1.455,3.218 2.721,4.485l0.003,0.003c1.646,1.646 3.76,2.719 6.029,3.09c-0.154,0.736 -0.233,1.491 -0.233,2.255c0,1.73 0.405,3.416 1.163,4.934Z" style="fill:#189caa;stroke:#189caa;stroke-width:0.5px;"/><g><path id="path7-3-5" d="M151.541,88.298c-0.997,-3.031 -2.316,-5.946 -3.937,-8.695c-3.672,-6.221 -8.919,-11.363 -15.214,-14.908c-6.295,-3.545 -13.413,-5.367 -20.638,-5.284c-7.267,-0.032 -14.419,1.812 -20.765,5.351c-6.253,3.528 -11.459,8.648 -15.088,14.841c-1.62,2.749 -2.941,5.664 -3.937,8.695c-3.583,10.92 -2.691,22.815 2.482,33.078c1.984,4.014 4.457,7.767 7.361,11.175c4.415,5.249 6.801,11.906 6.729,18.764c0.001,1.072 0.427,2.1 1.185,2.858c0.759,0.758 1.787,1.184 2.86,1.185l38.346,0c1.073,-0.001 2.102,-0.427 2.86,-1.185c0.758,-0.758 1.184,-1.786 1.185,-2.858c-0.075,-6.858 2.312,-13.515 6.729,-18.764c2.908,-3.41 5.38,-7.168 7.362,-11.188c5.173,-10.259 6.065,-22.15 2.481,-33.065Z" style="fill:#189caa;fill-rule:nonzero;"/><path id="path8-8-7" d="M129.195,160.427l-34.889,0c-1.073,0 -2.102,0.426 -2.86,1.184c-0.758,0.758 -1.185,1.786 -1.185,2.86c0,1.071 0.427,2.1 1.185,2.859c0.758,0.758 1.787,1.184 2.86,1.184l34.889,0c1.073,0 2.102,-0.426 2.86,-1.184c0.759,-0.759 1.185,-1.788 1.185,-2.859c0,-1.073 -0.426,-2.102 -1.185,-2.86c-0.758,-0.758 -1.787,-1.184 -2.86,-1.184Z" style="fill:#189caa;fill-rule:nonzero;"/><path id="path9-4-0" d="M120.164,173.582l-16.825,0c-1.073,0 -2.102,0.426 -2.861,1.185c-0.758,0.758 -1.184,1.786 -1.184,2.858c0,1.073 0.426,2.102 1.184,2.859c0.759,0.759 1.788,1.185 2.861,1.185l16.825,0c1.073,0 2.102,-0.426 2.861,-1.185c0.758,-0.758 1.184,-1.786 1.184,-2.859c0,-1.073 -0.426,-2.101 -1.184,-2.858c-0.758,-0.759 -1.787,-1.185 -2.861,-1.185Z" style="fill:#189caa;fill-rule:nonzero;"/><path id="path10-8-4" d="M111.752,52.545c1.073,0 2.102,-0.426 2.86,-1.184c0.758,-0.758 1.184,-1.787 1.184,-2.859l0,-16.453c0,-1.073 -0.426,-2.102 -1.184,-2.86c-0.758,-0.758 -1.787,-1.184 -2.86,-1.184c-1.073,0 -2.102,0.426 -2.861,1.184c-0.758,0.758 -1.184,1.787 -1.184,2.86l0,16.453c0,1.072 0.426,2.101 1.184,2.859c0.759,0.758 1.788,1.184 2.861,1.184Z" style="fill:#189caa;fill-rule:nonzero;"/><path id="path11-8" d="M63.212,107.378c0,-1.073 -0.426,-2.102 -1.184,-2.86c-0.759,-0.758 -1.788,-1.184 -2.861,-1.184l-16.915,0c-1.073,0 -2.102,0.426 -2.86,1.184c-0.759,0.758 -1.185,1.787 -1.185,2.86c0,1.072 0.426,2.101 1.185,2.859c0.758,0.758 1.787,1.184 2.86,1.184l16.915,0c1.073,0 2.102,-0.426 2.861,-1.184c0.758,-0.758 1.184,-1.787 1.184,-2.859Z" style="fill:#189caa;fill-rule:nonzero;"/><path id="path12-4" d="M181.25,103.334l-16.915,0c-1.073,0 -2.102,0.426 -2.86,1.184c-0.759,0.758 -1.185,1.787 -1.185,2.86c0,1.072 0.426,2.101 1.185,2.859c0.758,0.758 1.787,1.184 2.86,1.184l16.915,0c1.073,0 2.102,-0.426 2.86,-1.184c0.759,-0.758 1.185,-1.787 1.185,-2.859c0,-1.073 -0.426,-2.102 -1.185,-2.86c-0.758,-0.758 -1.786,-1.184 -2.86,-1.184Z" style="fill:#189caa;fill-rule:nonzero;"/><path id="path13-0" d="M73.001,140.398l-13.516,13.512c-0.759,0.758 -1.185,1.786 -1.185,2.859c0,1.073 0.426,2.101 1.184,2.86c0.758,0.758 1.787,1.184 2.86,1.184c1.073,0 2.102,-0.426 2.861,-1.184l13.516,-13.511c0.759,-0.758 1.185,-1.787 1.185,-2.859c0,-1.073 -0.426,-2.102 -1.184,-2.86c-0.376,-0.376 -0.822,-0.673 -1.312,-0.877c-0.49,-0.203 -1.017,-0.308 -1.547,-0.308c-1.073,0 -2.102,0.425 -2.861,1.184Z" style="fill:#189caa;fill-rule:nonzero;"/><path id="path14-0" d="M152.063,71.122c0.531,0 1.057,-0.105 1.548,-0.307c0.491,-0.203 0.937,-0.502 1.312,-0.878l11.769,-11.765c0.741,-0.762 1.152,-1.785 1.144,-2.847c-0.007,-1.062 -0.433,-2.079 -1.184,-2.83c-0.752,-0.752 -1.769,-1.177 -2.831,-1.184c-1.063,-0.008 -2.086,0.403 -2.849,1.143l-11.769,11.765c-0.566,0.566 -0.951,1.287 -1.107,2.071c-0.156,0.784 -0.076,1.597 0.23,2.336c0.306,0.739 0.825,1.371 1.489,1.815c0.665,0.445 1.447,0.681 2.247,0.682Z" style="fill:#189caa;fill-rule:nonzero;"/><path id="path15-6" d="M68.579,69.937c0.762,0.74 1.786,1.151 2.849,1.144c1.062,-0.008 2.08,-0.433 2.831,-1.184c0.752,-0.751 1.177,-1.768 1.184,-2.831c0.008,-1.062 -0.403,-2.085 -1.144,-2.847l-11.769,-11.765c-0.763,-0.736 -1.785,-1.144 -2.845,-1.135c-1.061,0.009 -2.075,0.434 -2.825,1.184c-0.75,0.75 -1.176,1.765 -1.184,2.825c-0.01,1.06 0.398,2.081 1.135,2.844l11.769,11.766Z" style="fill:#189caa;fill-rule:nonzero;"/><path id="path16-2" d="M150.501,140.397c-0.375,-0.38 -0.822,-0.681 -1.313,-0.887c-0.492,-0.206 -1.02,-0.313 -1.553,-0.314c-0.534,-0.002 -1.062,0.103 -1.555,0.306c-0.493,0.203 -0.941,0.502 -1.318,0.88c-0.377,0.378 -0.676,0.826 -0.879,1.318c-0.203,0.493 -0.306,1.022 -0.304,1.555c0.002,0.534 0.109,1.061 0.316,1.552c0.207,0.492 0.509,0.937 0.889,1.312l13.517,13.496c0.374,0.38 0.821,0.681 1.312,0.887c0.493,0.207 1.02,0.314 1.554,0.314c0.533,0.002 1.061,-0.102 1.555,-0.306c0.493,-0.203 0.941,-0.502 1.317,-0.88c0.378,-0.377 0.676,-0.825 0.879,-1.318c0.203,-0.493 0.306,-1.022 0.305,-1.555c-0.002,-0.533 -0.11,-1.061 -0.317,-1.552c-0.207,-0.492 -0.509,-0.937 -0.889,-1.312l-13.516,-13.496Z" style="fill:#189caa;fill-rule:nonzero;"/></g></g></svg>