<?xml version="1.0" encoding="UTF-8" standalone="no"?><!DOCTYPE svg PUBLIC "-//W3C//DTD SVG 1.1//EN" "http://www.w3.org/Graphics/SVG/1.1/DTD/svg11.dtd"><svg width="100%" height="100%" viewBox="0 0 224 212" version="1.1" xmlns="http://www.w3.org/2000/svg" xmlns:xlink="http://www.w3.org/1999/xlink" xml:space="preserve" xmlns:serif="http://www.serif.com/" style="fill-rule:evenodd;clip-rule:evenodd;stroke-linejoin:round;stroke-miterlimit:2;"><rect id="Lotus" x="0" y="0.384" width="223.502" height="211.507" style="fill:none;"/><g id="Lotus1" serif:id="Lotus"><path id="Hex" d="M21.977,97.096l0,-27.574c0,-3.797 2.458,-7.184 6.234,-8.968l77.499,-36.621c1.878,-0.888 3.961,-1.327 6.038,-1.327c2.074,0 4.166,0.439 6.044,1.327l77.496,36.621c3.776,1.784 6.237,5.171 6.237,8.968l-0,27.574c-3.177,-1.389 -6.644,-2.41 -10.324,-3.054l0,-24.52c0,-0.357 -0.255,-0.826 -0.882,-1.122l-77.496,-36.621c-0.328,-0.155 -0.697,-0.237 -1.075,-0.237c-0.375,0 -0.741,0.082 -1.069,0.237l-77.496,36.621c-0.627,0.296 -0.882,0.765 -0.882,1.122l-0,24.52c-3.68,0.644 -7.148,1.666 -10.324,3.054Zm179.549,27.062l0,18.605c0,3.797 -2.464,7.181 -6.237,8.965l-77.496,36.621c-3.721,1.761 -8.361,1.761 -12.082,0l-77.499,-36.621c-3.776,-1.784 -6.234,-5.168 -6.234,-8.965l0,-18.605c2.696,4.704 6.176,9.282 10.324,13.543l0,5.062c0,0.357 0.255,0.826 0.882,1.122l77.496,36.621c0.665,0.313 1.477,0.313 2.145,0l77.496,-36.621c0.627,-0.296 0.882,-0.765 0.882,-1.122l0,-5.062c4.148,-4.261 7.628,-8.839 10.324,-13.543Z" style="fill:#189caa;stroke:#189caa;stroke-width:0.5px;"/><path id="Lotus2" serif:id="Lotus" d="M111.751,94.229c-0.562,-1.03 -1.1,-2.06 -1.709,-3.067c-4.118,-7.024 -9.032,-13.227 -14.438,-18.401c3.697,-9.388 9.29,-17.044 16.147,-21.586c6.856,4.542 12.449,12.221 16.147,21.586c-5.406,5.174 -10.32,11.377 -14.438,18.401c-0.609,1.007 -1.147,2.037 -1.709,3.067Zm63.159,6.368c-1.896,7.187 -4.915,14.445 -9.033,21.421c-9.337,15.919 -22.722,27.555 -36.692,32.706c11.958,1.475 26.186,-1.451 39.266,-8.545c18.416,-10.02 31.123,-26.455 32.433,-41.625c-7.09,-3.77 -16.216,-5.057 -25.974,-3.957Zm-117.285,21.421c-4.118,-6.977 -7.137,-14.234 -9.033,-21.421c-9.758,-1.101 -18.884,0.187 -25.974,3.957c1.31,15.17 14.017,31.605 32.433,41.625c13.081,7.117 27.308,10.02 39.266,8.545c-13.97,-5.151 -27.355,-16.786 -36.692,-32.706Zm44.344,-26.127c-10.624,-18.073 -27.472,-30.2 -42.683,-30.996c-6.669,13.671 -4.236,34.297 6.388,52.394c9.828,16.692 24.968,28.305 39.196,30.599c-4.352,-12.267 -3.65,-27.485 1.849,-42.467c-1.334,-3.231 -2.902,-6.415 -4.75,-9.529Zm55.857,21.398c10.624,-18.097 13.058,-38.722 6.388,-52.394c-15.21,0.796 -32.059,12.923 -42.706,30.996c-10.624,18.097 -13.057,38.722 -6.365,52.395c15.188,-0.796 32.036,-12.923 42.683,-30.997Z" style="fill:#189caa;fill-rule:nonzero;"/></g></svg>