<?xml version="1.0" encoding="UTF-8" standalone="no"?><!DOCTYPE svg PUBLIC "-//W3C//DTD SVG 1.1//EN" "http://www.w3.org/Graphics/SVG/1.1/DTD/svg11.dtd"><svg width="100%" height="100%" viewBox="0 0 224 212" version="1.1" xmlns="http://www.w3.org/2000/svg" xmlns:xlink="http://www.w3.org/1999/xlink" xml:space="preserve" xmlns:serif="http://www.serif.com/" style="fill-rule:evenodd;clip-rule:evenodd;stroke-linejoin:round;stroke-miterlimit:2;"><rect id="Lungs" x="0" y="0.384" width="223.502" height="211.507" style="fill:none;"/><g id="Lungs1" serif:id="Lungs"><path id="Hex" d="M36.086,157.352l-7.874,-3.721c-3.776,-1.784 -6.234,-5.168 -6.234,-8.965l0,-73.242c0,-3.797 2.458,-7.184 6.234,-8.968l73.299,-34.636l0,10.194l-19.743,9.33c-3.424,0.735 -7.012,2.317 -10.617,4.793c-0.316,0.217 -0.633,0.441 -0.95,0.673l-37.017,17.492c-0.627,0.296 -0.882,0.765 -0.882,1.122l0,73.242c0,0.357 0.255,0.826 0.882,1.122l1.528,0.722c0.233,4.312 0.697,7.921 1.374,10.841Zm86.123,-129.43l73.08,34.534c3.776,1.784 6.237,5.171 6.237,8.968l0,73.242c0,3.797 -2.464,7.181 -6.237,8.965l-7.87,3.719c0.677,-2.921 1.141,-6.529 1.373,-10.84l1.528,-0.722c0.627,-0.296 0.882,-0.765 0.882,-1.122l0,-73.242c0,-0.357 -0.255,-0.826 -0.882,-1.122l-37.023,-17.496c-0.315,-0.23 -0.63,-0.453 -0.944,-0.668c-3.603,-2.475 -7.189,-4.057 -10.611,-4.792l-19.533,-9.231l0,-10.194Zm40.257,141.22l-44.673,21.11c-3.721,1.761 -8.361,1.761 -12.082,0l-44.677,-21.111c3.256,-1.356 6.846,-3.187 10.623,-5.172l39.022,18.44c0.665,0.313 1.477,0.313 2.145,0l39.02,-18.439c3.776,1.985 7.365,3.815 10.621,5.172Z" style="fill:#189caa;stroke:#189caa;stroke-width:0.5px;"/><g><path id="path1-67-6" d="M98.821,93.095l-8.042,7.205c-0.025,0.875 -0.073,1.748 -0.144,2.621c-0.071,0.872 -0.165,1.741 -0.281,2.609c-0.116,0.867 -0.254,1.731 -0.416,2.591c-0.161,0.861 -0.344,1.716 -0.55,2.566c-0.207,0.851 -0.434,1.696 -0.684,2.534c-0.25,0.839 -0.522,1.67 -0.815,2.495c-0.293,0.825 -0.608,1.641 -0.944,2.449c-0.336,0.808 -0.693,1.607 -1.07,2.396c-0.378,0.789 -0.776,1.568 -1.194,2.338c-0.418,0.768 -0.856,1.526 -1.314,2.272c-0.458,0.745 -0.935,1.479 -1.431,2.2c-0.496,0.721 -1.01,1.428 -1.544,2.122c-0.533,0.694 -1.084,1.375 -1.652,2.04c-0.569,0.665 -1.155,1.316 -1.757,1.95c-0.602,0.635 -1.221,1.253 -1.856,1.857c-0.635,0.602 -1.285,1.188 -1.95,1.757l-0.045,0.038c-0.075,0.064 -0.155,0.12 -0.24,0.168c-0.085,0.048 -0.175,0.087 -0.269,0.117c-0.093,0.03 -0.189,0.051 -0.286,0.063c-0.097,0.011 -0.195,0.013 -0.293,0.006c-0.098,-0.007 -0.194,-0.025 -0.289,-0.052c-0.094,-0.026 -0.185,-0.062 -0.272,-0.106c-0.088,-0.044 -0.17,-0.097 -0.247,-0.158c-0.077,-0.061 -0.147,-0.128 -0.212,-0.203c-0.064,-0.074 -0.119,-0.154 -0.168,-0.24c-0.048,-0.085 -0.087,-0.174 -0.117,-0.268c-0.03,-0.094 -0.051,-0.189 -0.063,-0.286c-0.011,-0.097 -0.013,-0.195 -0.006,-0.293c0.007,-0.098 0.025,-0.194 0.052,-0.289c0.026,-0.094 0.062,-0.185 0.106,-0.272c0.045,-0.088 0.097,-0.17 0.158,-0.247c0.061,-0.077 0.128,-0.147 0.203,-0.211l0.045,-0.038c0.647,-0.554 1.28,-1.125 1.897,-1.713c0.617,-0.587 1.218,-1.192 1.803,-1.812c0.584,-0.62 1.152,-1.256 1.702,-1.907c0.55,-0.651 1.082,-1.316 1.597,-1.996c0.514,-0.679 1.009,-1.372 1.486,-2.079c0.477,-0.707 0.934,-1.426 1.372,-2.157c0.438,-0.731 0.855,-1.473 1.253,-2.228c0.398,-0.754 0.775,-1.518 1.131,-2.291c0.356,-0.774 0.691,-1.557 1.006,-2.35c0.314,-0.792 0.607,-1.592 0.878,-2.4c0.271,-0.808 0.52,-1.622 0.747,-2.444c0.227,-0.822 0.432,-1.648 0.614,-2.481c0.183,-0.833 0.342,-1.669 0.479,-2.511c0.137,-0.841 0.251,-1.685 0.343,-2.532c0.091,-0.847 0.16,-1.696 0.206,-2.547c0.045,-0.851 0.067,-1.702 0.067,-2.555l0,-16.325l-0.299,-1.096c-0.006,-0.025 -0.012,-0.049 -0.017,-0.074c-0.148,-0.688 -0.329,-1.366 -0.543,-2.035c-0.214,-0.67 -0.46,-1.327 -0.738,-1.973c-0.278,-0.645 -0.587,-1.276 -0.926,-1.892c-0.339,-0.616 -0.707,-1.214 -1.104,-1.794c-0.397,-0.58 -0.821,-1.139 -1.273,-1.678c-0.451,-0.539 -0.928,-1.054 -1.429,-1.547c-0.502,-0.493 -1.026,-0.96 -1.573,-1.402c-0.547,-0.441 -1.114,-0.856 -1.702,-1.242c-0.082,-0.055 -0.158,-0.116 -0.227,-0.185c-0.07,-0.07 -0.132,-0.144 -0.187,-0.226c-0.055,-0.081 -0.102,-0.167 -0.14,-0.257c-0.037,-0.091 -0.067,-0.184 -0.086,-0.28c-0.019,-0.097 -0.03,-0.194 -0.03,-0.292c-0.001,-0.098 0.008,-0.195 0.027,-0.292c0.019,-0.096 0.047,-0.189 0.084,-0.281c0.037,-0.091 0.083,-0.177 0.137,-0.259c0.055,-0.082 0.116,-0.158 0.186,-0.227c0.069,-0.07 0.144,-0.132 0.225,-0.186c0.082,-0.055 0.168,-0.102 0.258,-0.139c0.091,-0.038 0.184,-0.067 0.281,-0.086c0.096,-0.019 0.193,-0.03 0.291,-0.03c0.098,-0.001 0.195,0.009 0.292,0.028c0.097,0.019 0.19,0.046 0.281,0.084c0.091,0.037 0.177,0.083 0.259,0.138c0.642,0.423 1.263,0.876 1.863,1.357c0.6,0.482 1.176,0.99 1.729,1.526c0.552,0.535 1.079,1.095 1.579,1.679c0.501,0.584 0.972,1.191 1.416,1.82c0.443,0.629 0.856,1.277 1.239,1.943c0.383,0.667 0.734,1.351 1.053,2.051c0.319,0.7 0.604,1.414 0.856,2.14c0.252,0.727 0.47,1.463 0.653,2.21l4.906,-2.927c1.467,-0.877 2.808,-1.917 4.021,-3.12c-0.248,-14.998 -3.572,-20.09 -13.007,-20.09c-8.651,0 -19.162,8.808 -28.116,23.563c-9.33,15.374 -15.23,34.079 -16.189,51.319c-1.138,20.479 0.61,31.91 5.344,34.945c4.502,2.888 12.611,-1.389 22.002,-6.341l0.703,-0.37c5.548,-2.906 11.25,-5.469 17.106,-7.688c6.497,-2.546 9.464,-3.708 10.846,-7.7c1.52,-4.391 1.366,-12.291 1.062,-28.029l-0.105,-20.466Zm-48.058,58.174c-0.046,0.004 -0.093,0.007 -0.138,0.007c-0.092,0 -0.183,-0.008 -0.275,-0.025c-0.091,-0.017 -0.179,-0.043 -0.265,-0.076c-0.086,-0.034 -0.168,-0.075 -0.247,-0.123c-0.078,-0.049 -0.151,-0.104 -0.219,-0.166c-0.068,-0.062 -0.13,-0.13 -0.186,-0.204c-0.056,-0.073 -0.104,-0.152 -0.145,-0.234c-0.041,-0.082 -0.074,-0.168 -0.1,-0.257c-0.025,-0.088 -0.042,-0.179 -0.05,-0.271c-0.506,-5.516 -0.519,-12.381 -0.041,-20.987c0.004,-0.099 0.018,-0.196 0.042,-0.292c0.024,-0.096 0.057,-0.189 0.099,-0.278c0.042,-0.09 0.093,-0.174 0.151,-0.254c0.059,-0.079 0.125,-0.152 0.198,-0.219c0.073,-0.066 0.152,-0.124 0.237,-0.175c0.085,-0.051 0.174,-0.093 0.267,-0.126c0.093,-0.033 0.189,-0.056 0.287,-0.07c0.097,-0.013 0.196,-0.018 0.295,-0.013c0.098,0.005 0.195,0.021 0.291,0.046c0.096,0.025 0.188,0.058 0.277,0.102c0.089,0.043 0.173,0.094 0.251,0.154c0.079,0.059 0.151,0.126 0.216,0.2c0.066,0.074 0.123,0.154 0.173,0.239c0.05,0.085 0.091,0.175 0.123,0.269c0.031,0.093 0.054,0.189 0.067,0.287c0.013,0.098 0.016,0.196 0.009,0.295c-0.47,8.458 -0.459,15.179 0.034,20.549c0.009,0.097 0.008,0.195 -0.002,0.293c-0.01,0.097 -0.03,0.193 -0.059,0.287c-0.029,0.094 -0.067,0.184 -0.114,0.27c-0.046,0.086 -0.102,0.167 -0.164,0.242c-0.063,0.075 -0.132,0.144 -0.209,0.205c-0.076,0.062 -0.158,0.115 -0.245,0.161c-0.087,0.046 -0.177,0.083 -0.272,0.111c-0.094,0.028 -0.189,0.046 -0.287,0.055l-0,0Zm2.789,-34.448c-0.139,0.77 -0.272,1.553 -0.396,2.326c-0.013,0.088 -0.035,0.172 -0.064,0.256c-0.029,0.083 -0.065,0.163 -0.109,0.24c-0.043,0.076 -0.092,0.149 -0.148,0.217c-0.056,0.068 -0.117,0.131 -0.185,0.189c-0.067,0.057 -0.138,0.108 -0.214,0.153c-0.076,0.044 -0.156,0.082 -0.238,0.112c-0.083,0.031 -0.168,0.054 -0.254,0.07c-0.087,0.016 -0.174,0.023 -0.263,0.023c-0.079,0 -0.158,-0.006 -0.236,-0.018c-0.097,-0.016 -0.192,-0.04 -0.284,-0.074c-0.092,-0.034 -0.18,-0.077 -0.263,-0.128c-0.084,-0.052 -0.162,-0.111 -0.233,-0.177c-0.073,-0.067 -0.137,-0.139 -0.195,-0.219c-0.058,-0.079 -0.107,-0.164 -0.148,-0.253c-0.041,-0.089 -0.073,-0.181 -0.096,-0.277c-0.023,-0.095 -0.037,-0.192 -0.04,-0.29c-0.004,-0.098 0.002,-0.196 0.018,-0.293c0.126,-0.795 0.263,-1.6 0.406,-2.39c0.018,-0.096 0.044,-0.19 0.081,-0.281c0.036,-0.091 0.08,-0.177 0.133,-0.26c0.053,-0.082 0.114,-0.159 0.183,-0.229c0.068,-0.07 0.142,-0.133 0.223,-0.189c0.081,-0.056 0.166,-0.103 0.256,-0.142c0.09,-0.039 0.183,-0.069 0.279,-0.09c0.096,-0.021 0.192,-0.032 0.29,-0.034c0.098,-0.002 0.195,0.007 0.292,0.024c0.097,0.017 0.191,0.044 0.282,0.08c0.091,0.036 0.178,0.081 0.26,0.134c0.082,0.053 0.159,0.114 0.23,0.182c0.07,0.068 0.133,0.142 0.189,0.223c0.056,0.08 0.103,0.165 0.142,0.255c0.04,0.091 0.07,0.183 0.09,0.279c0.021,0.096 0.032,0.192 0.034,0.29c0.001,0.098 -0.007,0.195 -0.024,0.292l0,-0.002Z" style="fill:#189caa;fill-rule:nonzero;"/><path id="path2-097-0" d="M132.359,96.045l0,-12.913l-5.62,-3.462c-0.439,-0.269 -0.87,-0.551 -1.292,-0.847c-0.421,-0.296 -0.833,-0.605 -1.235,-0.928c-0.401,-0.323 -0.792,-0.657 -1.173,-1.005c-0.38,-0.347 -0.748,-0.707 -1.105,-1.078c-0.357,-0.371 -0.702,-0.754 -1.034,-1.146c-0.333,-0.394 -0.653,-0.797 -0.959,-1.211c-0.307,-0.414 -0.6,-0.837 -0.879,-1.269c-0.28,-0.433 -0.545,-0.874 -0.796,-1.324c-0.251,-0.45 -0.487,-0.906 -0.709,-1.372c-0.221,-0.465 -0.428,-0.935 -0.62,-1.414c-0.192,-0.478 -0.367,-0.962 -0.528,-1.451c-0.161,-0.489 -0.305,-0.983 -0.434,-1.482c-0.129,-0.498 -0.242,-1.001 -0.338,-1.506c-0.097,-0.506 -0.177,-1.015 -0.241,-1.525c-0.064,-0.511 -0.111,-1.024 -0.143,-1.538c-0.031,-0.514 -0.046,-1.028 -0.044,-1.543l0,-31.58l-6.699,0l0,31.368c-0.002,0.521 -0.02,1.042 -0.055,1.562c-0.035,0.52 -0.087,1.039 -0.155,1.556c-0.068,0.517 -0.153,1.032 -0.254,1.543c-0.102,0.512 -0.219,1.02 -0.353,1.524c-0.134,0.504 -0.284,1.003 -0.45,1.498c-0.166,0.494 -0.347,0.983 -0.545,1.466c-0.198,0.483 -0.41,0.959 -0.638,1.428c-0.227,0.468 -0.471,0.93 -0.728,1.384c-0.257,0.453 -0.53,0.898 -0.816,1.334c-0.286,0.436 -0.586,0.863 -0.899,1.28c-0.314,0.417 -0.641,0.823 -0.98,1.219c-0.34,0.396 -0.691,0.78 -1.056,1.153c-0.364,0.373 -0.741,0.735 -1.128,1.084c-0.388,0.349 -0.786,0.685 -1.195,1.009c-0.409,0.323 -0.828,0.633 -1.258,0.93c-0.429,0.296 -0.867,0.579 -1.314,0.847l-5.884,3.51l0,13.121l6.865,-6.15c0.236,-0.212 0.477,-0.419 0.723,-0.62c0.245,-0.201 0.495,-0.397 0.75,-0.587c0.255,-0.189 0.513,-0.373 0.777,-0.551c0.263,-0.178 0.53,-0.349 0.801,-0.515c0.271,-0.166 0.546,-0.326 0.824,-0.478c0.278,-0.153 0.56,-0.3 0.844,-0.44c0.285,-0.14 0.573,-0.274 0.864,-0.401c0.29,-0.126 0.584,-0.247 0.881,-0.361c0.296,-0.114 0.596,-0.22 0.897,-0.32c0.301,-0.1 0.605,-0.192 0.91,-0.278c0.306,-0.086 0.614,-0.165 0.923,-0.237c0.309,-0.072 0.62,-0.137 0.932,-0.195c0.312,-0.058 0.626,-0.109 0.94,-0.152c0.314,-0.043 0.63,-0.079 0.946,-0.109c0.317,-0.029 0.633,-0.051 0.95,-0.065c0.317,-0.015 0.635,-0.022 0.952,-0.022c0.318,0 0.635,0.007 0.953,0.022c0.317,0.014 0.634,0.036 0.95,0.065c0.317,0.029 0.632,0.065 0.947,0.109c0.314,0.043 0.628,0.094 0.94,0.152c0.312,0.058 0.623,0.123 0.932,0.195c0.309,0.072 0.617,0.151 0.922,0.237c0.306,0.086 0.609,0.179 0.911,0.278c0.302,0.1 0.6,0.207 0.896,0.32c0.297,0.114 0.59,0.234 0.881,0.361c0.291,0.127 0.579,0.261 0.864,0.401c0.285,0.14 0.566,0.287 0.845,0.44c0.278,0.153 0.553,0.312 0.824,0.478c0.271,0.165 0.537,0.337 0.801,0.515c0.263,0.177 0.522,0.361 0.776,0.551c0.255,0.19 0.505,0.385 0.751,0.587c0.245,0.201 0.486,0.408 0.723,0.62l6.865,5.928Z" style="fill:#189caa;fill-rule:nonzero;"/><path id="path3-31-1" d="M181.639,128.745c-0.958,-17.241 -6.859,-35.946 -16.189,-51.319c-8.955,-14.755 -19.465,-23.563 -28.116,-23.563c-9.442,0 -12.761,5.097 -13.008,20.112c1.202,1.209 2.528,2.261 3.979,3.154l4.559,2.808l0.169,-0.733c0.125,-0.696 0.284,-1.384 0.476,-2.065c0.192,-0.681 0.418,-1.35 0.676,-2.008c0.258,-0.658 0.548,-1.303 0.87,-1.932c0.322,-0.63 0.673,-1.243 1.055,-1.838c0.382,-0.596 0.792,-1.171 1.23,-1.726c0.439,-0.554 0.903,-1.087 1.393,-1.596c0.491,-0.51 1.005,-0.994 1.544,-1.453c0.538,-0.459 1.098,-0.89 1.678,-1.295c0.08,-0.057 0.166,-0.106 0.256,-0.146c0.091,-0.04 0.184,-0.072 0.281,-0.094c0.097,-0.022 0.194,-0.034 0.293,-0.037c0.1,-0.002 0.198,0.005 0.295,0.022c0.097,0.016 0.192,0.043 0.284,0.079c0.092,0.036 0.18,0.08 0.263,0.134c0.083,0.053 0.16,0.114 0.232,0.183c0.071,0.069 0.135,0.144 0.191,0.224c0.056,0.082 0.104,0.168 0.144,0.258c0.039,0.091 0.069,0.185 0.09,0.281c0.02,0.097 0.031,0.195 0.032,0.293c0.002,0.099 -0.007,0.197 -0.025,0.294c-0.019,0.097 -0.046,0.192 -0.083,0.284c-0.037,0.091 -0.083,0.179 -0.138,0.261c-0.054,0.082 -0.116,0.159 -0.186,0.23c-0.07,0.07 -0.145,0.132 -0.227,0.188c-0.501,0.349 -0.984,0.721 -1.448,1.117c-0.465,0.397 -0.908,0.814 -1.331,1.254c-0.424,0.44 -0.824,0.899 -1.202,1.378c-0.378,0.48 -0.731,0.976 -1.06,1.49c-0.329,0.514 -0.632,1.043 -0.908,1.587c-0.277,0.544 -0.526,1.1 -0.748,1.669c-0.222,0.568 -0.415,1.146 -0.581,1.734c-0.165,0.587 -0.301,1.182 -0.408,1.782c-0.004,0.026 -0.01,0.052 -0.016,0.079l-0.608,2.634l0,14.593c0,0.91 0.026,1.819 0.079,2.728c0.052,0.908 0.131,1.815 0.236,2.719c0.104,0.904 0.235,1.804 0.391,2.701c0.156,0.896 0.339,1.788 0.546,2.674c0.208,0.886 0.441,1.765 0.7,2.638c0.259,0.873 0.543,1.737 0.851,2.594c0.308,0.856 0.641,1.702 0.998,2.54c0.357,0.837 0.738,1.663 1.143,2.478c0.405,0.815 0.833,1.618 1.283,2.408c0.451,0.791 0.925,1.568 1.42,2.331c0.496,0.763 1.013,1.512 1.553,2.245c0.539,0.733 1.098,1.45 1.678,2.152c0.58,0.701 1.18,1.385 1.8,2.052c0.62,0.666 1.259,1.315 1.916,1.945c0.657,0.629 1.331,1.24 2.023,1.831c0.693,0.591 1.402,1.162 2.127,1.712c0.078,0.059 0.15,0.126 0.215,0.199c0.065,0.073 0.123,0.152 0.173,0.237c0.049,0.085 0.091,0.173 0.123,0.266c0.031,0.093 0.055,0.188 0.068,0.285c0.013,0.097 0.017,0.195 0.011,0.293c-0.006,0.098 -0.022,0.195 -0.046,0.289c-0.025,0.095 -0.058,0.187 -0.102,0.275c-0.043,0.088 -0.094,0.171 -0.153,0.249c-0.059,0.079 -0.126,0.15 -0.199,0.216c-0.074,0.065 -0.153,0.122 -0.238,0.171c-0.085,0.049 -0.174,0.091 -0.266,0.123c-0.093,0.031 -0.188,0.055 -0.285,0.067c-0.097,0.013 -0.195,0.017 -0.293,0.011c-0.098,-0.006 -0.195,-0.022 -0.29,-0.046c-0.095,-0.025 -0.186,-0.059 -0.275,-0.103c-0.088,-0.043 -0.171,-0.094 -0.249,-0.154c-0.721,-0.546 -1.427,-1.113 -2.117,-1.697c-0.691,-0.585 -1.365,-1.188 -2.023,-1.809c-0.658,-0.621 -1.298,-1.26 -1.922,-1.916c-0.623,-0.656 -1.229,-1.327 -1.816,-2.016c-0.587,-0.688 -1.155,-1.392 -1.705,-2.111c-0.549,-0.719 -1.078,-1.452 -1.588,-2.2c-0.51,-0.748 -0.999,-1.508 -1.467,-2.282c-0.469,-0.774 -0.917,-1.559 -1.343,-2.358c-0.426,-0.798 -0.831,-1.607 -1.213,-2.426c-0.383,-0.82 -0.743,-1.649 -1.081,-2.488c-0.338,-0.84 -0.653,-1.687 -0.946,-2.543c-0.292,-0.856 -0.561,-1.719 -0.807,-2.59c-0.246,-0.87 -0.468,-1.747 -0.667,-2.63c-0.198,-0.882 -0.373,-1.77 -0.524,-2.662c-0.15,-0.892 -0.278,-1.788 -0.379,-2.686c-0.103,-0.899 -0.181,-1.8 -0.235,-2.702l-7.764,-6.704l-0.111,20.193c-0.305,15.737 -0.458,23.637 1.062,28.029c1.382,3.992 4.348,5.154 10.846,7.7c5.856,2.219 11.558,4.782 17.106,7.687l0.703,0.371c9.39,4.952 17.5,9.23 22.003,6.341c4.734,-3.035 6.482,-14.466 5.343,-34.945l-0,-0Z" style="fill:#189caa;fill-rule:nonzero;"/></g></g></svg>