<?xml version="1.0" encoding="UTF-8" standalone="no"?><!DOCTYPE svg PUBLIC "-//W3C//DTD SVG 1.1//EN" "http://www.w3.org/Graphics/SVG/1.1/DTD/svg11.dtd"><svg width="100%" height="100%" viewBox="0 0 224 212" version="1.1" xmlns="http://www.w3.org/2000/svg" xmlns:xlink="http://www.w3.org/1999/xlink" xml:space="preserve" xmlns:serif="http://www.serif.com/" style="fill-rule:evenodd;clip-rule:evenodd;stroke-linejoin:round;stroke-miterlimit:2;"><rect id="Milk" x="0" y="-0" width="223.502" height="211.507" style="fill:none;"/><path id="Hex" d="M54.27,163.408l-25.814,-12.198c-3.765,-1.779 -6.216,-5.153 -6.216,-8.939l0,-73.028c0,-3.786 2.451,-7.163 6.216,-8.942l42.413,-20.042c-0.581,1.465 -0.901,3.062 -0.901,4.731l0,5.859l-36.555,17.274c-0.625,0.295 -0.879,0.762 -0.879,1.119l0,73.028c0,0.356 0.254,0.824 0.879,1.119l20.857,9.856l0,10.162Zm33.835,-131.292l17.623,-8.328c1.872,-0.885 3.949,-1.323 6.02,-1.323c2.068,0 4.154,0.438 6.026,1.323l17.623,8.328l-21.508,0l-1.069,-0.505c-0.327,-0.155 -0.695,-0.237 -1.072,-0.237c-0.374,0 -0.739,0.082 -1.066,0.237l-1.069,0.505l-21.509,0Zm64.542,8.151l42.397,20.035c3.765,1.779 6.219,5.156 6.219,8.942l0,73.028c0,3.786 -2.457,7.16 -6.219,8.939l-25.811,12.197l0,-10.161l20.857,-9.856c0.625,-0.295 0.879,-0.762 0.879,-1.119l0,-73.028c0,-0.356 -0.254,-0.824 -0.879,-1.119l-36.547,-17.27l0,-5.863c0,-1.667 -0.318,-3.261 -0.896,-4.725Zm-0.304,131.121l-34.568,16.335c-3.71,1.756 -8.337,1.756 -12.047,0l-34.569,-16.335l17.728,0c0.711,0 1.407,-0.108 2.067,-0.312c0.543,0.168 1.11,0.271 1.688,0.303l18.04,8.525c0.663,0.313 1.472,0.313 2.138,0l18.018,-8.514l0.707,0c0.653,0 1.284,-0.089 1.884,-0.256c0.598,0.166 1.229,0.255 1.88,0.255l17.033,0Z" style="fill:#189caa;stroke:#189caa;stroke-width:0.5px;"/><path id="Milk1" serif:id="Milk" d="M61.27,135.005c2.5,-1.464 5.601,-1.92 8.474,-1.211c3.041,0.754 5.48,2.667 6.866,5.395c0.58,1.136 0.769,2.134 0.968,3.109c0.541,2.735 1.249,4.824 5.555,6.683c2.904,1.25 4.184,2.127 5.579,4.534c1.981,3.422 2.019,7.506 0.175,10.874l-27.617,0l0,-29.384Zm48.961,-14.129c-1.989,1.159 -4.039,2.355 -5.51,5.319c-2.485,5.014 -1.852,10.737 1.653,14.951c3.49,4.198 8.992,5.86 14.365,4.352c1.234,-0.397 2.157,-0.793 2.987,-1.273c1.784,-1.036 2.843,-2.492 3.863,-3.902c0.853,-1.173 1.646,-2.286 2.805,-3.063c0.373,-0.259 0.762,-0.434 1.15,-0.556l0,-41.92c-0.853,-0.244 -1.745,-0.411 -2.659,-0.487c-0.404,-0.038 -0.807,-0.054 -1.211,-0.054c-4.39,0 -8.444,2.004 -11.02,5.495c-3.383,4.58 -2.705,7.796 -2.05,10.904c0.434,2.066 0.883,4.207 -0.107,6.333c-0.891,1.935 -2.606,2.934 -4.267,3.902l0.001,0Zm37.256,17.055c3.704,-1.524 6.439,-4.42 7.713,-8.154c1.264,-3.726 0.853,-7.841 -1.144,-11.293c-1.753,-3.033 -3.459,-4.13 -6.866,-5.601c-5.38,-2.324 -5.921,-5.083 -6.439,-7.743c-0.237,-1.188 -0.473,-2.416 -1.189,-3.817c-0.999,-1.966 -2.469,-3.598 -4.252,-4.801l0,40.518c0.465,0.16 0.922,0.336 1.38,0.518c2.667,1.044 5.982,2.354 10.798,0.373Zm-12.178,-45.738c3.262,1.562 5.937,4.13 7.605,7.422c0.953,1.875 1.272,3.498 1.524,4.801c0.458,2.309 0.686,3.475 4.237,5.006c3.963,1.715 6.386,3.292 8.634,7.178c2.538,4.383 3.071,9.633 1.448,14.388c-1.6,4.71 -5.19,8.512 -9.838,10.425c-6.219,2.553 -10.661,0.807 -13.611,-0.351l0,23.327l26.923,0l0,-81.044l-26.923,0l0,8.848Zm1.303,-12.612l24.248,0l-12.398,-21.467l-11.85,21.467Zm-73.965,0l69.666,0l12.925,-23.418l-29.644,0l2.019,7.536c1.547,5.784 -3.582,12.018 -11.674,14.189c-1.837,0.496 -3.651,0.724 -5.372,0.724c-5.846,0 -10.631,-2.704 -11.828,-7.178l-2.278,-8.497c-0.595,-2.225 -0.214,-4.572 1.075,-6.774l-11.362,0l-13.526,23.418Zm78.019,-40.465l-57.824,0c-3.239,0 -5.876,2.637 -5.876,5.876l0,7.407l13.861,0c2.012,-1.638 4.527,-2.903 7.301,-3.643c6.661,-1.783 12.94,-0.191 15.836,3.643l32.577,0l0,-7.407c0,-3.239 -2.629,-5.876 -5.875,-5.876Zm-79.398,91.697c2.926,-1.196 6.211,-1.456 9.381,-0.671c4.114,1.014 7.43,3.62 9.312,7.339c0.815,1.6 1.089,2.98 1.303,4.085c0.381,1.943 0.541,2.743 3.353,3.963c3.368,1.448 5.434,2.789 7.347,6.104c2.301,3.978 2.644,8.641 1.059,12.756l38.521,0l0,-23.075c-0.289,0.359 -0.587,0.77 -0.899,1.212c-1.143,1.569 -2.553,3.52 -5.037,4.96c-1.082,0.625 -2.24,1.121 -3.749,1.6c-0.023,0.008 -0.045,0.016 -0.061,0.023c-1.677,0.472 -3.352,0.709 -5.006,0.709c-5.106,0 -9.937,-2.21 -13.313,-6.264c-4.466,-5.372 -5.281,-12.666 -2.126,-19.029c1.966,-3.978 4.861,-5.669 6.98,-6.904c1.319,-0.762 2.355,-1.372 2.751,-2.233c0.442,-0.945 0.229,-2.127 -0.159,-3.979c-0.717,-3.368 -1.684,-7.97 2.697,-13.907c3.597,-4.869 9.419,-7.475 15.576,-6.957c0.8,0.06 1.585,0.183 2.347,0.35l0,-7.552l-70.277,0l-0,47.468Zm41.417,-65.063l0,-0.008c3.017,-0.8 5.616,-2.324 7.323,-4.29c1.532,-1.76 2.134,-3.635 1.692,-5.281c-0.732,-2.712 -4.146,-4.359 -8.276,-4.359c-1.387,0 -2.85,0.183 -4.321,0.58c-3.01,0.808 -5.609,2.332 -7.324,4.298c-1.531,1.753 -2.126,3.628 -1.684,5.274c0.441,1.645 1.897,2.971 4.099,3.726c2.462,0.853 5.479,0.868 8.49,0.061Zm2.286,8.504c5.852,-1.57 9.975,-5.959 9.007,-9.58l-0.434,-1.623c-0.222,0.29 -0.442,0.587 -0.694,0.869c-2.195,2.522 -5.456,4.466 -9.191,5.464c-1.783,0.48 -3.582,0.716 -5.326,0.716c-1.89,0 -3.711,-0.282 -5.365,-0.845c-0.35,-0.129 -0.693,-0.267 -1.029,-0.411l0.435,1.615c0.968,3.627 6.736,5.357 12.596,3.795l0.001,0Z" style="fill:#189caa;fill-rule:nonzero;"/></svg>