<?xml version="1.0" encoding="UTF-8" standalone="no"?><!DOCTYPE svg PUBLIC "-//W3C//DTD SVG 1.1//EN" "http://www.w3.org/Graphics/SVG/1.1/DTD/svg11.dtd"><svg width="100%" height="100%" viewBox="0 0 224 212" version="1.1" xmlns="http://www.w3.org/2000/svg" xmlns:xlink="http://www.w3.org/1999/xlink" xml:space="preserve" xmlns:serif="http://www.serif.com/" style="fill-rule:evenodd;clip-rule:evenodd;stroke-linejoin:round;stroke-miterlimit:2;"><rect id="Muscle-Injury" serif:id="Muscle Injury" x="0" y="0.384" width="223.502" height="211.507" style="fill:none;"/><g id="Muscle-Injury1" serif:id="Muscle Injury"><path id="Hex" d="M133.817,180.777l-16.024,7.572c-3.721,1.761 -8.361,1.761 -12.082,0l-77.499,-36.621c-3.776,-1.784 -6.234,-5.168 -6.234,-8.965l0,-73.242c0,-3.797 2.458,-7.184 6.234,-8.968l4.742,-2.241l-3.423,3.347l-0.057,0.056c-3.877,3.88 -4.159,10.178 -0.282,14.542l0.023,0.025c1.074,1.197 2.103,2.428 3.086,3.689l0,62.791c0,0.357 0.255,0.826 0.882,1.122l77.496,36.621c0.665,0.313 1.477,0.313 2.145,0l12.473,-5.894c2.988,1.817 5.839,3.867 8.52,6.165Zm-75.387,-134.503l47.281,-22.342c1.878,-0.888 3.961,-1.327 6.038,-1.327c2.074,0 4.166,0.439 6.044,1.327l8.121,3.838l-0.38,0.165c-1.426,0.829 -2.747,2.128 -3.66,3.652c-0.208,0.347 -0.385,0.711 -0.53,1.088l-1.018,2.648l-7.502,-3.545c-0.328,-0.155 -0.697,-0.237 -1.075,-0.237c-0.375,0 -0.741,0.082 -1.069,0.237l-44.263,20.917c-2.557,-1.766 -4.996,-3.71 -7.293,-5.836l-0.103,-0.094c-0.193,-0.172 -0.39,-0.335 -0.59,-0.491Zm104.215,-1.147l32.644,15.426c3.776,1.784 6.237,5.171 6.237,8.968l0,73.242c0,3.797 -2.464,7.181 -6.237,8.965l-27.813,13.143c1.502,-3.101 1.403,-6.836 -0.456,-9.975l23.301,-11.011c0.627,-0.296 0.882,-0.765 0.882,-1.122l0,-41.661l3.28,-3.295l-0.765,0.665l1.776,-1.792l1.237,-2.503l0.315,-2.949l-0.566,-2.392l-1.117,-2.434l-2.019,-2.031l-2.098,-1.044l2.109,-3.459l-0.374,0.552l0.909,-1.484l0.66,-1.877l0.07,-3.209l-1.166,-2.901l-2.193,-2.198l1.067,0.875c-0.923,-0.923 -1.753,-1.545 -2.639,-1.988l-1.873,-0.672l-0.691,-0.077l-18.148,-8.576l0.323,-0.856l0.146,-2.747l-0.619,-2.509c-0.139,-0.348 -0.306,-0.684 -0.499,-1.006c-1.022,-1.703 -2.344,-2.902 -3.775,-3.665l-2.018,-0.78l-0.804,-0.1l0.914,-1.523Z" style="fill:#189caa;stroke:#189caa;stroke-width:0.5px;"/><g><path id="path1-38-1" d="M140.898,118.25c-1.318,-6.922 -4.285,-14.009 -8.57,-20.436l-6.593,6.592c-0.824,0.823 -2.142,1.647 -3.461,2.142c2.803,4.45 4.78,9.229 5.769,14.174c0.824,4.12 1.648,7.911 2.966,11.536c0.659,1.978 -0.494,4.121 -2.307,4.779c-0.495,0.165 -0.824,0.165 -1.154,0.165c-1.483,0 -2.966,-1.154 -3.626,-2.637c-1.318,-3.791 -2.307,-7.911 -3.296,-12.526c-1.319,-6.922 -5.11,-13.679 -10.879,-19.282c-5.768,-5.768 -12.691,-9.723 -19.613,-10.878c-4.285,-0.824 -8.405,-1.978 -12.196,-3.296c-1.978,-0.659 -2.967,-2.802 -2.308,-4.779c0.659,-1.978 2.802,-2.966 4.779,-2.308c3.626,1.153 7.582,2.143 11.537,2.966c6.429,1.319 12.692,4.285 18.295,8.571l4.45,-12.855c-6.428,-4.285 -13.515,-7.252 -20.437,-8.57c-14.834,-2.966 -28.844,-9.394 -39.886,-19.612c-1.484,-1.319 -3.626,-1.319 -4.945,0l-14.999,14.668c-1.318,1.319 -1.318,3.461 0,4.945c10.054,11.207 16.482,25.051 19.614,39.884c1.978,10.383 7.746,21.096 16.812,29.995c9.065,9.065 19.613,14.668 29.996,16.481c14.834,2.966 28.844,9.229 39.886,19.612c1.484,1.318 3.626,1.318 4.945,0l14.834,-14.833c1.318,-1.319 1.318,-3.461 0,-4.945c-10.384,-10.877 -16.812,-24.721 -19.614,-39.554Zm-57.686,-17.469c1.484,-1.484 3.791,-1.484 5.44,0l22.909,22.908c1.484,1.484 1.484,3.791 0,5.439c-0.659,0.659 -1.647,1.153 -2.637,1.153c-0.823,0 -1.978,-0.494 -2.637,-1.153l-23.075,-22.908c-1.483,-1.484 -1.483,-3.956 0,-5.439Zm36.095,45.322c-0.494,1.484 -1.978,2.637 -3.626,2.637c-0.495,0 -0.824,0 -1.153,-0.165c-3.626,-1.154 -7.582,-2.143 -11.537,-2.967c-8.242,-1.647 -16.482,-6.262 -23.239,-13.019c-6.923,-6.923 -11.373,-14.998 -13.021,-23.403c-0.824,-3.791 -1.648,-7.911 -2.966,-11.537c-0.659,-1.978 0.494,-4.12 2.307,-4.779c1.813,-0.659 4.121,0.495 4.78,2.308c1.318,3.791 2.307,8.241 3.296,12.196c1.319,6.922 5.11,13.679 10.878,19.612c5.769,5.768 12.692,9.723 19.284,10.877c4.285,0.824 8.571,1.978 12.526,3.297c1.978,0.824 2.967,2.966 2.472,4.944Z" style="fill:#189caa;fill-rule:nonzero;"/><path id="path2-48-6" d="M117.989,68.972l8.405,0l-9.724,27.688c-0.494,1.154 0,2.143 0.824,2.637c0.495,0.165 0.824,0.495 1.153,0.495c0.659,0 1.154,-0.165 1.484,-0.659l41.699,-42.027c0.659,-0.659 0.824,-1.483 0.495,-2.307c-0.495,-0.824 -1.154,-1.319 -1.978,-1.319l-10.878,0l9.889,-16.481c0.495,-0.659 0.495,-1.484 0,-2.142c-0.494,-0.659 -1.153,-1.154 -1.978,-1.154l-27.36,0c-0.824,0 -1.648,0.659 -2.142,1.484l-12.032,31.314c-0.165,0.659 -0.165,1.484 0.165,2.143c0.495,0.165 1.319,0.329 1.978,0.329Z" style="fill:#189caa;fill-rule:nonzero;"/><path id="path3-04-1" d="M189.849,90.891c-0.165,-0.659 -0.824,-1.153 -1.648,-1.153l-9.065,0l8.241,-13.514c0.494,-0.659 0.494,-1.319 0,-1.648c-0.495,-0.495 -0.824,-0.824 -1.484,-0.824l-22.415,0c-0.659,0 -1.484,0.494 -1.648,1.153l-9.889,25.545c-0.165,0.659 -0.165,1.319 0.165,1.648c0.495,0.495 0.824,0.824 1.484,0.824l6.923,0l-7.911,22.579c-0.165,0.824 0,1.648 0.659,2.142c0.165,0.165 0.659,0.165 0.824,0.165c0.495,0 0.824,-0.165 1.319,-0.659l34.117,-34.281c0.659,-0.494 0.659,-1.153 0.33,-1.978Z" style="fill:#189caa;fill-rule:nonzero;"/></g></g></svg>