<?xml version="1.0" encoding="UTF-8" standalone="no"?><!DOCTYPE svg PUBLIC "-//W3C//DTD SVG 1.1//EN" "http://www.w3.org/Graphics/SVG/1.1/DTD/svg11.dtd"><svg width="100%" height="100%" viewBox="0 0 224 212" version="1.1" xmlns="http://www.w3.org/2000/svg" xmlns:xlink="http://www.w3.org/1999/xlink" xml:space="preserve" xmlns:serif="http://www.serif.com/" style="fill-rule:evenodd;clip-rule:evenodd;stroke-linejoin:round;stroke-miterlimit:2;"><rect id="Oil" x="0" y="0.384" width="223.502" height="211.507" style="fill:none;"/><g id="Oil1" serif:id="Oil"><path id="Hex" d="M42.353,158.411l-14.141,-6.682c-3.776,-1.784 -6.234,-5.168 -6.234,-8.965l0,-73.242c0,-3.797 2.458,-7.184 6.234,-8.968l77.499,-36.621c1.878,-0.888 3.961,-1.327 6.038,-1.327c2.074,0 4.166,0.439 6.044,1.327l12.251,5.789c-1.066,1.033 -3.561,3.482 -6.884,6.94l-10.335,-4.884c-0.328,-0.155 -0.697,-0.237 -1.075,-0.237c-0.375,0 -0.741,0.082 -1.069,0.237l-77.496,36.621c-0.627,0.296 -0.882,0.765 -0.882,1.122l0,73.242c0,0.357 0.255,0.826 0.882,1.122l3.014,1.424c1.47,4.67 3.554,9.068 6.156,13.101Zm107.81,-119.182l45.126,21.324c3.776,1.784 6.237,5.171 6.237,8.968l0,73.242c0,3.797 -2.464,7.181 -6.237,8.965l-77.496,36.621c-3.721,1.761 -8.361,1.761 -12.082,0l-11.344,-5.361c4.898,-0.567 9.599,-1.787 14.012,-3.57l2.301,1.087c0.665,0.313 1.477,0.313 2.145,0l77.496,-36.621c0.627,-0.296 0.882,-0.765 0.882,-1.122l0,-73.242c0,-0.357 -0.255,-0.826 -0.882,-1.122l-24.907,-11.77c-5.384,-6.658 -10.817,-12.694 -15.25,-17.4Z" style="fill:#189caa;stroke:#189caa;stroke-width:0.5px;"/><g><path id="path3-28-4" d="M88.067,57.931c0,0 -47.368,44.905 -47.368,71.052c0,26.147 21.221,47.368 47.368,47.368c22.926,0 42.063,-16.342 46.42,-37.989c0.616,-3.031 0.948,-6.158 0.948,-9.379c0,-26.148 -47.368,-71.052 -47.368,-71.052Zm0,104.21c-2.605,0 -4.737,-2.132 -4.737,-4.737c0,-2.605 2.132,-4.736 4.737,-4.736c13.074,0 23.684,-10.61 23.684,-23.684c0,-2.605 2.132,-4.737 4.737,-4.737c2.604,0 4.736,2.132 4.736,4.737c0,18.284 -14.873,33.157 -33.157,33.157Z" style="fill:#189caa;fill-rule:nonzero;"/><path id="path4-94-0" d="M182.803,105.299c0,24.679 -18.852,44.952 -42.963,47.178c2.179,-4.784 3.695,-9.9 4.453,-15.252c14.022,-3.838 24.3,-16.721 24.3,-31.926c0,-2.605 -2.132,-4.737 -4.737,-4.737c-2.605,0 -4.736,2.132 -4.736,4.737c0,9.711 -5.874,18.094 -14.258,21.742c-1.327,-20.226 -22.357,-46.421 -36.9,-62.289c12.978,-16.721 27.473,-30.505 27.473,-30.505c0,0 47.368,44.905 47.368,71.052Z" style="fill:#189caa;fill-rule:nonzero;"/></g></g></svg>