<?xml version="1.0" encoding="UTF-8" standalone="no"?><!DOCTYPE svg PUBLIC "-//W3C//DTD SVG 1.1//EN" "http://www.w3.org/Graphics/SVG/1.1/DTD/svg11.dtd"><svg width="100%" height="100%" viewBox="0 0 224 212" version="1.1" xmlns="http://www.w3.org/2000/svg" xmlns:xlink="http://www.w3.org/1999/xlink" xml:space="preserve" xmlns:serif="http://www.serif.com/" style="fill-rule:evenodd;clip-rule:evenodd;stroke-linejoin:round;stroke-miterlimit:2;"><rect id="Outside" x="0" y="0.384" width="223.502" height="211.507" style="fill:none;"/><g id="Outside1" serif:id="Outside"><path id="Hex" d="M54.904,164.342l-26.693,-12.613c-3.776,-1.784 -6.234,-5.168 -6.234,-8.965l0,-73.242c0,-3.797 2.458,-7.184 6.234,-8.968l7.193,-3.399c0.035,0.854 0.107,1.702 0.216,2.543c-4.703,4.687 -7.436,11.084 -7.436,17.939c0,5.105 1.514,9.863 4.117,13.847l0,51.28c0,0.357 0.255,0.826 0.882,1.122l21.721,10.264l0,10.192Zm28.791,-130.006l22.015,-10.403c1.878,-0.888 3.961,-1.327 6.038,-1.327c2.074,0 4.166,0.439 6.044,1.327l77.496,36.621c3.776,1.784 6.237,5.171 6.237,8.968l0,73.242c0,3.797 -2.464,7.181 -6.237,8.965l-1.419,0.671l0.703,-1.297l0.554,-1.786l0.192,-1.9l0,-10.508l-0.192,-1.9l-0.554,-1.787l-0.874,-1.612l-1.152,-1.397l-1.345,-1.11l0,-59.581c0,-0.357 -0.255,-0.826 -0.882,-1.122l-77.496,-36.621c-0.328,-0.155 -0.697,-0.237 -1.075,-0.237c-0.375,0 -0.741,0.082 -1.069,0.237l-21.041,9.943c-1.569,-2.777 -3.583,-5.272 -5.944,-7.385Zm100.68,122.55l-0.068,0.032l0,-0.032l0.068,-0Zm-33.514,15.837l-33.068,15.626c-3.721,1.761 -8.361,1.761 -12.082,0l-6.388,-3.019l6.281,0l1.901,-0.192l1.786,-0.554l3.007,-2.024l1.153,-1.396l0.697,-1.282l36.714,-17.349l-0,10.191Zm-69.118,4.301l-7.898,-3.732l0,-10.191l7.781,3.677l-0,9.084l0.117,1.163Z" style="fill:#189caa;stroke:#189caa;stroke-width:0.5px;"/><g><path id="path3-21" d="M185.848,134.438l-13.696,0l0,-7.644l6.113,0c1.365,0 2.47,-1.105 2.47,-2.469l0,-24.51c0,-1.364 -1.105,-2.47 -2.47,-2.47l-90.6,0c-1.363,0 -2.47,1.106 -2.47,2.47l0,24.51c0,1.364 1.107,2.469 2.47,2.469l6.112,0l0,7.644l-13.695,0c-1.363,0 -2.47,1.106 -2.47,2.47l0,10.508c0,1.364 1.107,2.47 2.47,2.47l8.543,0l0,25.976c0,1.364 1.104,2.469 2.47,2.469l14.508,0c1.363,0 2.47,-1.105 2.47,-2.469l0,-25.976l49.787,0l0,25.976c0,1.364 1.104,2.469 2.469,2.469l14.506,0c1.365,0 2.47,-1.105 2.47,-2.469l0,-25.976l8.543,0c1.365,0 2.469,-1.106 2.469,-2.47l0,-10.508c0,-1.364 -1.104,-2.47 -2.47,-2.47Zm-21.416,-24.839l0.007,0c1.365,0 2.469,1.106 2.469,2.47c0,1.364 -1.104,2.47 -2.469,2.47c-1.363,0 -2.473,-1.106 -2.473,-2.47c0,-1.364 1.102,-2.47 2.465,-2.47l-0,0Zm-64.686,0.736c0.938,-0.938 2.593,-0.915 3.509,-0.024c0.444,0.47 0.714,1.111 0.714,1.754c0,0.666 -0.27,1.284 -0.714,1.753c-0.473,0.445 -1.114,0.717 -1.755,0.717c-0.642,0 -1.283,-0.248 -1.754,-0.717c-0.444,-0.469 -0.716,-1.112 -0.716,-1.753c0,-0.643 0.273,-1.284 0.716,-1.73Zm9.468,16.459l47.502,0l0,7.644l-47.502,0l0,-7.644Z" style="fill:#189caa;fill-rule:nonzero;"/><path id="path4-18" d="M85.407,62.38c0.64,-2.08 0.962,-4.239 0.962,-6.442c0,-12.128 -9.868,-21.997 -21.995,-21.997c-12.127,0 -21.995,9.869 -21.995,21.997c0,2.21 0.321,4.369 0.958,6.44c-5.077,3.404 -8.153,9.072 -8.153,15.257c0,10.136 8.242,18.382 18.372,18.382l8.348,0l0,29.466l-8.234,-7.534c-1.011,-0.925 -2.572,-0.852 -3.491,0.156c-0.921,1.006 -0.851,2.569 0.157,3.489l11.568,10.583l0,43.683c0,1.364 1.105,2.47 2.47,2.47c1.366,0 2.47,-1.106 2.47,-2.47l0,-79.843l8.341,0c10.136,0 18.379,-8.246 18.379,-18.382c0,-6.183 -3.078,-11.852 -8.158,-15.256Zm-7,13.362l-11.563,10.584l0,4.752l-4.94,0l0,-4.752l-11.568,-10.584c-1.008,-0.92 -1.079,-2.483 -0.157,-3.489c0.919,-1.007 2.48,-1.079 3.491,-0.156l8.234,7.535l0,-18.018c0,-1.364 1.105,-2.469 2.47,-2.469c1.366,0 2.47,1.105 2.47,2.469l0,18.013l8.225,-7.53c1.008,-0.921 2.572,-0.851 3.493,0.155c0.919,1.007 0.849,2.569 -0.155,3.49Z" style="fill:#189caa;fill-rule:nonzero;"/></g></g></svg>