<?xml version="1.0" encoding="UTF-8" standalone="no"?><!DOCTYPE svg PUBLIC "-//W3C//DTD SVG 1.1//EN" "http://www.w3.org/Graphics/SVG/1.1/DTD/svg11.dtd"><svg width="100%" height="100%" viewBox="0 0 224 212" version="1.1" xmlns="http://www.w3.org/2000/svg" xmlns:xlink="http://www.w3.org/1999/xlink" xml:space="preserve" xmlns:serif="http://www.serif.com/" style="fill-rule:evenodd;clip-rule:evenodd;stroke-linejoin:round;stroke-miterlimit:2;"><rect id="Oven" x="0" y="-0" width="223.502" height="211.507" style="fill:none;"/><path id="Hex" d="M42.211,157.71l-13.755,-6.5c-3.765,-1.779 -6.216,-5.153 -6.216,-8.939l0,-73.028c0,-3.786 2.451,-7.163 6.216,-8.942l15.051,-7.112c-0.66,1.426 -1.076,3.1 -1.203,5.049c-0.127,1.929 -0.202,3.861 -0.242,5.799l-8.649,4.087c-0.625,0.295 -0.879,0.762 -0.879,1.119l0,73.028c0,0.356 0.254,0.824 0.879,1.119l8.685,4.104c0.015,2.979 0.033,5.957 0.057,8.934c0.003,0.441 0.022,0.868 0.057,1.281Zm34.265,-120.099l29.251,-13.822c1.872,-0.885 3.949,-1.323 6.02,-1.323c2.068,0 4.154,0.438 6.026,1.323l29.25,13.822l-21.508,0l-12.696,-6c-0.327,-0.155 -0.695,-0.237 -1.072,-0.237c-0.374,0 -0.739,0.082 -1.066,0.237l-12.833,6.064l-0.906,-0.061l0.233,-0.004l-20.7,0Zm103.221,15.439l15.346,7.252c3.765,1.779 6.219,5.156 6.219,8.942l0,73.028c0,3.786 -2.457,7.16 -6.219,8.939l-13.87,6.555c0.168,-1.157 0.261,-2.427 0.269,-3.823c0.016,-2.16 0.026,-4.32 0.033,-6.48l8.614,-4.071c0.625,-0.295 0.879,-0.762 0.879,-1.119l0,-73.028c0,-0.356 -0.254,-0.824 -0.879,-1.119l-8.661,-4.093c-0.047,-3.13 -0.179,-5.504 -0.533,-7.307c-0.277,-1.414 -0.682,-2.624 -1.199,-3.675Zm-24.136,116.818l-37.786,17.856c-3.71,1.756 -8.337,1.756 -12.047,0l-37.738,-17.833c7.166,-0.002 14.332,-0.003 21.499,-0.002l21.193,10.015c0.663,0.313 1.472,0.313 2.138,0l21.198,-10.017c7.181,-0.003 14.362,-0.009 21.543,-0.019Z" style="fill:#189caa;stroke:#189caa;stroke-width:0.5px;"/><g id="Oven1" serif:id="Oven"><path d="M174.467,120.009l0,-31.7l-125.39,0c-0,22.971 -0.101,45.519 0.077,68.065c0.038,5.161 4.104,6.527 9.008,6.523c35.736,-0.024 71.473,0.025 107.208,-0.045c7.032,-0.014 9.03,-2.096 9.072,-8.953c0.081,-11.294 0.023,-22.588 0.025,-33.889Zm-23.615,19.683c-13.191,-0.191 -26.388,-0.067 -39.581,-0.067c-12.544,0 -25.097,-0.213 -37.631,0.101c-5.478,0.137 -7.156,-1.721 -7.012,-6.624c0.29,-9.86 0.198,-19.747 0.027,-29.605c-0.07,-4.113 1.522,-5.646 6.062,-5.61c26.167,0.149 52.337,0.149 78.51,0c4.332,-0.023 5.658,1.57 5.613,5.368c-0.146,10.271 -0.18,20.546 0.023,30.814c0.08,4.118 -1.478,5.689 -6.01,5.624Zm-12.203,-31.997c-0.005,0.126 -0.017,0.252 -0.033,0.376c-0.017,0.125 -0.041,0.249 -0.07,0.371c-0.029,0.122 -0.064,0.243 -0.105,0.362c-0.041,0.119 -0.088,0.236 -0.141,0.35c-0.052,0.114 -0.111,0.227 -0.174,0.335c-0.064,0.109 -0.133,0.214 -0.206,0.317c-0.074,0.102 -0.152,0.2 -0.236,0.295c-0.083,0.094 -0.171,0.184 -0.264,0.271c-0.092,0.086 -0.189,0.167 -0.289,0.243c-0.1,0.077 -0.204,0.148 -0.311,0.214c-0.107,0.067 -0.218,0.127 -0.33,0.183c-0.113,0.055 -0.229,0.105 -0.346,0.149c-0.118,0.045 -0.238,0.083 -0.36,0.115c-0.122,0.033 -0.245,0.059 -0.369,0.08c-0.124,0.021 -0.249,0.036 -0.375,0.044c-0.126,0.008 -0.252,0.01 -0.377,0.006l-44.813,0c-0.127,0.01 -0.255,0.012 -0.382,0.008c-0.128,-0.004 -0.255,-0.014 -0.382,-0.03c-0.127,-0.017 -0.252,-0.04 -0.376,-0.07c-0.124,-0.03 -0.246,-0.066 -0.367,-0.108c-0.121,-0.042 -0.239,-0.09 -0.355,-0.145c-0.115,-0.055 -0.227,-0.114 -0.337,-0.18c-0.109,-0.066 -0.214,-0.137 -0.317,-0.214c-0.102,-0.077 -0.2,-0.158 -0.293,-0.246c-0.094,-0.086 -0.183,-0.178 -0.267,-0.274c-0.084,-0.095 -0.163,-0.196 -0.237,-0.3c-0.074,-0.104 -0.142,-0.211 -0.205,-0.323c-0.063,-0.111 -0.12,-0.225 -0.171,-0.342c-0.052,-0.117 -0.096,-0.236 -0.135,-0.359c-0.039,-0.121 -0.071,-0.245 -0.097,-0.37c-0.027,-0.125 -0.046,-0.251 -0.059,-0.377c-0.013,-0.127 -0.02,-0.255 -0.02,-0.382c0,-0.128 0.007,-0.255 0.02,-0.382c0.013,-0.127 0.033,-0.253 0.059,-0.378c0.026,-0.125 0.058,-0.248 0.097,-0.37c0.039,-0.121 0.083,-0.241 0.135,-0.358c0.051,-0.117 0.108,-0.231 0.171,-0.343c0.063,-0.111 0.131,-0.219 0.205,-0.323c0.074,-0.104 0.153,-0.204 0.237,-0.3c0.084,-0.096 0.173,-0.187 0.267,-0.274c0.093,-0.087 0.191,-0.169 0.293,-0.246c0.102,-0.077 0.208,-0.149 0.317,-0.214c0.11,-0.066 0.222,-0.126 0.337,-0.18c0.116,-0.055 0.234,-0.102 0.355,-0.145c0.121,-0.042 0.243,-0.078 0.367,-0.108c0.124,-0.03 0.249,-0.052 0.376,-0.069c0.127,-0.017 0.254,-0.027 0.382,-0.031c0.127,-0.004 0.255,-0.001 0.382,0.008l44.813,0c0.126,-0.004 0.252,-0.002 0.377,0.007c0.126,0.008 0.251,0.023 0.375,0.044c0.124,0.02 0.248,0.047 0.369,0.08c0.122,0.033 0.242,0.071 0.36,0.115c0.117,0.045 0.233,0.095 0.346,0.15c0.113,0.055 0.224,0.117 0.33,0.183c0.108,0.066 0.211,0.137 0.311,0.214c0.101,0.077 0.197,0.158 0.289,0.244c0.092,0.086 0.18,0.176 0.264,0.271c0.083,0.094 0.162,0.193 0.236,0.295c0.074,0.102 0.142,0.208 0.206,0.317c0.064,0.108 0.121,0.221 0.174,0.335c0.053,0.114 0.1,0.231 0.141,0.35c0.041,0.119 0.077,0.24 0.105,0.362c0.03,0.123 0.053,0.246 0.07,0.371c0.017,0.125 0.028,0.25 0.033,0.376Zm-22.246,-60.745c0.006,-0.159 0.028,-0.316 0.065,-0.471c0.037,-0.155 0.089,-0.304 0.155,-0.449c0.067,-0.145 0.146,-0.281 0.24,-0.41c0.093,-0.13 0.198,-0.248 0.315,-0.356c0.116,-0.108 0.242,-0.205 0.377,-0.289c0.135,-0.083 0.277,-0.153 0.426,-0.209c0.149,-0.056 0.302,-0.097 0.459,-0.123c0.157,-0.027 0.315,-0.037 0.474,-0.032l39.471,0c0.159,-0.005 0.317,0.005 0.474,0.032c0.157,0.026 0.31,0.067 0.459,0.123c0.149,0.056 0.291,0.126 0.427,0.209c0.135,0.084 0.261,0.18 0.377,0.289c0.116,0.108 0.221,0.227 0.314,0.356c0.093,0.129 0.173,0.265 0.24,0.41c0.066,0.145 0.118,0.294 0.155,0.449c0.037,0.155 0.059,0.312 0.065,0.471c-0.006,0.159 -0.028,0.315 -0.065,0.47c-0.037,0.155 -0.089,0.304 -0.155,0.449c-0.066,0.145 -0.146,0.281 -0.24,0.41c-0.093,0.129 -0.198,0.247 -0.314,0.355c-0.117,0.108 -0.243,0.205 -0.377,0.288c-0.136,0.084 -0.277,0.154 -0.427,0.21c-0.149,0.055 -0.302,0.096 -0.459,0.122c-0.157,0.027 -0.315,0.037 -0.474,0.032l-39.471,0c-0.159,0.005 -0.317,-0.005 -0.474,-0.032c-0.157,-0.026 -0.31,-0.067 -0.459,-0.122c-0.149,-0.056 -0.291,-0.126 -0.427,-0.21c-0.135,-0.083 -0.261,-0.18 -0.377,-0.288c-0.117,-0.108 -0.221,-0.227 -0.315,-0.355c-0.093,-0.129 -0.173,-0.265 -0.24,-0.41c-0.067,-0.145 -0.118,-0.294 -0.155,-0.449c-0.037,-0.155 -0.058,-0.311 -0.065,-0.47Zm-55.68,0c0.006,-0.159 0.027,-0.316 0.064,-0.471c0.037,-0.155 0.089,-0.305 0.155,-0.449c0.067,-0.145 0.147,-0.282 0.24,-0.411c0.093,-0.13 0.199,-0.248 0.315,-0.356c0.117,-0.109 0.243,-0.205 0.379,-0.289c0.136,-0.083 0.278,-0.153 0.427,-0.209c0.149,-0.055 0.302,-0.096 0.46,-0.122c0.157,-0.026 0.315,-0.036 0.474,-0.03l33.936,0c0.159,-0.005 0.318,0.005 0.474,0.032c0.157,0.026 0.31,0.067 0.459,0.123c0.149,0.056 0.291,0.126 0.427,0.209c0.135,0.084 0.261,0.18 0.377,0.289c0.116,0.108 0.221,0.227 0.315,0.356c0.092,0.129 0.173,0.265 0.239,0.41c0.067,0.145 0.118,0.294 0.155,0.449c0.036,0.155 0.058,0.312 0.064,0.471c-0.006,0.159 -0.028,0.315 -0.065,0.47c-0.037,0.155 -0.089,0.304 -0.155,0.449c-0.066,0.145 -0.146,0.281 -0.239,0.41c-0.093,0.129 -0.199,0.247 -0.315,0.355c-0.117,0.108 -0.243,0.205 -0.377,0.288c-0.136,0.084 -0.277,0.154 -0.426,0.21c-0.149,0.055 -0.302,0.096 -0.459,0.122c-0.157,0.027 -0.315,0.037 -0.474,0.032l-33.936,0c-0.158,0.005 -0.317,-0.005 -0.474,-0.032c-0.157,-0.026 -0.31,-0.067 -0.459,-0.122c-0.149,-0.056 -0.291,-0.126 -0.426,-0.21c-0.136,-0.083 -0.261,-0.18 -0.377,-0.288c-0.117,-0.108 -0.221,-0.227 -0.315,-0.355c-0.093,-0.129 -0.173,-0.265 -0.24,-0.41c-0.066,-0.145 -0.118,-0.294 -0.155,-0.449c-0.036,-0.155 -0.058,-0.311 -0.065,-0.47l-0.006,0Zm113.742,35.269c0,-5.08 0,-9.86 -0.014,-14.637c-0.014,-14.467 -0.014,-14.479 -15.411,-14.479c-33.557,0 -67.11,-0.008 -100.659,-0.024c-4.576,-0.014 -8.779,0.803 -9.093,5.619c-0.512,7.751 -0.144,15.565 -0.144,23.522l125.32,0Zm-22.371,-18.836c0.151,-0.005 0.302,-0.003 0.452,0.007c0.151,0.01 0.301,0.027 0.449,0.051c0.149,0.024 0.296,0.056 0.443,0.095c0.146,0.039 0.29,0.084 0.431,0.137c0.142,0.053 0.28,0.112 0.415,0.179c0.136,0.067 0.268,0.139 0.396,0.219c0.128,0.079 0.252,0.164 0.372,0.256c0.12,0.091 0.235,0.189 0.346,0.291c0.111,0.103 0.216,0.211 0.315,0.324c0.1,0.113 0.194,0.23 0.283,0.353c0.088,0.122 0.17,0.249 0.246,0.379c0.076,0.13 0.145,0.264 0.208,0.401c0.063,0.137 0.119,0.277 0.168,0.42c0.049,0.142 0.091,0.287 0.126,0.434c0.035,0.147 0.063,0.295 0.083,0.444c0.02,0.149 0.033,0.3 0.039,0.45c-0.011,0.149 -0.028,0.298 -0.052,0.446c-0.024,0.148 -0.055,0.294 -0.093,0.439c-0.038,0.145 -0.083,0.288 -0.134,0.428c-0.051,0.141 -0.109,0.279 -0.174,0.414c-0.064,0.135 -0.135,0.267 -0.211,0.396c-0.077,0.129 -0.159,0.253 -0.248,0.374c-0.089,0.121 -0.182,0.237 -0.282,0.349c-0.099,0.112 -0.204,0.219 -0.313,0.321c-0.11,0.102 -0.224,0.199 -0.342,0.29c-0.119,0.092 -0.242,0.177 -0.368,0.257c-0.127,0.08 -0.256,0.154 -0.39,0.222c-0.133,0.067 -0.27,0.129 -0.409,0.183c-0.139,0.055 -0.281,0.103 -0.424,0.145c-0.144,0.042 -0.29,0.077 -0.437,0.105c-0.147,0.028 -0.296,0.049 -0.445,0.063c-0.149,0.014 -0.299,0.021 -0.448,0.021c-0.15,0 -0.299,-0.007 -0.449,-0.021c-0.149,-0.014 -0.297,-0.035 -0.444,-0.063c-0.147,-0.028 -0.293,-0.063 -0.437,-0.105c-0.144,-0.042 -0.286,-0.089 -0.425,-0.145c-0.139,-0.055 -0.276,-0.116 -0.409,-0.183c-0.133,-0.068 -0.264,-0.142 -0.39,-0.222c-0.127,-0.08 -0.249,-0.165 -0.368,-0.257c-0.118,-0.092 -0.233,-0.188 -0.342,-0.29c-0.11,-0.102 -0.214,-0.209 -0.314,-0.321c-0.099,-0.112 -0.193,-0.228 -0.282,-0.349c-0.088,-0.121 -0.171,-0.245 -0.248,-0.374c-0.077,-0.129 -0.147,-0.261 -0.211,-0.396c-0.064,-0.135 -0.122,-0.273 -0.174,-0.414c-0.052,-0.14 -0.096,-0.283 -0.134,-0.428c-0.038,-0.145 -0.069,-0.291 -0.093,-0.439c-0.024,-0.148 -0.042,-0.296 -0.052,-0.446c0.005,-0.15 0.018,-0.301 0.039,-0.45c0.02,-0.149 0.048,-0.297 0.083,-0.444c0.035,-0.147 0.077,-0.292 0.126,-0.434c0.049,-0.142 0.105,-0.283 0.168,-0.42c0.063,-0.137 0.133,-0.271 0.208,-0.401c0.076,-0.13 0.158,-0.257 0.246,-0.379c0.088,-0.123 0.182,-0.24 0.282,-0.353c0.1,-0.114 0.205,-0.221 0.315,-0.324c0.111,-0.102 0.226,-0.2 0.346,-0.291c0.121,-0.092 0.245,-0.177 0.373,-0.257c0.128,-0.079 0.26,-0.152 0.396,-0.218c0.136,-0.067 0.274,-0.126 0.415,-0.179c0.142,-0.053 0.285,-0.099 0.431,-0.137c0.146,-0.039 0.293,-0.07 0.442,-0.095c0.149,-0.024 0.299,-0.041 0.449,-0.051c0.151,-0.01 0.302,-0.012 0.452,-0.007Zm-14.913,0c0.151,-0.005 0.302,-0.003 0.452,0.007c0.151,0.01 0.3,0.027 0.449,0.051c0.149,0.024 0.296,0.056 0.442,0.095c0.146,0.039 0.29,0.084 0.431,0.137c0.141,0.053 0.28,0.112 0.415,0.179c0.136,0.067 0.268,0.139 0.396,0.218c0.128,0.08 0.252,0.165 0.372,0.257c0.121,0.091 0.236,0.189 0.346,0.291c0.11,0.103 0.215,0.211 0.315,0.324c0.1,0.113 0.194,0.23 0.282,0.353c0.089,0.122 0.171,0.249 0.246,0.379c0.076,0.13 0.146,0.264 0.208,0.401c0.062,0.137 0.118,0.277 0.168,0.42c0.049,0.142 0.091,0.287 0.126,0.434c0.035,0.147 0.062,0.295 0.083,0.444c0.02,0.149 0.033,0.3 0.039,0.45c-0.01,0.149 -0.027,0.298 -0.052,0.446c-0.024,0.148 -0.055,0.294 -0.093,0.439c-0.038,0.145 -0.083,0.288 -0.134,0.428c-0.052,0.141 -0.109,0.279 -0.174,0.414c-0.064,0.135 -0.135,0.267 -0.211,0.396c-0.077,0.129 -0.16,0.253 -0.248,0.374c-0.089,0.121 -0.183,0.237 -0.282,0.349c-0.099,0.112 -0.204,0.219 -0.314,0.321c-0.109,0.102 -0.223,0.199 -0.342,0.29c-0.118,0.092 -0.241,0.177 -0.368,0.257c-0.127,0.08 -0.257,0.154 -0.39,0.222c-0.133,0.067 -0.27,0.129 -0.409,0.183c-0.139,0.055 -0.281,0.103 -0.425,0.145c-0.144,0.042 -0.29,0.077 -0.437,0.105c-0.147,0.028 -0.295,0.049 -0.444,0.063c-0.149,0.014 -0.299,0.021 -0.449,0.021c-0.149,0 -0.299,-0.007 -0.448,-0.021c-0.149,-0.014 -0.297,-0.035 -0.445,-0.063c-0.147,-0.028 -0.293,-0.063 -0.437,-0.105c-0.143,-0.042 -0.285,-0.089 -0.424,-0.145c-0.139,-0.055 -0.276,-0.116 -0.409,-0.183c-0.133,-0.068 -0.264,-0.142 -0.39,-0.222c-0.127,-0.08 -0.249,-0.165 -0.368,-0.257c-0.118,-0.092 -0.232,-0.188 -0.342,-0.29c-0.109,-0.102 -0.214,-0.209 -0.313,-0.321c-0.099,-0.112 -0.193,-0.228 -0.282,-0.349c-0.089,-0.121 -0.171,-0.245 -0.248,-0.374c-0.077,-0.129 -0.147,-0.261 -0.211,-0.396c-0.064,-0.135 -0.123,-0.273 -0.174,-0.414c-0.052,-0.14 -0.096,-0.283 -0.134,-0.428c-0.038,-0.145 -0.069,-0.291 -0.093,-0.439c-0.024,-0.148 -0.042,-0.296 -0.052,-0.446c0.006,-0.15 0.019,-0.301 0.039,-0.45c0.02,-0.149 0.048,-0.297 0.083,-0.444c0.035,-0.147 0.077,-0.292 0.126,-0.434c0.049,-0.142 0.105,-0.283 0.168,-0.42c0.063,-0.137 0.132,-0.271 0.208,-0.401c0.077,-0.13 0.158,-0.257 0.246,-0.379c0.089,-0.123 0.183,-0.24 0.283,-0.353c0.099,-0.114 0.205,-0.221 0.315,-0.324c0.111,-0.102 0.226,-0.2 0.346,-0.291c0.12,-0.092 0.244,-0.177 0.373,-0.257c0.128,-0.079 0.26,-0.152 0.396,-0.218c0.136,-0.067 0.274,-0.126 0.415,-0.179c0.141,-0.053 0.285,-0.099 0.431,-0.137c0.146,-0.039 0.293,-0.07 0.443,-0.095c0.149,-0.024 0.299,-0.041 0.449,-0.051c0.15,-0.01 0.301,-0.012 0.452,-0.007Zm-16.107,0c0.151,-0.005 0.302,-0.003 0.452,0.007c0.15,0.01 0.3,0.027 0.449,0.051c0.149,0.024 0.296,0.056 0.442,0.095c0.146,0.039 0.29,0.084 0.431,0.137c0.141,0.053 0.28,0.112 0.415,0.179c0.136,0.067 0.268,0.139 0.396,0.218c0.129,0.08 0.253,0.165 0.373,0.256c0.12,0.092 0.235,0.189 0.346,0.292c0.111,0.103 0.216,0.211 0.316,0.324c0.099,0.114 0.194,0.231 0.282,0.353c0.089,0.123 0.171,0.249 0.246,0.379c0.077,0.13 0.146,0.265 0.208,0.402c0.063,0.137 0.119,0.277 0.168,0.42c0.049,0.142 0.091,0.287 0.126,0.434c0.035,0.146 0.062,0.295 0.083,0.444c0.02,0.149 0.033,0.299 0.039,0.45c-0.011,0.149 -0.029,0.298 -0.053,0.445c-0.025,0.148 -0.056,0.293 -0.095,0.438c-0.039,0.144 -0.083,0.286 -0.135,0.427c-0.052,0.14 -0.11,0.278 -0.174,0.412c-0.064,0.135 -0.136,0.267 -0.212,0.395c-0.077,0.128 -0.16,0.252 -0.249,0.373c-0.089,0.12 -0.183,0.236 -0.282,0.348c-0.099,0.111 -0.204,0.218 -0.313,0.32c-0.11,0.102 -0.224,0.199 -0.342,0.29c-0.119,0.091 -0.241,0.177 -0.368,0.256c-0.127,0.08 -0.257,0.153 -0.39,0.221c-0.133,0.067 -0.27,0.129 -0.409,0.183c-0.139,0.055 -0.28,0.102 -0.424,0.144c-0.143,0.042 -0.289,0.076 -0.436,0.104c-0.147,0.028 -0.295,0.049 -0.443,0.063c-0.149,0.014 -0.298,0.021 -0.448,0.021c-0.149,0 -0.299,-0.008 -0.447,-0.021c-0.149,-0.014 -0.297,-0.035 -0.444,-0.063c-0.146,-0.028 -0.292,-0.062 -0.436,-0.104c-0.143,-0.042 -0.285,-0.089 -0.424,-0.144c-0.139,-0.055 -0.276,-0.116 -0.409,-0.183c-0.133,-0.067 -0.263,-0.141 -0.39,-0.221c-0.127,-0.08 -0.249,-0.165 -0.368,-0.256c-0.118,-0.091 -0.233,-0.188 -0.342,-0.29c-0.11,-0.102 -0.214,-0.208 -0.314,-0.32c-0.099,-0.111 -0.193,-0.228 -0.282,-0.348c-0.089,-0.121 -0.171,-0.245 -0.248,-0.373c-0.077,-0.128 -0.148,-0.26 -0.212,-0.395c-0.064,-0.134 -0.123,-0.272 -0.174,-0.412c-0.052,-0.14 -0.097,-0.283 -0.135,-0.427c-0.039,-0.145 -0.07,-0.29 -0.095,-0.438c-0.025,-0.147 -0.042,-0.296 -0.053,-0.445c0.005,-0.15 0.018,-0.301 0.039,-0.45c0.02,-0.149 0.048,-0.297 0.083,-0.444c0.035,-0.147 0.077,-0.292 0.126,-0.434c0.049,-0.142 0.105,-0.283 0.168,-0.42c0.062,-0.137 0.132,-0.271 0.208,-0.401c0.076,-0.13 0.158,-0.257 0.246,-0.379c0.088,-0.123 0.183,-0.24 0.282,-0.353c0.1,-0.114 0.205,-0.221 0.316,-0.324c0.11,-0.102 0.225,-0.2 0.346,-0.291c0.12,-0.092 0.244,-0.177 0.372,-0.257c0.128,-0.079 0.261,-0.152 0.396,-0.218c0.136,-0.067 0.274,-0.126 0.415,-0.179c0.142,-0.053 0.285,-0.099 0.431,-0.137c0.146,-0.039 0.293,-0.07 0.442,-0.095c0.149,-0.024 0.299,-0.041 0.449,-0.051c0.151,-0.01 0.302,-0.012 0.452,-0.007Zm-16.105,0c0.151,-0.005 0.302,-0.003 0.452,0.007c0.151,0.01 0.3,0.027 0.449,0.051c0.149,0.024 0.296,0.056 0.442,0.095c0.146,0.039 0.29,0.084 0.431,0.137c0.141,0.053 0.28,0.112 0.415,0.179c0.136,0.067 0.268,0.139 0.396,0.219c0.128,0.079 0.252,0.164 0.373,0.256c0.12,0.091 0.235,0.189 0.346,0.291c0.11,0.103 0.215,0.211 0.315,0.324c0.1,0.113 0.194,0.23 0.282,0.353c0.089,0.122 0.171,0.249 0.246,0.379c0.076,0.13 0.146,0.264 0.208,0.401c0.062,0.137 0.118,0.277 0.168,0.42c0.049,0.142 0.091,0.287 0.126,0.434c0.035,0.147 0.062,0.295 0.083,0.444c0.02,0.149 0.033,0.3 0.039,0.45c-0.01,0.149 -0.027,0.298 -0.052,0.446c-0.024,0.148 -0.055,0.294 -0.093,0.439c-0.038,0.145 -0.083,0.288 -0.134,0.428c-0.052,0.141 -0.109,0.279 -0.174,0.414c-0.064,0.135 -0.135,0.267 -0.211,0.396c-0.077,0.129 -0.16,0.253 -0.248,0.374c-0.089,0.121 -0.183,0.237 -0.282,0.349c-0.099,0.112 -0.204,0.219 -0.314,0.321c-0.109,0.102 -0.223,0.199 -0.342,0.29c-0.118,0.092 -0.241,0.177 -0.368,0.257c-0.127,0.08 -0.257,0.154 -0.39,0.222c-0.133,0.067 -0.27,0.129 -0.409,0.183c-0.139,0.055 -0.281,0.103 -0.425,0.145c-0.144,0.042 -0.29,0.077 -0.437,0.105c-0.147,0.028 -0.295,0.049 -0.444,0.063c-0.149,0.014 -0.299,0.021 -0.449,0.021c-0.149,0 -0.299,-0.007 -0.448,-0.021c-0.149,-0.014 -0.297,-0.035 -0.445,-0.063c-0.147,-0.028 -0.293,-0.063 -0.437,-0.105c-0.143,-0.042 -0.285,-0.089 -0.424,-0.145c-0.139,-0.055 -0.276,-0.116 -0.409,-0.183c-0.133,-0.068 -0.264,-0.142 -0.39,-0.222c-0.127,-0.08 -0.249,-0.165 -0.368,-0.257c-0.119,-0.092 -0.233,-0.188 -0.343,-0.29c-0.109,-0.102 -0.214,-0.209 -0.313,-0.321c-0.099,-0.112 -0.193,-0.228 -0.282,-0.349c-0.089,-0.121 -0.171,-0.245 -0.248,-0.374c-0.077,-0.129 -0.147,-0.261 -0.211,-0.396c-0.064,-0.135 -0.123,-0.273 -0.174,-0.414c-0.052,-0.14 -0.096,-0.283 -0.134,-0.428c-0.038,-0.145 -0.069,-0.291 -0.093,-0.439c-0.024,-0.148 -0.042,-0.296 -0.052,-0.446c0.006,-0.15 0.019,-0.301 0.039,-0.45c0.02,-0.149 0.048,-0.297 0.083,-0.444c0.035,-0.147 0.077,-0.292 0.126,-0.434c0.049,-0.142 0.105,-0.283 0.168,-0.42c0.063,-0.137 0.132,-0.271 0.208,-0.401c0.077,-0.13 0.158,-0.257 0.246,-0.379c0.089,-0.123 0.183,-0.24 0.283,-0.353c0.1,-0.114 0.205,-0.221 0.315,-0.324c0.111,-0.102 0.226,-0.2 0.346,-0.291c0.12,-0.092 0.244,-0.177 0.373,-0.257c0.128,-0.079 0.26,-0.152 0.396,-0.218c0.136,-0.067 0.274,-0.126 0.415,-0.179c0.141,-0.053 0.285,-0.099 0.431,-0.137c0.146,-0.039 0.293,-0.07 0.443,-0.095c0.149,-0.024 0.299,-0.041 0.449,-0.051c0.15,-0.01 0.301,-0.012 0.452,-0.007Zm-33.579,0c0.151,-0.005 0.302,-0.003 0.452,0.007c0.151,0.01 0.3,0.027 0.449,0.051c0.149,0.024 0.296,0.056 0.442,0.095c0.146,0.039 0.29,0.084 0.431,0.137c0.141,0.053 0.28,0.112 0.415,0.179c0.136,0.067 0.268,0.139 0.396,0.219c0.129,0.079 0.252,0.164 0.373,0.256c0.12,0.091 0.235,0.189 0.346,0.291c0.11,0.103 0.215,0.211 0.315,0.324c0.1,0.113 0.194,0.23 0.282,0.353c0.089,0.122 0.171,0.249 0.246,0.379c0.076,0.13 0.146,0.264 0.208,0.401c0.063,0.137 0.118,0.277 0.168,0.42c0.049,0.142 0.091,0.287 0.126,0.434c0.035,0.147 0.062,0.295 0.083,0.444c0.02,0.149 0.033,0.3 0.039,0.45c-0.005,0.151 -0.018,0.301 -0.039,0.451c-0.02,0.149 -0.048,0.297 -0.083,0.444c-0.035,0.147 -0.077,0.291 -0.126,0.434c-0.049,0.142 -0.105,0.283 -0.168,0.42c-0.063,0.137 -0.133,0.271 -0.208,0.401c-0.076,0.13 -0.158,0.257 -0.246,0.379c-0.088,0.123 -0.182,0.24 -0.282,0.353c-0.1,0.114 -0.205,0.221 -0.315,0.324c-0.111,0.102 -0.226,0.199 -0.346,0.291c-0.121,0.092 -0.244,0.177 -0.373,0.256c-0.128,0.08 -0.26,0.152 -0.396,0.219c-0.136,0.066 -0.274,0.126 -0.415,0.179c-0.142,0.052 -0.285,0.099 -0.431,0.137c-0.146,0.039 -0.293,0.07 -0.442,0.095c-0.149,0.024 -0.299,0.041 -0.449,0.051c-0.151,0.01 -0.302,0.011 -0.452,0.007c-0.151,0.005 -0.301,0.003 -0.452,-0.007c-0.151,-0.01 -0.301,-0.027 -0.449,-0.051c-0.149,-0.024 -0.296,-0.056 -0.443,-0.095c-0.146,-0.039 -0.29,-0.085 -0.431,-0.137c-0.142,-0.053 -0.28,-0.113 -0.415,-0.179c-0.136,-0.067 -0.268,-0.139 -0.396,-0.219c-0.129,-0.079 -0.253,-0.164 -0.373,-0.256c-0.12,-0.092 -0.235,-0.189 -0.346,-0.291c-0.111,-0.103 -0.215,-0.211 -0.315,-0.324c-0.1,-0.113 -0.194,-0.23 -0.282,-0.353c-0.089,-0.122 -0.171,-0.249 -0.246,-0.379c-0.077,-0.13 -0.146,-0.264 -0.208,-0.401c-0.063,-0.137 -0.118,-0.277 -0.168,-0.42c-0.049,-0.143 -0.091,-0.287 -0.126,-0.434c-0.035,-0.147 -0.062,-0.295 -0.083,-0.444c-0.02,-0.15 -0.033,-0.3 -0.039,-0.451c0.005,-0.15 0.018,-0.301 0.039,-0.45c0.02,-0.149 0.048,-0.297 0.083,-0.444c0.035,-0.147 0.077,-0.292 0.126,-0.434c0.049,-0.142 0.105,-0.283 0.168,-0.42c0.063,-0.137 0.132,-0.271 0.208,-0.401c0.076,-0.13 0.158,-0.257 0.246,-0.379c0.088,-0.123 0.182,-0.24 0.282,-0.353c0.1,-0.114 0.205,-0.221 0.315,-0.324c0.111,-0.102 0.226,-0.2 0.346,-0.291c0.12,-0.092 0.244,-0.177 0.373,-0.256c0.128,-0.08 0.26,-0.152 0.396,-0.219c0.136,-0.067 0.274,-0.126 0.415,-0.179c0.141,-0.053 0.285,-0.099 0.431,-0.137c0.146,-0.039 0.293,-0.07 0.443,-0.095c0.149,-0.024 0.299,-0.041 0.449,-0.051c0.151,-0.01 0.301,-0.012 0.452,-0.007Z" style="fill:#189caa;fill-rule:nonzero;"/></g></svg>