<?xml version="1.0" encoding="UTF-8" standalone="no"?><!DOCTYPE svg PUBLIC "-//W3C//DTD SVG 1.1//EN" "http://www.w3.org/Graphics/SVG/1.1/DTD/svg11.dtd"><svg width="100%" height="100%" viewBox="0 0 224 212" version="1.1" xmlns="http://www.w3.org/2000/svg" xmlns:xlink="http://www.w3.org/1999/xlink" xml:space="preserve" xmlns:serif="http://www.serif.com/" style="fill-rule:evenodd;clip-rule:evenodd;stroke-linejoin:round;stroke-miterlimit:2;"><rect id="Paper---Quill" serif:id="Paper &amp; Quill" x="0" y="0.384" width="223.502" height="211.507" style="fill:none;"/><path id="path4-40-0" d="M46.883,160.302l-18.427,-8.708c-3.765,-1.779 -6.216,-5.153 -6.216,-8.939l0,-73.028c0,-3.786 2.451,-7.163 6.216,-8.942l46.916,-22.17l-19.267,19.269l-22.692,10.723c-0.625,0.295 -0.879,0.762 -0.879,1.119l0,73.028c0,0.356 0.254,0.824 0.879,1.119l12.958,6.123l0,6.874c0,1.224 0.179,2.409 0.513,3.53Zm39.318,-126.902l19.526,-9.227c1.872,-0.885 3.949,-1.323 6.02,-1.323c2.068,0 4.154,0.438 6.026,1.323l19.526,9.227l-21.508,0l-2.972,-1.404c-0.327,-0.155 -0.695,-0.237 -1.072,-0.237c-0.374,0 -0.739,0.082 -1.066,0.237l-2.972,1.404l-21.509,0Zm70.901,9.358l37.941,17.929c3.765,1.779 6.219,5.156 6.219,8.942l0,73.028c0,3.786 -2.457,7.16 -6.219,8.939l-64.105,30.293l1.38,-2.124l0.726,-3.703l0,-1.01c0.106,-1.538 0.443,-3.15 0.928,-4.757l56.118,-26.519c0.625,-0.295 0.879,-0.762 0.879,-1.119l0,-73.028c0,-0.356 -0.254,-0.824 -0.879,-1.119l-32.593,-15.402l0,-7.248c0,-1.07 -0.137,-2.109 -0.394,-3.102Zm-34.313,142.981l-5.014,2.37c-3.71,1.756 -8.337,1.756 -12.047,0l-39.963,-18.884l21.504,0l23.414,11.064c0.663,0.313 1.472,0.313 2.138,0l1.459,-0.689l0.195,0.72l2.159,2.908l3.079,1.931l3.077,0.581Z" style="fill:#189caa;stroke:#189caa;stroke-width:0.5px;"/><g><path d="M145.024,41.4l-59.36,0c-0.699,0 -1.352,0.172 -1.946,0.482c-0.113,0.046 -0.171,0.086 -0.264,0.113c-0.349,0.218 -0.68,0.435 -0.963,0.718l-26.807,26.81c-0.264,0.284 -0.501,0.613 -0.699,0.936c-0.046,0.113 -0.086,0.172 -0.131,0.264c-0.303,0.614 -0.482,1.267 -0.482,1.966l0,84.083c0,2.448 2.005,4.453 4.472,4.453l56.636,0c0.284,-2.968 0.745,-5.937 1.352,-8.932l-53.503,0l0,-75.124l22.336,0c2.467,0 4.472,-2.012 4.472,-4.48l0,-22.337l50.409,0l0,52.491c2.796,-3.272 5.785,-6.267 8.951,-8.932l0,-48.051c0,-2.448 -2.006,-4.453 -4.472,-4.453l0,-0.007Z" style="fill:#189caa;fill-rule:nonzero;"/><path d="M72.536,87.294l58.8,0c0.127,0 0.252,0.013 0.377,0.037c0.124,0.025 0.245,0.062 0.362,0.11c0.118,0.049 0.229,0.109 0.335,0.179c0.105,0.07 0.203,0.15 0.293,0.24c0.09,0.09 0.17,0.187 0.24,0.293c0.07,0.105 0.13,0.217 0.178,0.334c0.049,0.118 0.086,0.239 0.11,0.363c0.025,0.125 0.038,0.25 0.038,0.377l0,4.004c0,0.127 -0.013,0.253 -0.038,0.377c-0.024,0.124 -0.061,0.245 -0.11,0.363c-0.049,0.117 -0.108,0.229 -0.178,0.334c-0.07,0.105 -0.15,0.203 -0.24,0.293c-0.09,0.09 -0.187,0.17 -0.293,0.24c-0.106,0.071 -0.217,0.131 -0.335,0.179c-0.117,0.049 -0.238,0.085 -0.362,0.11c-0.125,0.024 -0.25,0.037 -0.377,0.037l-58.8,0c-0.127,0 -0.252,-0.013 -0.377,-0.037c-0.124,-0.025 -0.245,-0.061 -0.362,-0.11c-0.118,-0.049 -0.229,-0.108 -0.334,-0.179c-0.106,-0.07 -0.203,-0.15 -0.293,-0.24c-0.089,-0.089 -0.169,-0.187 -0.24,-0.293c-0.07,-0.105 -0.13,-0.217 -0.178,-0.334c-0.049,-0.118 -0.086,-0.239 -0.11,-0.363c-0.025,-0.124 -0.038,-0.25 -0.038,-0.377l0,-4.004c0,-0.127 0.013,-0.252 0.038,-0.377c0.024,-0.124 0.061,-0.245 0.11,-0.363c0.049,-0.117 0.108,-0.229 0.178,-0.334c0.071,-0.105 0.151,-0.203 0.24,-0.293c0.09,-0.09 0.187,-0.17 0.293,-0.24c0.105,-0.07 0.216,-0.131 0.334,-0.179c0.117,-0.048 0.238,-0.085 0.362,-0.11c0.125,-0.024 0.25,-0.037 0.377,-0.037Z" style="fill:#189caa;fill-rule:nonzero;"/><path d="M72.536,103.535l58.8,0c0.127,0 0.252,0.013 0.377,0.037c0.124,0.025 0.245,0.062 0.362,0.111c0.118,0.049 0.229,0.108 0.335,0.178c0.105,0.07 0.203,0.15 0.293,0.24c0.09,0.09 0.17,0.187 0.24,0.293c0.07,0.106 0.13,0.217 0.178,0.335c0.049,0.117 0.086,0.238 0.11,0.362c0.025,0.125 0.038,0.25 0.038,0.377l0,4.004c0,0.127 -0.013,0.253 -0.038,0.377c-0.024,0.124 -0.061,0.246 -0.11,0.363c-0.049,0.117 -0.108,0.229 -0.178,0.334c-0.07,0.105 -0.15,0.203 -0.24,0.293c-0.09,0.09 -0.187,0.17 -0.293,0.24c-0.106,0.071 -0.217,0.131 -0.335,0.179c-0.117,0.049 -0.238,0.086 -0.362,0.11c-0.125,0.025 -0.25,0.037 -0.377,0.037l-58.8,0c-0.127,0 -0.252,-0.012 -0.377,-0.037c-0.124,-0.024 -0.245,-0.061 -0.362,-0.11c-0.118,-0.049 -0.229,-0.108 -0.334,-0.179c-0.106,-0.07 -0.203,-0.15 -0.293,-0.24c-0.089,-0.089 -0.169,-0.187 -0.24,-0.293c-0.07,-0.105 -0.13,-0.217 -0.178,-0.334c-0.049,-0.117 -0.086,-0.239 -0.11,-0.363c-0.025,-0.124 -0.038,-0.25 -0.038,-0.377l0,-4.004c0,-0.127 0.013,-0.252 0.038,-0.377c0.024,-0.124 0.061,-0.245 0.11,-0.362c0.049,-0.118 0.108,-0.229 0.178,-0.335c0.071,-0.105 0.151,-0.203 0.24,-0.293c0.09,-0.09 0.187,-0.17 0.293,-0.24c0.105,-0.07 0.216,-0.13 0.334,-0.178c0.117,-0.049 0.238,-0.086 0.362,-0.111c0.125,-0.024 0.25,-0.037 0.377,-0.037Z" style="fill:#189caa;fill-rule:nonzero;"/><path d="M70.597,121.709l0,3.998c0,1.069 0.871,1.946 1.946,1.946l52.421,0c1.22,-2.639 2.552,-5.284 3.997,-7.883l-56.418,0c-1.069,0 -1.946,0.871 -1.946,1.946l0,-0.007Z" style="fill:#189caa;fill-rule:nonzero;"/><path d="M70.597,137.952l0,3.997c0,1.069 0.871,1.946 1.946,1.946l46.325,0c0.745,-2.639 1.616,-5.265 2.599,-7.883l-48.924,0c-1.069,0 -1.946,0.871 -1.946,1.946l0,-0.006Z" style="fill:#189caa;fill-rule:nonzero;"/><path d="M175.037,88.858c-0.072,-0.574 -0.396,-1.062 -0.884,-1.346c-0.508,-0.291 -1.114,-0.317 -1.636,-0.073c-0.178,0.086 -4.393,2.059 -4.927,2.355c-11.933,6.016 -22.408,16.031 -30.297,28.967c-9.03,14.836 -14.393,30.682 -15.507,45.827c-0.244,3.411 -0.271,6.94 -0.297,10.166l0,1.398c0.073,0.95 0.851,1.689 1.847,1.689c0.956,-0.033 1.709,-0.818 1.709,-1.781l0,-1.254c0.547,-9.941 8.944,-22.456 10.805,-24.296c9.584,-3.364 19.498,-7.501 20.686,-12.726c0.772,-3.416 -0.402,-6.392 -1.695,-8.451c7.599,-2.355 11.609,-5.383 12.25,-9.262c0.488,-3.12 -1.451,-5.759 -2.982,-7.296c12.678,-7.257 10.956,-23.762 10.936,-23.92l-0.006,0Z" style="fill:#189caa;fill-rule:nonzero;"/></g></svg>