<?xml version="1.0" encoding="UTF-8" standalone="no"?><!DOCTYPE svg PUBLIC "-//W3C//DTD SVG 1.1//EN" "http://www.w3.org/Graphics/SVG/1.1/DTD/svg11.dtd"><svg width="100%" height="100%" viewBox="0 0 224 212" version="1.1" xmlns="http://www.w3.org/2000/svg" xmlns:xlink="http://www.w3.org/1999/xlink" xml:space="preserve" xmlns:serif="http://www.serif.com/" style="fill-rule:evenodd;clip-rule:evenodd;stroke-linejoin:round;stroke-miterlimit:2;"><rect id="Popcorn" x="0" y="-0" width="223.502" height="211.507" style="fill:none;"/><path id="Hex" d="M67.83,169.816l-39.374,-18.606c-3.765,-1.779 -6.216,-5.153 -6.216,-8.939l0,-73.028c0,-3.786 2.451,-7.163 6.216,-8.942l34.915,-16.499c-2.559,3.487 -4.178,7.706 -4.486,12.284l-25.472,12.037c-0.625,0.295 -0.879,0.762 -0.879,1.119l0,73.028c0,0.356 0.254,0.824 0.879,1.119l30.741,14.527l0.747,4.805c0.413,2.655 1.442,5.065 2.929,7.094Zm100.843,-121.975l26.371,12.462c3.765,1.779 6.219,5.156 6.219,8.942l0,73.028c0,3.786 -2.457,7.16 -6.219,8.939l-36.479,17.238c1.005,-1.715 1.707,-3.646 2.031,-5.728l0.905,-5.821l28.588,-13.51c0.625,-0.295 0.879,-0.762 0.879,-1.119l0,-73.028c0,-0.356 -0.254,-0.824 -0.879,-1.119l-15.599,-7.372c-0.72,-4.875 -2.79,-9.309 -5.817,-12.913Zm-26.841,128.515l-24.057,11.368c-3.71,1.756 -8.337,1.756 -12.047,0l-24.058,-11.368l4.595,0c0.693,0 1.375,-0.103 2.026,-0.3c0.644,0.195 1.326,0.3 2.031,0.3l11.708,0c0.334,0 0.666,-0.024 0.994,-0.071l7.659,3.619c0.663,0.313 1.472,0.313 2.138,0l7.682,-3.63c0.324,-0.05 0.64,-0.122 0.948,-0.215c0.648,0.195 1.327,0.297 2.017,0.297l11.707,0c0.705,0 1.387,-0.105 2.031,-0.3c0.651,0.197 1.333,0.3 2.027,0.3l2.599,0Z" style="fill:#189caa;stroke:#189caa;stroke-width:0.5px;"/><path id="Popcorn1" serif:id="Popcorn" d="M56.27,88.058l110.961,0c1.445,0 2.628,-1.182 2.628,-2.627c0,-1.445 -1.183,-2.628 -2.628,-2.628l-110.961,0c-1.444,0 -2.627,1.183 -2.627,2.628c0,1.445 1.183,2.627 2.627,2.627Zm22.836,4.055l6.683,72.102l0.476,5.142l-5.446,0c-4.524,0 -8.306,-3.239 -9.001,-7.71l-10.815,-69.533l18.103,0Zm89.069,-13.366c-0.152,-2.345 -0.875,-4.535 -2.032,-6.43c1.046,-2.36 1.628,-4.972 1.628,-7.72c0,-10.528 -8.533,-19.062 -19.06,-19.062c-0.757,0 -1.505,0.044 -2.239,0.13c-2.622,-7.395 -9.677,-12.69 -17.969,-12.69c-1.388,0 -2.743,0.148 -4.047,0.431c-3.773,-4.257 -9.283,-6.94 -15.419,-6.94c-9.834,0 -18.058,6.89 -20.109,16.107c-2.022,-0.885 -4.257,-1.377 -6.607,-1.377c-9.107,0 -16.49,7.384 -16.49,16.492c0,1.7 0.257,3.34 0.735,4.883c-6.441,1.502 -11.239,7.28 -11.239,14.179c0,0.678 0.047,1.344 0.136,1.997l112.712,0Zm-90.372,-4.203c0.175,1.102 -0.577,2.138 -1.679,2.313c-1.102,0.175 -2.138,-0.577 -2.313,-1.679c-0.056,-0.354 -0.096,-0.674 -0.119,-0.955c-0.026,-0.332 -0.04,-0.654 -0.04,-0.96c0,-3.334 1.352,-6.353 3.537,-8.538c2.184,-2.185 5.204,-3.537 8.537,-3.537c0.068,0 0.134,0.003 0.2,0.009l0.018,0.001l0,-0.001l0.17,0.004c1.115,0.026 1.998,0.952 1.972,2.067c-0.026,1.115 -0.952,1.998 -2.067,1.972l-0.137,-0.003c-0.052,0.003 -0.103,0.006 -0.156,0.006c-2.214,0 -4.22,0.897 -5.671,2.349c-1.45,1.45 -2.349,3.456 -2.349,5.671c0,0.233 0.009,0.448 0.024,0.643c0.02,0.256 0.044,0.469 0.071,0.638Zm19.079,-15.603c-0.004,1.115 -0.912,2.015 -2.028,2.011c-1.115,-0.004 -2.016,-0.912 -2.012,-2.028c0.018,-3.321 1.375,-6.325 3.557,-8.493c2.185,-2.174 5.193,-3.517 8.51,-3.517c1.18,0 2.332,0.175 3.429,0.5c1.127,0.334 2.186,0.829 3.15,1.456c0.936,0.608 1.202,1.86 0.594,2.796c-0.608,0.936 -1.86,1.202 -2.796,0.594c-0.638,-0.415 -1.34,-0.743 -2.089,-0.965c-0.715,-0.212 -1.482,-0.326 -2.288,-0.326c-2.212,0 -4.212,0.89 -5.659,2.329c-1.453,1.444 -2.357,3.44 -2.369,5.642Zm21.548,12.267c0.158,1.107 -0.612,2.132 -1.718,2.289c-1.107,0.157 -2.132,-0.612 -2.289,-1.719c-0.04,-0.278 -0.07,-0.562 -0.09,-0.85c-0.022,-0.314 -0.034,-0.602 -0.034,-0.862c0,-3.334 1.352,-6.353 3.537,-8.538c2.185,-2.185 5.204,-3.537 8.538,-3.537c1.551,0 3.042,0.297 4.415,0.837c1.004,0.395 1.942,0.922 2.793,1.556c0.426,-0.15 0.864,-0.276 1.308,-0.376c0.878,-0.199 1.773,-0.304 2.673,-0.304c3.217,0 6.145,1.264 8.312,3.325c2.175,2.066 3.58,4.939 3.741,8.143c0.053,1.115 -0.809,2.062 -1.924,2.115c-1.115,0.053 -2.062,-0.81 -2.115,-1.925c-0.107,-2.12 -1.042,-4.026 -2.49,-5.401c-1.434,-1.363 -3.38,-2.2 -5.524,-2.2c-0.632,0 -1.229,0.066 -1.785,0.193c-0.553,0.125 -1.082,0.306 -1.579,0.535c-0.745,0.411 -1.698,0.32 -2.355,-0.291c-0.73,-0.68 -1.587,-1.226 -2.528,-1.597c-0.905,-0.357 -1.898,-0.552 -2.942,-0.552c-2.215,0 -4.22,0.897 -5.671,2.349c-1.45,1.45 -2.349,3.456 -2.349,5.671c0,0.224 0.006,0.417 0.017,0.577l-0.001,0l0.001,0.008c0.013,0.186 0.033,0.372 0.059,0.557Zm-17.485,20.906l-17.782,0l6.649,71.737l0.51,5.506l11.708,0l-0.049,-3.462l-1.036,-73.782Zm19.568,0l-1.059,75.396l-0.026,1.847l-13.359,0l-1.084,-77.244l15.528,0Zm21.822,0l-0.047,0.513l-6.971,75.2l-0.142,1.531l-11.707,0l1.085,-77.244l17.782,0Zm22.16,0l-18.103,0l-0.081,0.878l-6.971,75.2l-0.108,1.166l5.446,0c4.524,0 8.306,-3.239 9.001,-7.71l10.815,-69.533Z" style="fill:#189caa;"/></svg>