<?xml version="1.0" encoding="UTF-8" standalone="no"?><!DOCTYPE svg PUBLIC "-//W3C//DTD SVG 1.1//EN" "http://www.w3.org/Graphics/SVG/1.1/DTD/svg11.dtd"><svg width="100%" height="100%" viewBox="0 0 224 212" version="1.1" xmlns="http://www.w3.org/2000/svg" xmlns:xlink="http://www.w3.org/1999/xlink" xml:space="preserve" xmlns:serif="http://www.serif.com/" style="fill-rule:evenodd;clip-rule:evenodd;stroke-linejoin:round;stroke-miterlimit:2;"><rect id="Pretzel" x="0" y="-0" width="223.502" height="211.507" style="fill:none;"/><path id="Hex" d="M44.059,158.584l-15.603,-7.373c-3.765,-1.779 -6.216,-5.153 -6.216,-8.939l0,-73.028c0,-3.786 2.451,-7.163 6.216,-8.942l19.056,-9.005c-5.033,4.664 -8.898,9.928 -11.71,15.698l-2.389,1.129c-0.625,0.295 -0.879,0.762 -0.879,1.119l0,6.175c-1.223,4.106 -2.011,8.413 -2.399,12.895l-0,0.005c-0.738,8.595 0.061,17.136 2.4,25.505l-0,28.447c0,0.356 0.254,0.824 0.879,1.119l7.76,3.667c-0.033,0.248 -0.06,0.497 -0.08,0.746c-0.015,0.182 -0.023,0.365 -0.023,0.548c-0.015,4.313 1.109,7.59 2.872,10.068c0.039,0.055 0.078,0.11 0.118,0.164Zm29.462,-119.576l32.207,-15.219c1.872,-0.885 3.949,-1.323 6.02,-1.323c2.068,0 4.154,0.438 6.026,1.323l32.452,15.335c-6.351,-0.921 -12.951,-0.583 -19.743,0.834l-17.663,-8.347c-0.327,-0.155 -0.695,-0.237 -1.072,-0.237c-0.374,0 -0.739,0.082 -1.066,0.237l-17.198,8.127c-6.245,-1.455 -12.891,-1.738 -19.963,-0.731Zm101.96,12.05l19.563,9.244c3.765,1.779 6.219,5.156 6.219,8.942l0,73.028c0,3.786 -2.457,7.16 -6.219,8.939l-15.002,7.089c2.314,-3.259 3.21,-7.184 2.426,-11.307l7.621,-3.602c0.625,-0.295 0.879,-0.762 0.879,-1.119l0,-27.748c1.711,-6.215 2.609,-12.707 2.653,-19.491l0,-0.036c0.113,-5.917 -0.654,-11.714 -2.175,-17.37c-0.153,-0.569 -0.313,-1.134 -0.479,-1.695l0,-6.688c0,-0.356 -0.254,-0.824 -0.879,-1.119l-2.616,-1.236c-2.914,-5.979 -6.861,-11.297 -11.992,-15.831Zm-9.25,113.767l-48.457,22.899c-3.71,1.756 -8.337,1.756 -12.047,0l-49.034,-23.171c2.893,-0.106 5.554,-1.078 8.035,-2.488c13.194,9.982 27.885,15.226 42.413,16.166l3.54,1.673c0.663,0.313 1.472,0.313 2.138,0l3.491,-1.65c15.193,-0.908 29.815,-6.516 41.911,-16.315c1.084,0.614 2.202,1.172 3.368,1.655l0.021,0.009c1.567,0.643 3.113,1.049 4.621,1.222Z" style="fill:#189caa;stroke:#189caa;stroke-width:0.5px;"/><g id="Pretzel1" serif:id="Pretzel"><path d="M125.837,101.252c-5.227,-5.516 -9.875,-11.248 -14.252,-17.215c-5.371,-7.306 -11.593,-13.562 -20.256,-16.872c-7.705,-2.948 -15.426,-3.526 -22.643,1.212c-6.239,4.087 -9.494,10.325 -11.105,17.432c-3.183,14.196 0.832,26.763 9.025,38.282c0.615,0.849 0.742,1.175 -0.18,1.844c-4.702,3.399 -9.477,6.727 -13.872,10.543c-0.994,0.867 -1.284,0.144 -1.718,-0.47c-4.919,-6.999 -8.681,-14.539 -11.177,-22.748c-2.405,-7.975 -3.255,-16.13 -2.55,-24.341c1.14,-13.164 6.149,-24.647 16.277,-33.49c5.824,-5.081 12.642,-8.155 20.293,-9.366c16.512,-2.604 30.366,2.874 42.012,14.267c6.222,6.094 10.545,13.544 12.19,22.224c1.193,6.33 0.578,12.55 -2.043,18.699Z" style="fill:#189caa;fill-rule:nonzero;"/><path d="M186.622,94.941c-0.091,15.317 -4.991,28.988 -14.089,41.248c-0.507,0.688 -0.723,0.995 -1.537,0.308c-4.377,-3.725 -9.097,-7.035 -13.836,-10.254c-0.994,-0.687 -0.814,-1.121 -0.253,-1.862c4.811,-6.601 8.12,-13.906 9.35,-21.989c1.573,-10.272 0.687,-20.199 -5.878,-28.806c-4.666,-6.13 -11.086,-8.915 -18.827,-8.59c-5.046,0.199 -9.622,1.881 -13.854,4.485c-1.03,0.633 -1.302,0.38 -1.809,-0.488c-2.93,-4.901 -6.294,-9.475 -10.634,-13.237c-1.248,-1.085 0.072,-1.283 0.47,-1.573c4.648,-3.472 9.821,-5.967 15.463,-7.215c13.528,-2.983 26.206,-1.193 37.419,7.487c8.284,6.42 13.384,14.954 16.079,24.99c1.357,5.046 2.043,10.217 1.935,15.497Z" style="fill:#189caa;fill-rule:nonzero;"/><path d="M94.874,88.72c-0.145,-4.774 1.23,-9.15 2.713,-13.508c0.38,-1.139 0.778,-0.995 1.646,-0.29c5.679,4.521 9.603,10.543 13.998,16.167c5.859,7.504 12.407,14.322 19.714,20.488c10.345,8.734 21.684,16.112 32.518,24.158c3.201,2.388 6.275,4.955 8.428,8.409c2.532,4.087 2.352,8.265 -0.434,11.158c-2.496,2.585 -5.751,3.237 -9.187,1.826c-4.015,-1.664 -7.343,-4.43 -10.725,-7.052c-9.441,-7.324 -19.424,-13.87 -28.956,-21.031c-9.314,-6.998 -17.796,-14.81 -24.687,-24.267c-2.875,-3.96 -5.28,-9.729 -5.028,-16.058Z" style="fill:#189caa;fill-rule:nonzero;"/><path d="M155.57,155.031c-24,20.814 -59.954,22.568 -88.005,0.38c1.157,-1.266 2.695,-1.953 4.034,-2.929c3.78,-2.749 7.578,-5.462 11.321,-8.265c0.995,-0.759 1.736,-0.778 2.821,-0.144c9.224,5.461 19.225,7.811 29.877,6.98c7.831,-0.614 15.156,-2.983 21.848,-7.143c1.23,-0.778 2.044,-0.669 3.147,0.145c4.937,3.688 9.947,7.305 14.957,10.976Z" style="fill:#189caa;fill-rule:nonzero;"/><path d="M48.069,148.376c0.307,-3.744 3.02,-7.052 6.492,-9.855c8.7,-7.035 18.032,-13.201 26.876,-20.054c4.702,-3.635 9.386,-7.288 13.799,-11.284c1.193,-1.085 1.845,-1.465 3.038,0.235c3.075,4.412 6.656,8.463 10.707,12.043c0.995,0.886 0.633,1.212 -0.145,1.809c-15.028,11.537 -30.221,22.839 -45.81,33.598c-2.586,1.79 -5.408,3.309 -8.808,2.441c-3.978,-1.049 -6.167,-3.834 -6.149,-8.933Z" style="fill:#189caa;fill-rule:nonzero;"/></g></svg>