<?xml version="1.0" encoding="UTF-8" standalone="no"?><!DOCTYPE svg PUBLIC "-//W3C//DTD SVG 1.1//EN" "http://www.w3.org/Graphics/SVG/1.1/DTD/svg11.dtd"><svg width="100%" height="100%" viewBox="0 0 224 212" version="1.1" xmlns="http://www.w3.org/2000/svg" xmlns:xlink="http://www.w3.org/1999/xlink" xml:space="preserve" xmlns:serif="http://www.serif.com/" style="fill-rule:evenodd;clip-rule:evenodd;stroke-linejoin:round;stroke-miterlimit:2;"><rect id="Protein-Shaker" serif:id="Protein Shaker" x="0" y="0.384" width="223.502" height="211.507" style="fill:none;"/><g id="Protein-Shaker1" serif:id="Protein Shaker"><path id="Hex" d="M59.744,166.63l-31.533,-14.9c-3.776,-1.784 -6.234,-5.168 -6.234,-8.965l0,-73.242c0,-3.797 2.458,-7.184 6.234,-8.968l44.223,-20.897c0.483,0.883 1.109,1.708 1.877,2.439l0.004,0.004c1.055,1.004 2.274,1.733 3.565,2.188c-0.099,0.976 -0.055,1.963 0.132,2.927l-44.829,21.184c-0.627,0.296 -0.882,0.765 -0.882,1.122l0,73.242c0,0.357 0.255,0.826 0.882,1.122l5.574,2.634c0.284,0.343 0.591,0.673 0.921,0.987l20.066,19.122Zm45.357,-142.408l0.61,-0.288c1.878,-0.888 3.961,-1.327 6.038,-1.327c2.074,0 4.166,0.439 6.044,1.327l23.322,11.021l-0.332,0.349c-0.741,0.778 -1.267,1.682 -1.581,2.638c-0.958,0.369 -1.833,0.948 -2.555,1.706l-2.225,2.337l-21.597,-10.206c-0.328,-0.155 -0.697,-0.237 -1.075,-0.237c-0.375,0 -0.741,0.082 -1.069,0.237l-0.591,0.279c-1.129,-1.307 -2.589,-2.318 -4.246,-2.904c0.042,-0.414 0.059,-0.836 0.048,-1.263c-0.032,-1.303 -0.31,-2.541 -0.789,-3.67Zm82.026,32.476l8.162,3.857c3.776,1.784 6.237,5.171 6.237,8.968l0,73.242c0,3.797 -2.464,7.181 -6.237,8.965l-55.636,26.291c0.427,-3.141 -0.646,-6.422 -3.132,-8.711l53.8,-25.423c0.627,-0.296 0.882,-0.765 0.882,-1.122l0,-73.242c0,-0.357 -0.255,-0.826 -0.882,-1.122l-8.497,-4.015c0.495,-0.309 0.953,-0.68 1.362,-1.11l1.037,-1.088c1.508,-1.585 2.475,-3.492 2.905,-5.489Zm-80.599,132.006c-0.277,-0.109 -0.55,-0.226 -0.818,-0.353l-22.139,-10.462c0.283,-0.164 0.56,-0.342 0.832,-0.532l7.885,-5.54l6.01,2.84c0.003,0.051 0.007,0.103 0.011,0.154c0.324,4.256 3.27,7.684 7.133,8.83c-0.02,0.415 -0.015,0.836 0.017,1.262c0.104,1.369 0.48,2.652 1.07,3.802Z" style="fill:#189caa;stroke:#189caa;stroke-width:0.5px;"/><g id="Protein-Shaker2" serif:id="Protein Shaker"><path id="path2-12-9" d="M131.93,51.725c-10.881,-1.819 -21.884,1.394 -30.043,8.662l32.085,30.575l19.852,18.917c6.86,-8.506 9.534,-19.657 7.189,-30.44l-29.083,-27.714Zm-8.749,10.137c-2.799,0.97 -5.476,2.281 -7.954,3.9c-0.505,0.33 -1.075,0.488 -1.636,0.488c-0.979,0 -1.939,-0.479 -2.514,-1.361c-0.906,-1.387 -0.515,-3.246 0.872,-4.152c2.89,-1.887 6.009,-3.416 9.272,-4.545c1.566,-0.542 3.273,0.289 3.814,1.854c0.541,1.566 -0.288,3.275 -1.853,3.816Z" style="fill:#189caa;fill-rule:nonzero;"/><path id="path3-044-0" d="M92.816,65.387c-0.391,0.411 -0.598,0.948 -0.585,1.514c0.052,2.169 -0.742,4.228 -2.238,5.799l-0.039,0.042c-11.219,11.783 -21.316,24.734 -30.009,38.492l-16.139,25.542c-1.141,1.807 -0.848,4.189 0.7,5.663l30.185,28.765c1.548,1.475 3.94,1.653 5.689,0.424l24.718,-17.368c13.313,-9.354 25.753,-20.072 36.974,-31.857l0.039,-0.042c1.495,-1.57 3.512,-2.464 5.679,-2.517c0.567,-0.013 1.094,-0.247 1.485,-0.657l2.674,-2.809l-56.458,-53.801l-2.674,2.809Zm-13.812,38.98c-3.627,4.897 -7.118,9.991 -10.373,15.143c-0.57,0.903 -1.543,1.397 -2.538,1.397c-0.548,0 -1.102,-0.149 -1.6,-0.464c-1.4,-0.886 -1.817,-2.739 -0.932,-4.139c3.334,-5.277 6.909,-10.495 10.624,-15.51c0.986,-1.331 2.864,-1.611 4.196,-0.624c1.33,0.987 1.609,2.865 0.623,4.197Zm9.215,-11.688c-0.636,0.758 -1.268,1.521 -1.894,2.288c-0.593,0.725 -1.455,1.1 -2.323,1.1c-0.668,0 -1.34,-0.222 -1.898,-0.679c-1.281,-1.05 -1.47,-2.94 -0.422,-4.222c0.643,-0.785 1.29,-1.566 1.941,-2.343c1.065,-1.269 2.956,-1.436 4.226,-0.37c1.269,1.065 1.434,2.957 0.37,4.227Z" style="fill:#189caa;fill-rule:nonzero;"/><path id="path4-59-9" d="M137.579,48.82l4.137,-4.345l26.058,24.831l-4.137,4.344l-26.058,-24.83Z" style="fill:#189caa;fill-rule:nonzero;"/><path id="path5-753-8" d="M178.996,50.998l-19.543,-18.623c-0.87,-0.829 -2.008,-1.277 -3.211,-1.24c-1.202,0.029 -2.319,0.524 -3.148,1.395l-1.034,1.086l26.057,24.831l1.035,-1.086c1.71,-1.796 1.641,-4.651 -0.155,-6.362Z" style="fill:#189caa;fill-rule:nonzero;"/><path id="path6-90-0" d="M145.852,40.13l2.068,-2.173l26.058,24.831l-2.068,2.173l-26.058,-24.831Z" style="fill:#189caa;fill-rule:nonzero;"/><path id="path7-556-5" d="M85.656,43.236c-1.142,1.199 -1.097,3.098 0.102,4.241c0.58,0.555 1.326,0.829 2.069,0.829c0.791,0 1.582,-0.312 2.171,-0.93l0.356,-0.374c3.22,-3.382 7.563,-5.306 12.231,-5.42c1.656,-0.041 2.966,-1.416 2.926,-3.072c-0.04,-1.657 -1.419,-2.957 -3.071,-2.926c-6.269,0.152 -12.103,2.739 -16.427,7.28l-0.356,0.372Z" style="fill:#189caa;fill-rule:nonzero;"/><path id="path8-3-3" d="M81.208,37.857c0.792,0 1.583,-0.312 2.173,-0.931l0.354,-0.372c3.221,-3.382 7.564,-5.307 12.231,-5.421c1.656,-0.04 2.966,-1.415 2.926,-3.071c-0.04,-1.657 -1.414,-2.956 -3.071,-2.927c-6.269,0.153 -12.103,2.739 -16.43,7.281l-0.354,0.373c-1.142,1.199 -1.096,3.099 0.103,4.242c0.58,0.552 1.325,0.827 2.068,0.827Z" style="fill:#189caa;fill-rule:nonzero;"/><path id="path9-26-5" d="M124.534,168.917l0.335,-0.391c1.078,-1.258 0.933,-3.152 -0.324,-4.231c-1.257,-1.078 -3.151,-0.932 -4.228,0.324l-0.335,0.39c-3.04,3.545 -7.278,5.693 -11.933,6.049c-1.651,0.126 -2.888,1.568 -2.762,3.22c0.12,1.574 1.434,2.772 2.987,2.772c0.077,0 0.154,-0.003 0.231,-0.009c6.252,-0.478 11.945,-3.363 16.028,-8.125l0,0Z" style="fill:#189caa;fill-rule:nonzero;"/><path id="path10-9-4" d="M131.696,174.387c-1.257,-1.079 -3.15,-0.934 -4.228,0.324l-0.335,0.391c-3.04,3.544 -7.278,5.692 -11.933,6.048c-1.651,0.126 -2.888,1.568 -2.762,3.22c0.12,1.574 1.434,2.772 2.987,2.772c0.077,0 0.154,-0.003 0.231,-0.009c6.252,-0.477 11.945,-3.363 16.028,-8.124l0.335,-0.391c1.079,-1.257 0.934,-3.152 -0.324,-4.231l0,0Z" style="fill:#189caa;fill-rule:nonzero;"/></g></g></svg>