<?xml version="1.0" encoding="UTF-8" standalone="no"?><!DOCTYPE svg PUBLIC "-//W3C//DTD SVG 1.1//EN" "http://www.w3.org/Graphics/SVG/1.1/DTD/svg11.dtd"><svg width="100%" height="100%" viewBox="0 0 224 212" version="1.1" xmlns="http://www.w3.org/2000/svg" xmlns:xlink="http://www.w3.org/1999/xlink" xml:space="preserve" xmlns:serif="http://www.serif.com/" style="fill-rule:evenodd;clip-rule:evenodd;stroke-linejoin:round;stroke-miterlimit:2;"><rect id="Protein-Powder" serif:id="Protein Powder" x="0" y="0.384" width="223.502" height="211.507" style="fill:none;"/><g id="Protein-Powder1" serif:id="Protein Powder"><path id="Hex" d="M32.863,153.926l-4.652,-2.198c-3.776,-1.784 -6.234,-5.168 -6.234,-8.965l0,-73.242c0,-3.797 2.458,-7.184 6.234,-8.968l77.499,-36.621c1.878,-0.888 3.961,-1.327 6.038,-1.327c2.074,0 4.166,0.439 6.044,1.327l19.458,9.195l-21.572,0l-2.855,-1.349c-0.328,-0.155 -0.697,-0.237 -1.075,-0.237c-0.375,0 -0.741,0.082 -1.069,0.237l-2.855,1.349l-9.152,0c-7.442,0 -13.744,4.972 -15.758,11.771l-49.731,23.501c-0.627,0.296 -0.882,0.765 -0.882,1.122l0,73.242c0,0.357 0.255,0.826 0.882,1.122l1.854,0.876c-1.451,2.085 -2.302,4.618 -2.302,7.345c0,0.618 0.044,1.225 0.128,1.819Zm138.817,-104.529l23.608,11.156c3.776,1.784 6.237,5.171 6.237,8.968l0,73.242c0,3.797 -2.464,7.181 -6.237,8.965l-18.136,8.57c1.037,-2.933 1.601,-6.087 1.601,-9.37l0,-1.578l11.566,-5.466c0.627,-0.296 0.882,-0.765 0.882,-1.122l0,-73.242c0,-0.357 -0.255,-0.826 -0.882,-1.122l-18.639,-8.808l0,-2.962c0,-0.827 -0.143,-1.621 -0.407,-2.357c0.263,-0.737 0.407,-1.53 0.407,-2.357l0,-2.358c0,-0.053 -0,-0.107 -0.001,-0.16Zm-34.411,129.748l-19.477,9.204c-3.721,1.761 -8.361,1.761 -12.082,0l-19.477,-9.204l17.154,0c1.251,0 2.473,-0.123 3.657,-0.357l3.636,1.718c0.665,0.313 1.477,0.313 2.145,0l2.88,-1.361l21.565,0Zm-68.189,-8.105l-12.78,-6.039l10.021,0c0.559,2.191 1.505,4.23 2.76,6.039Z" style="fill:#189caa;stroke:#189caa;stroke-width:0.5px;"/><g><path id="path6-0-7" d="M115.174,148.571c0,-1.303 -1.056,-2.358 -2.358,-2.358l-67.188,0c-3.249,0 -5.893,2.643 -5.893,5.893c0,3.251 2.644,5.894 5.893,5.894l27.111,0l0,2.357c0,6.499 5.288,11.788 11.788,11.788l18.859,0c6.499,0 11.788,-5.288 11.788,-11.788l0,-11.787Z" style="fill:#189caa;fill-rule:nonzero;"/><path id="path7-0-1" d="M107.866,131.338c-3.607,-4.031 -8.699,-6.341 -13.91,-6.341c-5.21,0 -10.302,2.31 -13.909,6.341c-2.593,2.876 -4.243,6.412 -4.809,10.161l37.437,0c-0.566,-3.749 -2.216,-7.285 -4.809,-10.161Z" style="fill:#189caa;fill-rule:nonzero;"/><path id="path8-1-9" d="M165.176,82.067c-2.499,-2.475 -4.173,-5.587 -4.857,-8.958c-0.118,0.024 -0.236,0.024 -0.354,0.024l-66.009,0c-0.118,0 -0.235,0 -0.353,-0.024c-0.684,3.371 -2.358,6.483 -4.857,8.958c-4.243,4.243 -6.577,9.902 -6.577,15.913l0,25.586c3.573,-2.123 7.638,-3.285 11.787,-3.285c2.413,0 4.797,0.397 7.073,1.141l0,-17.644c0,-6.499 5.288,-11.787 11.787,-11.787l28.29,0c6.499,0 11.787,5.288 11.787,11.787l0,37.72c0,6.499 -5.288,11.787 -11.787,11.787l-21.218,0l0,7.072c0,4.616 -1.91,8.789 -4.975,11.788l35.623,0c11.693,0 21.217,-9.525 21.217,-21.217l0,-52.949c0,-6.012 -2.334,-11.67 -6.577,-15.913Z" style="fill:#189caa;fill-rule:nonzero;"/><path id="path9-98-3" d="M117.571,143.371c1.415,1.294 2.318,3.137 2.318,5.2l21.218,0c3.9,0 7.072,-3.173 7.072,-7.072l0,-37.72c0,-3.9 -3.173,-7.072 -7.072,-7.072l-28.29,0c-3.9,0 -7.072,3.173 -7.072,7.072l0,19.787c2.071,1.23 3.98,2.778 5.638,4.621c3.795,4.222 5.943,9.611 6.188,15.184Zm0.357,-22.04l7.072,-10.609c0.721,-1.082 2.185,-1.376 3.269,-0.654c1.083,0.723 1.376,2.184 0.654,3.269l-4.629,6.943l9.74,0c0.869,0 1.668,0.479 2.079,1.246c0.41,0.766 0.364,1.697 -0.118,2.42l-7.072,10.609c-0.455,0.682 -1.202,1.049 -1.964,1.049c-0.449,0 -0.903,-0.129 -1.305,-0.396c-1.083,-0.723 -1.376,-2.184 -0.654,-3.269l4.628,-6.943l-9.739,0c-0.869,0 -1.668,-0.479 -2.079,-1.246c-0.41,-0.766 -0.365,-1.697 0.118,-2.42Z" style="fill:#189caa;fill-rule:nonzero;"/><path id="path10-6-7" d="M93.956,68.417l66.009,0c2.6,0 4.715,-2.116 4.715,-4.715l0,-7.072l-61.295,0c-1.302,0 -2.357,-1.054 -2.357,-2.358c0,-1.303 1.055,-2.357 2.357,-2.357l61.295,0l0,-2.358c0,-5.201 -4.231,-9.43 -9.43,-9.43l-56.579,0c-5.199,0 -9.43,4.229 -9.43,9.43l0,14.145c0,2.599 2.114,4.715 4.715,4.715Z" style="fill:#189caa;fill-rule:nonzero;"/></g></g></svg>