<?xml version="1.0" encoding="UTF-8" standalone="no"?><!DOCTYPE svg PUBLIC "-//W3C//DTD SVG 1.1//EN" "http://www.w3.org/Graphics/SVG/1.1/DTD/svg11.dtd"><svg width="100%" height="100%" viewBox="0 0 224 212" version="1.1" xmlns="http://www.w3.org/2000/svg" xmlns:xlink="http://www.w3.org/1999/xlink" xml:space="preserve" xmlns:serif="http://www.serif.com/" style="fill-rule:evenodd;clip-rule:evenodd;stroke-linejoin:round;stroke-miterlimit:2;"><rect id="Protein-Bar" serif:id="Protein Bar" x="0" y="0.384" width="223.502" height="211.507" style="fill:none;"/><g id="Protein-Bar1" serif:id="Protein Bar"><path id="Hex" d="M60.663,167.063l-32.452,-15.335c-3.776,-1.784 -6.234,-5.168 -6.234,-8.965l0,-73.242c0,-3.797 2.458,-7.184 6.234,-8.968l77.499,-36.621c1.878,-0.888 3.961,-1.327 6.038,-1.327c2.074,0 4.166,0.439 6.044,1.327l12.383,5.852l-2.25,2.245c-1.249,1.247 -3.145,3.398 -3.907,5.039l-11.195,-5.29c-0.328,-0.155 -0.697,-0.237 -1.075,-0.237c-0.375,0 -0.741,0.082 -1.069,0.237l-77.496,36.621c-0.627,0.296 -0.882,0.765 -0.882,1.122l0,58.608l-0.572,1.384l-0.232,2.139l0.306,1.612l-0.042,0.012l0.54,1.895l0,7.592c0,0.357 0.255,0.826 0.882,1.122l12.667,5.986l0.408,1.427c1.015,3.546 3.835,6.3 7.404,7.231l3.419,0.892c0.214,0.056 0.583,0.163 0.931,0.266c0.096,0.301 0.191,0.607 0.242,0.791l0.983,3.522c0.309,1.107 0.795,2.139 1.424,3.063Zm101.763,-122.039l32.862,15.529c3.776,1.784 6.237,5.171 6.237,8.968l0,73.242c0,3.797 -2.464,7.181 -6.237,8.965l-77.496,36.621c-3.721,1.761 -8.361,1.761 -12.082,0l-12.72,-6.01c0.046,-0.045 0.091,-0.09 0.136,-0.136l2.267,-2.305c1.18,-1.2 2.941,-3.228 3.749,-4.842l11.536,5.451c0.665,0.313 1.477,0.313 2.145,0l77.496,-36.621c0.627,-0.296 0.882,-0.765 0.882,-1.122l0,-60.449l0.171,-1.448l-0.171,-0.948l0,-10.396c0,-0.357 -0.255,-0.826 -0.882,-1.122l-13.233,-6.253l-0.293,-1.062c-0.982,-3.555 -3.777,-6.336 -7.336,-7.299l-3.411,-0.924c-0.214,-0.058 -0.581,-0.168 -0.929,-0.275c-0.093,-0.302 -0.185,-0.609 -0.235,-0.793l-0.95,-3.531c-0.316,-1.175 -0.831,-2.267 -1.506,-3.237Zm-23.436,-0.881l-2.071,-0.978c0.01,-0.112 0.019,-0.22 0.027,-0.32c0.295,-0.313 0.67,-0.708 0.869,-0.906l0.408,-0.407l0.269,0.982c0.132,0.48 0.3,1.04 0.497,1.63Zm-54.725,123.881l2.022,0.956c-0.005,0.064 -0.009,0.126 -0.014,0.186c-0.292,0.315 -0.664,0.714 -0.86,0.915l-0.404,0.411l-0.278,-0.98c-0.125,-0.441 -0.283,-0.95 -0.465,-1.488Z" style="fill:#189caa;stroke:#189caa;stroke-width:0.5px;"/><g><path id="path6-52-9" d="M102.357,111.653l3.687,3.687l14.719,-14.719l-3.687,-3.687l-14.719,14.719" style="fill:#189caa;fill-rule:nonzero;"/><path id="path7-38-9" d="M87.637,126.372l3.688,3.688l3.677,-3.688l-3.677,-3.677l-3.688,3.677" style="fill:#189caa;fill-rule:nonzero;"/><path id="path8-78-9" d="M135.483,85.902l-3.678,-3.688l-3.687,3.688l3.677,3.677l3.688,-3.677" style="fill:#189caa;fill-rule:nonzero;"/><path id="path9-04-3" d="M87.637,111.653l18.407,18.407l3.677,-3.688l-18.396,-18.396l-3.688,3.677" style="fill:#189caa;fill-rule:nonzero;"/><path id="path10-7-7" d="M184.374,81.097l-1.45,-5.268c-0.323,-1.173 -1.242,-2.091 -2.415,-2.412l-3.444,-0.943c-1.046,-0.287 -2.791,-0.716 -3.656,-1.359c-0.42,-0.312 -0.79,-0.688 -1.095,-1.113c-0.628,-0.876 -1.044,-2.623 -1.333,-3.669l-0.935,-3.385c-0.324,-1.172 -1.245,-2.089 -2.419,-2.406l-3.411,-0.924c-1.047,-0.283 -2.781,-0.732 -3.652,-1.37c-0.392,-0.287 -0.741,-0.624 -1.038,-1.003c-0.665,-0.849 -1.123,-2.585 -1.404,-3.632l-0.95,-3.531c-0.316,-1.173 -1.234,-2.092 -2.406,-2.41l-3.451,-0.934c-1.047,-0.283 -2.781,-0.736 -3.645,-1.382c-0.401,-0.299 -0.755,-0.651 -1.051,-1.044c-0.65,-0.86 -1.088,-2.602 -1.375,-3.648l-0.953,-3.475c-0.322,-1.173 -1.241,-2.092 -2.413,-2.414l-3.434,-0.942c-1.17,-0.321 -2.426,0.011 -3.284,0.868l-2.289,2.284c-0.768,0.766 -2.061,2.011 -2.489,3.001c-0.021,0.048 -0.041,0.097 -0.06,0.146c-0.397,1.002 -0.349,2.804 -0.52,3.874c-0.313,1.96 -1.088,3.834 -2.25,5.439c-0.635,0.878 -1.894,2.115 -2.661,2.882c-0.247,0.762 0.177,1.592 0.939,1.839l37.703,37.703c0.762,0.762 2.016,0.762 2.778,0c0.248,-0.248 1.065,-1.087 1.943,-1.722c1.605,-1.162 3.479,-1.937 5.439,-2.25c1.07,-0.171 2.871,-0.122 3.874,-0.52c0.049,-0.019 0.097,-0.039 0.146,-0.06c0.99,-0.428 2.235,-1.722 3.001,-2.489l3.631,-3.638c0.021,-0.021 0.041,-0.061 0.031,-0.091" style="fill:#189caa;fill-rule:nonzero;"/><path id="path11-0-3" d="M40.726,138.338l5.39,1.489c1.046,0.289 2.789,0.726 3.649,1.375c0.372,0.281 0.706,0.614 0.992,0.989c0.653,0.858 1.107,2.593 1.389,3.641l0.941,3.5c0.315,1.173 1.234,2.092 2.406,2.408l3.481,0.938c1.047,0.282 2.782,0.736 3.642,1.388c0.395,0.3 0.744,0.652 1.039,1.048c0.645,0.865 1.093,2.601 1.376,3.648l0.934,3.451c0.318,1.173 1.235,2.095 2.406,2.417l3.476,0.958c1.046,0.288 2.797,0.705 3.657,1.353c0.4,0.301 0.756,0.664 1.056,1.078c0.632,0.874 1.06,2.617 1.346,3.663l0.933,3.403c0.321,1.173 1.24,2.092 2.413,2.414l3.425,0.941c1.169,0.321 2.426,-0.011 3.284,-0.867l2.289,-2.284c0.768,-0.766 2.06,-2.012 2.486,-3.003c0.021,-0.048 0.04,-0.096 0.06,-0.144c0.397,-1.003 0.352,-2.803 0.518,-3.874c0.307,-1.975 1.076,-3.833 2.251,-5.442c0.639,-0.875 1.898,-2.112 2.665,-2.879c0.247,-0.762 -0.177,-1.592 -0.939,-1.839l-37.703,-37.703c-0.762,-0.762 -2.016,-0.762 -2.778,-0c-0.248,0.248 -1.065,1.087 -1.94,1.726c-1.61,1.176 -3.467,1.945 -5.442,2.251c-1.071,0.166 -2.871,0.122 -3.873,0.52c-0.048,0.019 -0.096,0.039 -0.144,0.059c-0.99,0.427 -2.238,1.717 -3.004,2.485l-2.294,2.298c-0.856,0.858 -1.186,2.114 -0.862,3.282l1.475,5.31" style="fill:#189caa;fill-rule:nonzero;"/><path id="path12-6-2" d="M113.399,85.902l18.396,18.396l3.688,-3.677l-18.407,-18.407l-3.677,3.688" style="fill:#189caa;fill-rule:nonzero;"/><path id="path13-03-5" d="M128.118,78.537c2.031,-2.031 5.333,-2.031 7.365,0l3.677,3.677c2.031,2.032 2.031,5.333 0,7.365l-3.677,3.677l3.677,3.688c2.031,2.022 2.031,5.323 0,7.354l-3.677,3.678c-1.016,1.016 -2.357,1.524 -3.688,1.524c-1.32,0 -2.661,-0.508 -3.677,-1.524l-3.677,-3.688l-14.72,14.73l3.678,3.677c0.985,0.985 1.524,2.285 1.524,3.677c0,1.392 -0.539,2.702 -1.524,3.688l-3.678,3.677c-1.016,1.016 -2.346,1.524 -3.677,1.524c-1.33,0 -2.671,-0.508 -3.677,-1.524l-3.688,-3.677l-3.677,3.677c-1.016,1.016 -2.347,1.524 -3.677,1.524c-1.331,0 -2.661,-0.508 -3.677,-1.524l-3.678,-3.677c-2.031,-2.031 -2.031,-5.333 0,-7.365l3.678,-3.677l-3.688,-3.688c-2.022,-2.022 -2.022,-5.323 0,-7.344l3.688,-3.688c0.975,-0.985 2.285,-1.524 3.677,-1.524c1.392,0 2.702,0.539 3.677,1.524l3.677,3.688l14.73,-14.73l-3.688,-3.677c-0.985,-0.985 -1.524,-2.285 -1.524,-3.677c0,-1.392 0.539,-2.702 1.524,-3.688l3.688,-3.677c2.022,-2.031 5.323,-2.031 7.344,0l3.688,3.677l3.677,-3.677Zm-66.232,36.803l40.481,40.471l58.877,-58.877l-40.481,-40.471l-58.877,58.877" style="fill:#189caa;fill-rule:nonzero;"/></g></g></svg>