<?xml version="1.0" encoding="UTF-8" standalone="no"?><!DOCTYPE svg PUBLIC "-//W3C//DTD SVG 1.1//EN" "http://www.w3.org/Graphics/SVG/1.1/DTD/svg11.dtd"><svg width="100%" height="100%" viewBox="0 0 224 212" version="1.1" xmlns="http://www.w3.org/2000/svg" xmlns:xlink="http://www.w3.org/1999/xlink" xml:space="preserve" xmlns:serif="http://www.serif.com/" style="fill-rule:evenodd;clip-rule:evenodd;stroke-linejoin:round;stroke-miterlimit:2;"><rect id="Restriction" x="0" y="0.384" width="223.502" height="211.507" style="fill:none;"/><path id="Hex" d="M54.951,164.364l-26.74,-12.635c-3.776,-1.784 -6.234,-5.168 -6.234,-8.965l0,-73.242c0,-3.797 2.458,-7.184 6.234,-8.968l26.726,-12.629c-0.236,0.23 -0.47,0.462 -0.703,0.695c-4.792,4.791 -8.859,10.037 -12.203,15.599l-8.848,4.181c-0.627,0.296 -0.882,0.765 -0.882,1.122l0,19.274c-2.473,11.417 -2.473,23.267 0,34.684l-0,19.284c0,0.357 0.255,0.826 0.882,1.122l8.856,4.185c3.342,5.557 7.407,10.797 12.195,15.585c0.238,0.238 0.477,0.474 0.717,0.709Zm47.808,-139.037l2.951,-1.394c1.878,-0.888 3.961,-1.327 6.038,-1.327c2.074,0 4.166,0.439 6.044,1.327l2.951,1.394c-5.975,-0.659 -12.009,-0.659 -17.984,0Zm65.81,22.601l26.719,12.626c3.776,1.784 6.237,5.171 6.237,8.968l0,73.242c0,3.797 -2.464,7.181 -6.237,8.965l-26.733,12.633c0.239,-0.233 0.477,-0.469 0.714,-0.706c4.787,-4.787 8.852,-10.028 12.194,-15.585l8.855,-4.185c0.627,-0.296 0.882,-0.765 0.882,-1.122l0,-19.284c2.473,-11.417 2.473,-23.267 0,-34.685l0,-19.274c0,-0.357 -0.255,-0.826 -0.882,-1.122l-8.847,-4.181c-3.344,-5.562 -7.411,-10.808 -12.203,-15.599c-0.232,-0.232 -0.466,-0.463 -0.7,-0.692Zm-47.817,139.023l-2.96,1.399c-3.721,1.761 -8.361,1.761 -12.082,0l-2.96,-1.399c2.99,0.33 5.996,0.495 9.001,0.495c3.006,0 6.011,-0.165 9.001,-0.495Z" style="fill:#189caa;stroke:#189caa;stroke-width:0.5px;"/><path id="Restriction1" serif:id="Restriction" d="M151.243,145.63c-19.549,19.547 -50.101,21.543 -71.9,5.993l77.895,-77.895c15.55,21.8 13.555,52.353 -5.994,71.902Zm-78.984,-78.985c10.55,-10.549 24.574,-16.358 39.492,-16.358c11.789,0 23.017,3.631 32.417,10.358l-77.902,77.902c-15.55,-21.8 -13.555,-52.353 5.994,-71.902Zm92.061,-13.075c-28.987,-28.987 -76.15,-28.987 -105.137,0c-28.987,28.986 -28.987,76.15 0,105.136c14.493,14.494 33.531,21.74 52.568,21.74c19.038,0 38.077,-7.246 52.569,-21.74c28.986,-28.986 28.986,-76.15 0,-105.136" style="fill:#189caa;fill-rule:nonzero;"/></svg>