<?xml version="1.0" encoding="UTF-8" standalone="no"?><!DOCTYPE svg PUBLIC "-//W3C//DTD SVG 1.1//EN" "http://www.w3.org/Graphics/SVG/1.1/DTD/svg11.dtd"><svg width="100%" height="100%" viewBox="0 0 224 212" version="1.1" xmlns="http://www.w3.org/2000/svg" xmlns:xlink="http://www.w3.org/1999/xlink" xml:space="preserve" xmlns:serif="http://www.serif.com/" style="fill-rule:evenodd;clip-rule:evenodd;stroke-linejoin:round;stroke-miterlimit:2;"><rect id="Rocket" x="0" y="0.384" width="223.502" height="211.507" style="fill:none;"/><path id="Hex" d="M37.143,155.7l-8.687,-4.105c-3.765,-1.779 -6.216,-5.153 -6.216,-8.939l0,-73.028c0,-3.786 2.451,-7.163 6.216,-8.942l74.406,-35.16c-0.219,0.187 -0.438,0.375 -0.656,0.564l-0.001,0.001c-1.817,1.574 -3.581,3.205 -5.29,4.895c-1.71,1.69 -3.363,3.435 -4.958,5.234c-1.595,1.799 -3.129,3.648 -4.602,5.549c-0.499,0.643 -0.99,1.292 -1.474,1.946l-52.468,24.794c-0.625,0.295 -0.879,0.762 -0.879,1.119l0,73.028c0,0.356 0.254,0.824 0.879,1.119l3.816,1.803l-0.086,10.121Zm84.729,-129.59l73.172,34.578c3.765,1.779 6.219,5.156 6.219,8.942l0,73.028c0,3.786 -2.457,7.16 -6.219,8.939l-8.116,3.835l-0.086,-10.12l3.247,-1.535c0.625,-0.295 0.879,-0.762 0.879,-1.119l0,-73.028c0,-0.356 -0.254,-0.824 -0.879,-1.119l-51.633,-24.399c-0.576,-0.787 -1.163,-1.565 -1.761,-2.336c-1.472,-1.9 -3.005,-3.749 -4.598,-5.548l-0.001,-0.001c-1.594,-1.799 -3.245,-3.543 -4.953,-5.233c-1.703,-1.685 -3.461,-3.312 -5.271,-4.882Zm51.54,135.708l-55.637,26.291c-3.71,1.756 -8.337,1.756 -12.047,0l-55.353,-26.156l10.832,-5.043l49.475,23.38c0.663,0.313 1.472,0.313 2.138,0l49.757,-23.513l10.834,5.041Z" style="fill:#189caa;stroke:#189caa;stroke-width:0.5px;"/><g id="Rocket1" serif:id="Rocket"><path d="M74.08,131.084l35.524,0l0,-18.82c0,-0.159 0.016,-0.317 0.047,-0.473c0.031,-0.156 0.077,-0.308 0.138,-0.455c0.061,-0.147 0.136,-0.287 0.224,-0.419c0.088,-0.132 0.189,-0.255 0.301,-0.368c0.113,-0.112 0.236,-0.213 0.368,-0.301c0.133,-0.088 0.273,-0.163 0.419,-0.224c0.147,-0.061 0.299,-0.106 0.455,-0.138c0.156,-0.031 0.314,-0.047 0.473,-0.047c0.159,0 0.317,0.016 0.473,0.047c0.156,0.031 0.308,0.077 0.455,0.138c0.147,0.061 0.287,0.136 0.419,0.224c0.132,0.088 0.255,0.189 0.368,0.301c0.112,0.113 0.213,0.236 0.301,0.368c0.088,0.133 0.163,0.273 0.224,0.419c0.061,0.147 0.106,0.299 0.138,0.455c0.031,0.156 0.047,0.315 0.047,0.473l0,18.82l35.502,0c0.57,-2.562 1.042,-5.142 1.416,-7.74c0.373,-2.598 0.649,-5.206 0.824,-7.825c0.175,-2.618 0.251,-5.24 0.229,-7.864c-0.024,-2.624 -0.147,-5.244 -0.369,-7.859c-0.223,-2.615 -0.544,-5.217 -0.965,-7.809c-0.42,-2.591 -0.938,-5.162 -1.554,-7.713c-0.616,-2.551 -1.328,-5.076 -2.134,-7.573c-0.808,-2.497 -1.708,-4.96 -2.704,-7.388c-0.867,-2.076 -1.801,-4.121 -2.803,-6.136c-1.001,-2.014 -2.068,-3.994 -3.2,-5.937c-1.132,-1.944 -2.327,-3.849 -3.584,-5.714c-1.258,-1.865 -2.576,-3.687 -3.953,-5.465c-1.378,-1.779 -2.813,-3.51 -4.304,-5.193c-1.492,-1.684 -3.038,-3.317 -4.637,-4.899c-1.599,-1.582 -3.249,-3.109 -4.949,-4.582c-1.699,-1.473 -3.446,-2.89 -5.24,-4.247c-1.794,1.358 -3.542,2.773 -5.243,4.246c-1.701,1.473 -3.352,3.001 -4.953,4.582c-1.6,1.582 -3.148,3.215 -4.64,4.899c-1.493,1.684 -2.929,3.415 -4.307,5.193c-1.378,1.778 -2.697,3.6 -3.956,5.465c-1.258,1.866 -2.454,3.771 -3.587,5.715c-1.133,1.944 -2.201,3.923 -3.203,5.938c-1.002,2.015 -1.937,4.061 -2.804,6.137c-0.994,2.428 -1.895,4.891 -2.703,7.388c-0.808,2.497 -1.519,5.021 -2.135,7.573c-0.615,2.551 -1.134,5.122 -1.554,7.713c-0.42,2.591 -0.742,5.194 -0.965,7.809c-0.222,2.615 -0.346,5.235 -0.369,7.859c-0.024,2.624 0.052,5.246 0.228,7.864c0.176,2.619 0.45,5.227 0.825,7.825c0.373,2.598 0.845,5.178 1.415,7.74Zm37.95,-71.379c0.361,0 0.722,0.009 1.083,0.027c0.36,0.018 0.72,0.044 1.079,0.079c0.36,0.035 0.717,0.079 1.075,0.133c0.357,0.053 0.713,0.115 1.066,0.185c0.355,0.07 0.707,0.149 1.057,0.238c0.351,0.088 0.698,0.183 1.043,0.288c0.346,0.105 0.688,0.218 1.028,0.34c0.341,0.121 0.677,0.251 1.011,0.39c0.333,0.138 0.663,0.284 0.989,0.438c0.327,0.155 0.649,0.317 0.967,0.487c0.319,0.17 0.632,0.348 0.942,0.533c0.31,0.186 0.615,0.378 0.915,0.579c0.301,0.201 0.595,0.409 0.885,0.623c0.29,0.215 0.574,0.437 0.853,0.667c0.279,0.229 0.553,0.464 0.82,0.707c0.268,0.242 0.529,0.491 0.785,0.747c0.255,0.255 0.504,0.516 0.746,0.784c0.242,0.268 0.478,0.541 0.708,0.82c0.229,0.279 0.45,0.563 0.666,0.853c0.215,0.29 0.423,0.585 0.623,0.885c0.201,0.3 0.394,0.605 0.579,0.915c0.186,0.31 0.364,0.623 0.534,0.942c0.17,0.319 0.333,0.64 0.487,0.967c0.155,0.326 0.301,0.656 0.439,0.989c0.138,0.333 0.268,0.67 0.39,1.01c0.121,0.34 0.234,0.683 0.339,1.029c0.105,0.345 0.201,0.693 0.289,1.043c0.088,0.35 0.167,0.702 0.238,1.056c0.07,0.355 0.132,0.71 0.185,1.067c0.052,0.357 0.097,0.715 0.132,1.075c0.036,0.359 0.062,0.719 0.08,1.079c0.017,0.36 0.026,0.722 0.026,1.083c0,0.36 -0.009,0.722 -0.026,1.082c-0.018,0.36 -0.044,0.721 -0.08,1.079c-0.035,0.36 -0.079,0.717 -0.132,1.075c-0.053,0.357 -0.115,0.713 -0.185,1.067c-0.07,0.354 -0.15,0.706 -0.238,1.057c-0.088,0.35 -0.184,0.698 -0.289,1.043c-0.105,0.345 -0.218,0.688 -0.339,1.028c-0.122,0.34 -0.251,0.677 -0.39,1.01c-0.138,0.333 -0.284,0.663 -0.439,0.989c-0.154,0.327 -0.316,0.649 -0.487,0.967c-0.17,0.319 -0.348,0.632 -0.534,0.942c-0.185,0.31 -0.378,0.615 -0.579,0.915c-0.201,0.301 -0.409,0.595 -0.623,0.885c-0.215,0.29 -0.437,0.574 -0.666,0.853c-0.229,0.279 -0.465,0.552 -0.708,0.82c-0.242,0.268 -0.491,0.529 -0.746,0.784c-0.256,0.256 -0.517,0.505 -0.785,0.747c-0.267,0.242 -0.541,0.478 -0.82,0.707c-0.279,0.229 -0.563,0.451 -0.853,0.667c-0.29,0.215 -0.585,0.423 -0.885,0.623c-0.3,0.201 -0.605,0.393 -0.915,0.579c-0.31,0.186 -0.623,0.364 -0.942,0.534c-0.319,0.17 -0.64,0.332 -0.967,0.487c-0.326,0.154 -0.656,0.301 -0.989,0.439c-0.333,0.138 -0.67,0.268 -1.011,0.389c-0.34,0.122 -0.682,0.235 -1.028,0.34c-0.346,0.105 -0.693,0.201 -1.043,0.289c-0.35,0.088 -0.702,0.166 -1.057,0.237c-0.354,0.07 -0.709,0.132 -1.066,0.185c-0.357,0.053 -0.715,0.097 -1.075,0.133c-0.36,0.035 -0.719,0.062 -1.079,0.079c-0.361,0.018 -0.722,0.027 -1.083,0.027c-0.361,0 -0.722,-0.009 -1.083,-0.027c-0.36,-0.017 -0.72,-0.044 -1.079,-0.079c-0.36,-0.035 -0.717,-0.079 -1.075,-0.133c-0.357,-0.053 -0.713,-0.115 -1.066,-0.185c-0.355,-0.07 -0.707,-0.149 -1.057,-0.237c-0.351,-0.088 -0.698,-0.184 -1.043,-0.289c-0.346,-0.105 -0.688,-0.218 -1.028,-0.34c-0.341,-0.121 -0.677,-0.251 -1.011,-0.389c-0.333,-0.138 -0.663,-0.285 -0.989,-0.439c-0.327,-0.155 -0.649,-0.317 -0.967,-0.487c-0.319,-0.17 -0.632,-0.348 -0.942,-0.534c-0.31,-0.186 -0.615,-0.378 -0.915,-0.579c-0.301,-0.201 -0.595,-0.409 -0.885,-0.623c-0.29,-0.215 -0.574,-0.437 -0.853,-0.667c-0.279,-0.229 -0.553,-0.464 -0.82,-0.707c-0.268,-0.242 -0.529,-0.491 -0.785,-0.747c-0.255,-0.255 -0.504,-0.516 -0.746,-0.784c-0.242,-0.268 -0.478,-0.541 -0.708,-0.82c-0.229,-0.279 -0.45,-0.563 -0.666,-0.853c-0.215,-0.29 -0.423,-0.585 -0.623,-0.885c-0.201,-0.3 -0.394,-0.605 -0.579,-0.915c-0.186,-0.31 -0.364,-0.623 -0.534,-0.942c-0.17,-0.318 -0.333,-0.64 -0.487,-0.967c-0.155,-0.326 -0.301,-0.656 -0.439,-0.989c-0.138,-0.333 -0.268,-0.67 -0.39,-1.01c-0.121,-0.34 -0.234,-0.683 -0.339,-1.028c-0.105,-0.346 -0.201,-0.694 -0.289,-1.043c-0.088,-0.351 -0.167,-0.703 -0.238,-1.057c-0.07,-0.355 -0.132,-0.71 -0.185,-1.067c-0.052,-0.357 -0.097,-0.715 -0.132,-1.075c-0.036,-0.359 -0.062,-0.719 -0.08,-1.079c-0.017,-0.36 -0.026,-0.722 -0.026,-1.082c0,-0.361 0.009,-0.722 0.027,-1.083c0.018,-0.36 0.045,-0.72 0.081,-1.079c0.035,-0.359 0.08,-0.717 0.133,-1.074c0.053,-0.357 0.115,-0.713 0.186,-1.066c0.071,-0.354 0.15,-0.706 0.238,-1.056c0.088,-0.351 0.184,-0.698 0.289,-1.043c0.105,-0.345 0.218,-0.688 0.34,-1.027c0.122,-0.34 0.252,-0.677 0.39,-1.01c0.138,-0.333 0.285,-0.663 0.439,-0.989c0.155,-0.326 0.317,-0.649 0.487,-0.966c0.17,-0.319 0.348,-0.632 0.534,-0.942c0.186,-0.31 0.378,-0.614 0.579,-0.915c0.201,-0.3 0.409,-0.595 0.623,-0.885c0.215,-0.29 0.437,-0.574 0.667,-0.853c0.229,-0.278 0.464,-0.552 0.707,-0.819c0.242,-0.268 0.491,-0.529 0.746,-0.784c0.256,-0.256 0.517,-0.505 0.785,-0.747c0.267,-0.242 0.541,-0.477 0.819,-0.707c0.279,-0.229 0.563,-0.451 0.853,-0.666c0.29,-0.215 0.585,-0.423 0.885,-0.623c0.301,-0.201 0.605,-0.394 0.915,-0.58c0.31,-0.185 0.623,-0.364 0.942,-0.533c0.318,-0.17 0.64,-0.333 0.966,-0.487c0.326,-0.155 0.656,-0.301 0.989,-0.439c0.333,-0.138 0.67,-0.269 1.01,-0.39c0.34,-0.122 0.682,-0.235 1.027,-0.341c0.346,-0.105 0.694,-0.201 1.043,-0.289c0.35,-0.088 0.702,-0.167 1.056,-0.238c0.354,-0.07 0.709,-0.133 1.066,-0.186c0.357,-0.053 0.715,-0.097 1.075,-0.134c0.359,-0.035 0.719,-0.062 1.079,-0.08c0.36,-0.018 0.721,-0.027 1.082,-0.028Z" style="fill:#189caa;fill-rule:nonzero;"/><path d="M155.984,91.74c0.538,3.505 0.906,7.026 1.105,10.566c0.199,3.539 0.227,7.08 0.084,10.623c-0.143,3.542 -0.455,7.07 -0.938,10.582c-0.482,3.513 -1.132,6.994 -1.95,10.443l-1.586,10.505l27.243,12.676l-0.223,-26.25c-0.007,-1.002 -0.049,-2.002 -0.124,-3.001c-0.075,-0.998 -0.183,-1.994 -0.325,-2.985c-0.142,-0.992 -0.316,-1.977 -0.524,-2.957c-0.208,-0.98 -0.449,-1.952 -0.722,-2.916c-0.274,-0.963 -0.579,-1.917 -0.916,-2.86c-0.337,-0.943 -0.706,-1.874 -1.106,-2.792c-0.4,-0.918 -0.83,-1.822 -1.291,-2.712c-0.46,-0.889 -0.951,-1.762 -1.47,-2.618c-0.519,-0.857 -1.066,-1.695 -1.642,-2.514c-0.576,-0.82 -1.179,-1.619 -1.808,-2.398c-0.629,-0.779 -1.284,-1.536 -1.964,-2.272c-0.681,-0.735 -1.385,-1.446 -2.113,-2.134c-0.728,-0.688 -1.478,-1.351 -2.251,-1.988c-0.773,-0.637 -1.566,-1.248 -2.38,-1.832c-0.813,-0.584 -1.645,-1.14 -2.496,-1.668c-0.852,-0.528 -1.719,-1.027 -2.604,-1.497Z" style="fill:#189caa;fill-rule:nonzero;"/><path d="M69.815,134.124l-0.017,-0.041c-0.825,-3.459 -1.481,-6.949 -1.968,-10.47c-0.488,-3.522 -0.804,-7.058 -0.951,-10.61c-0.146,-3.553 -0.12,-7.103 0.077,-10.654c0.197,-3.55 0.564,-7.081 1.103,-10.596c-0.884,0.47 -1.751,0.97 -2.601,1.498c-0.85,0.528 -1.681,1.085 -2.494,1.669c-0.813,0.585 -1.605,1.196 -2.377,1.833c-0.772,0.638 -1.522,1.301 -2.248,1.989c-0.727,0.688 -1.431,1.399 -2.111,2.134c-0.679,0.735 -1.333,1.492 -1.962,2.271c-0.628,0.78 -1.23,1.578 -1.805,2.398c-0.575,0.82 -1.121,1.657 -1.641,2.514c-0.518,0.856 -1.007,1.729 -1.468,2.618c-0.459,0.889 -0.889,1.793 -1.289,2.711c-0.399,0.917 -0.767,1.848 -1.104,2.79c-0.337,0.943 -0.641,1.896 -0.914,2.858c-0.273,0.963 -0.514,1.935 -0.721,2.914c-0.207,0.979 -0.382,1.964 -0.523,2.955c-0.142,0.991 -0.25,1.985 -0.324,2.984c-0.075,0.998 -0.115,1.998 -0.123,2.999l-0.224,26.25l27.244,-12.683l-1.56,-10.33Z" style="fill:#189caa;fill-rule:nonzero;"/><path d="M129.238,81.764c0,0.281 -0.007,0.563 -0.021,0.844c-0.014,0.282 -0.034,0.563 -0.062,0.843c-0.027,0.28 -0.061,0.559 -0.103,0.838c-0.041,0.278 -0.089,0.556 -0.144,0.832c-0.055,0.276 -0.117,0.55 -0.185,0.824c-0.069,0.274 -0.143,0.545 -0.225,0.814c-0.082,0.269 -0.17,0.536 -0.265,0.802c-0.094,0.265 -0.196,0.527 -0.304,0.788c-0.107,0.26 -0.222,0.518 -0.342,0.772c-0.12,0.255 -0.247,0.506 -0.379,0.755c-0.133,0.248 -0.272,0.493 -0.416,0.735c-0.145,0.242 -0.296,0.479 -0.452,0.713c-0.156,0.234 -0.319,0.464 -0.487,0.69c-0.168,0.226 -0.341,0.448 -0.519,0.666c-0.179,0.217 -0.363,0.431 -0.552,0.639c-0.189,0.209 -0.383,0.413 -0.582,0.612c-0.199,0.199 -0.403,0.393 -0.612,0.582c-0.208,0.189 -0.422,0.373 -0.639,0.552c-0.218,0.179 -0.44,0.351 -0.666,0.519c-0.226,0.168 -0.456,0.33 -0.69,0.487c-0.234,0.156 -0.473,0.307 -0.713,0.451c-0.242,0.145 -0.487,0.284 -0.735,0.417c-0.248,0.133 -0.5,0.259 -0.754,0.379c-0.255,0.12 -0.512,0.235 -0.772,0.342c-0.26,0.108 -0.523,0.209 -0.788,0.304c-0.265,0.095 -0.533,0.183 -0.803,0.265c-0.269,0.081 -0.541,0.156 -0.813,0.225c-0.274,0.068 -0.548,0.13 -0.824,0.185c-0.277,0.055 -0.554,0.102 -0.832,0.144c-0.279,0.041 -0.559,0.075 -0.839,0.103c-0.28,0.028 -0.561,0.048 -0.842,0.062c-0.282,0.014 -0.563,0.02 -0.844,0.02c-0.282,0 -0.563,-0.007 -0.844,-0.02c-0.281,-0.014 -0.562,-0.034 -0.842,-0.062c-0.28,-0.028 -0.559,-0.062 -0.839,-0.103c-0.278,-0.042 -0.555,-0.089 -0.832,-0.144c-0.276,-0.055 -0.55,-0.117 -0.824,-0.185c-0.273,-0.069 -0.544,-0.144 -0.813,-0.225c-0.269,-0.082 -0.537,-0.17 -0.803,-0.265c-0.265,-0.095 -0.527,-0.196 -0.788,-0.304c-0.26,-0.107 -0.518,-0.222 -0.772,-0.342c-0.255,-0.12 -0.506,-0.247 -0.754,-0.379c-0.249,-0.133 -0.494,-0.272 -0.735,-0.417c-0.241,-0.144 -0.479,-0.295 -0.713,-0.451c-0.234,-0.156 -0.464,-0.319 -0.69,-0.487c-0.226,-0.168 -0.448,-0.341 -0.666,-0.519c-0.217,-0.179 -0.431,-0.363 -0.639,-0.552c-0.209,-0.189 -0.413,-0.383 -0.612,-0.582c-0.199,-0.199 -0.393,-0.403 -0.582,-0.612c-0.189,-0.208 -0.373,-0.422 -0.552,-0.639c-0.179,-0.218 -0.351,-0.44 -0.519,-0.666c-0.168,-0.226 -0.33,-0.456 -0.487,-0.69c-0.156,-0.234 -0.307,-0.472 -0.452,-0.713c-0.144,-0.242 -0.283,-0.487 -0.416,-0.735c-0.133,-0.249 -0.259,-0.5 -0.379,-0.755c-0.121,-0.254 -0.235,-0.512 -0.342,-0.772c-0.108,-0.26 -0.21,-0.523 -0.304,-0.788c-0.095,-0.265 -0.183,-0.532 -0.265,-0.802c-0.082,-0.269 -0.156,-0.541 -0.225,-0.814c-0.068,-0.274 -0.13,-0.548 -0.185,-0.824c-0.055,-0.276 -0.103,-0.554 -0.144,-0.832c-0.042,-0.278 -0.076,-0.558 -0.103,-0.838c-0.028,-0.28 -0.048,-0.561 -0.062,-0.843c-0.014,-0.281 -0.021,-0.563 -0.021,-0.844c0,-0.282 0.007,-0.563 0.021,-0.844c0.014,-0.282 0.034,-0.562 0.062,-0.843c0.027,-0.28 0.061,-0.559 0.103,-0.838c0.041,-0.278 0.089,-0.556 0.144,-0.832c0.055,-0.276 0.117,-0.55 0.185,-0.824c0.069,-0.273 0.143,-0.545 0.225,-0.814c0.082,-0.269 0.17,-0.536 0.265,-0.802c0.094,-0.265 0.196,-0.527 0.304,-0.788c0.107,-0.26 0.221,-0.518 0.342,-0.772c0.12,-0.255 0.247,-0.506 0.379,-0.754c0.133,-0.249 0.272,-0.494 0.416,-0.735c0.145,-0.241 0.296,-0.479 0.452,-0.713c0.156,-0.234 0.319,-0.464 0.487,-0.69c0.168,-0.226 0.341,-0.448 0.519,-0.666c0.179,-0.217 0.363,-0.431 0.552,-0.639c0.189,-0.209 0.383,-0.413 0.582,-0.612c0.199,-0.199 0.403,-0.393 0.612,-0.582c0.208,-0.189 0.422,-0.373 0.639,-0.552c0.218,-0.179 0.44,-0.351 0.666,-0.519c0.226,-0.168 0.456,-0.33 0.69,-0.487c0.234,-0.156 0.473,-0.307 0.713,-0.451c0.242,-0.145 0.487,-0.284 0.735,-0.417c0.248,-0.133 0.5,-0.259 0.754,-0.379c0.254,-0.12 0.512,-0.235 0.772,-0.342c0.26,-0.108 0.523,-0.209 0.788,-0.304c0.265,-0.095 0.533,-0.183 0.803,-0.265c0.269,-0.081 0.541,-0.156 0.813,-0.225c0.274,-0.068 0.548,-0.129 0.824,-0.185c0.277,-0.055 0.554,-0.102 0.832,-0.144c0.279,-0.041 0.559,-0.075 0.839,-0.103c0.28,-0.028 0.561,-0.048 0.842,-0.062c0.282,-0.014 0.563,-0.02 0.844,-0.02c0.282,0 0.563,0.007 0.844,0.02c0.281,0.014 0.562,0.034 0.842,0.062c0.28,0.028 0.559,0.062 0.839,0.103c0.278,0.042 0.555,0.089 0.832,0.144c0.276,0.056 0.55,0.117 0.824,0.185c0.273,0.069 0.544,0.144 0.813,0.225c0.269,0.082 0.537,0.17 0.803,0.265c0.265,0.095 0.527,0.196 0.788,0.304c0.26,0.107 0.517,0.222 0.772,0.342c0.255,0.12 0.506,0.247 0.754,0.379c0.249,0.133 0.494,0.272 0.735,0.417c0.241,0.144 0.479,0.295 0.713,0.451c0.234,0.156 0.464,0.319 0.69,0.487c0.226,0.168 0.448,0.341 0.666,0.519c0.217,0.179 0.431,0.363 0.639,0.552c0.209,0.189 0.413,0.383 0.612,0.582c0.199,0.199 0.393,0.403 0.582,0.612c0.189,0.208 0.373,0.422 0.552,0.639c0.179,0.218 0.351,0.44 0.519,0.666c0.168,0.226 0.33,0.456 0.487,0.69c0.156,0.234 0.307,0.473 0.452,0.713c0.144,0.242 0.283,0.487 0.416,0.735c0.133,0.248 0.259,0.5 0.379,0.754c0.12,0.254 0.235,0.512 0.342,0.772c0.108,0.26 0.21,0.523 0.304,0.788c0.095,0.265 0.183,0.532 0.265,0.802c0.082,0.269 0.156,0.541 0.225,0.814c0.068,0.274 0.13,0.548 0.185,0.824c0.055,0.276 0.103,0.554 0.144,0.832c0.042,0.278 0.076,0.558 0.103,0.838c0.028,0.281 0.048,0.561 0.062,0.843c0.014,0.281 0.021,0.563 0.021,0.844Z" style="fill:#189caa;fill-rule:nonzero;"/><path d="M94.271,135.936l-5.124,20.413l45.767,0l-5.124,-20.413l-35.52,0Z" style="fill:#189caa;fill-rule:nonzero;"/></g></svg>