<?xml version="1.0" encoding="UTF-8" standalone="no"?><!DOCTYPE svg PUBLIC "-//W3C//DTD SVG 1.1//EN" "http://www.w3.org/Graphics/SVG/1.1/DTD/svg11.dtd"><svg width="100%" height="100%" viewBox="0 0 224 212" version="1.1" xmlns="http://www.w3.org/2000/svg" xmlns:xlink="http://www.w3.org/1999/xlink" xml:space="preserve" xmlns:serif="http://www.serif.com/" style="fill-rule:evenodd;clip-rule:evenodd;stroke-linejoin:round;stroke-miterlimit:2;"><rect id="Running-Shoe" serif:id="Running Shoe" x="0" y="0.384" width="223.502" height="211.507" style="fill:none;"/><g id="Running-Shoe1" serif:id="Running Shoe"><path id="Hex" d="M138.902,178.374l-21.11,9.976c-3.721,1.761 -8.361,1.761 -12.082,0l-77.499,-36.621c-3.776,-1.784 -6.234,-5.168 -6.234,-8.965l0,-73.242c0,-3.797 2.458,-7.184 6.234,-8.968l18.225,-8.612c-0.932,1.354 -1.828,2.734 -2.689,4.14c-0.191,0.311 -0.357,0.637 -0.497,0.974c-0.229,0.552 -0.42,1.019 -0.573,1.444c-0.174,0.039 -0.346,0.084 -0.518,0.137c-0.619,0.189 -1.231,0.402 -1.836,0.635c-0.605,0.233 -1.201,0.488 -1.788,0.764l-0.015,0.007c-0.583,0.275 -1.157,0.57 -1.72,0.886l-0.005,0.003c-0.561,0.315 -1.112,0.65 -1.65,1.003l-0.009,0.006c-0.542,0.357 -1.07,0.733 -1.586,1.129c-0.514,0.394 -1.013,0.805 -1.498,1.234l-0.006,0.006c-0.483,0.428 -0.95,0.874 -1.401,1.334l-0.006,0.006c-0.453,0.464 -0.89,0.943 -1.309,1.438c-0.418,0.492 -0.818,1 -1.2,1.521l-0.006,0.008c-0.38,0.52 -0.743,1.055 -1.086,1.6l-0.009,0.015c-0.343,0.547 -0.666,1.105 -0.97,1.675l-0.003,0.005c-0.304,0.572 -0.587,1.153 -0.849,1.745c-0.264,0.594 -0.507,1.197 -0.727,1.808l-0.001,0.004c-0.219,0.609 -0.417,1.224 -0.592,1.847c-0.177,0.623 -0.33,1.254 -0.462,1.888c-0.131,0.635 -0.24,1.274 -0.326,1.917c-0.037,0.276 -0.057,0.555 -0.061,0.834c-0.017,1.265 0.032,2.527 0.147,3.787l0,0.005c0.116,1.259 0.295,2.508 0.54,3.748c0.245,1.24 0.555,2.467 0.929,3.675c0.373,1.209 0.809,2.395 1.306,3.558c0.497,1.163 1.054,2.297 1.669,3.403c0.616,1.106 1.288,2.178 2.017,3.214c0.727,1.035 1.506,2.03 2.339,2.984c0.105,0.121 0.211,0.24 0.317,0.36l0,36.077c0,0.357 0.255,0.826 0.882,1.122l77.496,36.621c0.665,0.313 1.477,0.313 2.145,0l10.752,-5.081c0.529,0.124 1.059,0.237 1.589,0.339c4.53,1.206 9.11,2.076 13.738,2.609Zm-39.047,-151.675l5.855,-2.767c1.878,-0.888 3.961,-1.327 6.038,-1.327c2.074,0 4.166,0.439 6.044,1.327l77.496,36.621c3.776,1.784 6.237,5.171 6.237,8.968l0,73.242c0,3.538 -2.139,6.716 -5.483,8.577c-0.072,-0.535 -0.206,-1.063 -0.4,-1.571c0.204,-0.198 0.403,-0.401 0.596,-0.61c0.232,-0.251 0.457,-0.509 0.672,-0.773l0.013,-0.015c0.211,-0.261 0.413,-0.527 0.608,-0.8c0.2,-0.28 0.389,-0.566 0.57,-0.858l0.023,-0.037c0.175,-0.287 0.342,-0.577 0.499,-0.875c0.161,-0.304 0.313,-0.613 0.454,-0.928c0.139,-0.309 0.267,-0.621 0.386,-0.938c0.121,-0.323 0.232,-0.651 0.331,-0.981l0.003,-0.009c0.098,-0.326 0.185,-0.653 0.262,-0.984c0.079,-0.336 0.146,-0.676 0.202,-1.017l0.001,-0.005c0.055,-0.336 0.099,-0.672 0.133,-1.009l0.003,-0.031c0.032,-0.338 0.054,-0.676 0.065,-1.016c0.012,-0.32 0.012,-0.669 0.001,-1.017c-0.011,-0.345 -0.033,-0.689 -0.067,-1.032c-0.033,-0.344 -0.078,-0.686 -0.134,-1.026c-0.054,-0.337 -0.121,-0.672 -0.197,-1.006l-0.002,-0.007c-0.076,-0.329 -0.163,-0.657 -0.26,-0.982c-0.097,-0.327 -0.206,-0.652 -0.325,-0.973l-0.01,-0.028c-0.119,-0.317 -0.247,-0.63 -0.386,-0.939l-0.005,-0.012c-0.138,-0.306 -0.285,-0.609 -0.442,-0.906c-0.164,-0.312 -0.338,-0.617 -0.523,-0.916c-0.177,-0.288 -0.363,-0.57 -0.559,-0.846c-0.2,-0.283 -0.409,-0.559 -0.627,-0.827c-0.185,-0.228 -0.375,-0.45 -0.572,-0.667c-1.197,-1.382 -2.966,-2.851 -5.152,-4.3l0,-53.88c0,-0.357 -0.255,-0.826 -0.882,-1.122l-77.496,-36.621c-0.328,-0.155 -0.697,-0.237 -1.075,-0.237c-0.375,0 -0.741,0.082 -1.069,0.237l-5.516,2.607c-0.069,-0.62 -0.195,-1.223 -0.378,-1.816l-0.006,-0.02c-0.285,-0.915 -0.694,-1.771 -1.229,-2.567l-0.007,-0.01c-0.531,-0.788 -1.163,-1.487 -1.898,-2.095l-0.002,-0.002c-0.554,-0.458 -1.151,-0.851 -1.787,-1.176Z" style="fill:#189caa;stroke:#189caa;stroke-width:0.5px;"/><g><path id="path1-408" d="M75.103,40.526c7.693,7.156 13.1,20.277 8.118,31.399c1.336,0.758 2.724,1.406 4.162,1.947c1.438,0.54 2.91,0.964 4.415,1.274c1.505,0.309 3.025,0.498 4.559,0.569c1.534,0.07 3.066,0.021 4.593,-0.149c3.104,-0.007 6.135,0.461 9.094,1.405c6.033,1.966 9.737,6.051 9.954,11.212l-0.23,8.201c-0.057,1.247 -0.045,2.495 0.036,3.741c0.081,1.246 0.232,2.483 0.451,3.713c0.219,1.229 0.506,2.443 0.86,3.641c0.355,1.198 0.774,2.372 1.259,3.523c0.485,1.151 1.032,2.271 1.642,3.361c0.61,1.091 1.278,2.143 2.004,3.16c0.727,1.015 1.508,1.988 2.342,2.917c0.836,0.929 1.72,1.81 2.652,2.64c0.932,-0.687 1.658,-1.547 2.18,-2.58c0.287,-0.573 2.468,-4.531 10.442,-6.137c3.928,-0.599 7.877,-0.819 11.848,-0.659l1.233,0.029c-2.238,-3.027 -3.959,-6.326 -5.163,-9.892l-1.464,-3.786c-2.649,1.064 -7.945,3.251 -10.585,4.33c-0.092,0.061 -0.187,0.115 -0.285,0.165c-0.098,0.05 -0.197,0.094 -0.3,0.133c-0.102,0.039 -0.207,0.073 -0.312,0.1c-0.106,0.028 -0.214,0.05 -0.322,0.066c-0.109,0.016 -0.218,0.027 -0.328,0.031c-0.109,0.005 -0.219,0.003 -0.328,-0.003c-0.11,-0.008 -0.218,-0.021 -0.326,-0.04c-0.108,-0.019 -0.215,-0.044 -0.32,-0.074c-0.106,-0.031 -0.208,-0.067 -0.311,-0.109c-0.101,-0.042 -0.2,-0.088 -0.296,-0.141c-0.097,-0.052 -0.19,-0.11 -0.28,-0.172c-0.09,-0.062 -0.176,-0.13 -0.259,-0.202c-0.083,-0.072 -0.162,-0.147 -0.236,-0.227c-0.074,-0.08 -0.144,-0.164 -0.21,-0.253c-0.066,-0.087 -0.126,-0.179 -0.183,-0.273c-0.055,-0.094 -0.106,-0.191 -0.151,-0.292c-0.037,-0.106 -0.069,-0.213 -0.095,-0.321c-0.026,-0.109 -0.046,-0.22 -0.06,-0.33c-0.014,-0.112 -0.022,-0.222 -0.023,-0.335c-0.002,-0.112 0.003,-0.224 0.013,-0.335c0.01,-0.112 0.028,-0.222 0.05,-0.332c0.022,-0.11 0.05,-0.218 0.085,-0.324c0.035,-0.106 0.074,-0.211 0.12,-0.313c0.046,-0.102 0.097,-0.202 0.153,-0.298c0.057,-0.097 0.119,-0.19 0.185,-0.28c0.067,-0.09 0.138,-0.176 0.214,-0.258c0.076,-0.082 0.157,-0.16 0.241,-0.234c0.085,-0.074 0.173,-0.142 0.265,-0.206c0.093,-0.064 0.188,-0.123 0.286,-0.176c0.099,-0.053 0.199,-0.101 0.303,-0.144c0.104,-0.042 0.209,-0.079 0.317,-0.11c0.107,-0.031 0.216,-0.056 0.327,-0.075c2.642,-1.073 7.98,-3.235 10.614,-4.33l-3.098,-8.114c-3.975,1.623 -9.667,3.978 -13.626,5.591c-0.174,0.067 -0.352,0.118 -0.535,0.151c-0.183,0.033 -0.368,0.048 -0.554,0.044c-0.186,-0.003 -0.37,-0.023 -0.553,-0.062c-0.182,-0.039 -0.359,-0.095 -0.529,-0.169c-0.171,-0.073 -0.334,-0.162 -0.488,-0.267c-0.154,-0.105 -0.297,-0.223 -0.427,-0.356c-0.131,-0.132 -0.247,-0.276 -0.349,-0.432c-0.103,-0.155 -0.189,-0.319 -0.26,-0.491c-0.071,-0.172 -0.125,-0.349 -0.161,-0.532c-0.036,-0.183 -0.054,-0.367 -0.054,-0.554c0,-0.186 0.017,-0.37 0.053,-0.553c0.036,-0.183 0.089,-0.361 0.159,-0.533c0.07,-0.173 0.157,-0.336 0.259,-0.492c0.102,-0.156 0.219,-0.3 0.349,-0.433c0.131,-0.132 0.272,-0.252 0.426,-0.357c0.154,-0.106 0.317,-0.195 0.487,-0.269c0,0 11.106,-4.548 13.741,-5.62l-3.098,-8.115c0,0 -12.273,5.083 -14.515,5.994c-0.174,0.067 -0.352,0.118 -0.535,0.151c-0.183,0.033 -0.368,0.048 -0.554,0.045c-0.186,-0.003 -0.37,-0.024 -0.552,-0.063c-0.183,-0.039 -0.359,-0.094 -0.53,-0.168c-0.171,-0.074 -0.334,-0.163 -0.488,-0.267c-0.154,-0.105 -0.296,-0.224 -0.426,-0.356c-0.131,-0.132 -0.248,-0.277 -0.35,-0.432c-0.103,-0.156 -0.189,-0.319 -0.26,-0.491c-0.071,-0.172 -0.125,-0.349 -0.161,-0.533c-0.035,-0.183 -0.054,-0.367 -0.054,-0.553c0,-0.186 0.017,-0.371 0.054,-0.554c0.035,-0.183 0.088,-0.36 0.158,-0.533c0.07,-0.172 0.157,-0.336 0.259,-0.492c0.102,-0.156 0.219,-0.299 0.349,-0.432c0.131,-0.133 0.272,-0.253 0.426,-0.358c0.153,-0.105 0.316,-0.195 0.486,-0.268c4.31,-1.772 10.342,-4.242 14.659,-6.051l-3.528,-9.204c-1.221,-2.579 -5.039,-6.269 -11.991,-4.33l-9.209,3.527l-2.783,0.459c-0.201,0.029 -4.992,0.86 -8.749,-6.452c-0.842,-1.528 -2.97,-2.944 -3.271,-16.316c-0.003,-0.279 -0.046,-0.552 -0.128,-0.818c-0.083,-0.266 -0.202,-0.516 -0.357,-0.747c-0.156,-0.231 -0.341,-0.436 -0.556,-0.614c-0.215,-0.177 -0.451,-0.321 -0.708,-0.429c-1.064,-0.368 -2.145,-0.672 -3.245,-0.913c-1.099,-0.24 -2.209,-0.414 -3.329,-0.523c-1.12,-0.109 -2.243,-0.151 -3.368,-0.127c-1.125,0.024 -2.245,0.114 -3.36,0.271c-1.114,0.157 -2.215,0.378 -3.304,0.665c-1.088,0.286 -2.156,0.637 -3.202,1.049c-1.047,0.413 -2.066,0.887 -3.056,1.42c-0.991,0.534 -1.947,1.124 -2.867,1.771c1.619,1.72 2.117,1.868 4.36,4.072Z" style="fill:#189caa;fill-rule:nonzero;"/><path id="path2-10" d="M63.514,86.636c7.859,-5.993 16.072,-14.467 15.892,-24.747c-0.292,-9.94 -7.028,-16.11 -13.138,-21.85c-3.234,2.853 -6.237,5.93 -9.011,9.232c-2.774,3.302 -5.288,6.79 -7.541,10.467c-0.641,1.544 -0.454,1.787 0.115,4.329c0.712,2.102 1.536,4.159 2.473,6.17c0.937,2.012 1.981,3.966 3.131,5.864c1.15,1.898 2.401,3.726 3.751,5.488c1.35,1.761 2.793,3.443 4.328,5.046Z" style="fill:#189caa;fill-rule:nonzero;"/><path id="path3-311" d="M191.113,132.344c-5.103,-6.051 -24.653,-13.17 -35.239,-12.829c-2.992,-0.137 -5.981,-0.085 -8.967,0.155c-6.885,0.773 -8.606,3.412 -8.606,3.44c-0.224,0.432 -0.471,0.849 -0.741,1.253c-0.269,0.405 -0.561,0.793 -0.873,1.166c-0.312,0.373 -0.644,0.727 -0.994,1.064c-0.351,0.336 -0.72,0.653 -1.105,0.949c-0.386,0.297 -0.786,0.571 -1.201,0.823c-0.415,0.253 -0.843,0.482 -1.284,0.689c-0.44,0.206 -0.891,0.387 -1.351,0.544c-0.46,0.157 -0.927,0.288 -1.402,0.394c-1.379,0.2 -2.765,0.296 -4.159,0.287c-6.71,-0.272 -13.288,-1.342 -19.737,-3.212l-0.975,-0.316c8.403,18.513 35.843,29.398 66.439,23.886c1.285,-0.282 14.899,-3.453 15.777,-3.641c0.187,-0.046 0.372,-0.098 0.555,-0.156c0.183,-0.057 0.364,-0.121 0.544,-0.19c0.179,-0.07 0.356,-0.144 0.53,-0.226c0.174,-0.081 0.346,-0.168 0.515,-0.259c0.169,-0.092 0.334,-0.189 0.497,-0.292c0.163,-0.103 0.322,-0.211 0.477,-0.324c0.156,-0.113 0.307,-0.232 0.455,-0.355c0.148,-0.123 0.292,-0.25 0.431,-0.382c0.139,-0.132 0.274,-0.269 0.405,-0.41c0.131,-0.141 0.257,-0.286 0.378,-0.435c0.121,-0.15 0.237,-0.303 0.349,-0.459c0.112,-0.157 0.217,-0.317 0.318,-0.48c0.1,-0.164 0.196,-0.33 0.286,-0.501c0.09,-0.17 0.175,-0.342 0.253,-0.517c0.079,-0.176 0.151,-0.353 0.219,-0.533c0.067,-0.18 0.129,-0.362 0.184,-0.546c0.055,-0.184 0.105,-0.369 0.148,-0.557c0.044,-0.187 0.081,-0.375 0.112,-0.565c0.031,-0.19 0.056,-0.381 0.075,-0.572c0.018,-0.191 0.031,-0.382 0.037,-0.574c0.007,-0.193 0.007,-0.385 0.001,-0.577c-0.006,-0.192 -0.018,-0.383 -0.037,-0.574c-0.018,-0.192 -0.043,-0.382 -0.074,-0.572c-0.03,-0.189 -0.067,-0.378 -0.111,-0.566c-0.043,-0.187 -0.093,-0.373 -0.148,-0.557c-0.054,-0.183 -0.116,-0.366 -0.183,-0.546c-0.067,-0.18 -0.14,-0.358 -0.219,-0.534c-0.079,-0.175 -0.163,-0.348 -0.253,-0.517c-0.089,-0.17 -0.184,-0.337 -0.285,-0.501c-0.1,-0.163 -0.206,-0.324 -0.317,-0.481c-0.111,-0.157 -0.227,-0.311 -0.348,-0.459c-0.121,-0.15 -0.247,-0.295 -0.377,-0.436l-0,-0Z" style="fill:#189caa;fill-rule:nonzero;"/><path id="path4-50" d="M108.266,82.421c-2.52,-0.806 -5.102,-1.169 -7.746,-1.09c-1.721,0.144 -3.444,0.162 -5.167,0.052c-1.723,-0.109 -3.43,-0.345 -5.119,-0.708c-1.688,-0.362 -3.341,-0.846 -4.959,-1.451c-1.618,-0.606 -3.181,-1.329 -4.692,-2.166c-1.747,2.635 -3.71,5.098 -5.887,7.39c-2.177,2.292 -4.538,4.379 -7.079,6.259c3.187,2.93 6.602,5.568 10.241,7.915c0.115,0.086 13.512,8.544 19.967,18.724l1.118,1.577l8.204,2.667c5.595,1.643 11.304,2.618 17.126,2.925c-0.863,-0.955 -1.679,-1.95 -2.445,-2.983c-0.767,-1.034 -1.483,-2.102 -2.145,-3.206c-0.663,-1.103 -1.272,-2.236 -1.825,-3.398c-0.553,-1.163 -1.048,-2.348 -1.486,-3.559c-0.439,-1.211 -0.817,-2.439 -1.135,-3.687c-0.319,-1.246 -0.576,-2.507 -0.772,-3.778c-0.196,-1.272 -0.33,-2.551 -0.403,-3.835c-0.072,-1.285 -0.081,-2.571 -0.029,-3.857l0.229,-8.029c-0.344,-3.412 -3.901,-5.076 -5.995,-5.763Z" style="fill:#189caa;fill-rule:nonzero;"/><path id="path5-84" d="M99.487,129.647c-2.767,-3.805 -6.207,-9.12 -9.122,-12.759c-4.597,-5.156 -9.789,-9.62 -15.577,-13.392c-1.545,-0.998 -3.053,-2.048 -4.525,-3.151c-1.471,-1.103 -2.904,-2.255 -4.296,-3.457c-1.392,-1.202 -2.74,-2.451 -4.046,-3.746c-1.305,-1.295 -2.564,-2.634 -3.777,-4.017c-1.213,-1.382 -2.375,-2.805 -3.489,-4.269c-1.113,-1.463 -2.175,-2.963 -3.185,-4.5c-1.01,-1.537 -1.965,-3.107 -2.866,-4.71c-0.901,-1.603 -1.746,-3.235 -2.534,-4.897c-0.766,-1.757 -1.387,-3.563 -1.865,-5.419c-0.461,0.141 -0.917,0.299 -1.368,0.473c-0.45,0.173 -0.894,0.363 -1.33,0.568c-0.436,0.206 -0.865,0.426 -1.286,0.663c-0.42,0.236 -0.833,0.487 -1.236,0.752c-0.403,0.266 -0.796,0.545 -1.179,0.839c-0.383,0.293 -0.755,0.599 -1.117,0.919c-0.361,0.32 -0.71,0.653 -1.048,0.997c-0.337,0.345 -0.663,0.702 -0.974,1.07c-0.312,0.368 -0.611,0.746 -0.896,1.136c-0.285,0.389 -0.555,0.789 -0.812,1.197c-0.256,0.409 -0.498,0.826 -0.725,1.252c-0.227,0.426 -0.438,0.86 -0.633,1.301c-0.196,0.441 -0.376,0.888 -0.54,1.342c-0.163,0.454 -0.311,0.913 -0.442,1.378c-0.131,0.464 -0.246,0.932 -0.343,1.405c-0.098,0.472 -0.178,0.948 -0.242,1.426c-0.014,1.022 0.026,2.041 0.119,3.058c0.093,1.018 0.239,2.028 0.437,3.03c0.198,1.002 0.448,1.991 0.75,2.967c0.301,0.977 0.653,1.934 1.054,2.874c0.401,0.939 0.851,1.855 1.349,2.748c0.497,0.893 1.039,1.757 1.627,2.593c0.587,0.836 1.216,1.639 1.888,2.409c0.671,0.771 1.381,1.504 2.129,2.201l6.54,5.018c6.128,3.559 18.213,10.334 24.384,13.764c0.115,0.057 10.499,6.596 14.2,13.277l3.443,5.075c0.23,0.459 6.197,11.413 14.201,16.345c0.516,0.401 12.593,9.319 24.555,11.528c7.263,1.955 14.655,2.977 22.175,3.068c10,-0.631 29.778,0.227 40.22,-19.728c-0.373,0.114 -7.745,1.835 -7.745,1.835c-34.622,9.354 -69.418,0.405 -81.873,-24.46Z" style="fill:#189caa;fill-rule:nonzero;"/></g></g></svg>