<?xml version="1.0" encoding="UTF-8" standalone="no"?><!DOCTYPE svg PUBLIC "-//W3C//DTD SVG 1.1//EN" "http://www.w3.org/Graphics/SVG/1.1/DTD/svg11.dtd"><svg width="100%" height="100%" viewBox="0 0 224 212" version="1.1" xmlns="http://www.w3.org/2000/svg" xmlns:xlink="http://www.w3.org/1999/xlink" xml:space="preserve" xmlns:serif="http://www.serif.com/" style="fill-rule:evenodd;clip-rule:evenodd;stroke-linejoin:round;stroke-miterlimit:2;"><rect id="Running" x="0" y="0" width="223.502" height="211.507" style="fill:none;"/><path id="Hex" d="M48.287,160.831l-20.076,-9.487c-3.776,-1.784 -6.234,-5.168 -6.234,-8.965l0,-73.242c0,-3.797 2.458,-7.184 6.234,-8.968l77.499,-36.621c1.878,-0.888 3.961,-1.327 6.038,-1.327c2.074,0 4.166,0.439 6.044,1.327l24.506,11.58c-4.303,0.778 -7.574,2.814 -9.852,5.538l-19.623,-9.273c-0.328,-0.155 -0.697,-0.237 -1.075,-0.237c-0.375,0 -0.741,0.082 -1.069,0.237l-77.496,36.621c-0.627,0.296 -0.882,0.765 -0.882,1.122l0,36.952l-0.317,0.469l-0.536,1.703l-0.189,1.832l0.184,1.819l0.534,1.715l0.323,0.476l0,28.276c0,0.357 0.255,0.826 0.882,1.122l20.423,9.651l-3.089,3.662l-0.024,0.028c-1.006,1.205 -1.74,2.562 -2.206,3.988Zm113.045,-116.707l33.956,16.046c3.776,1.784 6.237,5.171 6.237,8.968l0,73.242c0,3.797 -2.464,7.181 -6.237,8.965l-77.496,36.621c-3.721,1.761 -8.361,1.761 -12.082,0l-35.322,-16.691l6.799,-6.978l33.491,15.827c0.665,0.313 1.477,0.313 2.145,0l77.496,-36.621c0.627,-0.296 0.882,-0.765 0.882,-1.122l0,-59.425c0.542,-1.225 0.881,-2.545 0.998,-3.913c0.177,-2.09 -0.162,-4.123 -0.998,-5.972l-0,-3.932c0,-0.357 -0.255,-0.826 -0.882,-1.122l-27.314,-12.907c0.149,-1.156 0.198,-2.329 0.145,-3.499c-0.118,-2.598 -0.726,-5.167 -1.818,-7.485Z" style="fill:#189caa;"/><g><path d="M144.702,41.858c14.69,-1.416 15.45,21.167 1.225,21.282c-13.237,0.105 -14.573,-19.996 -1.225,-21.282Z" style="fill:#189caa;fill-rule:nonzero;"/><path d="M185.224,78.45c-0.122,1.443 -0.828,2.761 -1.99,3.649l-22.571,18.367c-1.591,1.257 -3.614,1.778 -5.604,1.471c-2.022,-0.307 -3.768,-1.441 -4.9,-3.128l-9.371,-14.073c-0.367,-0.521 -0.948,-0.858 -1.561,-0.89c-0.643,-0.03 -1.255,0.246 -1.653,0.737l-16.016,19.347c-0.369,0.429 -0.521,0.98 -0.461,1.533c0.062,0.551 0.369,1.042 0.797,1.379l19.599,14.534c3.337,2.483 5.267,6.254 5.267,10.424c0.03,4.14 -1.868,7.973 -5.207,10.486l-23.978,18.582c-1.99,1.503 -4.838,1.411 -6.706,-0.246c-1.102,-0.98 -1.746,-2.329 -1.808,-3.832c-0.03,-1.503 0.521,-2.883 1.563,-3.925l19.813,-19.776c0.459,-0.459 0.673,-1.104 0.581,-1.717c-0.092,-0.643 -0.459,-1.196 -1.04,-1.503l-22.357,-12.234c-0.03,-0.03 -0.092,-0.06 -0.122,-0.06c0,0 -0.03,0 -0.03,-0.032l-3.062,-1.685c-2.756,-1.503 -4.686,-3.986 -5.481,-7.022c-0.797,-3.006 -0.337,-6.102 1.255,-8.739l0.03,-0.062c0.032,-0.03 0.062,-0.09 0.062,-0.122l18.13,-29.281c0.307,-0.491 0.397,-1.104 0.214,-1.657c-0.154,-0.551 -0.551,-1.01 -1.102,-1.257l-11.576,-5.334c-0.276,-0.124 -0.551,-0.184 -0.858,-0.184c-0.491,0 -0.95,0.152 -1.317,0.491l-17.18,14.993c-2.205,1.932 -5.636,1.747 -7.626,-0.461c-1.01,-1.134 -1.501,-2.575 -1.377,-4.078c0.122,-1.501 0.826,-2.852 1.99,-3.801l19.048,-15.546c2.603,-2.146 6.217,-2.727 9.371,-1.533l24.253,9.107c5.82,2.176 10.626,6.408 13.506,11.897l8.574,16.28c0.276,0.553 0.796,0.922 1.409,1.044c0.581,0.122 1.225,-0.032 1.684,-0.431l19.324,-16.157c2.144,-1.747 5.267,-1.503 7.135,0.551c1.012,1.074 1.471,2.453 1.349,3.894Z" style="fill:#189caa;fill-rule:nonzero;"/><path d="M103.734,120.028l-14.332,21.157c-0.797,1.164 -1.716,2.299 -2.696,3.311l-23.182,23.794c-0.98,0.98 -2.267,1.563 -3.644,1.563c-1.379,0.03 -2.696,-0.521 -3.676,-1.503c-1.93,-1.87 -2.052,-4.966 -0.337,-7.022l21.284,-25.233c0.06,-0.062 0.122,-0.154 0.152,-0.216l17.456,-27.319c0.06,0.429 0.152,0.828 0.275,1.257c1.072,4.11 3.736,7.512 7.472,9.536l1.226,0.675Z" style="fill:#189caa;fill-rule:nonzero;"/><path d="M77.489,96.511c0,1.104 -0.92,2.024 -2.022,2.024l-25.142,0c-1.132,0 -2.02,-0.92 -2.02,-2.024c0,-1.104 0.888,-2.024 2.02,-2.024l25.142,0c1.102,0 2.022,0.92 2.022,2.024Z" style="fill:#189caa;fill-rule:nonzero;"/><path d="M74.519,110.093c0,1.134 -0.89,2.024 -2.022,2.024l-32.217,0c-1.102,0 -2.02,-0.89 -2.02,-2.024c0,-1.104 0.918,-2.024 2.02,-2.024l32.217,0c1.102,0 2.022,0.89 2.022,2.024Z" style="fill:#189caa;fill-rule:nonzero;"/><path d="M68.546,123.493c0,1.104 -0.918,2.024 -2.022,2.024l-16.2,0c-1.132,0 -2.02,-0.92 -2.02,-2.024c0,-1.134 0.888,-2.024 2.02,-2.024l16.17,0c1.134,0.03 2.052,0.92 2.052,2.024Z" style="fill:#189caa;fill-rule:nonzero;"/></g></svg>