<?xml version="1.0" encoding="UTF-8" standalone="no"?><!DOCTYPE svg PUBLIC "-//W3C//DTD SVG 1.1//EN" "http://www.w3.org/Graphics/SVG/1.1/DTD/svg11.dtd"><svg width="100%" height="100%" viewBox="0 0 224 212" version="1.1" xmlns="http://www.w3.org/2000/svg" xmlns:xlink="http://www.w3.org/1999/xlink" xml:space="preserve" xmlns:serif="http://www.serif.com/" style="fill-rule:evenodd;clip-rule:evenodd;stroke-linejoin:round;stroke-miterlimit:2;"><rect id="Salad" x="0" y="-0" width="223.502" height="211.507" style="fill:none;"/><path id="Hex" d="M73.989,172.727l-45.534,-21.516c-3.765,-1.779 -6.216,-5.153 -6.216,-8.939l0,-73.028c0,-3.786 2.451,-7.163 6.216,-8.942l6.32,-2.986c-1.203,3.27 -1.777,6.927 -1.529,10.897c-0.504,0.294 -0.712,0.708 -0.712,1.031l0,5.418c-2.256,5.092 -2.228,10.903 0,15.938l0,11.829c-1.371,1.207 -2.268,2.945 -2.366,4.904c-0.129,2.562 -0.117,5.055 0.012,7.466c0.043,0.81 0.223,1.582 0.516,2.294c-0.158,0.756 -0.192,1.542 -0.091,2.325c0.408,3.173 1.052,6.209 1.929,9.107l0,13.746c0,0.356 0.254,0.824 0.879,1.119l10.742,5.076c7.05,7.411 16.817,13.344 29.413,17.628l-0,4.587l0.421,2.045Zm-5.795,-131.202l37.533,-17.736c1.872,-0.885 3.949,-1.323 6.02,-1.323c2.068,0 4.154,0.438 6.026,1.323l34.955,16.518c-5.075,-0.547 -10.357,0.349 -15.155,3.002l-24.753,-11.697c-0.327,-0.155 -0.695,-0.237 -1.072,-0.237c-0.374,0 -0.739,0.082 -1.066,0.237l-3.372,1.593c-7.66,-1.309 -15.852,0.136 -22.965,4.852l-0.004,0.003c-3.193,2.12 -5.987,4.801 -8.235,7.898c-2.469,-2.023 -5.145,-3.482 -7.911,-4.433Zm100.755,6.447l26.094,12.331c3.765,1.779 6.219,5.156 6.219,8.942l0,73.028c0,3.786 -2.457,7.16 -6.219,8.939l-45.529,21.515l0.42,-2.044l0,-4.588c12.589,-4.284 22.362,-10.216 29.413,-17.627l10.742,-5.076c0.625,-0.295 0.879,-0.762 0.879,-1.119l0,-13.755c0.876,-2.893 1.521,-5.923 1.931,-9.09c0.102,-0.788 0.069,-1.577 -0.091,-2.338c0.292,-0.711 0.472,-1.481 0.515,-2.29c0.129,-2.411 0.14,-4.904 0.011,-7.466c-0.098,-1.959 -0.995,-3.696 -2.366,-4.903l0,-33.185c0,-0.356 -0.254,-0.824 -0.879,-1.119l-13.935,-6.585c-0.993,-5.43 -3.619,-10.037 -7.205,-13.569Zm-32.211,130.791l-18.964,8.962c-3.71,1.756 -8.337,1.756 -12.047,0l-18.965,-8.962l21.503,0l2.416,1.142c0.663,0.313 1.472,0.313 2.138,0l2.416,-1.142l21.502,0Z" style="fill:#189caa;stroke:#189caa;stroke-width:0.5px;"/><path id="Salad1" serif:id="Salad" d="M80.568,164.53l0,6.152c0,0.591 0.494,1.081 1.08,1.081l60.205,0c0.591,0 1.081,-0.494 1.081,-1.081l0,-6.152l-62.367,0Zm-43.399,-50.104l149.164,0c0.116,-2.177 0.126,-4.428 0.01,-6.742l-149.185,0c-0.116,2.314 -0.105,4.565 0.011,6.742Zm148.788,4.101l-148.41,0c1.053,8.202 3.904,15.349 8.545,21.439c6.902,9.072 17.802,15.888 32.706,20.463l65.906,0c14.893,-4.575 25.807,-11.391 32.705,-20.463c4.641,-6.093 7.485,-13.241 8.548,-21.439Zm-136.493,-14.944l9.086,0c-10.72,-10.849 -7.866,-29.051 5.732,-36.055c0.958,-0.501 2.155,-0.153 2.697,0.791l6.332,10.976c0.058,0.078 0.105,0.164 0.153,0.262l7.744,13.422c0.058,0.078 0.105,0.153 0.146,0.242l5.974,10.358l1.023,0c-2.929,-3.79 -4.562,-8.471 -4.562,-13.394c0,-5.551 2.059,-10.617 5.462,-14.486c0.61,-1.613 0.88,-3.336 0.801,-5.039c-0.279,-6.335 -5.21,-11.48 -11.532,-12.02l0,-0.01c-0.637,-0.048 -1.238,-0.406 -1.585,-0.997c-12.251,-20.654 -42.134,-8.093 -35.853,15.196l-0.011,0c0.164,0.611 0.048,1.286 -0.385,1.809c-4.109,5.06 -3.713,12.418 0.917,16.99c1.432,1.422 3.209,2.494 5.189,3.094c1.034,0.242 1.722,1.239 1.555,2.293c-0.334,2.282 0.041,4.558 1.115,6.568Zm15.647,0l17.512,0l-3.76,-6.51c-6.738,3.637 -14.941,-1.238 -14.941,-8.907c0,-3.569 1.864,-6.81 4.821,-8.635l-4.273,-7.4c-11.412,7.479 -11.122,24.415 0.641,31.453Zm28.795,0l11.579,0c-1.016,-0.116 -1.807,-0.976 -1.807,-2.03l0,-2.32c0,-1.133 0.916,-2.05 2.049,-2.05c1.132,0 2.049,0.917 2.049,2.05l0,2.32c0,1.054 -0.784,1.914 -1.797,2.03l11.569,0c1.797,-1.586 3.276,-3.531 4.31,-5.725c5.585,-11.74 -2.949,-25.53 -16.131,-25.53c-4.931,0 -9.393,2.003 -12.623,5.233c-0.126,0.127 -0.252,0.263 -0.368,0.386c-0.174,0.385 -0.454,0.696 -0.791,0.9c-2.543,3.084 -4.067,7.042 -4.067,11.344c-0.004,5.199 2.219,10.026 6.028,13.391Zm29.197,0l7.634,0c1.913,-11.913 7.55,-22.872 16.111,-31.391c0.801,-0.792 2.097,-0.792 2.892,0.01c0.79,0.791 0.79,2.088 -0.011,2.883c-7.791,7.748 -12.98,17.697 -14.866,28.502l8.245,0c-2.135,-16.288 13.329,-28.744 28.475,-23.848c-0.444,-1.855 -1.286,-3.596 -2.503,-5.096c-0.427,-0.522 -0.553,-1.198 -0.385,-1.809c6.284,-23.288 -23.612,-35.851 -35.86,-15.192c-0.348,0.59 -0.948,0.948 -1.575,0.996l0,0.011c-4.225,0.368 -7.966,2.804 -9.994,6.52c-0.269,0.494 -0.501,0.996 -0.706,1.508c-0.105,1.034 -0.3,2.061 -0.58,3.056c-0.078,0.28 -0.153,0.56 -0.252,0.833c-0.048,0.965 0.01,1.935 0.184,2.883c0.116,0.205 7.75,5.831 7.75,16.751c0.004,4.913 -1.629,9.594 -4.559,13.384Zm24.124,0l35.23,0c1.807,-10.842 -6.564,-20.812 -17.611,-20.812c-11.047,0 -19.425,9.972 -17.618,20.812Zm-76.441,-20.511c-3.239,2.088 -3.731,6.636 -1.007,9.362c1.855,1.855 4.726,2.309 7.045,1.102l-6.038,-10.464Zm45.795,11.033c0.975,0.56 1.306,1.809 0.744,2.785c-0.559,0.976 -1.797,1.314 -2.776,0.754l-2.018,-1.17c-0.976,-0.559 -1.306,-1.808 -0.744,-2.776c0.553,-0.976 1.797,-1.314 2.776,-0.754l2.018,1.163Zm-19.67,3.542c-0.965,0.56 -2.224,0.232 -2.783,-0.744c-0.569,-0.976 -0.231,-2.225 0.744,-2.794l2.011,-1.16c0.975,-0.57 2.224,-0.232 2.793,0.744c0.559,0.976 0.232,2.225 -0.743,2.784l-2.022,1.17Zm-2.029,-11.364c-0.975,-0.56 -1.316,-1.809 -0.754,-2.785c0.559,-0.975 1.807,-1.314 2.783,-0.754l2.011,1.17c0.975,0.559 1.316,1.798 0.754,2.777c-0.559,0.975 -1.807,1.314 -2.782,0.754l-2.012,-1.163Zm8.794,-7.458c0,-1.123 0.917,-2.041 2.049,-2.041c1.132,0 2.049,0.918 2.049,2.041l0,2.33c0,1.133 -0.917,2.051 -2.049,2.051c-1.132,0 -2.049,-0.918 -2.049,-2.051l0,-2.33Zm10.863,3.92c0.976,-0.56 2.224,-0.232 2.783,0.744c0.569,0.976 0.232,2.225 -0.744,2.794l-2.011,1.16c-0.975,0.56 -2.224,0.232 -2.793,-0.744c-0.559,-0.976 -0.232,-2.225 0.744,-2.784l2.021,-1.17Zm48.261,6.575c0,-1.133 0.917,-2.051 2.049,-2.051c1.133,0 2.039,0.917 2.039,2.051l0,3.036c0,1.133 -0.907,2.051 -2.039,2.051c-1.132,0 -2.049,-0.917 -2.049,-2.051l0,-3.036Zm-9.319,7.416c-0.975,-0.559 -1.316,-1.798 -0.754,-2.777c0.559,-0.975 1.808,-1.314 2.783,-0.754l2.639,1.518c0.965,0.56 1.306,1.809 0.744,2.785c-0.559,0.976 -1.807,1.317 -2.776,0.754l-2.636,-1.525Zm20.694,-3.527c0.975,-0.56 2.223,-0.222 2.783,0.754c0.559,0.976 0.221,2.215 -0.754,2.777l-2.63,1.529c-0.975,0.559 -2.223,0.221 -2.782,-0.754c-0.559,-0.976 -0.221,-2.225 0.754,-2.784l2.629,-1.521Zm-94.728,-39.229c0.153,0.232 0.31,0.465 0.464,0.707c1.885,0.28 3.692,0.89 5.346,1.771c5.654,-11.402 20.878,-14.006 29.944,-4.934c2.291,2.293 3.983,5.176 4.842,8.392c1.507,-1.644 3.335,-2.968 5.364,-3.895c-5.606,-15.066 -23.834,-20.985 -37.193,-12.129c-3.761,2.497 -6.816,5.988 -8.766,10.088Z" style="fill:#189caa;fill-rule:nonzero;"/></svg>