<?xml version="1.0" encoding="UTF-8" standalone="no"?><!DOCTYPE svg PUBLIC "-//W3C//DTD SVG 1.1//EN" "http://www.w3.org/Graphics/SVG/1.1/DTD/svg11.dtd"><svg width="100%" height="100%" viewBox="0 0 224 212" version="1.1" xmlns="http://www.w3.org/2000/svg" xmlns:xlink="http://www.w3.org/1999/xlink" xml:space="preserve" xmlns:serif="http://www.serif.com/" style="fill-rule:evenodd;clip-rule:evenodd;stroke-linejoin:round;stroke-miterlimit:2;"><rect id="Salt-Shaker" serif:id="Salt Shaker" x="0" y="0.384" width="223.502" height="211.507" style="fill:none;"/><path id="Hex" d="M50.642,162.327l-22.43,-10.599c-3.776,-1.784 -6.234,-5.168 -6.234,-8.965l0,-73.242c0,-3.797 2.458,-7.184 6.234,-8.968l77.499,-36.621c1.878,-0.888 3.961,-1.327 6.038,-1.327c2.074,0 4.166,0.439 6.044,1.327l10.706,5.059c-3.24,1.016 -6.551,2.789 -9.949,5.492l-5.726,-2.706c-0.328,-0.155 -0.697,-0.237 -1.075,-0.237c-0.375,0 -0.741,0.082 -1.069,0.237l-77.496,36.621c-0.627,0.296 -0.882,0.765 -0.882,1.122l0,73.242c0,0.357 0.255,0.826 0.882,1.122l11.854,5.602c-0.027,0.314 -0.041,0.629 -0.041,0.945c0,0.359 0.017,0.721 0.053,1.08c0.035,0.36 0.088,0.716 0.159,1.072l0.002,0.008c0.07,0.351 0.158,0.7 0.262,1.043c0.107,0.351 0.229,0.694 0.37,1.033c0.137,0.328 0.289,0.65 0.455,0.962l0.008,0.015c0.172,0.32 0.358,0.63 0.559,0.931c0.198,0.295 0.409,0.58 0.634,0.854c0.23,0.281 0.474,0.55 0.73,0.805c0.251,0.251 0.514,0.49 0.791,0.718l0.004,0.004c0.283,0.233 0.577,0.451 0.883,0.655l0.01,0.006c0.286,0.19 0.582,0.367 0.884,0.531l0.05,0.027c0.303,0.161 0.614,0.308 0.93,0.44l0.05,0.021c0.325,0.133 0.656,0.252 0.991,0.354l0.012,0.003c0.344,0.104 0.69,0.191 1.042,0.261c0.356,0.071 0.716,0.125 1.078,0.16c0.359,0.036 0.717,0.053 1.078,0.053c0.361,0 0.719,-0.017 1.077,-0.053c0.362,-0.035 0.722,-0.089 1.078,-0.16c0.352,-0.07 0.698,-0.157 1.042,-0.261l0.012,-0.003c0.335,-0.102 0.667,-0.22 0.991,-0.354l0.035,-0.015c0.322,-0.134 0.637,-0.283 0.945,-0.446l0.032,-0.017c0.303,-0.163 0.596,-0.338 0.883,-0.527l0.048,-0.032c0.291,-0.195 0.572,-0.403 0.844,-0.626l0.045,-0.037c0.234,-0.195 0.46,-0.398 0.677,-0.61l2.204,1.042c0.059,0.164 0.122,0.326 0.189,0.488c0.138,0.332 0.292,0.66 0.464,0.98c0.168,0.313 0.352,0.62 0.55,0.917c0.201,0.303 0.417,0.594 0.647,0.874l0.001,0.001c-0.175,0.044 -0.349,0.092 -0.522,0.144c-0.344,0.104 -0.682,0.225 -1.012,0.361l-0.021,0.009c-0.33,0.138 -0.654,0.291 -0.97,0.46c-0.313,0.168 -0.621,0.352 -0.917,0.55c-0.303,0.201 -0.594,0.417 -0.874,0.647c-0.281,0.23 -0.55,0.473 -0.805,0.729l-0.021,0.021c-0.238,0.24 -0.464,0.49 -0.68,0.749l-0.02,0.025c-0.228,0.277 -0.442,0.566 -0.643,0.864l-0.019,0.029c-0.024,0.037 -0.048,0.073 -0.072,0.11l-3.446,-1.628c-0.055,-0.057 -0.11,-0.114 -0.166,-0.17c-0.253,-0.253 -0.518,-0.493 -0.794,-0.72l-0.02,-0.017c-0.279,-0.228 -0.567,-0.441 -0.866,-0.64c-0.3,-0.2 -0.609,-0.386 -0.927,-0.555c-0.313,-0.167 -0.631,-0.318 -0.958,-0.454l-0.035,-0.015c-0.325,-0.133 -0.656,-0.252 -0.991,-0.354l-0.012,-0.003c-0.344,-0.104 -0.69,-0.191 -1.042,-0.261c-0.348,-0.07 -0.701,-0.122 -1.056,-0.158c-0.088,-0.009 -0.175,-0.017 -0.263,-0.023Zm116.919,-114.877l27.727,13.103c3.776,1.784 6.237,5.171 6.237,8.968l0,73.242c0,3.797 -2.464,7.181 -6.237,8.965l-77.496,36.621c-3.721,1.761 -8.361,1.761 -12.082,0l-8.502,-4.017c0.079,-0.006 0.158,-0.013 0.236,-0.021c0.36,-0.035 0.718,-0.088 1.074,-0.159l0.008,-0.002c0.353,-0.071 0.704,-0.159 1.049,-0.264c0.335,-0.102 0.667,-0.22 0.991,-0.354l0.035,-0.015c0.322,-0.134 0.637,-0.283 0.945,-0.446l0.032,-0.017c0.31,-0.166 0.611,-0.347 0.902,-0.54l0.029,-0.019c0.304,-0.204 0.598,-0.422 0.88,-0.656c0.263,-0.217 0.515,-0.446 0.758,-0.687l0.021,-0.021c0.256,-0.256 0.498,-0.524 0.729,-0.805c0.229,-0.278 0.444,-0.569 0.644,-0.869c0.2,-0.299 0.386,-0.609 0.555,-0.927c0.027,-0.051 0.054,-0.102 0.081,-0.153l4.502,2.127c0.665,0.313 1.477,0.313 2.145,0l77.496,-36.621c0.627,-0.296 0.882,-0.765 0.882,-1.122l0,-73.242c0,-0.357 -0.255,-0.826 -0.882,-1.122l-12.054,-5.696c-2.234,-5.009 -5.91,-10.076 -10.705,-15.252Zm-80.229,132.214l-6.339,-2.996c0.014,-0.045 0.029,-0.091 0.042,-0.136c0.104,-0.343 0.192,-0.692 0.262,-1.043l0.009,-0.048c0.065,-0.336 0.115,-0.672 0.149,-1.012l0.004,-0.041c0.034,-0.352 0.051,-0.707 0.051,-1.059c0,-0.354 -0.018,-0.707 -0.051,-1.059l-0.004,-0.041c-0.034,-0.339 -0.084,-0.677 -0.149,-1.013l-0.009,-0.048c-0.07,-0.351 -0.158,-0.7 -0.262,-1.043c-0.104,-0.344 -0.225,-0.68 -0.362,-1.012c-0.138,-0.334 -0.292,-0.66 -0.463,-0.98c-0.173,-0.325 -0.363,-0.642 -0.569,-0.948c-0.198,-0.295 -0.41,-0.581 -0.635,-0.855c0.175,-0.044 0.349,-0.092 0.522,-0.144c0.168,-0.051 0.335,-0.106 0.5,-0.164l6.208,2.934c-0.02,0.046 -0.039,0.092 -0.059,0.138l-0.015,0.035c-0.134,0.327 -0.253,0.658 -0.355,0.997c-0.104,0.343 -0.192,0.692 -0.262,1.043l-0.002,0.008c-0.071,0.356 -0.124,0.714 -0.159,1.074c-0.036,0.359 -0.053,0.718 -0.053,1.079c0,0.359 0.017,0.721 0.053,1.08c0.035,0.36 0.088,0.716 0.159,1.072l0.002,0.008c0.07,0.351 0.158,0.7 0.262,1.043c0.103,0.339 0.221,0.67 0.355,0.997l0.015,0.035c0.137,0.328 0.289,0.65 0.455,0.962l0.008,0.015c0.166,0.31 0.347,0.611 0.54,0.902l0.019,0.029c0.043,0.064 0.087,0.128 0.132,0.192Z" style="fill:#189caa;stroke:#189caa;stroke-width:0.5px;"/><g id="Salt-Shaker1" serif:id="Salt Shaker"><path d="M112.781,52.609c-1.203,2.621 -2.26,5.013 -3.194,7.126c-4.538,10.279 -7.04,15.943 -16.614,25.518l-6.09,6.09l30.763,30.764l5.341,-5.341c10.75,-10.75 16.168,-13.097 29.272,-18.764c1.122,-0.484 2.293,-0.991 3.526,-1.528c4.341,-1.892 8.165,-4.661 11.364,-8.228c12.327,-13.752 5.918,-25.502 -7.494,-38.914c-14.718,-14.719 -26.017,-20.456 -40.244,-6.229c-2.776,2.777 -5.004,5.971 -6.63,9.505Zm43.594,0.005c14.382,14.383 16.229,22.594 7.318,32.529c-2.752,3.072 -6.037,5.456 -9.763,7.077c-1.228,0.532 -2.4,1.04 -3.514,1.524c-13.277,5.741 -19.337,8.363 -30.714,19.739l-2.06,2.06l-24.195,-24.195l2.809,-2.809c10.189,-10.189 12.97,-16.492 17.577,-26.931c0.925,-2.097 1.974,-4.472 3.165,-7.056c1.396,-3.035 3.309,-5.783 5.692,-8.166c10.521,-10.521 18.392,-9.063 33.684,6.229Z" style="fill:#189caa;fill-rule:nonzero;"/><path d="M114.957,71.695c-3.166,6.467 -6.8,12.155 -14.143,19.647l16.84,16.841c11.081,-10.744 17.832,-13.663 30.688,-19.222l3.508,-1.521c3.03,-1.318 5.709,-3.262 7.963,-5.777c4.293,-4.786 4.399,-7.619 3.872,-9.967l-48.727,0Z" style="fill:#189caa;fill-rule:nonzero;"/><path d="M72.836,111.484c3.465,11.884 12.79,21.209 24.67,24.67c2.916,0.843 6.057,0.061 8.202,-2.084l8.711,-8.711l-30.788,-30.789l-8.71,8.711c-2.146,2.146 -2.928,5.287 -2.085,8.203Zm31.427,12.867c1.142,1.143 1.142,2.994 0,4.136c-1.142,1.143 -2.998,1.147 -4.14,0.004c-1.147,-1.146 -1.142,-3.002 0,-4.144c1.142,-1.142 2.993,-1.142 4.14,0.004Zm-8.752,6.352c-1.142,1.142 -3.002,1.142 -4.144,0c-1.142,-1.142 -1.138,-2.998 0.004,-4.14c1.143,-1.142 2.994,-1.143 4.136,0c1.143,1.142 1.147,2.998 0.004,4.14Zm2.212,-12.892c1.142,1.142 1.142,2.994 0,4.136c-1.142,1.142 -2.998,1.147 -4.14,0.004c-1.147,-1.146 -1.142,-3.002 0,-4.144c1.142,-1.143 2.993,-1.143 4.14,0.004Zm-9.98,7.581c-1.142,1.142 -3.002,1.142 -4.144,0c-1.142,-1.142 -1.138,-2.998 0.004,-4.14c1.143,-1.143 2.994,-1.143 4.136,0c1.142,1.142 1.147,2.998 0.004,4.14Zm3.44,-14.121c1.142,1.142 1.142,2.993 0,4.136c-1.142,1.142 -2.998,1.146 -4.14,0.004c-1.147,-1.147 -1.142,-3.002 0,-4.144c1.142,-1.143 2.993,-1.143 4.14,0.004Zm-8.752,6.351c-1.142,1.143 -3.002,1.143 -4.144,0c-1.142,-1.142 -1.138,-2.997 0.004,-4.14c1.143,-1.142 2.994,-1.142 4.136,0c1.142,1.143 1.147,2.998 0.004,4.14Zm2.212,-12.892c1.142,1.143 1.142,2.994 0,4.136c-1.143,1.143 -2.998,1.147 -4.14,0.005c-1.147,-1.147 -1.143,-3.002 0,-4.145c1.142,-1.142 2.993,-1.142 4.14,0.004Z" style="fill:#189caa;fill-rule:nonzero;"/><path d="M98.579,150.432c0,0.132 -0.006,0.264 -0.02,0.395c-0.013,0.132 -0.032,0.262 -0.058,0.391c-0.026,0.129 -0.058,0.258 -0.096,0.384c-0.038,0.127 -0.082,0.251 -0.133,0.373c-0.051,0.122 -0.107,0.242 -0.169,0.358c-0.063,0.117 -0.13,0.23 -0.204,0.34c-0.074,0.11 -0.152,0.216 -0.236,0.318c-0.084,0.103 -0.173,0.2 -0.266,0.294c-0.093,0.093 -0.191,0.182 -0.294,0.266c-0.102,0.084 -0.207,0.162 -0.318,0.236c-0.11,0.073 -0.223,0.141 -0.339,0.204c-0.117,0.062 -0.236,0.118 -0.358,0.169c-0.122,0.05 -0.247,0.095 -0.373,0.133c-0.127,0.038 -0.254,0.07 -0.384,0.096c-0.129,0.026 -0.26,0.045 -0.391,0.058c-0.132,0.013 -0.263,0.02 -0.395,0.02c-0.132,0 -0.264,-0.006 -0.395,-0.02c-0.132,-0.013 -0.262,-0.032 -0.391,-0.058c-0.13,-0.026 -0.258,-0.058 -0.384,-0.096c-0.126,-0.038 -0.251,-0.083 -0.373,-0.133c-0.122,-0.051 -0.241,-0.107 -0.358,-0.169c-0.117,-0.063 -0.229,-0.131 -0.34,-0.204c-0.11,-0.074 -0.215,-0.152 -0.318,-0.236c-0.102,-0.085 -0.2,-0.173 -0.293,-0.266c-0.094,-0.093 -0.182,-0.191 -0.266,-0.294c-0.084,-0.102 -0.162,-0.208 -0.236,-0.318c-0.074,-0.11 -0.141,-0.223 -0.204,-0.34c-0.063,-0.116 -0.119,-0.236 -0.169,-0.358c-0.051,-0.122 -0.096,-0.246 -0.134,-0.373c-0.038,-0.126 -0.07,-0.254 -0.096,-0.384c-0.026,-0.13 -0.045,-0.26 -0.059,-0.391c-0.013,-0.132 -0.019,-0.264 -0.019,-0.395c0,-0.132 0.006,-0.264 0.019,-0.395c0.013,-0.132 0.033,-0.262 0.059,-0.392c0.026,-0.129 0.057,-0.258 0.096,-0.384c0.038,-0.127 0.083,-0.251 0.134,-0.373c0.05,-0.122 0.106,-0.241 0.169,-0.358c0.063,-0.117 0.13,-0.23 0.204,-0.34c0.074,-0.11 0.152,-0.216 0.236,-0.318c0.084,-0.102 0.172,-0.2 0.266,-0.294c0.093,-0.093 0.191,-0.182 0.293,-0.265c0.103,-0.084 0.208,-0.163 0.318,-0.236c0.11,-0.074 0.223,-0.142 0.34,-0.204c0.117,-0.063 0.236,-0.119 0.358,-0.17c0.122,-0.05 0.247,-0.095 0.373,-0.133c0.127,-0.038 0.254,-0.07 0.384,-0.096c0.129,-0.026 0.26,-0.045 0.391,-0.058c0.132,-0.013 0.263,-0.02 0.395,-0.02c0.132,0 0.264,0.007 0.395,0.02c0.132,0.013 0.262,0.032 0.391,0.058c0.13,0.026 0.258,0.058 0.384,0.096c0.126,0.038 0.251,0.083 0.373,0.133c0.121,0.051 0.241,0.107 0.358,0.17c0.116,0.062 0.229,0.13 0.339,0.204c0.11,0.073 0.216,0.152 0.318,0.236c0.103,0.084 0.2,0.172 0.294,0.265c0.093,0.094 0.182,0.192 0.266,0.294c0.084,0.102 0.162,0.208 0.236,0.318c0.074,0.11 0.141,0.223 0.204,0.34c0.062,0.117 0.118,0.236 0.169,0.358c0.051,0.122 0.095,0.246 0.133,0.373c0.038,0.126 0.07,0.254 0.096,0.384c0.026,0.13 0.045,0.261 0.058,0.392c0.013,0.132 0.02,0.263 0.02,0.395Z" style="fill:#189caa;fill-rule:nonzero;"/><path d="M78.544,136.487c0,0.132 -0.006,0.264 -0.02,0.395c-0.013,0.132 -0.032,0.262 -0.058,0.391c-0.026,0.13 -0.058,0.258 -0.096,0.384c-0.038,0.126 -0.083,0.251 -0.133,0.373c-0.051,0.122 -0.107,0.241 -0.17,0.358c-0.062,0.117 -0.13,0.229 -0.204,0.339c-0.073,0.11 -0.152,0.216 -0.236,0.319c-0.084,0.102 -0.172,0.2 -0.265,0.293c-0.094,0.094 -0.191,0.182 -0.294,0.266c-0.102,0.084 -0.208,0.162 -0.318,0.236c-0.11,0.074 -0.223,0.141 -0.34,0.204c-0.117,0.062 -0.236,0.119 -0.358,0.169c-0.122,0.051 -0.246,0.095 -0.373,0.133c-0.126,0.038 -0.254,0.07 -0.384,0.096c-0.13,0.026 -0.261,0.045 -0.391,0.059c-0.132,0.013 -0.264,0.019 -0.395,0.019c-0.132,0 -0.265,-0.006 -0.395,-0.019c-0.132,-0.013 -0.262,-0.033 -0.392,-0.059c-0.129,-0.026 -0.258,-0.058 -0.384,-0.096c-0.127,-0.038 -0.251,-0.082 -0.373,-0.133c-0.122,-0.05 -0.241,-0.107 -0.358,-0.169c-0.117,-0.063 -0.23,-0.13 -0.34,-0.204c-0.11,-0.074 -0.216,-0.152 -0.318,-0.236c-0.102,-0.084 -0.2,-0.172 -0.294,-0.266c-0.093,-0.093 -0.182,-0.191 -0.265,-0.293c-0.084,-0.103 -0.163,-0.208 -0.236,-0.319c-0.074,-0.11 -0.142,-0.222 -0.204,-0.339c-0.063,-0.117 -0.119,-0.236 -0.17,-0.358c-0.05,-0.122 -0.095,-0.247 -0.133,-0.373c-0.038,-0.127 -0.07,-0.254 -0.096,-0.384c-0.026,-0.129 -0.045,-0.26 -0.058,-0.391c-0.013,-0.132 -0.02,-0.263 -0.02,-0.395c0,-0.132 0.007,-0.264 0.02,-0.395c0.013,-0.132 0.032,-0.262 0.058,-0.391c0.026,-0.13 0.058,-0.258 0.096,-0.384c0.038,-0.126 0.083,-0.251 0.133,-0.373c0.051,-0.122 0.107,-0.241 0.17,-0.358c0.062,-0.117 0.13,-0.229 0.204,-0.34c0.073,-0.11 0.152,-0.215 0.236,-0.318c0.084,-0.102 0.172,-0.2 0.265,-0.293c0.094,-0.094 0.192,-0.182 0.294,-0.266c0.102,-0.084 0.208,-0.162 0.318,-0.236c0.11,-0.074 0.223,-0.142 0.34,-0.204c0.117,-0.063 0.236,-0.119 0.358,-0.169c0.122,-0.051 0.246,-0.096 0.373,-0.134c0.126,-0.038 0.254,-0.07 0.384,-0.096c0.13,-0.025 0.261,-0.045 0.392,-0.058c0.131,-0.013 0.263,-0.019 0.395,-0.019c0.132,0 0.264,0.006 0.395,0.019c0.131,0.013 0.262,0.033 0.391,0.059c0.129,0.025 0.258,0.057 0.384,0.096c0.127,0.038 0.251,0.083 0.373,0.134c0.122,0.05 0.241,0.106 0.358,0.169c0.117,0.062 0.23,0.13 0.34,0.204c0.11,0.074 0.216,0.152 0.318,0.236c0.103,0.084 0.2,0.172 0.294,0.266c0.093,0.093 0.182,0.191 0.265,0.293c0.084,0.103 0.163,0.208 0.236,0.318c0.074,0.11 0.142,0.223 0.204,0.34c0.063,0.117 0.119,0.236 0.17,0.358c0.05,0.122 0.095,0.247 0.133,0.373c0.038,0.127 0.07,0.254 0.096,0.384c0.026,0.129 0.045,0.26 0.058,0.391c0.013,0.132 0.02,0.263 0.02,0.395Z" style="fill:#189caa;fill-rule:nonzero;"/><path d="M60.063,150.432c0,0.132 -0.006,0.264 -0.019,0.395c-0.013,0.132 -0.033,0.262 -0.059,0.391c-0.026,0.129 -0.058,0.258 -0.096,0.384c-0.038,0.127 -0.083,0.251 -0.134,0.373c-0.05,0.122 -0.106,0.242 -0.169,0.358c-0.063,0.117 -0.13,0.23 -0.204,0.34c-0.074,0.11 -0.152,0.216 -0.236,0.318c-0.084,0.103 -0.172,0.2 -0.266,0.294c-0.093,0.093 -0.191,0.182 -0.293,0.266c-0.103,0.084 -0.208,0.162 -0.318,0.236c-0.11,0.073 -0.223,0.141 -0.34,0.204c-0.117,0.062 -0.236,0.118 -0.358,0.169c-0.122,0.05 -0.247,0.095 -0.373,0.133c-0.127,0.038 -0.254,0.07 -0.384,0.096c-0.129,0.026 -0.26,0.045 -0.391,0.058c-0.132,0.013 -0.263,0.02 -0.395,0.02c-0.132,0 -0.264,-0.006 -0.395,-0.02c-0.132,-0.013 -0.262,-0.032 -0.391,-0.058c-0.13,-0.026 -0.258,-0.058 -0.384,-0.096c-0.126,-0.038 -0.251,-0.083 -0.373,-0.133c-0.121,-0.051 -0.241,-0.107 -0.358,-0.169c-0.116,-0.063 -0.229,-0.131 -0.339,-0.204c-0.11,-0.074 -0.216,-0.152 -0.318,-0.236c-0.103,-0.085 -0.2,-0.173 -0.294,-0.266c-0.093,-0.093 -0.182,-0.191 -0.266,-0.294c-0.084,-0.102 -0.162,-0.208 -0.236,-0.318c-0.074,-0.11 -0.141,-0.223 -0.204,-0.34c-0.062,-0.116 -0.118,-0.236 -0.169,-0.358c-0.051,-0.122 -0.095,-0.246 -0.133,-0.373c-0.038,-0.126 -0.07,-0.254 -0.096,-0.384c-0.026,-0.13 -0.045,-0.26 -0.058,-0.391c-0.013,-0.132 -0.02,-0.264 -0.02,-0.395c0,-0.132 0.006,-0.264 0.02,-0.395c0.013,-0.132 0.032,-0.262 0.058,-0.392c0.026,-0.129 0.058,-0.258 0.096,-0.384c0.038,-0.127 0.082,-0.251 0.133,-0.373c0.051,-0.122 0.107,-0.241 0.169,-0.358c0.063,-0.117 0.13,-0.23 0.204,-0.34c0.074,-0.11 0.152,-0.216 0.236,-0.318c0.084,-0.102 0.173,-0.2 0.266,-0.294c0.093,-0.093 0.191,-0.182 0.294,-0.265c0.102,-0.084 0.207,-0.163 0.318,-0.236c0.11,-0.074 0.223,-0.142 0.339,-0.204c0.117,-0.063 0.236,-0.119 0.358,-0.17c0.122,-0.05 0.247,-0.095 0.373,-0.133c0.127,-0.038 0.254,-0.07 0.384,-0.096c0.129,-0.026 0.26,-0.045 0.391,-0.058c0.132,-0.013 0.263,-0.02 0.395,-0.02c0.132,0 0.264,0.007 0.395,0.02c0.132,0.013 0.262,0.032 0.391,0.058c0.13,0.026 0.258,0.058 0.384,0.096c0.126,0.038 0.251,0.083 0.373,0.133c0.122,0.051 0.241,0.107 0.358,0.17c0.117,0.062 0.229,0.13 0.34,0.204c0.11,0.073 0.215,0.152 0.318,0.236c0.102,0.084 0.2,0.172 0.293,0.265c0.094,0.094 0.182,0.192 0.266,0.294c0.084,0.102 0.162,0.208 0.236,0.318c0.074,0.11 0.141,0.223 0.204,0.34c0.063,0.117 0.119,0.236 0.169,0.358c0.051,0.122 0.096,0.246 0.134,0.373c0.038,0.126 0.07,0.254 0.096,0.384c0.026,0.13 0.045,0.261 0.059,0.392c0.013,0.132 0.019,0.263 0.019,0.395Z" style="fill:#189caa;fill-rule:nonzero;"/><path d="M80.359,155.628c0,0.132 -0.006,0.264 -0.02,0.395c-0.013,0.132 -0.032,0.262 -0.058,0.391c-0.026,0.129 -0.058,0.258 -0.096,0.384c-0.038,0.127 -0.083,0.251 -0.133,0.373c-0.051,0.121 -0.107,0.241 -0.169,0.358c-0.063,0.116 -0.131,0.229 -0.204,0.339c-0.074,0.11 -0.153,0.216 -0.236,0.318c-0.084,0.103 -0.172,0.2 -0.265,0.294c-0.093,0.093 -0.191,0.182 -0.294,0.266c-0.102,0.084 -0.208,0.162 -0.318,0.236c-0.11,0.074 -0.223,0.141 -0.34,0.204c-0.116,0.062 -0.236,0.118 -0.358,0.169c-0.122,0.051 -0.246,0.095 -0.373,0.133c-0.126,0.038 -0.254,0.07 -0.384,0.096c-0.13,0.026 -0.26,0.045 -0.391,0.058c-0.132,0.013 -0.264,0.02 -0.395,0.02c-0.132,0 -0.264,-0.006 -0.395,-0.02c-0.132,-0.013 -0.262,-0.032 -0.391,-0.058c-0.13,-0.026 -0.258,-0.058 -0.384,-0.096c-0.126,-0.038 -0.251,-0.082 -0.373,-0.133c-0.122,-0.051 -0.241,-0.107 -0.358,-0.169c-0.117,-0.063 -0.229,-0.13 -0.34,-0.204c-0.11,-0.074 -0.215,-0.152 -0.318,-0.236c-0.102,-0.084 -0.2,-0.173 -0.294,-0.266c-0.093,-0.093 -0.182,-0.191 -0.265,-0.294c-0.084,-0.102 -0.163,-0.207 -0.236,-0.318c-0.074,-0.11 -0.142,-0.223 -0.204,-0.339c-0.063,-0.117 -0.119,-0.236 -0.169,-0.358c-0.051,-0.122 -0.096,-0.247 -0.134,-0.373c-0.038,-0.126 -0.07,-0.254 -0.096,-0.384c-0.026,-0.13 -0.045,-0.26 -0.058,-0.391c-0.013,-0.132 -0.02,-0.263 -0.02,-0.395c0,-0.132 0.007,-0.264 0.02,-0.395c0.013,-0.132 0.032,-0.262 0.058,-0.391c0.026,-0.13 0.058,-0.258 0.096,-0.384c0.038,-0.126 0.083,-0.251 0.134,-0.373c0.05,-0.122 0.106,-0.241 0.169,-0.358c0.062,-0.117 0.13,-0.229 0.204,-0.34c0.073,-0.11 0.152,-0.215 0.236,-0.318c0.084,-0.102 0.172,-0.2 0.265,-0.294c0.094,-0.093 0.192,-0.182 0.294,-0.265c0.103,-0.084 0.208,-0.163 0.318,-0.236c0.11,-0.074 0.223,-0.142 0.34,-0.204c0.117,-0.063 0.236,-0.119 0.358,-0.169c0.122,-0.051 0.247,-0.096 0.373,-0.134c0.127,-0.038 0.254,-0.07 0.384,-0.096c0.129,-0.026 0.26,-0.045 0.391,-0.058c0.132,-0.013 0.263,-0.02 0.395,-0.02c0.132,0 0.264,0.007 0.395,0.02c0.132,0.013 0.262,0.032 0.391,0.058c0.129,0.026 0.258,0.058 0.384,0.096c0.127,0.038 0.251,0.083 0.373,0.134c0.122,0.05 0.242,0.106 0.358,0.169c0.117,0.062 0.23,0.13 0.34,0.204c0.11,0.073 0.216,0.152 0.318,0.236c0.103,0.084 0.2,0.172 0.294,0.265c0.093,0.094 0.182,0.192 0.265,0.294c0.084,0.103 0.163,0.208 0.236,0.318c0.073,0.11 0.141,0.223 0.204,0.34c0.062,0.117 0.118,0.236 0.169,0.358c0.05,0.122 0.095,0.247 0.133,0.373c0.038,0.127 0.07,0.254 0.096,0.384c0.026,0.129 0.045,0.26 0.058,0.391c0.013,0.132 0.02,0.263 0.02,0.395Z" style="fill:#189caa;fill-rule:nonzero;"/><path d="M53.838,173.33c0,0.132 -0.006,0.264 -0.02,0.395c-0.013,0.132 -0.032,0.262 -0.058,0.391c-0.026,0.129 -0.058,0.258 -0.096,0.384c-0.038,0.127 -0.082,0.251 -0.133,0.373c-0.051,0.122 -0.107,0.242 -0.169,0.358c-0.063,0.117 -0.13,0.23 -0.204,0.34c-0.074,0.11 -0.152,0.216 -0.236,0.318c-0.084,0.103 -0.172,0.2 -0.266,0.294c-0.093,0.093 -0.191,0.182 -0.293,0.265c-0.103,0.085 -0.208,0.163 -0.319,0.236c-0.11,0.073 -0.222,0.141 -0.339,0.204c-0.117,0.062 -0.236,0.118 -0.358,0.169c-0.122,0.05 -0.247,0.095 -0.373,0.133c-0.127,0.038 -0.254,0.07 -0.384,0.096c-0.129,0.026 -0.26,0.045 -0.391,0.058c-0.132,0.013 -0.263,0.02 -0.395,0.02c-0.132,0 -0.264,-0.006 -0.395,-0.02c-0.132,-0.013 -0.262,-0.032 -0.391,-0.058c-0.13,-0.026 -0.258,-0.058 -0.384,-0.096c-0.126,-0.038 -0.251,-0.083 -0.373,-0.133c-0.122,-0.051 -0.241,-0.107 -0.358,-0.169c-0.117,-0.063 -0.229,-0.131 -0.339,-0.204c-0.11,-0.074 -0.216,-0.152 -0.319,-0.236c-0.102,-0.084 -0.2,-0.172 -0.293,-0.265c-0.094,-0.093 -0.182,-0.191 -0.266,-0.294c-0.084,-0.102 -0.162,-0.208 -0.236,-0.318c-0.074,-0.11 -0.141,-0.223 -0.204,-0.34c-0.062,-0.116 -0.119,-0.236 -0.169,-0.358c-0.051,-0.122 -0.095,-0.246 -0.133,-0.373c-0.038,-0.126 -0.07,-0.254 -0.096,-0.384c-0.026,-0.13 -0.045,-0.26 -0.058,-0.391c-0.013,-0.132 -0.02,-0.264 -0.02,-0.395c0,-0.132 0.006,-0.264 0.02,-0.395c0.013,-0.132 0.032,-0.262 0.058,-0.392c0.026,-0.129 0.058,-0.258 0.096,-0.384c0.038,-0.127 0.082,-0.251 0.133,-0.373c0.05,-0.122 0.107,-0.241 0.169,-0.358c0.063,-0.117 0.13,-0.23 0.204,-0.34c0.074,-0.11 0.152,-0.216 0.236,-0.318c0.084,-0.102 0.172,-0.2 0.266,-0.294c0.093,-0.093 0.191,-0.182 0.293,-0.265c0.103,-0.084 0.208,-0.163 0.319,-0.236c0.11,-0.074 0.222,-0.142 0.339,-0.204c0.117,-0.063 0.236,-0.119 0.358,-0.17c0.122,-0.05 0.247,-0.095 0.373,-0.133c0.127,-0.038 0.254,-0.07 0.384,-0.096c0.129,-0.026 0.26,-0.045 0.391,-0.058c0.132,-0.013 0.263,-0.02 0.395,-0.02c0.132,0 0.264,0.006 0.395,0.02c0.132,0.013 0.262,0.032 0.391,0.058c0.13,0.026 0.258,0.058 0.384,0.096c0.126,0.038 0.251,0.083 0.373,0.133c0.122,0.051 0.241,0.107 0.358,0.17c0.117,0.062 0.229,0.13 0.339,0.204c0.11,0.073 0.216,0.152 0.319,0.236c0.102,0.084 0.2,0.172 0.293,0.265c0.094,0.094 0.182,0.192 0.266,0.294c0.084,0.102 0.162,0.208 0.236,0.318c0.074,0.11 0.141,0.223 0.204,0.34c0.062,0.117 0.118,0.236 0.169,0.358c0.051,0.122 0.095,0.246 0.133,0.373c0.038,0.126 0.07,0.254 0.096,0.384c0.026,0.13 0.045,0.261 0.058,0.392c0.013,0.132 0.02,0.263 0.02,0.395Z" style="fill:#189caa;fill-rule:nonzero;"/><path d="M74.511,173.33c0,0.132 -0.007,0.264 -0.02,0.395c-0.013,0.132 -0.033,0.262 -0.058,0.391c-0.026,0.129 -0.058,0.258 -0.096,0.384c-0.038,0.127 -0.083,0.251 -0.134,0.373c-0.05,0.122 -0.106,0.242 -0.169,0.358c-0.062,0.117 -0.13,0.23 -0.204,0.34c-0.074,0.11 -0.152,0.216 -0.236,0.318c-0.084,0.103 -0.172,0.2 -0.266,0.294c-0.093,0.093 -0.191,0.182 -0.293,0.265c-0.103,0.085 -0.208,0.163 -0.318,0.236c-0.11,0.073 -0.223,0.141 -0.34,0.204c-0.117,0.062 -0.236,0.118 -0.358,0.169c-0.122,0.05 -0.247,0.095 -0.373,0.133c-0.127,0.038 -0.254,0.07 -0.384,0.096c-0.129,0.026 -0.26,0.045 -0.391,0.058c-0.132,0.013 -0.263,0.02 -0.395,0.02c-0.132,0 -0.264,-0.006 -0.395,-0.02c-0.132,-0.013 -0.262,-0.032 -0.391,-0.058c-0.129,-0.026 -0.258,-0.058 -0.384,-0.096c-0.127,-0.038 -0.251,-0.083 -0.373,-0.133c-0.122,-0.051 -0.242,-0.107 -0.359,-0.169c-0.116,-0.063 -0.229,-0.131 -0.339,-0.204c-0.11,-0.074 -0.216,-0.152 -0.318,-0.236c-0.103,-0.084 -0.2,-0.172 -0.294,-0.265c-0.093,-0.093 -0.182,-0.191 -0.266,-0.294c-0.084,-0.102 -0.162,-0.208 -0.236,-0.318c-0.073,-0.11 -0.141,-0.223 -0.204,-0.34c-0.062,-0.116 -0.118,-0.236 -0.169,-0.358c-0.05,-0.122 -0.095,-0.246 -0.133,-0.373c-0.038,-0.126 -0.07,-0.254 -0.096,-0.384c-0.026,-0.13 -0.045,-0.26 -0.058,-0.391c-0.013,-0.132 -0.02,-0.264 -0.02,-0.395c0,-0.132 0.006,-0.264 0.02,-0.395c0.013,-0.132 0.032,-0.262 0.058,-0.392c0.026,-0.129 0.058,-0.258 0.096,-0.384c0.038,-0.127 0.083,-0.251 0.133,-0.373c0.051,-0.122 0.107,-0.241 0.169,-0.358c0.063,-0.117 0.131,-0.23 0.204,-0.34c0.074,-0.11 0.152,-0.216 0.236,-0.318c0.085,-0.102 0.173,-0.2 0.266,-0.294c0.093,-0.093 0.191,-0.182 0.294,-0.265c0.102,-0.084 0.207,-0.163 0.318,-0.236c0.11,-0.074 0.223,-0.142 0.339,-0.204c0.117,-0.063 0.236,-0.119 0.359,-0.17c0.121,-0.05 0.246,-0.095 0.373,-0.133c0.126,-0.038 0.254,-0.07 0.384,-0.096c0.13,-0.026 0.26,-0.045 0.391,-0.058c0.132,-0.013 0.264,-0.02 0.395,-0.02c0.132,0 0.264,0.006 0.395,0.02c0.132,0.013 0.262,0.032 0.391,0.058c0.13,0.026 0.258,0.058 0.384,0.096c0.126,0.038 0.251,0.083 0.373,0.133c0.122,0.051 0.241,0.107 0.358,0.17c0.117,0.062 0.229,0.13 0.34,0.204c0.11,0.073 0.215,0.152 0.318,0.236c0.102,0.084 0.2,0.172 0.293,0.265c0.094,0.094 0.182,0.192 0.266,0.294c0.084,0.102 0.162,0.208 0.236,0.318c0.074,0.11 0.142,0.223 0.204,0.34c0.063,0.117 0.119,0.236 0.169,0.358c0.051,0.122 0.096,0.246 0.134,0.373c0.038,0.126 0.07,0.254 0.096,0.384c0.025,0.13 0.045,0.261 0.058,0.392c0.013,0.132 0.02,0.263 0.02,0.395Z" style="fill:#189caa;fill-rule:nonzero;"/><path d="M100.401,173.33c0,0.132 -0.007,0.264 -0.02,0.395c-0.013,0.132 -0.032,0.262 -0.058,0.391c-0.026,0.129 -0.058,0.258 -0.096,0.384c-0.038,0.127 -0.083,0.251 -0.134,0.373c-0.05,0.122 -0.106,0.242 -0.169,0.358c-0.062,0.117 -0.13,0.23 -0.204,0.34c-0.073,0.11 -0.152,0.216 -0.236,0.318c-0.084,0.103 -0.172,0.2 -0.265,0.294c-0.094,0.093 -0.192,0.182 -0.294,0.265c-0.102,0.085 -0.208,0.163 -0.318,0.236c-0.11,0.073 -0.223,0.141 -0.34,0.204c-0.117,0.062 -0.236,0.118 -0.358,0.169c-0.122,0.05 -0.247,0.095 -0.373,0.133c-0.126,0.038 -0.254,0.07 -0.384,0.096c-0.13,0.026 -0.261,0.045 -0.392,0.058c-0.132,0.013 -0.263,0.02 -0.395,0.02c-0.132,0 -0.264,-0.006 -0.395,-0.02c-0.132,-0.013 -0.262,-0.032 -0.391,-0.058c-0.129,-0.026 -0.258,-0.058 -0.384,-0.096c-0.127,-0.038 -0.251,-0.083 -0.373,-0.133c-0.122,-0.051 -0.242,-0.107 -0.358,-0.169c-0.117,-0.063 -0.23,-0.131 -0.34,-0.204c-0.11,-0.074 -0.216,-0.152 -0.318,-0.236c-0.103,-0.084 -0.2,-0.172 -0.294,-0.265c-0.093,-0.093 -0.182,-0.191 -0.265,-0.294c-0.084,-0.102 -0.163,-0.208 -0.236,-0.318c-0.073,-0.11 -0.141,-0.223 -0.204,-0.34c-0.062,-0.116 -0.118,-0.236 -0.169,-0.358c-0.05,-0.122 -0.095,-0.246 -0.133,-0.373c-0.038,-0.126 -0.07,-0.254 -0.096,-0.384c-0.026,-0.13 -0.045,-0.26 -0.058,-0.391c-0.013,-0.132 -0.02,-0.264 -0.02,-0.395c0,-0.132 0.006,-0.264 0.02,-0.395c0.013,-0.132 0.032,-0.262 0.058,-0.392c0.026,-0.129 0.058,-0.258 0.096,-0.384c0.038,-0.127 0.083,-0.251 0.133,-0.373c0.051,-0.122 0.107,-0.241 0.169,-0.358c0.063,-0.117 0.131,-0.23 0.204,-0.34c0.074,-0.11 0.153,-0.216 0.236,-0.318c0.084,-0.102 0.172,-0.2 0.265,-0.294c0.094,-0.093 0.191,-0.182 0.294,-0.265c0.102,-0.084 0.208,-0.163 0.318,-0.236c0.11,-0.074 0.223,-0.142 0.34,-0.204c0.116,-0.063 0.236,-0.119 0.358,-0.17c0.122,-0.05 0.246,-0.095 0.373,-0.133c0.126,-0.038 0.254,-0.07 0.384,-0.096c0.13,-0.026 0.26,-0.045 0.391,-0.058c0.132,-0.013 0.264,-0.02 0.395,-0.02c0.132,0 0.264,0.006 0.395,0.02c0.132,0.013 0.262,0.032 0.392,0.058c0.129,0.026 0.258,0.058 0.384,0.096c0.126,0.038 0.251,0.083 0.373,0.133c0.122,0.051 0.241,0.107 0.358,0.17c0.117,0.062 0.23,0.13 0.34,0.204c0.11,0.073 0.216,0.152 0.318,0.236c0.102,0.084 0.2,0.172 0.294,0.265c0.093,0.094 0.182,0.192 0.265,0.294c0.084,0.102 0.163,0.208 0.236,0.318c0.074,0.11 0.142,0.223 0.204,0.34c0.063,0.117 0.119,0.236 0.169,0.358c0.051,0.122 0.096,0.246 0.134,0.373c0.038,0.126 0.07,0.254 0.096,0.384c0.026,0.13 0.045,0.261 0.058,0.392c0.013,0.132 0.02,0.263 0.02,0.395Z" style="fill:#189caa;fill-rule:nonzero;"/></g></svg>