<?xml version="1.0" encoding="UTF-8" standalone="no"?><!DOCTYPE svg PUBLIC "-//W3C//DTD SVG 1.1//EN" "http://www.w3.org/Graphics/SVG/1.1/DTD/svg11.dtd"><svg width="100%" height="100%" viewBox="0 0 224 212" version="1.1" xmlns="http://www.w3.org/2000/svg" xmlns:xlink="http://www.w3.org/1999/xlink" xml:space="preserve" xmlns:serif="http://www.serif.com/" style="fill-rule:evenodd;clip-rule:evenodd;stroke-linejoin:round;stroke-miterlimit:2;"><rect id="Salt" x="0" y="0.384" width="223.502" height="211.507" style="fill:none;"/><g id="Salt1" serif:id="Salt"><path id="Hex" d="M30.821,152.961l-2.61,-1.233c-3.776,-1.784 -6.234,-5.168 -6.234,-8.965l0,-73.242c0,-3.797 2.458,-7.184 6.234,-8.968l77.499,-36.621c1.878,-0.888 3.961,-1.327 6.038,-1.327c2.074,0 4.166,0.439 6.044,1.327l77.496,36.621c3.776,1.784 6.237,5.171 6.237,8.968l0,73.242c0,3.797 -2.464,7.181 -6.237,8.965l-2.608,1.232c-1.813,-1.419 -4.051,-2.286 -6.397,-2.286l-1.569,0c-0.249,-1.038 -0.736,-2.024 -1.45,-2.873l-0.35,-0.416l7.406,-3.5c0.627,-0.296 0.882,-0.765 0.882,-1.122l0,-73.242c0,-0.357 -0.255,-0.826 -0.882,-1.122l-67.713,-31.998c0.007,-0.15 0.011,-0.3 0.011,-0.451c0,-6.261 -5.012,-10.649 -10.651,-10.649c-5.639,0 -10.651,5.013 -10.651,10.649c0,0.084 0.001,0.168 0.003,0.252l-68.135,32.198c-0.627,0.296 -0.882,0.765 -0.882,1.122l0,73.242c0,0.357 0.255,0.826 0.882,1.122l7.713,3.645c-0.145,0.171 -0.22,0.26 -0.22,0.26c-0.719,0.851 -1.209,1.841 -1.459,2.883l-2,-0c-2.346,0 -4.584,0.868 -6.397,2.287Zm123.081,18.324l-36.11,17.064c-3.721,1.761 -8.361,1.761 -12.082,0l-34.657,-16.377l21.567,0l18.059,8.534c0.665,0.313 1.477,0.313 2.145,0l22.45,-10.609c1.761,1.293 3.891,2.075 6.119,2.075l2.577,0c2.509,0 4.893,-0.991 6.766,-2.588c0.943,0.803 2.014,1.453 3.166,1.901Z" style="fill:#189caa;stroke:#189caa;stroke-width:0.5px;"/><g><path id="path5-75-9" d="M129.579,161.323c0,-1.932 -1.718,-3.649 -3.652,-3.649l-88.709,0c-1.933,0 -3.651,1.718 -3.651,3.649c0,1.932 1.718,3.649 3.651,3.649l88.709,0c2.148,0 3.652,-1.502 3.652,-3.649Z" style="fill:#189caa;fill-rule:nonzero;"/><path id="path6-97-9" d="M141.392,157.674c-1.934,0 -3.651,1.718 -3.651,3.649c0,1.932 1.718,3.649 3.651,3.649l2.577,0c1.934,0 3.651,-1.718 3.651,-3.649c0,-1.932 -1.718,-3.649 -3.651,-3.649l-2.577,0Z" style="fill:#189caa;fill-rule:nonzero;"/><path id="path7-6-0" d="M186.283,157.674l-28.782,0c-1.933,0 -3.651,1.718 -3.651,3.649c0,1.932 1.718,3.649 3.651,3.649l28.782,0c1.934,0 3.652,-1.718 3.652,-3.649c0,-1.932 -1.718,-3.649 -3.652,-3.649Z" style="fill:#189caa;fill-rule:nonzero;"/><path id="path8-53-2" d="M119.054,67.937c1.933,0 3.651,-1.717 3.651,-3.649c0,-1.932 -1.718,-3.649 -3.651,-3.649c-1.933,0 -3.651,1.718 -3.651,3.649c0,1.933 1.718,3.649 3.651,3.649Z" style="fill:#189caa;fill-rule:nonzero;"/><path id="path9-48-4" d="M111.966,32.3c-1.933,0 -3.651,1.718 -3.651,3.649c0,1.933 1.718,3.65 3.651,3.65c1.933,0 3.651,-1.718 3.651,-3.65c0,-2.146 -1.718,-3.649 -3.651,-3.649Z" style="fill:#189caa;fill-rule:nonzero;"/><path id="path10-55-4" d="M107.241,76.525c1.933,0 3.651,-1.718 3.651,-3.649c0,-1.933 -1.718,-3.65 -3.651,-3.65c-1.934,0 -3.652,1.718 -3.652,3.65c0,1.932 1.718,3.649 3.652,3.649Z" style="fill:#189caa;fill-rule:nonzero;"/><path id="path11-5-8" d="M103.589,60.209c0,1.932 1.718,3.649 3.652,3.649c1.933,0 3.651,-1.718 3.651,-3.649c0,-1.932 -1.718,-3.649 -3.651,-3.649c-1.934,0 -3.652,1.718 -3.652,3.649Z" style="fill:#189caa;fill-rule:nonzero;"/><path id="path12-42-0" d="M99.293,88.976l-53.268,63.331l131.882,0l-53.268,-63.331l-0.215,-0.215c-6.873,-6.869 -18.043,-6.869 -24.916,0c0,0.215 0,0.215 -0.215,0.215Zm-20.405,56.461c-1.934,0 -3.651,-1.718 -3.651,-3.649c0,-1.932 1.503,-3.649 3.651,-3.649c1.933,0 3.651,1.718 3.651,3.649c0,1.932 -1.718,3.649 -3.651,3.649Zm14.391,-16.101c-1.933,0 -3.651,-1.718 -3.651,-3.649c0,-1.933 1.503,-3.65 3.651,-3.65c1.934,0 3.652,1.718 3.652,3.65c0,1.932 -1.718,3.649 -3.652,3.649Zm12.673,0c-1.933,0 -3.651,-1.718 -3.651,-3.649c0,-1.933 1.503,-3.65 3.651,-3.65c1.934,0 3.651,1.718 3.651,3.65c0,1.932 -1.718,3.649 -3.651,3.649Zm30.071,-5.582c1.933,0 3.651,1.718 3.651,3.65c0,1.932 -1.718,3.649 -3.651,3.649c-1.934,0 -3.652,-1.718 -3.652,-3.649c0,-1.933 1.718,-3.65 3.652,-3.65Zm-10.954,-12.451c1.933,0 3.651,1.718 3.651,3.649c0,1.933 -1.718,3.65 -3.651,3.65c-1.934,0 -3.651,-1.718 -3.651,-3.65c0,-1.932 1.718,-3.649 3.651,-3.649Zm-6.444,10.734c1.933,0 3.651,1.718 3.651,3.65c0,1.932 -1.718,3.649 -3.651,3.649c-1.934,0 -3.652,-1.718 -3.652,-3.649c0,-1.933 1.718,-3.65 3.652,-3.65Zm-2.577,-7.299c0,1.932 -1.718,3.649 -3.652,3.649c-1.933,0 -3.651,-1.718 -3.651,-3.649c0,-1.932 1.503,-3.649 3.651,-3.649c1.934,0.214 3.652,1.718 3.652,3.649Zm-6.874,-16.101c1.934,0 3.651,1.718 3.651,3.649c0,1.932 -1.718,3.649 -3.651,3.649c-1.933,0 -3.651,-1.718 -3.651,-3.649c0,-1.932 1.503,-3.649 3.651,-3.649Zm-4.081,12.666c0,1.933 -1.504,3.649 -3.652,3.649c-1.933,0 -3.651,-1.717 -3.651,-3.649c0,-1.932 1.718,-3.649 3.651,-3.649c1.934,0 3.652,1.502 3.652,3.649Z" style="fill:#189caa;fill-rule:nonzero;"/></g></g></svg>