<?xml version="1.0" encoding="UTF-8" standalone="no"?><!DOCTYPE svg PUBLIC "-//W3C//DTD SVG 1.1//EN" "http://www.w3.org/Graphics/SVG/1.1/DTD/svg11.dtd"><svg width="100%" height="100%" viewBox="0 0 224 212" version="1.1" xmlns="http://www.w3.org/2000/svg" xmlns:xlink="http://www.w3.org/1999/xlink" xml:space="preserve" xmlns:serif="http://www.serif.com/" style="fill-rule:evenodd;clip-rule:evenodd;stroke-linejoin:round;stroke-miterlimit:2;"><rect id="Scissors" x="0" y="0.384" width="223.502" height="211.507" style="fill:none;"/><g id="Scissors1" serif:id="Scissors"><path id="Hex" d="M21.977,109.149l0,-36.626c0,-3.797 2.458,-7.184 6.234,-8.968l77.499,-36.621c1.878,-0.888 3.961,-1.327 6.038,-1.327c2.074,0 4.166,0.439 6.044,1.327l9.176,4.336c-1.59,2.631 -2.998,5.371 -4.373,8.127l-9.772,-4.618c-0.328,-0.155 -0.697,-0.237 -1.075,-0.237c-0.375,0 -0.741,0.082 -1.069,0.237l-77.496,36.621c-0.627,0.296 -0.882,0.765 -0.882,1.122l0,23.849c-4.175,2.949 -7.65,7.099 -10.103,12.298c-0.075,0.159 -0.149,0.319 -0.221,0.479Zm130.748,-65.707l42.564,20.114c1.969,0.93 3.58,2.296 4.671,3.928c-0.15,-0.128 -0.3,-0.247 -0.451,-0.36l-2.492,-1.309l-2.773,-0.451c-0.954,-0.003 -2.028,0.14 -3.245,0.535c-2.441,0.789 -4.882,1.577 -7.324,2.363l-34.539,-16.322c1.196,-2.833 2.392,-5.665 3.59,-8.497Zm48.801,42.006l0,60.317c0,3.797 -2.464,7.181 -6.237,8.965l-77.496,36.621c-3.477,1.646 -7.759,1.753 -11.341,0.323c4.214,-2.543 7.581,-5.907 9.964,-9.863l73.905,-34.924c0.627,-0.296 0.882,-0.765 0.882,-1.122l-0,-50.918c0.823,-0.491 1.634,-1.009 2.429,-1.557c3.093,-2.133 5.858,-4.661 7.896,-7.842Zm-141.715,84.214l-31.6,-14.932c-3.776,-1.784 -6.234,-5.168 -6.234,-8.965l-0,-11.572c1.912,4.265 4.816,8.076 8.606,11.002c3.942,3.044 8.026,5.109 12.137,6.199l17.459,8.25c-0.759,3.256 -0.884,6.615 -0.368,10.018Z" style="fill:#189caa;stroke:#189caa;stroke-width:0.5px;"/><g><path id="path11-81" d="M80.204,175.137c-4.923,-5.313 -4.57,-13.82 0.777,-18.695c5.373,-4.899 13.702,-4.606 18.544,0.659c4.973,5.404 4.645,14.085 -0.709,18.855c-5.354,4.771 -13.772,4.399 -18.612,-0.819Zm33.017,-12.565c-0.691,-4.673 -2.471,-8.959 -4.678,-13.085c-2.83,-5.286 -3.583,-10.633 -1.039,-16.307c1.806,-4.025 3.511,-8.099 5.187,-12.184l-19.906,5.485c-1.491,3.833 -3.186,8.093 -4.589,11.481c-0.529,1.279 -1.817,1.855 -2.841,2.652c-3.908,3.041 -8.081,5.755 -11.614,9.255c-8.37,8.292 -9.393,18.954 -2.859,29.199c5.607,8.791 17.189,12.53 27.318,8.821c10.874,-3.984 16.72,-13.839 15.021,-25.317" style="fill:#189caa;fill-rule:nonzero;"/><path id="path15-4" d="M39.612,130.723c-4.762,-5.289 -4.376,-13.706 0.855,-18.61c5.231,-4.904 13.908,-4.45 18.845,0.989c4.808,5.293 4.354,13.616 -1.01,18.526c-5.335,4.888 -13.84,4.475 -18.69,-0.904Zm73.815,-26.713l0.006,0.006c2.396,2.623 2.216,6.687 -0.404,9.081c-2.618,2.392 -6.684,2.21 -9.08,-0.412l0,-0.004c-0.002,-0.002 -0.006,-0.003 -0.006,-0.003c-2.397,-2.622 -2.214,-6.688 0.404,-9.08c2.619,-2.394 6.683,-2.21 9.08,0.412l-0,-0Zm-36.072,22.089c5.747,-1.796 17.559,-5.225 17.52,-5.126l22.018,-6.776c19.181,-6.005 38.38,-11.959 57.126,-19.24c5.391,-2.093 10.834,-4.117 15.637,-7.43c2.569,-1.772 4.89,-3.855 6.437,-6.627c1.373,-2.458 1.635,-4.947 -0.088,-7.42c-0.748,-1.074 -1.517,-1.356 -2.847,-0.925c-14.245,4.608 -28.511,9.146 -42.769,13.703c-8.181,2.615 -26.616,8.34 -26.591,8.279c-0.065,0.018 7.291,-17.829 10.63,-25.742c5.819,-13.792 11.619,-27.594 17.488,-41.365c0.547,-1.288 0.335,-2.079 -0.668,-2.921c-2.309,-1.937 -4.811,-1.899 -7.382,-0.752c-2.899,1.292 -5.183,3.417 -7.178,5.816c-3.73,4.487 -6.234,9.727 -8.803,14.907c-8.933,18.018 -16.584,36.606 -24.288,55.169c-0.45,1.085 -1.025,1.699 -2.188,2.055c-5.877,1.796 -11.755,3.593 -17.56,5.594c-5.88,2.025 -11.136,0.796 -16.148,-2.498c-3.911,-2.57 -8.021,-4.727 -12.613,-5.834c-11.28,-2.722 -21.619,2.215 -26.561,12.69c-4.604,9.754 -1.92,21.625 6.333,27.997c9.618,7.427 20.33,7.367 29.338,-0.227c3.803,-3.204 6.88,-7.117 10.261,-10.735c0.884,-0.95 1.573,-2.182 2.894,-2.593" style="fill:#189caa;fill-rule:nonzero;"/></g></g></svg>