<?xml version="1.0" encoding="UTF-8" standalone="no"?><!DOCTYPE svg PUBLIC "-//W3C//DTD SVG 1.1//EN" "http://www.w3.org/Graphics/SVG/1.1/DTD/svg11.dtd"><svg width="100%" height="100%" viewBox="0 0 224 212" version="1.1" xmlns="http://www.w3.org/2000/svg" xmlns:xlink="http://www.w3.org/1999/xlink" xml:space="preserve" xmlns:serif="http://www.serif.com/" style="fill-rule:evenodd;clip-rule:evenodd;stroke-linejoin:round;stroke-miterlimit:2;"><rect id="Settings" x="0" y="0" width="223.502" height="211.507" style="fill:none;"/><path id="Hex" d="M21.977,101.015l0,-31.878c0,-3.797 2.458,-7.184 6.234,-8.968l77.499,-36.621c1.878,-0.888 3.961,-1.327 6.038,-1.327c2.074,0 4.166,0.439 6.044,1.327l31.395,14.836l-0.782,0.15l-10.481,3.994l-0.004,0.002l-0.674,0.405l-24.422,-11.541c-0.328,-0.155 -0.697,-0.237 -1.075,-0.237c-0.375,0 -0.741,0.082 -1.069,0.237l-77.496,36.621c-0.627,0.296 -0.882,0.765 -0.882,1.122l0,8.095l-0.544,0.544l-1.699,2.433l-0.741,2.729l0.029,1.948l0.41,1.762l1.65,2.93l0.894,1.074l0,6.783l-4.326,0.454l-0.014,0.002l-3.137,0.902l-1.512,0.938l-1.335,1.285Zm179.549,-21.124l0,7.783l-0.404,-0.6l-2.332,-1.972l-0.004,-0.002l-2.856,-1.659l2.86,-1.402c0.006,-0.006 2.512,-1.854 2.512,-1.854l0.225,-0.295Zm0,17.495l0,44.993c0,3.797 -2.464,7.181 -6.237,8.965l-77.496,36.621c-3.721,1.761 -8.361,1.761 -12.082,0l-30.588,-14.454l11.987,0l2.93,-0.522l2.454,-1.411l0.033,-0.034l18.154,8.579c0.665,0.313 1.477,0.313 2.145,0l77.496,-36.621c0.627,-0.296 0.882,-0.765 0.882,-1.122l0,-31.83l1.02,-0.138l1.732,-0.627l2.181,-1.582l1.596,-2.343l3.795,-8.473Zm-137.82,70.73l-10.764,-5.086l1.707,-0.962l0.004,-0.003l4.777,-3.978c0.944,0.424 1.902,0.818 2.871,1.181l0.656,6.234l0.748,2.613Zm-27.416,-12.955l-8.078,-3.817c-3.776,-1.784 -6.234,-5.168 -6.234,-8.965l0,-14.877l1.32,1.278l1.534,0.953l3.235,0.903l4.235,0.387l0,6.876l-0.872,1.077l-0.002,0.003l-1.588,2.866l-0.406,1.738l-0.035,1.94l0.735,2.741l1.704,2.445l4.452,4.453Z" style="fill:#189caa;"/><g><path d="M79.294,90.963c6.154,0 12.058,2.445 16.412,6.798c4.351,4.355 6.796,10.259 6.796,16.414c0,6.158 -2.445,12.064 -6.796,16.416c-4.355,4.353 -10.259,6.8 -16.412,6.8c-6.158,0 -12.062,-2.448 -16.412,-6.8c-4.355,-4.353 -6.8,-10.259 -6.8,-16.416c0,-6.156 2.445,-12.06 6.8,-16.414c4.351,-4.353 10.255,-6.798 16.412,-6.798Zm-7.754,-29.119c-0.898,0 -1.52,0.782 -1.621,1.739l-1.132,10.756c-3.604,0.952 -7.062,2.386 -10.281,4.269l-8.413,-6.808c-0.749,-0.608 -1.742,-0.722 -2.378,-0.088l-11.008,11.012c-0.636,0.636 -0.534,1.637 0.082,2.378l6.896,8.286c-1.889,3.235 -3.327,6.712 -4.279,10.339l-10.701,1.123c-0.956,0.102 -1.739,0.722 -1.739,1.623l0,15.571c0,0.898 0.782,1.533 1.739,1.621l10.678,0.976c0.96,3.618 2.409,7.089 4.306,10.314l-6.821,8.425c-0.606,0.749 -0.718,1.742 -0.082,2.378l11.008,11.012c0.636,0.634 1.637,0.532 2.378,-0.084l8.327,-6.933c3.221,1.87 6.682,3.295 10.283,4.236l1.136,10.781c0.1,0.958 0.722,1.742 1.621,1.742l15.569,0c0.898,0 1.533,-0.782 1.621,-1.742l0.986,-10.774c3.6,-0.96 7.054,-2.402 10.267,-4.293l8.345,6.95c0.741,0.616 1.742,0.718 2.378,0.084l11.008,-11.012c0.636,-0.636 0.522,-1.629 -0.084,-2.378l-6.849,-8.46c1.86,-3.203 3.28,-6.643 4.218,-10.226l10.879,-0.995c0.96,-0.088 1.739,-0.722 1.739,-1.621l0,-15.571c0,-0.9 -0.782,-1.52 -1.739,-1.623l-10.846,-1.14c-0.954,-3.589 -2.384,-7.034 -4.259,-10.238l6.939,-8.335c0.616,-0.741 0.718,-1.742 0.082,-2.378l-11.008,-11.012c-0.636,-0.634 -1.629,-0.522 -2.378,0.084l-8.415,6.815c-3.219,-1.879 -6.675,-3.311 -10.277,-4.259l-0.986,-10.803c-0.088,-0.96 -0.722,-1.739 -1.621,-1.739l-15.569,0" style="fill:#189caa;fill-rule:nonzero;"/><path d="M161.687,65.799c1.496,0.225 2.957,0.655 4.34,1.275c4.056,1.817 7.222,5.171 8.806,9.326c1.582,4.154 1.451,8.767 -0.368,12.823c-1.815,4.056 -5.171,7.224 -9.323,8.808c-4.152,1.582 -8.765,1.451 -12.819,-0.368c-4.056,-1.817 -7.222,-5.173 -8.806,-9.323c-1.582,-4.154 -1.451,-8.767 0.366,-12.823c1.498,-3.342 4.05,-6.102 7.265,-7.858c3.215,-1.754 6.917,-2.409 10.539,-1.858Zm7.621,-20.274c-0.524,-0.106 -1.054,0.213 -1.361,0.741l-3.919,6.749c-2.656,-0.436 -5.36,-0.512 -8.034,-0.219l-3.532,-6.974c-0.315,-0.62 -0.935,-0.988 -1.541,-0.755l-10.504,4.003c-0.606,0.231 -0.833,0.921 -0.647,1.59l2.098,7.496c-2.198,1.574 -4.173,3.44 -5.867,5.548l-7.383,-2.419c-0.661,-0.217 -1.361,-0.037 -1.625,0.557l-4.596,10.257c-0.266,0.593 0.061,1.24 0.667,1.582l6.749,3.8c-0.436,2.666 -0.508,5.378 -0.211,8.065l-6.978,3.536c-0.622,0.315 -0.988,0.935 -0.757,1.541l4.001,10.502c0.231,0.606 0.923,0.835 1.594,0.649l7.533,-2.11c1.57,2.184 3.428,4.144 5.523,5.828l-2.433,7.437c-0.217,0.661 -0.039,1.361 0.553,1.627l10.257,4.598c0.593,0.264 1.244,-0.063 1.584,-0.669l3.827,-6.806c2.656,0.43 5.358,0.497 8.032,0.203l3.448,7.04c0.307,0.624 0.937,0.988 1.543,0.757l10.5,-4.003c0.606,-0.229 0.827,-0.919 0.647,-1.592l-2.014,-7.598c2.169,-1.559 4.119,-3.407 5.795,-5.486l7.461,2.554c0.657,0.225 1.361,0.039 1.627,-0.555l4.594,-10.259c0.264,-0.591 -0.065,-1.234 -0.667,-1.584l-6.808,-3.954c0.432,-2.644 0.503,-5.335 0.215,-7.999l7.031,-3.446c0.624,-0.305 0.988,-0.933 0.757,-1.539l-4.003,-10.506c-0.231,-0.606 -0.919,-0.825 -1.59,-0.647l-7.557,2.005c-1.566,-2.188 -3.42,-4.15 -5.511,-5.838l2.538,-7.412c0.225,-0.657 0.035,-1.359 -0.557,-1.625l-10.257,-4.596c-0.074,-0.033 -0.147,-0.057 -0.221,-0.072" style="fill:#189caa;fill-rule:nonzero;"/></g></svg>