<?xml version="1.0" encoding="UTF-8" standalone="no"?><!DOCTYPE svg PUBLIC "-//W3C//DTD SVG 1.1//EN" "http://www.w3.org/Graphics/SVG/1.1/DTD/svg11.dtd"><svg width="100%" height="100%" viewBox="0 0 224 212" version="1.1" xmlns="http://www.w3.org/2000/svg" xmlns:xlink="http://www.w3.org/1999/xlink" xml:space="preserve" xmlns:serif="http://www.serif.com/" style="fill-rule:evenodd;clip-rule:evenodd;stroke-linejoin:round;stroke-miterlimit:2;"><rect id="Shellfish" x="0" y="-0" width="223.502" height="211.507" style="fill:none;"/><path id="Hex" d="M39.237,156.305l-10.781,-5.095c-3.765,-1.779 -6.216,-5.153 -6.216,-8.939l0,-73.028c0,-3.786 2.451,-7.163 6.216,-8.942l77.272,-36.514c1.872,-0.885 3.949,-1.323 6.02,-1.323c2.068,0 4.154,0.438 6.026,1.323l31.516,14.893c-4.199,-0.055 -10.923,-0.098 -21.727,-0.104l-9.781,-4.622l-0.323,-0.567l-1.096,-1.172l-1.651,-1.058c-0.459,-0.213 -1.799,-0.846 -6.076,-0.696l-1.915,0.321l-1.799,0.846l-1.625,1.463l-1.065,1.778l-0.242,0.847l-68.577,32.406c-0.625,0.295 -0.879,0.762 -0.879,1.119l0,12.361c-0.774,1.596 -1.242,2.759 -1.425,3.214l-0.518,2.095l0.008,0.408l-0.251,0.409c-0.436,0.971 -1.172,4.689 -1.234,5.078c-0.823,5.19 -3.054,19.058 -0.034,40.622c0.147,1.049 1.175,6.203 1.327,6.632l0.711,1.474l0.153,0.185l0.019,0.284c0.267,1.425 3.119,7.599 5.723,11.338c0.726,1.042 1.468,2.027 2.225,2.96Zm124.497,-110.797l18.58,8.78l-17.873,0c-0.044,-4.642 -0.265,-7.168 -0.707,-8.78Zm32.067,15.184c3.334,1.856 5.462,5.027 5.462,8.552l0,73.028c0,3.786 -2.457,7.16 -6.219,8.939l-77.269,36.514c-3.71,1.756 -8.337,1.756 -12.047,0l-31.32,-14.8c1.327,0.02 2.707,0.016 3.567,0.009l0.277,0.082c0.338,0.05 0.68,0.075 1.022,0.075l0.302,0c0.434,0 0.864,-0.04 1.285,-0.119c0.421,0.079 0.85,0.119 1.285,0.119l14.116,0l14.42,6.814c0.663,0.313 1.472,0.313 2.138,0l14.556,-6.878c1.425,-0.194 2.758,-0.823 3.813,-1.802l58.9,-27.834c0.625,-0.295 0.879,-0.762 0.879,-1.119l0,-73.028c0,-0.306 -0.187,-0.694 -0.636,-0.984c0.682,-0.181 1.106,-0.349 1.343,-0.453l1.788,-1.113l1.097,-1.169l0.814,-1.408l0.576,-2.686l-0.149,-0.739Z" style="fill:#189caa;stroke:#189caa;stroke-width:0.5px;"/><g id="Shellfish1" serif:id="Shellfish"><path d="M143.879,94.134c-12.29,11.111 -23.659,9.841 -33.017,9.841c-17.014,0 -17.069,0.011 -17.089,-0.083c-0.091,-0.427 0.36,-0.313 1.898,-5.123c4.75,-14.858 -0.095,-29.439 -6.033,-37.011c-0.579,-0.738 0.492,-0.471 0.518,-0.47c0,0 96.412,0 96.43,-0c0.032,-0 4.21,-0.232 1.385,0.337c-0.315,0.063 -30.157,8.114 -30.403,8.252c-0.385,0.216 -1.915,11.5 -10.751,21.296c-1.551,1.72 -2.197,2.3 -2.937,2.962l-13.893,-23.733c-0.296,-0.245 -2.224,-1.844 -4.464,-1.762c-6.585,0.242 -8.142,8.687 -3.133,11.597c6.419,3.729 12.799,-4.631 7.597,-9.835l13.893,23.733Z" style="fill:#189daa;fill-opacity:1;"/><path d="M64.236,97.908c-0.773,-0.791 -6.68,-7.433 -16.253,-9.576c-8.118,-1.817 -10.837,0.238 -10.378,-0.906c0.461,-1.149 3.011,-7.503 8.11,-13.173c13.067,-14.533 27.08,-12.966 34.163,-12.966c6.559,-0 6.716,-0.05 6.784,0.276c0.39,1.854 1.218,1.777 3.39,5.715c3.761,6.818 4.454,12.241 4.759,16.203c0.845,10.977 -3.364,18.46 -3.762,20.25c-0.053,0.238 -0.959,0.24 -1.045,0.24c-7.68,0.013 -12.483,0.431 -18.235,4.975c-0.981,0.775 -0.446,-3.126 -7.534,-11.038Z" style="fill:#189daa;fill-opacity:1;"/><path d="M62.573,100.023c5.61,6.478 5.551,9.261 6.985,11.003c0.545,0.661 -1.416,1.317 -3.656,7.499c-2.431,6.709 -1.458,11.091 -2.045,11.048c-0.583,-0.043 -11.127,-3.988 -22.267,4.333c-3.775,2.82 -4.342,4.51 -4.585,3.823c-0.12,-0.34 -0.877,-4.436 -0.993,-5.268c-2.867,-20.466 -0.766,-33.629 0.015,-38.555c0.044,-0.279 0.515,-3.246 0.796,-3.445c0.127,-0.09 0.137,0.007 1.948,-0.116c6.437,-0.437 15.078,0.476 23.8,9.678Z" style="fill:#189daa;fill-opacity:1;"/><path d="M79.576,166.09l-0.302,0c-0.07,-0.01 -0.075,-0.146 -0.145,-0.156c-0.309,-0.046 -4.86,0.101 -6.956,-0.096c-7.07,-0.662 -19.957,-2.912 -29.416,-16.493c-2.226,-3.196 -4.915,-8.586 -4.571,-8.853c2.662,-2.069 2.307,-2.46 5.018,-4.488c10.116,-7.566 20.032,-3.767 20.807,-3.735c0.943,0.039 0.613,0.496 1.318,2.619c4.792,14.41 16.894,17.115 16.905,17.128c0.189,0.235 -3.037,6.797 -2.656,14.074Z" style="fill:#189daa;fill-opacity:1;"/><path d="M126.431,166.09l-44.285,0c0.088,-1.052 -0.142,-6.007 2.366,-12.342c0.266,-0.671 0.26,-0.662 0.452,-1.353c0.088,-0.315 0.228,-0.253 4.89,-0.254c1.592,-0 1.019,-1.118 5.101,-3.869c11.531,-7.769 27.357,-1.527 30.965,14.884c0.321,1.459 0.246,1.46 0.511,2.934Z" style="fill:#189daa;fill-opacity:1;"/><path d="M156.144,46.514c1.496,1.629 1.305,1.856 1.305,9.604c0,1.701 0.128,2.503 -0.34,2.52c-2.843,0.106 -2.912,-0.027 -2.965,-0.259c-0.097,-0.422 0.204,-7.59 -0.186,-8.319c-0.741,-1.383 -1.104,-1.178 -7.578,-1.178c-34.331,-0 -34.333,0.011 -34.748,-0.089c-3.571,-0.862 -3.012,-4.197 -3.012,-7.49c-0,-3.648 -0.073,-3.834 0.26,-3.846c2.882,-0.101 2.974,-0.017 2.997,0.222c0.209,2.215 -0.637,6.464 0.843,7.496c0.66,0.461 0.73,0.401 12.35,0.401c29.075,0 29.079,-0.009 29.333,0.068c1.153,0.35 1.103,0.448 1.741,0.868Z" style="fill:#189daa;fill-opacity:1;"/><path d="M149.319,53.323c1.493,1.337 1.334,2.743 1.328,4.609c-0.002,0.488 0.147,0.69 -0.338,0.709c-2.834,0.11 -2.919,-0.006 -2.938,-0.241c-0.005,-0.059 0.143,-1.315 -0.586,-2.085c-0.703,-0.743 -0.853,-0.639 -9.926,-0.639c-31.826,0 -31.839,0.019 -32.348,-0.154c-3.184,-1.088 -2.707,-3.736 -2.707,-7.566c0,-3.429 -0.082,-3.743 0.295,-3.752c2.884,-0.072 2.967,0.039 2.992,0.278c0.158,1.533 -0.388,5.827 0.388,7.063c0.622,0.99 0.894,0.847 10.069,0.847c31.972,-0 32.003,-0.031 32.649,0.247c0.807,0.348 0.935,0.537 1.122,0.685Z" style="fill:#189daa;fill-opacity:1;"/></g></svg>