<?xml version="1.0" encoding="UTF-8" standalone="no"?><!DOCTYPE svg PUBLIC "-//W3C//DTD SVG 1.1//EN" "http://www.w3.org/Graphics/SVG/1.1/DTD/svg11.dtd"><svg width="100%" height="100%" viewBox="0 0 224 212" version="1.1" xmlns="http://www.w3.org/2000/svg" xmlns:xlink="http://www.w3.org/1999/xlink" xml:space="preserve" xmlns:serif="http://www.serif.com/" style="fill-rule:evenodd;clip-rule:evenodd;stroke-linejoin:round;stroke-miterlimit:2;"><rect id="Steak" x="0" y="0.384" width="223.502" height="211.507" style="fill:none;"/><g id="Steak1" serif:id="Steak"><path id="Hex" d="M20.423,100.091l-0,-30.57c0,-3.797 2.458,-7.184 6.234,-8.968l77.499,-36.621c1.878,-0.888 3.961,-1.327 6.038,-1.327c2.074,0 4.166,0.439 6.044,1.327l77.496,36.621c3.776,1.784 6.237,5.171 6.237,8.968l-0,3.68c-2.249,-3.655 -4.991,-7.024 -8.218,-10.099c-10.347,-9.866 -24.622,-15.52 -38.143,-18.581c-8.04,-1.82 -15.777,-2.736 -22.109,-3.183l-20.232,-9.561c-0.328,-0.155 -0.697,-0.237 -1.075,-0.237c-0.375,0 -0.741,0.082 -1.069,0.237l-77.496,36.621c-0.627,0.296 -0.882,0.765 -0.882,1.122l0,12.876c-4.719,6.427 -8.038,12.609 -10.324,17.694Zm132.51,70.918l-36.694,17.34c-3.721,1.761 -8.361,1.761 -12.082,0l-53.007,-25.048c4.061,-0.822 8.069,-2.369 11.806,-4.613l46.17,21.818c0.665,0.313 1.477,0.313 2.145,0l26.538,-12.541c5.296,1.59 10.341,2.599 15.125,3.043Z" style="fill:#189caa;stroke:#189caa;stroke-width:0.5px;"/><g><path id="path2-27-1-9" d="M116.473,48.016c-62.983,2.728 -84.931,42.318 -91.449,59.214c-1.598,4.156 -2.287,8.166 -2.045,11.921c0.589,9.149 5.369,14.871 14.616,17.486c8.017,2.272 16.884,0.407 24.343,-5.101c7.088,-5.24 16.012,-8.447 25.802,-9.279c0.977,-0.082 1.947,-0.123 2.918,-0.123c6.457,0 12.799,1.817 18.504,5.323c26.255,16.144 47.802,21.112 64.02,14.761c17.303,-6.77 24.121,-25.128 26.25,-32.706c0.707,-2.513 1.075,-4.968 1.094,-7.29c0.108,-13.888 -4.468,-25.346 -13.602,-34.051c-23.598,-22.502 -69.984,-20.173 -70.451,-20.154Zm38.653,80.58c-13.314,0 -24.144,-10.833 -24.144,-24.148c0,-13.314 10.83,-24.15 24.144,-24.15c13.313,0 24.14,10.833 24.14,24.15c0,13.318 -10.831,24.148 -24.14,24.148Z" style="fill:#189caa;fill-rule:nonzero;"/><path id="path3-15-2-9" d="M155.129,86.638c-9.815,0 -17.801,7.988 -17.801,17.806c0,9.818 7.989,17.803 17.801,17.803c9.812,0 17.797,-7.988 17.797,-17.803c0,-9.815 -7.985,-17.806 -17.797,-17.806Z" style="fill:#189caa;fill-rule:nonzero;"/><path id="path4-21-6-9" d="M109.167,146.88c26.258,16.16 47.802,21.13 64.016,14.78c17.306,-6.77 24.128,-25.137 26.255,-32.719c0.438,-1.548 0.698,-3.039 0.87,-4.495c-4.586,8.825 -12.283,18.774 -24.816,23.679c-5.287,2.067 -11.018,3.102 -17.176,3.102c-15.019,0 -32.589,-6.138 -52.473,-18.364c-5.324,-3.271 -11.547,-4.8 -17.566,-4.286c-8.743,0.742 -16.336,3.452 -22.571,8.061c-9.044,6.684 -19.903,8.915 -29.835,6.106c-5.404,-1.529 -9.666,-4.079 -12.841,-7.483c-0.083,1.129 -0.118,2.246 -0.041,3.328c0.574,9.162 5.346,14.872 14.591,17.495c7.906,2.243 16.998,0.33 24.346,-5.117c8.979,-6.615 18.997,-8.693 25.828,-9.269c7.411,-0.615 14.829,1.18 21.416,5.186l-0.003,-0.003Z" style="fill:#189caa;fill-rule:nonzero;"/></g></g></svg>