<?xml version="1.0" encoding="UTF-8" standalone="no"?><!DOCTYPE svg PUBLIC "-//W3C//DTD SVG 1.1//EN" "http://www.w3.org/Graphics/SVG/1.1/DTD/svg11.dtd"><svg width="100%" height="100%" viewBox="0 0 224 212" version="1.1" xmlns="http://www.w3.org/2000/svg" xmlns:xlink="http://www.w3.org/1999/xlink" xml:space="preserve" xmlns:serif="http://www.serif.com/" style="fill-rule:evenodd;clip-rule:evenodd;stroke-linejoin:round;stroke-miterlimit:2;"><rect id="Sunrise" x="0" y="-0" width="223.502" height="211.507" style="fill:none;"/><path id="Hex" d="M39.19,156.283l-10.734,-5.072c-3.765,-1.779 -6.216,-5.153 -6.216,-8.939l0,-73.028c0,-3.786 2.451,-7.163 6.216,-8.942l74.445,-35.178c-2.48,2.364 -4.036,5.702 -4.036,9.389c0,0.116 0.003,0.231 0.008,0.345l0,2.333l-25.678,12.134c-2.325,-1.976 -5.281,-3.062 -8.319,-3.062l-0.288,0c-0.113,0 -0.225,0.003 -0.338,0.008c-3.688,0.178 -7.032,1.867 -9.386,4.798c-1.873,2.323 -2.796,5.256 -2.751,8.218l-18.7,8.837c-0.625,0.295 -0.879,0.762 -0.879,1.119l0,27.26c-0.583,0.46 -1.129,0.973 -1.631,1.536c-2.435,2.73 -3.591,6.258 -3.229,9.95l0.001,0.007c0.344,3.475 2.17,6.601 4.859,8.737l0,25.538c0,0.356 0.254,0.824 0.879,1.119l7.046,3.33c-1.627,2.81 -2.166,6.237 -1.269,9.562Zm81.445,-131.142l74.408,35.162c3.765,1.779 6.219,5.156 6.219,8.942l0,73.028c0,3.786 -2.457,7.16 -6.219,8.939l-10.732,5.071c0.901,-3.327 0.364,-6.754 -1.264,-9.564l7.042,-3.328c0.625,-0.295 0.879,-0.762 0.879,-1.119l0,-25.379c0.437,-0.347 0.855,-0.724 1.251,-1.131l0.018,-0.019c2.403,-2.487 3.705,-5.761 3.653,-9.247l-0,-0.016c-0.07,-4.031 -1.989,-7.613 -4.922,-9.943l0,-27.294c0,-0.356 -0.254,-0.824 -0.879,-1.119l-18.587,-8.783c0.001,-0.078 0,-0.157 -0,-0.235c-0.035,-3.492 -1.42,-6.749 -3.897,-9.17c-2.496,-2.44 -5.729,-3.656 -8.98,-3.656c-2.907,0 -5.912,1.015 -8.312,3.049l-25.686,-12.138l0,-2.677c0,-3.501 -1.364,-6.769 -3.83,-9.215c-0.054,-0.053 -0.108,-0.106 -0.162,-0.158Zm20.413,151.585l-23.274,10.998c-3.71,1.756 -8.337,1.756 -12.047,0l-23.271,-10.997c5.429,-0.99 11.149,-1.696 17.05,-2.104l11.175,5.281c0.663,0.313 1.472,0.313 2.138,0l11.177,-5.282c5.902,0.408 11.621,1.112 17.051,2.103Z" style="fill:#189caa;stroke:#189caa;stroke-width:0.5px;"/><g id="Sunrise1" serif:id="Sunrise"><path d="M174.138,147.831c-17.927,-6.512 -39.502,-9.955 -62.388,-9.955c-22.893,0 -44.468,3.443 -62.388,9.955c-2.823,1.028 -4.295,4.18 -3.287,7.039c1.016,2.867 4.134,4.341 6.949,3.329c16.521,-6.002 37.376,-9.306 58.726,-9.306c21.35,0 42.197,3.304 58.726,9.306c0.608,0.219 1.223,0.324 1.831,0.324c2.231,0 4.318,-1.401 5.118,-3.652c1.016,-2.859 -0.456,-6.011 -3.287,-7.039Z" style="fill:#189caa;fill-rule:nonzero;"/><path d="M111.75,130.326c9.524,0 18.815,0.607 27.756,1.734c5.069,-6.269 8.116,-14.28 8.116,-23.012c0,-20.071 -16.065,-36.336 -35.872,-36.336c-19.815,0 -35.872,16.273 -35.872,36.336c0,8.732 3.047,16.743 8.116,23.012c8.948,-1.134 18.24,-1.734 27.756,-1.734Z" style="fill:#189caa;fill-rule:nonzero;"/><path d="M157.393,162.046c-13.45,-3.823 -29.235,-5.848 -45.643,-5.848c-16.408,0 -32.194,2.025 -45.643,5.848c-2.887,0.826 -4.574,3.864 -3.766,6.788c0.815,2.923 3.814,4.632 6.701,3.815c12.506,-3.556 27.276,-5.443 42.708,-5.443c15.433,0 30.195,1.879 42.708,5.443c0.488,0.138 0.984,0.203 1.472,0.203c2.375,0 4.558,-1.588 5.229,-4.017c0.808,-2.924 -0.871,-5.97 -3.766,-6.788Z" style="fill:#189caa;fill-rule:nonzero;"/><path d="M105.873,34.514l0,20.096c0,1.676 0.704,3.288 1.935,4.415c1.247,1.141 2.855,1.692 4.55,1.506c2.951,-0.3 5.269,-3.062 5.269,-6.294l0,-19.723c0,-1.612 -0.624,-3.118 -1.759,-4.245c-1.136,-1.126 -2.646,-1.725 -4.222,-1.709c-3.19,0.057 -5.781,2.721 -5.781,5.954l0.008,0Z" style="fill:#189caa;fill-rule:nonzero;"/><path d="M183.014,100.746l-19.839,0c-1.655,0 -3.247,0.712 -4.358,1.96c-1.127,1.263 -1.655,2.9 -1.487,4.609c0.296,2.988 3.023,5.338 6.213,5.338l19.472,0c1.592,0 3.078,-0.632 4.191,-1.774c1.111,-1.15 1.711,-2.665 1.687,-4.277c-0.056,-3.232 -2.686,-5.856 -5.877,-5.856Z" style="fill:#189caa;fill-rule:nonzero;"/><path d="M40.854,112.653l19.472,0c1.591,0 3.078,-0.632 4.19,-1.783c1.111,-1.15 1.712,-2.665 1.688,-4.276c-0.056,-3.233 -2.687,-5.857 -5.877,-5.857l-19.839,0c-1.655,0 -3.247,0.713 -4.358,1.96c-1.127,1.264 -1.655,2.9 -1.487,4.609c0.296,2.989 3.022,5.338 6.213,5.338l0,0.008Z" style="fill:#189caa;fill-rule:nonzero;"/><path d="M143.96,65.657c-1.176,1.191 -1.799,2.835 -1.712,4.512c0.08,1.701 0.855,3.24 2.167,4.326c2.295,1.904 5.861,1.611 8.125,-0.681l10.243,-10.384c1.12,-1.134 1.736,-2.649 1.719,-4.252c-0.016,-1.612 -0.648,-3.118 -1.791,-4.236c-1.136,-1.11 -2.607,-1.661 -4.086,-1.661c-1.479,0 -3.015,0.575 -4.158,1.734l-10.507,10.643Z" style="fill:#189caa;fill-rule:nonzero;"/><path d="M60.981,63.697l10.251,10.376c1.112,1.126 2.583,1.741 4.159,1.741l0.047,0c1.592,-0.016 3.071,-0.656 4.175,-1.814c2.214,-2.317 2.183,-6.067 -0.073,-8.351l-10.507,-10.644c-1.104,-1.118 -2.607,-1.741 -4.158,-1.741l-0.288,0c-1.68,0.081 -3.199,0.858 -4.271,2.195c-1.879,2.325 -1.592,5.945 0.672,8.23l-0.008,0.008Z" style="fill:#189caa;fill-rule:nonzero;"/></g></svg>