<?xml version="1.0" encoding="UTF-8" standalone="no"?><!DOCTYPE svg PUBLIC "-//W3C//DTD SVG 1.1//EN" "http://www.w3.org/Graphics/SVG/1.1/DTD/svg11.dtd"><svg width="100%" height="100%" viewBox="0 0 224 212" version="1.1" xmlns="http://www.w3.org/2000/svg" xmlns:xlink="http://www.w3.org/1999/xlink" xml:space="preserve" xmlns:serif="http://www.serif.com/" style="fill-rule:evenodd;clip-rule:evenodd;stroke-linejoin:round;stroke-miterlimit:2;"><rect id="Target" x="0" y="0.384" width="223.502" height="211.507" style="fill:none;"/><g id="Target1" serif:id="Target"><path id="Hex" d="M58.011,165.81l-29.8,-14.081c-3.776,-1.784 -6.234,-5.168 -6.234,-8.965l0,-73.242c0,-3.797 2.458,-7.184 6.234,-8.968l29.784,-14.074c-5.494,4.958 -10.306,10.658 -14.273,16.939l-10.539,4.98c-0.627,0.296 -0.882,0.765 -0.882,1.122l0,24.292c-0.625,4.02 -0.95,8.136 -0.95,12.325c0,4.188 0.325,8.305 0.95,12.325l-0,24.301c0,0.357 0.255,0.826 0.882,1.122l10.548,4.985c3.97,6.281 8.784,11.982 14.28,16.94Zm42.083,-139.223l5.617,-2.654c1.878,-0.888 3.961,-1.327 6.038,-1.327c2.074,0 4.166,0.439 6.044,1.327l5.602,2.647c-3.816,-0.555 -7.705,-0.842 -11.643,-0.842c-3.957,0 -7.85,0.29 -11.658,0.849Zm87.983,30.559l7.212,3.408c3.776,1.784 6.237,5.171 6.237,8.968l0,73.242c0,3.797 -2.464,7.181 -6.237,8.965l-29.795,14.08c5.495,-4.957 10.309,-10.657 14.278,-16.938l10.548,-4.984c0.627,-0.296 0.882,-0.765 0.882,-1.122l0,-24.301c0.625,-4.02 0.95,-8.136 0.95,-12.325c0,-4.185 -0.324,-8.316 -0.95,-12.362l0,-24.254c0,-0.357 -0.255,-0.826 -0.882,-1.122l-9.166,-4.332l6.923,-6.922Zm-64.647,128.54l-5.637,2.664c-3.721,1.761 -8.361,1.761 -12.082,0l-5.637,-2.664c3.815,0.561 7.714,0.852 11.678,0.852c3.964,0 7.863,-0.291 11.678,-0.852Z" style="fill:#189caa;stroke:#189caa;stroke-width:0.5px;"/><g id="Target2" serif:id="Target"><path d="M148.451,64.85l-37.617,37.617c-1.223,1.223 -1.223,3.365 0,4.587c1.223,1.223 3.364,1.223 4.587,0l37.617,-37.617l11.316,1.529l20.797,-20.796l-15.291,-2.141l-2.141,-15.291l-21.102,21.102l1.835,11.01Z" style="fill:#189caa;fill-rule:nonzero;"/><path d="M166.801,77.084c4.587,8.563 7.34,18.35 7.34,29.054c0,34.253 -27.83,62.084 -62.084,62.084c-34.559,0 -62.39,-27.831 -62.39,-62.084c0,-34.253 27.831,-62.084 62.084,-62.084c10.398,0 20.185,2.447 29.054,7.034l8.258,-8.258c-11.01,-6.422 -23.855,-10.092 -37.312,-10.092c-40.37,0 -73.4,33.03 -73.4,73.4c0,40.37 33.03,73.4 73.4,73.4c40.37,0 73.4,-33.03 73.4,-73.4c0,-13.457 -3.67,-26.302 -10.092,-37.312l-8.258,8.258Z" style="fill:#189caa;fill-rule:nonzero;"/><path d="M140.5,64.238c-8.258,-5.811 -18.045,-8.869 -28.748,-8.869c-28.137,0 -50.768,22.631 -50.768,50.768c0,28.137 22.631,50.768 50.768,50.768c28.137,0 50.768,-22.631 50.768,-50.768c0,-10.704 -3.364,-20.491 -8.869,-28.748l-8.258,8.258c3.67,6.116 5.811,13.151 5.811,20.491c0,21.714 -17.738,39.452 -39.452,39.452c-21.714,0 -39.452,-17.738 -39.452,-39.452c0,-21.714 17.738,-39.452 39.452,-39.452c7.646,0 14.68,2.141 20.491,5.811l8.258,-8.258Z" style="fill:#189caa;fill-rule:nonzero;"/><path d="M111.751,89.316c1.223,0 2.447,0 3.364,0.306l8.87,-8.87c-3.67,-1.835 -7.952,-2.752 -12.234,-2.752c-15.598,0 -28.137,12.539 -28.137,28.137c0,15.598 12.539,28.137 28.137,28.137c15.598,0 28.137,-12.539 28.137,-28.137c0,-4.282 -0.917,-8.563 -2.752,-12.234l-8.87,8.87c0.306,1.223 0.306,2.141 0.306,3.364c0,9.48 -7.646,16.821 -16.821,16.821c-9.48,0 -16.821,-7.646 -16.821,-16.821c0,-9.48 7.341,-16.821 16.821,-16.821Z" style="fill:#189caa;fill-rule:nonzero;"/></g></g></svg>