<?xml version="1.0" encoding="UTF-8" standalone="no"?><!DOCTYPE svg PUBLIC "-//W3C//DTD SVG 1.1//EN" "http://www.w3.org/Graphics/SVG/1.1/DTD/svg11.dtd"><svg width="100%" height="100%" viewBox="0 0 224 212" version="1.1" xmlns="http://www.w3.org/2000/svg" xmlns:xlink="http://www.w3.org/1999/xlink" xml:space="preserve" xmlns:serif="http://www.serif.com/" style="fill-rule:evenodd;clip-rule:evenodd;stroke-linejoin:round;stroke-miterlimit:2;"><rect id="Water-Bottle" serif:id="Water Bottle" x="0" y="0.384" width="223.502" height="211.507" style="fill:none;"/><path id="Hex" d="M76.976,174.771l-48.765,-23.043c-3.776,-1.784 -6.234,-5.168 -6.234,-8.965l0,-73.242c0,-3.797 2.458,-7.184 6.234,-8.968l60.035,-28.369l0,10.194l-55.063,26.02c-0.627,0.296 -0.882,0.765 -0.882,1.122l0,73.242c0,0.357 0.255,0.826 0.882,1.122l43.793,20.695l0,10.191Zm58.281,-142.586l60.032,28.368c3.776,1.784 6.237,5.171 6.237,8.968l0,73.242c0,3.797 -2.464,7.181 -6.237,8.965l-48.762,23.043l0,-10.191l43.793,-20.695c0.627,-0.296 0.882,-0.765 0.882,-1.122l0,-73.242c0,-0.357 -0.255,-0.826 -0.882,-1.122l-55.063,-26.02l0,-10.194Z" style="fill:#189caa;stroke:#189caa;stroke-width:0.5px;"/><g id="Water-Bottle1" serif:id="Water Bottle"><path d="M123.833,24.202c0,-0.851 -0.662,-1.545 -1.475,-1.545l-21.214,0c-0.812,0 -1.474,0.694 -1.474,1.545l0,3.181l24.163,0l0,-3.181" style="fill:#189caa;fill-rule:nonzero;"/><path d="M126.892,45.438c0.752,0 1.364,-0.641 1.364,-1.43l0,-11.919c0,-0.788 -0.613,-1.43 -1.364,-1.43l-30.282,0c-0.752,0 -1.364,0.641 -1.364,1.43l0,11.919c0,0.788 0.612,1.43 1.364,1.43l30.282,0" style="fill:#189caa;fill-rule:nonzero;"/><path d="M109.656,109.869l-6.007,0c-0.865,0 -1.564,-0.733 -1.564,-1.639c0,-0.904 0.699,-1.639 1.564,-1.639l6.007,0c0.863,0 1.563,0.734 1.563,1.639c0,0.905 -0.7,1.639 -1.563,1.639Zm-9.986,-57.146c0,2.931 -1.716,5.536 -4.271,6.481c-6.832,2.531 -11.423,9.326 -11.423,16.912l0,7.551c0,1.872 1.453,3.394 3.239,3.394l28.727,0c0.863,0 1.564,0.733 1.564,1.639c0,0.903 -0.701,1.638 -1.564,1.638l-27.924,0c-2.228,0 -4.042,1.901 -4.042,4.235l0,7.783c0,2.336 1.814,4.235 4.042,4.235l8.925,0c0.863,0 1.563,0.734 1.563,1.639c0,0.905 -0.7,1.639 -1.563,1.639l-8.925,0c-2.228,0 -4.042,1.901 -4.042,4.236l0,7.782c0,2.336 1.814,4.235 4.042,4.235l6.689,0c0.863,0 1.563,0.733 1.563,1.639c0,0.903 -0.7,1.637 -1.563,1.637l-7.492,0c-1.786,0 -3.239,1.523 -3.239,3.395l0,45.87c0,2.495 1.939,4.527 4.322,4.527l46.906,0c2.383,0 4.322,-2.032 4.322,-4.527l0,-45.87c0,-1.872 -1.453,-3.395 -3.239,-3.395l-34.307,0c-0.863,0 -1.562,-0.733 -1.562,-1.637c0,-0.905 0.699,-1.639 1.562,-1.639l33.503,0c2.229,0 4.043,-1.9 4.043,-4.235l0,-7.782c0,-2.336 -1.814,-4.236 -4.043,-4.236l-19.541,0c-0.864,0 -1.564,-0.733 -1.564,-1.639c0,-0.904 0.7,-1.639 1.564,-1.639l19.541,0c2.229,0 4.043,-1.899 4.043,-4.235l0,-7.783c0,-2.335 -1.814,-4.235 -4.043,-4.235l-11.718,0c-0.863,0 -1.563,-0.734 -1.563,-1.638c0,-0.905 0.7,-1.639 1.563,-1.639l12.522,0c1.786,0 3.239,-1.522 3.239,-3.394l0,-7.551c0,-7.585 -4.591,-14.381 -11.424,-16.912c-2.553,-0.946 -4.27,-3.55 -4.27,-6.481l0,-4.009l-24.163,0l0,4.009" style="fill:#189caa;fill-rule:nonzero;"/></g></svg>