<?xml version="1.0" encoding="UTF-8" standalone="no"?><!DOCTYPE svg PUBLIC "-//W3C//DTD SVG 1.1//EN" "http://www.w3.org/Graphics/SVG/1.1/DTD/svg11.dtd"><svg width="100%" height="100%" viewBox="0 0 224 212" version="1.1" xmlns="http://www.w3.org/2000/svg" xmlns:xlink="http://www.w3.org/1999/xlink" xml:space="preserve" xmlns:serif="http://www.serif.com/" style="fill-rule:evenodd;clip-rule:evenodd;stroke-linejoin:round;stroke-miterlimit:2;"><rect id="Weight-Scales" serif:id="Weight Scales" x="0" y="0.384" width="223.502" height="211.507" style="fill:none;"/><g id="Weight-Scales1" serif:id="Weight Scales"><path id="Hex" d="M45.293,159.8l-17.082,-8.072c-3.776,-1.784 -6.234,-5.168 -6.234,-8.965l0,-73.242c0,-3.797 2.458,-7.184 6.234,-8.968l9.754,-4.609c-0.157,0.133 -0.313,0.267 -0.469,0.401c-5.68,4.893 -8.166,11.865 -6.881,19.242l1.686,9.682l0,57.494c0,0.357 0.255,0.826 0.882,1.122l10.16,4.801l1.8,10.34l0.001,0.006c0.045,0.258 0.095,0.514 0.149,0.768Zm32.93,-122.879l27.487,-12.988c1.878,-0.888 3.961,-1.327 6.038,-1.327c2.074,0 4.166,0.439 6.044,1.327l27.485,12.988c-9.479,-2.257 -19.5,-3.529 -29.594,-3.791l-2.86,-1.351c-0.328,-0.155 -0.697,-0.237 -1.075,-0.237c-0.375,0 -0.741,0.082 -1.069,0.237l-2.86,1.351c-10.094,0.262 -20.116,1.534 -29.596,3.791Zm107.318,19.027l9.747,4.606c3.776,1.784 6.237,5.171 6.237,8.968l0,73.242c0,3.797 -2.464,7.181 -6.237,8.965l-17.078,8.07c0.054,-0.256 0.104,-0.513 0.149,-0.773l1.8,-10.339l10.16,-4.801c0.627,-0.296 0.882,-0.765 0.882,-1.122l0,-57.491l1.686,-9.685c1.284,-7.375 -1.21,-14.348 -6.878,-19.239c-0.155,-0.134 -0.311,-0.267 -0.468,-0.4Zm-42.028,120.247l-25.721,12.155c-3.721,1.761 -8.361,1.761 -12.082,0l-25.722,-12.155l21.566,0l9.125,4.312c0.665,0.313 1.477,0.313 2.145,0l9.125,-4.312l21.565,0Z" style="fill:#189caa;stroke:#189caa;stroke-width:0.5px;"/><path id="path2-59" d="M52.04,157.826l-14.528,-83.439c-0.85,-4.883 0.794,-9.5 4.554,-12.739c33.337,-28.759 106.034,-28.759 139.371,0c3.753,3.239 5.405,7.855 4.554,12.739l-14.528,83.439c-1.153,6.626 -6.79,11.369 -13.523,11.369l-92.377,0c-6.726,0 -12.364,-4.743 -13.523,-11.369Zm16.355,-10.807c3.402,0 6.157,2.754 6.157,6.155c0,3.401 -2.755,6.156 -6.157,6.156c-3.401,0 -6.156,-2.755 -6.156,-6.156c0,-3.4 2.755,-6.155 6.156,-6.155Zm102.099,-77.825c-3.402,0 -6.157,2.762 -6.157,6.156c0,3.4 2.755,6.155 6.157,6.155c3.402,0 6.157,-2.762 6.157,-6.155c0,-3.394 -2.762,-6.156 -6.157,-6.156Zm-15.393,77.825c-3.402,0 -6.157,2.754 -6.157,6.155c0,3.401 2.755,6.156 6.157,6.156c3.402,0 6.157,-2.755 6.157,-6.156c0,-3.4 -2.755,-6.155 -6.157,-6.155Zm-34.278,-5.291c0.393,1.068 0.59,2.199 0.59,3.338c0,5.333 -4.329,9.661 -9.664,9.661c-5.335,0 -9.665,-4.328 -9.665,-9.661c0,-1.139 0.197,-2.27 0.591,-3.338l9.074,-27.994l9.074,27.994Zm-39.768,-22.625c7.717,-2.509 16.637,-3.956 25.731,-4.343l4.963,-15.311l4.962,15.311c9.102,0.387 18.014,1.834 25.732,4.343l25.184,-29.308c-4.33,-2.986 -9.299,-5.509 -14.704,-7.574l-10.529,15.121l-3.613,-2.509l9.84,-14.13c-4.723,-1.538 -9.734,-2.754 -14.894,-3.653l-4.716,16.034l-4.217,-1.237l4.547,-15.472c-5.047,-0.689 -10.212,-1.068 -15.393,-1.16l0,16.323l-4.407,0l0,-16.323c-5.18,0.085 -10.346,0.471 -15.392,1.16l4.547,15.472l-4.218,1.237l-4.709,-16.034c-5.166,0.892 -10.163,2.108 -14.894,3.653l9.841,14.13l-3.613,2.509l-10.529,-15.121c-5.405,2.066 -10.374,4.596 -14.703,7.574l25.177,29.308l0.007,0Zm-28.051,-49.909c3.402,0 6.157,2.762 6.157,6.156c0,3.4 -2.755,6.155 -6.157,6.155c-3.402,0 -6.157,-2.762 -6.157,-6.155c0,-3.394 2.755,-6.156 6.157,-6.156Z" style="fill:#189caa;"/></g></svg>