<?xml version="1.0" encoding="UTF-8" standalone="no"?><!DOCTYPE svg PUBLIC "-//W3C//DTD SVG 1.1//EN" "http://www.w3.org/Graphics/SVG/1.1/DTD/svg11.dtd"><svg width="100%" height="100%" viewBox="0 0 224 212" version="1.1" xmlns="http://www.w3.org/2000/svg" xmlns:xlink="http://www.w3.org/1999/xlink" xml:space="preserve" xmlns:serif="http://www.serif.com/" style="fill-rule:evenodd;clip-rule:evenodd;stroke-linejoin:round;stroke-miterlimit:2;"><rect id="Weight-Plate" serif:id="Weight Plate" x="0" y="0.384" width="223.502" height="211.507" style="fill:none;"/><g id="Weight-Plate1" serif:id="Weight Plate"><path id="Hex" d="M57.814,165.717l-29.603,-13.989c-3.776,-1.784 -6.234,-5.168 -6.234,-8.965l0,-73.242c0,-3.797 2.458,-7.184 6.234,-8.968l29.588,-13.981c-5.455,4.946 -10.23,10.628 -14.167,16.889l-10.449,4.938c-0.627,0.296 -0.882,0.765 -0.882,1.122l0,24.221c-0.628,4.041 -0.954,8.181 -0.954,12.396c-0,4.215 0.326,8.354 0.954,12.396l0,24.23c0,0.357 0.255,0.826 0.882,1.122l10.458,4.942c3.939,6.261 8.716,11.944 14.174,16.889Zm42.311,-139.145l5.585,-2.639c1.878,-0.888 3.961,-1.327 6.038,-1.327c2.074,0 4.166,0.439 6.044,1.327l5.585,2.639c-3.797,-0.552 -7.679,-0.838 -11.626,-0.838c-3.947,0 -7.829,0.286 -11.626,0.838Zm65.581,20.002l29.583,13.979c3.776,1.784 6.237,5.171 6.237,8.968l0,73.242c0,3.797 -2.464,7.181 -6.237,8.965l-29.598,13.987c5.457,-4.945 10.234,-10.627 14.172,-16.888l10.458,-4.942c0.627,-0.296 0.882,-0.765 0.882,-1.122l0,-24.23c0.628,-4.041 0.954,-8.181 0.954,-12.396c0,-4.215 -0.326,-8.354 -0.954,-12.396l0,-24.221c0,-0.357 -0.255,-0.826 -0.882,-1.122l-10.449,-4.938c-3.936,-6.26 -8.711,-11.942 -14.165,-16.887Zm-42.308,139.127l-5.605,2.649c-3.721,1.761 -8.361,1.761 -12.082,0l-5.606,-2.649c3.803,0.554 7.692,0.841 11.647,0.841c3.954,0 7.843,-0.287 11.646,-0.841Z" style="fill:#189caa;stroke:#189caa;stroke-width:0.5px;"/><g><path id="path2-01" d="M128.495,106.138c0,0.274 -0.007,0.548 -0.02,0.821c-0.013,0.274 -0.033,0.547 -0.06,0.82c-0.027,0.273 -0.06,0.544 -0.101,0.816c-0.04,0.271 -0.087,0.541 -0.141,0.81c-0.053,0.268 -0.114,0.536 -0.18,0.802c-0.067,0.265 -0.139,0.53 -0.219,0.792c-0.08,0.262 -0.166,0.522 -0.258,0.78c-0.093,0.258 -0.191,0.514 -0.296,0.766c-0.104,0.253 -0.216,0.503 -0.333,0.752c-0.117,0.247 -0.24,0.492 -0.369,0.734c-0.129,0.241 -0.265,0.48 -0.405,0.715c-0.141,0.235 -0.288,0.467 -0.44,0.695c-0.152,0.228 -0.309,0.452 -0.473,0.672c-0.164,0.22 -0.332,0.436 -0.506,0.648c-0.174,0.212 -0.353,0.419 -0.537,0.622c-0.184,0.203 -0.374,0.401 -0.567,0.596c-0.194,0.193 -0.392,0.383 -0.596,0.567c-0.203,0.184 -0.41,0.363 -0.622,0.537c-0.212,0.174 -0.428,0.342 -0.648,0.506c-0.22,0.163 -0.444,0.321 -0.672,0.473c-0.227,0.152 -0.459,0.299 -0.695,0.44c-0.235,0.141 -0.473,0.276 -0.715,0.405c-0.242,0.129 -0.486,0.252 -0.734,0.369c-0.248,0.118 -0.499,0.229 -0.752,0.333c-0.253,0.105 -0.509,0.203 -0.766,0.296c-0.258,0.092 -0.518,0.178 -0.78,0.258c-0.262,0.08 -0.527,0.152 -0.792,0.219c-0.266,0.067 -0.534,0.127 -0.802,0.18c-0.269,0.053 -0.539,0.101 -0.81,0.141c-0.271,0.04 -0.543,0.073 -0.816,0.101c-0.273,0.027 -0.546,0.047 -0.82,0.06c-0.274,0.013 -0.548,0.02 -0.821,0.02c-0.274,0 -0.548,-0.007 -0.821,-0.02c-0.274,-0.013 -0.547,-0.033 -0.82,-0.06c-0.273,-0.027 -0.544,-0.06 -0.816,-0.101c-0.271,-0.04 -0.541,-0.087 -0.81,-0.141c-0.268,-0.053 -0.536,-0.114 -0.802,-0.18c-0.265,-0.067 -0.53,-0.139 -0.792,-0.219c-0.262,-0.08 -0.522,-0.166 -0.78,-0.258c-0.258,-0.093 -0.514,-0.191 -0.766,-0.296c-0.253,-0.104 -0.503,-0.216 -0.752,-0.333c-0.247,-0.117 -0.492,-0.24 -0.734,-0.369c-0.241,-0.129 -0.48,-0.265 -0.715,-0.405c-0.235,-0.141 -0.467,-0.288 -0.695,-0.44c-0.228,-0.152 -0.452,-0.309 -0.672,-0.473c-0.22,-0.164 -0.436,-0.332 -0.648,-0.506c-0.212,-0.174 -0.419,-0.353 -0.622,-0.537c-0.203,-0.184 -0.401,-0.374 -0.596,-0.567c-0.193,-0.194 -0.383,-0.392 -0.567,-0.596c-0.184,-0.203 -0.363,-0.41 -0.537,-0.622c-0.174,-0.212 -0.342,-0.428 -0.506,-0.648c-0.163,-0.22 -0.321,-0.444 -0.473,-0.672c-0.152,-0.227 -0.299,-0.459 -0.44,-0.695c-0.141,-0.235 -0.276,-0.473 -0.405,-0.715c-0.129,-0.242 -0.252,-0.486 -0.369,-0.734c-0.118,-0.248 -0.229,-0.499 -0.333,-0.752c-0.105,-0.253 -0.203,-0.509 -0.296,-0.766c-0.092,-0.258 -0.178,-0.518 -0.258,-0.78c-0.08,-0.262 -0.152,-0.527 -0.219,-0.792c-0.067,-0.266 -0.127,-0.534 -0.18,-0.802c-0.053,-0.269 -0.101,-0.539 -0.141,-0.81c-0.04,-0.271 -0.073,-0.543 -0.101,-0.816c-0.027,-0.273 -0.047,-0.546 -0.06,-0.82c-0.013,-0.274 -0.02,-0.548 -0.02,-0.821c0,-0.274 0.007,-0.548 0.02,-0.821c0.013,-0.274 0.033,-0.547 0.06,-0.82c0.027,-0.273 0.06,-0.544 0.101,-0.816c0.04,-0.271 0.087,-0.541 0.141,-0.81c0.053,-0.268 0.114,-0.536 0.18,-0.802c0.067,-0.265 0.139,-0.53 0.219,-0.792c0.08,-0.262 0.166,-0.522 0.258,-0.78c0.093,-0.258 0.191,-0.514 0.296,-0.766c0.105,-0.253 0.216,-0.503 0.333,-0.752c0.117,-0.247 0.24,-0.492 0.369,-0.734c0.129,-0.241 0.265,-0.48 0.405,-0.715c0.141,-0.235 0.288,-0.467 0.44,-0.695c0.152,-0.228 0.309,-0.452 0.473,-0.672c0.164,-0.22 0.332,-0.436 0.506,-0.648c0.174,-0.212 0.353,-0.419 0.537,-0.622c0.184,-0.203 0.374,-0.401 0.567,-0.596c0.194,-0.193 0.392,-0.383 0.596,-0.567c0.203,-0.184 0.41,-0.363 0.622,-0.537c0.212,-0.174 0.428,-0.342 0.648,-0.506c0.22,-0.163 0.444,-0.321 0.672,-0.473c0.227,-0.152 0.459,-0.299 0.695,-0.44c0.235,-0.141 0.473,-0.276 0.715,-0.405c0.242,-0.129 0.486,-0.252 0.734,-0.369c0.248,-0.118 0.499,-0.228 0.752,-0.333c0.253,-0.105 0.509,-0.203 0.766,-0.296c0.258,-0.092 0.518,-0.178 0.78,-0.258c0.262,-0.08 0.527,-0.152 0.792,-0.219c0.266,-0.067 0.534,-0.127 0.802,-0.18c0.269,-0.053 0.539,-0.101 0.81,-0.141c0.271,-0.04 0.543,-0.073 0.816,-0.101c0.273,-0.027 0.546,-0.047 0.82,-0.06c0.274,-0.013 0.548,-0.02 0.821,-0.02c0.274,0 0.548,0.007 0.821,0.02c0.274,0.013 0.547,0.033 0.82,0.06c0.273,0.027 0.544,0.06 0.816,0.101c0.271,0.04 0.541,0.087 0.81,0.141c0.268,0.053 0.536,0.114 0.802,0.18c0.265,0.067 0.53,0.139 0.792,0.219c0.262,0.08 0.522,0.166 0.78,0.258c0.258,0.093 0.514,0.191 0.766,0.296c0.253,0.105 0.503,0.216 0.752,0.333c0.247,0.117 0.492,0.24 0.734,0.369c0.241,0.129 0.48,0.265 0.715,0.405c0.235,0.141 0.467,0.288 0.695,0.44c0.228,0.152 0.452,0.309 0.672,0.473c0.22,0.164 0.436,0.332 0.648,0.506c0.212,0.174 0.419,0.353 0.622,0.537c0.203,0.184 0.401,0.374 0.596,0.567c0.193,0.194 0.383,0.392 0.567,0.596c0.184,0.203 0.363,0.41 0.537,0.622c0.174,0.212 0.342,0.428 0.506,0.648c0.163,0.22 0.321,0.444 0.473,0.672c0.152,0.227 0.299,0.459 0.44,0.695c0.141,0.235 0.276,0.473 0.405,0.715c0.129,0.242 0.252,0.486 0.369,0.734c0.118,0.248 0.229,0.499 0.333,0.752c0.105,0.253 0.203,0.509 0.296,0.766c0.092,0.258 0.178,0.518 0.258,0.78c0.08,0.262 0.152,0.527 0.219,0.792c0.067,0.266 0.127,0.534 0.18,0.802c0.053,0.269 0.101,0.539 0.141,0.81c0.04,0.271 0.073,0.543 0.101,0.816c0.027,0.273 0.047,0.546 0.06,0.82c0.013,0.274 0.02,0.548 0.02,0.821Z" style="fill:#189caa;fill-rule:nonzero;"/><path id="path3-64" d="M111.751,49.055c-31.477,0 -57.083,25.608 -57.083,57.083c0,31.475 25.608,57.083 57.083,57.083c31.475,0 57.083,-25.608 57.083,-57.083c0,-31.475 -25.608,-57.083 -57.083,-57.083Zm0,79.07c-12.122,0 -21.988,-9.865 -21.988,-21.988c0,-12.122 9.865,-21.988 21.988,-21.988c12.122,0 21.988,9.865 21.988,21.988c0,12.122 -9.865,21.988 -21.988,21.988Z" style="fill:#189caa;fill-rule:nonzero;"/><path id="path4-861" d="M111.751,32.733c-40.475,0 -73.404,32.929 -73.404,73.404c0,40.475 32.929,73.404 73.404,73.404c40.475,0 73.404,-32.929 73.404,-73.404c0,-40.475 -32.929,-73.404 -73.404,-73.404Zm0,135.73c-34.366,0 -62.325,-27.959 -62.325,-62.325c0,-34.366 27.959,-62.325 62.325,-62.325c34.366,0 62.325,27.959 62.325,62.325c0,34.366 -27.959,62.325 -62.325,62.325Z" style="fill:#189caa;fill-rule:nonzero;"/></g></g></svg>