<?xml version="1.0" encoding="UTF-8" standalone="no"?><!DOCTYPE svg PUBLIC "-//W3C//DTD SVG 1.1//EN" "http://www.w3.org/Graphics/SVG/1.1/DTD/svg11.dtd"><svg width="100%" height="100%" viewBox="0 0 224 212" version="1.1" xmlns="http://www.w3.org/2000/svg" xmlns:xlink="http://www.w3.org/1999/xlink" xml:space="preserve" xmlns:serif="http://www.serif.com/" style="fill-rule:evenodd;clip-rule:evenodd;stroke-linejoin:round;stroke-miterlimit:2;"><rect id="Wrist-Wraps" serif:id="Wrist Wraps" x="0" y="0" width="223.502" height="211.507" style="fill:none;"/><path id="Hex" d="M45.064,159.059l-16.608,-7.848c-3.765,-1.779 -6.216,-5.153 -6.216,-8.939l0,-73.028c0,-3.786 2.451,-7.163 6.216,-8.942l77.272,-36.514c1.872,-0.885 3.949,-1.323 6.02,-1.323c2.068,0 4.154,0.438 6.026,1.323l0.127,0.06c-0.34,0.054 -0.667,0.122 -0.98,0.204c-0.184,0.048 -0.366,0.1 -0.547,0.156c-2.542,-1.124 -5.597,-0.653 -7.69,1.367l-12.472,12.036l-0.006,0.006c-0.556,0.482 -1.089,1.012 -1.599,1.59l-61.194,28.918c-0.625,0.295 -0.879,0.762 -0.879,1.119l0,73.028c0,0.356 0.254,0.824 0.879,1.119l14.388,6.799l-2.253,5.512c-0.439,1.075 -0.599,2.228 -0.484,3.357Zm107.648,-118.76l42.332,20.004c3.765,1.779 6.219,5.156 6.219,8.942l0,73.028c0,3.786 -2.457,7.16 -6.219,8.939l-77.269,36.514c-3.71,1.756 -8.337,1.756 -12.047,0l-39.855,-18.833c12.988,3.36 27.438,7.255 37.812,7.899c0.155,0.01 0.31,0.018 0.464,0.026l6.534,3.088c0.663,0.313 1.472,0.313 2.138,0l77.269,-36.514c0.625,-0.295 0.879,-0.762 0.879,-1.119l0,-73.028c0,-0.356 -0.254,-0.824 -0.879,-1.119l-17.776,-8.4c-4.331,-5.726 -11.666,-12.974 -19.601,-19.427Z" style="fill:#189caa;stroke:#189caa;stroke-width:0.5px;"/><path id="Wrist-Wraps1" serif:id="Wrist Wraps" d="M117.727,165.221c-0.17,0.465 -0.392,0.892 -0.664,1.28c-6.703,9.573 -43.561,-3.701 -65.035,-8.152l10.289,-25.176c10.348,0.552 31.913,7.977 48.102,10.734c9.308,1.585 16.837,1.626 19.435,-2.069l-12.126,23.383Zm-2.193,-68.145c-6.531,0.356 -12.847,0.67 -18.346,0.929c-7.902,0.372 -14.117,0.631 -16.865,0.743l-0.35,-20.186c0,0 5.946,-0.081 14.856,-0.254c4.839,-0.094 10.551,-0.215 16.66,-0.365c15.327,-0.378 33.15,-0.94 45.926,-1.717c7.113,-0.433 12.662,-0.934 15.344,-1.505c0.575,-0.123 1.021,-0.335 1.345,-0.629l-7.995,17.321c-0.277,0.809 -0.947,1.359 -2.068,1.599c-7.162,1.527 -28.816,2.991 -48.506,4.065Zm-24.886,-14.324l0.289,10.795l38.917,-2.134l0,-9.483l-39.205,0.823Zm24.7,17.223c2.712,10.345 6.328,20.242 10.636,28.044c3.075,5.569 3.458,9.149 1.95,11.294c-2.284,3.247 -8.901,3.211 -17.081,1.818c-5.253,-11.849 -9.273,-26.404 -11.627,-40.34c4.833,-0.228 10.383,-0.503 16.122,-0.816Zm54.361,-27.236c-0.293,0.264 -0.694,0.456 -1.213,0.567c-2.418,0.516 -7.42,0.966 -13.833,1.357c-11.027,-12.257 -30.917,-27.93 -42.806,-31.06c0.607,-4.334 1.676,-7.808 3.255,-10.063c0.99,-1.414 2.18,-2.348 3.582,-2.715c13.162,-3.445 57.316,36.213 51.016,41.915Zm-68.795,-29.939l12.63,-12.188c-1.751,2.5 -2.937,6.353 -3.61,11.161c-1.315,9.398 -0.301,20.137 1.922,33.862c-6.109,0.15 -11.822,0.271 -16.66,0.365c-1.13,-17.07 0.267,-28.633 5.719,-33.2Z" style="fill:#189caa;"/></svg>